G04 #@! TF.GenerationSoftware,KiCad,Pcbnew,(5.1.5)-3*
G04 #@! TF.CreationDate,2020-01-16T17:02:50-07:00*
G04 #@! TF.ProjectId,Igloo10,49676c6f-6f31-4302-9e6b-696361645f70,rev?*
G04 #@! TF.SameCoordinates,Original*
G04 #@! TF.FileFunction,Soldermask,Top*
G04 #@! TF.FilePolarity,Negative*
%FSLAX46Y46*%
G04 Gerber Fmt 4.6, Leading zero omitted, Abs format (unit mm)*
G04 Created by KiCad (PCBNEW (5.1.5)-3) date 2020-01-16 17:02:50*
%MOMM*%
%LPD*%
G04 APERTURE LIST*
%ADD10C,0.152400*%
%ADD11C,1.000000*%
%ADD12C,0.150000*%
%ADD13C,0.300000*%
%ADD14C,0.100000*%
G04 APERTURE END LIST*
D10*
X120861913Y-78295000D02*
G75*
G03X120861913Y-78295000I-241913J0D01*
G01*
X119861913Y-78295000D02*
G75*
G03X119861913Y-78295000I-241913J0D01*
G01*
X118861913Y-78295000D02*
G75*
G03X118861913Y-78295000I-241913J0D01*
G01*
X117861913Y-78295000D02*
G75*
G03X117861913Y-78295000I-241913J0D01*
G01*
X116861913Y-78295000D02*
G75*
G03X116861913Y-78295000I-241913J0D01*
G01*
X115861913Y-78295000D02*
G75*
G03X115861913Y-78295000I-241913J0D01*
G01*
X114861913Y-78295000D02*
G75*
G03X114861913Y-78295000I-241913J0D01*
G01*
X113861913Y-78295000D02*
G75*
G03X113861913Y-78295000I-241913J0D01*
G01*
X112861913Y-78295000D02*
G75*
G03X112861913Y-78295000I-241913J0D01*
G01*
X111861913Y-78295000D02*
G75*
G03X111861913Y-78295000I-241913J0D01*
G01*
X120361913Y-52675000D02*
G75*
G03X120361913Y-52675000I-241913J0D01*
G01*
X119361913Y-52675000D02*
G75*
G03X119361913Y-52675000I-241913J0D01*
G01*
X118361913Y-52675000D02*
G75*
G03X118361913Y-52675000I-241913J0D01*
G01*
X117361913Y-52675000D02*
G75*
G03X117361913Y-52675000I-241913J0D01*
G01*
X116361913Y-52675000D02*
G75*
G03X116361913Y-52675000I-241913J0D01*
G01*
X115361913Y-52675000D02*
G75*
G03X115361913Y-52675000I-241913J0D01*
G01*
X114361913Y-52675000D02*
G75*
G03X114361913Y-52675000I-241913J0D01*
G01*
X113361913Y-52675000D02*
G75*
G03X113361913Y-52675000I-241913J0D01*
G01*
X112361913Y-52675000D02*
G75*
G03X112361913Y-52675000I-241913J0D01*
G01*
X111361913Y-52675000D02*
G75*
G03X111361913Y-52675000I-241913J0D01*
G01*
D11*
X121671000Y-71676000D02*
X121671000Y-59252000D01*
X110071000Y-71674000D02*
X110071000Y-59250000D01*
X110070000Y-71675000D02*
X121670000Y-71675000D01*
X110070000Y-59250000D02*
X121670000Y-59250000D01*
D12*
X100542380Y-84694666D02*
X99542380Y-84694666D01*
X99542380Y-84456571D01*
X99590000Y-84313714D01*
X99685238Y-84218476D01*
X99780476Y-84170857D01*
X99970952Y-84123238D01*
X100113809Y-84123238D01*
X100304285Y-84170857D01*
X100399523Y-84218476D01*
X100494761Y-84313714D01*
X100542380Y-84456571D01*
X100542380Y-84694666D01*
X99875714Y-83789904D02*
X100542380Y-83551809D01*
X99875714Y-83313714D02*
X100542380Y-83551809D01*
X100780476Y-83647047D01*
X100828095Y-83694666D01*
X100875714Y-83789904D01*
X100542380Y-82789904D02*
X100494761Y-82885142D01*
X100399523Y-82932761D01*
X99542380Y-82932761D01*
X100542380Y-81980380D02*
X100018571Y-81980380D01*
X99923333Y-82028000D01*
X99875714Y-82123238D01*
X99875714Y-82313714D01*
X99923333Y-82408952D01*
X100494761Y-81980380D02*
X100542380Y-82075619D01*
X100542380Y-82313714D01*
X100494761Y-82408952D01*
X100399523Y-82456571D01*
X100304285Y-82456571D01*
X100209047Y-82408952D01*
X100161428Y-82313714D01*
X100161428Y-82075619D01*
X100113809Y-81980380D01*
X99875714Y-81504190D02*
X100542380Y-81504190D01*
X99970952Y-81504190D02*
X99923333Y-81456571D01*
X99875714Y-81361333D01*
X99875714Y-81218476D01*
X99923333Y-81123238D01*
X100018571Y-81075619D01*
X100542380Y-81075619D01*
X99542380Y-79647047D02*
X99542380Y-79456571D01*
X99590000Y-79361333D01*
X99685238Y-79266095D01*
X99875714Y-79218476D01*
X100209047Y-79218476D01*
X100399523Y-79266095D01*
X100494761Y-79361333D01*
X100542380Y-79456571D01*
X100542380Y-79647047D01*
X100494761Y-79742285D01*
X100399523Y-79837523D01*
X100209047Y-79885142D01*
X99875714Y-79885142D01*
X99685238Y-79837523D01*
X99590000Y-79742285D01*
X99542380Y-79647047D01*
X100542380Y-78789904D02*
X99542380Y-78789904D01*
X100542380Y-78361333D02*
X100018571Y-78361333D01*
X99923333Y-78408952D01*
X99875714Y-78504190D01*
X99875714Y-78647047D01*
X99923333Y-78742285D01*
X99970952Y-78789904D01*
X101192380Y-84575619D02*
X101906666Y-84575619D01*
X102049523Y-84623238D01*
X102144761Y-84718476D01*
X102192380Y-84861333D01*
X102192380Y-84956571D01*
X102192380Y-83670857D02*
X101668571Y-83670857D01*
X101573333Y-83718476D01*
X101525714Y-83813714D01*
X101525714Y-84004190D01*
X101573333Y-84099428D01*
X102144761Y-83670857D02*
X102192380Y-83766095D01*
X102192380Y-84004190D01*
X102144761Y-84099428D01*
X102049523Y-84147047D01*
X101954285Y-84147047D01*
X101859047Y-84099428D01*
X101811428Y-84004190D01*
X101811428Y-83766095D01*
X101763809Y-83670857D01*
X101525714Y-83194666D02*
X102192380Y-83194666D01*
X101620952Y-83194666D02*
X101573333Y-83147047D01*
X101525714Y-83051809D01*
X101525714Y-82908952D01*
X101573333Y-82813714D01*
X101668571Y-82766095D01*
X102192380Y-82766095D01*
X101287619Y-81575619D02*
X101240000Y-81528000D01*
X101192380Y-81432761D01*
X101192380Y-81194666D01*
X101240000Y-81099428D01*
X101287619Y-81051809D01*
X101382857Y-81004190D01*
X101478095Y-81004190D01*
X101620952Y-81051809D01*
X102192380Y-81623238D01*
X102192380Y-81004190D01*
X101192380Y-80385142D02*
X101192380Y-80289904D01*
X101240000Y-80194666D01*
X101287619Y-80147047D01*
X101382857Y-80099428D01*
X101573333Y-80051809D01*
X101811428Y-80051809D01*
X102001904Y-80099428D01*
X102097142Y-80147047D01*
X102144761Y-80194666D01*
X102192380Y-80289904D01*
X102192380Y-80385142D01*
X102144761Y-80480380D01*
X102097142Y-80528000D01*
X102001904Y-80575619D01*
X101811428Y-80623238D01*
X101573333Y-80623238D01*
X101382857Y-80575619D01*
X101287619Y-80528000D01*
X101240000Y-80480380D01*
X101192380Y-80385142D01*
X101287619Y-79670857D02*
X101240000Y-79623238D01*
X101192380Y-79528000D01*
X101192380Y-79289904D01*
X101240000Y-79194666D01*
X101287619Y-79147047D01*
X101382857Y-79099428D01*
X101478095Y-79099428D01*
X101620952Y-79147047D01*
X102192380Y-79718476D01*
X102192380Y-79099428D01*
X101192380Y-78480380D02*
X101192380Y-78385142D01*
X101240000Y-78289904D01*
X101287619Y-78242285D01*
X101382857Y-78194666D01*
X101573333Y-78147047D01*
X101811428Y-78147047D01*
X102001904Y-78194666D01*
X102097142Y-78242285D01*
X102144761Y-78289904D01*
X102192380Y-78385142D01*
X102192380Y-78480380D01*
X102144761Y-78575619D01*
X102097142Y-78623238D01*
X102001904Y-78670857D01*
X101811428Y-78718476D01*
X101573333Y-78718476D01*
X101382857Y-78670857D01*
X101287619Y-78623238D01*
X101240000Y-78575619D01*
X101192380Y-78480380D01*
D13*
X111441428Y-50364761D02*
X111441428Y-48364761D01*
X112584285Y-50364761D01*
X112584285Y-48364761D01*
X113917619Y-48364761D02*
X114298571Y-48364761D01*
X114489047Y-48460000D01*
X114679523Y-48650476D01*
X114774761Y-49031428D01*
X114774761Y-49698095D01*
X114679523Y-50079047D01*
X114489047Y-50269523D01*
X114298571Y-50364761D01*
X113917619Y-50364761D01*
X113727142Y-50269523D01*
X113536666Y-50079047D01*
X113441428Y-49698095D01*
X113441428Y-49031428D01*
X113536666Y-48650476D01*
X113727142Y-48460000D01*
X113917619Y-48364761D01*
X116774761Y-50364761D02*
X116108095Y-49412380D01*
X115631904Y-50364761D02*
X115631904Y-48364761D01*
X116393809Y-48364761D01*
X116584285Y-48460000D01*
X116679523Y-48555238D01*
X116774761Y-48745714D01*
X116774761Y-49031428D01*
X116679523Y-49221904D01*
X116584285Y-49317142D01*
X116393809Y-49412380D01*
X115631904Y-49412380D01*
X117346190Y-48364761D02*
X118489047Y-48364761D01*
X117917619Y-50364761D02*
X117917619Y-48364761D01*
X119155714Y-50364761D02*
X119155714Y-48364761D01*
X119155714Y-49317142D02*
X120298571Y-49317142D01*
X120298571Y-50364761D02*
X120298571Y-48364761D01*
X105441428Y-56148571D02*
X105441428Y-54648571D01*
X106298571Y-56148571D01*
X106298571Y-54648571D01*
X120346190Y-80790476D02*
X120060476Y-80695238D01*
X119584285Y-80695238D01*
X119393809Y-80790476D01*
X119298571Y-80885714D01*
X119203333Y-81076190D01*
X119203333Y-81266666D01*
X119298571Y-81457142D01*
X119393809Y-81552380D01*
X119584285Y-81647619D01*
X119965238Y-81742857D01*
X120155714Y-81838095D01*
X120250952Y-81933333D01*
X120346190Y-82123809D01*
X120346190Y-82314285D01*
X120250952Y-82504761D01*
X120155714Y-82600000D01*
X119965238Y-82695238D01*
X119489047Y-82695238D01*
X119203333Y-82600000D01*
X117965238Y-82695238D02*
X117584285Y-82695238D01*
X117393809Y-82600000D01*
X117203333Y-82409523D01*
X117108095Y-82028571D01*
X117108095Y-81361904D01*
X117203333Y-80980952D01*
X117393809Y-80790476D01*
X117584285Y-80695238D01*
X117965238Y-80695238D01*
X118155714Y-80790476D01*
X118346190Y-80980952D01*
X118441428Y-81361904D01*
X118441428Y-82028571D01*
X118346190Y-82409523D01*
X118155714Y-82600000D01*
X117965238Y-82695238D01*
X116250952Y-82695238D02*
X116250952Y-81076190D01*
X116155714Y-80885714D01*
X116060476Y-80790476D01*
X115870000Y-80695238D01*
X115489047Y-80695238D01*
X115298571Y-80790476D01*
X115203333Y-80885714D01*
X115108095Y-81076190D01*
X115108095Y-82695238D01*
X114441428Y-82695238D02*
X113298571Y-82695238D01*
X113870000Y-80695238D02*
X113870000Y-82695238D01*
X112631904Y-80695238D02*
X112631904Y-82695238D01*
X112631904Y-81742857D02*
X111489047Y-81742857D01*
X111489047Y-80695238D02*
X111489047Y-82695238D01*
X125441428Y-56148571D02*
X125441428Y-54648571D01*
X126298571Y-56148571D01*
X126298571Y-54648571D01*
X126298571Y-74862857D02*
X126084285Y-74791428D01*
X125727142Y-74791428D01*
X125584285Y-74862857D01*
X125512857Y-74934285D01*
X125441428Y-75077142D01*
X125441428Y-75220000D01*
X125512857Y-75362857D01*
X125584285Y-75434285D01*
X125727142Y-75505714D01*
X126012857Y-75577142D01*
X126155714Y-75648571D01*
X126227142Y-75720000D01*
X126298571Y-75862857D01*
X126298571Y-76005714D01*
X126227142Y-76148571D01*
X126155714Y-76220000D01*
X126012857Y-76291428D01*
X125655714Y-76291428D01*
X125441428Y-76220000D01*
X106298571Y-74862857D02*
X106084285Y-74791428D01*
X105727142Y-74791428D01*
X105584285Y-74862857D01*
X105512857Y-74934285D01*
X105441428Y-75077142D01*
X105441428Y-75220000D01*
X105512857Y-75362857D01*
X105584285Y-75434285D01*
X105727142Y-75505714D01*
X106012857Y-75577142D01*
X106155714Y-75648571D01*
X106227142Y-75720000D01*
X106298571Y-75862857D01*
X106298571Y-76005714D01*
X106227142Y-76148571D01*
X106155714Y-76220000D01*
X106012857Y-76291428D01*
X105655714Y-76291428D01*
X105441428Y-76220000D01*
X98659761Y-84630827D02*
X96659761Y-84380827D01*
X97326428Y-82654636D02*
X98945476Y-82857017D01*
X99135952Y-82976065D01*
X99231190Y-83083208D01*
X99326428Y-83285589D01*
X99326428Y-83571303D01*
X99231190Y-83749875D01*
X98564523Y-82809398D02*
X98659761Y-83011779D01*
X98659761Y-83392732D01*
X98564523Y-83571303D01*
X98469285Y-83654636D01*
X98278809Y-83726065D01*
X97707380Y-83654636D01*
X97516904Y-83535589D01*
X97421666Y-83428446D01*
X97326428Y-83226065D01*
X97326428Y-82845113D01*
X97421666Y-82666541D01*
X98659761Y-81583208D02*
X98564523Y-81761779D01*
X98374047Y-81833208D01*
X96659761Y-81618922D01*
X98659761Y-80535589D02*
X98564523Y-80714160D01*
X98469285Y-80797494D01*
X98278809Y-80868922D01*
X97707380Y-80797494D01*
X97516904Y-80678446D01*
X97421666Y-80571303D01*
X97326428Y-80368922D01*
X97326428Y-80083208D01*
X97421666Y-79904636D01*
X97516904Y-79821303D01*
X97707380Y-79749875D01*
X98278809Y-79821303D01*
X98469285Y-79940351D01*
X98564523Y-80047494D01*
X98659761Y-80249875D01*
X98659761Y-80535589D01*
X98659761Y-78726065D02*
X98564523Y-78904636D01*
X98469285Y-78987970D01*
X98278809Y-79059398D01*
X97707380Y-78987970D01*
X97516904Y-78868922D01*
X97421666Y-78761779D01*
X97326428Y-78559398D01*
X97326428Y-78273684D01*
X97421666Y-78095113D01*
X97516904Y-78011779D01*
X97707380Y-77940351D01*
X98278809Y-78011779D01*
X98469285Y-78130827D01*
X98564523Y-78237970D01*
X98659761Y-78440351D01*
X98659761Y-78726065D01*
X98659761Y-76154636D02*
X98659761Y-77297494D01*
X98659761Y-76726065D02*
X96659761Y-76476065D01*
X96945476Y-76702255D01*
X97135952Y-76916541D01*
X97231190Y-77118922D01*
X96659761Y-74666541D02*
X96659761Y-74476065D01*
X96755000Y-74297494D01*
X96850238Y-74214160D01*
X97040714Y-74142732D01*
X97421666Y-74095113D01*
X97897857Y-74154636D01*
X98278809Y-74297494D01*
X98469285Y-74416541D01*
X98564523Y-74523684D01*
X98659761Y-74726065D01*
X98659761Y-74916541D01*
X98564523Y-75095113D01*
X98469285Y-75178446D01*
X98278809Y-75249875D01*
X97897857Y-75297494D01*
X97421666Y-75237970D01*
X97040714Y-75095113D01*
X96850238Y-74976065D01*
X96755000Y-74868922D01*
X96659761Y-74666541D01*
D14*
G36*
X124330721Y-82890174D02*
G01*
X124430995Y-82931709D01*
X124430996Y-82931710D01*
X124521242Y-82992010D01*
X124597990Y-83068758D01*
X124597991Y-83068760D01*
X124658291Y-83159005D01*
X124699826Y-83259279D01*
X124721000Y-83365730D01*
X124721000Y-83474270D01*
X124699826Y-83580721D01*
X124658291Y-83680995D01*
X124658290Y-83680996D01*
X124597990Y-83771242D01*
X124521242Y-83847990D01*
X124475812Y-83878345D01*
X124430995Y-83908291D01*
X124330721Y-83949826D01*
X124224270Y-83971000D01*
X124115730Y-83971000D01*
X124009279Y-83949826D01*
X123909005Y-83908291D01*
X123864188Y-83878345D01*
X123818758Y-83847990D01*
X123742010Y-83771242D01*
X123681710Y-83680996D01*
X123681709Y-83680995D01*
X123640174Y-83580721D01*
X123619000Y-83474270D01*
X123619000Y-83365730D01*
X123640174Y-83259279D01*
X123681709Y-83159005D01*
X123742009Y-83068760D01*
X123742010Y-83068758D01*
X123818758Y-82992010D01*
X123909004Y-82931710D01*
X123909005Y-82931709D01*
X124009279Y-82890174D01*
X124115730Y-82869000D01*
X124224270Y-82869000D01*
X124330721Y-82890174D01*
G37*
G36*
X107730721Y-82890174D02*
G01*
X107830995Y-82931709D01*
X107830996Y-82931710D01*
X107921242Y-82992010D01*
X107997990Y-83068758D01*
X107997991Y-83068760D01*
X108058291Y-83159005D01*
X108099826Y-83259279D01*
X108121000Y-83365730D01*
X108121000Y-83474270D01*
X108099826Y-83580721D01*
X108058291Y-83680995D01*
X108058290Y-83680996D01*
X107997990Y-83771242D01*
X107921242Y-83847990D01*
X107875812Y-83878345D01*
X107830995Y-83908291D01*
X107730721Y-83949826D01*
X107624270Y-83971000D01*
X107515730Y-83971000D01*
X107409279Y-83949826D01*
X107309005Y-83908291D01*
X107264188Y-83878345D01*
X107218758Y-83847990D01*
X107142010Y-83771242D01*
X107081710Y-83680996D01*
X107081709Y-83680995D01*
X107040174Y-83580721D01*
X107019000Y-83474270D01*
X107019000Y-83365730D01*
X107040174Y-83259279D01*
X107081709Y-83159005D01*
X107142009Y-83068760D01*
X107142010Y-83068758D01*
X107218758Y-82992010D01*
X107309004Y-82931710D01*
X107309005Y-82931709D01*
X107409279Y-82890174D01*
X107515730Y-82869000D01*
X107624270Y-82869000D01*
X107730721Y-82890174D01*
G37*
G36*
X122815285Y-79638234D02*
G01*
X122911981Y-79657468D01*
X123094151Y-79732926D01*
X123258100Y-79842473D01*
X123397527Y-79981900D01*
X123507074Y-80145849D01*
X123507075Y-80145851D01*
X123582532Y-80328020D01*
X123621000Y-80521409D01*
X123621000Y-80640291D01*
X123623402Y-80664677D01*
X123630515Y-80688126D01*
X123642066Y-80709737D01*
X123657611Y-80728679D01*
X123676553Y-80744224D01*
X123698164Y-80755775D01*
X123721613Y-80762888D01*
X123745999Y-80765290D01*
X123770385Y-80762888D01*
X123793834Y-80755775D01*
X123815445Y-80744224D01*
X123818760Y-80742009D01*
X123867058Y-80709737D01*
X123909005Y-80681709D01*
X124009279Y-80640174D01*
X124115730Y-80619000D01*
X124224270Y-80619000D01*
X124330721Y-80640174D01*
X124430995Y-80681709D01*
X124472942Y-80709737D01*
X124521242Y-80742010D01*
X124597990Y-80818758D01*
X124597991Y-80818760D01*
X124658291Y-80909005D01*
X124699826Y-81009279D01*
X124721000Y-81115730D01*
X124721000Y-81224270D01*
X124699826Y-81330721D01*
X124658291Y-81430995D01*
X124658290Y-81430996D01*
X124597990Y-81521242D01*
X124521242Y-81597990D01*
X124518449Y-81599856D01*
X124430995Y-81658291D01*
X124330721Y-81699826D01*
X124224270Y-81721000D01*
X124115730Y-81721000D01*
X124009279Y-81699826D01*
X123909005Y-81658291D01*
X123821551Y-81599856D01*
X123818758Y-81597990D01*
X123742010Y-81521242D01*
X123681710Y-81430996D01*
X123681709Y-81430995D01*
X123640174Y-81330720D01*
X123632252Y-81290894D01*
X123625139Y-81267445D01*
X123613588Y-81245834D01*
X123598043Y-81226892D01*
X123579101Y-81211347D01*
X123557490Y-81199796D01*
X123534041Y-81192683D01*
X123509655Y-81190281D01*
X123485269Y-81192683D01*
X123461820Y-81199796D01*
X123440209Y-81211347D01*
X123421267Y-81226892D01*
X123405727Y-81245827D01*
X123397527Y-81258100D01*
X123258100Y-81397527D01*
X123094151Y-81507074D01*
X122911981Y-81582532D01*
X122824893Y-81599855D01*
X122718591Y-81621000D01*
X122590128Y-81621000D01*
X122565742Y-81623402D01*
X122542293Y-81630515D01*
X122520682Y-81642066D01*
X122501740Y-81657611D01*
X122486195Y-81676553D01*
X122474644Y-81698164D01*
X122467531Y-81721613D01*
X122465129Y-81745999D01*
X122467531Y-81770385D01*
X122474644Y-81793834D01*
X122486195Y-81815445D01*
X122501740Y-81834387D01*
X122520683Y-81849932D01*
X122546242Y-81867010D01*
X122622990Y-81943758D01*
X122622991Y-81943760D01*
X122683291Y-82034005D01*
X122724826Y-82134279D01*
X122746000Y-82240730D01*
X122746000Y-82349270D01*
X122724826Y-82455721D01*
X122683291Y-82555995D01*
X122683290Y-82555996D01*
X122622990Y-82646242D01*
X122546242Y-82722990D01*
X122500812Y-82753345D01*
X122455995Y-82783291D01*
X122355721Y-82824826D01*
X122249270Y-82846000D01*
X122140730Y-82846000D01*
X122034279Y-82824826D01*
X121934005Y-82783291D01*
X121889188Y-82753345D01*
X121843758Y-82722990D01*
X121767010Y-82646242D01*
X121706710Y-82555996D01*
X121706709Y-82555995D01*
X121665174Y-82455721D01*
X121644000Y-82349270D01*
X121644000Y-82240730D01*
X121665174Y-82134279D01*
X121706709Y-82034005D01*
X121767009Y-81943760D01*
X121767010Y-81943758D01*
X121843758Y-81867010D01*
X121934004Y-81806710D01*
X121934005Y-81806709D01*
X122034279Y-81765174D01*
X122126462Y-81746838D01*
X122149911Y-81739725D01*
X122171522Y-81728174D01*
X122190463Y-81712629D01*
X122206009Y-81693687D01*
X122217560Y-81672076D01*
X122224673Y-81648627D01*
X122227075Y-81624241D01*
X122224673Y-81599855D01*
X122217560Y-81576406D01*
X122206009Y-81554795D01*
X122190464Y-81535854D01*
X122171522Y-81520308D01*
X122149912Y-81508758D01*
X122145854Y-81507077D01*
X122145850Y-81507075D01*
X122145849Y-81507074D01*
X121981900Y-81397527D01*
X121842473Y-81258100D01*
X121732926Y-81094151D01*
X121657468Y-80911981D01*
X121627811Y-80762888D01*
X121619000Y-80718591D01*
X121619000Y-80521409D01*
X121657468Y-80328020D01*
X121732925Y-80145851D01*
X121732926Y-80145849D01*
X121842473Y-79981900D01*
X121981900Y-79842473D01*
X122145849Y-79732926D01*
X122328019Y-79657468D01*
X122424715Y-79638234D01*
X122521409Y-79619000D01*
X122718591Y-79619000D01*
X122815285Y-79638234D01*
G37*
G36*
X109315285Y-79638234D02*
G01*
X109411981Y-79657468D01*
X109594151Y-79732926D01*
X109758100Y-79842473D01*
X109897527Y-79981900D01*
X110007074Y-80145849D01*
X110007075Y-80145851D01*
X110082532Y-80328020D01*
X110121000Y-80521409D01*
X110121000Y-80718591D01*
X110112189Y-80762888D01*
X110082532Y-80911981D01*
X110007074Y-81094151D01*
X109897527Y-81258100D01*
X109758100Y-81397527D01*
X109594151Y-81507074D01*
X109594150Y-81507075D01*
X109594146Y-81507077D01*
X109590088Y-81508758D01*
X109568477Y-81520309D01*
X109549535Y-81535854D01*
X109533990Y-81554796D01*
X109522439Y-81576407D01*
X109515327Y-81599856D01*
X109512925Y-81624242D01*
X109515327Y-81648628D01*
X109522441Y-81672077D01*
X109533992Y-81693688D01*
X109549537Y-81712630D01*
X109568479Y-81728175D01*
X109590090Y-81739726D01*
X109613538Y-81746838D01*
X109705721Y-81765174D01*
X109805995Y-81806709D01*
X109805996Y-81806710D01*
X109896242Y-81867010D01*
X109972990Y-81943758D01*
X109972991Y-81943760D01*
X110033291Y-82034005D01*
X110074826Y-82134279D01*
X110096000Y-82240730D01*
X110096000Y-82349270D01*
X110074826Y-82455721D01*
X110033291Y-82555995D01*
X110033290Y-82555996D01*
X109972990Y-82646242D01*
X109896242Y-82722990D01*
X109850812Y-82753345D01*
X109805995Y-82783291D01*
X109705721Y-82824826D01*
X109599270Y-82846000D01*
X109490730Y-82846000D01*
X109384279Y-82824826D01*
X109284005Y-82783291D01*
X109239188Y-82753345D01*
X109193758Y-82722990D01*
X109117010Y-82646242D01*
X109056710Y-82555996D01*
X109056709Y-82555995D01*
X109015174Y-82455721D01*
X108994000Y-82349270D01*
X108994000Y-82240730D01*
X109015174Y-82134279D01*
X109056709Y-82034005D01*
X109117009Y-81943760D01*
X109117010Y-81943758D01*
X109193758Y-81867010D01*
X109219317Y-81849932D01*
X109238259Y-81834387D01*
X109253805Y-81815445D01*
X109265356Y-81793834D01*
X109272469Y-81770385D01*
X109274871Y-81745999D01*
X109272469Y-81721613D01*
X109265356Y-81698164D01*
X109253805Y-81676554D01*
X109238260Y-81657612D01*
X109219318Y-81642066D01*
X109197707Y-81630515D01*
X109174258Y-81623402D01*
X109149872Y-81621000D01*
X109021409Y-81621000D01*
X108915107Y-81599855D01*
X108828019Y-81582532D01*
X108645849Y-81507074D01*
X108481900Y-81397527D01*
X108342473Y-81258100D01*
X108334273Y-81245827D01*
X108318734Y-81226893D01*
X108299792Y-81211348D01*
X108278181Y-81199797D01*
X108254732Y-81192683D01*
X108230346Y-81190281D01*
X108205960Y-81192683D01*
X108182511Y-81199795D01*
X108160900Y-81211346D01*
X108141958Y-81226891D01*
X108126413Y-81245833D01*
X108114862Y-81267444D01*
X108107748Y-81290894D01*
X108099826Y-81330720D01*
X108058291Y-81430995D01*
X108058290Y-81430996D01*
X107997990Y-81521242D01*
X107921242Y-81597990D01*
X107918449Y-81599856D01*
X107830995Y-81658291D01*
X107730721Y-81699826D01*
X107624270Y-81721000D01*
X107515730Y-81721000D01*
X107409279Y-81699826D01*
X107309005Y-81658291D01*
X107221551Y-81599856D01*
X107218758Y-81597990D01*
X107142010Y-81521242D01*
X107081710Y-81430996D01*
X107081709Y-81430995D01*
X107040174Y-81330721D01*
X107019000Y-81224270D01*
X107019000Y-81115730D01*
X107040174Y-81009279D01*
X107081709Y-80909005D01*
X107142009Y-80818760D01*
X107142010Y-80818758D01*
X107218758Y-80742010D01*
X107267058Y-80709737D01*
X107309005Y-80681709D01*
X107409279Y-80640174D01*
X107515730Y-80619000D01*
X107624270Y-80619000D01*
X107730721Y-80640174D01*
X107830995Y-80681709D01*
X107872942Y-80709737D01*
X107921241Y-80742009D01*
X107924555Y-80744224D01*
X107946166Y-80755775D01*
X107969615Y-80762888D01*
X107994001Y-80765290D01*
X108018387Y-80762888D01*
X108041836Y-80755775D01*
X108063446Y-80744224D01*
X108082388Y-80728679D01*
X108097934Y-80709737D01*
X108109485Y-80688126D01*
X108116598Y-80664677D01*
X108119000Y-80640291D01*
X108119000Y-80521409D01*
X108157468Y-80328020D01*
X108232925Y-80145851D01*
X108232926Y-80145849D01*
X108342473Y-79981900D01*
X108481900Y-79842473D01*
X108645849Y-79732926D01*
X108828019Y-79657468D01*
X108924715Y-79638234D01*
X109021409Y-79619000D01*
X109218591Y-79619000D01*
X109315285Y-79638234D01*
G37*
G36*
X118969000Y-73771000D02*
G01*
X118486000Y-73771000D01*
X118486000Y-72399000D01*
X118969000Y-72399000D01*
X118969000Y-73771000D01*
G37*
G36*
X112111000Y-73771000D02*
G01*
X111628000Y-73771000D01*
X111628000Y-72399000D01*
X112111000Y-72399000D01*
X112111000Y-73771000D01*
G37*
G36*
X113254000Y-73771000D02*
G01*
X112771000Y-73771000D01*
X112771000Y-72399000D01*
X113254000Y-72399000D01*
X113254000Y-73771000D01*
G37*
G36*
X114397000Y-73771000D02*
G01*
X113914000Y-73771000D01*
X113914000Y-72399000D01*
X114397000Y-72399000D01*
X114397000Y-73771000D01*
G37*
G36*
X115540000Y-73771000D02*
G01*
X115057000Y-73771000D01*
X115057000Y-72399000D01*
X115540000Y-72399000D01*
X115540000Y-73771000D01*
G37*
G36*
X116683000Y-73771000D02*
G01*
X116200000Y-73771000D01*
X116200000Y-72399000D01*
X116683000Y-72399000D01*
X116683000Y-73771000D01*
G37*
G36*
X117826000Y-73771000D02*
G01*
X117343000Y-73771000D01*
X117343000Y-72399000D01*
X117826000Y-72399000D01*
X117826000Y-73771000D01*
G37*
G36*
X120112000Y-73771000D02*
G01*
X119629000Y-73771000D01*
X119629000Y-72399000D01*
X120112000Y-72399000D01*
X120112000Y-73771000D01*
G37*
G36*
X121255000Y-73771000D02*
G01*
X120772000Y-73771000D01*
X120772000Y-72399000D01*
X121255000Y-72399000D01*
X121255000Y-73771000D01*
G37*
G36*
X110968000Y-73771000D02*
G01*
X110485000Y-73771000D01*
X110485000Y-72399000D01*
X110968000Y-72399000D01*
X110968000Y-73771000D01*
G37*
G36*
X117826000Y-58541000D02*
G01*
X117343000Y-58541000D01*
X117343000Y-57169000D01*
X117826000Y-57169000D01*
X117826000Y-58541000D01*
G37*
G36*
X112111000Y-58541000D02*
G01*
X111628000Y-58541000D01*
X111628000Y-57169000D01*
X112111000Y-57169000D01*
X112111000Y-58541000D01*
G37*
G36*
X110968000Y-58541000D02*
G01*
X110485000Y-58541000D01*
X110485000Y-57169000D01*
X110968000Y-57169000D01*
X110968000Y-58541000D01*
G37*
G36*
X115540000Y-58541000D02*
G01*
X115057000Y-58541000D01*
X115057000Y-57169000D01*
X115540000Y-57169000D01*
X115540000Y-58541000D01*
G37*
G36*
X114397000Y-58541000D02*
G01*
X113914000Y-58541000D01*
X113914000Y-57169000D01*
X114397000Y-57169000D01*
X114397000Y-58541000D01*
G37*
G36*
X113254000Y-58541000D02*
G01*
X112771000Y-58541000D01*
X112771000Y-57169000D01*
X113254000Y-57169000D01*
X113254000Y-58541000D01*
G37*
G36*
X121255000Y-58541000D02*
G01*
X120772000Y-58541000D01*
X120772000Y-57169000D01*
X121255000Y-57169000D01*
X121255000Y-58541000D01*
G37*
G36*
X120112000Y-58541000D02*
G01*
X119629000Y-58541000D01*
X119629000Y-57169000D01*
X120112000Y-57169000D01*
X120112000Y-58541000D01*
G37*
G36*
X118969000Y-58541000D02*
G01*
X118486000Y-58541000D01*
X118486000Y-57169000D01*
X118969000Y-57169000D01*
X118969000Y-58541000D01*
G37*
G36*
X116683000Y-58541000D02*
G01*
X116200000Y-58541000D01*
X116200000Y-57169000D01*
X116683000Y-57169000D01*
X116683000Y-58541000D01*
G37*
G36*
X109705721Y-48145174D02*
G01*
X109805995Y-48186709D01*
X109805996Y-48186710D01*
X109896242Y-48247010D01*
X109972990Y-48323758D01*
X109972991Y-48323760D01*
X110033291Y-48414005D01*
X110074826Y-48514279D01*
X110096000Y-48620730D01*
X110096000Y-48729270D01*
X110074826Y-48835721D01*
X110033291Y-48935995D01*
X110033290Y-48935996D01*
X109972990Y-49026242D01*
X109896242Y-49102990D01*
X109896239Y-49102992D01*
X109805995Y-49163291D01*
X109705721Y-49204826D01*
X109613538Y-49223162D01*
X109590089Y-49230275D01*
X109568478Y-49241826D01*
X109549537Y-49257371D01*
X109533991Y-49276313D01*
X109522440Y-49297924D01*
X109515327Y-49321373D01*
X109512925Y-49345759D01*
X109515327Y-49370145D01*
X109522440Y-49393594D01*
X109533991Y-49415205D01*
X109549536Y-49434146D01*
X109568478Y-49449692D01*
X109590088Y-49461242D01*
X109594146Y-49462923D01*
X109594150Y-49462925D01*
X109594151Y-49462926D01*
X109758100Y-49572473D01*
X109897527Y-49711900D01*
X109992655Y-49854270D01*
X110007075Y-49875851D01*
X110082532Y-50058020D01*
X110116342Y-50227990D01*
X110121000Y-50251410D01*
X110121000Y-50448590D01*
X110082532Y-50641981D01*
X110007074Y-50824151D01*
X109897527Y-50988100D01*
X109758100Y-51127527D01*
X109594151Y-51237074D01*
X109411981Y-51312532D01*
X109218591Y-51351000D01*
X109021409Y-51351000D01*
X108828019Y-51312532D01*
X108645849Y-51237074D01*
X108481900Y-51127527D01*
X108342473Y-50988100D01*
X108232926Y-50824151D01*
X108157468Y-50641981D01*
X108119000Y-50448590D01*
X108119000Y-50329709D01*
X108116598Y-50305323D01*
X108109485Y-50281874D01*
X108097934Y-50260263D01*
X108082389Y-50241321D01*
X108063447Y-50225776D01*
X108041836Y-50214225D01*
X108018387Y-50207112D01*
X107994001Y-50204710D01*
X107969615Y-50207112D01*
X107946166Y-50214225D01*
X107924555Y-50225776D01*
X107921243Y-50227989D01*
X107921242Y-50227990D01*
X107886193Y-50251409D01*
X107830995Y-50288291D01*
X107730721Y-50329826D01*
X107624270Y-50351000D01*
X107515730Y-50351000D01*
X107409279Y-50329826D01*
X107309005Y-50288291D01*
X107253807Y-50251409D01*
X107218758Y-50227990D01*
X107142010Y-50151242D01*
X107081710Y-50060996D01*
X107081709Y-50060995D01*
X107040174Y-49960721D01*
X107019000Y-49854270D01*
X107019000Y-49745730D01*
X107040174Y-49639279D01*
X107081709Y-49539005D01*
X107111655Y-49494188D01*
X107142010Y-49448758D01*
X107218758Y-49372010D01*
X107294542Y-49321373D01*
X107309005Y-49311709D01*
X107409279Y-49270174D01*
X107515730Y-49249000D01*
X107624270Y-49249000D01*
X107730721Y-49270174D01*
X107830995Y-49311709D01*
X107845458Y-49321373D01*
X107921242Y-49372010D01*
X107997990Y-49448758D01*
X108028345Y-49494188D01*
X108058291Y-49539005D01*
X108099826Y-49639280D01*
X108107748Y-49679106D01*
X108114861Y-49702555D01*
X108126412Y-49724166D01*
X108141957Y-49743108D01*
X108160899Y-49758653D01*
X108182510Y-49770204D01*
X108205959Y-49777317D01*
X108230345Y-49779719D01*
X108254731Y-49777317D01*
X108278180Y-49770204D01*
X108299791Y-49758653D01*
X108318733Y-49743108D01*
X108334273Y-49724173D01*
X108342473Y-49711900D01*
X108481900Y-49572473D01*
X108645849Y-49462926D01*
X108828019Y-49387468D01*
X109021409Y-49349000D01*
X109149872Y-49349000D01*
X109174258Y-49346598D01*
X109197707Y-49339485D01*
X109219318Y-49327934D01*
X109238260Y-49312389D01*
X109253805Y-49293447D01*
X109265356Y-49271836D01*
X109272469Y-49248387D01*
X109274871Y-49224001D01*
X109272469Y-49199615D01*
X109265356Y-49176166D01*
X109253805Y-49154555D01*
X109238260Y-49135613D01*
X109219317Y-49120068D01*
X109193761Y-49102992D01*
X109193758Y-49102990D01*
X109117010Y-49026242D01*
X109056710Y-48935996D01*
X109056709Y-48935995D01*
X109015174Y-48835721D01*
X108994000Y-48729270D01*
X108994000Y-48620730D01*
X109015174Y-48514279D01*
X109056709Y-48414005D01*
X109117009Y-48323760D01*
X109117010Y-48323758D01*
X109193758Y-48247010D01*
X109284004Y-48186710D01*
X109284005Y-48186709D01*
X109384279Y-48145174D01*
X109490730Y-48124000D01*
X109599270Y-48124000D01*
X109705721Y-48145174D01*
G37*
G36*
X122355721Y-48145174D02*
G01*
X122455995Y-48186709D01*
X122455996Y-48186710D01*
X122546242Y-48247010D01*
X122622990Y-48323758D01*
X122622991Y-48323760D01*
X122683291Y-48414005D01*
X122724826Y-48514279D01*
X122746000Y-48620730D01*
X122746000Y-48729270D01*
X122724826Y-48835721D01*
X122683291Y-48935995D01*
X122683290Y-48935996D01*
X122622990Y-49026242D01*
X122546242Y-49102990D01*
X122546239Y-49102992D01*
X122520683Y-49120068D01*
X122501741Y-49135613D01*
X122486195Y-49154555D01*
X122474644Y-49176166D01*
X122467531Y-49199615D01*
X122465129Y-49224001D01*
X122467531Y-49248387D01*
X122474644Y-49271836D01*
X122486195Y-49293446D01*
X122501740Y-49312388D01*
X122520682Y-49327934D01*
X122542293Y-49339485D01*
X122565742Y-49346598D01*
X122590128Y-49349000D01*
X122718591Y-49349000D01*
X122911981Y-49387468D01*
X123094151Y-49462926D01*
X123258100Y-49572473D01*
X123397527Y-49711900D01*
X123405727Y-49724173D01*
X123421266Y-49743107D01*
X123440208Y-49758652D01*
X123461819Y-49770203D01*
X123485268Y-49777317D01*
X123509654Y-49779719D01*
X123534040Y-49777317D01*
X123557489Y-49770205D01*
X123579100Y-49758654D01*
X123598042Y-49743109D01*
X123613587Y-49724167D01*
X123625138Y-49702556D01*
X123632252Y-49679106D01*
X123640174Y-49639280D01*
X123681709Y-49539005D01*
X123711655Y-49494188D01*
X123742010Y-49448758D01*
X123818758Y-49372010D01*
X123894542Y-49321373D01*
X123909005Y-49311709D01*
X124009279Y-49270174D01*
X124115730Y-49249000D01*
X124224270Y-49249000D01*
X124330721Y-49270174D01*
X124430995Y-49311709D01*
X124445458Y-49321373D01*
X124521242Y-49372010D01*
X124597990Y-49448758D01*
X124628345Y-49494188D01*
X124658291Y-49539005D01*
X124699826Y-49639279D01*
X124721000Y-49745730D01*
X124721000Y-49854270D01*
X124699826Y-49960721D01*
X124658291Y-50060995D01*
X124658290Y-50060996D01*
X124597990Y-50151242D01*
X124521242Y-50227990D01*
X124486193Y-50251409D01*
X124430995Y-50288291D01*
X124330721Y-50329826D01*
X124224270Y-50351000D01*
X124115730Y-50351000D01*
X124009279Y-50329826D01*
X123909005Y-50288291D01*
X123853807Y-50251409D01*
X123818758Y-50227990D01*
X123818757Y-50227989D01*
X123815445Y-50225776D01*
X123793834Y-50214225D01*
X123770385Y-50207112D01*
X123745999Y-50204710D01*
X123721613Y-50207112D01*
X123698164Y-50214225D01*
X123676554Y-50225776D01*
X123657612Y-50241321D01*
X123642066Y-50260263D01*
X123630515Y-50281874D01*
X123623402Y-50305323D01*
X123621000Y-50329709D01*
X123621000Y-50448590D01*
X123582532Y-50641981D01*
X123507074Y-50824151D01*
X123397527Y-50988100D01*
X123258100Y-51127527D01*
X123094151Y-51237074D01*
X122911981Y-51312532D01*
X122718591Y-51351000D01*
X122521409Y-51351000D01*
X122328019Y-51312532D01*
X122145849Y-51237074D01*
X121981900Y-51127527D01*
X121842473Y-50988100D01*
X121732926Y-50824151D01*
X121657468Y-50641981D01*
X121619000Y-50448590D01*
X121619000Y-50251410D01*
X121623659Y-50227990D01*
X121657468Y-50058020D01*
X121732925Y-49875851D01*
X121747345Y-49854270D01*
X121842473Y-49711900D01*
X121981900Y-49572473D01*
X122145849Y-49462926D01*
X122145850Y-49462925D01*
X122145854Y-49462923D01*
X122149912Y-49461242D01*
X122171523Y-49449691D01*
X122190465Y-49434146D01*
X122206010Y-49415204D01*
X122217561Y-49393593D01*
X122224673Y-49370144D01*
X122227075Y-49345758D01*
X122224673Y-49321372D01*
X122217559Y-49297923D01*
X122206008Y-49276312D01*
X122190463Y-49257370D01*
X122171521Y-49241825D01*
X122149910Y-49230274D01*
X122126462Y-49223162D01*
X122034279Y-49204826D01*
X121934005Y-49163291D01*
X121843761Y-49102992D01*
X121843758Y-49102990D01*
X121767010Y-49026242D01*
X121706710Y-48935996D01*
X121706709Y-48935995D01*
X121665174Y-48835721D01*
X121644000Y-48729270D01*
X121644000Y-48620730D01*
X121665174Y-48514279D01*
X121706709Y-48414005D01*
X121767009Y-48323760D01*
X121767010Y-48323758D01*
X121843758Y-48247010D01*
X121934004Y-48186710D01*
X121934005Y-48186709D01*
X122034279Y-48145174D01*
X122140730Y-48124000D01*
X122249270Y-48124000D01*
X122355721Y-48145174D01*
G37*
G36*
X107730721Y-47020174D02*
G01*
X107830995Y-47061709D01*
X107830996Y-47061710D01*
X107921242Y-47122010D01*
X107997990Y-47198758D01*
X107997991Y-47198760D01*
X108058291Y-47289005D01*
X108099826Y-47389279D01*
X108121000Y-47495730D01*
X108121000Y-47604270D01*
X108099826Y-47710721D01*
X108058291Y-47810995D01*
X108058290Y-47810996D01*
X107997990Y-47901242D01*
X107921242Y-47977990D01*
X107875812Y-48008345D01*
X107830995Y-48038291D01*
X107730721Y-48079826D01*
X107624270Y-48101000D01*
X107515730Y-48101000D01*
X107409279Y-48079826D01*
X107309005Y-48038291D01*
X107264188Y-48008345D01*
X107218758Y-47977990D01*
X107142010Y-47901242D01*
X107081710Y-47810996D01*
X107081709Y-47810995D01*
X107040174Y-47710721D01*
X107019000Y-47604270D01*
X107019000Y-47495730D01*
X107040174Y-47389279D01*
X107081709Y-47289005D01*
X107142009Y-47198760D01*
X107142010Y-47198758D01*
X107218758Y-47122010D01*
X107309004Y-47061710D01*
X107309005Y-47061709D01*
X107409279Y-47020174D01*
X107515730Y-46999000D01*
X107624270Y-46999000D01*
X107730721Y-47020174D01*
G37*
G36*
X124330721Y-47020174D02*
G01*
X124430995Y-47061709D01*
X124430996Y-47061710D01*
X124521242Y-47122010D01*
X124597990Y-47198758D01*
X124597991Y-47198760D01*
X124658291Y-47289005D01*
X124699826Y-47389279D01*
X124721000Y-47495730D01*
X124721000Y-47604270D01*
X124699826Y-47710721D01*
X124658291Y-47810995D01*
X124658290Y-47810996D01*
X124597990Y-47901242D01*
X124521242Y-47977990D01*
X124475812Y-48008345D01*
X124430995Y-48038291D01*
X124330721Y-48079826D01*
X124224270Y-48101000D01*
X124115730Y-48101000D01*
X124009279Y-48079826D01*
X123909005Y-48038291D01*
X123864188Y-48008345D01*
X123818758Y-47977990D01*
X123742010Y-47901242D01*
X123681710Y-47810996D01*
X123681709Y-47810995D01*
X123640174Y-47710721D01*
X123619000Y-47604270D01*
X123619000Y-47495730D01*
X123640174Y-47389279D01*
X123681709Y-47289005D01*
X123742009Y-47198760D01*
X123742010Y-47198758D01*
X123818758Y-47122010D01*
X123909004Y-47061710D01*
X123909005Y-47061709D01*
X124009279Y-47020174D01*
X124115730Y-46999000D01*
X124224270Y-46999000D01*
X124330721Y-47020174D01*
G37*
M02*
