M48
; DRILL file {KiCad (5.1.5)-3} date 1/16/2020 5:02:49 PM
; FORMAT={-:-/ absolute / inch / decimal}
; #@! TF.CreationDate,2020-01-16T17:02:49-07:00
; #@! TF.GenerationSoftware,Kicad,Pcbnew,(5.1.5)-3
; #@! TF.FileFunction,Plated,1,2,PTH
FMAT,2
INCH
T1C0.0130
T2C0.0140
T3C0.0200
T4C0.0276
T5C0.0551
T6C0.1283
%
G90
G05
T1
X4.3748Y-2.0738
X4.3945Y-3.0825
X4.4142Y-2.0738
X4.4339Y-3.0825
X4.4535Y-2.0738
X4.4732Y-3.0825
X4.4929Y-2.0738
X4.5126Y-3.0825
X4.5323Y-2.0738
X4.552Y-3.0825
X4.5717Y-2.0738
X4.5913Y-3.0825
X4.611Y-2.0738
X4.6307Y-3.0825
X4.6504Y-2.0738
X4.6701Y-3.0825
X4.6898Y-2.0738
X4.7094Y-3.0825
X4.7291Y-2.0738
X4.7488Y-3.0825
T2
X3.8634Y-2.2776
X3.8634Y-2.8776
X3.9618Y-2.5776
X4.0602Y-2.2776
X4.0602Y-2.8776
X4.0894Y-2.4594
X4.0894Y-2.6957
X4.2581Y-2.1839
X4.2581Y-2.302
X4.2581Y-2.8531
X4.2581Y-2.9713
X4.2974Y-2.4201
X4.2974Y-2.5811
X4.2974Y-2.735
X4.3354Y-2.8236
X4.3356Y-2.3315
X4.3807Y-2.8236
X4.3808Y-2.3315
X4.426Y-2.8236
X4.4261Y-2.3315
X4.4713Y-2.8236
X4.4714Y-2.3315
X4.5165Y-2.8236
X4.5167Y-2.3315
X4.5618Y-2.8236
X4.5619Y-2.3315
X4.6071Y-2.8232
X4.6072Y-2.3315
X4.6524Y-2.8236
X4.6525Y-2.3315
X4.6976Y-2.8232
X4.6978Y-2.3315
X4.7429Y-2.8232
X4.743Y-2.3315
X4.7882Y-2.8232
X4.7883Y-2.3315
X4.8262Y-2.4201
X4.8262Y-2.578
X4.8262Y-2.735
X4.8656Y-2.1839
X4.8656Y-2.302
X4.8656Y-2.8531
X4.8656Y-2.9713
X5.0343Y-2.4594
X5.0343Y-2.6957
X5.0634Y-2.2768
X5.0634Y-2.8791
X5.1618Y-2.5776
X5.2602Y-2.2783
X5.2602Y-2.8776
T3
X3.9618Y-2.1201
X3.9618Y-2.435
X3.9618Y-2.7201
X3.9618Y-3.035
X4.2187Y-2.3807
X4.2187Y-2.5776
X4.2187Y-2.7713
X4.9049Y-2.3807
X4.9049Y-2.5776
X4.9049Y-2.7744
X5.1618Y-2.1201
X5.1618Y-2.435
X5.1618Y-2.7201
X5.1618Y-3.035
T4
X4.235Y-1.872
X4.235Y-1.9606
X4.3128Y-1.9163
X4.8108Y-1.9163
X4.8886Y-1.872
X4.8886Y-1.9606
X4.235Y-3.1957
X4.235Y-3.2843
X4.3128Y-3.24
X4.8108Y-3.24
X4.8886Y-3.1957
X4.8886Y-3.2843
T5
X4.2961Y-1.9823
X4.8276Y-1.9823
X4.2961Y-3.174
X4.8276Y-3.174
T6
X3.9618Y-2.2776
X3.9618Y-2.8776
X5.1618Y-2.2776
X5.1618Y-2.8776
T0
M30
