G04 #@! TF.GenerationSoftware,KiCad,Pcbnew,(5.1.5)-3*
G04 #@! TF.CreationDate,2020-01-16T17:02:50-07:00*
G04 #@! TF.ProjectId,Igloo10,49676c6f-6f31-4302-9e6b-696361645f70,rev?*
G04 #@! TF.SameCoordinates,Original*
G04 #@! TF.FileFunction,Copper,L2,Bot*
G04 #@! TF.FilePolarity,Positive*
%FSLAX46Y46*%
G04 Gerber Fmt 4.6, Leading zero omitted, Abs format (unit mm)*
G04 Created by KiCad (PCBNEW (5.1.5)-3) date 2020-01-16 17:02:50*
%MOMM*%
%LPD*%
G04 APERTURE LIST*
%ADD10R,0.300000X1.350000*%
%ADD11R,0.300000X0.850000*%
%ADD12C,1.000000*%
%ADD13C,1.900000*%
%ADD14C,0.711000*%
%ADD15C,3.280000*%
%ADD16C,1.016000*%
%ADD17C,0.635000*%
%ADD18C,0.152400*%
%ADD19C,0.254000*%
G04 APERTURE END LIST*
D10*
X115620000Y-51175000D03*
D11*
X115620000Y-48100000D03*
D10*
X115120000Y-51175000D03*
D11*
X115120000Y-48100000D03*
D10*
X114620000Y-51175000D03*
D11*
X114620000Y-48100000D03*
D10*
X114120000Y-51175000D03*
D11*
X114120000Y-48100000D03*
D10*
X113620000Y-51175000D03*
D11*
X113620000Y-48100000D03*
D10*
X113120000Y-51175000D03*
D11*
X113120000Y-48100000D03*
D10*
X112620000Y-51175000D03*
D11*
X112620000Y-48100000D03*
D10*
X112120000Y-51175000D03*
D11*
X112120000Y-48100000D03*
D10*
X111620000Y-51175000D03*
D11*
X111620000Y-48100000D03*
D10*
X111120000Y-51175000D03*
D11*
X111120000Y-48100000D03*
D12*
X109545000Y-48675000D03*
X122195000Y-48675000D03*
X107570000Y-47550000D03*
X107570000Y-49800000D03*
X124170000Y-47550000D03*
X124170000Y-49800000D03*
D13*
X109120000Y-50350000D03*
X122620000Y-50350000D03*
D10*
X118120000Y-51175000D03*
D11*
X116620000Y-48100000D03*
X117620000Y-48100000D03*
D10*
X117620000Y-51175000D03*
D11*
X118120000Y-48100000D03*
D10*
X118620000Y-51175000D03*
X120120000Y-51175000D03*
D11*
X119620000Y-48100000D03*
D10*
X120620000Y-51175000D03*
D11*
X119120000Y-48100000D03*
D10*
X119120000Y-51175000D03*
X116620000Y-51175000D03*
X119620000Y-51175000D03*
D11*
X116120000Y-48100000D03*
D10*
X116120000Y-51175000D03*
D11*
X118620000Y-48100000D03*
X117120000Y-48100000D03*
D10*
X117120000Y-51175000D03*
D11*
X120120000Y-48100000D03*
X120620000Y-48100000D03*
D10*
X116120000Y-79795000D03*
D11*
X116120000Y-82870000D03*
D10*
X116620000Y-79795000D03*
D11*
X116620000Y-82870000D03*
D10*
X117120000Y-79795000D03*
D11*
X117120000Y-82870000D03*
D10*
X117620000Y-79795000D03*
D11*
X117620000Y-82870000D03*
D10*
X118120000Y-79795000D03*
D11*
X118120000Y-82870000D03*
D10*
X118620000Y-79795000D03*
D11*
X118620000Y-82870000D03*
D10*
X119120000Y-79795000D03*
D11*
X119120000Y-82870000D03*
D10*
X119620000Y-79795000D03*
D11*
X119620000Y-82870000D03*
D10*
X120120000Y-79795000D03*
D11*
X120120000Y-82870000D03*
D10*
X120620000Y-79795000D03*
D11*
X120620000Y-82870000D03*
D12*
X122195000Y-82295000D03*
X109545000Y-82295000D03*
X124170000Y-83420000D03*
X124170000Y-81170000D03*
X107570000Y-83420000D03*
X107570000Y-81170000D03*
D13*
X122620000Y-80620000D03*
X109120000Y-80620000D03*
D10*
X113620000Y-79795000D03*
D11*
X115120000Y-82870000D03*
X114120000Y-82870000D03*
D10*
X114120000Y-79795000D03*
D11*
X113620000Y-82870000D03*
D10*
X113120000Y-79795000D03*
X111620000Y-79795000D03*
D11*
X112120000Y-82870000D03*
D10*
X111120000Y-79795000D03*
D11*
X112620000Y-82870000D03*
D10*
X112620000Y-79795000D03*
X115120000Y-79795000D03*
X112120000Y-79795000D03*
D11*
X115620000Y-82870000D03*
D10*
X115620000Y-79795000D03*
D11*
X113120000Y-82870000D03*
X114620000Y-82870000D03*
D10*
X114620000Y-79795000D03*
D11*
X111620000Y-82870000D03*
X111120000Y-82870000D03*
D14*
X113573400Y-59220000D03*
X115870000Y-71720000D03*
X131110000Y-65470000D03*
X103130000Y-73090000D03*
D15*
X131110000Y-57850000D03*
X131110000Y-73090000D03*
X100630000Y-57850000D03*
D14*
X109155000Y-61470000D03*
X127870000Y-62470000D03*
X123585000Y-75470000D03*
X100630000Y-65470000D03*
X109155000Y-69470000D03*
X103870000Y-68470000D03*
X128610000Y-73130000D03*
X117020000Y-71710400D03*
X98130000Y-57850000D03*
X118173400Y-59220000D03*
X119323400Y-59220000D03*
X122585000Y-61470000D03*
X120473400Y-59220000D03*
X112420000Y-71720000D03*
X111273400Y-59220000D03*
X128610000Y-57830000D03*
D16*
X124585000Y-70470000D03*
D14*
X121620000Y-71710400D03*
X110123400Y-59220000D03*
X114720000Y-71720000D03*
X123585000Y-72470000D03*
X123585000Y-58470000D03*
X110120000Y-71720000D03*
X123585000Y-55470000D03*
X133610000Y-57870000D03*
X108155000Y-58470000D03*
X113570000Y-71720000D03*
X119320000Y-71710400D03*
X114723400Y-59220000D03*
D15*
X100630000Y-73090000D03*
D14*
X103130000Y-57850000D03*
X111270000Y-71720000D03*
X120470000Y-71710400D03*
X115873400Y-59220000D03*
D16*
X100630000Y-61850000D03*
D14*
X122585000Y-69470000D03*
X109155000Y-65560000D03*
X108155000Y-55470000D03*
X122585000Y-65480000D03*
X112423400Y-59220000D03*
X98130000Y-73090000D03*
X117023400Y-59220000D03*
X103870000Y-62470000D03*
X133610000Y-73090000D03*
X121623400Y-59220000D03*
X108155000Y-72470000D03*
X127870000Y-68470000D03*
X108155000Y-75470000D03*
X118170000Y-71720000D03*
D16*
X107155000Y-60470000D03*
X107155000Y-70390000D03*
X124585000Y-60470000D03*
X124585000Y-65470000D03*
X131110000Y-61850000D03*
X131110000Y-53850000D03*
X131110000Y-69090000D03*
X131110000Y-77090000D03*
X100630000Y-69090000D03*
X100630000Y-77090000D03*
X107155000Y-65470000D03*
X100630000Y-53850000D03*
D17*
X115120000Y-52675000D03*
X114120000Y-52675000D03*
X113120000Y-52675000D03*
X112120000Y-52675000D03*
X111120000Y-52675000D03*
X118120000Y-52675000D03*
X120120000Y-52675000D03*
X119120000Y-52675000D03*
X116120000Y-52675000D03*
X117120000Y-52675000D03*
X116620000Y-78295000D03*
X117620000Y-78295000D03*
X118620000Y-78295000D03*
X119620000Y-78295000D03*
X120620000Y-78295000D03*
X113620000Y-78295000D03*
X111620000Y-78295000D03*
X112620000Y-78295000D03*
X115620000Y-78295000D03*
X114620000Y-78295000D03*
D18*
X113120000Y-79795000D02*
X113120000Y-79647000D01*
X115120000Y-79795000D02*
X115120000Y-79661000D01*
D19*
X112120000Y-79795000D02*
X112120000Y-80737000D01*
X113120000Y-79795000D02*
X113120000Y-80724000D01*
X114120000Y-79795000D02*
X114120000Y-80724000D01*
X115120000Y-79795000D02*
X115120000Y-80724000D01*
X116120000Y-79795000D02*
X116120000Y-80737000D01*
X117120000Y-79795000D02*
X117120000Y-80724000D01*
X118120000Y-79795000D02*
X118120000Y-80733000D01*
X119120000Y-79795000D02*
X119120000Y-80734000D01*
X120120000Y-79795000D02*
X120120000Y-80733000D01*
X111620000Y-51175000D02*
X111620000Y-50244000D01*
X112620000Y-51175000D02*
X112620000Y-50248000D01*
X113620000Y-51175000D02*
X113620000Y-50232000D01*
X114620000Y-51175000D02*
X114620000Y-50246000D01*
X115620000Y-51175000D02*
X115620000Y-50236000D01*
X116620000Y-51175000D02*
X116620000Y-50239000D01*
X117620000Y-51175000D02*
X117620000Y-50243000D01*
X118620000Y-51175000D02*
X118620000Y-50248000D01*
X119620000Y-51175000D02*
X119620000Y-50237000D01*
X115120000Y-51175000D02*
X115120000Y-52675000D01*
X114120000Y-51175000D02*
X114120000Y-52675000D01*
X113120000Y-51175000D02*
X113120000Y-52675000D01*
X112120000Y-51175000D02*
X112120000Y-52675000D01*
X111120000Y-51175000D02*
X111120000Y-52675000D01*
X118120000Y-51175000D02*
X118120000Y-52675000D01*
X120120000Y-51175000D02*
X120120000Y-52675000D01*
X119120000Y-51175000D02*
X119120000Y-52675000D01*
X116120000Y-51175000D02*
X116120000Y-52675000D01*
X117120000Y-51175000D02*
X117120000Y-52675000D01*
X116620000Y-79795000D02*
X116620000Y-78295000D01*
X117620000Y-79795000D02*
X117620000Y-78295000D01*
X118620000Y-79795000D02*
X118620000Y-78295000D01*
X119620000Y-79795000D02*
X119620000Y-78295000D01*
X120620000Y-79795000D02*
X120620000Y-78295000D01*
X113620000Y-79795000D02*
X113620000Y-78295000D01*
X111620000Y-79795000D02*
X111620000Y-78295000D01*
X112620000Y-79795000D02*
X112620000Y-78295000D01*
X115620000Y-79795000D02*
X115620000Y-78295000D01*
X114620000Y-79795000D02*
X114620000Y-78295000D01*
G36*
X135418001Y-85018000D02*
G01*
X96322000Y-85018000D01*
X96322000Y-84198166D01*
X106971439Y-84198166D01*
X107006550Y-84411588D01*
X107210826Y-84502458D01*
X107428905Y-84551731D01*
X107652406Y-84557511D01*
X107872740Y-84519577D01*
X108081440Y-84439387D01*
X108133450Y-84411588D01*
X108168561Y-84198166D01*
X123571439Y-84198166D01*
X123606550Y-84411588D01*
X123810826Y-84502458D01*
X124028905Y-84551731D01*
X124252406Y-84557511D01*
X124472740Y-84519577D01*
X124681440Y-84439387D01*
X124733450Y-84411588D01*
X124768561Y-84198166D01*
X124170000Y-83599605D01*
X123571439Y-84198166D01*
X108168561Y-84198166D01*
X107570000Y-83599605D01*
X106971439Y-84198166D01*
X96322000Y-84198166D01*
X96322000Y-83502406D01*
X106432489Y-83502406D01*
X106470423Y-83722740D01*
X106550613Y-83931440D01*
X106578412Y-83983450D01*
X106791834Y-84018561D01*
X107390395Y-83420000D01*
X106791834Y-82821439D01*
X106578412Y-82856550D01*
X106487542Y-83060826D01*
X106438269Y-83278905D01*
X106432489Y-83502406D01*
X96322000Y-83502406D01*
X96322000Y-81252406D01*
X106432489Y-81252406D01*
X106470423Y-81472740D01*
X106550613Y-81681440D01*
X106578412Y-81733450D01*
X106791834Y-81768561D01*
X107390395Y-81170000D01*
X106791834Y-80571439D01*
X106578412Y-80606550D01*
X106487542Y-80810826D01*
X106438269Y-81028905D01*
X106432489Y-81252406D01*
X96322000Y-81252406D01*
X96322000Y-80391834D01*
X106971439Y-80391834D01*
X107570000Y-80990395D01*
X107571177Y-80989218D01*
X107571816Y-80993791D01*
X107670551Y-81277339D01*
X107584143Y-81363748D01*
X107570000Y-81349605D01*
X106971439Y-81948166D01*
X107006550Y-82161588D01*
X107210826Y-82252458D01*
X107405952Y-82296545D01*
X107267260Y-82320423D01*
X107058560Y-82400613D01*
X107006550Y-82428412D01*
X106971439Y-82641834D01*
X107570000Y-83240395D01*
X108168561Y-82641834D01*
X108133450Y-82428412D01*
X107929174Y-82337542D01*
X107734048Y-82293455D01*
X107872740Y-82269577D01*
X108081440Y-82189387D01*
X108133450Y-82161588D01*
X108168561Y-81948169D01*
X108286211Y-82065819D01*
X108345806Y-82006224D01*
X108436707Y-82050170D01*
X108413269Y-82153905D01*
X108407489Y-82377406D01*
X108445423Y-82597740D01*
X108525613Y-82806440D01*
X108551510Y-82854892D01*
X108348166Y-82821439D01*
X107749605Y-83420000D01*
X108348166Y-84018561D01*
X108561588Y-83983450D01*
X108652458Y-83779174D01*
X108701731Y-83561095D01*
X108707511Y-83337594D01*
X108669577Y-83117260D01*
X108652635Y-83073166D01*
X108946439Y-83073166D01*
X108981550Y-83286588D01*
X109185826Y-83377458D01*
X109403905Y-83426731D01*
X109627406Y-83432511D01*
X109847740Y-83394577D01*
X110056440Y-83314387D01*
X110108450Y-83286588D01*
X110143561Y-83073166D01*
X121596439Y-83073166D01*
X121631550Y-83286588D01*
X121835826Y-83377458D01*
X122053905Y-83426731D01*
X122277406Y-83432511D01*
X122497740Y-83394577D01*
X122706440Y-83314387D01*
X122758450Y-83286588D01*
X122793561Y-83073166D01*
X122195000Y-82474605D01*
X121596439Y-83073166D01*
X110143561Y-83073166D01*
X109545000Y-82474605D01*
X108946439Y-83073166D01*
X108652635Y-83073166D01*
X108589387Y-82908560D01*
X108563490Y-82860108D01*
X108766834Y-82893561D01*
X109365395Y-82295000D01*
X109351253Y-82280858D01*
X109459079Y-82173031D01*
X109493791Y-82168184D01*
X109591908Y-82134018D01*
X109738748Y-82280858D01*
X109724605Y-82295000D01*
X110323166Y-82893561D01*
X110536588Y-82858450D01*
X110627458Y-82654174D01*
X110676731Y-82436095D01*
X110682511Y-82212594D01*
X110644577Y-81992260D01*
X110564387Y-81783560D01*
X110536588Y-81731550D01*
X110323169Y-81696439D01*
X110440819Y-81578789D01*
X110355279Y-81493249D01*
X110479042Y-81450421D01*
X110614935Y-81169329D01*
X110693379Y-80867127D01*
X110711359Y-80555427D01*
X110668184Y-80246209D01*
X110565513Y-79951356D01*
X110479042Y-79789579D01*
X110219752Y-79699853D01*
X109299605Y-80620000D01*
X109888636Y-81209031D01*
X109686095Y-81163269D01*
X109478290Y-81157895D01*
X109120000Y-80799605D01*
X108704206Y-81215399D01*
X108707511Y-81087594D01*
X108673037Y-80887358D01*
X108940395Y-80620000D01*
X108020248Y-79699853D01*
X107760958Y-79789579D01*
X107641599Y-80036472D01*
X107487594Y-80032489D01*
X107267260Y-80070423D01*
X107058560Y-80150613D01*
X107006550Y-80178412D01*
X106971439Y-80391834D01*
X96322000Y-80391834D01*
X96322000Y-79520248D01*
X108199853Y-79520248D01*
X109120000Y-80440395D01*
X110040147Y-79520248D01*
X109950421Y-79260958D01*
X109669329Y-79125065D01*
X109367127Y-79046621D01*
X109055427Y-79028641D01*
X108746209Y-79071816D01*
X108451356Y-79174487D01*
X108289579Y-79260958D01*
X108199853Y-79520248D01*
X96322000Y-79520248D01*
X96322000Y-78221673D01*
X110875500Y-78221673D01*
X110875500Y-78368327D01*
X110904111Y-78512163D01*
X110960233Y-78647653D01*
X111041709Y-78769591D01*
X111066001Y-78793883D01*
X111066001Y-78980839D01*
X111049178Y-79036293D01*
X111040934Y-79120000D01*
X111040934Y-80470000D01*
X111049178Y-80553707D01*
X111073595Y-80634196D01*
X111113245Y-80708376D01*
X111166605Y-80773395D01*
X111231624Y-80826755D01*
X111305804Y-80866405D01*
X111386293Y-80890822D01*
X111470000Y-80899066D01*
X111770000Y-80899066D01*
X111853707Y-80890822D01*
X111934196Y-80866405D01*
X112008376Y-80826755D01*
X112073395Y-80773395D01*
X112120000Y-80716607D01*
X112166605Y-80773395D01*
X112231624Y-80826755D01*
X112305804Y-80866405D01*
X112386293Y-80890822D01*
X112470000Y-80899066D01*
X112770000Y-80899066D01*
X112853707Y-80890822D01*
X112934196Y-80866405D01*
X113008376Y-80826755D01*
X113073395Y-80773395D01*
X113120000Y-80716607D01*
X113166605Y-80773395D01*
X113231624Y-80826755D01*
X113305804Y-80866405D01*
X113386293Y-80890822D01*
X113470000Y-80899066D01*
X113770000Y-80899066D01*
X113853707Y-80890822D01*
X113934196Y-80866405D01*
X114008376Y-80826755D01*
X114073395Y-80773395D01*
X114120000Y-80716607D01*
X114166605Y-80773395D01*
X114231624Y-80826755D01*
X114305804Y-80866405D01*
X114386293Y-80890822D01*
X114470000Y-80899066D01*
X114770000Y-80899066D01*
X114853707Y-80890822D01*
X114934196Y-80866405D01*
X115008376Y-80826755D01*
X115073395Y-80773395D01*
X115120000Y-80716607D01*
X115166605Y-80773395D01*
X115231624Y-80826755D01*
X115305804Y-80866405D01*
X115386293Y-80890822D01*
X115470000Y-80899066D01*
X115770000Y-80899066D01*
X115853707Y-80890822D01*
X115934196Y-80866405D01*
X116008376Y-80826755D01*
X116073395Y-80773395D01*
X116120000Y-80716607D01*
X116166605Y-80773395D01*
X116231624Y-80826755D01*
X116305804Y-80866405D01*
X116386293Y-80890822D01*
X116470000Y-80899066D01*
X116770000Y-80899066D01*
X116853707Y-80890822D01*
X116934196Y-80866405D01*
X117008376Y-80826755D01*
X117073395Y-80773395D01*
X117120000Y-80716607D01*
X117166605Y-80773395D01*
X117231624Y-80826755D01*
X117305804Y-80866405D01*
X117386293Y-80890822D01*
X117470000Y-80899066D01*
X117770000Y-80899066D01*
X117853707Y-80890822D01*
X117934196Y-80866405D01*
X118008376Y-80826755D01*
X118073395Y-80773395D01*
X118120000Y-80716607D01*
X118166605Y-80773395D01*
X118231624Y-80826755D01*
X118305804Y-80866405D01*
X118386293Y-80890822D01*
X118470000Y-80899066D01*
X118770000Y-80899066D01*
X118853707Y-80890822D01*
X118934196Y-80866405D01*
X119008376Y-80826755D01*
X119073395Y-80773395D01*
X119120000Y-80716607D01*
X119166605Y-80773395D01*
X119231624Y-80826755D01*
X119305804Y-80866405D01*
X119386293Y-80890822D01*
X119470000Y-80899066D01*
X119770000Y-80899066D01*
X119853707Y-80890822D01*
X119934196Y-80866405D01*
X120008376Y-80826755D01*
X120073395Y-80773395D01*
X120120000Y-80716607D01*
X120166605Y-80773395D01*
X120231624Y-80826755D01*
X120305804Y-80866405D01*
X120386293Y-80890822D01*
X120470000Y-80899066D01*
X120770000Y-80899066D01*
X120853707Y-80890822D01*
X120934196Y-80866405D01*
X121008376Y-80826755D01*
X121044369Y-80797216D01*
X121071816Y-80993791D01*
X121174487Y-81288644D01*
X121260958Y-81450421D01*
X121384721Y-81493249D01*
X121299181Y-81578789D01*
X121416831Y-81696439D01*
X121203412Y-81731550D01*
X121112542Y-81935826D01*
X121063269Y-82153905D01*
X121057489Y-82377406D01*
X121095423Y-82597740D01*
X121175613Y-82806440D01*
X121203412Y-82858450D01*
X121416834Y-82893561D01*
X122015395Y-82295000D01*
X122001253Y-82280858D01*
X122147287Y-82134823D01*
X122276166Y-82168276D01*
X122388748Y-82280858D01*
X122374605Y-82295000D01*
X122973166Y-82893561D01*
X123176854Y-82860051D01*
X123087542Y-83060826D01*
X123038269Y-83278905D01*
X123032489Y-83502406D01*
X123070423Y-83722740D01*
X123150613Y-83931440D01*
X123178412Y-83983450D01*
X123391834Y-84018561D01*
X123990395Y-83420000D01*
X124349605Y-83420000D01*
X124948166Y-84018561D01*
X125161588Y-83983450D01*
X125252458Y-83779174D01*
X125301731Y-83561095D01*
X125307511Y-83337594D01*
X125269577Y-83117260D01*
X125189387Y-82908560D01*
X125161588Y-82856550D01*
X124948166Y-82821439D01*
X124349605Y-83420000D01*
X123990395Y-83420000D01*
X123391834Y-82821439D01*
X123188146Y-82854949D01*
X123277458Y-82654174D01*
X123326731Y-82436095D01*
X123332511Y-82212594D01*
X123305626Y-82056436D01*
X123396065Y-82008095D01*
X123453789Y-82065819D01*
X123571439Y-81948169D01*
X123606550Y-82161588D01*
X123810826Y-82252458D01*
X124005952Y-82296545D01*
X123867260Y-82320423D01*
X123658560Y-82400613D01*
X123606550Y-82428412D01*
X123571439Y-82641834D01*
X124170000Y-83240395D01*
X124768561Y-82641834D01*
X124733450Y-82428412D01*
X124529174Y-82337542D01*
X124334048Y-82293455D01*
X124472740Y-82269577D01*
X124681440Y-82189387D01*
X124733450Y-82161588D01*
X124768561Y-81948166D01*
X124170000Y-81349605D01*
X124155858Y-81363748D01*
X124064912Y-81272802D01*
X124114610Y-81170000D01*
X124349605Y-81170000D01*
X124948166Y-81768561D01*
X125161588Y-81733450D01*
X125252458Y-81529174D01*
X125301731Y-81311095D01*
X125307511Y-81087594D01*
X125269577Y-80867260D01*
X125189387Y-80658560D01*
X125161588Y-80606550D01*
X124948166Y-80571439D01*
X124349605Y-81170000D01*
X124114610Y-81170000D01*
X124114935Y-81169329D01*
X124163158Y-80983553D01*
X124170000Y-80990395D01*
X124768561Y-80391834D01*
X124733450Y-80178412D01*
X124529174Y-80087542D01*
X124311095Y-80038269D01*
X124093820Y-80032650D01*
X124065513Y-79951356D01*
X123979042Y-79789579D01*
X123719752Y-79699853D01*
X122799605Y-80620000D01*
X123069644Y-80890039D01*
X123038269Y-81028905D01*
X123033505Y-81213110D01*
X122620000Y-80799605D01*
X122258347Y-81161258D01*
X122112594Y-81157489D01*
X121892260Y-81195423D01*
X121847944Y-81212451D01*
X122440395Y-80620000D01*
X121520248Y-79699853D01*
X121260958Y-79789579D01*
X121199066Y-79917601D01*
X121199066Y-79520248D01*
X121699853Y-79520248D01*
X122620000Y-80440395D01*
X123540147Y-79520248D01*
X123450421Y-79260958D01*
X123169329Y-79125065D01*
X122867127Y-79046621D01*
X122555427Y-79028641D01*
X122246209Y-79071816D01*
X121951356Y-79174487D01*
X121789579Y-79260958D01*
X121699853Y-79520248D01*
X121199066Y-79520248D01*
X121199066Y-79120000D01*
X121190822Y-79036293D01*
X121174000Y-78980840D01*
X121174000Y-78793882D01*
X121198291Y-78769591D01*
X121279767Y-78647653D01*
X121335889Y-78512163D01*
X121364500Y-78368327D01*
X121364500Y-78221673D01*
X121335889Y-78077837D01*
X121279767Y-77942347D01*
X121198291Y-77820409D01*
X121094591Y-77716709D01*
X120972653Y-77635233D01*
X120837163Y-77579111D01*
X120693327Y-77550500D01*
X120546673Y-77550500D01*
X120402837Y-77579111D01*
X120267347Y-77635233D01*
X120145409Y-77716709D01*
X120120000Y-77742118D01*
X120094591Y-77716709D01*
X119972653Y-77635233D01*
X119837163Y-77579111D01*
X119693327Y-77550500D01*
X119546673Y-77550500D01*
X119402837Y-77579111D01*
X119267347Y-77635233D01*
X119145409Y-77716709D01*
X119120000Y-77742118D01*
X119094591Y-77716709D01*
X118972653Y-77635233D01*
X118837163Y-77579111D01*
X118693327Y-77550500D01*
X118546673Y-77550500D01*
X118402837Y-77579111D01*
X118267347Y-77635233D01*
X118145409Y-77716709D01*
X118120000Y-77742118D01*
X118094591Y-77716709D01*
X117972653Y-77635233D01*
X117837163Y-77579111D01*
X117693327Y-77550500D01*
X117546673Y-77550500D01*
X117402837Y-77579111D01*
X117267347Y-77635233D01*
X117145409Y-77716709D01*
X117120000Y-77742118D01*
X117094591Y-77716709D01*
X116972653Y-77635233D01*
X116837163Y-77579111D01*
X116693327Y-77550500D01*
X116546673Y-77550500D01*
X116402837Y-77579111D01*
X116267347Y-77635233D01*
X116145409Y-77716709D01*
X116120000Y-77742118D01*
X116094591Y-77716709D01*
X115972653Y-77635233D01*
X115837163Y-77579111D01*
X115693327Y-77550500D01*
X115546673Y-77550500D01*
X115402837Y-77579111D01*
X115267347Y-77635233D01*
X115145409Y-77716709D01*
X115120000Y-77742118D01*
X115094591Y-77716709D01*
X114972653Y-77635233D01*
X114837163Y-77579111D01*
X114693327Y-77550500D01*
X114546673Y-77550500D01*
X114402837Y-77579111D01*
X114267347Y-77635233D01*
X114145409Y-77716709D01*
X114120000Y-77742118D01*
X114094591Y-77716709D01*
X113972653Y-77635233D01*
X113837163Y-77579111D01*
X113693327Y-77550500D01*
X113546673Y-77550500D01*
X113402837Y-77579111D01*
X113267347Y-77635233D01*
X113145409Y-77716709D01*
X113120000Y-77742118D01*
X113094591Y-77716709D01*
X112972653Y-77635233D01*
X112837163Y-77579111D01*
X112693327Y-77550500D01*
X112546673Y-77550500D01*
X112402837Y-77579111D01*
X112267347Y-77635233D01*
X112145409Y-77716709D01*
X112120000Y-77742118D01*
X112094591Y-77716709D01*
X111972653Y-77635233D01*
X111837163Y-77579111D01*
X111693327Y-77550500D01*
X111546673Y-77550500D01*
X111402837Y-77579111D01*
X111267347Y-77635233D01*
X111145409Y-77716709D01*
X111041709Y-77820409D01*
X110960233Y-77942347D01*
X110904111Y-78077837D01*
X110875500Y-78221673D01*
X96322000Y-78221673D01*
X96322000Y-59755000D01*
X109700813Y-59755000D01*
X109703001Y-59777215D01*
X109703000Y-71162795D01*
X109700813Y-71185000D01*
X109709540Y-71273607D01*
X109735386Y-71358810D01*
X109777357Y-71437333D01*
X109833841Y-71506159D01*
X109902667Y-71562643D01*
X109981190Y-71604614D01*
X110066393Y-71630460D01*
X110155000Y-71639187D01*
X110177205Y-71637000D01*
X121562795Y-71637000D01*
X121585000Y-71639187D01*
X121607205Y-71637000D01*
X121673607Y-71630460D01*
X121758810Y-71604614D01*
X121837333Y-71562643D01*
X121906159Y-71506159D01*
X121962643Y-71437333D01*
X122004614Y-71358810D01*
X122030460Y-71273607D01*
X122039187Y-71185000D01*
X122037000Y-71162795D01*
X122037000Y-59777205D01*
X122039187Y-59755000D01*
X122030460Y-59666393D01*
X122004614Y-59581190D01*
X121962643Y-59502667D01*
X121906159Y-59433841D01*
X121837333Y-59377357D01*
X121758810Y-59335386D01*
X121673607Y-59309540D01*
X121607205Y-59303000D01*
X121585000Y-59300813D01*
X121562795Y-59303000D01*
X110177205Y-59303000D01*
X110155000Y-59300813D01*
X110132795Y-59303000D01*
X110066393Y-59309540D01*
X109981190Y-59335386D01*
X109902667Y-59377357D01*
X109833841Y-59433841D01*
X109777357Y-59502667D01*
X109735386Y-59581190D01*
X109709540Y-59666393D01*
X109700813Y-59755000D01*
X96322000Y-59755000D01*
X96322000Y-51449752D01*
X108199853Y-51449752D01*
X108289579Y-51709042D01*
X108570671Y-51844935D01*
X108872873Y-51923379D01*
X109184573Y-51941359D01*
X109493791Y-51898184D01*
X109788644Y-51795513D01*
X109950421Y-51709042D01*
X110040147Y-51449752D01*
X109120000Y-50529605D01*
X108199853Y-51449752D01*
X96322000Y-51449752D01*
X96322000Y-49882406D01*
X106432489Y-49882406D01*
X106470423Y-50102740D01*
X106550613Y-50311440D01*
X106578412Y-50363450D01*
X106791834Y-50398561D01*
X107390395Y-49800000D01*
X106791834Y-49201439D01*
X106578412Y-49236550D01*
X106487542Y-49440826D01*
X106438269Y-49658905D01*
X106432489Y-49882406D01*
X96322000Y-49882406D01*
X96322000Y-48328166D01*
X106971439Y-48328166D01*
X107006550Y-48541588D01*
X107210826Y-48632458D01*
X107405952Y-48676545D01*
X107267260Y-48700423D01*
X107058560Y-48780613D01*
X107006550Y-48808412D01*
X106971439Y-49021834D01*
X107570000Y-49620395D01*
X107584143Y-49606253D01*
X107675088Y-49697198D01*
X107625065Y-49800671D01*
X107576842Y-49986447D01*
X107570000Y-49979605D01*
X106971439Y-50578166D01*
X107006550Y-50791588D01*
X107210826Y-50882458D01*
X107428905Y-50931731D01*
X107646180Y-50937350D01*
X107674487Y-51018644D01*
X107760958Y-51180421D01*
X108020248Y-51270147D01*
X108940395Y-50350000D01*
X108670356Y-50079961D01*
X108701731Y-49941095D01*
X108706495Y-49756890D01*
X109120000Y-50170395D01*
X109481653Y-49808742D01*
X109627406Y-49812511D01*
X109847740Y-49774577D01*
X109892056Y-49757549D01*
X109299605Y-50350000D01*
X110219752Y-51270147D01*
X110479042Y-51180421D01*
X110540934Y-51052399D01*
X110540934Y-51850000D01*
X110549178Y-51933707D01*
X110566001Y-51989161D01*
X110566001Y-52176117D01*
X110541709Y-52200409D01*
X110460233Y-52322347D01*
X110404111Y-52457837D01*
X110375500Y-52601673D01*
X110375500Y-52748327D01*
X110404111Y-52892163D01*
X110460233Y-53027653D01*
X110541709Y-53149591D01*
X110645409Y-53253291D01*
X110767347Y-53334767D01*
X110902837Y-53390889D01*
X111046673Y-53419500D01*
X111193327Y-53419500D01*
X111337163Y-53390889D01*
X111472653Y-53334767D01*
X111594591Y-53253291D01*
X111620000Y-53227882D01*
X111645409Y-53253291D01*
X111767347Y-53334767D01*
X111902837Y-53390889D01*
X112046673Y-53419500D01*
X112193327Y-53419500D01*
X112337163Y-53390889D01*
X112472653Y-53334767D01*
X112594591Y-53253291D01*
X112620000Y-53227882D01*
X112645409Y-53253291D01*
X112767347Y-53334767D01*
X112902837Y-53390889D01*
X113046673Y-53419500D01*
X113193327Y-53419500D01*
X113337163Y-53390889D01*
X113472653Y-53334767D01*
X113594591Y-53253291D01*
X113620000Y-53227882D01*
X113645409Y-53253291D01*
X113767347Y-53334767D01*
X113902837Y-53390889D01*
X114046673Y-53419500D01*
X114193327Y-53419500D01*
X114337163Y-53390889D01*
X114472653Y-53334767D01*
X114594591Y-53253291D01*
X114620000Y-53227882D01*
X114645409Y-53253291D01*
X114767347Y-53334767D01*
X114902837Y-53390889D01*
X115046673Y-53419500D01*
X115193327Y-53419500D01*
X115337163Y-53390889D01*
X115472653Y-53334767D01*
X115594591Y-53253291D01*
X115620000Y-53227882D01*
X115645409Y-53253291D01*
X115767347Y-53334767D01*
X115902837Y-53390889D01*
X116046673Y-53419500D01*
X116193327Y-53419500D01*
X116337163Y-53390889D01*
X116472653Y-53334767D01*
X116594591Y-53253291D01*
X116620000Y-53227882D01*
X116645409Y-53253291D01*
X116767347Y-53334767D01*
X116902837Y-53390889D01*
X117046673Y-53419500D01*
X117193327Y-53419500D01*
X117337163Y-53390889D01*
X117472653Y-53334767D01*
X117594591Y-53253291D01*
X117620000Y-53227882D01*
X117645409Y-53253291D01*
X117767347Y-53334767D01*
X117902837Y-53390889D01*
X118046673Y-53419500D01*
X118193327Y-53419500D01*
X118337163Y-53390889D01*
X118472653Y-53334767D01*
X118594591Y-53253291D01*
X118620000Y-53227882D01*
X118645409Y-53253291D01*
X118767347Y-53334767D01*
X118902837Y-53390889D01*
X119046673Y-53419500D01*
X119193327Y-53419500D01*
X119337163Y-53390889D01*
X119472653Y-53334767D01*
X119594591Y-53253291D01*
X119620000Y-53227882D01*
X119645409Y-53253291D01*
X119767347Y-53334767D01*
X119902837Y-53390889D01*
X120046673Y-53419500D01*
X120193327Y-53419500D01*
X120337163Y-53390889D01*
X120472653Y-53334767D01*
X120594591Y-53253291D01*
X120698291Y-53149591D01*
X120779767Y-53027653D01*
X120835889Y-52892163D01*
X120864500Y-52748327D01*
X120864500Y-52601673D01*
X120835889Y-52457837D01*
X120779767Y-52322347D01*
X120698291Y-52200409D01*
X120674000Y-52176118D01*
X120674000Y-51989160D01*
X120690822Y-51933707D01*
X120699066Y-51850000D01*
X120699066Y-51449752D01*
X121699853Y-51449752D01*
X121789579Y-51709042D01*
X122070671Y-51844935D01*
X122372873Y-51923379D01*
X122684573Y-51941359D01*
X122993791Y-51898184D01*
X123288644Y-51795513D01*
X123450421Y-51709042D01*
X123540147Y-51449752D01*
X122620000Y-50529605D01*
X121699853Y-51449752D01*
X120699066Y-51449752D01*
X120699066Y-50500000D01*
X120690822Y-50416293D01*
X120690301Y-50414573D01*
X121028641Y-50414573D01*
X121071816Y-50723791D01*
X121174487Y-51018644D01*
X121260958Y-51180421D01*
X121520248Y-51270147D01*
X122440395Y-50350000D01*
X121851364Y-49760969D01*
X122053905Y-49806731D01*
X122261710Y-49812105D01*
X122620000Y-50170395D01*
X123035794Y-49754601D01*
X123032489Y-49882406D01*
X123066963Y-50082642D01*
X122799605Y-50350000D01*
X123719752Y-51270147D01*
X123979042Y-51180421D01*
X124098401Y-50933528D01*
X124252406Y-50937511D01*
X124472740Y-50899577D01*
X124681440Y-50819387D01*
X124733450Y-50791588D01*
X124768561Y-50578166D01*
X124170000Y-49979605D01*
X124168823Y-49980782D01*
X124168184Y-49976209D01*
X124106826Y-49800000D01*
X124349605Y-49800000D01*
X124948166Y-50398561D01*
X125161588Y-50363450D01*
X125252458Y-50159174D01*
X125301731Y-49941095D01*
X125307511Y-49717594D01*
X125269577Y-49497260D01*
X125189387Y-49288560D01*
X125161588Y-49236550D01*
X124948166Y-49201439D01*
X124349605Y-49800000D01*
X124106826Y-49800000D01*
X124069449Y-49692661D01*
X124155858Y-49606253D01*
X124170000Y-49620395D01*
X124768561Y-49021834D01*
X124733450Y-48808412D01*
X124529174Y-48717542D01*
X124334048Y-48673455D01*
X124472740Y-48649577D01*
X124681440Y-48569387D01*
X124733450Y-48541588D01*
X124768561Y-48328166D01*
X124170000Y-47729605D01*
X123571439Y-48328166D01*
X123606550Y-48541588D01*
X123810826Y-48632458D01*
X124005952Y-48676545D01*
X123867260Y-48700423D01*
X123658560Y-48780613D01*
X123606550Y-48808412D01*
X123571439Y-49021831D01*
X123453789Y-48904181D01*
X123394194Y-48963776D01*
X123303293Y-48919830D01*
X123326731Y-48816095D01*
X123332511Y-48592594D01*
X123294577Y-48372260D01*
X123214387Y-48163560D01*
X123188490Y-48115108D01*
X123391834Y-48148561D01*
X123990395Y-47550000D01*
X124349605Y-47550000D01*
X124948166Y-48148561D01*
X125161588Y-48113450D01*
X125252458Y-47909174D01*
X125301731Y-47691095D01*
X125307511Y-47467594D01*
X125269577Y-47247260D01*
X125189387Y-47038560D01*
X125161588Y-46986550D01*
X124948166Y-46951439D01*
X124349605Y-47550000D01*
X123990395Y-47550000D01*
X123391834Y-46951439D01*
X123178412Y-46986550D01*
X123087542Y-47190826D01*
X123038269Y-47408905D01*
X123032489Y-47632406D01*
X123070423Y-47852740D01*
X123150613Y-48061440D01*
X123176510Y-48109892D01*
X122973166Y-48076439D01*
X122374605Y-48675000D01*
X122388748Y-48689143D01*
X122280921Y-48796969D01*
X122246209Y-48801816D01*
X122148092Y-48835982D01*
X122001253Y-48689143D01*
X122015395Y-48675000D01*
X121416834Y-48076439D01*
X121203412Y-48111550D01*
X121112542Y-48315826D01*
X121063269Y-48533905D01*
X121057489Y-48757406D01*
X121095423Y-48977740D01*
X121175613Y-49186440D01*
X121203412Y-49238450D01*
X121416831Y-49273561D01*
X121299181Y-49391211D01*
X121384721Y-49476751D01*
X121260958Y-49519579D01*
X121125065Y-49800671D01*
X121046621Y-50102873D01*
X121028641Y-50414573D01*
X120690301Y-50414573D01*
X120666405Y-50335804D01*
X120626755Y-50261624D01*
X120573395Y-50196605D01*
X120508376Y-50143245D01*
X120434196Y-50103595D01*
X120353707Y-50079178D01*
X120270000Y-50070934D01*
X119970000Y-50070934D01*
X119886293Y-50079178D01*
X119805804Y-50103595D01*
X119731624Y-50143245D01*
X119666605Y-50196605D01*
X119620000Y-50253393D01*
X119573395Y-50196605D01*
X119508376Y-50143245D01*
X119434196Y-50103595D01*
X119353707Y-50079178D01*
X119270000Y-50070934D01*
X118970000Y-50070934D01*
X118886293Y-50079178D01*
X118805804Y-50103595D01*
X118731624Y-50143245D01*
X118666605Y-50196605D01*
X118620000Y-50253393D01*
X118573395Y-50196605D01*
X118508376Y-50143245D01*
X118434196Y-50103595D01*
X118353707Y-50079178D01*
X118270000Y-50070934D01*
X117970000Y-50070934D01*
X117886293Y-50079178D01*
X117805804Y-50103595D01*
X117731624Y-50143245D01*
X117666605Y-50196605D01*
X117620000Y-50253393D01*
X117573395Y-50196605D01*
X117508376Y-50143245D01*
X117434196Y-50103595D01*
X117353707Y-50079178D01*
X117270000Y-50070934D01*
X116970000Y-50070934D01*
X116886293Y-50079178D01*
X116805804Y-50103595D01*
X116731624Y-50143245D01*
X116666605Y-50196605D01*
X116620000Y-50253393D01*
X116573395Y-50196605D01*
X116508376Y-50143245D01*
X116434196Y-50103595D01*
X116353707Y-50079178D01*
X116270000Y-50070934D01*
X115970000Y-50070934D01*
X115886293Y-50079178D01*
X115805804Y-50103595D01*
X115731624Y-50143245D01*
X115666605Y-50196605D01*
X115620000Y-50253393D01*
X115573395Y-50196605D01*
X115508376Y-50143245D01*
X115434196Y-50103595D01*
X115353707Y-50079178D01*
X115270000Y-50070934D01*
X114970000Y-50070934D01*
X114886293Y-50079178D01*
X114805804Y-50103595D01*
X114731624Y-50143245D01*
X114666605Y-50196605D01*
X114620000Y-50253393D01*
X114573395Y-50196605D01*
X114508376Y-50143245D01*
X114434196Y-50103595D01*
X114353707Y-50079178D01*
X114270000Y-50070934D01*
X113970000Y-50070934D01*
X113886293Y-50079178D01*
X113805804Y-50103595D01*
X113731624Y-50143245D01*
X113666605Y-50196605D01*
X113620000Y-50253393D01*
X113573395Y-50196605D01*
X113508376Y-50143245D01*
X113434196Y-50103595D01*
X113353707Y-50079178D01*
X113270000Y-50070934D01*
X112970000Y-50070934D01*
X112886293Y-50079178D01*
X112805804Y-50103595D01*
X112731624Y-50143245D01*
X112666605Y-50196605D01*
X112620000Y-50253393D01*
X112573395Y-50196605D01*
X112508376Y-50143245D01*
X112434196Y-50103595D01*
X112353707Y-50079178D01*
X112270000Y-50070934D01*
X111970000Y-50070934D01*
X111886293Y-50079178D01*
X111805804Y-50103595D01*
X111731624Y-50143245D01*
X111666605Y-50196605D01*
X111620000Y-50253393D01*
X111573395Y-50196605D01*
X111508376Y-50143245D01*
X111434196Y-50103595D01*
X111353707Y-50079178D01*
X111270000Y-50070934D01*
X110970000Y-50070934D01*
X110886293Y-50079178D01*
X110805804Y-50103595D01*
X110731624Y-50143245D01*
X110695631Y-50172784D01*
X110668184Y-49976209D01*
X110565513Y-49681356D01*
X110479042Y-49519579D01*
X110355279Y-49476751D01*
X110440819Y-49391211D01*
X110323169Y-49273561D01*
X110536588Y-49238450D01*
X110627458Y-49034174D01*
X110676731Y-48816095D01*
X110682511Y-48592594D01*
X110644577Y-48372260D01*
X110564387Y-48163560D01*
X110536588Y-48111550D01*
X110323166Y-48076439D01*
X109724605Y-48675000D01*
X109738748Y-48689143D01*
X109592713Y-48835177D01*
X109463834Y-48801724D01*
X109351253Y-48689143D01*
X109365395Y-48675000D01*
X108766834Y-48076439D01*
X108563146Y-48109949D01*
X108652458Y-47909174D01*
X108655246Y-47896834D01*
X108946439Y-47896834D01*
X109545000Y-48495395D01*
X110143561Y-47896834D01*
X121596439Y-47896834D01*
X122195000Y-48495395D01*
X122793561Y-47896834D01*
X122758450Y-47683412D01*
X122554174Y-47592542D01*
X122336095Y-47543269D01*
X122112594Y-47537489D01*
X121892260Y-47575423D01*
X121683560Y-47655613D01*
X121631550Y-47683412D01*
X121596439Y-47896834D01*
X110143561Y-47896834D01*
X110108450Y-47683412D01*
X109904174Y-47592542D01*
X109686095Y-47543269D01*
X109462594Y-47537489D01*
X109242260Y-47575423D01*
X109033560Y-47655613D01*
X108981550Y-47683412D01*
X108946439Y-47896834D01*
X108655246Y-47896834D01*
X108701731Y-47691095D01*
X108707511Y-47467594D01*
X108669577Y-47247260D01*
X108589387Y-47038560D01*
X108561588Y-46986550D01*
X108348166Y-46951439D01*
X107749605Y-47550000D01*
X108348166Y-48148561D01*
X108551854Y-48115051D01*
X108462542Y-48315826D01*
X108413269Y-48533905D01*
X108407489Y-48757406D01*
X108434374Y-48913564D01*
X108343935Y-48961905D01*
X108286211Y-48904181D01*
X108168561Y-49021831D01*
X108133450Y-48808412D01*
X107929174Y-48717542D01*
X107734048Y-48673455D01*
X107872740Y-48649577D01*
X108081440Y-48569387D01*
X108133450Y-48541588D01*
X108168561Y-48328166D01*
X107570000Y-47729605D01*
X106971439Y-48328166D01*
X96322000Y-48328166D01*
X96322000Y-47632406D01*
X106432489Y-47632406D01*
X106470423Y-47852740D01*
X106550613Y-48061440D01*
X106578412Y-48113450D01*
X106791834Y-48148561D01*
X107390395Y-47550000D01*
X106791834Y-46951439D01*
X106578412Y-46986550D01*
X106487542Y-47190826D01*
X106438269Y-47408905D01*
X106432489Y-47632406D01*
X96322000Y-47632406D01*
X96322000Y-46771834D01*
X106971439Y-46771834D01*
X107570000Y-47370395D01*
X108168561Y-46771834D01*
X123571439Y-46771834D01*
X124170000Y-47370395D01*
X124768561Y-46771834D01*
X124733450Y-46558412D01*
X124529174Y-46467542D01*
X124311095Y-46418269D01*
X124087594Y-46412489D01*
X123867260Y-46450423D01*
X123658560Y-46530613D01*
X123606550Y-46558412D01*
X123571439Y-46771834D01*
X108168561Y-46771834D01*
X108133450Y-46558412D01*
X107929174Y-46467542D01*
X107711095Y-46418269D01*
X107487594Y-46412489D01*
X107267260Y-46450423D01*
X107058560Y-46530613D01*
X107006550Y-46558412D01*
X106971439Y-46771834D01*
X96322000Y-46771834D01*
X96322000Y-45922000D01*
X135418000Y-45922000D01*
X135418001Y-85018000D01*
G37*
X135418001Y-85018000D02*
X96322000Y-85018000D01*
X96322000Y-84198166D01*
X106971439Y-84198166D01*
X107006550Y-84411588D01*
X107210826Y-84502458D01*
X107428905Y-84551731D01*
X107652406Y-84557511D01*
X107872740Y-84519577D01*
X108081440Y-84439387D01*
X108133450Y-84411588D01*
X108168561Y-84198166D01*
X123571439Y-84198166D01*
X123606550Y-84411588D01*
X123810826Y-84502458D01*
X124028905Y-84551731D01*
X124252406Y-84557511D01*
X124472740Y-84519577D01*
X124681440Y-84439387D01*
X124733450Y-84411588D01*
X124768561Y-84198166D01*
X124170000Y-83599605D01*
X123571439Y-84198166D01*
X108168561Y-84198166D01*
X107570000Y-83599605D01*
X106971439Y-84198166D01*
X96322000Y-84198166D01*
X96322000Y-83502406D01*
X106432489Y-83502406D01*
X106470423Y-83722740D01*
X106550613Y-83931440D01*
X106578412Y-83983450D01*
X106791834Y-84018561D01*
X107390395Y-83420000D01*
X106791834Y-82821439D01*
X106578412Y-82856550D01*
X106487542Y-83060826D01*
X106438269Y-83278905D01*
X106432489Y-83502406D01*
X96322000Y-83502406D01*
X96322000Y-81252406D01*
X106432489Y-81252406D01*
X106470423Y-81472740D01*
X106550613Y-81681440D01*
X106578412Y-81733450D01*
X106791834Y-81768561D01*
X107390395Y-81170000D01*
X106791834Y-80571439D01*
X106578412Y-80606550D01*
X106487542Y-80810826D01*
X106438269Y-81028905D01*
X106432489Y-81252406D01*
X96322000Y-81252406D01*
X96322000Y-80391834D01*
X106971439Y-80391834D01*
X107570000Y-80990395D01*
X107571177Y-80989218D01*
X107571816Y-80993791D01*
X107670551Y-81277339D01*
X107584143Y-81363748D01*
X107570000Y-81349605D01*
X106971439Y-81948166D01*
X107006550Y-82161588D01*
X107210826Y-82252458D01*
X107405952Y-82296545D01*
X107267260Y-82320423D01*
X107058560Y-82400613D01*
X107006550Y-82428412D01*
X106971439Y-82641834D01*
X107570000Y-83240395D01*
X108168561Y-82641834D01*
X108133450Y-82428412D01*
X107929174Y-82337542D01*
X107734048Y-82293455D01*
X107872740Y-82269577D01*
X108081440Y-82189387D01*
X108133450Y-82161588D01*
X108168561Y-81948169D01*
X108286211Y-82065819D01*
X108345806Y-82006224D01*
X108436707Y-82050170D01*
X108413269Y-82153905D01*
X108407489Y-82377406D01*
X108445423Y-82597740D01*
X108525613Y-82806440D01*
X108551510Y-82854892D01*
X108348166Y-82821439D01*
X107749605Y-83420000D01*
X108348166Y-84018561D01*
X108561588Y-83983450D01*
X108652458Y-83779174D01*
X108701731Y-83561095D01*
X108707511Y-83337594D01*
X108669577Y-83117260D01*
X108652635Y-83073166D01*
X108946439Y-83073166D01*
X108981550Y-83286588D01*
X109185826Y-83377458D01*
X109403905Y-83426731D01*
X109627406Y-83432511D01*
X109847740Y-83394577D01*
X110056440Y-83314387D01*
X110108450Y-83286588D01*
X110143561Y-83073166D01*
X121596439Y-83073166D01*
X121631550Y-83286588D01*
X121835826Y-83377458D01*
X122053905Y-83426731D01*
X122277406Y-83432511D01*
X122497740Y-83394577D01*
X122706440Y-83314387D01*
X122758450Y-83286588D01*
X122793561Y-83073166D01*
X122195000Y-82474605D01*
X121596439Y-83073166D01*
X110143561Y-83073166D01*
X109545000Y-82474605D01*
X108946439Y-83073166D01*
X108652635Y-83073166D01*
X108589387Y-82908560D01*
X108563490Y-82860108D01*
X108766834Y-82893561D01*
X109365395Y-82295000D01*
X109351253Y-82280858D01*
X109459079Y-82173031D01*
X109493791Y-82168184D01*
X109591908Y-82134018D01*
X109738748Y-82280858D01*
X109724605Y-82295000D01*
X110323166Y-82893561D01*
X110536588Y-82858450D01*
X110627458Y-82654174D01*
X110676731Y-82436095D01*
X110682511Y-82212594D01*
X110644577Y-81992260D01*
X110564387Y-81783560D01*
X110536588Y-81731550D01*
X110323169Y-81696439D01*
X110440819Y-81578789D01*
X110355279Y-81493249D01*
X110479042Y-81450421D01*
X110614935Y-81169329D01*
X110693379Y-80867127D01*
X110711359Y-80555427D01*
X110668184Y-80246209D01*
X110565513Y-79951356D01*
X110479042Y-79789579D01*
X110219752Y-79699853D01*
X109299605Y-80620000D01*
X109888636Y-81209031D01*
X109686095Y-81163269D01*
X109478290Y-81157895D01*
X109120000Y-80799605D01*
X108704206Y-81215399D01*
X108707511Y-81087594D01*
X108673037Y-80887358D01*
X108940395Y-80620000D01*
X108020248Y-79699853D01*
X107760958Y-79789579D01*
X107641599Y-80036472D01*
X107487594Y-80032489D01*
X107267260Y-80070423D01*
X107058560Y-80150613D01*
X107006550Y-80178412D01*
X106971439Y-80391834D01*
X96322000Y-80391834D01*
X96322000Y-79520248D01*
X108199853Y-79520248D01*
X109120000Y-80440395D01*
X110040147Y-79520248D01*
X109950421Y-79260958D01*
X109669329Y-79125065D01*
X109367127Y-79046621D01*
X109055427Y-79028641D01*
X108746209Y-79071816D01*
X108451356Y-79174487D01*
X108289579Y-79260958D01*
X108199853Y-79520248D01*
X96322000Y-79520248D01*
X96322000Y-78221673D01*
X110875500Y-78221673D01*
X110875500Y-78368327D01*
X110904111Y-78512163D01*
X110960233Y-78647653D01*
X111041709Y-78769591D01*
X111066001Y-78793883D01*
X111066001Y-78980839D01*
X111049178Y-79036293D01*
X111040934Y-79120000D01*
X111040934Y-80470000D01*
X111049178Y-80553707D01*
X111073595Y-80634196D01*
X111113245Y-80708376D01*
X111166605Y-80773395D01*
X111231624Y-80826755D01*
X111305804Y-80866405D01*
X111386293Y-80890822D01*
X111470000Y-80899066D01*
X111770000Y-80899066D01*
X111853707Y-80890822D01*
X111934196Y-80866405D01*
X112008376Y-80826755D01*
X112073395Y-80773395D01*
X112120000Y-80716607D01*
X112166605Y-80773395D01*
X112231624Y-80826755D01*
X112305804Y-80866405D01*
X112386293Y-80890822D01*
X112470000Y-80899066D01*
X112770000Y-80899066D01*
X112853707Y-80890822D01*
X112934196Y-80866405D01*
X113008376Y-80826755D01*
X113073395Y-80773395D01*
X113120000Y-80716607D01*
X113166605Y-80773395D01*
X113231624Y-80826755D01*
X113305804Y-80866405D01*
X113386293Y-80890822D01*
X113470000Y-80899066D01*
X113770000Y-80899066D01*
X113853707Y-80890822D01*
X113934196Y-80866405D01*
X114008376Y-80826755D01*
X114073395Y-80773395D01*
X114120000Y-80716607D01*
X114166605Y-80773395D01*
X114231624Y-80826755D01*
X114305804Y-80866405D01*
X114386293Y-80890822D01*
X114470000Y-80899066D01*
X114770000Y-80899066D01*
X114853707Y-80890822D01*
X114934196Y-80866405D01*
X115008376Y-80826755D01*
X115073395Y-80773395D01*
X115120000Y-80716607D01*
X115166605Y-80773395D01*
X115231624Y-80826755D01*
X115305804Y-80866405D01*
X115386293Y-80890822D01*
X115470000Y-80899066D01*
X115770000Y-80899066D01*
X115853707Y-80890822D01*
X115934196Y-80866405D01*
X116008376Y-80826755D01*
X116073395Y-80773395D01*
X116120000Y-80716607D01*
X116166605Y-80773395D01*
X116231624Y-80826755D01*
X116305804Y-80866405D01*
X116386293Y-80890822D01*
X116470000Y-80899066D01*
X116770000Y-80899066D01*
X116853707Y-80890822D01*
X116934196Y-80866405D01*
X117008376Y-80826755D01*
X117073395Y-80773395D01*
X117120000Y-80716607D01*
X117166605Y-80773395D01*
X117231624Y-80826755D01*
X117305804Y-80866405D01*
X117386293Y-80890822D01*
X117470000Y-80899066D01*
X117770000Y-80899066D01*
X117853707Y-80890822D01*
X117934196Y-80866405D01*
X118008376Y-80826755D01*
X118073395Y-80773395D01*
X118120000Y-80716607D01*
X118166605Y-80773395D01*
X118231624Y-80826755D01*
X118305804Y-80866405D01*
X118386293Y-80890822D01*
X118470000Y-80899066D01*
X118770000Y-80899066D01*
X118853707Y-80890822D01*
X118934196Y-80866405D01*
X119008376Y-80826755D01*
X119073395Y-80773395D01*
X119120000Y-80716607D01*
X119166605Y-80773395D01*
X119231624Y-80826755D01*
X119305804Y-80866405D01*
X119386293Y-80890822D01*
X119470000Y-80899066D01*
X119770000Y-80899066D01*
X119853707Y-80890822D01*
X119934196Y-80866405D01*
X120008376Y-80826755D01*
X120073395Y-80773395D01*
X120120000Y-80716607D01*
X120166605Y-80773395D01*
X120231624Y-80826755D01*
X120305804Y-80866405D01*
X120386293Y-80890822D01*
X120470000Y-80899066D01*
X120770000Y-80899066D01*
X120853707Y-80890822D01*
X120934196Y-80866405D01*
X121008376Y-80826755D01*
X121044369Y-80797216D01*
X121071816Y-80993791D01*
X121174487Y-81288644D01*
X121260958Y-81450421D01*
X121384721Y-81493249D01*
X121299181Y-81578789D01*
X121416831Y-81696439D01*
X121203412Y-81731550D01*
X121112542Y-81935826D01*
X121063269Y-82153905D01*
X121057489Y-82377406D01*
X121095423Y-82597740D01*
X121175613Y-82806440D01*
X121203412Y-82858450D01*
X121416834Y-82893561D01*
X122015395Y-82295000D01*
X122001253Y-82280858D01*
X122147287Y-82134823D01*
X122276166Y-82168276D01*
X122388748Y-82280858D01*
X122374605Y-82295000D01*
X122973166Y-82893561D01*
X123176854Y-82860051D01*
X123087542Y-83060826D01*
X123038269Y-83278905D01*
X123032489Y-83502406D01*
X123070423Y-83722740D01*
X123150613Y-83931440D01*
X123178412Y-83983450D01*
X123391834Y-84018561D01*
X123990395Y-83420000D01*
X124349605Y-83420000D01*
X124948166Y-84018561D01*
X125161588Y-83983450D01*
X125252458Y-83779174D01*
X125301731Y-83561095D01*
X125307511Y-83337594D01*
X125269577Y-83117260D01*
X125189387Y-82908560D01*
X125161588Y-82856550D01*
X124948166Y-82821439D01*
X124349605Y-83420000D01*
X123990395Y-83420000D01*
X123391834Y-82821439D01*
X123188146Y-82854949D01*
X123277458Y-82654174D01*
X123326731Y-82436095D01*
X123332511Y-82212594D01*
X123305626Y-82056436D01*
X123396065Y-82008095D01*
X123453789Y-82065819D01*
X123571439Y-81948169D01*
X123606550Y-82161588D01*
X123810826Y-82252458D01*
X124005952Y-82296545D01*
X123867260Y-82320423D01*
X123658560Y-82400613D01*
X123606550Y-82428412D01*
X123571439Y-82641834D01*
X124170000Y-83240395D01*
X124768561Y-82641834D01*
X124733450Y-82428412D01*
X124529174Y-82337542D01*
X124334048Y-82293455D01*
X124472740Y-82269577D01*
X124681440Y-82189387D01*
X124733450Y-82161588D01*
X124768561Y-81948166D01*
X124170000Y-81349605D01*
X124155858Y-81363748D01*
X124064912Y-81272802D01*
X124114610Y-81170000D01*
X124349605Y-81170000D01*
X124948166Y-81768561D01*
X125161588Y-81733450D01*
X125252458Y-81529174D01*
X125301731Y-81311095D01*
X125307511Y-81087594D01*
X125269577Y-80867260D01*
X125189387Y-80658560D01*
X125161588Y-80606550D01*
X124948166Y-80571439D01*
X124349605Y-81170000D01*
X124114610Y-81170000D01*
X124114935Y-81169329D01*
X124163158Y-80983553D01*
X124170000Y-80990395D01*
X124768561Y-80391834D01*
X124733450Y-80178412D01*
X124529174Y-80087542D01*
X124311095Y-80038269D01*
X124093820Y-80032650D01*
X124065513Y-79951356D01*
X123979042Y-79789579D01*
X123719752Y-79699853D01*
X122799605Y-80620000D01*
X123069644Y-80890039D01*
X123038269Y-81028905D01*
X123033505Y-81213110D01*
X122620000Y-80799605D01*
X122258347Y-81161258D01*
X122112594Y-81157489D01*
X121892260Y-81195423D01*
X121847944Y-81212451D01*
X122440395Y-80620000D01*
X121520248Y-79699853D01*
X121260958Y-79789579D01*
X121199066Y-79917601D01*
X121199066Y-79520248D01*
X121699853Y-79520248D01*
X122620000Y-80440395D01*
X123540147Y-79520248D01*
X123450421Y-79260958D01*
X123169329Y-79125065D01*
X122867127Y-79046621D01*
X122555427Y-79028641D01*
X122246209Y-79071816D01*
X121951356Y-79174487D01*
X121789579Y-79260958D01*
X121699853Y-79520248D01*
X121199066Y-79520248D01*
X121199066Y-79120000D01*
X121190822Y-79036293D01*
X121174000Y-78980840D01*
X121174000Y-78793882D01*
X121198291Y-78769591D01*
X121279767Y-78647653D01*
X121335889Y-78512163D01*
X121364500Y-78368327D01*
X121364500Y-78221673D01*
X121335889Y-78077837D01*
X121279767Y-77942347D01*
X121198291Y-77820409D01*
X121094591Y-77716709D01*
X120972653Y-77635233D01*
X120837163Y-77579111D01*
X120693327Y-77550500D01*
X120546673Y-77550500D01*
X120402837Y-77579111D01*
X120267347Y-77635233D01*
X120145409Y-77716709D01*
X120120000Y-77742118D01*
X120094591Y-77716709D01*
X119972653Y-77635233D01*
X119837163Y-77579111D01*
X119693327Y-77550500D01*
X119546673Y-77550500D01*
X119402837Y-77579111D01*
X119267347Y-77635233D01*
X119145409Y-77716709D01*
X119120000Y-77742118D01*
X119094591Y-77716709D01*
X118972653Y-77635233D01*
X118837163Y-77579111D01*
X118693327Y-77550500D01*
X118546673Y-77550500D01*
X118402837Y-77579111D01*
X118267347Y-77635233D01*
X118145409Y-77716709D01*
X118120000Y-77742118D01*
X118094591Y-77716709D01*
X117972653Y-77635233D01*
X117837163Y-77579111D01*
X117693327Y-77550500D01*
X117546673Y-77550500D01*
X117402837Y-77579111D01*
X117267347Y-77635233D01*
X117145409Y-77716709D01*
X117120000Y-77742118D01*
X117094591Y-77716709D01*
X116972653Y-77635233D01*
X116837163Y-77579111D01*
X116693327Y-77550500D01*
X116546673Y-77550500D01*
X116402837Y-77579111D01*
X116267347Y-77635233D01*
X116145409Y-77716709D01*
X116120000Y-77742118D01*
X116094591Y-77716709D01*
X115972653Y-77635233D01*
X115837163Y-77579111D01*
X115693327Y-77550500D01*
X115546673Y-77550500D01*
X115402837Y-77579111D01*
X115267347Y-77635233D01*
X115145409Y-77716709D01*
X115120000Y-77742118D01*
X115094591Y-77716709D01*
X114972653Y-77635233D01*
X114837163Y-77579111D01*
X114693327Y-77550500D01*
X114546673Y-77550500D01*
X114402837Y-77579111D01*
X114267347Y-77635233D01*
X114145409Y-77716709D01*
X114120000Y-77742118D01*
X114094591Y-77716709D01*
X113972653Y-77635233D01*
X113837163Y-77579111D01*
X113693327Y-77550500D01*
X113546673Y-77550500D01*
X113402837Y-77579111D01*
X113267347Y-77635233D01*
X113145409Y-77716709D01*
X113120000Y-77742118D01*
X113094591Y-77716709D01*
X112972653Y-77635233D01*
X112837163Y-77579111D01*
X112693327Y-77550500D01*
X112546673Y-77550500D01*
X112402837Y-77579111D01*
X112267347Y-77635233D01*
X112145409Y-77716709D01*
X112120000Y-77742118D01*
X112094591Y-77716709D01*
X111972653Y-77635233D01*
X111837163Y-77579111D01*
X111693327Y-77550500D01*
X111546673Y-77550500D01*
X111402837Y-77579111D01*
X111267347Y-77635233D01*
X111145409Y-77716709D01*
X111041709Y-77820409D01*
X110960233Y-77942347D01*
X110904111Y-78077837D01*
X110875500Y-78221673D01*
X96322000Y-78221673D01*
X96322000Y-59755000D01*
X109700813Y-59755000D01*
X109703001Y-59777215D01*
X109703000Y-71162795D01*
X109700813Y-71185000D01*
X109709540Y-71273607D01*
X109735386Y-71358810D01*
X109777357Y-71437333D01*
X109833841Y-71506159D01*
X109902667Y-71562643D01*
X109981190Y-71604614D01*
X110066393Y-71630460D01*
X110155000Y-71639187D01*
X110177205Y-71637000D01*
X121562795Y-71637000D01*
X121585000Y-71639187D01*
X121607205Y-71637000D01*
X121673607Y-71630460D01*
X121758810Y-71604614D01*
X121837333Y-71562643D01*
X121906159Y-71506159D01*
X121962643Y-71437333D01*
X122004614Y-71358810D01*
X122030460Y-71273607D01*
X122039187Y-71185000D01*
X122037000Y-71162795D01*
X122037000Y-59777205D01*
X122039187Y-59755000D01*
X122030460Y-59666393D01*
X122004614Y-59581190D01*
X121962643Y-59502667D01*
X121906159Y-59433841D01*
X121837333Y-59377357D01*
X121758810Y-59335386D01*
X121673607Y-59309540D01*
X121607205Y-59303000D01*
X121585000Y-59300813D01*
X121562795Y-59303000D01*
X110177205Y-59303000D01*
X110155000Y-59300813D01*
X110132795Y-59303000D01*
X110066393Y-59309540D01*
X109981190Y-59335386D01*
X109902667Y-59377357D01*
X109833841Y-59433841D01*
X109777357Y-59502667D01*
X109735386Y-59581190D01*
X109709540Y-59666393D01*
X109700813Y-59755000D01*
X96322000Y-59755000D01*
X96322000Y-51449752D01*
X108199853Y-51449752D01*
X108289579Y-51709042D01*
X108570671Y-51844935D01*
X108872873Y-51923379D01*
X109184573Y-51941359D01*
X109493791Y-51898184D01*
X109788644Y-51795513D01*
X109950421Y-51709042D01*
X110040147Y-51449752D01*
X109120000Y-50529605D01*
X108199853Y-51449752D01*
X96322000Y-51449752D01*
X96322000Y-49882406D01*
X106432489Y-49882406D01*
X106470423Y-50102740D01*
X106550613Y-50311440D01*
X106578412Y-50363450D01*
X106791834Y-50398561D01*
X107390395Y-49800000D01*
X106791834Y-49201439D01*
X106578412Y-49236550D01*
X106487542Y-49440826D01*
X106438269Y-49658905D01*
X106432489Y-49882406D01*
X96322000Y-49882406D01*
X96322000Y-48328166D01*
X106971439Y-48328166D01*
X107006550Y-48541588D01*
X107210826Y-48632458D01*
X107405952Y-48676545D01*
X107267260Y-48700423D01*
X107058560Y-48780613D01*
X107006550Y-48808412D01*
X106971439Y-49021834D01*
X107570000Y-49620395D01*
X107584143Y-49606253D01*
X107675088Y-49697198D01*
X107625065Y-49800671D01*
X107576842Y-49986447D01*
X107570000Y-49979605D01*
X106971439Y-50578166D01*
X107006550Y-50791588D01*
X107210826Y-50882458D01*
X107428905Y-50931731D01*
X107646180Y-50937350D01*
X107674487Y-51018644D01*
X107760958Y-51180421D01*
X108020248Y-51270147D01*
X108940395Y-50350000D01*
X108670356Y-50079961D01*
X108701731Y-49941095D01*
X108706495Y-49756890D01*
X109120000Y-50170395D01*
X109481653Y-49808742D01*
X109627406Y-49812511D01*
X109847740Y-49774577D01*
X109892056Y-49757549D01*
X109299605Y-50350000D01*
X110219752Y-51270147D01*
X110479042Y-51180421D01*
X110540934Y-51052399D01*
X110540934Y-51850000D01*
X110549178Y-51933707D01*
X110566001Y-51989161D01*
X110566001Y-52176117D01*
X110541709Y-52200409D01*
X110460233Y-52322347D01*
X110404111Y-52457837D01*
X110375500Y-52601673D01*
X110375500Y-52748327D01*
X110404111Y-52892163D01*
X110460233Y-53027653D01*
X110541709Y-53149591D01*
X110645409Y-53253291D01*
X110767347Y-53334767D01*
X110902837Y-53390889D01*
X111046673Y-53419500D01*
X111193327Y-53419500D01*
X111337163Y-53390889D01*
X111472653Y-53334767D01*
X111594591Y-53253291D01*
X111620000Y-53227882D01*
X111645409Y-53253291D01*
X111767347Y-53334767D01*
X111902837Y-53390889D01*
X112046673Y-53419500D01*
X112193327Y-53419500D01*
X112337163Y-53390889D01*
X112472653Y-53334767D01*
X112594591Y-53253291D01*
X112620000Y-53227882D01*
X112645409Y-53253291D01*
X112767347Y-53334767D01*
X112902837Y-53390889D01*
X113046673Y-53419500D01*
X113193327Y-53419500D01*
X113337163Y-53390889D01*
X113472653Y-53334767D01*
X113594591Y-53253291D01*
X113620000Y-53227882D01*
X113645409Y-53253291D01*
X113767347Y-53334767D01*
X113902837Y-53390889D01*
X114046673Y-53419500D01*
X114193327Y-53419500D01*
X114337163Y-53390889D01*
X114472653Y-53334767D01*
X114594591Y-53253291D01*
X114620000Y-53227882D01*
X114645409Y-53253291D01*
X114767347Y-53334767D01*
X114902837Y-53390889D01*
X115046673Y-53419500D01*
X115193327Y-53419500D01*
X115337163Y-53390889D01*
X115472653Y-53334767D01*
X115594591Y-53253291D01*
X115620000Y-53227882D01*
X115645409Y-53253291D01*
X115767347Y-53334767D01*
X115902837Y-53390889D01*
X116046673Y-53419500D01*
X116193327Y-53419500D01*
X116337163Y-53390889D01*
X116472653Y-53334767D01*
X116594591Y-53253291D01*
X116620000Y-53227882D01*
X116645409Y-53253291D01*
X116767347Y-53334767D01*
X116902837Y-53390889D01*
X117046673Y-53419500D01*
X117193327Y-53419500D01*
X117337163Y-53390889D01*
X117472653Y-53334767D01*
X117594591Y-53253291D01*
X117620000Y-53227882D01*
X117645409Y-53253291D01*
X117767347Y-53334767D01*
X117902837Y-53390889D01*
X118046673Y-53419500D01*
X118193327Y-53419500D01*
X118337163Y-53390889D01*
X118472653Y-53334767D01*
X118594591Y-53253291D01*
X118620000Y-53227882D01*
X118645409Y-53253291D01*
X118767347Y-53334767D01*
X118902837Y-53390889D01*
X119046673Y-53419500D01*
X119193327Y-53419500D01*
X119337163Y-53390889D01*
X119472653Y-53334767D01*
X119594591Y-53253291D01*
X119620000Y-53227882D01*
X119645409Y-53253291D01*
X119767347Y-53334767D01*
X119902837Y-53390889D01*
X120046673Y-53419500D01*
X120193327Y-53419500D01*
X120337163Y-53390889D01*
X120472653Y-53334767D01*
X120594591Y-53253291D01*
X120698291Y-53149591D01*
X120779767Y-53027653D01*
X120835889Y-52892163D01*
X120864500Y-52748327D01*
X120864500Y-52601673D01*
X120835889Y-52457837D01*
X120779767Y-52322347D01*
X120698291Y-52200409D01*
X120674000Y-52176118D01*
X120674000Y-51989160D01*
X120690822Y-51933707D01*
X120699066Y-51850000D01*
X120699066Y-51449752D01*
X121699853Y-51449752D01*
X121789579Y-51709042D01*
X122070671Y-51844935D01*
X122372873Y-51923379D01*
X122684573Y-51941359D01*
X122993791Y-51898184D01*
X123288644Y-51795513D01*
X123450421Y-51709042D01*
X123540147Y-51449752D01*
X122620000Y-50529605D01*
X121699853Y-51449752D01*
X120699066Y-51449752D01*
X120699066Y-50500000D01*
X120690822Y-50416293D01*
X120690301Y-50414573D01*
X121028641Y-50414573D01*
X121071816Y-50723791D01*
X121174487Y-51018644D01*
X121260958Y-51180421D01*
X121520248Y-51270147D01*
X122440395Y-50350000D01*
X121851364Y-49760969D01*
X122053905Y-49806731D01*
X122261710Y-49812105D01*
X122620000Y-50170395D01*
X123035794Y-49754601D01*
X123032489Y-49882406D01*
X123066963Y-50082642D01*
X122799605Y-50350000D01*
X123719752Y-51270147D01*
X123979042Y-51180421D01*
X124098401Y-50933528D01*
X124252406Y-50937511D01*
X124472740Y-50899577D01*
X124681440Y-50819387D01*
X124733450Y-50791588D01*
X124768561Y-50578166D01*
X124170000Y-49979605D01*
X124168823Y-49980782D01*
X124168184Y-49976209D01*
X124106826Y-49800000D01*
X124349605Y-49800000D01*
X124948166Y-50398561D01*
X125161588Y-50363450D01*
X125252458Y-50159174D01*
X125301731Y-49941095D01*
X125307511Y-49717594D01*
X125269577Y-49497260D01*
X125189387Y-49288560D01*
X125161588Y-49236550D01*
X124948166Y-49201439D01*
X124349605Y-49800000D01*
X124106826Y-49800000D01*
X124069449Y-49692661D01*
X124155858Y-49606253D01*
X124170000Y-49620395D01*
X124768561Y-49021834D01*
X124733450Y-48808412D01*
X124529174Y-48717542D01*
X124334048Y-48673455D01*
X124472740Y-48649577D01*
X124681440Y-48569387D01*
X124733450Y-48541588D01*
X124768561Y-48328166D01*
X124170000Y-47729605D01*
X123571439Y-48328166D01*
X123606550Y-48541588D01*
X123810826Y-48632458D01*
X124005952Y-48676545D01*
X123867260Y-48700423D01*
X123658560Y-48780613D01*
X123606550Y-48808412D01*
X123571439Y-49021831D01*
X123453789Y-48904181D01*
X123394194Y-48963776D01*
X123303293Y-48919830D01*
X123326731Y-48816095D01*
X123332511Y-48592594D01*
X123294577Y-48372260D01*
X123214387Y-48163560D01*
X123188490Y-48115108D01*
X123391834Y-48148561D01*
X123990395Y-47550000D01*
X124349605Y-47550000D01*
X124948166Y-48148561D01*
X125161588Y-48113450D01*
X125252458Y-47909174D01*
X125301731Y-47691095D01*
X125307511Y-47467594D01*
X125269577Y-47247260D01*
X125189387Y-47038560D01*
X125161588Y-46986550D01*
X124948166Y-46951439D01*
X124349605Y-47550000D01*
X123990395Y-47550000D01*
X123391834Y-46951439D01*
X123178412Y-46986550D01*
X123087542Y-47190826D01*
X123038269Y-47408905D01*
X123032489Y-47632406D01*
X123070423Y-47852740D01*
X123150613Y-48061440D01*
X123176510Y-48109892D01*
X122973166Y-48076439D01*
X122374605Y-48675000D01*
X122388748Y-48689143D01*
X122280921Y-48796969D01*
X122246209Y-48801816D01*
X122148092Y-48835982D01*
X122001253Y-48689143D01*
X122015395Y-48675000D01*
X121416834Y-48076439D01*
X121203412Y-48111550D01*
X121112542Y-48315826D01*
X121063269Y-48533905D01*
X121057489Y-48757406D01*
X121095423Y-48977740D01*
X121175613Y-49186440D01*
X121203412Y-49238450D01*
X121416831Y-49273561D01*
X121299181Y-49391211D01*
X121384721Y-49476751D01*
X121260958Y-49519579D01*
X121125065Y-49800671D01*
X121046621Y-50102873D01*
X121028641Y-50414573D01*
X120690301Y-50414573D01*
X120666405Y-50335804D01*
X120626755Y-50261624D01*
X120573395Y-50196605D01*
X120508376Y-50143245D01*
X120434196Y-50103595D01*
X120353707Y-50079178D01*
X120270000Y-50070934D01*
X119970000Y-50070934D01*
X119886293Y-50079178D01*
X119805804Y-50103595D01*
X119731624Y-50143245D01*
X119666605Y-50196605D01*
X119620000Y-50253393D01*
X119573395Y-50196605D01*
X119508376Y-50143245D01*
X119434196Y-50103595D01*
X119353707Y-50079178D01*
X119270000Y-50070934D01*
X118970000Y-50070934D01*
X118886293Y-50079178D01*
X118805804Y-50103595D01*
X118731624Y-50143245D01*
X118666605Y-50196605D01*
X118620000Y-50253393D01*
X118573395Y-50196605D01*
X118508376Y-50143245D01*
X118434196Y-50103595D01*
X118353707Y-50079178D01*
X118270000Y-50070934D01*
X117970000Y-50070934D01*
X117886293Y-50079178D01*
X117805804Y-50103595D01*
X117731624Y-50143245D01*
X117666605Y-50196605D01*
X117620000Y-50253393D01*
X117573395Y-50196605D01*
X117508376Y-50143245D01*
X117434196Y-50103595D01*
X117353707Y-50079178D01*
X117270000Y-50070934D01*
X116970000Y-50070934D01*
X116886293Y-50079178D01*
X116805804Y-50103595D01*
X116731624Y-50143245D01*
X116666605Y-50196605D01*
X116620000Y-50253393D01*
X116573395Y-50196605D01*
X116508376Y-50143245D01*
X116434196Y-50103595D01*
X116353707Y-50079178D01*
X116270000Y-50070934D01*
X115970000Y-50070934D01*
X115886293Y-50079178D01*
X115805804Y-50103595D01*
X115731624Y-50143245D01*
X115666605Y-50196605D01*
X115620000Y-50253393D01*
X115573395Y-50196605D01*
X115508376Y-50143245D01*
X115434196Y-50103595D01*
X115353707Y-50079178D01*
X115270000Y-50070934D01*
X114970000Y-50070934D01*
X114886293Y-50079178D01*
X114805804Y-50103595D01*
X114731624Y-50143245D01*
X114666605Y-50196605D01*
X114620000Y-50253393D01*
X114573395Y-50196605D01*
X114508376Y-50143245D01*
X114434196Y-50103595D01*
X114353707Y-50079178D01*
X114270000Y-50070934D01*
X113970000Y-50070934D01*
X113886293Y-50079178D01*
X113805804Y-50103595D01*
X113731624Y-50143245D01*
X113666605Y-50196605D01*
X113620000Y-50253393D01*
X113573395Y-50196605D01*
X113508376Y-50143245D01*
X113434196Y-50103595D01*
X113353707Y-50079178D01*
X113270000Y-50070934D01*
X112970000Y-50070934D01*
X112886293Y-50079178D01*
X112805804Y-50103595D01*
X112731624Y-50143245D01*
X112666605Y-50196605D01*
X112620000Y-50253393D01*
X112573395Y-50196605D01*
X112508376Y-50143245D01*
X112434196Y-50103595D01*
X112353707Y-50079178D01*
X112270000Y-50070934D01*
X111970000Y-50070934D01*
X111886293Y-50079178D01*
X111805804Y-50103595D01*
X111731624Y-50143245D01*
X111666605Y-50196605D01*
X111620000Y-50253393D01*
X111573395Y-50196605D01*
X111508376Y-50143245D01*
X111434196Y-50103595D01*
X111353707Y-50079178D01*
X111270000Y-50070934D01*
X110970000Y-50070934D01*
X110886293Y-50079178D01*
X110805804Y-50103595D01*
X110731624Y-50143245D01*
X110695631Y-50172784D01*
X110668184Y-49976209D01*
X110565513Y-49681356D01*
X110479042Y-49519579D01*
X110355279Y-49476751D01*
X110440819Y-49391211D01*
X110323169Y-49273561D01*
X110536588Y-49238450D01*
X110627458Y-49034174D01*
X110676731Y-48816095D01*
X110682511Y-48592594D01*
X110644577Y-48372260D01*
X110564387Y-48163560D01*
X110536588Y-48111550D01*
X110323166Y-48076439D01*
X109724605Y-48675000D01*
X109738748Y-48689143D01*
X109592713Y-48835177D01*
X109463834Y-48801724D01*
X109351253Y-48689143D01*
X109365395Y-48675000D01*
X108766834Y-48076439D01*
X108563146Y-48109949D01*
X108652458Y-47909174D01*
X108655246Y-47896834D01*
X108946439Y-47896834D01*
X109545000Y-48495395D01*
X110143561Y-47896834D01*
X121596439Y-47896834D01*
X122195000Y-48495395D01*
X122793561Y-47896834D01*
X122758450Y-47683412D01*
X122554174Y-47592542D01*
X122336095Y-47543269D01*
X122112594Y-47537489D01*
X121892260Y-47575423D01*
X121683560Y-47655613D01*
X121631550Y-47683412D01*
X121596439Y-47896834D01*
X110143561Y-47896834D01*
X110108450Y-47683412D01*
X109904174Y-47592542D01*
X109686095Y-47543269D01*
X109462594Y-47537489D01*
X109242260Y-47575423D01*
X109033560Y-47655613D01*
X108981550Y-47683412D01*
X108946439Y-47896834D01*
X108655246Y-47896834D01*
X108701731Y-47691095D01*
X108707511Y-47467594D01*
X108669577Y-47247260D01*
X108589387Y-47038560D01*
X108561588Y-46986550D01*
X108348166Y-46951439D01*
X107749605Y-47550000D01*
X108348166Y-48148561D01*
X108551854Y-48115051D01*
X108462542Y-48315826D01*
X108413269Y-48533905D01*
X108407489Y-48757406D01*
X108434374Y-48913564D01*
X108343935Y-48961905D01*
X108286211Y-48904181D01*
X108168561Y-49021831D01*
X108133450Y-48808412D01*
X107929174Y-48717542D01*
X107734048Y-48673455D01*
X107872740Y-48649577D01*
X108081440Y-48569387D01*
X108133450Y-48541588D01*
X108168561Y-48328166D01*
X107570000Y-47729605D01*
X106971439Y-48328166D01*
X96322000Y-48328166D01*
X96322000Y-47632406D01*
X106432489Y-47632406D01*
X106470423Y-47852740D01*
X106550613Y-48061440D01*
X106578412Y-48113450D01*
X106791834Y-48148561D01*
X107390395Y-47550000D01*
X106791834Y-46951439D01*
X106578412Y-46986550D01*
X106487542Y-47190826D01*
X106438269Y-47408905D01*
X106432489Y-47632406D01*
X96322000Y-47632406D01*
X96322000Y-46771834D01*
X106971439Y-46771834D01*
X107570000Y-47370395D01*
X108168561Y-46771834D01*
X123571439Y-46771834D01*
X124170000Y-47370395D01*
X124768561Y-46771834D01*
X124733450Y-46558412D01*
X124529174Y-46467542D01*
X124311095Y-46418269D01*
X124087594Y-46412489D01*
X123867260Y-46450423D01*
X123658560Y-46530613D01*
X123606550Y-46558412D01*
X123571439Y-46771834D01*
X108168561Y-46771834D01*
X108133450Y-46558412D01*
X107929174Y-46467542D01*
X107711095Y-46418269D01*
X107487594Y-46412489D01*
X107267260Y-46450423D01*
X107058560Y-46530613D01*
X107006550Y-46558412D01*
X106971439Y-46771834D01*
X96322000Y-46771834D01*
X96322000Y-45922000D01*
X135418000Y-45922000D01*
X135418001Y-85018000D01*
M02*
