G04 #@! TF.GenerationSoftware,KiCad,Pcbnew,(5.1.5)-3*
G04 #@! TF.CreationDate,2020-01-16T17:02:50-07:00*
G04 #@! TF.ProjectId,Igloo10,49676c6f-6f31-4302-9e6b-696361645f70,rev?*
G04 #@! TF.SameCoordinates,Original*
G04 #@! TF.FileFunction,Legend,Bot*
G04 #@! TF.FilePolarity,Positive*
%FSLAX46Y46*%
G04 Gerber Fmt 4.6, Leading zero omitted, Abs format (unit mm)*
G04 Created by KiCad (PCBNEW (5.1.5)-3) date 2020-01-16 17:02:50*
%MOMM*%
%LPD*%
G04 APERTURE LIST*
%ADD10C,0.050000*%
G04 APERTURE END LIST*
D10*
X115720000Y-45500000D02*
X111020000Y-45500000D01*
X111020000Y-47400000D02*
X111020000Y-45450000D01*
X115720000Y-47400000D02*
X115720000Y-45450000D01*
X114220000Y-51350000D02*
X114220000Y-47500000D01*
X114020000Y-47500000D02*
X114020000Y-51350000D01*
X114220000Y-51350000D02*
X114020000Y-51350000D01*
X115520000Y-47500000D02*
X115520000Y-51350000D01*
X115720000Y-51350000D02*
X115720000Y-47500000D01*
X115720000Y-51350000D02*
X115520000Y-51350000D01*
X115220000Y-51350000D02*
X115220000Y-47500000D01*
X115020000Y-47500000D02*
X115020000Y-51350000D01*
X115220000Y-51350000D02*
X115020000Y-51350000D01*
X114720000Y-51350000D02*
X114720000Y-47500000D01*
X114520000Y-47500000D02*
X114520000Y-51350000D01*
X114720000Y-51350000D02*
X114520000Y-51350000D01*
X113020000Y-47500000D02*
X113020000Y-51350000D01*
X113220000Y-51350000D02*
X113220000Y-47500000D01*
X113220000Y-51350000D02*
X113020000Y-51350000D01*
X112720000Y-51350000D02*
X112720000Y-47500000D01*
X112520000Y-47500000D02*
X112520000Y-51350000D01*
X112720000Y-51350000D02*
X112520000Y-51350000D01*
X113520000Y-47500000D02*
X113520000Y-51350000D01*
X113720000Y-51350000D02*
X113720000Y-47500000D01*
X113720000Y-51350000D02*
X113520000Y-51350000D01*
X111720000Y-51350000D02*
X111720000Y-47500000D01*
X111520000Y-47500000D02*
X111520000Y-51350000D01*
X111720000Y-51350000D02*
X111520000Y-51350000D01*
X111220000Y-51350000D02*
X111220000Y-47500000D01*
X111020000Y-51350000D02*
X111020000Y-47500000D01*
X111220000Y-51350000D02*
X111020000Y-51350000D01*
X112220000Y-51350000D02*
X112220000Y-47500000D01*
X112020000Y-47500000D02*
X112020000Y-51350000D01*
X112220000Y-51350000D02*
X112020000Y-51350000D01*
X111220000Y-47950000D02*
X111020000Y-47950000D01*
X115220000Y-47950000D02*
X115020000Y-47950000D01*
X111720000Y-47950000D02*
X111520000Y-47950000D01*
X115720000Y-47950000D02*
X115520000Y-47950000D01*
X114720000Y-47950000D02*
X114520000Y-47950000D01*
X114220000Y-47950000D02*
X114020000Y-47950000D01*
X113720000Y-47950000D02*
X113520000Y-47950000D01*
X112720000Y-47950000D02*
X112520000Y-47950000D01*
X112220000Y-47950000D02*
X112020000Y-47950000D01*
X113220000Y-47950000D02*
X113020000Y-47950000D01*
X107670000Y-47400000D02*
X107470000Y-47400000D01*
X107670000Y-47700000D02*
X107470000Y-47700000D01*
X124270000Y-49950000D02*
X124070000Y-49950000D01*
X124270000Y-49650000D02*
X124070000Y-49650000D01*
X124270000Y-47700000D02*
X124070000Y-47700000D01*
X124270000Y-47400000D02*
X124070000Y-47400000D01*
X107670000Y-49650000D02*
X107470000Y-49650000D01*
X107670000Y-49950000D02*
X107470000Y-49950000D01*
X123152983Y-50350000D02*
G75*
G03X123152983Y-50350000I-532983J0D01*
G01*
X109432500Y-48880000D02*
X109657500Y-48880000D01*
X122082500Y-48880000D02*
X122307500Y-48880000D01*
X122307500Y-48480000D02*
X122082500Y-48480000D01*
X109657500Y-48480000D02*
X109432500Y-48480000D01*
X122307500Y-48237500D02*
X122307500Y-48930000D01*
X109432500Y-48930000D02*
X109432500Y-48237500D01*
X123425555Y-48930000D02*
X122082500Y-48930000D01*
X109657500Y-48930000D02*
X108314445Y-48930000D01*
X122082500Y-48930000D02*
X122082500Y-48430000D01*
X122307500Y-48430000D02*
X122082500Y-48430000D01*
X121870000Y-47800000D02*
X122307500Y-48237500D01*
X121870000Y-47650000D02*
X121870000Y-47800000D01*
X109870000Y-47800000D02*
X109870000Y-47650000D01*
X109432500Y-48237500D02*
X109870000Y-47800000D01*
X109657500Y-48430000D02*
X109432500Y-48430000D01*
X109657500Y-48930000D02*
X109657500Y-48430000D01*
X124270000Y-47300000D02*
X124270000Y-47800000D01*
X123280000Y-50350000D02*
G75*
G03X123280000Y-50350000I-660000J0D01*
G01*
X124070000Y-47300000D02*
X124070000Y-47800000D01*
X107470000Y-47800000D02*
X107670000Y-47800000D01*
X108120000Y-46650000D02*
X107020000Y-46650000D01*
X107670000Y-49550000D02*
X107670000Y-50050000D01*
X107470000Y-50050000D02*
X107670000Y-50050000D01*
X107670000Y-49550000D02*
X107470000Y-49550000D01*
X107670000Y-47300000D02*
X107670000Y-47800000D01*
X124070000Y-47800000D02*
X124270000Y-47800000D01*
X124270000Y-47300000D02*
X124070000Y-47300000D01*
X124270000Y-49550000D02*
X124270000Y-50050000D01*
X107670000Y-47300000D02*
X107470000Y-47300000D01*
X107470000Y-49550000D02*
X107470000Y-50050000D01*
X124070000Y-50050000D02*
X124270000Y-50050000D01*
X124270000Y-49550000D02*
X124070000Y-49550000D01*
X124070000Y-49550000D02*
X124070000Y-50050000D01*
X107470000Y-47300000D02*
X107470000Y-47800000D01*
X124720000Y-46650000D02*
X123620000Y-46650000D01*
X123161421Y-47800000D02*
X123161421Y-48930000D01*
X123020000Y-47800000D02*
X123020000Y-48930000D01*
X108720000Y-47800000D02*
X108720000Y-48930000D01*
X108570000Y-48930000D02*
X108570000Y-47800000D01*
X123425555Y-48050000D02*
X123425555Y-48930000D01*
X108314445Y-48930000D02*
X108314445Y-48050000D01*
X123470000Y-45450000D02*
X123245000Y-45450000D01*
X123470000Y-45650000D02*
X123245000Y-45650000D01*
X108270000Y-45450000D02*
X108495000Y-45450000D01*
X108270000Y-45650000D02*
X108495000Y-45650000D01*
X114020000Y-50350000D02*
X114220000Y-50350000D01*
X114520000Y-50350000D02*
X114720000Y-50350000D01*
X111020000Y-50350000D02*
X111220000Y-50350000D01*
X111520000Y-50350000D02*
X111720000Y-50350000D01*
X112020000Y-50350000D02*
X112220000Y-50350000D01*
X113020000Y-50350000D02*
X113220000Y-50350000D01*
X115020000Y-50350000D02*
X115220000Y-50350000D01*
X113520000Y-50350000D02*
X113720000Y-50350000D01*
X112520000Y-50350000D02*
X112720000Y-50350000D01*
X115520000Y-50350000D02*
X115720000Y-50350000D01*
X113720000Y-45500000D02*
X113720000Y-47400000D01*
X112220000Y-45500000D02*
X112220000Y-47400000D01*
X114220000Y-45500000D02*
X114220000Y-47400000D01*
X115020000Y-47400000D02*
X115020000Y-45500000D01*
X112720000Y-45500000D02*
X112720000Y-47400000D01*
X115220000Y-45500000D02*
X115220000Y-47400000D01*
X114720000Y-45500000D02*
X114720000Y-47400000D01*
X115520000Y-47400000D02*
X115520000Y-45500000D01*
X113220000Y-45500000D02*
X113220000Y-47400000D01*
X111520000Y-47400000D02*
X111520000Y-45500000D01*
X113520000Y-47400000D02*
X113520000Y-45500000D01*
X111220000Y-45500000D02*
X111220000Y-47400000D01*
X114520000Y-47400000D02*
X114520000Y-45500000D01*
X114020000Y-47400000D02*
X114020000Y-45500000D01*
X112020000Y-47400000D02*
X112020000Y-45500000D01*
X112520000Y-47400000D02*
X112520000Y-45500000D01*
X111720000Y-45500000D02*
X111720000Y-47400000D01*
X113020000Y-47400000D02*
X113020000Y-45500000D01*
X123220000Y-45450000D02*
X108495000Y-45450000D01*
X123220000Y-45450000D02*
X123220000Y-47800000D01*
X122970000Y-45450000D02*
X122970000Y-47800000D01*
X108770000Y-45450000D02*
X108770000Y-47800000D01*
X108520000Y-45450000D02*
X108520000Y-47800000D01*
X123245000Y-45450000D02*
X123245000Y-47800000D01*
X108495000Y-45450000D02*
X108495000Y-47800000D01*
X121927000Y-50350000D02*
X123313000Y-50350000D01*
X122620000Y-49657000D02*
X122620000Y-51043000D01*
X109120000Y-49657000D02*
X109120000Y-51043000D01*
X108516250Y-50350000D02*
X109723750Y-50350000D01*
X108495000Y-48050000D02*
X108495000Y-47800000D01*
X108270000Y-48050000D02*
X108270000Y-45450000D01*
X123245000Y-48050000D02*
X123245000Y-47800000D01*
X123470000Y-48050000D02*
X123470000Y-45450000D01*
X113520000Y-51050000D02*
X113220000Y-51050000D01*
X115020000Y-51050000D02*
X114720000Y-51050000D01*
X115520000Y-51050000D02*
X115220000Y-51050000D01*
X114020000Y-51050000D02*
X113720000Y-51050000D01*
X113020000Y-51050000D02*
X112720000Y-51050000D01*
X114520000Y-51050000D02*
X114220000Y-51050000D01*
X124570000Y-51050000D02*
X120720000Y-51050000D01*
X111020000Y-51050000D02*
X107170000Y-51050000D01*
X112020000Y-51050000D02*
X111720000Y-51050000D01*
X112520000Y-51050000D02*
X112220000Y-51050000D01*
X111520000Y-51050000D02*
X111220000Y-51050000D01*
X123620000Y-48050000D02*
X123620000Y-45600000D01*
X124720000Y-45600000D02*
X124720000Y-50900000D01*
X123220000Y-48050000D02*
X123620000Y-48050000D01*
X123620000Y-45600000D02*
X123770000Y-45450000D01*
X123770000Y-45450000D02*
X124570000Y-45450000D01*
X124570000Y-45450000D02*
X124720000Y-45600000D01*
X124720000Y-50900000D02*
X124570000Y-51050000D01*
X108120000Y-48050000D02*
X108520000Y-48050000D01*
X107970000Y-45450000D02*
X108120000Y-45600000D01*
X107170000Y-51050000D02*
X107020000Y-50900000D01*
X107020000Y-50900000D02*
X107020000Y-45600000D01*
X107020000Y-45600000D02*
X107170000Y-45450000D01*
X107170000Y-45450000D02*
X107970000Y-45450000D01*
X108120000Y-45600000D02*
X108120000Y-48050000D01*
X121820000Y-47800000D02*
X109920000Y-47800000D01*
X113720000Y-47400000D02*
X113720000Y-47500000D01*
X112220000Y-47400000D02*
X112220000Y-47500000D01*
X115020000Y-47400000D02*
X115220000Y-47400000D01*
X114220000Y-47400000D02*
X114220000Y-47500000D01*
X113020000Y-47400000D02*
X113220000Y-47400000D01*
X115020000Y-47500000D02*
X115020000Y-47400000D01*
X111020000Y-47400000D02*
X111220000Y-47400000D01*
X115520000Y-47400000D02*
X115720000Y-47400000D01*
X112720000Y-47400000D02*
X112720000Y-47500000D01*
X113520000Y-47400000D02*
X113720000Y-47400000D01*
X115220000Y-47400000D02*
X115220000Y-47500000D01*
X111520000Y-47400000D02*
X111720000Y-47400000D01*
X114020000Y-47400000D02*
X114220000Y-47400000D01*
X114720000Y-47400000D02*
X114720000Y-47500000D01*
X115520000Y-47500000D02*
X115520000Y-47400000D01*
X113220000Y-47400000D02*
X113220000Y-47500000D01*
X112020000Y-47400000D02*
X112220000Y-47400000D01*
X111520000Y-47500000D02*
X111520000Y-47400000D01*
X113520000Y-47500000D02*
X113520000Y-47400000D01*
X111220000Y-47400000D02*
X111220000Y-47500000D01*
X114520000Y-47400000D02*
X114720000Y-47400000D01*
X111020000Y-47500000D02*
X111020000Y-47400000D01*
X115720000Y-47400000D02*
X115720000Y-47500000D01*
X114520000Y-47500000D02*
X114520000Y-47400000D01*
X114020000Y-47500000D02*
X114020000Y-47400000D01*
X113020000Y-47500000D02*
X113020000Y-47400000D01*
X112520000Y-47400000D02*
X112720000Y-47400000D01*
X112520000Y-47500000D02*
X112520000Y-47400000D01*
X112020000Y-47500000D02*
X112020000Y-47400000D01*
X111720000Y-47400000D02*
X111720000Y-47500000D01*
X110020000Y-51050000D02*
X110020000Y-47800000D01*
X121720000Y-51050000D02*
X121720000Y-47800000D01*
X110820000Y-47300000D02*
X121120000Y-47300000D01*
X123220000Y-47800000D02*
X123220000Y-51050000D01*
X122970000Y-47800000D02*
X122970000Y-51050000D01*
X108770000Y-47800000D02*
X108770000Y-51050000D01*
X108520000Y-47800000D02*
X108520000Y-51050000D01*
X123470000Y-47800000D02*
X122020000Y-47800000D01*
X109720000Y-47800000D02*
X108270000Y-47800000D01*
X109720000Y-47800000D02*
X109870000Y-47650000D01*
X108720000Y-45450000D02*
X108720000Y-47800000D01*
X123020000Y-45450000D02*
X123020000Y-47800000D01*
X121870000Y-47650000D02*
X122020000Y-47800000D01*
X121870000Y-46490000D02*
X121870000Y-47650000D01*
X121070000Y-46490000D02*
X121870000Y-46490000D01*
X121070000Y-47150000D02*
X121070000Y-46490000D01*
X120920000Y-47300000D02*
X121070000Y-47150000D01*
X110670000Y-47150000D02*
X110820000Y-47300000D01*
X110670000Y-46490000D02*
X110670000Y-47150000D01*
X109870000Y-46490000D02*
X110670000Y-46490000D01*
X113720000Y-47720000D02*
X113520000Y-47720000D01*
X115220000Y-47720000D02*
X115020000Y-47720000D01*
X112720000Y-47720000D02*
X112520000Y-47720000D01*
X113220000Y-47720000D02*
X113020000Y-47720000D01*
X114220000Y-47720000D02*
X114020000Y-47720000D01*
X111720000Y-47720000D02*
X111520000Y-47720000D01*
X112220000Y-47720000D02*
X112020000Y-47720000D01*
X111220000Y-47720000D02*
X111020000Y-47720000D01*
X115720000Y-47720000D02*
X115520000Y-47720000D01*
X114720000Y-47720000D02*
X114520000Y-47720000D01*
X115220000Y-48470000D02*
X115020000Y-48470000D01*
X115720000Y-48470000D02*
X115520000Y-48470000D01*
X112220000Y-48470000D02*
X112020000Y-48470000D01*
X112720000Y-48470000D02*
X112520000Y-48470000D01*
X111720000Y-48470000D02*
X111520000Y-48470000D01*
X113220000Y-48470000D02*
X113020000Y-48470000D01*
X113720000Y-48470000D02*
X113520000Y-48470000D01*
X114720000Y-48470000D02*
X114520000Y-48470000D01*
X111220000Y-48470000D02*
X111020000Y-48470000D01*
X114220000Y-48470000D02*
X114020000Y-48470000D01*
X112220000Y-50600000D02*
X112020000Y-50600000D01*
X115720000Y-50600000D02*
X115520000Y-50600000D01*
X113220000Y-50600000D02*
X113020000Y-50600000D01*
X112720000Y-50600000D02*
X112520000Y-50600000D01*
X113720000Y-50600000D02*
X113520000Y-50600000D01*
X114220000Y-50600000D02*
X114020000Y-50600000D01*
X111720000Y-50600000D02*
X111520000Y-50600000D01*
X111220000Y-50600000D02*
X111020000Y-50600000D01*
X115220000Y-50600000D02*
X115020000Y-50600000D01*
X114720000Y-50600000D02*
X114520000Y-50600000D01*
X109870000Y-47650000D02*
X109870000Y-46490000D01*
X121820000Y-46650000D02*
X121820000Y-47800000D01*
X121120000Y-46650000D02*
X121270000Y-46500000D01*
X121670000Y-46500000D02*
X121820000Y-46650000D01*
X121120000Y-47800000D02*
X121120000Y-46650000D01*
X121270000Y-46500000D02*
X121670000Y-46500000D01*
X110470000Y-46500000D02*
X110620000Y-46650000D01*
X109920000Y-46650000D02*
X110070000Y-46500000D01*
X109920000Y-47800000D02*
X109920000Y-46650000D01*
X110070000Y-46500000D02*
X110470000Y-46500000D01*
X110620000Y-46650000D02*
X110620000Y-47800000D01*
X109652983Y-50350000D02*
G75*
G03X109652983Y-50350000I-532983J0D01*
G01*
X109780000Y-50350000D02*
G75*
G03X109780000Y-50350000I-660000J0D01*
G01*
X118720000Y-47950000D02*
X118520000Y-47950000D01*
X119720000Y-47950000D02*
X119520000Y-47950000D01*
X120720000Y-47950000D02*
X120520000Y-47950000D01*
X120220000Y-47950000D02*
X120020000Y-47950000D01*
X119220000Y-47950000D02*
X119020000Y-47950000D01*
X120720000Y-47500000D02*
X111020000Y-47500000D01*
X118220000Y-47950000D02*
X118020000Y-47950000D01*
X117720000Y-47950000D02*
X117520000Y-47950000D01*
X117220000Y-47950000D02*
X117020000Y-47950000D01*
X116720000Y-47950000D02*
X116520000Y-47950000D01*
X116020000Y-51350000D02*
X116020000Y-47500000D01*
X116220000Y-51350000D02*
X116220000Y-47500000D01*
X116020000Y-47400000D02*
X116020000Y-45450000D01*
X117720000Y-51350000D02*
X117720000Y-47500000D01*
X118220000Y-51350000D02*
X118220000Y-47500000D01*
X118220000Y-51350000D02*
X118020000Y-51350000D01*
X119520000Y-47500000D02*
X119520000Y-51350000D01*
X120220000Y-51350000D02*
X120020000Y-51350000D01*
X120720000Y-51350000D02*
X120520000Y-51350000D01*
X120520000Y-47500000D02*
X120520000Y-51350000D01*
X120720000Y-45500000D02*
X116020000Y-45500000D01*
X117220000Y-51350000D02*
X117020000Y-51350000D01*
X120220000Y-51350000D02*
X120220000Y-47500000D01*
X117020000Y-47500000D02*
X117020000Y-51350000D01*
X118720000Y-51350000D02*
X118720000Y-47500000D01*
X117720000Y-51350000D02*
X117520000Y-51350000D01*
X117520000Y-47500000D02*
X117520000Y-51350000D01*
X119220000Y-51350000D02*
X119020000Y-51350000D01*
X116720000Y-51350000D02*
X116520000Y-51350000D01*
X119220000Y-51350000D02*
X119220000Y-47500000D01*
X116720000Y-51350000D02*
X116720000Y-47500000D01*
X118020000Y-47500000D02*
X118020000Y-51350000D01*
X119720000Y-51350000D02*
X119520000Y-51350000D01*
X120720000Y-51350000D02*
X120720000Y-47500000D01*
X116220000Y-47950000D02*
X116020000Y-47950000D01*
X118720000Y-51350000D02*
X118520000Y-51350000D01*
X117220000Y-51350000D02*
X117220000Y-47500000D01*
X116220000Y-51350000D02*
X116020000Y-51350000D01*
X116520000Y-47500000D02*
X116520000Y-51350000D01*
X119720000Y-51350000D02*
X119720000Y-47500000D01*
X120020000Y-47500000D02*
X120020000Y-51350000D01*
X118520000Y-47500000D02*
X118520000Y-51350000D01*
X119020000Y-47500000D02*
X119020000Y-51350000D01*
X120720000Y-47400000D02*
X120720000Y-45450000D01*
X118020000Y-50350000D02*
X118220000Y-50350000D01*
X119020000Y-47400000D02*
X119020000Y-45500000D01*
X120020000Y-47400000D02*
X120020000Y-45500000D01*
X119020000Y-50350000D02*
X119220000Y-50350000D01*
X118020000Y-47400000D02*
X118020000Y-45500000D01*
X117520000Y-50350000D02*
X117720000Y-50350000D01*
X118520000Y-47400000D02*
X118520000Y-45500000D01*
X116520000Y-47400000D02*
X116520000Y-45500000D01*
X118220000Y-45500000D02*
X118220000Y-47400000D01*
X118520000Y-50350000D02*
X118720000Y-50350000D01*
X117020000Y-50350000D02*
X117220000Y-50350000D01*
X116020000Y-50350000D02*
X116220000Y-50350000D01*
X119520000Y-47400000D02*
X119520000Y-45500000D01*
X117520000Y-47400000D02*
X117520000Y-45500000D01*
X120220000Y-45500000D02*
X120220000Y-47400000D01*
X116220000Y-45500000D02*
X116220000Y-47400000D01*
X117020000Y-47400000D02*
X117020000Y-45500000D01*
X119220000Y-45500000D02*
X119220000Y-47400000D01*
X117220000Y-45500000D02*
X117220000Y-47400000D01*
X116520000Y-50350000D02*
X116720000Y-50350000D01*
X119520000Y-50350000D02*
X119720000Y-50350000D01*
X120520000Y-50350000D02*
X120720000Y-50350000D01*
X120020000Y-50350000D02*
X120220000Y-50350000D01*
X119720000Y-45500000D02*
X119720000Y-47400000D01*
X118720000Y-45500000D02*
X118720000Y-47400000D01*
X116720000Y-45500000D02*
X116720000Y-47400000D01*
X120520000Y-47400000D02*
X120520000Y-45500000D01*
X117720000Y-45500000D02*
X117720000Y-47400000D01*
X119720000Y-48470000D02*
X119520000Y-48470000D01*
X117520000Y-47500000D02*
X117520000Y-47400000D01*
X118720000Y-48470000D02*
X118520000Y-48470000D01*
X117720000Y-48470000D02*
X117520000Y-48470000D01*
X117720000Y-47720000D02*
X117520000Y-47720000D01*
X120220000Y-47720000D02*
X120020000Y-47720000D01*
X118720000Y-47720000D02*
X118520000Y-47720000D01*
X120720000Y-48470000D02*
X120520000Y-48470000D01*
X120720000Y-47720000D02*
X120520000Y-47720000D01*
X117220000Y-47720000D02*
X117020000Y-47720000D01*
X119520000Y-47500000D02*
X119520000Y-47400000D01*
X119020000Y-47500000D02*
X119020000Y-47400000D01*
X119720000Y-47720000D02*
X119520000Y-47720000D01*
X120220000Y-50600000D02*
X120020000Y-50600000D01*
X118220000Y-50600000D02*
X118020000Y-50600000D01*
X117220000Y-50600000D02*
X117020000Y-50600000D01*
X119220000Y-48470000D02*
X119020000Y-48470000D01*
X116720000Y-47720000D02*
X116520000Y-47720000D01*
X118720000Y-50600000D02*
X118520000Y-50600000D01*
X118220000Y-47720000D02*
X118020000Y-47720000D01*
X117020000Y-47500000D02*
X117020000Y-47400000D01*
X118220000Y-48470000D02*
X118020000Y-48470000D01*
X116720000Y-48470000D02*
X116520000Y-48470000D01*
X116220000Y-47720000D02*
X116020000Y-47720000D01*
X116720000Y-50600000D02*
X116520000Y-50600000D01*
X117520000Y-47400000D02*
X117720000Y-47400000D01*
X118020000Y-47500000D02*
X118020000Y-47400000D01*
X117720000Y-50600000D02*
X117520000Y-50600000D01*
X119720000Y-50600000D02*
X119520000Y-50600000D01*
X119220000Y-50600000D02*
X119020000Y-50600000D01*
X117220000Y-48470000D02*
X117020000Y-48470000D01*
X120220000Y-48470000D02*
X120020000Y-48470000D01*
X116720000Y-47400000D02*
X116720000Y-47500000D01*
X120720000Y-50600000D02*
X120520000Y-50600000D01*
X119220000Y-47720000D02*
X119020000Y-47720000D01*
X116220000Y-50600000D02*
X116020000Y-50600000D01*
X116220000Y-48470000D02*
X116020000Y-48470000D01*
X118520000Y-47400000D02*
X118720000Y-47400000D01*
X120020000Y-47500000D02*
X120020000Y-47400000D01*
X117520000Y-51050000D02*
X117220000Y-51050000D01*
X118720000Y-47400000D02*
X118720000Y-47500000D01*
X118020000Y-51050000D02*
X117720000Y-51050000D01*
X119220000Y-47400000D02*
X119220000Y-47500000D01*
X117020000Y-47400000D02*
X117220000Y-47400000D01*
X118520000Y-51050000D02*
X118220000Y-51050000D01*
X116520000Y-47500000D02*
X116520000Y-47400000D01*
X118220000Y-47400000D02*
X118220000Y-47500000D01*
X120520000Y-47500000D02*
X120520000Y-47400000D01*
X120520000Y-47400000D02*
X120720000Y-47400000D01*
X120020000Y-51050000D02*
X119720000Y-51050000D01*
X119720000Y-47400000D02*
X119720000Y-47500000D01*
X116020000Y-47400000D02*
X116220000Y-47400000D01*
X117020000Y-51050000D02*
X116720000Y-51050000D01*
X116020000Y-47500000D02*
X116020000Y-47400000D01*
X118020000Y-47400000D02*
X118220000Y-47400000D01*
X120020000Y-47400000D02*
X120220000Y-47400000D01*
X119520000Y-47400000D02*
X119720000Y-47400000D01*
X118520000Y-47500000D02*
X118520000Y-47400000D01*
X117220000Y-47400000D02*
X117220000Y-47500000D01*
X119020000Y-47400000D02*
X119220000Y-47400000D01*
X120520000Y-51050000D02*
X120220000Y-51050000D01*
X119020000Y-51050000D02*
X118720000Y-51050000D01*
X119520000Y-51050000D02*
X119220000Y-51050000D01*
X116520000Y-47400000D02*
X116720000Y-47400000D01*
X116520000Y-51050000D02*
X116220000Y-51050000D01*
X120720000Y-47400000D02*
X120720000Y-47500000D01*
X116220000Y-47400000D02*
X116220000Y-47500000D01*
X120220000Y-47400000D02*
X120220000Y-47500000D01*
X117720000Y-47400000D02*
X117720000Y-47500000D01*
X116020000Y-51050000D02*
X115720000Y-51050000D01*
X116020000Y-85470000D02*
X120720000Y-85470000D01*
X120720000Y-83570000D02*
X120720000Y-85520000D01*
X116020000Y-83570000D02*
X116020000Y-85520000D01*
X117520000Y-79620000D02*
X117520000Y-83470000D01*
X117720000Y-83470000D02*
X117720000Y-79620000D01*
X117520000Y-79620000D02*
X117720000Y-79620000D01*
X116220000Y-83470000D02*
X116220000Y-79620000D01*
X116020000Y-79620000D02*
X116020000Y-83470000D01*
X116020000Y-79620000D02*
X116220000Y-79620000D01*
X116520000Y-79620000D02*
X116520000Y-83470000D01*
X116720000Y-83470000D02*
X116720000Y-79620000D01*
X116520000Y-79620000D02*
X116720000Y-79620000D01*
X117020000Y-79620000D02*
X117020000Y-83470000D01*
X117220000Y-83470000D02*
X117220000Y-79620000D01*
X117020000Y-79620000D02*
X117220000Y-79620000D01*
X118720000Y-83470000D02*
X118720000Y-79620000D01*
X118520000Y-79620000D02*
X118520000Y-83470000D01*
X118520000Y-79620000D02*
X118720000Y-79620000D01*
X119020000Y-79620000D02*
X119020000Y-83470000D01*
X119220000Y-83470000D02*
X119220000Y-79620000D01*
X119020000Y-79620000D02*
X119220000Y-79620000D01*
X118220000Y-83470000D02*
X118220000Y-79620000D01*
X118020000Y-79620000D02*
X118020000Y-83470000D01*
X118020000Y-79620000D02*
X118220000Y-79620000D01*
X120020000Y-79620000D02*
X120020000Y-83470000D01*
X120220000Y-83470000D02*
X120220000Y-79620000D01*
X120020000Y-79620000D02*
X120220000Y-79620000D01*
X120520000Y-79620000D02*
X120520000Y-83470000D01*
X120720000Y-79620000D02*
X120720000Y-83470000D01*
X120520000Y-79620000D02*
X120720000Y-79620000D01*
X119520000Y-79620000D02*
X119520000Y-83470000D01*
X119720000Y-83470000D02*
X119720000Y-79620000D01*
X119520000Y-79620000D02*
X119720000Y-79620000D01*
X120520000Y-83020000D02*
X120720000Y-83020000D01*
X116520000Y-83020000D02*
X116720000Y-83020000D01*
X120020000Y-83020000D02*
X120220000Y-83020000D01*
X116020000Y-83020000D02*
X116220000Y-83020000D01*
X117020000Y-83020000D02*
X117220000Y-83020000D01*
X117520000Y-83020000D02*
X117720000Y-83020000D01*
X118020000Y-83020000D02*
X118220000Y-83020000D01*
X119020000Y-83020000D02*
X119220000Y-83020000D01*
X119520000Y-83020000D02*
X119720000Y-83020000D01*
X118520000Y-83020000D02*
X118720000Y-83020000D01*
X124070000Y-83570000D02*
X124270000Y-83570000D01*
X124070000Y-83270000D02*
X124270000Y-83270000D01*
X107470000Y-81020000D02*
X107670000Y-81020000D01*
X107470000Y-81320000D02*
X107670000Y-81320000D01*
X107470000Y-83270000D02*
X107670000Y-83270000D01*
X107470000Y-83570000D02*
X107670000Y-83570000D01*
X124070000Y-81320000D02*
X124270000Y-81320000D01*
X124070000Y-81020000D02*
X124270000Y-81020000D01*
X109652983Y-80620000D02*
G75*
G03X109652983Y-80620000I-532983J0D01*
G01*
X122307500Y-82090000D02*
X122082500Y-82090000D01*
X109657500Y-82090000D02*
X109432500Y-82090000D01*
X109432500Y-82490000D02*
X109657500Y-82490000D01*
X122082500Y-82490000D02*
X122307500Y-82490000D01*
X109432500Y-82732500D02*
X109432500Y-82040000D01*
X122307500Y-82040000D02*
X122307500Y-82732500D01*
X108314445Y-82040000D02*
X109657500Y-82040000D01*
X122082500Y-82040000D02*
X123425555Y-82040000D01*
X109657500Y-82040000D02*
X109657500Y-82540000D01*
X109432500Y-82540000D02*
X109657500Y-82540000D01*
X109870000Y-83170000D02*
X109432500Y-82732500D01*
X109870000Y-83320000D02*
X109870000Y-83170000D01*
X121870000Y-83170000D02*
X121870000Y-83320000D01*
X122307500Y-82732500D02*
X121870000Y-83170000D01*
X122082500Y-82540000D02*
X122307500Y-82540000D01*
X122082500Y-82040000D02*
X122082500Y-82540000D01*
X107470000Y-83670000D02*
X107470000Y-83170000D01*
X109780000Y-80620000D02*
G75*
G03X109780000Y-80620000I-660000J0D01*
G01*
X107670000Y-83670000D02*
X107670000Y-83170000D01*
X124270000Y-83170000D02*
X124070000Y-83170000D01*
X123620000Y-84320000D02*
X124720000Y-84320000D01*
X124070000Y-81420000D02*
X124070000Y-80920000D01*
X124270000Y-80920000D02*
X124070000Y-80920000D01*
X124070000Y-81420000D02*
X124270000Y-81420000D01*
X124070000Y-83670000D02*
X124070000Y-83170000D01*
X107670000Y-83170000D02*
X107470000Y-83170000D01*
X107470000Y-83670000D02*
X107670000Y-83670000D01*
X107470000Y-81420000D02*
X107470000Y-80920000D01*
X124070000Y-83670000D02*
X124270000Y-83670000D01*
X124270000Y-81420000D02*
X124270000Y-80920000D01*
X107670000Y-80920000D02*
X107470000Y-80920000D01*
X107470000Y-81420000D02*
X107670000Y-81420000D01*
X107670000Y-81420000D02*
X107670000Y-80920000D01*
X124270000Y-83670000D02*
X124270000Y-83170000D01*
X107020000Y-84320000D02*
X108120000Y-84320000D01*
X108578579Y-83170000D02*
X108578579Y-82040000D01*
X108720000Y-83170000D02*
X108720000Y-82040000D01*
X123020000Y-83170000D02*
X123020000Y-82040000D01*
X123170000Y-82040000D02*
X123170000Y-83170000D01*
X108314445Y-82920000D02*
X108314445Y-82040000D01*
X123425555Y-82040000D02*
X123425555Y-82920000D01*
X108270000Y-85520000D02*
X108495000Y-85520000D01*
X108270000Y-85320000D02*
X108495000Y-85320000D01*
X123470000Y-85520000D02*
X123245000Y-85520000D01*
X123470000Y-85320000D02*
X123245000Y-85320000D01*
X117720000Y-80620000D02*
X117520000Y-80620000D01*
X117220000Y-80620000D02*
X117020000Y-80620000D01*
X120720000Y-80620000D02*
X120520000Y-80620000D01*
X120220000Y-80620000D02*
X120020000Y-80620000D01*
X119720000Y-80620000D02*
X119520000Y-80620000D01*
X118720000Y-80620000D02*
X118520000Y-80620000D01*
X116720000Y-80620000D02*
X116520000Y-80620000D01*
X118220000Y-80620000D02*
X118020000Y-80620000D01*
X119220000Y-80620000D02*
X119020000Y-80620000D01*
X116220000Y-80620000D02*
X116020000Y-80620000D01*
X118020000Y-85470000D02*
X118020000Y-83570000D01*
X119520000Y-85470000D02*
X119520000Y-83570000D01*
X117520000Y-85470000D02*
X117520000Y-83570000D01*
X116720000Y-83570000D02*
X116720000Y-85470000D01*
X119020000Y-85470000D02*
X119020000Y-83570000D01*
X116520000Y-85470000D02*
X116520000Y-83570000D01*
X117020000Y-85470000D02*
X117020000Y-83570000D01*
X116220000Y-83570000D02*
X116220000Y-85470000D01*
X118520000Y-85470000D02*
X118520000Y-83570000D01*
X120220000Y-83570000D02*
X120220000Y-85470000D01*
X118220000Y-83570000D02*
X118220000Y-85470000D01*
X120520000Y-85470000D02*
X120520000Y-83570000D01*
X117220000Y-83570000D02*
X117220000Y-85470000D01*
X117720000Y-83570000D02*
X117720000Y-85470000D01*
X119720000Y-83570000D02*
X119720000Y-85470000D01*
X119220000Y-83570000D02*
X119220000Y-85470000D01*
X120020000Y-85470000D02*
X120020000Y-83570000D01*
X118720000Y-83570000D02*
X118720000Y-85470000D01*
X108520000Y-85520000D02*
X123245000Y-85520000D01*
X108520000Y-85520000D02*
X108520000Y-83170000D01*
X108770000Y-85520000D02*
X108770000Y-83170000D01*
X122970000Y-85520000D02*
X122970000Y-83170000D01*
X123220000Y-85520000D02*
X123220000Y-83170000D01*
X108495000Y-85520000D02*
X108495000Y-83170000D01*
X123245000Y-85520000D02*
X123245000Y-83170000D01*
X109813000Y-80620000D02*
X108427000Y-80620000D01*
X109120000Y-81313000D02*
X109120000Y-79927000D01*
X122620000Y-81313000D02*
X122620000Y-79927000D01*
X123223750Y-80620000D02*
X122016250Y-80620000D01*
X123245000Y-82920000D02*
X123245000Y-83170000D01*
X123470000Y-82920000D02*
X123470000Y-85520000D01*
X108495000Y-82920000D02*
X108495000Y-83170000D01*
X108270000Y-82920000D02*
X108270000Y-85520000D01*
X118220000Y-79920000D02*
X118520000Y-79920000D01*
X116720000Y-79920000D02*
X117020000Y-79920000D01*
X116220000Y-79920000D02*
X116520000Y-79920000D01*
X117720000Y-79920000D02*
X118020000Y-79920000D01*
X118720000Y-79920000D02*
X119020000Y-79920000D01*
X117220000Y-79920000D02*
X117520000Y-79920000D01*
X107170000Y-79920000D02*
X111020000Y-79920000D01*
X120720000Y-79920000D02*
X124570000Y-79920000D01*
X119720000Y-79920000D02*
X120020000Y-79920000D01*
X119220000Y-79920000D02*
X119520000Y-79920000D01*
X120220000Y-79920000D02*
X120520000Y-79920000D01*
X108120000Y-82920000D02*
X108120000Y-85370000D01*
X107020000Y-85370000D02*
X107020000Y-80070000D01*
X108520000Y-82920000D02*
X108120000Y-82920000D01*
X108120000Y-85370000D02*
X107970000Y-85520000D01*
X107970000Y-85520000D02*
X107170000Y-85520000D01*
X107170000Y-85520000D02*
X107020000Y-85370000D01*
X107020000Y-80070000D02*
X107170000Y-79920000D01*
X123620000Y-82920000D02*
X123220000Y-82920000D01*
X123770000Y-85520000D02*
X123620000Y-85370000D01*
X124570000Y-79920000D02*
X124720000Y-80070000D01*
X124720000Y-80070000D02*
X124720000Y-85370000D01*
X124720000Y-85370000D02*
X124570000Y-85520000D01*
X124570000Y-85520000D02*
X123770000Y-85520000D01*
X123620000Y-85370000D02*
X123620000Y-82920000D01*
X109920000Y-83170000D02*
X121820000Y-83170000D01*
X118020000Y-83570000D02*
X118020000Y-83470000D01*
X119520000Y-83570000D02*
X119520000Y-83470000D01*
X116720000Y-83570000D02*
X116520000Y-83570000D01*
X117520000Y-83570000D02*
X117520000Y-83470000D01*
X118720000Y-83570000D02*
X118520000Y-83570000D01*
X116720000Y-83470000D02*
X116720000Y-83570000D01*
X120720000Y-83570000D02*
X120520000Y-83570000D01*
X116220000Y-83570000D02*
X116020000Y-83570000D01*
X119020000Y-83570000D02*
X119020000Y-83470000D01*
X118220000Y-83570000D02*
X118020000Y-83570000D01*
X116520000Y-83570000D02*
X116520000Y-83470000D01*
X120220000Y-83570000D02*
X120020000Y-83570000D01*
X117720000Y-83570000D02*
X117520000Y-83570000D01*
X117020000Y-83570000D02*
X117020000Y-83470000D01*
X116220000Y-83470000D02*
X116220000Y-83570000D01*
X118520000Y-83570000D02*
X118520000Y-83470000D01*
X119720000Y-83570000D02*
X119520000Y-83570000D01*
X120220000Y-83470000D02*
X120220000Y-83570000D01*
X118220000Y-83470000D02*
X118220000Y-83570000D01*
X120520000Y-83570000D02*
X120520000Y-83470000D01*
X117220000Y-83570000D02*
X117020000Y-83570000D01*
X120720000Y-83470000D02*
X120720000Y-83570000D01*
X116020000Y-83570000D02*
X116020000Y-83470000D01*
X117220000Y-83470000D02*
X117220000Y-83570000D01*
X117720000Y-83470000D02*
X117720000Y-83570000D01*
X118720000Y-83470000D02*
X118720000Y-83570000D01*
X119220000Y-83570000D02*
X119020000Y-83570000D01*
X119220000Y-83470000D02*
X119220000Y-83570000D01*
X119720000Y-83470000D02*
X119720000Y-83570000D01*
X120020000Y-83570000D02*
X120020000Y-83470000D01*
X121720000Y-79920000D02*
X121720000Y-83170000D01*
X110020000Y-79920000D02*
X110020000Y-83170000D01*
X120920000Y-83670000D02*
X110620000Y-83670000D01*
X108520000Y-83170000D02*
X108520000Y-79920000D01*
X108770000Y-83170000D02*
X108770000Y-79920000D01*
X122970000Y-83170000D02*
X122970000Y-79920000D01*
X123220000Y-83170000D02*
X123220000Y-79920000D01*
X108270000Y-83170000D02*
X109720000Y-83170000D01*
X122020000Y-83170000D02*
X123470000Y-83170000D01*
X122020000Y-83170000D02*
X121870000Y-83320000D01*
X123020000Y-85520000D02*
X123020000Y-83170000D01*
X108720000Y-85520000D02*
X108720000Y-83170000D01*
X109870000Y-83320000D02*
X109720000Y-83170000D01*
X109870000Y-84480000D02*
X109870000Y-83320000D01*
X110670000Y-84480000D02*
X109870000Y-84480000D01*
X110670000Y-83820000D02*
X110670000Y-84480000D01*
X110820000Y-83670000D02*
X110670000Y-83820000D01*
X121070000Y-83820000D02*
X120920000Y-83670000D01*
X121070000Y-84480000D02*
X121070000Y-83820000D01*
X121870000Y-84480000D02*
X121070000Y-84480000D01*
X118020000Y-83250000D02*
X118220000Y-83250000D01*
X116520000Y-83250000D02*
X116720000Y-83250000D01*
X119020000Y-83250000D02*
X119220000Y-83250000D01*
X118520000Y-83250000D02*
X118720000Y-83250000D01*
X117520000Y-83250000D02*
X117720000Y-83250000D01*
X120020000Y-83250000D02*
X120220000Y-83250000D01*
X119520000Y-83250000D02*
X119720000Y-83250000D01*
X120520000Y-83250000D02*
X120720000Y-83250000D01*
X116020000Y-83250000D02*
X116220000Y-83250000D01*
X117020000Y-83250000D02*
X117220000Y-83250000D01*
X116520000Y-82500000D02*
X116720000Y-82500000D01*
X116020000Y-82500000D02*
X116220000Y-82500000D01*
X119520000Y-82500000D02*
X119720000Y-82500000D01*
X119020000Y-82500000D02*
X119220000Y-82500000D01*
X120020000Y-82500000D02*
X120220000Y-82500000D01*
X118520000Y-82500000D02*
X118720000Y-82500000D01*
X118020000Y-82500000D02*
X118220000Y-82500000D01*
X117020000Y-82500000D02*
X117220000Y-82500000D01*
X120520000Y-82500000D02*
X120720000Y-82500000D01*
X117520000Y-82500000D02*
X117720000Y-82500000D01*
X119520000Y-80370000D02*
X119720000Y-80370000D01*
X116020000Y-80370000D02*
X116220000Y-80370000D01*
X118520000Y-80370000D02*
X118720000Y-80370000D01*
X119020000Y-80370000D02*
X119220000Y-80370000D01*
X118020000Y-80370000D02*
X118220000Y-80370000D01*
X117520000Y-80370000D02*
X117720000Y-80370000D01*
X120020000Y-80370000D02*
X120220000Y-80370000D01*
X120520000Y-80370000D02*
X120720000Y-80370000D01*
X116520000Y-80370000D02*
X116720000Y-80370000D01*
X117020000Y-80370000D02*
X117220000Y-80370000D01*
X121870000Y-83320000D02*
X121870000Y-84480000D01*
X109920000Y-84320000D02*
X109920000Y-83170000D01*
X110620000Y-84320000D02*
X110470000Y-84470000D01*
X110070000Y-84470000D02*
X109920000Y-84320000D01*
X110620000Y-83170000D02*
X110620000Y-84320000D01*
X110470000Y-84470000D02*
X110070000Y-84470000D01*
X121270000Y-84470000D02*
X121120000Y-84320000D01*
X121820000Y-84320000D02*
X121670000Y-84470000D01*
X121820000Y-83170000D02*
X121820000Y-84320000D01*
X121670000Y-84470000D02*
X121270000Y-84470000D01*
X121120000Y-84320000D02*
X121120000Y-83170000D01*
X123152983Y-80620000D02*
G75*
G03X123152983Y-80620000I-532983J0D01*
G01*
X123280000Y-80620000D02*
G75*
G03X123280000Y-80620000I-660000J0D01*
G01*
X113020000Y-83020000D02*
X113220000Y-83020000D01*
X112020000Y-83020000D02*
X112220000Y-83020000D01*
X111020000Y-83020000D02*
X111220000Y-83020000D01*
X111520000Y-83020000D02*
X111720000Y-83020000D01*
X112520000Y-83020000D02*
X112720000Y-83020000D01*
X111020000Y-83470000D02*
X120720000Y-83470000D01*
X113520000Y-83020000D02*
X113720000Y-83020000D01*
X114020000Y-83020000D02*
X114220000Y-83020000D01*
X114520000Y-83020000D02*
X114720000Y-83020000D01*
X115020000Y-83020000D02*
X115220000Y-83020000D01*
X115720000Y-79620000D02*
X115720000Y-83470000D01*
X115520000Y-79620000D02*
X115520000Y-83470000D01*
X115720000Y-83570000D02*
X115720000Y-85520000D01*
X114020000Y-79620000D02*
X114020000Y-83470000D01*
X113520000Y-79620000D02*
X113520000Y-83470000D01*
X113520000Y-79620000D02*
X113720000Y-79620000D01*
X112220000Y-83470000D02*
X112220000Y-79620000D01*
X111520000Y-79620000D02*
X111720000Y-79620000D01*
X111020000Y-79620000D02*
X111220000Y-79620000D01*
X111220000Y-83470000D02*
X111220000Y-79620000D01*
X111020000Y-85470000D02*
X115720000Y-85470000D01*
X114520000Y-79620000D02*
X114720000Y-79620000D01*
X111520000Y-79620000D02*
X111520000Y-83470000D01*
X114720000Y-83470000D02*
X114720000Y-79620000D01*
X113020000Y-79620000D02*
X113020000Y-83470000D01*
X114020000Y-79620000D02*
X114220000Y-79620000D01*
X114220000Y-83470000D02*
X114220000Y-79620000D01*
X112520000Y-79620000D02*
X112720000Y-79620000D01*
X115020000Y-79620000D02*
X115220000Y-79620000D01*
X112520000Y-79620000D02*
X112520000Y-83470000D01*
X115020000Y-79620000D02*
X115020000Y-83470000D01*
X113720000Y-83470000D02*
X113720000Y-79620000D01*
X112020000Y-79620000D02*
X112220000Y-79620000D01*
X111020000Y-79620000D02*
X111020000Y-83470000D01*
X115520000Y-83020000D02*
X115720000Y-83020000D01*
X113020000Y-79620000D02*
X113220000Y-79620000D01*
X114520000Y-79620000D02*
X114520000Y-83470000D01*
X115520000Y-79620000D02*
X115720000Y-79620000D01*
X115220000Y-83470000D02*
X115220000Y-79620000D01*
X112020000Y-79620000D02*
X112020000Y-83470000D01*
X111720000Y-83470000D02*
X111720000Y-79620000D01*
X113220000Y-83470000D02*
X113220000Y-79620000D01*
X112720000Y-83470000D02*
X112720000Y-79620000D01*
X111020000Y-83570000D02*
X111020000Y-85520000D01*
X113720000Y-80620000D02*
X113520000Y-80620000D01*
X112720000Y-83570000D02*
X112720000Y-85470000D01*
X111720000Y-83570000D02*
X111720000Y-85470000D01*
X112720000Y-80620000D02*
X112520000Y-80620000D01*
X113720000Y-83570000D02*
X113720000Y-85470000D01*
X114220000Y-80620000D02*
X114020000Y-80620000D01*
X113220000Y-83570000D02*
X113220000Y-85470000D01*
X115220000Y-83570000D02*
X115220000Y-85470000D01*
X113520000Y-85470000D02*
X113520000Y-83570000D01*
X113220000Y-80620000D02*
X113020000Y-80620000D01*
X114720000Y-80620000D02*
X114520000Y-80620000D01*
X115720000Y-80620000D02*
X115520000Y-80620000D01*
X112220000Y-83570000D02*
X112220000Y-85470000D01*
X114220000Y-83570000D02*
X114220000Y-85470000D01*
X111520000Y-85470000D02*
X111520000Y-83570000D01*
X115520000Y-85470000D02*
X115520000Y-83570000D01*
X114720000Y-83570000D02*
X114720000Y-85470000D01*
X112520000Y-85470000D02*
X112520000Y-83570000D01*
X114520000Y-85470000D02*
X114520000Y-83570000D01*
X115220000Y-80620000D02*
X115020000Y-80620000D01*
X112220000Y-80620000D02*
X112020000Y-80620000D01*
X111220000Y-80620000D02*
X111020000Y-80620000D01*
X111720000Y-80620000D02*
X111520000Y-80620000D01*
X112020000Y-85470000D02*
X112020000Y-83570000D01*
X113020000Y-85470000D02*
X113020000Y-83570000D01*
X115020000Y-85470000D02*
X115020000Y-83570000D01*
X111220000Y-83570000D02*
X111220000Y-85470000D01*
X114020000Y-85470000D02*
X114020000Y-83570000D01*
X112020000Y-82500000D02*
X112220000Y-82500000D01*
X114220000Y-83470000D02*
X114220000Y-83570000D01*
X113020000Y-82500000D02*
X113220000Y-82500000D01*
X114020000Y-82500000D02*
X114220000Y-82500000D01*
X114020000Y-83250000D02*
X114220000Y-83250000D01*
X111520000Y-83250000D02*
X111720000Y-83250000D01*
X113020000Y-83250000D02*
X113220000Y-83250000D01*
X111020000Y-82500000D02*
X111220000Y-82500000D01*
X111020000Y-83250000D02*
X111220000Y-83250000D01*
X114520000Y-83250000D02*
X114720000Y-83250000D01*
X112220000Y-83470000D02*
X112220000Y-83570000D01*
X112720000Y-83470000D02*
X112720000Y-83570000D01*
X112020000Y-83250000D02*
X112220000Y-83250000D01*
X111520000Y-80370000D02*
X111720000Y-80370000D01*
X113520000Y-80370000D02*
X113720000Y-80370000D01*
X114520000Y-80370000D02*
X114720000Y-80370000D01*
X112520000Y-82500000D02*
X112720000Y-82500000D01*
X115020000Y-83250000D02*
X115220000Y-83250000D01*
X113020000Y-80370000D02*
X113220000Y-80370000D01*
X113520000Y-83250000D02*
X113720000Y-83250000D01*
X114720000Y-83470000D02*
X114720000Y-83570000D01*
X113520000Y-82500000D02*
X113720000Y-82500000D01*
X115020000Y-82500000D02*
X115220000Y-82500000D01*
X115520000Y-83250000D02*
X115720000Y-83250000D01*
X115020000Y-80370000D02*
X115220000Y-80370000D01*
X114220000Y-83570000D02*
X114020000Y-83570000D01*
X113720000Y-83470000D02*
X113720000Y-83570000D01*
X114020000Y-80370000D02*
X114220000Y-80370000D01*
X112020000Y-80370000D02*
X112220000Y-80370000D01*
X112520000Y-80370000D02*
X112720000Y-80370000D01*
X114520000Y-82500000D02*
X114720000Y-82500000D01*
X111520000Y-82500000D02*
X111720000Y-82500000D01*
X115020000Y-83570000D02*
X115020000Y-83470000D01*
X111020000Y-80370000D02*
X111220000Y-80370000D01*
X112520000Y-83250000D02*
X112720000Y-83250000D01*
X115520000Y-80370000D02*
X115720000Y-80370000D01*
X115520000Y-82500000D02*
X115720000Y-82500000D01*
X113220000Y-83570000D02*
X113020000Y-83570000D01*
X111720000Y-83470000D02*
X111720000Y-83570000D01*
X114220000Y-79920000D02*
X114520000Y-79920000D01*
X113020000Y-83570000D02*
X113020000Y-83470000D01*
X113720000Y-79920000D02*
X114020000Y-79920000D01*
X112520000Y-83570000D02*
X112520000Y-83470000D01*
X114720000Y-83570000D02*
X114520000Y-83570000D01*
X113220000Y-79920000D02*
X113520000Y-79920000D01*
X115220000Y-83470000D02*
X115220000Y-83570000D01*
X113520000Y-83570000D02*
X113520000Y-83470000D01*
X111220000Y-83470000D02*
X111220000Y-83570000D01*
X111220000Y-83570000D02*
X111020000Y-83570000D01*
X111720000Y-79920000D02*
X112020000Y-79920000D01*
X112020000Y-83570000D02*
X112020000Y-83470000D01*
X115720000Y-83570000D02*
X115520000Y-83570000D01*
X114720000Y-79920000D02*
X115020000Y-79920000D01*
X115720000Y-83470000D02*
X115720000Y-83570000D01*
X113720000Y-83570000D02*
X113520000Y-83570000D01*
X111720000Y-83570000D02*
X111520000Y-83570000D01*
X112220000Y-83570000D02*
X112020000Y-83570000D01*
X113220000Y-83470000D02*
X113220000Y-83570000D01*
X114520000Y-83570000D02*
X114520000Y-83470000D01*
X112720000Y-83570000D02*
X112520000Y-83570000D01*
X111220000Y-79920000D02*
X111520000Y-79920000D01*
X112720000Y-79920000D02*
X113020000Y-79920000D01*
X112220000Y-79920000D02*
X112520000Y-79920000D01*
X115220000Y-83570000D02*
X115020000Y-83570000D01*
X115220000Y-79920000D02*
X115520000Y-79920000D01*
X111020000Y-83570000D02*
X111020000Y-83470000D01*
X115520000Y-83570000D02*
X115520000Y-83470000D01*
X111520000Y-83570000D02*
X111520000Y-83470000D01*
X114020000Y-83570000D02*
X114020000Y-83470000D01*
X115720000Y-79920000D02*
X116020000Y-79920000D01*
M02*
