G04 #@! TF.GenerationSoftware,KiCad,Pcbnew,(5.1.5)-3*
G04 #@! TF.CreationDate,2020-02-28T15:02:10-07:00*
G04 #@! TF.ProjectId,Straightener01,53747261-6967-4687-9465-6e657230312e,rev?*
G04 #@! TF.SameCoordinates,Original*
G04 #@! TF.FileFunction,Paste,Bot*
G04 #@! TF.FilePolarity,Positive*
%FSLAX46Y46*%
G04 Gerber Fmt 4.6, Leading zero omitted, Abs format (unit mm)*
G04 Created by KiCad (PCBNEW (5.1.5)-3) date 2020-02-28 15:02:10*
%MOMM*%
%LPD*%
G04 APERTURE LIST*
%ADD10C,0.100000*%
%ADD11R,4.720000X1.670000*%
G04 APERTURE END LIST*
D10*
G36*
X111074504Y-100001204D02*
G01*
X111098773Y-100004804D01*
X111122571Y-100010765D01*
X111145671Y-100019030D01*
X111167849Y-100029520D01*
X111188893Y-100042133D01*
X111208598Y-100056747D01*
X111226777Y-100073223D01*
X111243253Y-100091402D01*
X111257867Y-100111107D01*
X111270480Y-100132151D01*
X111280970Y-100154329D01*
X111289235Y-100177429D01*
X111295196Y-100201227D01*
X111298796Y-100225496D01*
X111300000Y-100250000D01*
X111300000Y-101350000D01*
X111298796Y-101374504D01*
X111295196Y-101398773D01*
X111289235Y-101422571D01*
X111280970Y-101445671D01*
X111270480Y-101467849D01*
X111257867Y-101488893D01*
X111243253Y-101508598D01*
X111226777Y-101526777D01*
X111208598Y-101543253D01*
X111188893Y-101557867D01*
X111167849Y-101570480D01*
X111145671Y-101580970D01*
X111122571Y-101589235D01*
X111098773Y-101595196D01*
X111074504Y-101598796D01*
X111050000Y-101600000D01*
X108550000Y-101600000D01*
X108525496Y-101598796D01*
X108501227Y-101595196D01*
X108477429Y-101589235D01*
X108454329Y-101580970D01*
X108432151Y-101570480D01*
X108411107Y-101557867D01*
X108391402Y-101543253D01*
X108373223Y-101526777D01*
X108356747Y-101508598D01*
X108342133Y-101488893D01*
X108329520Y-101467849D01*
X108319030Y-101445671D01*
X108310765Y-101422571D01*
X108304804Y-101398773D01*
X108301204Y-101374504D01*
X108300000Y-101350000D01*
X108300000Y-100250000D01*
X108301204Y-100225496D01*
X108304804Y-100201227D01*
X108310765Y-100177429D01*
X108319030Y-100154329D01*
X108329520Y-100132151D01*
X108342133Y-100111107D01*
X108356747Y-100091402D01*
X108373223Y-100073223D01*
X108391402Y-100056747D01*
X108411107Y-100042133D01*
X108432151Y-100029520D01*
X108454329Y-100019030D01*
X108477429Y-100010765D01*
X108501227Y-100004804D01*
X108525496Y-100001204D01*
X108550000Y-100000000D01*
X111050000Y-100000000D01*
X111074504Y-100001204D01*
G37*
G36*
X106674504Y-100001204D02*
G01*
X106698773Y-100004804D01*
X106722571Y-100010765D01*
X106745671Y-100019030D01*
X106767849Y-100029520D01*
X106788893Y-100042133D01*
X106808598Y-100056747D01*
X106826777Y-100073223D01*
X106843253Y-100091402D01*
X106857867Y-100111107D01*
X106870480Y-100132151D01*
X106880970Y-100154329D01*
X106889235Y-100177429D01*
X106895196Y-100201227D01*
X106898796Y-100225496D01*
X106900000Y-100250000D01*
X106900000Y-101350000D01*
X106898796Y-101374504D01*
X106895196Y-101398773D01*
X106889235Y-101422571D01*
X106880970Y-101445671D01*
X106870480Y-101467849D01*
X106857867Y-101488893D01*
X106843253Y-101508598D01*
X106826777Y-101526777D01*
X106808598Y-101543253D01*
X106788893Y-101557867D01*
X106767849Y-101570480D01*
X106745671Y-101580970D01*
X106722571Y-101589235D01*
X106698773Y-101595196D01*
X106674504Y-101598796D01*
X106650000Y-101600000D01*
X104150000Y-101600000D01*
X104125496Y-101598796D01*
X104101227Y-101595196D01*
X104077429Y-101589235D01*
X104054329Y-101580970D01*
X104032151Y-101570480D01*
X104011107Y-101557867D01*
X103991402Y-101543253D01*
X103973223Y-101526777D01*
X103956747Y-101508598D01*
X103942133Y-101488893D01*
X103929520Y-101467849D01*
X103919030Y-101445671D01*
X103910765Y-101422571D01*
X103904804Y-101398773D01*
X103901204Y-101374504D01*
X103900000Y-101350000D01*
X103900000Y-100250000D01*
X103901204Y-100225496D01*
X103904804Y-100201227D01*
X103910765Y-100177429D01*
X103919030Y-100154329D01*
X103929520Y-100132151D01*
X103942133Y-100111107D01*
X103956747Y-100091402D01*
X103973223Y-100073223D01*
X103991402Y-100056747D01*
X104011107Y-100042133D01*
X104032151Y-100029520D01*
X104054329Y-100019030D01*
X104077429Y-100010765D01*
X104101227Y-100004804D01*
X104125496Y-100001204D01*
X104150000Y-100000000D01*
X106650000Y-100000000D01*
X106674504Y-100001204D01*
G37*
G36*
X127474504Y-104026204D02*
G01*
X127498773Y-104029804D01*
X127522571Y-104035765D01*
X127545671Y-104044030D01*
X127567849Y-104054520D01*
X127588893Y-104067133D01*
X127608598Y-104081747D01*
X127626777Y-104098223D01*
X127643253Y-104116402D01*
X127657867Y-104136107D01*
X127670480Y-104157151D01*
X127680970Y-104179329D01*
X127689235Y-104202429D01*
X127695196Y-104226227D01*
X127698796Y-104250496D01*
X127700000Y-104275000D01*
X127700000Y-105525000D01*
X127698796Y-105549504D01*
X127695196Y-105573773D01*
X127689235Y-105597571D01*
X127680970Y-105620671D01*
X127670480Y-105642849D01*
X127657867Y-105663893D01*
X127643253Y-105683598D01*
X127626777Y-105701777D01*
X127608598Y-105718253D01*
X127588893Y-105732867D01*
X127567849Y-105745480D01*
X127545671Y-105755970D01*
X127522571Y-105764235D01*
X127498773Y-105770196D01*
X127474504Y-105773796D01*
X127450000Y-105775000D01*
X126525000Y-105775000D01*
X126500496Y-105773796D01*
X126476227Y-105770196D01*
X126452429Y-105764235D01*
X126429329Y-105755970D01*
X126407151Y-105745480D01*
X126386107Y-105732867D01*
X126366402Y-105718253D01*
X126348223Y-105701777D01*
X126331747Y-105683598D01*
X126317133Y-105663893D01*
X126304520Y-105642849D01*
X126294030Y-105620671D01*
X126285765Y-105597571D01*
X126279804Y-105573773D01*
X126276204Y-105549504D01*
X126275000Y-105525000D01*
X126275000Y-104275000D01*
X126276204Y-104250496D01*
X126279804Y-104226227D01*
X126285765Y-104202429D01*
X126294030Y-104179329D01*
X126304520Y-104157151D01*
X126317133Y-104136107D01*
X126331747Y-104116402D01*
X126348223Y-104098223D01*
X126366402Y-104081747D01*
X126386107Y-104067133D01*
X126407151Y-104054520D01*
X126429329Y-104044030D01*
X126452429Y-104035765D01*
X126476227Y-104029804D01*
X126500496Y-104026204D01*
X126525000Y-104025000D01*
X127450000Y-104025000D01*
X127474504Y-104026204D01*
G37*
G36*
X124499504Y-104026204D02*
G01*
X124523773Y-104029804D01*
X124547571Y-104035765D01*
X124570671Y-104044030D01*
X124592849Y-104054520D01*
X124613893Y-104067133D01*
X124633598Y-104081747D01*
X124651777Y-104098223D01*
X124668253Y-104116402D01*
X124682867Y-104136107D01*
X124695480Y-104157151D01*
X124705970Y-104179329D01*
X124714235Y-104202429D01*
X124720196Y-104226227D01*
X124723796Y-104250496D01*
X124725000Y-104275000D01*
X124725000Y-105525000D01*
X124723796Y-105549504D01*
X124720196Y-105573773D01*
X124714235Y-105597571D01*
X124705970Y-105620671D01*
X124695480Y-105642849D01*
X124682867Y-105663893D01*
X124668253Y-105683598D01*
X124651777Y-105701777D01*
X124633598Y-105718253D01*
X124613893Y-105732867D01*
X124592849Y-105745480D01*
X124570671Y-105755970D01*
X124547571Y-105764235D01*
X124523773Y-105770196D01*
X124499504Y-105773796D01*
X124475000Y-105775000D01*
X123550000Y-105775000D01*
X123525496Y-105773796D01*
X123501227Y-105770196D01*
X123477429Y-105764235D01*
X123454329Y-105755970D01*
X123432151Y-105745480D01*
X123411107Y-105732867D01*
X123391402Y-105718253D01*
X123373223Y-105701777D01*
X123356747Y-105683598D01*
X123342133Y-105663893D01*
X123329520Y-105642849D01*
X123319030Y-105620671D01*
X123310765Y-105597571D01*
X123304804Y-105573773D01*
X123301204Y-105549504D01*
X123300000Y-105525000D01*
X123300000Y-104275000D01*
X123301204Y-104250496D01*
X123304804Y-104226227D01*
X123310765Y-104202429D01*
X123319030Y-104179329D01*
X123329520Y-104157151D01*
X123342133Y-104136107D01*
X123356747Y-104116402D01*
X123373223Y-104098223D01*
X123391402Y-104081747D01*
X123411107Y-104067133D01*
X123432151Y-104054520D01*
X123454329Y-104044030D01*
X123477429Y-104035765D01*
X123501227Y-104029804D01*
X123525496Y-104026204D01*
X123550000Y-104025000D01*
X124475000Y-104025000D01*
X124499504Y-104026204D01*
G37*
D11*
X104900000Y-105275000D03*
X104900000Y-96325000D03*
X150100000Y-105275000D03*
X150100000Y-96325000D03*
M02*
