G04 #@! TF.GenerationSoftware,KiCad,Pcbnew,(5.1.5)-3*
G04 #@! TF.CreationDate,2020-02-28T15:02:10-07:00*
G04 #@! TF.ProjectId,Straightener01,53747261-6967-4687-9465-6e657230312e,rev?*
G04 #@! TF.SameCoordinates,Original*
G04 #@! TF.FileFunction,Legend,Bot*
G04 #@! TF.FilePolarity,Positive*
%FSLAX46Y46*%
G04 Gerber Fmt 4.6, Leading zero omitted, Abs format (unit mm)*
G04 Created by KiCad (PCBNEW (5.1.5)-3) date 2020-02-28 15:02:10*
%MOMM*%
%LPD*%
G04 APERTURE LIST*
%ADD10C,0.120000*%
%ADD11C,0.150000*%
%ADD12C,0.112500*%
G04 APERTURE END LIST*
D10*
X104287500Y-102797500D02*
X104287500Y-102172500D01*
X103975000Y-102485000D02*
X104600000Y-102485000D01*
X104840000Y-99104437D02*
X105904437Y-98040000D01*
X104840000Y-102495563D02*
X105904437Y-103560000D01*
X104840000Y-102495563D02*
X104840000Y-101860000D01*
X104840000Y-99104437D02*
X104840000Y-99740000D01*
X105904437Y-98040000D02*
X110360000Y-98040000D01*
X105904437Y-103560000D02*
X110360000Y-103560000D01*
X110360000Y-103560000D02*
X110360000Y-101860000D01*
X110360000Y-98040000D02*
X110360000Y-99740000D01*
X126102064Y-103990000D02*
X124897936Y-103990000D01*
X126102064Y-105810000D02*
X124897936Y-105810000D01*
D11*
X107766666Y-105507142D02*
X107814285Y-105554761D01*
X107957142Y-105602380D01*
X108052380Y-105602380D01*
X108195238Y-105554761D01*
X108290476Y-105459523D01*
X108338095Y-105364285D01*
X108385714Y-105173809D01*
X108385714Y-105030952D01*
X108338095Y-104840476D01*
X108290476Y-104745238D01*
X108195238Y-104650000D01*
X108052380Y-104602380D01*
X107957142Y-104602380D01*
X107814285Y-104650000D01*
X107766666Y-104697619D01*
X106814285Y-105602380D02*
X107385714Y-105602380D01*
X107100000Y-105602380D02*
X107100000Y-104602380D01*
X107195238Y-104745238D01*
X107290476Y-104840476D01*
X107385714Y-104888095D01*
D12*
X125625000Y-103667857D02*
X125660714Y-103703571D01*
X125767857Y-103739285D01*
X125839285Y-103739285D01*
X125946428Y-103703571D01*
X126017857Y-103632142D01*
X126053571Y-103560714D01*
X126089285Y-103417857D01*
X126089285Y-103310714D01*
X126053571Y-103167857D01*
X126017857Y-103096428D01*
X125946428Y-103025000D01*
X125839285Y-102989285D01*
X125767857Y-102989285D01*
X125660714Y-103025000D01*
X125625000Y-103060714D01*
X125339285Y-103060714D02*
X125303571Y-103025000D01*
X125232142Y-102989285D01*
X125053571Y-102989285D01*
X124982142Y-103025000D01*
X124946428Y-103060714D01*
X124910714Y-103132142D01*
X124910714Y-103203571D01*
X124946428Y-103310714D01*
X125375000Y-103739285D01*
X124910714Y-103739285D01*
M02*
