G04 #@! TF.GenerationSoftware,KiCad,Pcbnew,(5.1.5)-3*
G04 #@! TF.CreationDate,2020-02-28T15:02:10-07:00*
G04 #@! TF.ProjectId,Straightener01,53747261-6967-4687-9465-6e657230312e,rev?*
G04 #@! TF.SameCoordinates,Original*
G04 #@! TF.FileFunction,Legend,Top*
G04 #@! TF.FilePolarity,Positive*
%FSLAX46Y46*%
G04 Gerber Fmt 4.6, Leading zero omitted, Abs format (unit mm)*
G04 Created by KiCad (PCBNEW (5.1.5)-3) date 2020-02-28 15:02:10*
%MOMM*%
%LPD*%
G04 APERTURE LIST*
%ADD10C,0.075000*%
%ADD11C,0.120000*%
%ADD12C,0.112500*%
G04 APERTURE END LIST*
D10*
X148788095Y-93964285D02*
X148621428Y-93964285D01*
X148621428Y-94226190D02*
X148621428Y-93726190D01*
X148859523Y-93726190D01*
X149240476Y-94202380D02*
X149192857Y-94226190D01*
X149097619Y-94226190D01*
X149050000Y-94202380D01*
X149026190Y-94154761D01*
X149026190Y-93964285D01*
X149050000Y-93916666D01*
X149097619Y-93892857D01*
X149192857Y-93892857D01*
X149240476Y-93916666D01*
X149264285Y-93964285D01*
X149264285Y-94011904D01*
X149026190Y-94059523D01*
X149478571Y-94226190D02*
X149478571Y-93726190D01*
X149478571Y-93916666D02*
X149526190Y-93892857D01*
X149621428Y-93892857D01*
X149669047Y-93916666D01*
X149692857Y-93940476D01*
X149716666Y-93988095D01*
X149716666Y-94130952D01*
X149692857Y-94178571D01*
X149669047Y-94202380D01*
X149621428Y-94226190D01*
X149526190Y-94226190D01*
X149478571Y-94202380D01*
X150288095Y-93773809D02*
X150311904Y-93750000D01*
X150359523Y-93726190D01*
X150478571Y-93726190D01*
X150526190Y-93750000D01*
X150550000Y-93773809D01*
X150573809Y-93821428D01*
X150573809Y-93869047D01*
X150550000Y-93940476D01*
X150264285Y-94226190D01*
X150573809Y-94226190D01*
X150883333Y-93726190D02*
X150930952Y-93726190D01*
X150978571Y-93750000D01*
X151002380Y-93773809D01*
X151026190Y-93821428D01*
X151050000Y-93916666D01*
X151050000Y-94035714D01*
X151026190Y-94130952D01*
X151002380Y-94178571D01*
X150978571Y-94202380D01*
X150930952Y-94226190D01*
X150883333Y-94226190D01*
X150835714Y-94202380D01*
X150811904Y-94178571D01*
X150788095Y-94130952D01*
X150764285Y-94035714D01*
X150764285Y-93916666D01*
X150788095Y-93821428D01*
X150811904Y-93773809D01*
X150835714Y-93750000D01*
X150883333Y-93726190D01*
X151240476Y-93773809D02*
X151264285Y-93750000D01*
X151311904Y-93726190D01*
X151430952Y-93726190D01*
X151478571Y-93750000D01*
X151502380Y-93773809D01*
X151526190Y-93821428D01*
X151526190Y-93869047D01*
X151502380Y-93940476D01*
X151216666Y-94226190D01*
X151526190Y-94226190D01*
X151835714Y-93726190D02*
X151883333Y-93726190D01*
X151930952Y-93750000D01*
X151954761Y-93773809D01*
X151978571Y-93821428D01*
X152002380Y-93916666D01*
X152002380Y-94035714D01*
X151978571Y-94130952D01*
X151954761Y-94178571D01*
X151930952Y-94202380D01*
X151883333Y-94226190D01*
X151835714Y-94226190D01*
X151788095Y-94202380D01*
X151764285Y-94178571D01*
X151740476Y-94130952D01*
X151716666Y-94035714D01*
X151716666Y-93916666D01*
X151740476Y-93821428D01*
X151764285Y-93773809D01*
X151788095Y-93750000D01*
X151835714Y-93726190D01*
D11*
X133397936Y-101900000D02*
X134602064Y-101900000D01*
X133397936Y-100080000D02*
X134602064Y-100080000D01*
X138510000Y-103602064D02*
X138510000Y-102397936D01*
X136690000Y-103602064D02*
X136690000Y-102397936D01*
X111528733Y-109310000D02*
X111871267Y-109310000D01*
X111528733Y-108290000D02*
X111871267Y-108290000D01*
X130310000Y-103828733D02*
X130310000Y-104171267D01*
X129290000Y-103828733D02*
X129290000Y-104171267D01*
X131888733Y-107310000D02*
X132231267Y-107310000D01*
X131888733Y-106290000D02*
X132231267Y-106290000D01*
X138990000Y-103171267D02*
X138990000Y-102828733D01*
X140010000Y-103171267D02*
X140010000Y-102828733D01*
X135671267Y-106290000D02*
X135328733Y-106290000D01*
X135671267Y-107310000D02*
X135328733Y-107310000D01*
X133981267Y-108910000D02*
X133638733Y-108910000D01*
X133981267Y-107890000D02*
X133638733Y-107890000D01*
D12*
X133875000Y-99667857D02*
X133839285Y-99703571D01*
X133732142Y-99739285D01*
X133660714Y-99739285D01*
X133553571Y-99703571D01*
X133482142Y-99632142D01*
X133446428Y-99560714D01*
X133410714Y-99417857D01*
X133410714Y-99310714D01*
X133446428Y-99167857D01*
X133482142Y-99096428D01*
X133553571Y-99025000D01*
X133660714Y-98989285D01*
X133732142Y-98989285D01*
X133839285Y-99025000D01*
X133875000Y-99060714D01*
X134517857Y-99239285D02*
X134517857Y-99739285D01*
X134339285Y-98953571D02*
X134160714Y-99489285D01*
X134625000Y-99489285D01*
X137475000Y-100367857D02*
X137439285Y-100403571D01*
X137332142Y-100439285D01*
X137260714Y-100439285D01*
X137153571Y-100403571D01*
X137082142Y-100332142D01*
X137046428Y-100260714D01*
X137010714Y-100117857D01*
X137010714Y-100010714D01*
X137046428Y-99867857D01*
X137082142Y-99796428D01*
X137153571Y-99725000D01*
X137260714Y-99689285D01*
X137332142Y-99689285D01*
X137439285Y-99725000D01*
X137475000Y-99760714D01*
X137725000Y-99689285D02*
X138189285Y-99689285D01*
X137939285Y-99975000D01*
X138046428Y-99975000D01*
X138117857Y-100010714D01*
X138153571Y-100046428D01*
X138189285Y-100117857D01*
X138189285Y-100296428D01*
X138153571Y-100367857D01*
X138117857Y-100403571D01*
X138046428Y-100439285D01*
X137832142Y-100439285D01*
X137760714Y-100403571D01*
X137725000Y-100367857D01*
X111575000Y-108039285D02*
X111325000Y-107682142D01*
X111146428Y-108039285D02*
X111146428Y-107289285D01*
X111432142Y-107289285D01*
X111503571Y-107325000D01*
X111539285Y-107360714D01*
X111575000Y-107432142D01*
X111575000Y-107539285D01*
X111539285Y-107610714D01*
X111503571Y-107646428D01*
X111432142Y-107682142D01*
X111146428Y-107682142D01*
X112289285Y-108039285D02*
X111860714Y-108039285D01*
X112075000Y-108039285D02*
X112075000Y-107289285D01*
X112003571Y-107396428D01*
X111932142Y-107467857D01*
X111860714Y-107503571D01*
X129675000Y-102239285D02*
X129425000Y-101882142D01*
X129246428Y-102239285D02*
X129246428Y-101489285D01*
X129532142Y-101489285D01*
X129603571Y-101525000D01*
X129639285Y-101560714D01*
X129675000Y-101632142D01*
X129675000Y-101739285D01*
X129639285Y-101810714D01*
X129603571Y-101846428D01*
X129532142Y-101882142D01*
X129246428Y-101882142D01*
X129960714Y-101560714D02*
X129996428Y-101525000D01*
X130067857Y-101489285D01*
X130246428Y-101489285D01*
X130317857Y-101525000D01*
X130353571Y-101560714D01*
X130389285Y-101632142D01*
X130389285Y-101703571D01*
X130353571Y-101810714D01*
X129925000Y-102239285D01*
X130389285Y-102239285D01*
X129575000Y-107139285D02*
X129325000Y-106782142D01*
X129146428Y-107139285D02*
X129146428Y-106389285D01*
X129432142Y-106389285D01*
X129503571Y-106425000D01*
X129539285Y-106460714D01*
X129575000Y-106532142D01*
X129575000Y-106639285D01*
X129539285Y-106710714D01*
X129503571Y-106746428D01*
X129432142Y-106782142D01*
X129146428Y-106782142D01*
X129825000Y-106389285D02*
X130289285Y-106389285D01*
X130039285Y-106675000D01*
X130146428Y-106675000D01*
X130217857Y-106710714D01*
X130253571Y-106746428D01*
X130289285Y-106817857D01*
X130289285Y-106996428D01*
X130253571Y-107067857D01*
X130217857Y-107103571D01*
X130146428Y-107139285D01*
X129932142Y-107139285D01*
X129860714Y-107103571D01*
X129825000Y-107067857D01*
X139395000Y-101239285D02*
X139145000Y-100882142D01*
X138966428Y-101239285D02*
X138966428Y-100489285D01*
X139252142Y-100489285D01*
X139323571Y-100525000D01*
X139359285Y-100560714D01*
X139395000Y-100632142D01*
X139395000Y-100739285D01*
X139359285Y-100810714D01*
X139323571Y-100846428D01*
X139252142Y-100882142D01*
X138966428Y-100882142D01*
X140037857Y-100739285D02*
X140037857Y-101239285D01*
X139859285Y-100453571D02*
X139680714Y-100989285D01*
X140145000Y-100989285D01*
X135375000Y-106039285D02*
X135125000Y-105682142D01*
X134946428Y-106039285D02*
X134946428Y-105289285D01*
X135232142Y-105289285D01*
X135303571Y-105325000D01*
X135339285Y-105360714D01*
X135375000Y-105432142D01*
X135375000Y-105539285D01*
X135339285Y-105610714D01*
X135303571Y-105646428D01*
X135232142Y-105682142D01*
X134946428Y-105682142D01*
X136053571Y-105289285D02*
X135696428Y-105289285D01*
X135660714Y-105646428D01*
X135696428Y-105610714D01*
X135767857Y-105575000D01*
X135946428Y-105575000D01*
X136017857Y-105610714D01*
X136053571Y-105646428D01*
X136089285Y-105717857D01*
X136089285Y-105896428D01*
X136053571Y-105967857D01*
X136017857Y-106003571D01*
X135946428Y-106039285D01*
X135767857Y-106039285D01*
X135696428Y-106003571D01*
X135660714Y-105967857D01*
X131375000Y-108439285D02*
X131125000Y-108082142D01*
X130946428Y-108439285D02*
X130946428Y-107689285D01*
X131232142Y-107689285D01*
X131303571Y-107725000D01*
X131339285Y-107760714D01*
X131375000Y-107832142D01*
X131375000Y-107939285D01*
X131339285Y-108010714D01*
X131303571Y-108046428D01*
X131232142Y-108082142D01*
X130946428Y-108082142D01*
X132017857Y-107689285D02*
X131875000Y-107689285D01*
X131803571Y-107725000D01*
X131767857Y-107760714D01*
X131696428Y-107867857D01*
X131660714Y-108010714D01*
X131660714Y-108296428D01*
X131696428Y-108367857D01*
X131732142Y-108403571D01*
X131803571Y-108439285D01*
X131946428Y-108439285D01*
X132017857Y-108403571D01*
X132053571Y-108367857D01*
X132089285Y-108296428D01*
X132089285Y-108117857D01*
X132053571Y-108046428D01*
X132017857Y-108010714D01*
X131946428Y-107975000D01*
X131803571Y-107975000D01*
X131732142Y-108010714D01*
X131696428Y-108046428D01*
X131660714Y-108117857D01*
M02*
