M48
; DRILL file {KiCad (5.1.5)-3} date 2/28/2020 3:02:08 PM
; FORMAT={-:-/ absolute / inch / decimal}
; #@! TF.CreationDate,2020-02-28T15:02:08-07:00
; #@! TF.GenerationSoftware,Kicad,Pcbnew,(5.1.5)-3
; #@! TF.FileFunction,Plated,1,4,PTH
FMAT,2
INCH
T1C0.0130
%
G90
G05
T1
X4.0551Y-3.9291
X4.0551Y-4.0079
X4.0866Y-3.9291
X4.0866Y-4.0079
X4.3189Y-4.2835
X4.4764Y-4.2835
X4.9671Y-4.2575
X4.9671Y-4.3125
X4.9671Y-4.3625
X4.9671Y-4.4125
X5.0171Y-4.2575
X5.0171Y-4.3125
X5.0171Y-4.3625
X5.0171Y-4.4125
X5.0354Y-3.813
X5.0354Y-3.8922
X5.0354Y-3.9715
X5.0354Y-4.0507
X5.0354Y-4.1299
X5.0671Y-4.2575
X5.0671Y-4.3125
X5.0671Y-4.3625
X5.0671Y-4.4125
X5.0843Y-4.1201
X5.1235Y-4.2743
X5.1235Y-4.3125
X5.1235Y-4.3625
X5.1235Y-4.4125
X5.142Y-4.0945
X5.1785Y-4.2793
X5.1785Y-4.3125
X5.1785Y-4.3625
X5.1785Y-4.4125
X5.2126Y-4.1811
X5.2165Y-3.9331
X5.2205Y-4.037
X5.2205Y-4.063
X5.2206Y-4.0944
X5.2206Y-4.126
X5.2285Y-4.3125
X5.2285Y-4.3625
X5.2285Y-4.4125
X5.252Y-4.0366
X5.252Y-4.063
X5.252Y-4.0944
X5.252Y-4.126
X5.2535Y-4.2943
X5.2559Y-4.1811
X5.2559Y-4.2283
X5.2824Y-4.3125
X5.2824Y-4.3625
X5.2824Y-4.4125
X5.2835Y-3.9657
X5.2835Y-3.9921
X5.2913Y-4.0315
X5.3189Y-4.0315
X5.3283Y-3.9331
X5.3353Y-4.3125
X5.3403Y-4.3625
X5.3403Y-4.4125
X5.3611Y-4.2555
X5.3881Y-4.2675
X5.3881Y-4.3075
X5.3931Y-4.3625
X5.3931Y-4.4125
X5.4055Y-4.2047
X5.4381Y-4.2675
X5.4381Y-4.3125
X5.4381Y-4.3625
X5.4381Y-4.4125
X5.4471Y-4.1955
X5.4806Y-4.21
X5.4806Y-4.265
X5.4831Y-4.3125
X5.4831Y-4.3625
X5.4831Y-4.4125
X5.5306Y-4.21
X5.5306Y-4.265
X5.5331Y-4.3125
X5.5331Y-4.3625
X5.5331Y-4.4125
X5.5831Y-4.1125
X5.5831Y-4.1575
X5.5856Y-4.21
X5.5856Y-4.26
X5.5881Y-4.3075
X5.5881Y-4.3625
X5.5881Y-4.4125
X5.6331Y-4.1575
X5.6331Y-4.2125
X5.6331Y-4.2625
X5.6331Y-4.3075
X5.6331Y-4.3625
X5.6331Y-4.4125
X5.7953Y-3.9685
T0
M30
