G04 #@! TF.GenerationSoftware,KiCad,Pcbnew,(5.1.5)-3*
G04 #@! TF.CreationDate,2020-02-28T15:02:10-07:00*
G04 #@! TF.ProjectId,Straightener01,53747261-6967-4687-9465-6e657230312e,rev?*
G04 #@! TF.SameCoordinates,Original*
G04 #@! TF.FileFunction,Copper,L1,Top*
G04 #@! TF.FilePolarity,Positive*
%FSLAX46Y46*%
G04 Gerber Fmt 4.6, Leading zero omitted, Abs format (unit mm)*
G04 Created by KiCad (PCBNEW (5.1.5)-3) date 2020-02-28 15:02:10*
%MOMM*%
%LPD*%
G04 APERTURE LIST*
%ADD10C,0.100000*%
%ADD11R,1.000000X0.250000*%
%ADD12R,1.650000X2.380000*%
%ADD13R,4.720000X0.860000*%
%ADD14R,4.720000X1.350000*%
%ADD15C,0.635000*%
%ADD16C,0.406400*%
%ADD17C,0.250000*%
%ADD18C,0.254000*%
G04 APERTURE END LIST*
G04 #@! TA.AperFunction,SMDPad,CuDef*
D10*
G36*
X136081615Y-101115632D02*
G01*
X136094356Y-101117522D01*
X136106850Y-101120652D01*
X136118977Y-101124991D01*
X136130621Y-101130498D01*
X136141669Y-101137120D01*
X136152014Y-101144792D01*
X136161558Y-101153442D01*
X136170208Y-101162986D01*
X136177880Y-101173331D01*
X136184502Y-101184379D01*
X136190009Y-101196023D01*
X136194348Y-101208150D01*
X136197478Y-101220644D01*
X136199368Y-101233385D01*
X136200000Y-101246250D01*
X136200000Y-101733750D01*
X136199368Y-101746615D01*
X136197478Y-101759356D01*
X136194348Y-101771850D01*
X136190009Y-101783977D01*
X136184502Y-101795621D01*
X136177880Y-101806669D01*
X136170208Y-101817014D01*
X136161558Y-101826558D01*
X136152014Y-101835208D01*
X136141669Y-101842880D01*
X136130621Y-101849502D01*
X136118977Y-101855009D01*
X136106850Y-101859348D01*
X136094356Y-101862478D01*
X136081615Y-101864368D01*
X136068750Y-101865000D01*
X134906250Y-101865000D01*
X134893385Y-101864368D01*
X134880644Y-101862478D01*
X134868150Y-101859348D01*
X134856023Y-101855009D01*
X134844379Y-101849502D01*
X134833331Y-101842880D01*
X134822986Y-101835208D01*
X134813442Y-101826558D01*
X134804792Y-101817014D01*
X134797120Y-101806669D01*
X134790498Y-101795621D01*
X134784991Y-101783977D01*
X134780652Y-101771850D01*
X134777522Y-101759356D01*
X134775632Y-101746615D01*
X134775000Y-101733750D01*
X134775000Y-101246250D01*
X134775632Y-101233385D01*
X134777522Y-101220644D01*
X134780652Y-101208150D01*
X134784991Y-101196023D01*
X134790498Y-101184379D01*
X134797120Y-101173331D01*
X134804792Y-101162986D01*
X134813442Y-101153442D01*
X134822986Y-101144792D01*
X134833331Y-101137120D01*
X134844379Y-101130498D01*
X134856023Y-101124991D01*
X134868150Y-101120652D01*
X134880644Y-101117522D01*
X134893385Y-101115632D01*
X134906250Y-101115000D01*
X136068750Y-101115000D01*
X136081615Y-101115632D01*
G37*
G04 #@! TD.AperFunction*
G04 #@! TA.AperFunction,SMDPad,CuDef*
G36*
X136081615Y-100115632D02*
G01*
X136094356Y-100117522D01*
X136106850Y-100120652D01*
X136118977Y-100124991D01*
X136130621Y-100130498D01*
X136141669Y-100137120D01*
X136152014Y-100144792D01*
X136161558Y-100153442D01*
X136170208Y-100162986D01*
X136177880Y-100173331D01*
X136184502Y-100184379D01*
X136190009Y-100196023D01*
X136194348Y-100208150D01*
X136197478Y-100220644D01*
X136199368Y-100233385D01*
X136200000Y-100246250D01*
X136200000Y-100733750D01*
X136199368Y-100746615D01*
X136197478Y-100759356D01*
X136194348Y-100771850D01*
X136190009Y-100783977D01*
X136184502Y-100795621D01*
X136177880Y-100806669D01*
X136170208Y-100817014D01*
X136161558Y-100826558D01*
X136152014Y-100835208D01*
X136141669Y-100842880D01*
X136130621Y-100849502D01*
X136118977Y-100855009D01*
X136106850Y-100859348D01*
X136094356Y-100862478D01*
X136081615Y-100864368D01*
X136068750Y-100865000D01*
X134906250Y-100865000D01*
X134893385Y-100864368D01*
X134880644Y-100862478D01*
X134868150Y-100859348D01*
X134856023Y-100855009D01*
X134844379Y-100849502D01*
X134833331Y-100842880D01*
X134822986Y-100835208D01*
X134813442Y-100826558D01*
X134804792Y-100817014D01*
X134797120Y-100806669D01*
X134790498Y-100795621D01*
X134784991Y-100783977D01*
X134780652Y-100771850D01*
X134777522Y-100759356D01*
X134775632Y-100746615D01*
X134775000Y-100733750D01*
X134775000Y-100246250D01*
X134775632Y-100233385D01*
X134777522Y-100220644D01*
X134780652Y-100208150D01*
X134784991Y-100196023D01*
X134790498Y-100184379D01*
X134797120Y-100173331D01*
X134804792Y-100162986D01*
X134813442Y-100153442D01*
X134822986Y-100144792D01*
X134833331Y-100137120D01*
X134844379Y-100130498D01*
X134856023Y-100124991D01*
X134868150Y-100120652D01*
X134880644Y-100117522D01*
X134893385Y-100115632D01*
X134906250Y-100115000D01*
X136068750Y-100115000D01*
X136081615Y-100115632D01*
G37*
G04 #@! TD.AperFunction*
G04 #@! TA.AperFunction,SMDPad,CuDef*
G36*
X133106615Y-101115632D02*
G01*
X133119356Y-101117522D01*
X133131850Y-101120652D01*
X133143977Y-101124991D01*
X133155621Y-101130498D01*
X133166669Y-101137120D01*
X133177014Y-101144792D01*
X133186558Y-101153442D01*
X133195208Y-101162986D01*
X133202880Y-101173331D01*
X133209502Y-101184379D01*
X133215009Y-101196023D01*
X133219348Y-101208150D01*
X133222478Y-101220644D01*
X133224368Y-101233385D01*
X133225000Y-101246250D01*
X133225000Y-101733750D01*
X133224368Y-101746615D01*
X133222478Y-101759356D01*
X133219348Y-101771850D01*
X133215009Y-101783977D01*
X133209502Y-101795621D01*
X133202880Y-101806669D01*
X133195208Y-101817014D01*
X133186558Y-101826558D01*
X133177014Y-101835208D01*
X133166669Y-101842880D01*
X133155621Y-101849502D01*
X133143977Y-101855009D01*
X133131850Y-101859348D01*
X133119356Y-101862478D01*
X133106615Y-101864368D01*
X133093750Y-101865000D01*
X131931250Y-101865000D01*
X131918385Y-101864368D01*
X131905644Y-101862478D01*
X131893150Y-101859348D01*
X131881023Y-101855009D01*
X131869379Y-101849502D01*
X131858331Y-101842880D01*
X131847986Y-101835208D01*
X131838442Y-101826558D01*
X131829792Y-101817014D01*
X131822120Y-101806669D01*
X131815498Y-101795621D01*
X131809991Y-101783977D01*
X131805652Y-101771850D01*
X131802522Y-101759356D01*
X131800632Y-101746615D01*
X131800000Y-101733750D01*
X131800000Y-101246250D01*
X131800632Y-101233385D01*
X131802522Y-101220644D01*
X131805652Y-101208150D01*
X131809991Y-101196023D01*
X131815498Y-101184379D01*
X131822120Y-101173331D01*
X131829792Y-101162986D01*
X131838442Y-101153442D01*
X131847986Y-101144792D01*
X131858331Y-101137120D01*
X131869379Y-101130498D01*
X131881023Y-101124991D01*
X131893150Y-101120652D01*
X131905644Y-101117522D01*
X131918385Y-101115632D01*
X131931250Y-101115000D01*
X133093750Y-101115000D01*
X133106615Y-101115632D01*
G37*
G04 #@! TD.AperFunction*
G04 #@! TA.AperFunction,SMDPad,CuDef*
G36*
X133106615Y-100115632D02*
G01*
X133119356Y-100117522D01*
X133131850Y-100120652D01*
X133143977Y-100124991D01*
X133155621Y-100130498D01*
X133166669Y-100137120D01*
X133177014Y-100144792D01*
X133186558Y-100153442D01*
X133195208Y-100162986D01*
X133202880Y-100173331D01*
X133209502Y-100184379D01*
X133215009Y-100196023D01*
X133219348Y-100208150D01*
X133222478Y-100220644D01*
X133224368Y-100233385D01*
X133225000Y-100246250D01*
X133225000Y-100733750D01*
X133224368Y-100746615D01*
X133222478Y-100759356D01*
X133219348Y-100771850D01*
X133215009Y-100783977D01*
X133209502Y-100795621D01*
X133202880Y-100806669D01*
X133195208Y-100817014D01*
X133186558Y-100826558D01*
X133177014Y-100835208D01*
X133166669Y-100842880D01*
X133155621Y-100849502D01*
X133143977Y-100855009D01*
X133131850Y-100859348D01*
X133119356Y-100862478D01*
X133106615Y-100864368D01*
X133093750Y-100865000D01*
X131931250Y-100865000D01*
X131918385Y-100864368D01*
X131905644Y-100862478D01*
X131893150Y-100859348D01*
X131881023Y-100855009D01*
X131869379Y-100849502D01*
X131858331Y-100842880D01*
X131847986Y-100835208D01*
X131838442Y-100826558D01*
X131829792Y-100817014D01*
X131822120Y-100806669D01*
X131815498Y-100795621D01*
X131809991Y-100783977D01*
X131805652Y-100771850D01*
X131802522Y-100759356D01*
X131800632Y-100746615D01*
X131800000Y-100733750D01*
X131800000Y-100246250D01*
X131800632Y-100233385D01*
X131802522Y-100220644D01*
X131805652Y-100208150D01*
X131809991Y-100196023D01*
X131815498Y-100184379D01*
X131822120Y-100173331D01*
X131829792Y-100162986D01*
X131838442Y-100153442D01*
X131847986Y-100144792D01*
X131858331Y-100137120D01*
X131869379Y-100130498D01*
X131881023Y-100124991D01*
X131893150Y-100120652D01*
X131905644Y-100117522D01*
X131918385Y-100115632D01*
X131931250Y-100115000D01*
X133093750Y-100115000D01*
X133106615Y-100115632D01*
G37*
G04 #@! TD.AperFunction*
G04 #@! TA.AperFunction,SMDPad,CuDef*
G36*
X138250069Y-100801201D02*
G01*
X138274276Y-100804792D01*
X138298015Y-100810738D01*
X138321057Y-100818982D01*
X138343180Y-100829446D01*
X138364171Y-100842027D01*
X138383827Y-100856605D01*
X138401960Y-100873040D01*
X138418395Y-100891173D01*
X138432973Y-100910829D01*
X138445554Y-100931820D01*
X138456018Y-100953943D01*
X138464262Y-100976985D01*
X138470208Y-101000724D01*
X138473799Y-101024931D01*
X138475000Y-101049374D01*
X138475000Y-101975626D01*
X138473799Y-102000069D01*
X138470208Y-102024276D01*
X138464262Y-102048015D01*
X138456018Y-102071057D01*
X138445554Y-102093180D01*
X138432973Y-102114171D01*
X138418395Y-102133827D01*
X138401960Y-102151960D01*
X138383827Y-102168395D01*
X138364171Y-102182973D01*
X138343180Y-102195554D01*
X138321057Y-102206018D01*
X138298015Y-102214262D01*
X138274276Y-102220208D01*
X138250069Y-102223799D01*
X138225626Y-102225000D01*
X136974374Y-102225000D01*
X136949931Y-102223799D01*
X136925724Y-102220208D01*
X136901985Y-102214262D01*
X136878943Y-102206018D01*
X136856820Y-102195554D01*
X136835829Y-102182973D01*
X136816173Y-102168395D01*
X136798040Y-102151960D01*
X136781605Y-102133827D01*
X136767027Y-102114171D01*
X136754446Y-102093180D01*
X136743982Y-102071057D01*
X136735738Y-102048015D01*
X136729792Y-102024276D01*
X136726201Y-102000069D01*
X136725000Y-101975626D01*
X136725000Y-101049374D01*
X136726201Y-101024931D01*
X136729792Y-101000724D01*
X136735738Y-100976985D01*
X136743982Y-100953943D01*
X136754446Y-100931820D01*
X136767027Y-100910829D01*
X136781605Y-100891173D01*
X136798040Y-100873040D01*
X136816173Y-100856605D01*
X136835829Y-100842027D01*
X136856820Y-100829446D01*
X136878943Y-100818982D01*
X136901985Y-100810738D01*
X136925724Y-100804792D01*
X136949931Y-100801201D01*
X136974374Y-100800000D01*
X138225626Y-100800000D01*
X138250069Y-100801201D01*
G37*
G04 #@! TD.AperFunction*
G04 #@! TA.AperFunction,SMDPad,CuDef*
G36*
X138249504Y-103776204D02*
G01*
X138273773Y-103779804D01*
X138297571Y-103785765D01*
X138320671Y-103794030D01*
X138342849Y-103804520D01*
X138363893Y-103817133D01*
X138383598Y-103831747D01*
X138401777Y-103848223D01*
X138418253Y-103866402D01*
X138432867Y-103886107D01*
X138445480Y-103907151D01*
X138455970Y-103929329D01*
X138464235Y-103952429D01*
X138470196Y-103976227D01*
X138473796Y-104000496D01*
X138475000Y-104025000D01*
X138475000Y-104950000D01*
X138473796Y-104974504D01*
X138470196Y-104998773D01*
X138464235Y-105022571D01*
X138455970Y-105045671D01*
X138445480Y-105067849D01*
X138432867Y-105088893D01*
X138418253Y-105108598D01*
X138401777Y-105126777D01*
X138383598Y-105143253D01*
X138363893Y-105157867D01*
X138342849Y-105170480D01*
X138320671Y-105180970D01*
X138297571Y-105189235D01*
X138273773Y-105195196D01*
X138249504Y-105198796D01*
X138225000Y-105200000D01*
X136975000Y-105200000D01*
X136950496Y-105198796D01*
X136926227Y-105195196D01*
X136902429Y-105189235D01*
X136879329Y-105180970D01*
X136857151Y-105170480D01*
X136836107Y-105157867D01*
X136816402Y-105143253D01*
X136798223Y-105126777D01*
X136781747Y-105108598D01*
X136767133Y-105088893D01*
X136754520Y-105067849D01*
X136744030Y-105045671D01*
X136735765Y-105022571D01*
X136729804Y-104998773D01*
X136726204Y-104974504D01*
X136725000Y-104950000D01*
X136725000Y-104025000D01*
X136726204Y-104000496D01*
X136729804Y-103976227D01*
X136735765Y-103952429D01*
X136744030Y-103929329D01*
X136754520Y-103907151D01*
X136767133Y-103886107D01*
X136781747Y-103866402D01*
X136798223Y-103848223D01*
X136816402Y-103831747D01*
X136836107Y-103817133D01*
X136857151Y-103804520D01*
X136879329Y-103794030D01*
X136902429Y-103785765D01*
X136926227Y-103779804D01*
X136950496Y-103776204D01*
X136975000Y-103775000D01*
X138225000Y-103775000D01*
X138249504Y-103776204D01*
G37*
G04 #@! TD.AperFunction*
D11*
X131475000Y-103000000D03*
X131475000Y-103500000D03*
X131475000Y-104000000D03*
X131475000Y-104500000D03*
X131475000Y-105000000D03*
X134525000Y-105000000D03*
X134525000Y-104500000D03*
X134525000Y-104000000D03*
X134525000Y-103500000D03*
X134525000Y-103000000D03*
D12*
X133000000Y-104000000D03*
D13*
X104900000Y-100800000D03*
D14*
X104900000Y-105725000D03*
X104900000Y-95875000D03*
X150100000Y-105725000D03*
X150100000Y-95875000D03*
D13*
X150100000Y-100800000D03*
G04 #@! TA.AperFunction,SMDPad,CuDef*
D10*
G36*
X112885779Y-108326144D02*
G01*
X112908834Y-108329563D01*
X112931443Y-108335227D01*
X112953387Y-108343079D01*
X112974457Y-108353044D01*
X112994448Y-108365026D01*
X113013168Y-108378910D01*
X113030438Y-108394562D01*
X113046090Y-108411832D01*
X113059974Y-108430552D01*
X113071956Y-108450543D01*
X113081921Y-108471613D01*
X113089773Y-108493557D01*
X113095437Y-108516166D01*
X113098856Y-108539221D01*
X113100000Y-108562500D01*
X113100000Y-109037500D01*
X113098856Y-109060779D01*
X113095437Y-109083834D01*
X113089773Y-109106443D01*
X113081921Y-109128387D01*
X113071956Y-109149457D01*
X113059974Y-109169448D01*
X113046090Y-109188168D01*
X113030438Y-109205438D01*
X113013168Y-109221090D01*
X112994448Y-109234974D01*
X112974457Y-109246956D01*
X112953387Y-109256921D01*
X112931443Y-109264773D01*
X112908834Y-109270437D01*
X112885779Y-109273856D01*
X112862500Y-109275000D01*
X112287500Y-109275000D01*
X112264221Y-109273856D01*
X112241166Y-109270437D01*
X112218557Y-109264773D01*
X112196613Y-109256921D01*
X112175543Y-109246956D01*
X112155552Y-109234974D01*
X112136832Y-109221090D01*
X112119562Y-109205438D01*
X112103910Y-109188168D01*
X112090026Y-109169448D01*
X112078044Y-109149457D01*
X112068079Y-109128387D01*
X112060227Y-109106443D01*
X112054563Y-109083834D01*
X112051144Y-109060779D01*
X112050000Y-109037500D01*
X112050000Y-108562500D01*
X112051144Y-108539221D01*
X112054563Y-108516166D01*
X112060227Y-108493557D01*
X112068079Y-108471613D01*
X112078044Y-108450543D01*
X112090026Y-108430552D01*
X112103910Y-108411832D01*
X112119562Y-108394562D01*
X112136832Y-108378910D01*
X112155552Y-108365026D01*
X112175543Y-108353044D01*
X112196613Y-108343079D01*
X112218557Y-108335227D01*
X112241166Y-108329563D01*
X112264221Y-108326144D01*
X112287500Y-108325000D01*
X112862500Y-108325000D01*
X112885779Y-108326144D01*
G37*
G04 #@! TD.AperFunction*
G04 #@! TA.AperFunction,SMDPad,CuDef*
G36*
X111135779Y-108326144D02*
G01*
X111158834Y-108329563D01*
X111181443Y-108335227D01*
X111203387Y-108343079D01*
X111224457Y-108353044D01*
X111244448Y-108365026D01*
X111263168Y-108378910D01*
X111280438Y-108394562D01*
X111296090Y-108411832D01*
X111309974Y-108430552D01*
X111321956Y-108450543D01*
X111331921Y-108471613D01*
X111339773Y-108493557D01*
X111345437Y-108516166D01*
X111348856Y-108539221D01*
X111350000Y-108562500D01*
X111350000Y-109037500D01*
X111348856Y-109060779D01*
X111345437Y-109083834D01*
X111339773Y-109106443D01*
X111331921Y-109128387D01*
X111321956Y-109149457D01*
X111309974Y-109169448D01*
X111296090Y-109188168D01*
X111280438Y-109205438D01*
X111263168Y-109221090D01*
X111244448Y-109234974D01*
X111224457Y-109246956D01*
X111203387Y-109256921D01*
X111181443Y-109264773D01*
X111158834Y-109270437D01*
X111135779Y-109273856D01*
X111112500Y-109275000D01*
X110537500Y-109275000D01*
X110514221Y-109273856D01*
X110491166Y-109270437D01*
X110468557Y-109264773D01*
X110446613Y-109256921D01*
X110425543Y-109246956D01*
X110405552Y-109234974D01*
X110386832Y-109221090D01*
X110369562Y-109205438D01*
X110353910Y-109188168D01*
X110340026Y-109169448D01*
X110328044Y-109149457D01*
X110318079Y-109128387D01*
X110310227Y-109106443D01*
X110304563Y-109083834D01*
X110301144Y-109060779D01*
X110300000Y-109037500D01*
X110300000Y-108562500D01*
X110301144Y-108539221D01*
X110304563Y-108516166D01*
X110310227Y-108493557D01*
X110318079Y-108471613D01*
X110328044Y-108450543D01*
X110340026Y-108430552D01*
X110353910Y-108411832D01*
X110369562Y-108394562D01*
X110386832Y-108378910D01*
X110405552Y-108365026D01*
X110425543Y-108353044D01*
X110446613Y-108343079D01*
X110468557Y-108335227D01*
X110491166Y-108329563D01*
X110514221Y-108326144D01*
X110537500Y-108325000D01*
X111112500Y-108325000D01*
X111135779Y-108326144D01*
G37*
G04 #@! TD.AperFunction*
G04 #@! TA.AperFunction,SMDPad,CuDef*
G36*
X130060779Y-102601144D02*
G01*
X130083834Y-102604563D01*
X130106443Y-102610227D01*
X130128387Y-102618079D01*
X130149457Y-102628044D01*
X130169448Y-102640026D01*
X130188168Y-102653910D01*
X130205438Y-102669562D01*
X130221090Y-102686832D01*
X130234974Y-102705552D01*
X130246956Y-102725543D01*
X130256921Y-102746613D01*
X130264773Y-102768557D01*
X130270437Y-102791166D01*
X130273856Y-102814221D01*
X130275000Y-102837500D01*
X130275000Y-103412500D01*
X130273856Y-103435779D01*
X130270437Y-103458834D01*
X130264773Y-103481443D01*
X130256921Y-103503387D01*
X130246956Y-103524457D01*
X130234974Y-103544448D01*
X130221090Y-103563168D01*
X130205438Y-103580438D01*
X130188168Y-103596090D01*
X130169448Y-103609974D01*
X130149457Y-103621956D01*
X130128387Y-103631921D01*
X130106443Y-103639773D01*
X130083834Y-103645437D01*
X130060779Y-103648856D01*
X130037500Y-103650000D01*
X129562500Y-103650000D01*
X129539221Y-103648856D01*
X129516166Y-103645437D01*
X129493557Y-103639773D01*
X129471613Y-103631921D01*
X129450543Y-103621956D01*
X129430552Y-103609974D01*
X129411832Y-103596090D01*
X129394562Y-103580438D01*
X129378910Y-103563168D01*
X129365026Y-103544448D01*
X129353044Y-103524457D01*
X129343079Y-103503387D01*
X129335227Y-103481443D01*
X129329563Y-103458834D01*
X129326144Y-103435779D01*
X129325000Y-103412500D01*
X129325000Y-102837500D01*
X129326144Y-102814221D01*
X129329563Y-102791166D01*
X129335227Y-102768557D01*
X129343079Y-102746613D01*
X129353044Y-102725543D01*
X129365026Y-102705552D01*
X129378910Y-102686832D01*
X129394562Y-102669562D01*
X129411832Y-102653910D01*
X129430552Y-102640026D01*
X129450543Y-102628044D01*
X129471613Y-102618079D01*
X129493557Y-102610227D01*
X129516166Y-102604563D01*
X129539221Y-102601144D01*
X129562500Y-102600000D01*
X130037500Y-102600000D01*
X130060779Y-102601144D01*
G37*
G04 #@! TD.AperFunction*
G04 #@! TA.AperFunction,SMDPad,CuDef*
G36*
X130060779Y-104351144D02*
G01*
X130083834Y-104354563D01*
X130106443Y-104360227D01*
X130128387Y-104368079D01*
X130149457Y-104378044D01*
X130169448Y-104390026D01*
X130188168Y-104403910D01*
X130205438Y-104419562D01*
X130221090Y-104436832D01*
X130234974Y-104455552D01*
X130246956Y-104475543D01*
X130256921Y-104496613D01*
X130264773Y-104518557D01*
X130270437Y-104541166D01*
X130273856Y-104564221D01*
X130275000Y-104587500D01*
X130275000Y-105162500D01*
X130273856Y-105185779D01*
X130270437Y-105208834D01*
X130264773Y-105231443D01*
X130256921Y-105253387D01*
X130246956Y-105274457D01*
X130234974Y-105294448D01*
X130221090Y-105313168D01*
X130205438Y-105330438D01*
X130188168Y-105346090D01*
X130169448Y-105359974D01*
X130149457Y-105371956D01*
X130128387Y-105381921D01*
X130106443Y-105389773D01*
X130083834Y-105395437D01*
X130060779Y-105398856D01*
X130037500Y-105400000D01*
X129562500Y-105400000D01*
X129539221Y-105398856D01*
X129516166Y-105395437D01*
X129493557Y-105389773D01*
X129471613Y-105381921D01*
X129450543Y-105371956D01*
X129430552Y-105359974D01*
X129411832Y-105346090D01*
X129394562Y-105330438D01*
X129378910Y-105313168D01*
X129365026Y-105294448D01*
X129353044Y-105274457D01*
X129343079Y-105253387D01*
X129335227Y-105231443D01*
X129329563Y-105208834D01*
X129326144Y-105185779D01*
X129325000Y-105162500D01*
X129325000Y-104587500D01*
X129326144Y-104564221D01*
X129329563Y-104541166D01*
X129335227Y-104518557D01*
X129343079Y-104496613D01*
X129353044Y-104475543D01*
X129365026Y-104455552D01*
X129378910Y-104436832D01*
X129394562Y-104419562D01*
X129411832Y-104403910D01*
X129430552Y-104390026D01*
X129450543Y-104378044D01*
X129471613Y-104368079D01*
X129493557Y-104360227D01*
X129516166Y-104354563D01*
X129539221Y-104351144D01*
X129562500Y-104350000D01*
X130037500Y-104350000D01*
X130060779Y-104351144D01*
G37*
G04 #@! TD.AperFunction*
G04 #@! TA.AperFunction,SMDPad,CuDef*
G36*
X133245779Y-106326144D02*
G01*
X133268834Y-106329563D01*
X133291443Y-106335227D01*
X133313387Y-106343079D01*
X133334457Y-106353044D01*
X133354448Y-106365026D01*
X133373168Y-106378910D01*
X133390438Y-106394562D01*
X133406090Y-106411832D01*
X133419974Y-106430552D01*
X133431956Y-106450543D01*
X133441921Y-106471613D01*
X133449773Y-106493557D01*
X133455437Y-106516166D01*
X133458856Y-106539221D01*
X133460000Y-106562500D01*
X133460000Y-107037500D01*
X133458856Y-107060779D01*
X133455437Y-107083834D01*
X133449773Y-107106443D01*
X133441921Y-107128387D01*
X133431956Y-107149457D01*
X133419974Y-107169448D01*
X133406090Y-107188168D01*
X133390438Y-107205438D01*
X133373168Y-107221090D01*
X133354448Y-107234974D01*
X133334457Y-107246956D01*
X133313387Y-107256921D01*
X133291443Y-107264773D01*
X133268834Y-107270437D01*
X133245779Y-107273856D01*
X133222500Y-107275000D01*
X132647500Y-107275000D01*
X132624221Y-107273856D01*
X132601166Y-107270437D01*
X132578557Y-107264773D01*
X132556613Y-107256921D01*
X132535543Y-107246956D01*
X132515552Y-107234974D01*
X132496832Y-107221090D01*
X132479562Y-107205438D01*
X132463910Y-107188168D01*
X132450026Y-107169448D01*
X132438044Y-107149457D01*
X132428079Y-107128387D01*
X132420227Y-107106443D01*
X132414563Y-107083834D01*
X132411144Y-107060779D01*
X132410000Y-107037500D01*
X132410000Y-106562500D01*
X132411144Y-106539221D01*
X132414563Y-106516166D01*
X132420227Y-106493557D01*
X132428079Y-106471613D01*
X132438044Y-106450543D01*
X132450026Y-106430552D01*
X132463910Y-106411832D01*
X132479562Y-106394562D01*
X132496832Y-106378910D01*
X132515552Y-106365026D01*
X132535543Y-106353044D01*
X132556613Y-106343079D01*
X132578557Y-106335227D01*
X132601166Y-106329563D01*
X132624221Y-106326144D01*
X132647500Y-106325000D01*
X133222500Y-106325000D01*
X133245779Y-106326144D01*
G37*
G04 #@! TD.AperFunction*
G04 #@! TA.AperFunction,SMDPad,CuDef*
G36*
X131495779Y-106326144D02*
G01*
X131518834Y-106329563D01*
X131541443Y-106335227D01*
X131563387Y-106343079D01*
X131584457Y-106353044D01*
X131604448Y-106365026D01*
X131623168Y-106378910D01*
X131640438Y-106394562D01*
X131656090Y-106411832D01*
X131669974Y-106430552D01*
X131681956Y-106450543D01*
X131691921Y-106471613D01*
X131699773Y-106493557D01*
X131705437Y-106516166D01*
X131708856Y-106539221D01*
X131710000Y-106562500D01*
X131710000Y-107037500D01*
X131708856Y-107060779D01*
X131705437Y-107083834D01*
X131699773Y-107106443D01*
X131691921Y-107128387D01*
X131681956Y-107149457D01*
X131669974Y-107169448D01*
X131656090Y-107188168D01*
X131640438Y-107205438D01*
X131623168Y-107221090D01*
X131604448Y-107234974D01*
X131584457Y-107246956D01*
X131563387Y-107256921D01*
X131541443Y-107264773D01*
X131518834Y-107270437D01*
X131495779Y-107273856D01*
X131472500Y-107275000D01*
X130897500Y-107275000D01*
X130874221Y-107273856D01*
X130851166Y-107270437D01*
X130828557Y-107264773D01*
X130806613Y-107256921D01*
X130785543Y-107246956D01*
X130765552Y-107234974D01*
X130746832Y-107221090D01*
X130729562Y-107205438D01*
X130713910Y-107188168D01*
X130700026Y-107169448D01*
X130688044Y-107149457D01*
X130678079Y-107128387D01*
X130670227Y-107106443D01*
X130664563Y-107083834D01*
X130661144Y-107060779D01*
X130660000Y-107037500D01*
X130660000Y-106562500D01*
X130661144Y-106539221D01*
X130664563Y-106516166D01*
X130670227Y-106493557D01*
X130678079Y-106471613D01*
X130688044Y-106450543D01*
X130700026Y-106430552D01*
X130713910Y-106411832D01*
X130729562Y-106394562D01*
X130746832Y-106378910D01*
X130765552Y-106365026D01*
X130785543Y-106353044D01*
X130806613Y-106343079D01*
X130828557Y-106335227D01*
X130851166Y-106329563D01*
X130874221Y-106326144D01*
X130897500Y-106325000D01*
X131472500Y-106325000D01*
X131495779Y-106326144D01*
G37*
G04 #@! TD.AperFunction*
G04 #@! TA.AperFunction,SMDPad,CuDef*
G36*
X139760779Y-103351144D02*
G01*
X139783834Y-103354563D01*
X139806443Y-103360227D01*
X139828387Y-103368079D01*
X139849457Y-103378044D01*
X139869448Y-103390026D01*
X139888168Y-103403910D01*
X139905438Y-103419562D01*
X139921090Y-103436832D01*
X139934974Y-103455552D01*
X139946956Y-103475543D01*
X139956921Y-103496613D01*
X139964773Y-103518557D01*
X139970437Y-103541166D01*
X139973856Y-103564221D01*
X139975000Y-103587500D01*
X139975000Y-104162500D01*
X139973856Y-104185779D01*
X139970437Y-104208834D01*
X139964773Y-104231443D01*
X139956921Y-104253387D01*
X139946956Y-104274457D01*
X139934974Y-104294448D01*
X139921090Y-104313168D01*
X139905438Y-104330438D01*
X139888168Y-104346090D01*
X139869448Y-104359974D01*
X139849457Y-104371956D01*
X139828387Y-104381921D01*
X139806443Y-104389773D01*
X139783834Y-104395437D01*
X139760779Y-104398856D01*
X139737500Y-104400000D01*
X139262500Y-104400000D01*
X139239221Y-104398856D01*
X139216166Y-104395437D01*
X139193557Y-104389773D01*
X139171613Y-104381921D01*
X139150543Y-104371956D01*
X139130552Y-104359974D01*
X139111832Y-104346090D01*
X139094562Y-104330438D01*
X139078910Y-104313168D01*
X139065026Y-104294448D01*
X139053044Y-104274457D01*
X139043079Y-104253387D01*
X139035227Y-104231443D01*
X139029563Y-104208834D01*
X139026144Y-104185779D01*
X139025000Y-104162500D01*
X139025000Y-103587500D01*
X139026144Y-103564221D01*
X139029563Y-103541166D01*
X139035227Y-103518557D01*
X139043079Y-103496613D01*
X139053044Y-103475543D01*
X139065026Y-103455552D01*
X139078910Y-103436832D01*
X139094562Y-103419562D01*
X139111832Y-103403910D01*
X139130552Y-103390026D01*
X139150543Y-103378044D01*
X139171613Y-103368079D01*
X139193557Y-103360227D01*
X139216166Y-103354563D01*
X139239221Y-103351144D01*
X139262500Y-103350000D01*
X139737500Y-103350000D01*
X139760779Y-103351144D01*
G37*
G04 #@! TD.AperFunction*
G04 #@! TA.AperFunction,SMDPad,CuDef*
G36*
X139760779Y-101601144D02*
G01*
X139783834Y-101604563D01*
X139806443Y-101610227D01*
X139828387Y-101618079D01*
X139849457Y-101628044D01*
X139869448Y-101640026D01*
X139888168Y-101653910D01*
X139905438Y-101669562D01*
X139921090Y-101686832D01*
X139934974Y-101705552D01*
X139946956Y-101725543D01*
X139956921Y-101746613D01*
X139964773Y-101768557D01*
X139970437Y-101791166D01*
X139973856Y-101814221D01*
X139975000Y-101837500D01*
X139975000Y-102412500D01*
X139973856Y-102435779D01*
X139970437Y-102458834D01*
X139964773Y-102481443D01*
X139956921Y-102503387D01*
X139946956Y-102524457D01*
X139934974Y-102544448D01*
X139921090Y-102563168D01*
X139905438Y-102580438D01*
X139888168Y-102596090D01*
X139869448Y-102609974D01*
X139849457Y-102621956D01*
X139828387Y-102631921D01*
X139806443Y-102639773D01*
X139783834Y-102645437D01*
X139760779Y-102648856D01*
X139737500Y-102650000D01*
X139262500Y-102650000D01*
X139239221Y-102648856D01*
X139216166Y-102645437D01*
X139193557Y-102639773D01*
X139171613Y-102631921D01*
X139150543Y-102621956D01*
X139130552Y-102609974D01*
X139111832Y-102596090D01*
X139094562Y-102580438D01*
X139078910Y-102563168D01*
X139065026Y-102544448D01*
X139053044Y-102524457D01*
X139043079Y-102503387D01*
X139035227Y-102481443D01*
X139029563Y-102458834D01*
X139026144Y-102435779D01*
X139025000Y-102412500D01*
X139025000Y-101837500D01*
X139026144Y-101814221D01*
X139029563Y-101791166D01*
X139035227Y-101768557D01*
X139043079Y-101746613D01*
X139053044Y-101725543D01*
X139065026Y-101705552D01*
X139078910Y-101686832D01*
X139094562Y-101669562D01*
X139111832Y-101653910D01*
X139130552Y-101640026D01*
X139150543Y-101628044D01*
X139171613Y-101618079D01*
X139193557Y-101610227D01*
X139216166Y-101604563D01*
X139239221Y-101601144D01*
X139262500Y-101600000D01*
X139737500Y-101600000D01*
X139760779Y-101601144D01*
G37*
G04 #@! TD.AperFunction*
G04 #@! TA.AperFunction,SMDPad,CuDef*
G36*
X134935779Y-106326144D02*
G01*
X134958834Y-106329563D01*
X134981443Y-106335227D01*
X135003387Y-106343079D01*
X135024457Y-106353044D01*
X135044448Y-106365026D01*
X135063168Y-106378910D01*
X135080438Y-106394562D01*
X135096090Y-106411832D01*
X135109974Y-106430552D01*
X135121956Y-106450543D01*
X135131921Y-106471613D01*
X135139773Y-106493557D01*
X135145437Y-106516166D01*
X135148856Y-106539221D01*
X135150000Y-106562500D01*
X135150000Y-107037500D01*
X135148856Y-107060779D01*
X135145437Y-107083834D01*
X135139773Y-107106443D01*
X135131921Y-107128387D01*
X135121956Y-107149457D01*
X135109974Y-107169448D01*
X135096090Y-107188168D01*
X135080438Y-107205438D01*
X135063168Y-107221090D01*
X135044448Y-107234974D01*
X135024457Y-107246956D01*
X135003387Y-107256921D01*
X134981443Y-107264773D01*
X134958834Y-107270437D01*
X134935779Y-107273856D01*
X134912500Y-107275000D01*
X134337500Y-107275000D01*
X134314221Y-107273856D01*
X134291166Y-107270437D01*
X134268557Y-107264773D01*
X134246613Y-107256921D01*
X134225543Y-107246956D01*
X134205552Y-107234974D01*
X134186832Y-107221090D01*
X134169562Y-107205438D01*
X134153910Y-107188168D01*
X134140026Y-107169448D01*
X134128044Y-107149457D01*
X134118079Y-107128387D01*
X134110227Y-107106443D01*
X134104563Y-107083834D01*
X134101144Y-107060779D01*
X134100000Y-107037500D01*
X134100000Y-106562500D01*
X134101144Y-106539221D01*
X134104563Y-106516166D01*
X134110227Y-106493557D01*
X134118079Y-106471613D01*
X134128044Y-106450543D01*
X134140026Y-106430552D01*
X134153910Y-106411832D01*
X134169562Y-106394562D01*
X134186832Y-106378910D01*
X134205552Y-106365026D01*
X134225543Y-106353044D01*
X134246613Y-106343079D01*
X134268557Y-106335227D01*
X134291166Y-106329563D01*
X134314221Y-106326144D01*
X134337500Y-106325000D01*
X134912500Y-106325000D01*
X134935779Y-106326144D01*
G37*
G04 #@! TD.AperFunction*
G04 #@! TA.AperFunction,SMDPad,CuDef*
G36*
X136685779Y-106326144D02*
G01*
X136708834Y-106329563D01*
X136731443Y-106335227D01*
X136753387Y-106343079D01*
X136774457Y-106353044D01*
X136794448Y-106365026D01*
X136813168Y-106378910D01*
X136830438Y-106394562D01*
X136846090Y-106411832D01*
X136859974Y-106430552D01*
X136871956Y-106450543D01*
X136881921Y-106471613D01*
X136889773Y-106493557D01*
X136895437Y-106516166D01*
X136898856Y-106539221D01*
X136900000Y-106562500D01*
X136900000Y-107037500D01*
X136898856Y-107060779D01*
X136895437Y-107083834D01*
X136889773Y-107106443D01*
X136881921Y-107128387D01*
X136871956Y-107149457D01*
X136859974Y-107169448D01*
X136846090Y-107188168D01*
X136830438Y-107205438D01*
X136813168Y-107221090D01*
X136794448Y-107234974D01*
X136774457Y-107246956D01*
X136753387Y-107256921D01*
X136731443Y-107264773D01*
X136708834Y-107270437D01*
X136685779Y-107273856D01*
X136662500Y-107275000D01*
X136087500Y-107275000D01*
X136064221Y-107273856D01*
X136041166Y-107270437D01*
X136018557Y-107264773D01*
X135996613Y-107256921D01*
X135975543Y-107246956D01*
X135955552Y-107234974D01*
X135936832Y-107221090D01*
X135919562Y-107205438D01*
X135903910Y-107188168D01*
X135890026Y-107169448D01*
X135878044Y-107149457D01*
X135868079Y-107128387D01*
X135860227Y-107106443D01*
X135854563Y-107083834D01*
X135851144Y-107060779D01*
X135850000Y-107037500D01*
X135850000Y-106562500D01*
X135851144Y-106539221D01*
X135854563Y-106516166D01*
X135860227Y-106493557D01*
X135868079Y-106471613D01*
X135878044Y-106450543D01*
X135890026Y-106430552D01*
X135903910Y-106411832D01*
X135919562Y-106394562D01*
X135936832Y-106378910D01*
X135955552Y-106365026D01*
X135975543Y-106353044D01*
X135996613Y-106343079D01*
X136018557Y-106335227D01*
X136041166Y-106329563D01*
X136064221Y-106326144D01*
X136087500Y-106325000D01*
X136662500Y-106325000D01*
X136685779Y-106326144D01*
G37*
G04 #@! TD.AperFunction*
G04 #@! TA.AperFunction,SMDPad,CuDef*
G36*
X134995779Y-107926144D02*
G01*
X135018834Y-107929563D01*
X135041443Y-107935227D01*
X135063387Y-107943079D01*
X135084457Y-107953044D01*
X135104448Y-107965026D01*
X135123168Y-107978910D01*
X135140438Y-107994562D01*
X135156090Y-108011832D01*
X135169974Y-108030552D01*
X135181956Y-108050543D01*
X135191921Y-108071613D01*
X135199773Y-108093557D01*
X135205437Y-108116166D01*
X135208856Y-108139221D01*
X135210000Y-108162500D01*
X135210000Y-108637500D01*
X135208856Y-108660779D01*
X135205437Y-108683834D01*
X135199773Y-108706443D01*
X135191921Y-108728387D01*
X135181956Y-108749457D01*
X135169974Y-108769448D01*
X135156090Y-108788168D01*
X135140438Y-108805438D01*
X135123168Y-108821090D01*
X135104448Y-108834974D01*
X135084457Y-108846956D01*
X135063387Y-108856921D01*
X135041443Y-108864773D01*
X135018834Y-108870437D01*
X134995779Y-108873856D01*
X134972500Y-108875000D01*
X134397500Y-108875000D01*
X134374221Y-108873856D01*
X134351166Y-108870437D01*
X134328557Y-108864773D01*
X134306613Y-108856921D01*
X134285543Y-108846956D01*
X134265552Y-108834974D01*
X134246832Y-108821090D01*
X134229562Y-108805438D01*
X134213910Y-108788168D01*
X134200026Y-108769448D01*
X134188044Y-108749457D01*
X134178079Y-108728387D01*
X134170227Y-108706443D01*
X134164563Y-108683834D01*
X134161144Y-108660779D01*
X134160000Y-108637500D01*
X134160000Y-108162500D01*
X134161144Y-108139221D01*
X134164563Y-108116166D01*
X134170227Y-108093557D01*
X134178079Y-108071613D01*
X134188044Y-108050543D01*
X134200026Y-108030552D01*
X134213910Y-108011832D01*
X134229562Y-107994562D01*
X134246832Y-107978910D01*
X134265552Y-107965026D01*
X134285543Y-107953044D01*
X134306613Y-107943079D01*
X134328557Y-107935227D01*
X134351166Y-107929563D01*
X134374221Y-107926144D01*
X134397500Y-107925000D01*
X134972500Y-107925000D01*
X134995779Y-107926144D01*
G37*
G04 #@! TD.AperFunction*
G04 #@! TA.AperFunction,SMDPad,CuDef*
G36*
X133245779Y-107926144D02*
G01*
X133268834Y-107929563D01*
X133291443Y-107935227D01*
X133313387Y-107943079D01*
X133334457Y-107953044D01*
X133354448Y-107965026D01*
X133373168Y-107978910D01*
X133390438Y-107994562D01*
X133406090Y-108011832D01*
X133419974Y-108030552D01*
X133431956Y-108050543D01*
X133441921Y-108071613D01*
X133449773Y-108093557D01*
X133455437Y-108116166D01*
X133458856Y-108139221D01*
X133460000Y-108162500D01*
X133460000Y-108637500D01*
X133458856Y-108660779D01*
X133455437Y-108683834D01*
X133449773Y-108706443D01*
X133441921Y-108728387D01*
X133431956Y-108749457D01*
X133419974Y-108769448D01*
X133406090Y-108788168D01*
X133390438Y-108805438D01*
X133373168Y-108821090D01*
X133354448Y-108834974D01*
X133334457Y-108846956D01*
X133313387Y-108856921D01*
X133291443Y-108864773D01*
X133268834Y-108870437D01*
X133245779Y-108873856D01*
X133222500Y-108875000D01*
X132647500Y-108875000D01*
X132624221Y-108873856D01*
X132601166Y-108870437D01*
X132578557Y-108864773D01*
X132556613Y-108856921D01*
X132535543Y-108846956D01*
X132515552Y-108834974D01*
X132496832Y-108821090D01*
X132479562Y-108805438D01*
X132463910Y-108788168D01*
X132450026Y-108769448D01*
X132438044Y-108749457D01*
X132428079Y-108728387D01*
X132420227Y-108706443D01*
X132414563Y-108683834D01*
X132411144Y-108660779D01*
X132410000Y-108637500D01*
X132410000Y-108162500D01*
X132411144Y-108139221D01*
X132414563Y-108116166D01*
X132420227Y-108093557D01*
X132428079Y-108071613D01*
X132438044Y-108050543D01*
X132450026Y-108030552D01*
X132463910Y-108011832D01*
X132479562Y-107994562D01*
X132496832Y-107978910D01*
X132515552Y-107965026D01*
X132535543Y-107953044D01*
X132556613Y-107943079D01*
X132578557Y-107935227D01*
X132601166Y-107929563D01*
X132624221Y-107926144D01*
X132647500Y-107925000D01*
X133222500Y-107925000D01*
X133245779Y-107926144D01*
G37*
G04 #@! TD.AperFunction*
D15*
X109700000Y-108800000D03*
X103000000Y-99800000D03*
X103800000Y-99800000D03*
X103000000Y-101800000D03*
X103800000Y-101800000D03*
X127900000Y-104900000D03*
X127900000Y-102887500D03*
X127900000Y-100875000D03*
X127900000Y-98862500D03*
X127900000Y-96850000D03*
X131533000Y-108694000D03*
X134173000Y-112077000D03*
X134173000Y-109537000D03*
X132803000Y-109537000D03*
X126164000Y-112077000D03*
X130136000Y-112077000D03*
X127434000Y-112077000D03*
X128704000Y-109537000D03*
X135516000Y-109537000D03*
X128704000Y-112077000D03*
X127434000Y-108140000D03*
X131533000Y-109537000D03*
X128704000Y-110807000D03*
X130136000Y-110807000D03*
X128704000Y-108140000D03*
X130136000Y-109537000D03*
X132803000Y-112077000D03*
X127434000Y-110807000D03*
X127434000Y-109537000D03*
X126164000Y-109537000D03*
X131533000Y-110807000D03*
X126164000Y-108140000D03*
X130136000Y-108567000D03*
X132803000Y-110807000D03*
X134173000Y-110807000D03*
X131533000Y-112077000D03*
X136859000Y-109410000D03*
X143082000Y-106997000D03*
X140478500Y-108330500D03*
X138129000Y-110807000D03*
X138129000Y-109537000D03*
X141812000Y-105600000D03*
X140542000Y-112077000D03*
X126164000Y-110807000D03*
X140542000Y-110807000D03*
X143082000Y-108267000D03*
X139272000Y-110807000D03*
X143082000Y-105600000D03*
X139208500Y-108330500D03*
X141875500Y-108203500D03*
X135643000Y-112077000D03*
X143082000Y-109410000D03*
X140542000Y-109537000D03*
X135643000Y-110807000D03*
X141812000Y-104457000D03*
X141939000Y-112077000D03*
X141875500Y-106933500D03*
X141939000Y-109410000D03*
X141939000Y-110807000D03*
X133438000Y-109075000D03*
X143082000Y-110807000D03*
X140478500Y-106933500D03*
X139208500Y-106933500D03*
X143082000Y-112077000D03*
X138129000Y-108394000D03*
X136173200Y-108089200D03*
X138129000Y-112077000D03*
X138357600Y-106565200D03*
X136859000Y-108394000D03*
X139272000Y-109537000D03*
X136986000Y-110807000D03*
X136986000Y-112077000D03*
X139272000Y-112077000D03*
X132400000Y-106200000D03*
X133500000Y-106200000D03*
X133500000Y-107400000D03*
X132600000Y-102540000D03*
X133400000Y-102530000D03*
X133400000Y-104800000D03*
X132602000Y-104800000D03*
X133400000Y-103999000D03*
X132602000Y-103999000D03*
X133400000Y-103199000D03*
X132600000Y-103200000D03*
X147200000Y-100800000D03*
X134400000Y-102400000D03*
X135100000Y-102400000D03*
X134200000Y-100730000D03*
X134200000Y-101400000D03*
X137300000Y-106800000D03*
X135340000Y-99900000D03*
D16*
X130606800Y-104000000D03*
D15*
X113700000Y-108800000D03*
X129140000Y-104650000D03*
X132500000Y-99900000D03*
D17*
X110825000Y-108800000D02*
X109700000Y-108800000D01*
X130984402Y-103500000D02*
X130954401Y-103469999D01*
X131475000Y-103500000D02*
X130984402Y-103500000D01*
X133401000Y-104000000D02*
X133400000Y-103999000D01*
X134525000Y-104000000D02*
X133401000Y-104000000D01*
D18*
X135340000Y-100367500D02*
X135487500Y-100515000D01*
X135340000Y-99910000D02*
X135340000Y-100367500D01*
D17*
X150100000Y-100800000D02*
X147200000Y-100800000D01*
X112575000Y-108800000D02*
X113700000Y-108800000D01*
X131475000Y-104000000D02*
X130606800Y-104000000D01*
X131475000Y-104500000D02*
X130800000Y-104500000D01*
X134525000Y-104500000D02*
X135275000Y-104500000D01*
D18*
X135900000Y-103000000D02*
X135900000Y-101877500D01*
X134525000Y-103500000D02*
X135400000Y-103500000D01*
X135900000Y-101877500D02*
X135487500Y-101465000D01*
X135400000Y-103500000D02*
X135900000Y-103000000D01*
D17*
X134525000Y-105000000D02*
X134525000Y-105375000D01*
D18*
G36*
X134900946Y-105009054D02*
G01*
X134906251Y-105028855D01*
X134927493Y-105135643D01*
X134934720Y-105159467D01*
X134946456Y-105181423D01*
X135009256Y-105275410D01*
X135025050Y-105294656D01*
X135213484Y-105483090D01*
X135257533Y-105549013D01*
X135273000Y-105626773D01*
X135273000Y-108787491D01*
X135257533Y-108865251D01*
X135220570Y-108920570D01*
X135165251Y-108957533D01*
X135087491Y-108973000D01*
X134488983Y-108973000D01*
X134478285Y-108965852D01*
X134360994Y-108917268D01*
X134264383Y-108898051D01*
X134242467Y-108865251D01*
X134227000Y-108787491D01*
X134227000Y-105192509D01*
X134242467Y-105114749D01*
X134279430Y-105059430D01*
X134334749Y-105022467D01*
X134412509Y-105007000D01*
X134893279Y-105007000D01*
X134900946Y-105009054D01*
G37*
X134900946Y-105009054D02*
X134906251Y-105028855D01*
X134927493Y-105135643D01*
X134934720Y-105159467D01*
X134946456Y-105181423D01*
X135009256Y-105275410D01*
X135025050Y-105294656D01*
X135213484Y-105483090D01*
X135257533Y-105549013D01*
X135273000Y-105626773D01*
X135273000Y-108787491D01*
X135257533Y-108865251D01*
X135220570Y-108920570D01*
X135165251Y-108957533D01*
X135087491Y-108973000D01*
X134488983Y-108973000D01*
X134478285Y-108965852D01*
X134360994Y-108917268D01*
X134264383Y-108898051D01*
X134242467Y-108865251D01*
X134227000Y-108787491D01*
X134227000Y-105192509D01*
X134242467Y-105114749D01*
X134279430Y-105059430D01*
X134334749Y-105022467D01*
X134412509Y-105007000D01*
X134893279Y-105007000D01*
X134900946Y-105009054D01*
G36*
X139965251Y-103392467D02*
G01*
X140020570Y-103429430D01*
X140057533Y-103484749D01*
X140073000Y-103562509D01*
X140073000Y-104994076D01*
X140057320Y-105072342D01*
X140019877Y-105127879D01*
X139963932Y-105164705D01*
X139885495Y-105179521D01*
X135806053Y-105134494D01*
X135729486Y-105118604D01*
X135664585Y-105074979D01*
X135316751Y-104727145D01*
X135298206Y-104692450D01*
X135257343Y-104642657D01*
X135207550Y-104601794D01*
X135195391Y-104595295D01*
X135172467Y-104560987D01*
X135157000Y-104483227D01*
X135157000Y-104476773D01*
X135168473Y-104419093D01*
X135207550Y-104398206D01*
X135257343Y-104357343D01*
X135298206Y-104307550D01*
X135328570Y-104250743D01*
X135341505Y-104208101D01*
X136113090Y-103436516D01*
X136179013Y-103392467D01*
X136256773Y-103377000D01*
X139887491Y-103377000D01*
X139965251Y-103392467D01*
G37*
X139965251Y-103392467D02*
X140020570Y-103429430D01*
X140057533Y-103484749D01*
X140073000Y-103562509D01*
X140073000Y-104994076D01*
X140057320Y-105072342D01*
X140019877Y-105127879D01*
X139963932Y-105164705D01*
X139885495Y-105179521D01*
X135806053Y-105134494D01*
X135729486Y-105118604D01*
X135664585Y-105074979D01*
X135316751Y-104727145D01*
X135298206Y-104692450D01*
X135257343Y-104642657D01*
X135207550Y-104601794D01*
X135195391Y-104595295D01*
X135172467Y-104560987D01*
X135157000Y-104483227D01*
X135157000Y-104476773D01*
X135168473Y-104419093D01*
X135207550Y-104398206D01*
X135257343Y-104357343D01*
X135298206Y-104307550D01*
X135328570Y-104250743D01*
X135341505Y-104208101D01*
X136113090Y-103436516D01*
X136179013Y-103392467D01*
X136256773Y-103377000D01*
X139887491Y-103377000D01*
X139965251Y-103392467D01*
G36*
X139965251Y-98742467D02*
G01*
X140020570Y-98779430D01*
X140057533Y-98834749D01*
X140073000Y-98912509D01*
X140073000Y-102687491D01*
X140057533Y-102765251D01*
X140020570Y-102820570D01*
X139965251Y-102857533D01*
X139887491Y-102873000D01*
X136712509Y-102873000D01*
X136634749Y-102857533D01*
X136579430Y-102820570D01*
X136542467Y-102765251D01*
X136527000Y-102687491D01*
X136527000Y-101749812D01*
X136528582Y-101733750D01*
X136528582Y-101246250D01*
X136527000Y-101230188D01*
X136527000Y-100749812D01*
X136528582Y-100733750D01*
X136528582Y-100246250D01*
X136527000Y-100230188D01*
X136527000Y-100000000D01*
X136524560Y-99975224D01*
X136501724Y-99860419D01*
X136494497Y-99836594D01*
X136482761Y-99814637D01*
X136417729Y-99717310D01*
X136401934Y-99698065D01*
X136382690Y-99682271D01*
X136285363Y-99617239D01*
X136263406Y-99605503D01*
X136239581Y-99598276D01*
X136124776Y-99575440D01*
X136100000Y-99573000D01*
X135896638Y-99573000D01*
X135840615Y-99489155D01*
X135750845Y-99399385D01*
X135645285Y-99328852D01*
X135527994Y-99280268D01*
X135403478Y-99255500D01*
X135276522Y-99255500D01*
X135152006Y-99280268D01*
X135034715Y-99328852D01*
X134929155Y-99399385D01*
X134839385Y-99489155D01*
X134783362Y-99573000D01*
X133700000Y-99573000D01*
X133675224Y-99575440D01*
X133560419Y-99598276D01*
X133536594Y-99605503D01*
X133514637Y-99617239D01*
X133417310Y-99682271D01*
X133398065Y-99698066D01*
X133382271Y-99717310D01*
X133317239Y-99814637D01*
X133305503Y-99836594D01*
X133298276Y-99860419D01*
X133275440Y-99975224D01*
X133273000Y-100000000D01*
X133273000Y-100537491D01*
X133257533Y-100615251D01*
X133220570Y-100670570D01*
X133165251Y-100707533D01*
X133087491Y-100723000D01*
X131412509Y-100723000D01*
X131334749Y-100707533D01*
X131279430Y-100670570D01*
X131242467Y-100615251D01*
X131227000Y-100537491D01*
X131227000Y-98912509D01*
X131242467Y-98834749D01*
X131279430Y-98779430D01*
X131334749Y-98742467D01*
X131412509Y-98727000D01*
X139887491Y-98727000D01*
X139965251Y-98742467D01*
G37*
X139965251Y-98742467D02*
X140020570Y-98779430D01*
X140057533Y-98834749D01*
X140073000Y-98912509D01*
X140073000Y-102687491D01*
X140057533Y-102765251D01*
X140020570Y-102820570D01*
X139965251Y-102857533D01*
X139887491Y-102873000D01*
X136712509Y-102873000D01*
X136634749Y-102857533D01*
X136579430Y-102820570D01*
X136542467Y-102765251D01*
X136527000Y-102687491D01*
X136527000Y-101749812D01*
X136528582Y-101733750D01*
X136528582Y-101246250D01*
X136527000Y-101230188D01*
X136527000Y-100749812D01*
X136528582Y-100733750D01*
X136528582Y-100246250D01*
X136527000Y-100230188D01*
X136527000Y-100000000D01*
X136524560Y-99975224D01*
X136501724Y-99860419D01*
X136494497Y-99836594D01*
X136482761Y-99814637D01*
X136417729Y-99717310D01*
X136401934Y-99698065D01*
X136382690Y-99682271D01*
X136285363Y-99617239D01*
X136263406Y-99605503D01*
X136239581Y-99598276D01*
X136124776Y-99575440D01*
X136100000Y-99573000D01*
X135896638Y-99573000D01*
X135840615Y-99489155D01*
X135750845Y-99399385D01*
X135645285Y-99328852D01*
X135527994Y-99280268D01*
X135403478Y-99255500D01*
X135276522Y-99255500D01*
X135152006Y-99280268D01*
X135034715Y-99328852D01*
X134929155Y-99399385D01*
X134839385Y-99489155D01*
X134783362Y-99573000D01*
X133700000Y-99573000D01*
X133675224Y-99575440D01*
X133560419Y-99598276D01*
X133536594Y-99605503D01*
X133514637Y-99617239D01*
X133417310Y-99682271D01*
X133398065Y-99698066D01*
X133382271Y-99717310D01*
X133317239Y-99814637D01*
X133305503Y-99836594D01*
X133298276Y-99860419D01*
X133275440Y-99975224D01*
X133273000Y-100000000D01*
X133273000Y-100537491D01*
X133257533Y-100615251D01*
X133220570Y-100670570D01*
X133165251Y-100707533D01*
X133087491Y-100723000D01*
X131412509Y-100723000D01*
X131334749Y-100707533D01*
X131279430Y-100670570D01*
X131242467Y-100615251D01*
X131227000Y-100537491D01*
X131227000Y-98912509D01*
X131242467Y-98834749D01*
X131279430Y-98779430D01*
X131334749Y-98742467D01*
X131412509Y-98727000D01*
X139887491Y-98727000D01*
X139965251Y-98742467D01*
G36*
X135965251Y-100142467D02*
G01*
X136020570Y-100179430D01*
X136057533Y-100234749D01*
X136073000Y-100312509D01*
X136073000Y-100687491D01*
X136057533Y-100765251D01*
X136043390Y-100786418D01*
X134906250Y-100786418D01*
X134816541Y-100795254D01*
X134730280Y-100821421D01*
X134650781Y-100863914D01*
X134581100Y-100921100D01*
X134523914Y-100990781D01*
X134481421Y-101070280D01*
X134455254Y-101156541D01*
X134446418Y-101246250D01*
X134446418Y-101733750D01*
X134455254Y-101823459D01*
X134481421Y-101909720D01*
X134523914Y-101989219D01*
X134581100Y-102058900D01*
X134650781Y-102116086D01*
X134730280Y-102158579D01*
X134816541Y-102184746D01*
X134818760Y-102184965D01*
X134836594Y-102194497D01*
X134860419Y-102201724D01*
X134975224Y-102224560D01*
X135000000Y-102227000D01*
X135257491Y-102227000D01*
X135335251Y-102242467D01*
X135390570Y-102279430D01*
X135427533Y-102334749D01*
X135443000Y-102412509D01*
X135443000Y-102653227D01*
X135427533Y-102730987D01*
X135383484Y-102796910D01*
X135226910Y-102953484D01*
X135160987Y-102997533D01*
X135083227Y-103013000D01*
X134242511Y-103013000D01*
X134195364Y-103003622D01*
X134165999Y-102984001D01*
X134153582Y-102965418D01*
X134153582Y-102810000D01*
X134147268Y-102745897D01*
X134128570Y-102684257D01*
X134098206Y-102627450D01*
X134057343Y-102577657D01*
X134045156Y-102567655D01*
X134044500Y-102566674D01*
X134044500Y-102466522D01*
X134019732Y-102342006D01*
X133971148Y-102224715D01*
X133900615Y-102119155D01*
X133827000Y-102045540D01*
X133827000Y-100312509D01*
X133842467Y-100234749D01*
X133879430Y-100179430D01*
X133934749Y-100142467D01*
X134012509Y-100127000D01*
X135887491Y-100127000D01*
X135965251Y-100142467D01*
G37*
X135965251Y-100142467D02*
X136020570Y-100179430D01*
X136057533Y-100234749D01*
X136073000Y-100312509D01*
X136073000Y-100687491D01*
X136057533Y-100765251D01*
X136043390Y-100786418D01*
X134906250Y-100786418D01*
X134816541Y-100795254D01*
X134730280Y-100821421D01*
X134650781Y-100863914D01*
X134581100Y-100921100D01*
X134523914Y-100990781D01*
X134481421Y-101070280D01*
X134455254Y-101156541D01*
X134446418Y-101246250D01*
X134446418Y-101733750D01*
X134455254Y-101823459D01*
X134481421Y-101909720D01*
X134523914Y-101989219D01*
X134581100Y-102058900D01*
X134650781Y-102116086D01*
X134730280Y-102158579D01*
X134816541Y-102184746D01*
X134818760Y-102184965D01*
X134836594Y-102194497D01*
X134860419Y-102201724D01*
X134975224Y-102224560D01*
X135000000Y-102227000D01*
X135257491Y-102227000D01*
X135335251Y-102242467D01*
X135390570Y-102279430D01*
X135427533Y-102334749D01*
X135443000Y-102412509D01*
X135443000Y-102653227D01*
X135427533Y-102730987D01*
X135383484Y-102796910D01*
X135226910Y-102953484D01*
X135160987Y-102997533D01*
X135083227Y-103013000D01*
X134242511Y-103013000D01*
X134195364Y-103003622D01*
X134165999Y-102984001D01*
X134153582Y-102965418D01*
X134153582Y-102810000D01*
X134147268Y-102745897D01*
X134128570Y-102684257D01*
X134098206Y-102627450D01*
X134057343Y-102577657D01*
X134045156Y-102567655D01*
X134044500Y-102566674D01*
X134044500Y-102466522D01*
X134019732Y-102342006D01*
X133971148Y-102224715D01*
X133900615Y-102119155D01*
X133827000Y-102045540D01*
X133827000Y-100312509D01*
X133842467Y-100234749D01*
X133879430Y-100179430D01*
X133934749Y-100142467D01*
X134012509Y-100127000D01*
X135887491Y-100127000D01*
X135965251Y-100142467D01*
G36*
X137465251Y-105742467D02*
G01*
X137520570Y-105779430D01*
X137557533Y-105834749D01*
X137573000Y-105912509D01*
X137573000Y-107187491D01*
X137557533Y-107265251D01*
X137520570Y-107320570D01*
X137465251Y-107357533D01*
X137387491Y-107373000D01*
X136012509Y-107373000D01*
X135934749Y-107357533D01*
X135879430Y-107320570D01*
X135842467Y-107265251D01*
X135827000Y-107187491D01*
X135827000Y-105912509D01*
X135842467Y-105834749D01*
X135879430Y-105779430D01*
X135934749Y-105742467D01*
X136012509Y-105727000D01*
X137387491Y-105727000D01*
X137465251Y-105742467D01*
G37*
X137465251Y-105742467D02*
X137520570Y-105779430D01*
X137557533Y-105834749D01*
X137573000Y-105912509D01*
X137573000Y-107187491D01*
X137557533Y-107265251D01*
X137520570Y-107320570D01*
X137465251Y-107357533D01*
X137387491Y-107373000D01*
X136012509Y-107373000D01*
X135934749Y-107357533D01*
X135879430Y-107320570D01*
X135842467Y-107265251D01*
X135827000Y-107187491D01*
X135827000Y-105912509D01*
X135842467Y-105834749D01*
X135879430Y-105779430D01*
X135934749Y-105742467D01*
X136012509Y-105727000D01*
X137387491Y-105727000D01*
X137465251Y-105742467D01*
G36*
X131745251Y-105012467D02*
G01*
X131800570Y-105049430D01*
X131837533Y-105104749D01*
X131846418Y-105149418D01*
X131846418Y-105190000D01*
X131852732Y-105254103D01*
X131853000Y-105254986D01*
X131853000Y-105858575D01*
X131828852Y-105894715D01*
X131780268Y-106012006D01*
X131755500Y-106136522D01*
X131755500Y-106263478D01*
X131780268Y-106387994D01*
X131828852Y-106505285D01*
X131853000Y-106541425D01*
X131853000Y-107193581D01*
X131837601Y-107271180D01*
X131800793Y-107326426D01*
X131745676Y-107363431D01*
X131668134Y-107379105D01*
X130883152Y-107381889D01*
X130805170Y-107366628D01*
X130749653Y-107329711D01*
X130712536Y-107274322D01*
X130697000Y-107196396D01*
X130697000Y-105416773D01*
X130712467Y-105339013D01*
X130756516Y-105273090D01*
X130973090Y-105056516D01*
X131039013Y-105012467D01*
X131116773Y-104997000D01*
X131667491Y-104997000D01*
X131745251Y-105012467D01*
G37*
X131745251Y-105012467D02*
X131800570Y-105049430D01*
X131837533Y-105104749D01*
X131846418Y-105149418D01*
X131846418Y-105190000D01*
X131852732Y-105254103D01*
X131853000Y-105254986D01*
X131853000Y-105858575D01*
X131828852Y-105894715D01*
X131780268Y-106012006D01*
X131755500Y-106136522D01*
X131755500Y-106263478D01*
X131780268Y-106387994D01*
X131828852Y-106505285D01*
X131853000Y-106541425D01*
X131853000Y-107193581D01*
X131837601Y-107271180D01*
X131800793Y-107326426D01*
X131745676Y-107363431D01*
X131668134Y-107379105D01*
X130883152Y-107381889D01*
X130805170Y-107366628D01*
X130749653Y-107329711D01*
X130712536Y-107274322D01*
X130697000Y-107196396D01*
X130697000Y-105416773D01*
X130712467Y-105339013D01*
X130756516Y-105273090D01*
X130973090Y-105056516D01*
X131039013Y-105012467D01*
X131116773Y-104997000D01*
X131667491Y-104997000D01*
X131745251Y-105012467D01*
G36*
X130188303Y-104328010D02*
G01*
X130194967Y-104337983D01*
X130268817Y-104411833D01*
X130355656Y-104469857D01*
X130452146Y-104509824D01*
X130554580Y-104530200D01*
X130659020Y-104530200D01*
X130761454Y-104509824D01*
X130768272Y-104507000D01*
X130811372Y-104507000D01*
X130754683Y-104518276D01*
X130730858Y-104525503D01*
X130708901Y-104537239D01*
X130611574Y-104602271D01*
X130592329Y-104618065D01*
X130268065Y-104942329D01*
X130252271Y-104961574D01*
X130187239Y-105058901D01*
X130175503Y-105080858D01*
X130168276Y-105104683D01*
X130145440Y-105219488D01*
X130143000Y-105244264D01*
X130143000Y-105293279D01*
X130130680Y-105339259D01*
X130109259Y-105360680D01*
X130063279Y-105373000D01*
X129122509Y-105373000D01*
X129044749Y-105357533D01*
X128989430Y-105320570D01*
X128952467Y-105265251D01*
X128937000Y-105187491D01*
X128937000Y-104512509D01*
X128952467Y-104434749D01*
X128989430Y-104379430D01*
X129044749Y-104342467D01*
X129122509Y-104327000D01*
X130183227Y-104327000D01*
X130188303Y-104328010D01*
G37*
X130188303Y-104328010D02*
X130194967Y-104337983D01*
X130268817Y-104411833D01*
X130355656Y-104469857D01*
X130452146Y-104509824D01*
X130554580Y-104530200D01*
X130659020Y-104530200D01*
X130761454Y-104509824D01*
X130768272Y-104507000D01*
X130811372Y-104507000D01*
X130754683Y-104518276D01*
X130730858Y-104525503D01*
X130708901Y-104537239D01*
X130611574Y-104602271D01*
X130592329Y-104618065D01*
X130268065Y-104942329D01*
X130252271Y-104961574D01*
X130187239Y-105058901D01*
X130175503Y-105080858D01*
X130168276Y-105104683D01*
X130145440Y-105219488D01*
X130143000Y-105244264D01*
X130143000Y-105293279D01*
X130130680Y-105339259D01*
X130109259Y-105360680D01*
X130063279Y-105373000D01*
X129122509Y-105373000D01*
X129044749Y-105357533D01*
X128989430Y-105320570D01*
X128952467Y-105265251D01*
X128937000Y-105187491D01*
X128937000Y-104512509D01*
X128952467Y-104434749D01*
X128989430Y-104379430D01*
X129044749Y-104342467D01*
X129122509Y-104327000D01*
X130183227Y-104327000D01*
X130188303Y-104328010D01*
G36*
X128683000Y-102370000D02*
G01*
X128685440Y-102394776D01*
X128692667Y-102418601D01*
X128704403Y-102440557D01*
X128720197Y-102459803D01*
X128739443Y-102475597D01*
X128761399Y-102487333D01*
X128785224Y-102494560D01*
X128810000Y-102497000D01*
X131853000Y-102497000D01*
X131853000Y-102745014D01*
X131852732Y-102745897D01*
X131846418Y-102810000D01*
X131846418Y-103493000D01*
X130768272Y-103493000D01*
X130761454Y-103490176D01*
X130659020Y-103469800D01*
X130554580Y-103469800D01*
X130452146Y-103490176D01*
X130355656Y-103530143D01*
X130268817Y-103588167D01*
X130194967Y-103662017D01*
X130136943Y-103748856D01*
X130118658Y-103793000D01*
X127127000Y-103793000D01*
X127127000Y-99927000D01*
X128683000Y-99927000D01*
X128683000Y-102370000D01*
G37*
X128683000Y-102370000D02*
X128685440Y-102394776D01*
X128692667Y-102418601D01*
X128704403Y-102440557D01*
X128720197Y-102459803D01*
X128739443Y-102475597D01*
X128761399Y-102487333D01*
X128785224Y-102494560D01*
X128810000Y-102497000D01*
X131853000Y-102497000D01*
X131853000Y-102745014D01*
X131852732Y-102745897D01*
X131846418Y-102810000D01*
X131846418Y-103493000D01*
X130768272Y-103493000D01*
X130761454Y-103490176D01*
X130659020Y-103469800D01*
X130554580Y-103469800D01*
X130452146Y-103490176D01*
X130355656Y-103530143D01*
X130268817Y-103588167D01*
X130194967Y-103662017D01*
X130136943Y-103748856D01*
X130118658Y-103793000D01*
X127127000Y-103793000D01*
X127127000Y-99927000D01*
X128683000Y-99927000D01*
X128683000Y-102370000D01*
G36*
X107583161Y-102373000D02*
G01*
X102352000Y-102373000D01*
X102352000Y-99127000D01*
X107583161Y-99127000D01*
X107583161Y-102373000D01*
G37*
X107583161Y-102373000D02*
X102352000Y-102373000D01*
X102352000Y-99127000D01*
X107583161Y-99127000D01*
X107583161Y-102373000D01*
G36*
X152648000Y-94145803D02*
G01*
X152648000Y-99771817D01*
X152582913Y-99752073D01*
X152460000Y-99739967D01*
X147740000Y-99739967D01*
X147617087Y-99752073D01*
X147498897Y-99787925D01*
X147389972Y-99846147D01*
X147294499Y-99924499D01*
X147216147Y-100019972D01*
X147157925Y-100128897D01*
X147149855Y-100155500D01*
X147136522Y-100155500D01*
X147012006Y-100180268D01*
X146894715Y-100228852D01*
X146789155Y-100299385D01*
X146699385Y-100389155D01*
X146628852Y-100494715D01*
X146580268Y-100612006D01*
X146555500Y-100736522D01*
X146555500Y-100863478D01*
X146580268Y-100987994D01*
X146628852Y-101105285D01*
X146699385Y-101210845D01*
X146789155Y-101300615D01*
X146894715Y-101371148D01*
X147012006Y-101419732D01*
X147136522Y-101444500D01*
X147149855Y-101444500D01*
X147157925Y-101471103D01*
X147216147Y-101580028D01*
X147294499Y-101675501D01*
X147389972Y-101753853D01*
X147498897Y-101812075D01*
X147617087Y-101847927D01*
X147740000Y-101860033D01*
X152460000Y-101860033D01*
X152582913Y-101847927D01*
X152648001Y-101828183D01*
X152648001Y-108854196D01*
X151854198Y-109648000D01*
X146917289Y-109648000D01*
X146900000Y-109646297D01*
X146882711Y-109648000D01*
X146882708Y-109648000D01*
X146830996Y-109653093D01*
X146780086Y-109668536D01*
X146764643Y-109673221D01*
X146703493Y-109705907D01*
X146663325Y-109738871D01*
X146663322Y-109738874D01*
X146649894Y-109749894D01*
X146638874Y-109763322D01*
X143754198Y-112648000D01*
X125445804Y-112648000D01*
X122561135Y-109763333D01*
X122550106Y-109749894D01*
X122496507Y-109705907D01*
X122435356Y-109673221D01*
X122369004Y-109653093D01*
X122317292Y-109648000D01*
X122317289Y-109648000D01*
X122300000Y-109646297D01*
X122282711Y-109648000D01*
X103145803Y-109648000D01*
X102352000Y-108854198D01*
X102352000Y-108736522D01*
X109055500Y-108736522D01*
X109055500Y-108863478D01*
X109080268Y-108987994D01*
X109128852Y-109105285D01*
X109199385Y-109210845D01*
X109289155Y-109300615D01*
X109394715Y-109371148D01*
X109512006Y-109419732D01*
X109636522Y-109444500D01*
X109763478Y-109444500D01*
X109887994Y-109419732D01*
X110005285Y-109371148D01*
X110058169Y-109335812D01*
X110066820Y-109351998D01*
X110137220Y-109437780D01*
X110223002Y-109508180D01*
X110320870Y-109560492D01*
X110427063Y-109592705D01*
X110537500Y-109603582D01*
X111112500Y-109603582D01*
X111222937Y-109592705D01*
X111329130Y-109560492D01*
X111426998Y-109508180D01*
X111512780Y-109437780D01*
X111583180Y-109351998D01*
X111635492Y-109254130D01*
X111667705Y-109147937D01*
X111678582Y-109037500D01*
X111678582Y-108562500D01*
X111721418Y-108562500D01*
X111721418Y-109037500D01*
X111732295Y-109147937D01*
X111764508Y-109254130D01*
X111816820Y-109351998D01*
X111887220Y-109437780D01*
X111973002Y-109508180D01*
X112070870Y-109560492D01*
X112177063Y-109592705D01*
X112287500Y-109603582D01*
X112862500Y-109603582D01*
X112972937Y-109592705D01*
X113079130Y-109560492D01*
X113176998Y-109508180D01*
X113262780Y-109437780D01*
X113333180Y-109351998D01*
X113341831Y-109335812D01*
X113394715Y-109371148D01*
X113512006Y-109419732D01*
X113636522Y-109444500D01*
X113763478Y-109444500D01*
X113887994Y-109419732D01*
X114005285Y-109371148D01*
X114110845Y-109300615D01*
X114200615Y-109210845D01*
X114271148Y-109105285D01*
X114319732Y-108987994D01*
X114344500Y-108863478D01*
X114344500Y-108736522D01*
X114319732Y-108612006D01*
X114271148Y-108494715D01*
X114200615Y-108389155D01*
X114110845Y-108299385D01*
X114005285Y-108228852D01*
X113887994Y-108180268D01*
X113763478Y-108155500D01*
X113636522Y-108155500D01*
X113512006Y-108180268D01*
X113394715Y-108228852D01*
X113341831Y-108264188D01*
X113333180Y-108248002D01*
X113262780Y-108162220D01*
X113176998Y-108091820D01*
X113079130Y-108039508D01*
X112972937Y-108007295D01*
X112862500Y-107996418D01*
X112287500Y-107996418D01*
X112177063Y-108007295D01*
X112070870Y-108039508D01*
X111973002Y-108091820D01*
X111887220Y-108162220D01*
X111816820Y-108248002D01*
X111764508Y-108345870D01*
X111732295Y-108452063D01*
X111721418Y-108562500D01*
X111678582Y-108562500D01*
X111667705Y-108452063D01*
X111635492Y-108345870D01*
X111583180Y-108248002D01*
X111512780Y-108162220D01*
X111426998Y-108091820D01*
X111329130Y-108039508D01*
X111222937Y-108007295D01*
X111112500Y-107996418D01*
X110537500Y-107996418D01*
X110427063Y-108007295D01*
X110320870Y-108039508D01*
X110223002Y-108091820D01*
X110137220Y-108162220D01*
X110066820Y-108248002D01*
X110058169Y-108264188D01*
X110005285Y-108228852D01*
X109887994Y-108180268D01*
X109763478Y-108155500D01*
X109636522Y-108155500D01*
X109512006Y-108180268D01*
X109394715Y-108228852D01*
X109289155Y-108299385D01*
X109199385Y-108389155D01*
X109128852Y-108494715D01*
X109080268Y-108612006D01*
X109055500Y-108736522D01*
X102352000Y-108736522D01*
X102352000Y-102927000D01*
X107700000Y-102927000D01*
X107724776Y-102924560D01*
X107839581Y-102901724D01*
X107863406Y-102894497D01*
X107885363Y-102882761D01*
X107982690Y-102817729D01*
X108001935Y-102801934D01*
X108017729Y-102782690D01*
X108082761Y-102685363D01*
X108094497Y-102663406D01*
X108101724Y-102639581D01*
X108124560Y-102524776D01*
X108127000Y-102500000D01*
X108127000Y-99790000D01*
X126573000Y-99790000D01*
X126573000Y-103900000D01*
X126575440Y-103924776D01*
X126598276Y-104039581D01*
X126605503Y-104063406D01*
X126617239Y-104085363D01*
X126682271Y-104182690D01*
X126698066Y-104201935D01*
X126717310Y-104217729D01*
X126814637Y-104282761D01*
X126836594Y-104294497D01*
X126860419Y-104301724D01*
X126975224Y-104324560D01*
X127000000Y-104327000D01*
X127599186Y-104327000D01*
X127594715Y-104328852D01*
X127489155Y-104399385D01*
X127399385Y-104489155D01*
X127328852Y-104594715D01*
X127280268Y-104712006D01*
X127255500Y-104836522D01*
X127255500Y-104963478D01*
X127280268Y-105087994D01*
X127328852Y-105205285D01*
X127399385Y-105310845D01*
X127489155Y-105400615D01*
X127594715Y-105471148D01*
X127712006Y-105519732D01*
X127836522Y-105544500D01*
X127963478Y-105544500D01*
X128087994Y-105519732D01*
X128205285Y-105471148D01*
X128310845Y-105400615D01*
X128373000Y-105338460D01*
X128373000Y-105500000D01*
X128375440Y-105524776D01*
X128398276Y-105639581D01*
X128405503Y-105663406D01*
X128417239Y-105685363D01*
X128482271Y-105782690D01*
X128498066Y-105801935D01*
X128517310Y-105817729D01*
X128614637Y-105882761D01*
X128636594Y-105894497D01*
X128660419Y-105901724D01*
X128775224Y-105924560D01*
X128800000Y-105927000D01*
X129987491Y-105927000D01*
X130065251Y-105942467D01*
X130120570Y-105979430D01*
X130157533Y-106034749D01*
X130173000Y-106112509D01*
X130173000Y-107500000D01*
X130175440Y-107524776D01*
X130198276Y-107639581D01*
X130205503Y-107663406D01*
X130217239Y-107685363D01*
X130282271Y-107782690D01*
X130298066Y-107801935D01*
X130317310Y-107817729D01*
X130414637Y-107882761D01*
X130436594Y-107894497D01*
X130460419Y-107901724D01*
X130575224Y-107924560D01*
X130600000Y-107927000D01*
X131950000Y-107927000D01*
X131974776Y-107924560D01*
X132089581Y-107901724D01*
X132113406Y-107894497D01*
X132135363Y-107882761D01*
X132232690Y-107817729D01*
X132251935Y-107801934D01*
X132267729Y-107782690D01*
X132332761Y-107685363D01*
X132344497Y-107663406D01*
X132351724Y-107639581D01*
X132374560Y-107524776D01*
X132377000Y-107500000D01*
X132377000Y-102370000D01*
X132374560Y-102345224D01*
X132351724Y-102230419D01*
X132344497Y-102206594D01*
X132332761Y-102184637D01*
X132267729Y-102087310D01*
X132251934Y-102068065D01*
X132232690Y-102052271D01*
X132135363Y-101987239D01*
X132113406Y-101975503D01*
X132089581Y-101968276D01*
X131974776Y-101945440D01*
X131950000Y-101943000D01*
X129412509Y-101943000D01*
X129334749Y-101927533D01*
X129279430Y-101890570D01*
X129242467Y-101835251D01*
X129227000Y-101757491D01*
X129227000Y-99790000D01*
X129224560Y-99765224D01*
X129201724Y-99650419D01*
X129194497Y-99626594D01*
X129182761Y-99604637D01*
X129117729Y-99507310D01*
X129101934Y-99488065D01*
X129082690Y-99472271D01*
X128985363Y-99407239D01*
X128963406Y-99395503D01*
X128939581Y-99388276D01*
X128824776Y-99365440D01*
X128800000Y-99363000D01*
X128310960Y-99363000D01*
X128400615Y-99273345D01*
X128471148Y-99167785D01*
X128519732Y-99050494D01*
X128544500Y-98925978D01*
X128544500Y-98799022D01*
X128519732Y-98674506D01*
X128488871Y-98600000D01*
X130673000Y-98600000D01*
X130673000Y-100850000D01*
X130675440Y-100874776D01*
X130698276Y-100989581D01*
X130705503Y-101013406D01*
X130717239Y-101035363D01*
X130782271Y-101132690D01*
X130798066Y-101151935D01*
X130817310Y-101167729D01*
X130914637Y-101232761D01*
X130936594Y-101244497D01*
X130960419Y-101251724D01*
X131075224Y-101274560D01*
X131100000Y-101277000D01*
X133087491Y-101277000D01*
X133165251Y-101292467D01*
X133220570Y-101329430D01*
X133257533Y-101384749D01*
X133273000Y-101462509D01*
X133273000Y-102385736D01*
X133275440Y-102410512D01*
X133298276Y-102525317D01*
X133305503Y-102549142D01*
X133317239Y-102571099D01*
X133382271Y-102668426D01*
X133398065Y-102687671D01*
X133613484Y-102903090D01*
X133657533Y-102969013D01*
X133673000Y-103046773D01*
X133673000Y-109100000D01*
X133675440Y-109124776D01*
X133698276Y-109239581D01*
X133705503Y-109263406D01*
X133717239Y-109285363D01*
X133782271Y-109382690D01*
X133798066Y-109401935D01*
X133817310Y-109417729D01*
X133914637Y-109482761D01*
X133936594Y-109494497D01*
X133960419Y-109501724D01*
X134075224Y-109524560D01*
X134100000Y-109527000D01*
X135399941Y-109527000D01*
X135424721Y-109524559D01*
X135539540Y-109501717D01*
X135563364Y-109494489D01*
X135585325Y-109482749D01*
X135682659Y-109417702D01*
X135701903Y-109401907D01*
X135717699Y-109382656D01*
X135782727Y-109285309D01*
X135794461Y-109263350D01*
X135801686Y-109239519D01*
X135824505Y-109124697D01*
X135826941Y-109099917D01*
X135826749Y-108112543D01*
X135842205Y-108034772D01*
X135879166Y-107979441D01*
X135934486Y-107942472D01*
X136012257Y-107927000D01*
X137700136Y-107927000D01*
X137724913Y-107924560D01*
X137839723Y-107901722D01*
X137863548Y-107894494D01*
X137885507Y-107882756D01*
X137982836Y-107817718D01*
X138002081Y-107801923D01*
X138017874Y-107782677D01*
X138082905Y-107685343D01*
X138094641Y-107663386D01*
X138101867Y-107639559D01*
X138124697Y-107524748D01*
X138127136Y-107499970D01*
X138127022Y-105912520D01*
X138142485Y-105834756D01*
X138179447Y-105779435D01*
X138234765Y-105742469D01*
X138312532Y-105727000D01*
X140200000Y-105727000D01*
X140224776Y-105724560D01*
X140339581Y-105701724D01*
X140363406Y-105694497D01*
X140385363Y-105682761D01*
X140482690Y-105617729D01*
X140501935Y-105601934D01*
X140517729Y-105582690D01*
X140582761Y-105485363D01*
X140594497Y-105463406D01*
X140601724Y-105439581D01*
X140624560Y-105324776D01*
X140627000Y-105300000D01*
X140627000Y-98600000D01*
X140624560Y-98575224D01*
X140601724Y-98460419D01*
X140594497Y-98436594D01*
X140582761Y-98414637D01*
X140517729Y-98317310D01*
X140501934Y-98298065D01*
X140482690Y-98282271D01*
X140385363Y-98217239D01*
X140363406Y-98205503D01*
X140339581Y-98198276D01*
X140224776Y-98175440D01*
X140200000Y-98173000D01*
X131100000Y-98173000D01*
X131075224Y-98175440D01*
X130960419Y-98198276D01*
X130936594Y-98205503D01*
X130914637Y-98217239D01*
X130817310Y-98282271D01*
X130798065Y-98298066D01*
X130782271Y-98317310D01*
X130717239Y-98414637D01*
X130705503Y-98436594D01*
X130698276Y-98460419D01*
X130675440Y-98575224D01*
X130673000Y-98600000D01*
X128488871Y-98600000D01*
X128471148Y-98557215D01*
X128400615Y-98451655D01*
X128310845Y-98361885D01*
X128205285Y-98291352D01*
X128087994Y-98242768D01*
X127963478Y-98218000D01*
X127836522Y-98218000D01*
X127712006Y-98242768D01*
X127594715Y-98291352D01*
X127489155Y-98361885D01*
X127399385Y-98451655D01*
X127328852Y-98557215D01*
X127280268Y-98674506D01*
X127255500Y-98799022D01*
X127255500Y-98925978D01*
X127280268Y-99050494D01*
X127328852Y-99167785D01*
X127399385Y-99273345D01*
X127489040Y-99363000D01*
X127000000Y-99363000D01*
X126975224Y-99365440D01*
X126860419Y-99388276D01*
X126836594Y-99395503D01*
X126814637Y-99407239D01*
X126717310Y-99472271D01*
X126698065Y-99488066D01*
X126682271Y-99507310D01*
X126617239Y-99604637D01*
X126605503Y-99626594D01*
X126598276Y-99650419D01*
X126575440Y-99765224D01*
X126573000Y-99790000D01*
X108127000Y-99790000D01*
X108127000Y-99000000D01*
X108124560Y-98975224D01*
X108101724Y-98860419D01*
X108094497Y-98836594D01*
X108082761Y-98814637D01*
X108017729Y-98717310D01*
X108001934Y-98698065D01*
X107982690Y-98682271D01*
X107885363Y-98617239D01*
X107863406Y-98605503D01*
X107839581Y-98598276D01*
X107724776Y-98575440D01*
X107700000Y-98573000D01*
X102352000Y-98573000D01*
X102352000Y-96786522D01*
X127255500Y-96786522D01*
X127255500Y-96913478D01*
X127280268Y-97037994D01*
X127328852Y-97155285D01*
X127399385Y-97260845D01*
X127489155Y-97350615D01*
X127594715Y-97421148D01*
X127712006Y-97469732D01*
X127836522Y-97494500D01*
X127963478Y-97494500D01*
X128087994Y-97469732D01*
X128205285Y-97421148D01*
X128310845Y-97350615D01*
X128400615Y-97260845D01*
X128471148Y-97155285D01*
X128519732Y-97037994D01*
X128544500Y-96913478D01*
X128544500Y-96786522D01*
X128519732Y-96662006D01*
X128471148Y-96544715D01*
X128400615Y-96439155D01*
X128310845Y-96349385D01*
X128205285Y-96278852D01*
X128087994Y-96230268D01*
X127963478Y-96205500D01*
X127836522Y-96205500D01*
X127712006Y-96230268D01*
X127594715Y-96278852D01*
X127489155Y-96349385D01*
X127399385Y-96439155D01*
X127328852Y-96544715D01*
X127280268Y-96662006D01*
X127255500Y-96786522D01*
X102352000Y-96786522D01*
X102352000Y-94145802D01*
X103145803Y-93352000D01*
X151854198Y-93352000D01*
X152648000Y-94145803D01*
G37*
X152648000Y-94145803D02*
X152648000Y-99771817D01*
X152582913Y-99752073D01*
X152460000Y-99739967D01*
X147740000Y-99739967D01*
X147617087Y-99752073D01*
X147498897Y-99787925D01*
X147389972Y-99846147D01*
X147294499Y-99924499D01*
X147216147Y-100019972D01*
X147157925Y-100128897D01*
X147149855Y-100155500D01*
X147136522Y-100155500D01*
X147012006Y-100180268D01*
X146894715Y-100228852D01*
X146789155Y-100299385D01*
X146699385Y-100389155D01*
X146628852Y-100494715D01*
X146580268Y-100612006D01*
X146555500Y-100736522D01*
X146555500Y-100863478D01*
X146580268Y-100987994D01*
X146628852Y-101105285D01*
X146699385Y-101210845D01*
X146789155Y-101300615D01*
X146894715Y-101371148D01*
X147012006Y-101419732D01*
X147136522Y-101444500D01*
X147149855Y-101444500D01*
X147157925Y-101471103D01*
X147216147Y-101580028D01*
X147294499Y-101675501D01*
X147389972Y-101753853D01*
X147498897Y-101812075D01*
X147617087Y-101847927D01*
X147740000Y-101860033D01*
X152460000Y-101860033D01*
X152582913Y-101847927D01*
X152648001Y-101828183D01*
X152648001Y-108854196D01*
X151854198Y-109648000D01*
X146917289Y-109648000D01*
X146900000Y-109646297D01*
X146882711Y-109648000D01*
X146882708Y-109648000D01*
X146830996Y-109653093D01*
X146780086Y-109668536D01*
X146764643Y-109673221D01*
X146703493Y-109705907D01*
X146663325Y-109738871D01*
X146663322Y-109738874D01*
X146649894Y-109749894D01*
X146638874Y-109763322D01*
X143754198Y-112648000D01*
X125445804Y-112648000D01*
X122561135Y-109763333D01*
X122550106Y-109749894D01*
X122496507Y-109705907D01*
X122435356Y-109673221D01*
X122369004Y-109653093D01*
X122317292Y-109648000D01*
X122317289Y-109648000D01*
X122300000Y-109646297D01*
X122282711Y-109648000D01*
X103145803Y-109648000D01*
X102352000Y-108854198D01*
X102352000Y-108736522D01*
X109055500Y-108736522D01*
X109055500Y-108863478D01*
X109080268Y-108987994D01*
X109128852Y-109105285D01*
X109199385Y-109210845D01*
X109289155Y-109300615D01*
X109394715Y-109371148D01*
X109512006Y-109419732D01*
X109636522Y-109444500D01*
X109763478Y-109444500D01*
X109887994Y-109419732D01*
X110005285Y-109371148D01*
X110058169Y-109335812D01*
X110066820Y-109351998D01*
X110137220Y-109437780D01*
X110223002Y-109508180D01*
X110320870Y-109560492D01*
X110427063Y-109592705D01*
X110537500Y-109603582D01*
X111112500Y-109603582D01*
X111222937Y-109592705D01*
X111329130Y-109560492D01*
X111426998Y-109508180D01*
X111512780Y-109437780D01*
X111583180Y-109351998D01*
X111635492Y-109254130D01*
X111667705Y-109147937D01*
X111678582Y-109037500D01*
X111678582Y-108562500D01*
X111721418Y-108562500D01*
X111721418Y-109037500D01*
X111732295Y-109147937D01*
X111764508Y-109254130D01*
X111816820Y-109351998D01*
X111887220Y-109437780D01*
X111973002Y-109508180D01*
X112070870Y-109560492D01*
X112177063Y-109592705D01*
X112287500Y-109603582D01*
X112862500Y-109603582D01*
X112972937Y-109592705D01*
X113079130Y-109560492D01*
X113176998Y-109508180D01*
X113262780Y-109437780D01*
X113333180Y-109351998D01*
X113341831Y-109335812D01*
X113394715Y-109371148D01*
X113512006Y-109419732D01*
X113636522Y-109444500D01*
X113763478Y-109444500D01*
X113887994Y-109419732D01*
X114005285Y-109371148D01*
X114110845Y-109300615D01*
X114200615Y-109210845D01*
X114271148Y-109105285D01*
X114319732Y-108987994D01*
X114344500Y-108863478D01*
X114344500Y-108736522D01*
X114319732Y-108612006D01*
X114271148Y-108494715D01*
X114200615Y-108389155D01*
X114110845Y-108299385D01*
X114005285Y-108228852D01*
X113887994Y-108180268D01*
X113763478Y-108155500D01*
X113636522Y-108155500D01*
X113512006Y-108180268D01*
X113394715Y-108228852D01*
X113341831Y-108264188D01*
X113333180Y-108248002D01*
X113262780Y-108162220D01*
X113176998Y-108091820D01*
X113079130Y-108039508D01*
X112972937Y-108007295D01*
X112862500Y-107996418D01*
X112287500Y-107996418D01*
X112177063Y-108007295D01*
X112070870Y-108039508D01*
X111973002Y-108091820D01*
X111887220Y-108162220D01*
X111816820Y-108248002D01*
X111764508Y-108345870D01*
X111732295Y-108452063D01*
X111721418Y-108562500D01*
X111678582Y-108562500D01*
X111667705Y-108452063D01*
X111635492Y-108345870D01*
X111583180Y-108248002D01*
X111512780Y-108162220D01*
X111426998Y-108091820D01*
X111329130Y-108039508D01*
X111222937Y-108007295D01*
X111112500Y-107996418D01*
X110537500Y-107996418D01*
X110427063Y-108007295D01*
X110320870Y-108039508D01*
X110223002Y-108091820D01*
X110137220Y-108162220D01*
X110066820Y-108248002D01*
X110058169Y-108264188D01*
X110005285Y-108228852D01*
X109887994Y-108180268D01*
X109763478Y-108155500D01*
X109636522Y-108155500D01*
X109512006Y-108180268D01*
X109394715Y-108228852D01*
X109289155Y-108299385D01*
X109199385Y-108389155D01*
X109128852Y-108494715D01*
X109080268Y-108612006D01*
X109055500Y-108736522D01*
X102352000Y-108736522D01*
X102352000Y-102927000D01*
X107700000Y-102927000D01*
X107724776Y-102924560D01*
X107839581Y-102901724D01*
X107863406Y-102894497D01*
X107885363Y-102882761D01*
X107982690Y-102817729D01*
X108001935Y-102801934D01*
X108017729Y-102782690D01*
X108082761Y-102685363D01*
X108094497Y-102663406D01*
X108101724Y-102639581D01*
X108124560Y-102524776D01*
X108127000Y-102500000D01*
X108127000Y-99790000D01*
X126573000Y-99790000D01*
X126573000Y-103900000D01*
X126575440Y-103924776D01*
X126598276Y-104039581D01*
X126605503Y-104063406D01*
X126617239Y-104085363D01*
X126682271Y-104182690D01*
X126698066Y-104201935D01*
X126717310Y-104217729D01*
X126814637Y-104282761D01*
X126836594Y-104294497D01*
X126860419Y-104301724D01*
X126975224Y-104324560D01*
X127000000Y-104327000D01*
X127599186Y-104327000D01*
X127594715Y-104328852D01*
X127489155Y-104399385D01*
X127399385Y-104489155D01*
X127328852Y-104594715D01*
X127280268Y-104712006D01*
X127255500Y-104836522D01*
X127255500Y-104963478D01*
X127280268Y-105087994D01*
X127328852Y-105205285D01*
X127399385Y-105310845D01*
X127489155Y-105400615D01*
X127594715Y-105471148D01*
X127712006Y-105519732D01*
X127836522Y-105544500D01*
X127963478Y-105544500D01*
X128087994Y-105519732D01*
X128205285Y-105471148D01*
X128310845Y-105400615D01*
X128373000Y-105338460D01*
X128373000Y-105500000D01*
X128375440Y-105524776D01*
X128398276Y-105639581D01*
X128405503Y-105663406D01*
X128417239Y-105685363D01*
X128482271Y-105782690D01*
X128498066Y-105801935D01*
X128517310Y-105817729D01*
X128614637Y-105882761D01*
X128636594Y-105894497D01*
X128660419Y-105901724D01*
X128775224Y-105924560D01*
X128800000Y-105927000D01*
X129987491Y-105927000D01*
X130065251Y-105942467D01*
X130120570Y-105979430D01*
X130157533Y-106034749D01*
X130173000Y-106112509D01*
X130173000Y-107500000D01*
X130175440Y-107524776D01*
X130198276Y-107639581D01*
X130205503Y-107663406D01*
X130217239Y-107685363D01*
X130282271Y-107782690D01*
X130298066Y-107801935D01*
X130317310Y-107817729D01*
X130414637Y-107882761D01*
X130436594Y-107894497D01*
X130460419Y-107901724D01*
X130575224Y-107924560D01*
X130600000Y-107927000D01*
X131950000Y-107927000D01*
X131974776Y-107924560D01*
X132089581Y-107901724D01*
X132113406Y-107894497D01*
X132135363Y-107882761D01*
X132232690Y-107817729D01*
X132251935Y-107801934D01*
X132267729Y-107782690D01*
X132332761Y-107685363D01*
X132344497Y-107663406D01*
X132351724Y-107639581D01*
X132374560Y-107524776D01*
X132377000Y-107500000D01*
X132377000Y-102370000D01*
X132374560Y-102345224D01*
X132351724Y-102230419D01*
X132344497Y-102206594D01*
X132332761Y-102184637D01*
X132267729Y-102087310D01*
X132251934Y-102068065D01*
X132232690Y-102052271D01*
X132135363Y-101987239D01*
X132113406Y-101975503D01*
X132089581Y-101968276D01*
X131974776Y-101945440D01*
X131950000Y-101943000D01*
X129412509Y-101943000D01*
X129334749Y-101927533D01*
X129279430Y-101890570D01*
X129242467Y-101835251D01*
X129227000Y-101757491D01*
X129227000Y-99790000D01*
X129224560Y-99765224D01*
X129201724Y-99650419D01*
X129194497Y-99626594D01*
X129182761Y-99604637D01*
X129117729Y-99507310D01*
X129101934Y-99488065D01*
X129082690Y-99472271D01*
X128985363Y-99407239D01*
X128963406Y-99395503D01*
X128939581Y-99388276D01*
X128824776Y-99365440D01*
X128800000Y-99363000D01*
X128310960Y-99363000D01*
X128400615Y-99273345D01*
X128471148Y-99167785D01*
X128519732Y-99050494D01*
X128544500Y-98925978D01*
X128544500Y-98799022D01*
X128519732Y-98674506D01*
X128488871Y-98600000D01*
X130673000Y-98600000D01*
X130673000Y-100850000D01*
X130675440Y-100874776D01*
X130698276Y-100989581D01*
X130705503Y-101013406D01*
X130717239Y-101035363D01*
X130782271Y-101132690D01*
X130798066Y-101151935D01*
X130817310Y-101167729D01*
X130914637Y-101232761D01*
X130936594Y-101244497D01*
X130960419Y-101251724D01*
X131075224Y-101274560D01*
X131100000Y-101277000D01*
X133087491Y-101277000D01*
X133165251Y-101292467D01*
X133220570Y-101329430D01*
X133257533Y-101384749D01*
X133273000Y-101462509D01*
X133273000Y-102385736D01*
X133275440Y-102410512D01*
X133298276Y-102525317D01*
X133305503Y-102549142D01*
X133317239Y-102571099D01*
X133382271Y-102668426D01*
X133398065Y-102687671D01*
X133613484Y-102903090D01*
X133657533Y-102969013D01*
X133673000Y-103046773D01*
X133673000Y-109100000D01*
X133675440Y-109124776D01*
X133698276Y-109239581D01*
X133705503Y-109263406D01*
X133717239Y-109285363D01*
X133782271Y-109382690D01*
X133798066Y-109401935D01*
X133817310Y-109417729D01*
X133914637Y-109482761D01*
X133936594Y-109494497D01*
X133960419Y-109501724D01*
X134075224Y-109524560D01*
X134100000Y-109527000D01*
X135399941Y-109527000D01*
X135424721Y-109524559D01*
X135539540Y-109501717D01*
X135563364Y-109494489D01*
X135585325Y-109482749D01*
X135682659Y-109417702D01*
X135701903Y-109401907D01*
X135717699Y-109382656D01*
X135782727Y-109285309D01*
X135794461Y-109263350D01*
X135801686Y-109239519D01*
X135824505Y-109124697D01*
X135826941Y-109099917D01*
X135826749Y-108112543D01*
X135842205Y-108034772D01*
X135879166Y-107979441D01*
X135934486Y-107942472D01*
X136012257Y-107927000D01*
X137700136Y-107927000D01*
X137724913Y-107924560D01*
X137839723Y-107901722D01*
X137863548Y-107894494D01*
X137885507Y-107882756D01*
X137982836Y-107817718D01*
X138002081Y-107801923D01*
X138017874Y-107782677D01*
X138082905Y-107685343D01*
X138094641Y-107663386D01*
X138101867Y-107639559D01*
X138124697Y-107524748D01*
X138127136Y-107499970D01*
X138127022Y-105912520D01*
X138142485Y-105834756D01*
X138179447Y-105779435D01*
X138234765Y-105742469D01*
X138312532Y-105727000D01*
X140200000Y-105727000D01*
X140224776Y-105724560D01*
X140339581Y-105701724D01*
X140363406Y-105694497D01*
X140385363Y-105682761D01*
X140482690Y-105617729D01*
X140501935Y-105601934D01*
X140517729Y-105582690D01*
X140582761Y-105485363D01*
X140594497Y-105463406D01*
X140601724Y-105439581D01*
X140624560Y-105324776D01*
X140627000Y-105300000D01*
X140627000Y-98600000D01*
X140624560Y-98575224D01*
X140601724Y-98460419D01*
X140594497Y-98436594D01*
X140582761Y-98414637D01*
X140517729Y-98317310D01*
X140501934Y-98298065D01*
X140482690Y-98282271D01*
X140385363Y-98217239D01*
X140363406Y-98205503D01*
X140339581Y-98198276D01*
X140224776Y-98175440D01*
X140200000Y-98173000D01*
X131100000Y-98173000D01*
X131075224Y-98175440D01*
X130960419Y-98198276D01*
X130936594Y-98205503D01*
X130914637Y-98217239D01*
X130817310Y-98282271D01*
X130798065Y-98298066D01*
X130782271Y-98317310D01*
X130717239Y-98414637D01*
X130705503Y-98436594D01*
X130698276Y-98460419D01*
X130675440Y-98575224D01*
X130673000Y-98600000D01*
X128488871Y-98600000D01*
X128471148Y-98557215D01*
X128400615Y-98451655D01*
X128310845Y-98361885D01*
X128205285Y-98291352D01*
X128087994Y-98242768D01*
X127963478Y-98218000D01*
X127836522Y-98218000D01*
X127712006Y-98242768D01*
X127594715Y-98291352D01*
X127489155Y-98361885D01*
X127399385Y-98451655D01*
X127328852Y-98557215D01*
X127280268Y-98674506D01*
X127255500Y-98799022D01*
X127255500Y-98925978D01*
X127280268Y-99050494D01*
X127328852Y-99167785D01*
X127399385Y-99273345D01*
X127489040Y-99363000D01*
X127000000Y-99363000D01*
X126975224Y-99365440D01*
X126860419Y-99388276D01*
X126836594Y-99395503D01*
X126814637Y-99407239D01*
X126717310Y-99472271D01*
X126698065Y-99488066D01*
X126682271Y-99507310D01*
X126617239Y-99604637D01*
X126605503Y-99626594D01*
X126598276Y-99650419D01*
X126575440Y-99765224D01*
X126573000Y-99790000D01*
X108127000Y-99790000D01*
X108127000Y-99000000D01*
X108124560Y-98975224D01*
X108101724Y-98860419D01*
X108094497Y-98836594D01*
X108082761Y-98814637D01*
X108017729Y-98717310D01*
X108001934Y-98698065D01*
X107982690Y-98682271D01*
X107885363Y-98617239D01*
X107863406Y-98605503D01*
X107839581Y-98598276D01*
X107724776Y-98575440D01*
X107700000Y-98573000D01*
X102352000Y-98573000D01*
X102352000Y-96786522D01*
X127255500Y-96786522D01*
X127255500Y-96913478D01*
X127280268Y-97037994D01*
X127328852Y-97155285D01*
X127399385Y-97260845D01*
X127489155Y-97350615D01*
X127594715Y-97421148D01*
X127712006Y-97469732D01*
X127836522Y-97494500D01*
X127963478Y-97494500D01*
X128087994Y-97469732D01*
X128205285Y-97421148D01*
X128310845Y-97350615D01*
X128400615Y-97260845D01*
X128471148Y-97155285D01*
X128519732Y-97037994D01*
X128544500Y-96913478D01*
X128544500Y-96786522D01*
X128519732Y-96662006D01*
X128471148Y-96544715D01*
X128400615Y-96439155D01*
X128310845Y-96349385D01*
X128205285Y-96278852D01*
X128087994Y-96230268D01*
X127963478Y-96205500D01*
X127836522Y-96205500D01*
X127712006Y-96230268D01*
X127594715Y-96278852D01*
X127489155Y-96349385D01*
X127399385Y-96439155D01*
X127328852Y-96544715D01*
X127280268Y-96662006D01*
X127255500Y-96786522D01*
X102352000Y-96786522D01*
X102352000Y-94145802D01*
X103145803Y-93352000D01*
X151854198Y-93352000D01*
X152648000Y-94145803D01*
M02*
