G04 #@! TF.GenerationSoftware,KiCad,Pcbnew,(6.0.0-rc1-dev-305-gf0b8b2136)*
G04 #@! TF.CreationDate,2019-06-24T13:23:36-06:00*
G04 #@! TF.ProjectId,Station04,53746174696F6E30342E6B696361645F,rev?*
G04 #@! TF.SameCoordinates,Original*
G04 #@! TF.FileFunction,Soldermask,Bot*
G04 #@! TF.FilePolarity,Negative*
%FSLAX46Y46*%
G04 Gerber Fmt 4.6, Leading zero omitted, Abs format (unit mm)*
G04 Created by KiCad (PCBNEW (6.0.0-rc1-dev-305-gf0b8b2136)) date 06/24/19 13:23:36*
%MOMM*%
%LPD*%
G01*
G04 APERTURE LIST*
%ADD10C,0.100000*%
G04 APERTURE END LIST*
D10*
G36*
X81932970Y-56381300D02*
X80329830Y-56381300D01*
X80329830Y-52316900D01*
X81932970Y-52316900D01*
X81932970Y-56381300D01*
X81932970Y-56381300D01*
G37*
G36*
X11270170Y-56381300D02*
X9667030Y-56381300D01*
X9667030Y-52316900D01*
X11270170Y-52316900D01*
X11270170Y-56381300D01*
X11270170Y-56381300D01*
G37*
G36*
X5732970Y-56381300D02*
X4129830Y-56381300D01*
X4129830Y-52316900D01*
X5732970Y-52316900D01*
X5732970Y-56381300D01*
X5732970Y-56381300D01*
G37*
G36*
X23970170Y-56381300D02*
X22367030Y-56381300D01*
X22367030Y-52316900D01*
X23970170Y-52316900D01*
X23970170Y-56381300D01*
X23970170Y-56381300D01*
G37*
G36*
X18432970Y-56381300D02*
X16829830Y-56381300D01*
X16829830Y-52316900D01*
X18432970Y-52316900D01*
X18432970Y-56381300D01*
X18432970Y-56381300D01*
G37*
G36*
X36670170Y-56381300D02*
X35067030Y-56381300D01*
X35067030Y-52316900D01*
X36670170Y-52316900D01*
X36670170Y-56381300D01*
X36670170Y-56381300D01*
G37*
G36*
X31132970Y-56381300D02*
X29529830Y-56381300D01*
X29529830Y-52316900D01*
X31132970Y-52316900D01*
X31132970Y-56381300D01*
X31132970Y-56381300D01*
G37*
G36*
X49370170Y-56381300D02*
X47767030Y-56381300D01*
X47767030Y-52316900D01*
X49370170Y-52316900D01*
X49370170Y-56381300D01*
X49370170Y-56381300D01*
G37*
G36*
X43832970Y-56381300D02*
X42229830Y-56381300D01*
X42229830Y-52316900D01*
X43832970Y-52316900D01*
X43832970Y-56381300D01*
X43832970Y-56381300D01*
G37*
G36*
X62070170Y-56381300D02*
X60467030Y-56381300D01*
X60467030Y-52316900D01*
X62070170Y-52316900D01*
X62070170Y-56381300D01*
X62070170Y-56381300D01*
G37*
G36*
X74770170Y-56381300D02*
X73167030Y-56381300D01*
X73167030Y-52316900D01*
X74770170Y-52316900D01*
X74770170Y-56381300D01*
X74770170Y-56381300D01*
G37*
G36*
X69232970Y-56381300D02*
X67629830Y-56381300D01*
X67629830Y-52316900D01*
X69232970Y-52316900D01*
X69232970Y-56381300D01*
X69232970Y-56381300D01*
G37*
G36*
X100170170Y-56381300D02*
X98567030Y-56381300D01*
X98567030Y-52316900D01*
X100170170Y-52316900D01*
X100170170Y-56381300D01*
X100170170Y-56381300D01*
G37*
G36*
X94632970Y-56381300D02*
X93029830Y-56381300D01*
X93029830Y-52316900D01*
X94632970Y-52316900D01*
X94632970Y-56381300D01*
X94632970Y-56381300D01*
G37*
G36*
X112870170Y-56381300D02*
X111267030Y-56381300D01*
X111267030Y-52316900D01*
X112870170Y-52316900D01*
X112870170Y-56381300D01*
X112870170Y-56381300D01*
G37*
G36*
X107332970Y-56381300D02*
X105729830Y-56381300D01*
X105729830Y-52316900D01*
X107332970Y-52316900D01*
X107332970Y-56381300D01*
X107332970Y-56381300D01*
G37*
G36*
X125570170Y-56381300D02*
X123967030Y-56381300D01*
X123967030Y-52316900D01*
X125570170Y-52316900D01*
X125570170Y-56381300D01*
X125570170Y-56381300D01*
G37*
G36*
X120032970Y-56381300D02*
X118429830Y-56381300D01*
X118429830Y-52316900D01*
X120032970Y-52316900D01*
X120032970Y-56381300D01*
X120032970Y-56381300D01*
G37*
G36*
X87470170Y-56381300D02*
X85867030Y-56381300D01*
X85867030Y-52316900D01*
X87470170Y-52316900D01*
X87470170Y-56381300D01*
X87470170Y-56381300D01*
G37*
G36*
X56532970Y-56381300D02*
X54929830Y-56381300D01*
X54929830Y-52316900D01*
X56532970Y-52316900D01*
X56532970Y-56381300D01*
X56532970Y-56381300D01*
G37*
G36*
X67261000Y-5901000D02*
X62359000Y-5901000D01*
X62359000Y-4299000D01*
X67261000Y-4299000D01*
X67261000Y-5901000D01*
X67261000Y-5901000D01*
G37*
G36*
X60075721Y-4080174D02*
X60175995Y-4121709D01*
X60266245Y-4182012D01*
X60342988Y-4258755D01*
X60403291Y-4349005D01*
X60444826Y-4449279D01*
X60466000Y-4555730D01*
X60466000Y-4664270D01*
X60444826Y-4770721D01*
X60403291Y-4870995D01*
X60342988Y-4961245D01*
X60266245Y-5037988D01*
X60175995Y-5098291D01*
X60075721Y-5139826D01*
X59969270Y-5161000D01*
X59860730Y-5161000D01*
X59754279Y-5139826D01*
X59654005Y-5098291D01*
X59563755Y-5037988D01*
X59487012Y-4961245D01*
X59426709Y-4870995D01*
X59385174Y-4770721D01*
X59364000Y-4664270D01*
X59364000Y-4555730D01*
X59385174Y-4449279D01*
X59426709Y-4349005D01*
X59487012Y-4258755D01*
X59563755Y-4182012D01*
X59654005Y-4121709D01*
X59754279Y-4080174D01*
X59860730Y-4059000D01*
X59969270Y-4059000D01*
X60075721Y-4080174D01*
X60075721Y-4080174D01*
G37*
G36*
X69945721Y-4080174D02*
X70045995Y-4121709D01*
X70136245Y-4182012D01*
X70212988Y-4258755D01*
X70273291Y-4349005D01*
X70314826Y-4449279D01*
X70336000Y-4555730D01*
X70336000Y-4664270D01*
X70314826Y-4770721D01*
X70273291Y-4870995D01*
X70212988Y-4961245D01*
X70136245Y-5037988D01*
X70045995Y-5098291D01*
X69945721Y-5139826D01*
X69839270Y-5161000D01*
X69730730Y-5161000D01*
X69624279Y-5139826D01*
X69524005Y-5098291D01*
X69433755Y-5037988D01*
X69357012Y-4961245D01*
X69296709Y-4870995D01*
X69255174Y-4770721D01*
X69234000Y-4664270D01*
X69234000Y-4555730D01*
X69255174Y-4449279D01*
X69296709Y-4349005D01*
X69357012Y-4258755D01*
X69433755Y-4182012D01*
X69524005Y-4121709D01*
X69624279Y-4080174D01*
X69730730Y-4059000D01*
X69839270Y-4059000D01*
X69945721Y-4080174D01*
X69945721Y-4080174D01*
G37*
G36*
X68536349Y-1863820D02*
X68536352Y-1863821D01*
X68536351Y-1863821D01*
X68677574Y-1922317D01*
X68677575Y-1922318D01*
X68804674Y-2007243D01*
X68912757Y-2115326D01*
X68912759Y-2115329D01*
X68997683Y-2242426D01*
X69018701Y-2293168D01*
X69056180Y-2383651D01*
X69086000Y-2533569D01*
X69086000Y-2686431D01*
X69056180Y-2836349D01*
X69056179Y-2836351D01*
X68997683Y-2977574D01*
X68997682Y-2977575D01*
X68912757Y-3104674D01*
X68804674Y-3212757D01*
X68804671Y-3212759D01*
X68677574Y-3297683D01*
X68568343Y-3342927D01*
X68536349Y-3356180D01*
X68386431Y-3386000D01*
X68233569Y-3386000D01*
X68083651Y-3356180D01*
X68051657Y-3342927D01*
X67942426Y-3297683D01*
X67815329Y-3212759D01*
X67815326Y-3212757D01*
X67707243Y-3104674D01*
X67622318Y-2977575D01*
X67622317Y-2977574D01*
X67563821Y-2836351D01*
X67563820Y-2836349D01*
X67534000Y-2686431D01*
X67534000Y-2533569D01*
X67563820Y-2383651D01*
X67601299Y-2293168D01*
X67622317Y-2242426D01*
X67707241Y-2115329D01*
X67707243Y-2115326D01*
X67815326Y-2007243D01*
X67942425Y-1922318D01*
X67942426Y-1922317D01*
X68083649Y-1863821D01*
X68083648Y-1863821D01*
X68083651Y-1863820D01*
X68233569Y-1834000D01*
X68386431Y-1834000D01*
X68536349Y-1863820D01*
X68536349Y-1863820D01*
G37*
G36*
X61616349Y-1863820D02*
X61616352Y-1863821D01*
X61616351Y-1863821D01*
X61757574Y-1922317D01*
X61757575Y-1922318D01*
X61884674Y-2007243D01*
X61992757Y-2115326D01*
X61992759Y-2115329D01*
X62077683Y-2242426D01*
X62098701Y-2293168D01*
X62118515Y-2341004D01*
X62130067Y-2362615D01*
X62145612Y-2381557D01*
X62164554Y-2397102D01*
X62186165Y-2408653D01*
X62209614Y-2415766D01*
X62229649Y-2417739D01*
X62221554Y-2422066D01*
X62202612Y-2437612D01*
X62187066Y-2456554D01*
X62175515Y-2478165D01*
X62168402Y-2501614D01*
X62166000Y-2526000D01*
X62166000Y-2686431D01*
X62136180Y-2836349D01*
X62136179Y-2836351D01*
X62077683Y-2977574D01*
X62077682Y-2977575D01*
X61992757Y-3104674D01*
X61884674Y-3212757D01*
X61884671Y-3212759D01*
X61757574Y-3297683D01*
X61648343Y-3342927D01*
X61616349Y-3356180D01*
X61466431Y-3386000D01*
X61313569Y-3386000D01*
X61163651Y-3356180D01*
X61131657Y-3342927D01*
X61022426Y-3297683D01*
X60895329Y-3212759D01*
X60895326Y-3212757D01*
X60787243Y-3104674D01*
X60702318Y-2977575D01*
X60702317Y-2977574D01*
X60643821Y-2836351D01*
X60643820Y-2836349D01*
X60614000Y-2686431D01*
X60614000Y-2533569D01*
X60643820Y-2383651D01*
X60681299Y-2293168D01*
X60702317Y-2242426D01*
X60787241Y-2115329D01*
X60787243Y-2115326D01*
X60895326Y-2007243D01*
X61022425Y-1922318D01*
X61022426Y-1922317D01*
X61163649Y-1863821D01*
X61163648Y-1863821D01*
X61163651Y-1863820D01*
X61313569Y-1834000D01*
X61466431Y-1834000D01*
X61616349Y-1863820D01*
X61616349Y-1863820D01*
G37*
G36*
X67261000Y-2401000D02*
X62296153Y-2401000D01*
X62303447Y-2397101D01*
X62322389Y-2381556D01*
X62337934Y-2362614D01*
X62349485Y-2341003D01*
X62356598Y-2317554D01*
X62359000Y-2293168D01*
X62359000Y-799000D01*
X67261000Y-799000D01*
X67261000Y-2401000D01*
X67261000Y-2401000D01*
G37*
M02*
