G04 #@! TF.GenerationSoftware,KiCad,Pcbnew,(6.0.0-rc1-dev-305-gf0b8b2136)*
G04 #@! TF.CreationDate,2019-06-24T13:23:36-06:00*
G04 #@! TF.ProjectId,Station04,53746174696F6E30342E6B696361645F,rev?*
G04 #@! TF.SameCoordinates,Original*
G04 #@! TF.FileFunction,Legend,Top*
G04 #@! TF.FilePolarity,Positive*
%FSLAX46Y46*%
G04 Gerber Fmt 4.6, Leading zero omitted, Abs format (unit mm)*
G04 Created by KiCad (PCBNEW (6.0.0-rc1-dev-305-gf0b8b2136)) date 06/24/19 13:23:36*
%MOMM*%
%LPD*%
G01*
G04 APERTURE LIST*
%ADD10C,0.200000*%
%ADD11C,0.500000*%
G04 APERTURE END LIST*
D10*
X121784285Y-50428571D02*
X120927142Y-50428571D01*
X121355714Y-50428571D02*
X121355714Y-48928571D01*
X121212857Y-49142857D01*
X121070000Y-49285714D01*
X120927142Y-49357142D01*
X122712857Y-48928571D02*
X122855714Y-48928571D01*
X122998571Y-49000000D01*
X123070000Y-49071428D01*
X123141428Y-49214285D01*
X123212857Y-49500000D01*
X123212857Y-49857142D01*
X123141428Y-50142857D01*
X123070000Y-50285714D01*
X122998571Y-50357142D01*
X122855714Y-50428571D01*
X122712857Y-50428571D01*
X122570000Y-50357142D01*
X122498571Y-50285714D01*
X122427142Y-50142857D01*
X122355714Y-49857142D01*
X122355714Y-49500000D01*
X122427142Y-49214285D01*
X122498571Y-49071428D01*
X122570000Y-49000000D01*
X122712857Y-48928571D01*
X109084285Y-50428571D02*
X109370000Y-50428571D01*
X109512857Y-50357142D01*
X109584285Y-50285714D01*
X109727142Y-50071428D01*
X109798571Y-49785714D01*
X109798571Y-49214285D01*
X109727142Y-49071428D01*
X109655714Y-49000000D01*
X109512857Y-48928571D01*
X109227142Y-48928571D01*
X109084285Y-49000000D01*
X109012857Y-49071428D01*
X108941428Y-49214285D01*
X108941428Y-49571428D01*
X109012857Y-49714285D01*
X109084285Y-49785714D01*
X109227142Y-49857142D01*
X109512857Y-49857142D01*
X109655714Y-49785714D01*
X109727142Y-49714285D01*
X109798571Y-49571428D01*
X96527142Y-49571428D02*
X96384285Y-49500000D01*
X96312857Y-49428571D01*
X96241428Y-49285714D01*
X96241428Y-49214285D01*
X96312857Y-49071428D01*
X96384285Y-49000000D01*
X96527142Y-48928571D01*
X96812857Y-48928571D01*
X96955714Y-49000000D01*
X97027142Y-49071428D01*
X97098571Y-49214285D01*
X97098571Y-49285714D01*
X97027142Y-49428571D01*
X96955714Y-49500000D01*
X96812857Y-49571428D01*
X96527142Y-49571428D01*
X96384285Y-49642857D01*
X96312857Y-49714285D01*
X96241428Y-49857142D01*
X96241428Y-50142857D01*
X96312857Y-50285714D01*
X96384285Y-50357142D01*
X96527142Y-50428571D01*
X96812857Y-50428571D01*
X96955714Y-50357142D01*
X97027142Y-50285714D01*
X97098571Y-50142857D01*
X97098571Y-49857142D01*
X97027142Y-49714285D01*
X96955714Y-49642857D01*
X96812857Y-49571428D01*
X83470000Y-48928571D02*
X84470000Y-48928571D01*
X83827142Y-50428571D01*
X71555714Y-48928571D02*
X71270000Y-48928571D01*
X71127142Y-49000000D01*
X71055714Y-49071428D01*
X70912857Y-49285714D01*
X70841428Y-49571428D01*
X70841428Y-50142857D01*
X70912857Y-50285714D01*
X70984285Y-50357142D01*
X71127142Y-50428571D01*
X71412857Y-50428571D01*
X71555714Y-50357142D01*
X71627142Y-50285714D01*
X71698571Y-50142857D01*
X71698571Y-49785714D01*
X71627142Y-49642857D01*
X71555714Y-49571428D01*
X71412857Y-49500000D01*
X71127142Y-49500000D01*
X70984285Y-49571428D01*
X70912857Y-49642857D01*
X70841428Y-49785714D01*
X58927142Y-48928571D02*
X58212857Y-48928571D01*
X58141428Y-49642857D01*
X58212857Y-49571428D01*
X58355714Y-49500000D01*
X58712857Y-49500000D01*
X58855714Y-49571428D01*
X58927142Y-49642857D01*
X58998571Y-49785714D01*
X58998571Y-50142857D01*
X58927142Y-50285714D01*
X58855714Y-50357142D01*
X58712857Y-50428571D01*
X58355714Y-50428571D01*
X58212857Y-50357142D01*
X58141428Y-50285714D01*
X46155714Y-49428571D02*
X46155714Y-50428571D01*
X45798571Y-48857142D02*
X45441428Y-49928571D01*
X46370000Y-49928571D01*
X32670000Y-48928571D02*
X33598571Y-48928571D01*
X33098571Y-49500000D01*
X33312857Y-49500000D01*
X33455714Y-49571428D01*
X33527142Y-49642857D01*
X33598571Y-49785714D01*
X33598571Y-50142857D01*
X33527142Y-50285714D01*
X33455714Y-50357142D01*
X33312857Y-50428571D01*
X32884285Y-50428571D01*
X32741428Y-50357142D01*
X32670000Y-50285714D01*
X20041428Y-49071428D02*
X20112857Y-49000000D01*
X20255714Y-48928571D01*
X20612857Y-48928571D01*
X20755714Y-49000000D01*
X20827142Y-49071428D01*
X20898571Y-49214285D01*
X20898571Y-49357142D01*
X20827142Y-49571428D01*
X19970000Y-50428571D01*
X20898571Y-50428571D01*
X8198571Y-50428571D02*
X7341428Y-50428571D01*
X7770000Y-50428571D02*
X7770000Y-48928571D01*
X7627142Y-49142857D01*
X7484285Y-49285714D01*
X7341428Y-49357142D01*
X17775714Y-45258571D02*
X17775714Y-46330000D01*
X17704285Y-46544285D01*
X17561428Y-46687142D01*
X17347142Y-46758571D01*
X17204285Y-46758571D01*
X19132857Y-45758571D02*
X19132857Y-46758571D01*
X18490000Y-45758571D02*
X18490000Y-46544285D01*
X18561428Y-46687142D01*
X18704285Y-46758571D01*
X18918571Y-46758571D01*
X19061428Y-46687142D01*
X19132857Y-46615714D01*
X19847142Y-45758571D02*
X19847142Y-46758571D01*
X19847142Y-45901428D02*
X19918571Y-45830000D01*
X20061428Y-45758571D01*
X20275714Y-45758571D01*
X20418571Y-45830000D01*
X20490000Y-45972857D01*
X20490000Y-46758571D01*
X21775714Y-46687142D02*
X21632857Y-46758571D01*
X21347142Y-46758571D01*
X21204285Y-46687142D01*
X21132857Y-46544285D01*
X21132857Y-45972857D01*
X21204285Y-45830000D01*
X21347142Y-45758571D01*
X21632857Y-45758571D01*
X21775714Y-45830000D01*
X21847142Y-45972857D01*
X21847142Y-46115714D01*
X21132857Y-46258571D01*
X23561428Y-45401428D02*
X23632857Y-45330000D01*
X23775714Y-45258571D01*
X24132857Y-45258571D01*
X24275714Y-45330000D01*
X24347142Y-45401428D01*
X24418571Y-45544285D01*
X24418571Y-45687142D01*
X24347142Y-45901428D01*
X23490000Y-46758571D01*
X24418571Y-46758571D01*
X25347142Y-45258571D02*
X25490000Y-45258571D01*
X25632857Y-45330000D01*
X25704285Y-45401428D01*
X25775714Y-45544285D01*
X25847142Y-45830000D01*
X25847142Y-46187142D01*
X25775714Y-46472857D01*
X25704285Y-46615714D01*
X25632857Y-46687142D01*
X25490000Y-46758571D01*
X25347142Y-46758571D01*
X25204285Y-46687142D01*
X25132857Y-46615714D01*
X25061428Y-46472857D01*
X24990000Y-46187142D01*
X24990000Y-45830000D01*
X25061428Y-45544285D01*
X25132857Y-45401428D01*
X25204285Y-45330000D01*
X25347142Y-45258571D01*
X27275714Y-46758571D02*
X26418571Y-46758571D01*
X26847142Y-46758571D02*
X26847142Y-45258571D01*
X26704285Y-45472857D01*
X26561428Y-45615714D01*
X26418571Y-45687142D01*
X27990000Y-46758571D02*
X28275714Y-46758571D01*
X28418571Y-46687142D01*
X28490000Y-46615714D01*
X28632857Y-46401428D01*
X28704285Y-46115714D01*
X28704285Y-45544285D01*
X28632857Y-45401428D01*
X28561428Y-45330000D01*
X28418571Y-45258571D01*
X28132857Y-45258571D01*
X27990000Y-45330000D01*
X27918571Y-45401428D01*
X27847142Y-45544285D01*
X27847142Y-45901428D01*
X27918571Y-46044285D01*
X27990000Y-46115714D01*
X28132857Y-46187142D01*
X28418571Y-46187142D01*
X28561428Y-46115714D01*
X28632857Y-46044285D01*
X28704285Y-45901428D01*
X4407142Y-46798571D02*
X4407142Y-45298571D01*
X4764285Y-45298571D01*
X4978571Y-45370000D01*
X5121428Y-45512857D01*
X5192857Y-45655714D01*
X5264285Y-45941428D01*
X5264285Y-46155714D01*
X5192857Y-46441428D01*
X5121428Y-46584285D01*
X4978571Y-46727142D01*
X4764285Y-46798571D01*
X4407142Y-46798571D01*
X5764285Y-45798571D02*
X6121428Y-46798571D01*
X6478571Y-45798571D02*
X6121428Y-46798571D01*
X5978571Y-47155714D01*
X5907142Y-47227142D01*
X5764285Y-47298571D01*
X7264285Y-46798571D02*
X7121428Y-46727142D01*
X7050000Y-46584285D01*
X7050000Y-45298571D01*
X8478571Y-46798571D02*
X8478571Y-46012857D01*
X8407142Y-45870000D01*
X8264285Y-45798571D01*
X7978571Y-45798571D01*
X7835714Y-45870000D01*
X8478571Y-46727142D02*
X8335714Y-46798571D01*
X7978571Y-46798571D01*
X7835714Y-46727142D01*
X7764285Y-46584285D01*
X7764285Y-46441428D01*
X7835714Y-46298571D01*
X7978571Y-46227142D01*
X8335714Y-46227142D01*
X8478571Y-46155714D01*
X9192857Y-45798571D02*
X9192857Y-46798571D01*
X9192857Y-45941428D02*
X9264285Y-45870000D01*
X9407142Y-45798571D01*
X9621428Y-45798571D01*
X9764285Y-45870000D01*
X9835714Y-46012857D01*
X9835714Y-46798571D01*
X11978571Y-45298571D02*
X12264285Y-45298571D01*
X12407142Y-45370000D01*
X12550000Y-45512857D01*
X12621428Y-45798571D01*
X12621428Y-46298571D01*
X12550000Y-46584285D01*
X12407142Y-46727142D01*
X12264285Y-46798571D01*
X11978571Y-46798571D01*
X11835714Y-46727142D01*
X11692857Y-46584285D01*
X11621428Y-46298571D01*
X11621428Y-45798571D01*
X11692857Y-45512857D01*
X11835714Y-45370000D01*
X11978571Y-45298571D01*
X13264285Y-46798571D02*
X13264285Y-45298571D01*
X13907142Y-46798571D02*
X13907142Y-46012857D01*
X13835714Y-45870000D01*
X13692857Y-45798571D01*
X13478571Y-45798571D01*
X13335714Y-45870000D01*
X13264285Y-45941428D01*
D11*
X4522142Y-43724285D02*
X4932857Y-43867142D01*
X5647142Y-43867142D01*
X5950714Y-43724285D01*
X6111428Y-43581428D01*
X6290000Y-43295714D01*
X6325714Y-43010000D01*
X6218571Y-42724285D01*
X6093571Y-42581428D01*
X5825714Y-42438571D01*
X5272142Y-42295714D01*
X5004285Y-42152857D01*
X4879285Y-42010000D01*
X4772142Y-41724285D01*
X4807857Y-41438571D01*
X4986428Y-41152857D01*
X5147142Y-41010000D01*
X5450714Y-40867142D01*
X6165000Y-40867142D01*
X6575714Y-41010000D01*
X7325714Y-41867142D02*
X8468571Y-41867142D01*
X7879285Y-40867142D02*
X7557857Y-43438571D01*
X7665000Y-43724285D01*
X7932857Y-43867142D01*
X8218571Y-43867142D01*
X10504285Y-43867142D02*
X10700714Y-42295714D01*
X10593571Y-42010000D01*
X10325714Y-41867142D01*
X9754285Y-41867142D01*
X9450714Y-42010000D01*
X10522142Y-43724285D02*
X10218571Y-43867142D01*
X9504285Y-43867142D01*
X9236428Y-43724285D01*
X9129285Y-43438571D01*
X9165000Y-43152857D01*
X9343571Y-42867142D01*
X9647142Y-42724285D01*
X10361428Y-42724285D01*
X10665000Y-42581428D01*
X11754285Y-41867142D02*
X12897142Y-41867142D01*
X12307857Y-40867142D02*
X11986428Y-43438571D01*
X12093571Y-43724285D01*
X12361428Y-43867142D01*
X12647142Y-43867142D01*
X13647142Y-43867142D02*
X13897142Y-41867142D01*
X14022142Y-40867142D02*
X13861428Y-41010000D01*
X13986428Y-41152857D01*
X14147142Y-41010000D01*
X14022142Y-40867142D01*
X13986428Y-41152857D01*
X15504285Y-43867142D02*
X15236428Y-43724285D01*
X15111428Y-43581428D01*
X15004285Y-43295714D01*
X15111428Y-42438571D01*
X15290000Y-42152857D01*
X15450714Y-42010000D01*
X15754285Y-41867142D01*
X16182857Y-41867142D01*
X16450714Y-42010000D01*
X16575714Y-42152857D01*
X16682857Y-42438571D01*
X16575714Y-43295714D01*
X16397142Y-43581428D01*
X16236428Y-43724285D01*
X15932857Y-43867142D01*
X15504285Y-43867142D01*
X18040000Y-41867142D02*
X17790000Y-43867142D01*
X18004285Y-42152857D02*
X18165000Y-42010000D01*
X18468571Y-41867142D01*
X18897142Y-41867142D01*
X19165000Y-42010000D01*
X19272142Y-42295714D01*
X19075714Y-43867142D01*
X21450714Y-40867142D02*
X21736428Y-40867142D01*
X22004285Y-41010000D01*
X22129285Y-41152857D01*
X22236428Y-41438571D01*
X22307857Y-42010000D01*
X22218571Y-42724285D01*
X22004285Y-43295714D01*
X21825714Y-43581428D01*
X21665000Y-43724285D01*
X21361428Y-43867142D01*
X21075714Y-43867142D01*
X20807857Y-43724285D01*
X20682857Y-43581428D01*
X20575714Y-43295714D01*
X20504285Y-42724285D01*
X20593571Y-42010000D01*
X20807857Y-41438571D01*
X20986428Y-41152857D01*
X21147142Y-41010000D01*
X21450714Y-40867142D01*
X24897142Y-41867142D02*
X24647142Y-43867142D01*
X24325714Y-40724285D02*
X23343571Y-42867142D01*
X25200714Y-42867142D01*
M02*
