M48
;DRILL file {KiCad (6.0.0-rc1-dev-305-gf0b8b2136)} date 06/24/19 13:23:34
;FORMAT={-:-/ absolute / inch / decimal}
FMAT,2
INCH,TZ
T1C0.0120
T2C0.0157
T3C0.0394
T4C0.0571
%
G90
G05
M72
T1
X0.1851Y-1.9244
X0.3031Y-2.0217
X0.3623Y-1.7924
X0.5394Y-1.6574
X0.6586Y-1.9244
X0.7264Y-1.5204
X0.8003Y-1.7924
X0.8031Y-2.0217
X0.9134Y-1.3834
X0.9421Y-1.6574
X1.0808Y-1.2584
X1.0917Y-1.5204
X1.1321Y-1.9244
X1.2384Y-1.7924
X1.2413Y-1.3834
X1.2481Y-1.1374
X1.3031Y-2.0217
X1.3447Y-1.6574
X1.3751Y-1.2584
X1.4253Y-1.0114
X1.4569Y-1.5204
X1.5091Y-1.1374
X1.5691Y-1.3834
X1.5827Y-0.9014
X1.6056Y-1.9244
X1.6508Y-1.0114
X1.6695Y-1.2584
X1.6765Y-1.7924
X1.7402Y-0.7866
X1.7474Y-1.6574
X1.7701Y-1.1374
X1.7768Y-0.9014
X1.8031Y-2.0217
X1.8222Y-1.5204
X1.8764Y-1.0114
X1.897Y-1.3834
X1.8977Y-0.6656
X1.9028Y-0.7866
X1.9639Y-1.2584
X1.9709Y-0.9014
X2.0288Y-0.6656
X2.0311Y-1.1374
X2.048Y-0.5446
X2.0654Y-0.7866
X2.0791Y-1.9244
X2.102Y-1.0114
X2.1146Y-1.7924
X2.15Y-1.6574
X2.1599Y-0.6656
X2.165Y-0.9014
X2.1686Y-0.5446
X2.1874Y-1.5204
X2.2248Y-1.3834
X2.228Y-0.7866
X2.2583Y-1.2584
X2.2603Y-0.5446
X2.291Y-0.6656
X2.2921Y-1.1374
X2.3031Y-2.0217
X2.3276Y-1.0114
X2.3579Y-0.5446
X2.3591Y-0.9014
X2.3783Y-0.3287
X2.3906Y-0.7866
X2.4197Y-0.3287
X2.4221Y-0.6656
X2.4555Y-0.5446
X2.4571Y-0.3287
X2.4945Y-0.3287
X2.5319Y-0.3287
X2.5526Y-1.2584
X2.5526Y-1.3834
X2.5526Y-1.5204
X2.5526Y-1.6574
X2.5526Y-1.7924
X2.5526Y-1.9244
X2.5531Y-0.5446
X2.5531Y-0.6656
X2.5531Y-0.7866
X2.5531Y-0.9014
X2.5531Y-1.0114
X2.5531Y-1.1374
X2.5713Y-0.3287
X2.6087Y-0.3287
X2.6461Y-0.3287
X2.6508Y-0.5446
X2.6835Y-0.3287
X2.6842Y-0.6656
X2.7157Y-0.7866
X2.7248Y-0.3287
X2.7472Y-0.9014
X2.7484Y-0.5446
X2.7787Y-1.0114
X2.8031Y-2.0217
X2.8142Y-1.1374
X2.8153Y-0.6656
X2.846Y-0.5446
X2.847Y-1.2584
X2.8783Y-0.7866
X2.8805Y-1.3834
X2.9179Y-1.5204
X2.9377Y-0.5446
X2.9413Y-0.9014
X2.9464Y-0.6656
X2.9553Y-1.6574
X2.9907Y-1.7924
X3.0043Y-1.0114
X3.0262Y-1.9244
X3.0409Y-0.7866
X3.0413Y-0.5446
X3.0752Y-1.1374
X3.0775Y-0.6656
X3.1354Y-0.9014
X3.1414Y-1.2584
X3.2035Y-0.7866
X3.2083Y-1.3834
X3.2086Y-0.6656
X3.2299Y-1.0114
X3.2831Y-1.5204
X3.3031Y-2.0217
X3.3295Y-0.9014
X3.3362Y-1.1374
X3.3579Y-1.6574
X3.3661Y-0.7866
X3.4288Y-1.7924
X3.4358Y-1.2584
X3.4555Y-1.0114
X3.4997Y-1.9244
X3.5236Y-0.9014
X3.5362Y-1.3834
X3.5972Y-1.1374
X3.6484Y-1.5204
X3.681Y-1.0114
X3.7302Y-1.2584
X3.7606Y-1.6574
X3.8031Y-2.0217
X3.8582Y-1.1374
X3.864Y-1.3834
X3.8669Y-1.7924
X3.9732Y-1.9244
X4.0136Y-1.5204
X4.0255Y-1.2584
X4.1632Y-1.6574
X4.1929Y-1.3834
X4.3031Y-2.0217
X4.305Y-1.7924
X4.3799Y-1.5204
X4.4467Y-1.9244
X4.5669Y-1.6574
X4.744Y-1.7924
X4.8031Y-2.0217
X4.9212Y-1.9244
T2
X0.0591Y-0.0591
X0.0591Y-0.176
X0.0591Y-0.293
X0.0591Y-0.4099
X0.0591Y-0.5269
X0.0591Y-0.6438
X0.0591Y-0.7608
X0.0591Y-0.8777
X0.0591Y-0.9947
X0.0591Y-1.1116
X0.0591Y-1.2286
X0.0591Y-1.3455
X0.0591Y-1.4625
X0.0591Y-1.5794
X0.0591Y-1.6964
X0.0591Y-1.8133
X0.0591Y-1.9303
X0.0591Y-2.0472
X0.0591Y-2.1642
X0.3346Y-0.0591
X0.3346Y-0.176
X0.3346Y-0.293
X0.3346Y-0.4099
X0.3346Y-0.5269
X0.3346Y-0.6438
X0.3346Y-0.7608
X0.3346Y-0.8777
X0.3346Y-0.9947
X0.3346Y-1.1116
X0.3346Y-1.2286
X0.3346Y-1.3455
X0.3346Y-1.4625
X0.3346Y-1.5794
X0.3346Y-1.6964
X0.6102Y-0.0591
X0.6102Y-0.176
X0.6102Y-0.293
X0.6102Y-0.4099
X0.6102Y-0.5269
X0.6102Y-0.6438
X0.6102Y-0.7608
X0.6102Y-0.8777
X0.6102Y-0.9947
X0.6102Y-1.1116
X0.6102Y-1.2286
X0.6102Y-1.3455
X0.6102Y-1.4625
X0.6102Y-1.5794
X0.8858Y-0.0591
X0.8858Y-0.176
X0.8858Y-0.293
X0.8858Y-0.4099
X0.8858Y-0.5269
X0.8858Y-0.6438
X0.8858Y-0.7608
X0.8858Y-0.8777
X0.8858Y-0.9947
X0.8858Y-1.1116
X0.8858Y-1.2286
X1.1614Y-0.0591
X1.1614Y-0.176
X1.1614Y-0.293
X1.1614Y-0.4099
X1.1614Y-0.5269
X1.1614Y-0.6438
X1.1614Y-0.7608
X1.1614Y-0.8777
X1.1614Y-0.9947
X1.1614Y-1.1116
X1.437Y-0.0591
X1.437Y-0.176
X1.437Y-0.293
X1.437Y-0.4099
X1.437Y-0.5269
X1.437Y-0.6438
X1.437Y-0.7608
X1.437Y-0.8777
X1.7126Y-0.0591
X1.7126Y-0.176
X1.7126Y-0.293
X1.7126Y-0.4099
X1.7126Y-0.5269
X1.7126Y-0.6438
X1.9882Y-0.0591
X1.9882Y-0.176
X1.9882Y-0.293
X1.9882Y-0.4099
X2.2638Y-0.0591
X2.2638Y-0.176
X2.2638Y-0.293
X2.8425Y-0.0591
X2.8425Y-0.176
X2.8425Y-0.293
X3.1181Y-0.0591
X3.1181Y-0.176
X3.1181Y-0.293
X3.1181Y-0.4099
X3.3937Y-0.0591
X3.3937Y-0.176
X3.3937Y-0.293
X3.3937Y-0.4099
X3.3937Y-0.5269
X3.3937Y-0.6438
X3.6693Y-0.0591
X3.6693Y-0.176
X3.6693Y-0.293
X3.6693Y-0.4099
X3.6693Y-0.5269
X3.6693Y-0.6438
X3.6693Y-0.7608
X3.6693Y-0.8777
X3.9449Y-0.0591
X3.9449Y-0.176
X3.9449Y-0.293
X3.9449Y-0.4099
X3.9449Y-0.5269
X3.9449Y-0.6438
X3.9449Y-0.7608
X3.9449Y-0.8777
X3.9449Y-0.9947
X3.9449Y-1.1116
X4.2205Y-0.0591
X4.2205Y-0.176
X4.2205Y-0.293
X4.2205Y-0.4099
X4.2205Y-0.5269
X4.2205Y-0.6438
X4.2205Y-0.7608
X4.2205Y-0.8777
X4.2205Y-0.9947
X4.2205Y-1.1116
X4.2205Y-1.2286
X4.4961Y-0.0591
X4.4961Y-0.176
X4.4961Y-0.293
X4.4961Y-0.4099
X4.4961Y-0.5269
X4.4961Y-0.6438
X4.4961Y-0.7608
X4.4961Y-0.8777
X4.4961Y-0.9947
X4.4961Y-1.1116
X4.4961Y-1.2286
X4.4961Y-1.3455
X4.4961Y-1.4625
X4.4961Y-1.5794
X4.7717Y-0.0591
X4.7717Y-0.176
X4.7717Y-0.293
X4.7717Y-0.4099
X4.7717Y-0.5269
X4.7717Y-0.6438
X4.7717Y-0.7608
X4.7717Y-0.8777
X4.7717Y-0.9947
X4.7717Y-1.1116
X4.7717Y-1.2286
X4.7717Y-1.3455
X4.7717Y-1.4625
X4.7717Y-1.5794
X4.7717Y-1.6964
X5.0472Y-0.0591
X5.0472Y-0.176
X5.0472Y-0.293
X5.0472Y-0.4099
X5.0472Y-0.5269
X5.0472Y-0.6438
X5.0472Y-0.7608
X5.0472Y-0.8777
X5.0472Y-0.9947
X5.0472Y-1.1116
X5.0472Y-1.2286
X5.0472Y-1.3455
X5.0472Y-1.4625
X5.0472Y-1.5794
X5.0472Y-1.6964
X5.0472Y-1.8133
X5.0472Y-1.9303
X5.0472Y-2.0472
X5.0472Y-2.1642
T3
X2.3589Y-0.1815
X2.7474Y-0.1815
T4
X2.4169Y-0.1028
X2.6894Y-0.1028
T0
M30
