G04 #@! TF.GenerationSoftware,KiCad,Pcbnew,(6.0.0-rc1-dev-305-gf0b8b2136)*
G04 #@! TF.CreationDate,2019-06-24T13:23:36-06:00*
G04 #@! TF.ProjectId,Station04,53746174696F6E30342E6B696361645F,rev?*
G04 #@! TF.SameCoordinates,Original*
G04 #@! TF.FileFunction,Paste,Bot*
G04 #@! TF.FilePolarity,Positive*
%FSLAX46Y46*%
G04 Gerber Fmt 4.6, Leading zero omitted, Abs format (unit mm)*
G04 Created by KiCad (PCBNEW (6.0.0-rc1-dev-305-gf0b8b2136)) date 06/24/19 13:23:36*
%MOMM*%
%LPD*%
G01*
G04 APERTURE LIST*
%ADD10R,1.501140X3.962400*%
%ADD11R,0.300000X1.500000*%
G04 APERTURE END LIST*
D10*
G04 #@! TO.C,U5*
X81131400Y-54349100D03*
X86668600Y-54349100D03*
G04 #@! TD*
D11*
G04 #@! TO.C,U1*
X62560000Y-5100000D03*
X62560000Y-1600000D03*
X63060000Y-5100000D03*
X63060000Y-1600000D03*
X63560000Y-5100000D03*
X63560000Y-1600000D03*
X64060000Y-5100000D03*
X64060000Y-1600000D03*
X64560000Y-5100000D03*
X64560000Y-1600000D03*
X65060000Y-5100000D03*
X65060000Y-1600000D03*
X65560000Y-5100000D03*
X65560000Y-1600000D03*
X66060000Y-5100000D03*
X66060000Y-1600000D03*
X66560000Y-5100000D03*
X66560000Y-1600000D03*
X67060000Y-5100000D03*
X67060000Y-1600000D03*
G04 #@! TD*
D10*
G04 #@! TO.C,U2*
X119231400Y-54349100D03*
X124768600Y-54349100D03*
G04 #@! TD*
G04 #@! TO.C,U3*
X106531400Y-54349100D03*
X112068600Y-54349100D03*
G04 #@! TD*
G04 #@! TO.C,U4*
X93831400Y-54349100D03*
X99368600Y-54349100D03*
G04 #@! TD*
G04 #@! TO.C,U6*
X68431400Y-54349100D03*
X73968600Y-54349100D03*
G04 #@! TD*
G04 #@! TO.C,U7*
X55731400Y-54349100D03*
X61268600Y-54349100D03*
G04 #@! TD*
G04 #@! TO.C,U8*
X43031400Y-54349100D03*
X48568600Y-54349100D03*
G04 #@! TD*
G04 #@! TO.C,U9*
X30331400Y-54349100D03*
X35868600Y-54349100D03*
G04 #@! TD*
G04 #@! TO.C,U10*
X17631400Y-54349100D03*
X23168600Y-54349100D03*
G04 #@! TD*
G04 #@! TO.C,U11*
X4931400Y-54349100D03*
X10468600Y-54349100D03*
G04 #@! TD*
M02*
