G04 #@! TF.GenerationSoftware,KiCad,Pcbnew,(6.0.0-rc1-dev-305-gf0b8b2136)*
G04 #@! TF.CreationDate,2019-06-24T13:23:36-06:00*
G04 #@! TF.ProjectId,Station04,53746174696F6E30342E6B696361645F,rev?*
G04 #@! TF.SameCoordinates,Original*
G04 #@! TF.FileFunction,Copper,L1,Top,Signal*
G04 #@! TF.FilePolarity,Positive*
%FSLAX46Y46*%
G04 Gerber Fmt 4.6, Leading zero omitted, Abs format (unit mm)*
G04 Created by KiCad (PCBNEW (6.0.0-rc1-dev-305-gf0b8b2136)) date 06/24/19 13:23:36*
%MOMM*%
%LPD*%
G01*
G04 APERTURE LIST*
G04 #@! TA.AperFunction,SMDPad,CuDef*
%ADD10R,1.501140X3.962400*%
G04 #@! TD*
G04 #@! TA.AperFunction,SMDPad,CuDef*
%ADD11R,1.501140X4.241800*%
G04 #@! TD*
G04 #@! TA.AperFunction,ComponentPad*
%ADD12C,1.450000*%
G04 #@! TD*
G04 #@! TA.AperFunction,ComponentPad*
%ADD13C,1.000000*%
G04 #@! TD*
G04 #@! TA.AperFunction,ViaPad*
%ADD14C,0.800000*%
G04 #@! TD*
G04 #@! TA.AperFunction,ViaPad*
%ADD15C,0.711200*%
G04 #@! TD*
G04 #@! TA.AperFunction,Conductor*
%ADD16C,0.250000*%
G04 #@! TD*
G04 #@! TA.AperFunction,Conductor*
%ADD17C,0.254000*%
G04 #@! TD*
G04 APERTURE END LIST*
D10*
G04 #@! TO.P,U5,2*
G04 #@! TO.N,GND*
X81131400Y-54349100D03*
D11*
G04 #@! TO.P,U5,1*
G04 #@! TO.N,Net-(U1-Pad8)*
X83900000Y-54209400D03*
D10*
G04 #@! TO.P,U5,2*
G04 #@! TO.N,GND*
X86668600Y-54349100D03*
G04 #@! TD*
D12*
G04 #@! TO.P,U1,21*
G04 #@! TO.N,GND*
X68310000Y-2610000D03*
X61390000Y-2610000D03*
D13*
X69785000Y-4610000D03*
X59915000Y-4610000D03*
G04 #@! TD*
D10*
G04 #@! TO.P,U2,2*
G04 #@! TO.N,GND*
X119231400Y-54349100D03*
D11*
G04 #@! TO.P,U2,1*
G04 #@! TO.N,Net-(U1-Pad2)*
X122000000Y-54209400D03*
D10*
G04 #@! TO.P,U2,2*
G04 #@! TO.N,GND*
X124768600Y-54349100D03*
G04 #@! TD*
G04 #@! TO.P,U3,2*
G04 #@! TO.N,GND*
X106531400Y-54349100D03*
D11*
G04 #@! TO.P,U3,1*
G04 #@! TO.N,Net-(U1-Pad4)*
X109300000Y-54209400D03*
D10*
G04 #@! TO.P,U3,2*
G04 #@! TO.N,GND*
X112068600Y-54349100D03*
G04 #@! TD*
G04 #@! TO.P,U4,2*
G04 #@! TO.N,GND*
X93831400Y-54349100D03*
D11*
G04 #@! TO.P,U4,1*
G04 #@! TO.N,Net-(U1-Pad6)*
X96600000Y-54209400D03*
D10*
G04 #@! TO.P,U4,2*
G04 #@! TO.N,GND*
X99368600Y-54349100D03*
G04 #@! TD*
G04 #@! TO.P,U6,2*
G04 #@! TO.N,GND*
X68431400Y-54349100D03*
D11*
G04 #@! TO.P,U6,1*
G04 #@! TO.N,Net-(U1-Pad10)*
X71200000Y-54209400D03*
D10*
G04 #@! TO.P,U6,2*
G04 #@! TO.N,GND*
X73968600Y-54349100D03*
G04 #@! TD*
G04 #@! TO.P,U7,2*
G04 #@! TO.N,GND*
X55731400Y-54349100D03*
D11*
G04 #@! TO.P,U7,1*
G04 #@! TO.N,Net-(U1-Pad12)*
X58500000Y-54209400D03*
D10*
G04 #@! TO.P,U7,2*
G04 #@! TO.N,GND*
X61268600Y-54349100D03*
G04 #@! TD*
G04 #@! TO.P,U8,2*
G04 #@! TO.N,GND*
X43031400Y-54349100D03*
D11*
G04 #@! TO.P,U8,1*
G04 #@! TO.N,Net-(U1-Pad14)*
X45800000Y-54209400D03*
D10*
G04 #@! TO.P,U8,2*
G04 #@! TO.N,GND*
X48568600Y-54349100D03*
G04 #@! TD*
G04 #@! TO.P,U9,2*
G04 #@! TO.N,GND*
X30331400Y-54349100D03*
D11*
G04 #@! TO.P,U9,1*
G04 #@! TO.N,Net-(U1-Pad16)*
X33100000Y-54209400D03*
D10*
G04 #@! TO.P,U9,2*
G04 #@! TO.N,GND*
X35868600Y-54349100D03*
G04 #@! TD*
G04 #@! TO.P,U10,2*
G04 #@! TO.N,GND*
X17631400Y-54349100D03*
D11*
G04 #@! TO.P,U10,1*
G04 #@! TO.N,Net-(U1-Pad18)*
X20400000Y-54209400D03*
D10*
G04 #@! TO.P,U10,2*
G04 #@! TO.N,GND*
X23168600Y-54349100D03*
G04 #@! TD*
G04 #@! TO.P,U11,2*
G04 #@! TO.N,GND*
X4931400Y-54349100D03*
D11*
G04 #@! TO.P,U11,1*
G04 #@! TO.N,Net-(U1-Pad20)*
X7700000Y-54209400D03*
D10*
G04 #@! TO.P,U11,2*
G04 #@! TO.N,GND*
X10468600Y-54349100D03*
G04 #@! TD*
D14*
G04 #@! TO.N,GND*
X1500000Y-1500000D03*
X1500000Y-4470555D03*
X1500000Y-7441110D03*
X1500000Y-10411665D03*
X1500000Y-13382220D03*
X1500000Y-16352775D03*
X1500000Y-19323330D03*
X1500000Y-22293885D03*
X1500000Y-25264440D03*
X1500000Y-28234995D03*
X1500000Y-31205550D03*
X1500000Y-34176105D03*
X1500000Y-37146660D03*
X1500000Y-40117215D03*
X1500000Y-43087770D03*
X1500000Y-46058325D03*
X1500000Y-49028880D03*
X1500000Y-51999435D03*
X1500000Y-54970000D03*
X8500000Y-16352775D03*
X8500000Y-7441110D03*
X8500000Y-10411665D03*
X8500000Y-25264440D03*
X8500000Y-31205550D03*
X8500000Y-28234995D03*
X8500000Y-1500000D03*
X8500000Y-19323330D03*
X8500000Y-13382220D03*
X8500000Y-4470555D03*
X8500000Y-22293885D03*
X8500000Y-43087770D03*
X8500000Y-40117215D03*
X8500000Y-37146660D03*
X8500000Y-34176105D03*
X15500000Y-19323330D03*
X15500000Y-16352775D03*
X15500000Y-37146660D03*
X15500000Y-40117215D03*
X15500000Y-22293885D03*
X15500000Y-34176105D03*
X15500000Y-4470555D03*
X15500000Y-13382220D03*
X15500000Y-1500000D03*
X15500000Y-31205550D03*
X15500000Y-28234995D03*
X15500000Y-10411665D03*
X15500000Y-7441110D03*
X15500000Y-25264440D03*
X22500000Y-22293885D03*
X22500000Y-1500000D03*
X22500000Y-7441110D03*
X22500000Y-28234995D03*
X22500000Y-19323330D03*
X22500000Y-25264440D03*
X22500000Y-16352775D03*
X22500000Y-10411665D03*
X22500000Y-31205550D03*
X22500000Y-13382220D03*
X22500000Y-4470555D03*
X29500000Y-22293885D03*
X29500000Y-1500000D03*
X29500000Y-7441110D03*
X29500000Y-28234995D03*
X29500000Y-19323330D03*
X29500000Y-25264440D03*
X29500000Y-16352775D03*
X29500000Y-10411665D03*
X29500000Y-13382220D03*
X29500000Y-4470555D03*
X36500000Y-16352775D03*
X36500000Y-13382220D03*
X36500000Y-4470555D03*
X36500000Y-10411665D03*
X36500000Y-19323330D03*
X36500000Y-7441110D03*
X36500000Y-1500000D03*
X36500000Y-22293885D03*
X43500000Y-13382220D03*
X43500000Y-10411665D03*
X43500000Y-4470555D03*
X43500000Y-1500000D03*
X43500000Y-16352775D03*
X43500000Y-7441110D03*
X50500000Y-7441110D03*
X50500000Y-1500000D03*
X50500000Y-4470555D03*
X50500000Y-10411665D03*
X57500000Y-7441110D03*
X57500000Y-1500000D03*
X57500000Y-4470555D03*
X114200000Y-22293885D03*
X114200000Y-1500000D03*
X114200000Y-37146660D03*
X114200000Y-19323330D03*
X114200000Y-28234995D03*
X114200000Y-16352775D03*
X114200000Y-31205550D03*
X114200000Y-7441110D03*
X114200000Y-34176105D03*
X114200000Y-10411665D03*
X114200000Y-40117215D03*
X114200000Y-4470555D03*
X114200000Y-25264440D03*
X114200000Y-13382220D03*
X100200000Y-16352775D03*
X100200000Y-13382220D03*
X100200000Y-4470555D03*
X100200000Y-10411665D03*
X128200000Y-16352775D03*
X128200000Y-7441110D03*
X128200000Y-1500000D03*
X128200000Y-4470555D03*
X128200000Y-10411665D03*
X128200000Y-46058325D03*
X128200000Y-19323330D03*
X128200000Y-13382220D03*
X128200000Y-28234995D03*
X128200000Y-22293885D03*
X128200000Y-31205550D03*
X128200000Y-34176105D03*
X128200000Y-43087770D03*
X128200000Y-25264440D03*
X128200000Y-37146660D03*
X128200000Y-54970000D03*
X128200000Y-40117215D03*
X128200000Y-49028880D03*
X128200000Y-51999435D03*
X100200000Y-25264440D03*
X100200000Y-19323330D03*
X100200000Y-7441110D03*
X100200000Y-1500000D03*
X100200000Y-28234995D03*
X100200000Y-22293885D03*
X121200000Y-19323330D03*
X121200000Y-16352775D03*
X121200000Y-37146660D03*
X121200000Y-40117215D03*
X121200000Y-43087770D03*
X121200000Y-22293885D03*
X121200000Y-34176105D03*
X121200000Y-4470555D03*
X121200000Y-13382220D03*
X121200000Y-1500000D03*
X121200000Y-31205550D03*
X121200000Y-28234995D03*
X121200000Y-10411665D03*
X121200000Y-7441110D03*
X121200000Y-25264440D03*
X107200000Y-25264440D03*
X107200000Y-13382220D03*
X107200000Y-22293885D03*
X107200000Y-16352775D03*
X107200000Y-31205550D03*
X107200000Y-1500000D03*
X107200000Y-7441110D03*
X107200000Y-4470555D03*
X107200000Y-28234995D03*
X107200000Y-10411665D03*
X107200000Y-19323330D03*
X72200000Y-4470555D03*
X79200000Y-7441110D03*
X86200000Y-7441110D03*
X86200000Y-16352775D03*
X86200000Y-1500000D03*
X93200000Y-13382220D03*
X86200000Y-4470555D03*
X86200000Y-10411665D03*
X79200000Y-1500000D03*
X93200000Y-4470555D03*
X93200000Y-10411665D03*
X93200000Y-19323330D03*
X93200000Y-7441110D03*
X93200000Y-22293885D03*
X93200000Y-1500000D03*
X93200000Y-16352775D03*
X72200000Y-1500000D03*
X79200000Y-10411665D03*
X72200000Y-7441110D03*
X79200000Y-4470555D03*
X86200000Y-13382220D03*
D15*
X53390640Y-25689300D03*
X82039040Y-25689300D03*
X76309360Y-25689300D03*
X47660960Y-25689300D03*
X87768720Y-25689300D03*
X36201600Y-25689300D03*
X93498400Y-25689300D03*
X70579680Y-25689300D03*
X64850000Y-25689300D03*
X41931280Y-25689300D03*
X59120320Y-25689300D03*
X51590640Y-28889700D03*
X84739040Y-28889700D03*
X78109360Y-28889700D03*
X44960960Y-28889700D03*
X91368720Y-28889700D03*
X31701600Y-28889700D03*
X97998400Y-28889700D03*
X71479680Y-28889700D03*
X64850000Y-28889700D03*
X38331280Y-28889700D03*
X58220320Y-28889700D03*
X49883020Y-31963100D03*
X87268720Y-31963100D03*
X79791580Y-31963100D03*
X42405880Y-31963100D03*
X94745860Y-31963100D03*
X27451600Y-31963100D03*
X102248400Y-31963100D03*
X72314440Y-31963100D03*
X64837300Y-31963100D03*
X34928740Y-31963100D03*
X57360160Y-31963100D03*
X48183020Y-35138100D03*
X89818720Y-35138100D03*
X81491580Y-35138100D03*
X39855880Y-35138100D03*
X98145860Y-35138100D03*
X23201600Y-35138100D03*
X106498400Y-35138100D03*
X73164440Y-35138100D03*
X64837300Y-35138100D03*
X31528740Y-35138100D03*
X56510160Y-35138100D03*
X46283020Y-38617900D03*
X92668720Y-38617900D03*
X83391580Y-38617900D03*
X37005880Y-38617900D03*
X101945860Y-38617900D03*
X18451600Y-38617900D03*
X111248400Y-38617900D03*
X74114440Y-38617900D03*
X64837300Y-38617900D03*
X27728740Y-38617900D03*
X55560160Y-38617900D03*
X44383020Y-42097700D03*
X95518720Y-42097700D03*
X85291580Y-42097700D03*
X34155880Y-42097700D03*
X105745860Y-42097700D03*
X13701600Y-42097700D03*
X115998400Y-42097700D03*
X75064440Y-42097700D03*
X64837300Y-42097700D03*
X23928740Y-42097700D03*
X54610160Y-42097700D03*
X42583020Y-45526700D03*
X98218720Y-45526700D03*
X87091580Y-45526700D03*
X31455880Y-45526700D03*
X109345860Y-45526700D03*
X9201600Y-45526700D03*
X120498400Y-45526700D03*
X75964440Y-45526700D03*
X64837300Y-45526700D03*
X20328740Y-45526700D03*
X53710160Y-45526700D03*
X40783020Y-48879500D03*
X100918720Y-48879500D03*
X88891580Y-48879500D03*
X28755880Y-48879500D03*
X112945860Y-48879500D03*
X4701600Y-48879500D03*
X124998400Y-48879500D03*
X76864440Y-48879500D03*
X64837300Y-48879500D03*
X16728740Y-48879500D03*
X52810160Y-48879500D03*
X74839040Y-16907250D03*
X58190640Y-16907250D03*
X71509360Y-16907250D03*
X54860960Y-16907250D03*
X78168720Y-16907250D03*
X48201600Y-16907250D03*
X81498400Y-16907250D03*
X68179680Y-16907250D03*
X64850000Y-16907250D03*
X51531280Y-16907250D03*
X61520320Y-16907250D03*
X72289040Y-13833850D03*
X59890640Y-13833850D03*
X69809360Y-13833850D03*
X57410960Y-13833850D03*
X74618720Y-13833850D03*
X52020000Y-13833850D03*
X77248400Y-13833850D03*
X67329680Y-13833850D03*
X64850000Y-13833850D03*
X55081280Y-13833850D03*
X62370320Y-13833850D03*
X79639040Y-22895300D03*
X59920320Y-22895300D03*
X45131280Y-22895300D03*
X64850000Y-22895300D03*
X69779680Y-22895300D03*
X89498400Y-22895300D03*
X40201600Y-22895300D03*
X84568720Y-22895300D03*
X50060960Y-22895300D03*
X74709360Y-22895300D03*
X54990640Y-22895300D03*
X77239040Y-19980650D03*
X60720320Y-19980650D03*
X48331280Y-19980650D03*
X64850000Y-19980650D03*
X68979680Y-19980650D03*
X85498400Y-19980650D03*
X44201600Y-19980650D03*
X81368720Y-19980650D03*
X52460960Y-19980650D03*
X73109360Y-19980650D03*
X56590640Y-19980650D03*
G04 #@! TO.N,Net-(U1-Pad20)*
X60410000Y-8350000D03*
X7700000Y-51350000D03*
G04 #@! TO.N,Net-(U1-Pad18)*
X20400000Y-51350000D03*
X61460000Y-8350000D03*
G04 #@! TO.N,Net-(U1-Pad16)*
X33100000Y-51350000D03*
X62410000Y-8350000D03*
G04 #@! TO.N,Net-(U1-Pad14)*
X45800000Y-51350000D03*
X63360000Y-8350000D03*
G04 #@! TO.N,Net-(U1-Pad12)*
X58500000Y-51350000D03*
X64310000Y-8350000D03*
G04 #@! TO.N,Net-(U1-Pad10)*
X71200000Y-51350000D03*
X65310000Y-8350000D03*
G04 #@! TO.N,Net-(U1-Pad8)*
X83900000Y-51350000D03*
X66260000Y-8350000D03*
G04 #@! TO.N,Net-(U1-Pad6)*
X96600000Y-51350000D03*
X67210000Y-8350000D03*
G04 #@! TO.N,Net-(U1-Pad4)*
X109300000Y-51350000D03*
X68160000Y-8350000D03*
G04 #@! TO.N,Net-(U1-Pad2)*
X122000000Y-51350000D03*
X69210000Y-8350000D03*
G04 #@! TD*
D16*
G04 #@! TO.N,Net-(U1-Pad20)*
X7700000Y-51852894D02*
X7700000Y-54209400D01*
X7700000Y-51350000D02*
X7700000Y-51852894D01*
G04 #@! TO.N,Net-(U1-Pad18)*
X20400000Y-51852894D02*
X20400000Y-54209400D01*
X20400000Y-51350000D02*
X20400000Y-51852894D01*
G04 #@! TO.N,Net-(U1-Pad16)*
X33100000Y-51350000D02*
X33100000Y-54209400D01*
G04 #@! TO.N,Net-(U1-Pad14)*
X45800000Y-51852894D02*
X45800000Y-54209400D01*
X45800000Y-51350000D02*
X45800000Y-51852894D01*
G04 #@! TO.N,Net-(U1-Pad12)*
X58500000Y-51350000D02*
X58500000Y-54209400D01*
G04 #@! TO.N,Net-(U1-Pad10)*
X71200000Y-51852894D02*
X71200000Y-54209400D01*
X71200000Y-51350000D02*
X71200000Y-51852894D01*
G04 #@! TO.N,Net-(U1-Pad8)*
X83900000Y-51350000D02*
X83900000Y-54209400D01*
G04 #@! TO.N,Net-(U1-Pad6)*
X96600000Y-51350000D02*
X96600000Y-54209400D01*
G04 #@! TO.N,Net-(U1-Pad4)*
X109300000Y-51350000D02*
X109300000Y-54209400D01*
G04 #@! TO.N,Net-(U1-Pad2)*
X122000000Y-51350000D02*
X122000000Y-54209400D01*
G04 #@! TD*
D17*
G04 #@! TO.N,GND*
G36*
X129040000Y-55810000D02*
X126154170Y-55810000D01*
X126154170Y-54634850D01*
X125995420Y-54476100D01*
X124895600Y-54476100D01*
X124895600Y-54496100D01*
X124641600Y-54496100D01*
X124641600Y-54476100D01*
X124621600Y-54476100D01*
X124621600Y-54222100D01*
X124641600Y-54222100D01*
X124641600Y-51891650D01*
X124895600Y-51891650D01*
X124895600Y-54222100D01*
X125995420Y-54222100D01*
X126154170Y-54063350D01*
X126154170Y-52305358D01*
X126129767Y-52182677D01*
X126081900Y-52067115D01*
X126012407Y-51963111D01*
X125923959Y-51874663D01*
X125819955Y-51805170D01*
X125704393Y-51757303D01*
X125581712Y-51732900D01*
X125054350Y-51732900D01*
X124895600Y-51891650D01*
X124641600Y-51891650D01*
X124482850Y-51732900D01*
X123955488Y-51732900D01*
X123832807Y-51757303D01*
X123717245Y-51805170D01*
X123613241Y-51874663D01*
X123524793Y-51963111D01*
X123455300Y-52067115D01*
X123407433Y-52182677D01*
X123388642Y-52277145D01*
X123388642Y-52088500D01*
X123376382Y-51964018D01*
X123340072Y-51844320D01*
X123281107Y-51734006D01*
X123201755Y-51637315D01*
X123105064Y-51557963D01*
X122994750Y-51498998D01*
X122981188Y-51494884D01*
X122990600Y-51447566D01*
X122990600Y-51252434D01*
X122952532Y-51061053D01*
X122877858Y-50880775D01*
X122769449Y-50718529D01*
X122631471Y-50580551D01*
X122469225Y-50472142D01*
X122288947Y-50397468D01*
X122097566Y-50359400D01*
X121902434Y-50359400D01*
X121711053Y-50397468D01*
X121530775Y-50472142D01*
X121368529Y-50580551D01*
X121230551Y-50718529D01*
X121122142Y-50880775D01*
X121047468Y-51061053D01*
X121009400Y-51252434D01*
X121009400Y-51447566D01*
X121018812Y-51494884D01*
X121005250Y-51498998D01*
X120894936Y-51557963D01*
X120798245Y-51637315D01*
X120718893Y-51734006D01*
X120659928Y-51844320D01*
X120623618Y-51964018D01*
X120611358Y-52088500D01*
X120611358Y-52277145D01*
X120592567Y-52182677D01*
X120544700Y-52067115D01*
X120475207Y-51963111D01*
X120386759Y-51874663D01*
X120282755Y-51805170D01*
X120167193Y-51757303D01*
X120044512Y-51732900D01*
X119517150Y-51732900D01*
X119358400Y-51891650D01*
X119358400Y-54222100D01*
X119378400Y-54222100D01*
X119378400Y-54476100D01*
X119358400Y-54476100D01*
X119358400Y-54496100D01*
X119104400Y-54496100D01*
X119104400Y-54476100D01*
X118004580Y-54476100D01*
X117845830Y-54634850D01*
X117845830Y-55810000D01*
X113454170Y-55810000D01*
X113454170Y-54634850D01*
X113295420Y-54476100D01*
X112195600Y-54476100D01*
X112195600Y-54496100D01*
X111941600Y-54496100D01*
X111941600Y-54476100D01*
X111921600Y-54476100D01*
X111921600Y-54222100D01*
X111941600Y-54222100D01*
X111941600Y-51891650D01*
X112195600Y-51891650D01*
X112195600Y-54222100D01*
X113295420Y-54222100D01*
X113454170Y-54063350D01*
X113454170Y-52305358D01*
X117845830Y-52305358D01*
X117845830Y-54063350D01*
X118004580Y-54222100D01*
X119104400Y-54222100D01*
X119104400Y-51891650D01*
X118945650Y-51732900D01*
X118418288Y-51732900D01*
X118295607Y-51757303D01*
X118180045Y-51805170D01*
X118076041Y-51874663D01*
X117987593Y-51963111D01*
X117918100Y-52067115D01*
X117870233Y-52182677D01*
X117845830Y-52305358D01*
X113454170Y-52305358D01*
X113429767Y-52182677D01*
X113381900Y-52067115D01*
X113312407Y-51963111D01*
X113223959Y-51874663D01*
X113119955Y-51805170D01*
X113004393Y-51757303D01*
X112881712Y-51732900D01*
X112354350Y-51732900D01*
X112195600Y-51891650D01*
X111941600Y-51891650D01*
X111782850Y-51732900D01*
X111255488Y-51732900D01*
X111132807Y-51757303D01*
X111017245Y-51805170D01*
X110913241Y-51874663D01*
X110824793Y-51963111D01*
X110755300Y-52067115D01*
X110707433Y-52182677D01*
X110688642Y-52277145D01*
X110688642Y-52088500D01*
X110676382Y-51964018D01*
X110640072Y-51844320D01*
X110581107Y-51734006D01*
X110501755Y-51637315D01*
X110405064Y-51557963D01*
X110294750Y-51498998D01*
X110281188Y-51494884D01*
X110290600Y-51447566D01*
X110290600Y-51252434D01*
X110252532Y-51061053D01*
X110177858Y-50880775D01*
X110069449Y-50718529D01*
X109931471Y-50580551D01*
X109769225Y-50472142D01*
X109588947Y-50397468D01*
X109397566Y-50359400D01*
X109202434Y-50359400D01*
X109011053Y-50397468D01*
X108830775Y-50472142D01*
X108668529Y-50580551D01*
X108530551Y-50718529D01*
X108422142Y-50880775D01*
X108347468Y-51061053D01*
X108309400Y-51252434D01*
X108309400Y-51447566D01*
X108318812Y-51494884D01*
X108305250Y-51498998D01*
X108194936Y-51557963D01*
X108098245Y-51637315D01*
X108018893Y-51734006D01*
X107959928Y-51844320D01*
X107923618Y-51964018D01*
X107911358Y-52088500D01*
X107911358Y-52277145D01*
X107892567Y-52182677D01*
X107844700Y-52067115D01*
X107775207Y-51963111D01*
X107686759Y-51874663D01*
X107582755Y-51805170D01*
X107467193Y-51757303D01*
X107344512Y-51732900D01*
X106817150Y-51732900D01*
X106658400Y-51891650D01*
X106658400Y-54222100D01*
X106678400Y-54222100D01*
X106678400Y-54476100D01*
X106658400Y-54476100D01*
X106658400Y-54496100D01*
X106404400Y-54496100D01*
X106404400Y-54476100D01*
X105304580Y-54476100D01*
X105145830Y-54634850D01*
X105145830Y-55810000D01*
X100754170Y-55810000D01*
X100754170Y-54634850D01*
X100595420Y-54476100D01*
X99495600Y-54476100D01*
X99495600Y-54496100D01*
X99241600Y-54496100D01*
X99241600Y-54476100D01*
X99221600Y-54476100D01*
X99221600Y-54222100D01*
X99241600Y-54222100D01*
X99241600Y-51891650D01*
X99495600Y-51891650D01*
X99495600Y-54222100D01*
X100595420Y-54222100D01*
X100754170Y-54063350D01*
X100754170Y-52305358D01*
X105145830Y-52305358D01*
X105145830Y-54063350D01*
X105304580Y-54222100D01*
X106404400Y-54222100D01*
X106404400Y-51891650D01*
X106245650Y-51732900D01*
X105718288Y-51732900D01*
X105595607Y-51757303D01*
X105480045Y-51805170D01*
X105376041Y-51874663D01*
X105287593Y-51963111D01*
X105218100Y-52067115D01*
X105170233Y-52182677D01*
X105145830Y-52305358D01*
X100754170Y-52305358D01*
X100729767Y-52182677D01*
X100681900Y-52067115D01*
X100612407Y-51963111D01*
X100523959Y-51874663D01*
X100419955Y-51805170D01*
X100304393Y-51757303D01*
X100181712Y-51732900D01*
X99654350Y-51732900D01*
X99495600Y-51891650D01*
X99241600Y-51891650D01*
X99082850Y-51732900D01*
X98555488Y-51732900D01*
X98432807Y-51757303D01*
X98317245Y-51805170D01*
X98213241Y-51874663D01*
X98124793Y-51963111D01*
X98055300Y-52067115D01*
X98007433Y-52182677D01*
X97988642Y-52277145D01*
X97988642Y-52088500D01*
X97976382Y-51964018D01*
X97940072Y-51844320D01*
X97881107Y-51734006D01*
X97801755Y-51637315D01*
X97705064Y-51557963D01*
X97594750Y-51498998D01*
X97581188Y-51494884D01*
X97590600Y-51447566D01*
X97590600Y-51252434D01*
X97552532Y-51061053D01*
X97477858Y-50880775D01*
X97369449Y-50718529D01*
X97231471Y-50580551D01*
X97069225Y-50472142D01*
X96888947Y-50397468D01*
X96697566Y-50359400D01*
X96502434Y-50359400D01*
X96311053Y-50397468D01*
X96130775Y-50472142D01*
X95968529Y-50580551D01*
X95830551Y-50718529D01*
X95722142Y-50880775D01*
X95647468Y-51061053D01*
X95609400Y-51252434D01*
X95609400Y-51447566D01*
X95618812Y-51494884D01*
X95605250Y-51498998D01*
X95494936Y-51557963D01*
X95398245Y-51637315D01*
X95318893Y-51734006D01*
X95259928Y-51844320D01*
X95223618Y-51964018D01*
X95211358Y-52088500D01*
X95211358Y-52277145D01*
X95192567Y-52182677D01*
X95144700Y-52067115D01*
X95075207Y-51963111D01*
X94986759Y-51874663D01*
X94882755Y-51805170D01*
X94767193Y-51757303D01*
X94644512Y-51732900D01*
X94117150Y-51732900D01*
X93958400Y-51891650D01*
X93958400Y-54222100D01*
X93978400Y-54222100D01*
X93978400Y-54476100D01*
X93958400Y-54476100D01*
X93958400Y-54496100D01*
X93704400Y-54496100D01*
X93704400Y-54476100D01*
X92604580Y-54476100D01*
X92445830Y-54634850D01*
X92445830Y-55810000D01*
X88054170Y-55810000D01*
X88054170Y-54634850D01*
X87895420Y-54476100D01*
X86795600Y-54476100D01*
X86795600Y-54496100D01*
X86541600Y-54496100D01*
X86541600Y-54476100D01*
X86521600Y-54476100D01*
X86521600Y-54222100D01*
X86541600Y-54222100D01*
X86541600Y-51891650D01*
X86795600Y-51891650D01*
X86795600Y-54222100D01*
X87895420Y-54222100D01*
X88054170Y-54063350D01*
X88054170Y-52305358D01*
X92445830Y-52305358D01*
X92445830Y-54063350D01*
X92604580Y-54222100D01*
X93704400Y-54222100D01*
X93704400Y-51891650D01*
X93545650Y-51732900D01*
X93018288Y-51732900D01*
X92895607Y-51757303D01*
X92780045Y-51805170D01*
X92676041Y-51874663D01*
X92587593Y-51963111D01*
X92518100Y-52067115D01*
X92470233Y-52182677D01*
X92445830Y-52305358D01*
X88054170Y-52305358D01*
X88029767Y-52182677D01*
X87981900Y-52067115D01*
X87912407Y-51963111D01*
X87823959Y-51874663D01*
X87719955Y-51805170D01*
X87604393Y-51757303D01*
X87481712Y-51732900D01*
X86954350Y-51732900D01*
X86795600Y-51891650D01*
X86541600Y-51891650D01*
X86382850Y-51732900D01*
X85855488Y-51732900D01*
X85732807Y-51757303D01*
X85617245Y-51805170D01*
X85513241Y-51874663D01*
X85424793Y-51963111D01*
X85355300Y-52067115D01*
X85307433Y-52182677D01*
X85288642Y-52277145D01*
X85288642Y-52088500D01*
X85276382Y-51964018D01*
X85240072Y-51844320D01*
X85181107Y-51734006D01*
X85101755Y-51637315D01*
X85005064Y-51557963D01*
X84894750Y-51498998D01*
X84881188Y-51494884D01*
X84890600Y-51447566D01*
X84890600Y-51252434D01*
X84852532Y-51061053D01*
X84777858Y-50880775D01*
X84669449Y-50718529D01*
X84531471Y-50580551D01*
X84369225Y-50472142D01*
X84188947Y-50397468D01*
X83997566Y-50359400D01*
X83802434Y-50359400D01*
X83611053Y-50397468D01*
X83430775Y-50472142D01*
X83268529Y-50580551D01*
X83130551Y-50718529D01*
X83022142Y-50880775D01*
X82947468Y-51061053D01*
X82909400Y-51252434D01*
X82909400Y-51447566D01*
X82918812Y-51494884D01*
X82905250Y-51498998D01*
X82794936Y-51557963D01*
X82698245Y-51637315D01*
X82618893Y-51734006D01*
X82559928Y-51844320D01*
X82523618Y-51964018D01*
X82511358Y-52088500D01*
X82511358Y-52277145D01*
X82492567Y-52182677D01*
X82444700Y-52067115D01*
X82375207Y-51963111D01*
X82286759Y-51874663D01*
X82182755Y-51805170D01*
X82067193Y-51757303D01*
X81944512Y-51732900D01*
X81417150Y-51732900D01*
X81258400Y-51891650D01*
X81258400Y-54222100D01*
X81278400Y-54222100D01*
X81278400Y-54476100D01*
X81258400Y-54476100D01*
X81258400Y-54496100D01*
X81004400Y-54496100D01*
X81004400Y-54476100D01*
X79904580Y-54476100D01*
X79745830Y-54634850D01*
X79745830Y-55810000D01*
X75354170Y-55810000D01*
X75354170Y-54634850D01*
X75195420Y-54476100D01*
X74095600Y-54476100D01*
X74095600Y-54496100D01*
X73841600Y-54496100D01*
X73841600Y-54476100D01*
X73821600Y-54476100D01*
X73821600Y-54222100D01*
X73841600Y-54222100D01*
X73841600Y-51891650D01*
X74095600Y-51891650D01*
X74095600Y-54222100D01*
X75195420Y-54222100D01*
X75354170Y-54063350D01*
X75354170Y-52305358D01*
X79745830Y-52305358D01*
X79745830Y-54063350D01*
X79904580Y-54222100D01*
X81004400Y-54222100D01*
X81004400Y-51891650D01*
X80845650Y-51732900D01*
X80318288Y-51732900D01*
X80195607Y-51757303D01*
X80080045Y-51805170D01*
X79976041Y-51874663D01*
X79887593Y-51963111D01*
X79818100Y-52067115D01*
X79770233Y-52182677D01*
X79745830Y-52305358D01*
X75354170Y-52305358D01*
X75329767Y-52182677D01*
X75281900Y-52067115D01*
X75212407Y-51963111D01*
X75123959Y-51874663D01*
X75019955Y-51805170D01*
X74904393Y-51757303D01*
X74781712Y-51732900D01*
X74254350Y-51732900D01*
X74095600Y-51891650D01*
X73841600Y-51891650D01*
X73682850Y-51732900D01*
X73155488Y-51732900D01*
X73032807Y-51757303D01*
X72917245Y-51805170D01*
X72813241Y-51874663D01*
X72724793Y-51963111D01*
X72655300Y-52067115D01*
X72607433Y-52182677D01*
X72588642Y-52277145D01*
X72588642Y-52088500D01*
X72576382Y-51964018D01*
X72540072Y-51844320D01*
X72481107Y-51734006D01*
X72401755Y-51637315D01*
X72305064Y-51557963D01*
X72194750Y-51498998D01*
X72181188Y-51494884D01*
X72190600Y-51447566D01*
X72190600Y-51252434D01*
X72152532Y-51061053D01*
X72077858Y-50880775D01*
X71969449Y-50718529D01*
X71831471Y-50580551D01*
X71669225Y-50472142D01*
X71488947Y-50397468D01*
X71297566Y-50359400D01*
X71102434Y-50359400D01*
X70911053Y-50397468D01*
X70730775Y-50472142D01*
X70568529Y-50580551D01*
X70430551Y-50718529D01*
X70322142Y-50880775D01*
X70247468Y-51061053D01*
X70209400Y-51252434D01*
X70209400Y-51447566D01*
X70218812Y-51494884D01*
X70205250Y-51498998D01*
X70094936Y-51557963D01*
X69998245Y-51637315D01*
X69918893Y-51734006D01*
X69859928Y-51844320D01*
X69823618Y-51964018D01*
X69811358Y-52088500D01*
X69811358Y-52277145D01*
X69792567Y-52182677D01*
X69744700Y-52067115D01*
X69675207Y-51963111D01*
X69586759Y-51874663D01*
X69482755Y-51805170D01*
X69367193Y-51757303D01*
X69244512Y-51732900D01*
X68717150Y-51732900D01*
X68558400Y-51891650D01*
X68558400Y-54222100D01*
X68578400Y-54222100D01*
X68578400Y-54476100D01*
X68558400Y-54476100D01*
X68558400Y-54496100D01*
X68304400Y-54496100D01*
X68304400Y-54476100D01*
X67204580Y-54476100D01*
X67045830Y-54634850D01*
X67045830Y-55810000D01*
X62654170Y-55810000D01*
X62654170Y-54634850D01*
X62495420Y-54476100D01*
X61395600Y-54476100D01*
X61395600Y-54496100D01*
X61141600Y-54496100D01*
X61141600Y-54476100D01*
X61121600Y-54476100D01*
X61121600Y-54222100D01*
X61141600Y-54222100D01*
X61141600Y-51891650D01*
X61395600Y-51891650D01*
X61395600Y-54222100D01*
X62495420Y-54222100D01*
X62654170Y-54063350D01*
X62654170Y-52305358D01*
X67045830Y-52305358D01*
X67045830Y-54063350D01*
X67204580Y-54222100D01*
X68304400Y-54222100D01*
X68304400Y-51891650D01*
X68145650Y-51732900D01*
X67618288Y-51732900D01*
X67495607Y-51757303D01*
X67380045Y-51805170D01*
X67276041Y-51874663D01*
X67187593Y-51963111D01*
X67118100Y-52067115D01*
X67070233Y-52182677D01*
X67045830Y-52305358D01*
X62654170Y-52305358D01*
X62629767Y-52182677D01*
X62581900Y-52067115D01*
X62512407Y-51963111D01*
X62423959Y-51874663D01*
X62319955Y-51805170D01*
X62204393Y-51757303D01*
X62081712Y-51732900D01*
X61554350Y-51732900D01*
X61395600Y-51891650D01*
X61141600Y-51891650D01*
X60982850Y-51732900D01*
X60455488Y-51732900D01*
X60332807Y-51757303D01*
X60217245Y-51805170D01*
X60113241Y-51874663D01*
X60024793Y-51963111D01*
X59955300Y-52067115D01*
X59907433Y-52182677D01*
X59888642Y-52277145D01*
X59888642Y-52088500D01*
X59876382Y-51964018D01*
X59840072Y-51844320D01*
X59781107Y-51734006D01*
X59701755Y-51637315D01*
X59605064Y-51557963D01*
X59494750Y-51498998D01*
X59481188Y-51494884D01*
X59490600Y-51447566D01*
X59490600Y-51252434D01*
X59452532Y-51061053D01*
X59377858Y-50880775D01*
X59269449Y-50718529D01*
X59131471Y-50580551D01*
X58969225Y-50472142D01*
X58788947Y-50397468D01*
X58597566Y-50359400D01*
X58402434Y-50359400D01*
X58211053Y-50397468D01*
X58030775Y-50472142D01*
X57868529Y-50580551D01*
X57730551Y-50718529D01*
X57622142Y-50880775D01*
X57547468Y-51061053D01*
X57509400Y-51252434D01*
X57509400Y-51447566D01*
X57518812Y-51494884D01*
X57505250Y-51498998D01*
X57394936Y-51557963D01*
X57298245Y-51637315D01*
X57218893Y-51734006D01*
X57159928Y-51844320D01*
X57123618Y-51964018D01*
X57111358Y-52088500D01*
X57111358Y-52277145D01*
X57092567Y-52182677D01*
X57044700Y-52067115D01*
X56975207Y-51963111D01*
X56886759Y-51874663D01*
X56782755Y-51805170D01*
X56667193Y-51757303D01*
X56544512Y-51732900D01*
X56017150Y-51732900D01*
X55858400Y-51891650D01*
X55858400Y-54222100D01*
X55878400Y-54222100D01*
X55878400Y-54476100D01*
X55858400Y-54476100D01*
X55858400Y-54496100D01*
X55604400Y-54496100D01*
X55604400Y-54476100D01*
X54504580Y-54476100D01*
X54345830Y-54634850D01*
X54345830Y-55810000D01*
X49954170Y-55810000D01*
X49954170Y-54634850D01*
X49795420Y-54476100D01*
X48695600Y-54476100D01*
X48695600Y-54496100D01*
X48441600Y-54496100D01*
X48441600Y-54476100D01*
X48421600Y-54476100D01*
X48421600Y-54222100D01*
X48441600Y-54222100D01*
X48441600Y-51891650D01*
X48695600Y-51891650D01*
X48695600Y-54222100D01*
X49795420Y-54222100D01*
X49954170Y-54063350D01*
X49954170Y-52305358D01*
X54345830Y-52305358D01*
X54345830Y-54063350D01*
X54504580Y-54222100D01*
X55604400Y-54222100D01*
X55604400Y-51891650D01*
X55445650Y-51732900D01*
X54918288Y-51732900D01*
X54795607Y-51757303D01*
X54680045Y-51805170D01*
X54576041Y-51874663D01*
X54487593Y-51963111D01*
X54418100Y-52067115D01*
X54370233Y-52182677D01*
X54345830Y-52305358D01*
X49954170Y-52305358D01*
X49929767Y-52182677D01*
X49881900Y-52067115D01*
X49812407Y-51963111D01*
X49723959Y-51874663D01*
X49619955Y-51805170D01*
X49504393Y-51757303D01*
X49381712Y-51732900D01*
X48854350Y-51732900D01*
X48695600Y-51891650D01*
X48441600Y-51891650D01*
X48282850Y-51732900D01*
X47755488Y-51732900D01*
X47632807Y-51757303D01*
X47517245Y-51805170D01*
X47413241Y-51874663D01*
X47324793Y-51963111D01*
X47255300Y-52067115D01*
X47207433Y-52182677D01*
X47188642Y-52277145D01*
X47188642Y-52088500D01*
X47176382Y-51964018D01*
X47140072Y-51844320D01*
X47081107Y-51734006D01*
X47001755Y-51637315D01*
X46905064Y-51557963D01*
X46794750Y-51498998D01*
X46781188Y-51494884D01*
X46790600Y-51447566D01*
X46790600Y-51252434D01*
X46752532Y-51061053D01*
X46677858Y-50880775D01*
X46569449Y-50718529D01*
X46431471Y-50580551D01*
X46269225Y-50472142D01*
X46088947Y-50397468D01*
X45897566Y-50359400D01*
X45702434Y-50359400D01*
X45511053Y-50397468D01*
X45330775Y-50472142D01*
X45168529Y-50580551D01*
X45030551Y-50718529D01*
X44922142Y-50880775D01*
X44847468Y-51061053D01*
X44809400Y-51252434D01*
X44809400Y-51447566D01*
X44818812Y-51494884D01*
X44805250Y-51498998D01*
X44694936Y-51557963D01*
X44598245Y-51637315D01*
X44518893Y-51734006D01*
X44459928Y-51844320D01*
X44423618Y-51964018D01*
X44411358Y-52088500D01*
X44411358Y-52277145D01*
X44392567Y-52182677D01*
X44344700Y-52067115D01*
X44275207Y-51963111D01*
X44186759Y-51874663D01*
X44082755Y-51805170D01*
X43967193Y-51757303D01*
X43844512Y-51732900D01*
X43317150Y-51732900D01*
X43158400Y-51891650D01*
X43158400Y-54222100D01*
X43178400Y-54222100D01*
X43178400Y-54476100D01*
X43158400Y-54476100D01*
X43158400Y-54496100D01*
X42904400Y-54496100D01*
X42904400Y-54476100D01*
X41804580Y-54476100D01*
X41645830Y-54634850D01*
X41645830Y-55810000D01*
X37254170Y-55810000D01*
X37254170Y-54634850D01*
X37095420Y-54476100D01*
X35995600Y-54476100D01*
X35995600Y-54496100D01*
X35741600Y-54496100D01*
X35741600Y-54476100D01*
X35721600Y-54476100D01*
X35721600Y-54222100D01*
X35741600Y-54222100D01*
X35741600Y-51891650D01*
X35995600Y-51891650D01*
X35995600Y-54222100D01*
X37095420Y-54222100D01*
X37254170Y-54063350D01*
X37254170Y-52305358D01*
X41645830Y-52305358D01*
X41645830Y-54063350D01*
X41804580Y-54222100D01*
X42904400Y-54222100D01*
X42904400Y-51891650D01*
X42745650Y-51732900D01*
X42218288Y-51732900D01*
X42095607Y-51757303D01*
X41980045Y-51805170D01*
X41876041Y-51874663D01*
X41787593Y-51963111D01*
X41718100Y-52067115D01*
X41670233Y-52182677D01*
X41645830Y-52305358D01*
X37254170Y-52305358D01*
X37229767Y-52182677D01*
X37181900Y-52067115D01*
X37112407Y-51963111D01*
X37023959Y-51874663D01*
X36919955Y-51805170D01*
X36804393Y-51757303D01*
X36681712Y-51732900D01*
X36154350Y-51732900D01*
X35995600Y-51891650D01*
X35741600Y-51891650D01*
X35582850Y-51732900D01*
X35055488Y-51732900D01*
X34932807Y-51757303D01*
X34817245Y-51805170D01*
X34713241Y-51874663D01*
X34624793Y-51963111D01*
X34555300Y-52067115D01*
X34507433Y-52182677D01*
X34488642Y-52277145D01*
X34488642Y-52088500D01*
X34476382Y-51964018D01*
X34440072Y-51844320D01*
X34381107Y-51734006D01*
X34301755Y-51637315D01*
X34205064Y-51557963D01*
X34094750Y-51498998D01*
X34081188Y-51494884D01*
X34090600Y-51447566D01*
X34090600Y-51252434D01*
X34052532Y-51061053D01*
X33977858Y-50880775D01*
X33869449Y-50718529D01*
X33731471Y-50580551D01*
X33569225Y-50472142D01*
X33388947Y-50397468D01*
X33197566Y-50359400D01*
X33002434Y-50359400D01*
X32811053Y-50397468D01*
X32630775Y-50472142D01*
X32468529Y-50580551D01*
X32330551Y-50718529D01*
X32222142Y-50880775D01*
X32147468Y-51061053D01*
X32109400Y-51252434D01*
X32109400Y-51447566D01*
X32118812Y-51494884D01*
X32105250Y-51498998D01*
X31994936Y-51557963D01*
X31898245Y-51637315D01*
X31818893Y-51734006D01*
X31759928Y-51844320D01*
X31723618Y-51964018D01*
X31711358Y-52088500D01*
X31711358Y-52277145D01*
X31692567Y-52182677D01*
X31644700Y-52067115D01*
X31575207Y-51963111D01*
X31486759Y-51874663D01*
X31382755Y-51805170D01*
X31267193Y-51757303D01*
X31144512Y-51732900D01*
X30617150Y-51732900D01*
X30458400Y-51891650D01*
X30458400Y-54222100D01*
X30478400Y-54222100D01*
X30478400Y-54476100D01*
X30458400Y-54476100D01*
X30458400Y-54496100D01*
X30204400Y-54496100D01*
X30204400Y-54476100D01*
X29104580Y-54476100D01*
X28945830Y-54634850D01*
X28945830Y-55810000D01*
X24554170Y-55810000D01*
X24554170Y-54634850D01*
X24395420Y-54476100D01*
X23295600Y-54476100D01*
X23295600Y-54496100D01*
X23041600Y-54496100D01*
X23041600Y-54476100D01*
X23021600Y-54476100D01*
X23021600Y-54222100D01*
X23041600Y-54222100D01*
X23041600Y-51891650D01*
X23295600Y-51891650D01*
X23295600Y-54222100D01*
X24395420Y-54222100D01*
X24554170Y-54063350D01*
X24554170Y-52305358D01*
X28945830Y-52305358D01*
X28945830Y-54063350D01*
X29104580Y-54222100D01*
X30204400Y-54222100D01*
X30204400Y-51891650D01*
X30045650Y-51732900D01*
X29518288Y-51732900D01*
X29395607Y-51757303D01*
X29280045Y-51805170D01*
X29176041Y-51874663D01*
X29087593Y-51963111D01*
X29018100Y-52067115D01*
X28970233Y-52182677D01*
X28945830Y-52305358D01*
X24554170Y-52305358D01*
X24529767Y-52182677D01*
X24481900Y-52067115D01*
X24412407Y-51963111D01*
X24323959Y-51874663D01*
X24219955Y-51805170D01*
X24104393Y-51757303D01*
X23981712Y-51732900D01*
X23454350Y-51732900D01*
X23295600Y-51891650D01*
X23041600Y-51891650D01*
X22882850Y-51732900D01*
X22355488Y-51732900D01*
X22232807Y-51757303D01*
X22117245Y-51805170D01*
X22013241Y-51874663D01*
X21924793Y-51963111D01*
X21855300Y-52067115D01*
X21807433Y-52182677D01*
X21788642Y-52277145D01*
X21788642Y-52088500D01*
X21776382Y-51964018D01*
X21740072Y-51844320D01*
X21681107Y-51734006D01*
X21601755Y-51637315D01*
X21505064Y-51557963D01*
X21394750Y-51498998D01*
X21381188Y-51494884D01*
X21390600Y-51447566D01*
X21390600Y-51252434D01*
X21352532Y-51061053D01*
X21277858Y-50880775D01*
X21169449Y-50718529D01*
X21031471Y-50580551D01*
X20869225Y-50472142D01*
X20688947Y-50397468D01*
X20497566Y-50359400D01*
X20302434Y-50359400D01*
X20111053Y-50397468D01*
X19930775Y-50472142D01*
X19768529Y-50580551D01*
X19630551Y-50718529D01*
X19522142Y-50880775D01*
X19447468Y-51061053D01*
X19409400Y-51252434D01*
X19409400Y-51447566D01*
X19418812Y-51494884D01*
X19405250Y-51498998D01*
X19294936Y-51557963D01*
X19198245Y-51637315D01*
X19118893Y-51734006D01*
X19059928Y-51844320D01*
X19023618Y-51964018D01*
X19011358Y-52088500D01*
X19011358Y-52277145D01*
X18992567Y-52182677D01*
X18944700Y-52067115D01*
X18875207Y-51963111D01*
X18786759Y-51874663D01*
X18682755Y-51805170D01*
X18567193Y-51757303D01*
X18444512Y-51732900D01*
X17917150Y-51732900D01*
X17758400Y-51891650D01*
X17758400Y-54222100D01*
X17778400Y-54222100D01*
X17778400Y-54476100D01*
X17758400Y-54476100D01*
X17758400Y-54496100D01*
X17504400Y-54496100D01*
X17504400Y-54476100D01*
X16404580Y-54476100D01*
X16245830Y-54634850D01*
X16245830Y-55810000D01*
X11854170Y-55810000D01*
X11854170Y-54634850D01*
X11695420Y-54476100D01*
X10595600Y-54476100D01*
X10595600Y-54496100D01*
X10341600Y-54496100D01*
X10341600Y-54476100D01*
X10321600Y-54476100D01*
X10321600Y-54222100D01*
X10341600Y-54222100D01*
X10341600Y-51891650D01*
X10595600Y-51891650D01*
X10595600Y-54222100D01*
X11695420Y-54222100D01*
X11854170Y-54063350D01*
X11854170Y-52305358D01*
X16245830Y-52305358D01*
X16245830Y-54063350D01*
X16404580Y-54222100D01*
X17504400Y-54222100D01*
X17504400Y-51891650D01*
X17345650Y-51732900D01*
X16818288Y-51732900D01*
X16695607Y-51757303D01*
X16580045Y-51805170D01*
X16476041Y-51874663D01*
X16387593Y-51963111D01*
X16318100Y-52067115D01*
X16270233Y-52182677D01*
X16245830Y-52305358D01*
X11854170Y-52305358D01*
X11829767Y-52182677D01*
X11781900Y-52067115D01*
X11712407Y-51963111D01*
X11623959Y-51874663D01*
X11519955Y-51805170D01*
X11404393Y-51757303D01*
X11281712Y-51732900D01*
X10754350Y-51732900D01*
X10595600Y-51891650D01*
X10341600Y-51891650D01*
X10182850Y-51732900D01*
X9655488Y-51732900D01*
X9532807Y-51757303D01*
X9417245Y-51805170D01*
X9313241Y-51874663D01*
X9224793Y-51963111D01*
X9155300Y-52067115D01*
X9107433Y-52182677D01*
X9088642Y-52277145D01*
X9088642Y-52088500D01*
X9076382Y-51964018D01*
X9040072Y-51844320D01*
X8981107Y-51734006D01*
X8901755Y-51637315D01*
X8805064Y-51557963D01*
X8694750Y-51498998D01*
X8681188Y-51494884D01*
X8690600Y-51447566D01*
X8690600Y-51252434D01*
X8652532Y-51061053D01*
X8577858Y-50880775D01*
X8469449Y-50718529D01*
X8331471Y-50580551D01*
X8169225Y-50472142D01*
X7988947Y-50397468D01*
X7797566Y-50359400D01*
X7602434Y-50359400D01*
X7411053Y-50397468D01*
X7230775Y-50472142D01*
X7068529Y-50580551D01*
X6930551Y-50718529D01*
X6822142Y-50880775D01*
X6747468Y-51061053D01*
X6709400Y-51252434D01*
X6709400Y-51447566D01*
X6718812Y-51494884D01*
X6705250Y-51498998D01*
X6594936Y-51557963D01*
X6498245Y-51637315D01*
X6418893Y-51734006D01*
X6359928Y-51844320D01*
X6323618Y-51964018D01*
X6311358Y-52088500D01*
X6311358Y-52277145D01*
X6292567Y-52182677D01*
X6244700Y-52067115D01*
X6175207Y-51963111D01*
X6086759Y-51874663D01*
X5982755Y-51805170D01*
X5867193Y-51757303D01*
X5744512Y-51732900D01*
X5217150Y-51732900D01*
X5058400Y-51891650D01*
X5058400Y-54222100D01*
X5078400Y-54222100D01*
X5078400Y-54476100D01*
X5058400Y-54476100D01*
X5058400Y-54496100D01*
X4804400Y-54496100D01*
X4804400Y-54476100D01*
X3704580Y-54476100D01*
X3545830Y-54634850D01*
X3545830Y-55810000D01*
X660000Y-55810000D01*
X660000Y-52305358D01*
X3545830Y-52305358D01*
X3545830Y-54063350D01*
X3704580Y-54222100D01*
X4804400Y-54222100D01*
X4804400Y-51891650D01*
X4645650Y-51732900D01*
X4118288Y-51732900D01*
X3995607Y-51757303D01*
X3880045Y-51805170D01*
X3776041Y-51874663D01*
X3687593Y-51963111D01*
X3618100Y-52067115D01*
X3570233Y-52182677D01*
X3545830Y-52305358D01*
X660000Y-52305358D01*
X660000Y-8252434D01*
X59419400Y-8252434D01*
X59419400Y-8447566D01*
X59457468Y-8638947D01*
X59532142Y-8819225D01*
X59640551Y-8981471D01*
X59778529Y-9119449D01*
X59940775Y-9227858D01*
X60121053Y-9302532D01*
X60312434Y-9340600D01*
X60507566Y-9340600D01*
X60698947Y-9302532D01*
X60879225Y-9227858D01*
X60935000Y-9190590D01*
X60990775Y-9227858D01*
X61171053Y-9302532D01*
X61362434Y-9340600D01*
X61557566Y-9340600D01*
X61748947Y-9302532D01*
X61929225Y-9227858D01*
X61935000Y-9223999D01*
X61940775Y-9227858D01*
X62121053Y-9302532D01*
X62312434Y-9340600D01*
X62507566Y-9340600D01*
X62698947Y-9302532D01*
X62879225Y-9227858D01*
X62885000Y-9223999D01*
X62890775Y-9227858D01*
X63071053Y-9302532D01*
X63262434Y-9340600D01*
X63457566Y-9340600D01*
X63648947Y-9302532D01*
X63829225Y-9227858D01*
X63835000Y-9223999D01*
X63840775Y-9227858D01*
X64021053Y-9302532D01*
X64212434Y-9340600D01*
X64407566Y-9340600D01*
X64598947Y-9302532D01*
X64779225Y-9227858D01*
X64810000Y-9207295D01*
X64840775Y-9227858D01*
X65021053Y-9302532D01*
X65212434Y-9340600D01*
X65407566Y-9340600D01*
X65598947Y-9302532D01*
X65779225Y-9227858D01*
X65785000Y-9223999D01*
X65790775Y-9227858D01*
X65971053Y-9302532D01*
X66162434Y-9340600D01*
X66357566Y-9340600D01*
X66548947Y-9302532D01*
X66729225Y-9227858D01*
X66735000Y-9223999D01*
X66740775Y-9227858D01*
X66921053Y-9302532D01*
X67112434Y-9340600D01*
X67307566Y-9340600D01*
X67498947Y-9302532D01*
X67679225Y-9227858D01*
X67685000Y-9223999D01*
X67690775Y-9227858D01*
X67871053Y-9302532D01*
X68062434Y-9340600D01*
X68257566Y-9340600D01*
X68448947Y-9302532D01*
X68629225Y-9227858D01*
X68685000Y-9190590D01*
X68740775Y-9227858D01*
X68921053Y-9302532D01*
X69112434Y-9340600D01*
X69307566Y-9340600D01*
X69498947Y-9302532D01*
X69679225Y-9227858D01*
X69841471Y-9119449D01*
X69979449Y-8981471D01*
X70087858Y-8819225D01*
X70162532Y-8638947D01*
X70200600Y-8447566D01*
X70200600Y-8252434D01*
X70162532Y-8061053D01*
X70087858Y-7880775D01*
X69979449Y-7718529D01*
X69841471Y-7580551D01*
X69679225Y-7472142D01*
X69498947Y-7397468D01*
X69307566Y-7359400D01*
X69112434Y-7359400D01*
X68921053Y-7397468D01*
X68740775Y-7472142D01*
X68685000Y-7509410D01*
X68629225Y-7472142D01*
X68448947Y-7397468D01*
X68257566Y-7359400D01*
X68062434Y-7359400D01*
X67871053Y-7397468D01*
X67690775Y-7472142D01*
X67685000Y-7476001D01*
X67679225Y-7472142D01*
X67498947Y-7397468D01*
X67307566Y-7359400D01*
X67112434Y-7359400D01*
X66921053Y-7397468D01*
X66740775Y-7472142D01*
X66735000Y-7476001D01*
X66729225Y-7472142D01*
X66548947Y-7397468D01*
X66357566Y-7359400D01*
X66162434Y-7359400D01*
X65971053Y-7397468D01*
X65790775Y-7472142D01*
X65785000Y-7476001D01*
X65779225Y-7472142D01*
X65598947Y-7397468D01*
X65407566Y-7359400D01*
X65212434Y-7359400D01*
X65021053Y-7397468D01*
X64840775Y-7472142D01*
X64810000Y-7492705D01*
X64779225Y-7472142D01*
X64598947Y-7397468D01*
X64407566Y-7359400D01*
X64212434Y-7359400D01*
X64021053Y-7397468D01*
X63840775Y-7472142D01*
X63835000Y-7476001D01*
X63829225Y-7472142D01*
X63648947Y-7397468D01*
X63457566Y-7359400D01*
X63262434Y-7359400D01*
X63071053Y-7397468D01*
X62890775Y-7472142D01*
X62885000Y-7476001D01*
X62879225Y-7472142D01*
X62698947Y-7397468D01*
X62507566Y-7359400D01*
X62312434Y-7359400D01*
X62121053Y-7397468D01*
X61940775Y-7472142D01*
X61935000Y-7476001D01*
X61929225Y-7472142D01*
X61748947Y-7397468D01*
X61557566Y-7359400D01*
X61362434Y-7359400D01*
X61171053Y-7397468D01*
X60990775Y-7472142D01*
X60935000Y-7509410D01*
X60879225Y-7472142D01*
X60698947Y-7397468D01*
X60507566Y-7359400D01*
X60312434Y-7359400D01*
X60121053Y-7397468D01*
X59940775Y-7472142D01*
X59778529Y-7580551D01*
X59640551Y-7718529D01*
X59532142Y-7880775D01*
X59457468Y-8061053D01*
X59419400Y-8252434D01*
X660000Y-8252434D01*
X660000Y-5388166D01*
X59316439Y-5388166D01*
X59351550Y-5601588D01*
X59555826Y-5692458D01*
X59773905Y-5741731D01*
X59997406Y-5747511D01*
X60217740Y-5709577D01*
X60426440Y-5629387D01*
X60478450Y-5601588D01*
X60513561Y-5388166D01*
X69186439Y-5388166D01*
X69221550Y-5601588D01*
X69425826Y-5692458D01*
X69643905Y-5741731D01*
X69867406Y-5747511D01*
X70087740Y-5709577D01*
X70296440Y-5629387D01*
X70348450Y-5601588D01*
X70383561Y-5388166D01*
X69785000Y-4789605D01*
X69186439Y-5388166D01*
X60513561Y-5388166D01*
X59915000Y-4789605D01*
X59316439Y-5388166D01*
X660000Y-5388166D01*
X660000Y-4692406D01*
X58777489Y-4692406D01*
X58815423Y-4912740D01*
X58895613Y-5121440D01*
X58923412Y-5173450D01*
X59136834Y-5208561D01*
X59735395Y-4610000D01*
X60094605Y-4610000D01*
X60693166Y-5208561D01*
X60906588Y-5173450D01*
X60997458Y-4969174D01*
X61046731Y-4751095D01*
X61048248Y-4692406D01*
X68647489Y-4692406D01*
X68685423Y-4912740D01*
X68765613Y-5121440D01*
X68793412Y-5173450D01*
X69006834Y-5208561D01*
X69605395Y-4610000D01*
X69964605Y-4610000D01*
X70563166Y-5208561D01*
X70776588Y-5173450D01*
X70867458Y-4969174D01*
X70916731Y-4751095D01*
X70922511Y-4527594D01*
X70884577Y-4307260D01*
X70804387Y-4098560D01*
X70776588Y-4046550D01*
X70563166Y-4011439D01*
X69964605Y-4610000D01*
X69605395Y-4610000D01*
X69006834Y-4011439D01*
X68793412Y-4046550D01*
X68702542Y-4250826D01*
X68653269Y-4468905D01*
X68647489Y-4692406D01*
X61048248Y-4692406D01*
X61052511Y-4527594D01*
X61014577Y-4307260D01*
X60934387Y-4098560D01*
X60906588Y-4046550D01*
X60693166Y-4011439D01*
X60094605Y-4610000D01*
X59735395Y-4610000D01*
X59136834Y-4011439D01*
X58923412Y-4046550D01*
X58832542Y-4250826D01*
X58783269Y-4468905D01*
X58777489Y-4692406D01*
X660000Y-4692406D01*
X660000Y-3831834D01*
X59316439Y-3831834D01*
X59915000Y-4430395D01*
X60513561Y-3831834D01*
X60478450Y-3618412D01*
X60322711Y-3549133D01*
X60630472Y-3549133D01*
X60692965Y-3785450D01*
X60935678Y-3898850D01*
X61195849Y-3962719D01*
X61463482Y-3974604D01*
X61728291Y-3934048D01*
X61980100Y-3842609D01*
X62087035Y-3785450D01*
X62149528Y-3549133D01*
X67550472Y-3549133D01*
X67612965Y-3785450D01*
X67855678Y-3898850D01*
X68115849Y-3962719D01*
X68383482Y-3974604D01*
X68648291Y-3934048D01*
X68900100Y-3842609D01*
X68920258Y-3831834D01*
X69186439Y-3831834D01*
X69785000Y-4430395D01*
X70383561Y-3831834D01*
X70348450Y-3618412D01*
X70144174Y-3527542D01*
X69926095Y-3478269D01*
X69702594Y-3472489D01*
X69482260Y-3510423D01*
X69273560Y-3590613D01*
X69221550Y-3618412D01*
X69186439Y-3831834D01*
X68920258Y-3831834D01*
X69007035Y-3785450D01*
X69069528Y-3549133D01*
X68310000Y-2789605D01*
X67550472Y-3549133D01*
X62149528Y-3549133D01*
X61390000Y-2789605D01*
X60630472Y-3549133D01*
X60322711Y-3549133D01*
X60274174Y-3527542D01*
X60056095Y-3478269D01*
X59832594Y-3472489D01*
X59612260Y-3510423D01*
X59403560Y-3590613D01*
X59351550Y-3618412D01*
X59316439Y-3831834D01*
X660000Y-3831834D01*
X660000Y-2683482D01*
X60025396Y-2683482D01*
X60065952Y-2948291D01*
X60157391Y-3200100D01*
X60214550Y-3307035D01*
X60450867Y-3369528D01*
X61210395Y-2610000D01*
X61569605Y-2610000D01*
X62329133Y-3369528D01*
X62565450Y-3307035D01*
X62678850Y-3064322D01*
X62742719Y-2804151D01*
X62748077Y-2683482D01*
X66945396Y-2683482D01*
X66985952Y-2948291D01*
X67077391Y-3200100D01*
X67134550Y-3307035D01*
X67370867Y-3369528D01*
X68130395Y-2610000D01*
X68489605Y-2610000D01*
X69249133Y-3369528D01*
X69485450Y-3307035D01*
X69598850Y-3064322D01*
X69662719Y-2804151D01*
X69674604Y-2536518D01*
X69634048Y-2271709D01*
X69542609Y-2019900D01*
X69485450Y-1912965D01*
X69249133Y-1850472D01*
X68489605Y-2610000D01*
X68130395Y-2610000D01*
X67370867Y-1850472D01*
X67134550Y-1912965D01*
X67021150Y-2155678D01*
X66957281Y-2415849D01*
X66945396Y-2683482D01*
X62748077Y-2683482D01*
X62754604Y-2536518D01*
X62714048Y-2271709D01*
X62622609Y-2019900D01*
X62565450Y-1912965D01*
X62329133Y-1850472D01*
X61569605Y-2610000D01*
X61210395Y-2610000D01*
X60450867Y-1850472D01*
X60214550Y-1912965D01*
X60101150Y-2155678D01*
X60037281Y-2415849D01*
X60025396Y-2683482D01*
X660000Y-2683482D01*
X660000Y-1670867D01*
X60630472Y-1670867D01*
X61390000Y-2430395D01*
X62149528Y-1670867D01*
X67550472Y-1670867D01*
X68310000Y-2430395D01*
X69069528Y-1670867D01*
X69007035Y-1434550D01*
X68764322Y-1321150D01*
X68504151Y-1257281D01*
X68236518Y-1245396D01*
X67971709Y-1285952D01*
X67719900Y-1377391D01*
X67612965Y-1434550D01*
X67550472Y-1670867D01*
X62149528Y-1670867D01*
X62087035Y-1434550D01*
X61844322Y-1321150D01*
X61584151Y-1257281D01*
X61316518Y-1245396D01*
X61051709Y-1285952D01*
X60799900Y-1377391D01*
X60692965Y-1434550D01*
X60630472Y-1670867D01*
X660000Y-1670867D01*
X660000Y-660000D01*
X129040001Y-660000D01*
X129040000Y-55810000D01*
X129040000Y-55810000D01*
G37*
X129040000Y-55810000D02*
X126154170Y-55810000D01*
X126154170Y-54634850D01*
X125995420Y-54476100D01*
X124895600Y-54476100D01*
X124895600Y-54496100D01*
X124641600Y-54496100D01*
X124641600Y-54476100D01*
X124621600Y-54476100D01*
X124621600Y-54222100D01*
X124641600Y-54222100D01*
X124641600Y-51891650D01*
X124895600Y-51891650D01*
X124895600Y-54222100D01*
X125995420Y-54222100D01*
X126154170Y-54063350D01*
X126154170Y-52305358D01*
X126129767Y-52182677D01*
X126081900Y-52067115D01*
X126012407Y-51963111D01*
X125923959Y-51874663D01*
X125819955Y-51805170D01*
X125704393Y-51757303D01*
X125581712Y-51732900D01*
X125054350Y-51732900D01*
X124895600Y-51891650D01*
X124641600Y-51891650D01*
X124482850Y-51732900D01*
X123955488Y-51732900D01*
X123832807Y-51757303D01*
X123717245Y-51805170D01*
X123613241Y-51874663D01*
X123524793Y-51963111D01*
X123455300Y-52067115D01*
X123407433Y-52182677D01*
X123388642Y-52277145D01*
X123388642Y-52088500D01*
X123376382Y-51964018D01*
X123340072Y-51844320D01*
X123281107Y-51734006D01*
X123201755Y-51637315D01*
X123105064Y-51557963D01*
X122994750Y-51498998D01*
X122981188Y-51494884D01*
X122990600Y-51447566D01*
X122990600Y-51252434D01*
X122952532Y-51061053D01*
X122877858Y-50880775D01*
X122769449Y-50718529D01*
X122631471Y-50580551D01*
X122469225Y-50472142D01*
X122288947Y-50397468D01*
X122097566Y-50359400D01*
X121902434Y-50359400D01*
X121711053Y-50397468D01*
X121530775Y-50472142D01*
X121368529Y-50580551D01*
X121230551Y-50718529D01*
X121122142Y-50880775D01*
X121047468Y-51061053D01*
X121009400Y-51252434D01*
X121009400Y-51447566D01*
X121018812Y-51494884D01*
X121005250Y-51498998D01*
X120894936Y-51557963D01*
X120798245Y-51637315D01*
X120718893Y-51734006D01*
X120659928Y-51844320D01*
X120623618Y-51964018D01*
X120611358Y-52088500D01*
X120611358Y-52277145D01*
X120592567Y-52182677D01*
X120544700Y-52067115D01*
X120475207Y-51963111D01*
X120386759Y-51874663D01*
X120282755Y-51805170D01*
X120167193Y-51757303D01*
X120044512Y-51732900D01*
X119517150Y-51732900D01*
X119358400Y-51891650D01*
X119358400Y-54222100D01*
X119378400Y-54222100D01*
X119378400Y-54476100D01*
X119358400Y-54476100D01*
X119358400Y-54496100D01*
X119104400Y-54496100D01*
X119104400Y-54476100D01*
X118004580Y-54476100D01*
X117845830Y-54634850D01*
X117845830Y-55810000D01*
X113454170Y-55810000D01*
X113454170Y-54634850D01*
X113295420Y-54476100D01*
X112195600Y-54476100D01*
X112195600Y-54496100D01*
X111941600Y-54496100D01*
X111941600Y-54476100D01*
X111921600Y-54476100D01*
X111921600Y-54222100D01*
X111941600Y-54222100D01*
X111941600Y-51891650D01*
X112195600Y-51891650D01*
X112195600Y-54222100D01*
X113295420Y-54222100D01*
X113454170Y-54063350D01*
X113454170Y-52305358D01*
X117845830Y-52305358D01*
X117845830Y-54063350D01*
X118004580Y-54222100D01*
X119104400Y-54222100D01*
X119104400Y-51891650D01*
X118945650Y-51732900D01*
X118418288Y-51732900D01*
X118295607Y-51757303D01*
X118180045Y-51805170D01*
X118076041Y-51874663D01*
X117987593Y-51963111D01*
X117918100Y-52067115D01*
X117870233Y-52182677D01*
X117845830Y-52305358D01*
X113454170Y-52305358D01*
X113429767Y-52182677D01*
X113381900Y-52067115D01*
X113312407Y-51963111D01*
X113223959Y-51874663D01*
X113119955Y-51805170D01*
X113004393Y-51757303D01*
X112881712Y-51732900D01*
X112354350Y-51732900D01*
X112195600Y-51891650D01*
X111941600Y-51891650D01*
X111782850Y-51732900D01*
X111255488Y-51732900D01*
X111132807Y-51757303D01*
X111017245Y-51805170D01*
X110913241Y-51874663D01*
X110824793Y-51963111D01*
X110755300Y-52067115D01*
X110707433Y-52182677D01*
X110688642Y-52277145D01*
X110688642Y-52088500D01*
X110676382Y-51964018D01*
X110640072Y-51844320D01*
X110581107Y-51734006D01*
X110501755Y-51637315D01*
X110405064Y-51557963D01*
X110294750Y-51498998D01*
X110281188Y-51494884D01*
X110290600Y-51447566D01*
X110290600Y-51252434D01*
X110252532Y-51061053D01*
X110177858Y-50880775D01*
X110069449Y-50718529D01*
X109931471Y-50580551D01*
X109769225Y-50472142D01*
X109588947Y-50397468D01*
X109397566Y-50359400D01*
X109202434Y-50359400D01*
X109011053Y-50397468D01*
X108830775Y-50472142D01*
X108668529Y-50580551D01*
X108530551Y-50718529D01*
X108422142Y-50880775D01*
X108347468Y-51061053D01*
X108309400Y-51252434D01*
X108309400Y-51447566D01*
X108318812Y-51494884D01*
X108305250Y-51498998D01*
X108194936Y-51557963D01*
X108098245Y-51637315D01*
X108018893Y-51734006D01*
X107959928Y-51844320D01*
X107923618Y-51964018D01*
X107911358Y-52088500D01*
X107911358Y-52277145D01*
X107892567Y-52182677D01*
X107844700Y-52067115D01*
X107775207Y-51963111D01*
X107686759Y-51874663D01*
X107582755Y-51805170D01*
X107467193Y-51757303D01*
X107344512Y-51732900D01*
X106817150Y-51732900D01*
X106658400Y-51891650D01*
X106658400Y-54222100D01*
X106678400Y-54222100D01*
X106678400Y-54476100D01*
X106658400Y-54476100D01*
X106658400Y-54496100D01*
X106404400Y-54496100D01*
X106404400Y-54476100D01*
X105304580Y-54476100D01*
X105145830Y-54634850D01*
X105145830Y-55810000D01*
X100754170Y-55810000D01*
X100754170Y-54634850D01*
X100595420Y-54476100D01*
X99495600Y-54476100D01*
X99495600Y-54496100D01*
X99241600Y-54496100D01*
X99241600Y-54476100D01*
X99221600Y-54476100D01*
X99221600Y-54222100D01*
X99241600Y-54222100D01*
X99241600Y-51891650D01*
X99495600Y-51891650D01*
X99495600Y-54222100D01*
X100595420Y-54222100D01*
X100754170Y-54063350D01*
X100754170Y-52305358D01*
X105145830Y-52305358D01*
X105145830Y-54063350D01*
X105304580Y-54222100D01*
X106404400Y-54222100D01*
X106404400Y-51891650D01*
X106245650Y-51732900D01*
X105718288Y-51732900D01*
X105595607Y-51757303D01*
X105480045Y-51805170D01*
X105376041Y-51874663D01*
X105287593Y-51963111D01*
X105218100Y-52067115D01*
X105170233Y-52182677D01*
X105145830Y-52305358D01*
X100754170Y-52305358D01*
X100729767Y-52182677D01*
X100681900Y-52067115D01*
X100612407Y-51963111D01*
X100523959Y-51874663D01*
X100419955Y-51805170D01*
X100304393Y-51757303D01*
X100181712Y-51732900D01*
X99654350Y-51732900D01*
X99495600Y-51891650D01*
X99241600Y-51891650D01*
X99082850Y-51732900D01*
X98555488Y-51732900D01*
X98432807Y-51757303D01*
X98317245Y-51805170D01*
X98213241Y-51874663D01*
X98124793Y-51963111D01*
X98055300Y-52067115D01*
X98007433Y-52182677D01*
X97988642Y-52277145D01*
X97988642Y-52088500D01*
X97976382Y-51964018D01*
X97940072Y-51844320D01*
X97881107Y-51734006D01*
X97801755Y-51637315D01*
X97705064Y-51557963D01*
X97594750Y-51498998D01*
X97581188Y-51494884D01*
X97590600Y-51447566D01*
X97590600Y-51252434D01*
X97552532Y-51061053D01*
X97477858Y-50880775D01*
X97369449Y-50718529D01*
X97231471Y-50580551D01*
X97069225Y-50472142D01*
X96888947Y-50397468D01*
X96697566Y-50359400D01*
X96502434Y-50359400D01*
X96311053Y-50397468D01*
X96130775Y-50472142D01*
X95968529Y-50580551D01*
X95830551Y-50718529D01*
X95722142Y-50880775D01*
X95647468Y-51061053D01*
X95609400Y-51252434D01*
X95609400Y-51447566D01*
X95618812Y-51494884D01*
X95605250Y-51498998D01*
X95494936Y-51557963D01*
X95398245Y-51637315D01*
X95318893Y-51734006D01*
X95259928Y-51844320D01*
X95223618Y-51964018D01*
X95211358Y-52088500D01*
X95211358Y-52277145D01*
X95192567Y-52182677D01*
X95144700Y-52067115D01*
X95075207Y-51963111D01*
X94986759Y-51874663D01*
X94882755Y-51805170D01*
X94767193Y-51757303D01*
X94644512Y-51732900D01*
X94117150Y-51732900D01*
X93958400Y-51891650D01*
X93958400Y-54222100D01*
X93978400Y-54222100D01*
X93978400Y-54476100D01*
X93958400Y-54476100D01*
X93958400Y-54496100D01*
X93704400Y-54496100D01*
X93704400Y-54476100D01*
X92604580Y-54476100D01*
X92445830Y-54634850D01*
X92445830Y-55810000D01*
X88054170Y-55810000D01*
X88054170Y-54634850D01*
X87895420Y-54476100D01*
X86795600Y-54476100D01*
X86795600Y-54496100D01*
X86541600Y-54496100D01*
X86541600Y-54476100D01*
X86521600Y-54476100D01*
X86521600Y-54222100D01*
X86541600Y-54222100D01*
X86541600Y-51891650D01*
X86795600Y-51891650D01*
X86795600Y-54222100D01*
X87895420Y-54222100D01*
X88054170Y-54063350D01*
X88054170Y-52305358D01*
X92445830Y-52305358D01*
X92445830Y-54063350D01*
X92604580Y-54222100D01*
X93704400Y-54222100D01*
X93704400Y-51891650D01*
X93545650Y-51732900D01*
X93018288Y-51732900D01*
X92895607Y-51757303D01*
X92780045Y-51805170D01*
X92676041Y-51874663D01*
X92587593Y-51963111D01*
X92518100Y-52067115D01*
X92470233Y-52182677D01*
X92445830Y-52305358D01*
X88054170Y-52305358D01*
X88029767Y-52182677D01*
X87981900Y-52067115D01*
X87912407Y-51963111D01*
X87823959Y-51874663D01*
X87719955Y-51805170D01*
X87604393Y-51757303D01*
X87481712Y-51732900D01*
X86954350Y-51732900D01*
X86795600Y-51891650D01*
X86541600Y-51891650D01*
X86382850Y-51732900D01*
X85855488Y-51732900D01*
X85732807Y-51757303D01*
X85617245Y-51805170D01*
X85513241Y-51874663D01*
X85424793Y-51963111D01*
X85355300Y-52067115D01*
X85307433Y-52182677D01*
X85288642Y-52277145D01*
X85288642Y-52088500D01*
X85276382Y-51964018D01*
X85240072Y-51844320D01*
X85181107Y-51734006D01*
X85101755Y-51637315D01*
X85005064Y-51557963D01*
X84894750Y-51498998D01*
X84881188Y-51494884D01*
X84890600Y-51447566D01*
X84890600Y-51252434D01*
X84852532Y-51061053D01*
X84777858Y-50880775D01*
X84669449Y-50718529D01*
X84531471Y-50580551D01*
X84369225Y-50472142D01*
X84188947Y-50397468D01*
X83997566Y-50359400D01*
X83802434Y-50359400D01*
X83611053Y-50397468D01*
X83430775Y-50472142D01*
X83268529Y-50580551D01*
X83130551Y-50718529D01*
X83022142Y-50880775D01*
X82947468Y-51061053D01*
X82909400Y-51252434D01*
X82909400Y-51447566D01*
X82918812Y-51494884D01*
X82905250Y-51498998D01*
X82794936Y-51557963D01*
X82698245Y-51637315D01*
X82618893Y-51734006D01*
X82559928Y-51844320D01*
X82523618Y-51964018D01*
X82511358Y-52088500D01*
X82511358Y-52277145D01*
X82492567Y-52182677D01*
X82444700Y-52067115D01*
X82375207Y-51963111D01*
X82286759Y-51874663D01*
X82182755Y-51805170D01*
X82067193Y-51757303D01*
X81944512Y-51732900D01*
X81417150Y-51732900D01*
X81258400Y-51891650D01*
X81258400Y-54222100D01*
X81278400Y-54222100D01*
X81278400Y-54476100D01*
X81258400Y-54476100D01*
X81258400Y-54496100D01*
X81004400Y-54496100D01*
X81004400Y-54476100D01*
X79904580Y-54476100D01*
X79745830Y-54634850D01*
X79745830Y-55810000D01*
X75354170Y-55810000D01*
X75354170Y-54634850D01*
X75195420Y-54476100D01*
X74095600Y-54476100D01*
X74095600Y-54496100D01*
X73841600Y-54496100D01*
X73841600Y-54476100D01*
X73821600Y-54476100D01*
X73821600Y-54222100D01*
X73841600Y-54222100D01*
X73841600Y-51891650D01*
X74095600Y-51891650D01*
X74095600Y-54222100D01*
X75195420Y-54222100D01*
X75354170Y-54063350D01*
X75354170Y-52305358D01*
X79745830Y-52305358D01*
X79745830Y-54063350D01*
X79904580Y-54222100D01*
X81004400Y-54222100D01*
X81004400Y-51891650D01*
X80845650Y-51732900D01*
X80318288Y-51732900D01*
X80195607Y-51757303D01*
X80080045Y-51805170D01*
X79976041Y-51874663D01*
X79887593Y-51963111D01*
X79818100Y-52067115D01*
X79770233Y-52182677D01*
X79745830Y-52305358D01*
X75354170Y-52305358D01*
X75329767Y-52182677D01*
X75281900Y-52067115D01*
X75212407Y-51963111D01*
X75123959Y-51874663D01*
X75019955Y-51805170D01*
X74904393Y-51757303D01*
X74781712Y-51732900D01*
X74254350Y-51732900D01*
X74095600Y-51891650D01*
X73841600Y-51891650D01*
X73682850Y-51732900D01*
X73155488Y-51732900D01*
X73032807Y-51757303D01*
X72917245Y-51805170D01*
X72813241Y-51874663D01*
X72724793Y-51963111D01*
X72655300Y-52067115D01*
X72607433Y-52182677D01*
X72588642Y-52277145D01*
X72588642Y-52088500D01*
X72576382Y-51964018D01*
X72540072Y-51844320D01*
X72481107Y-51734006D01*
X72401755Y-51637315D01*
X72305064Y-51557963D01*
X72194750Y-51498998D01*
X72181188Y-51494884D01*
X72190600Y-51447566D01*
X72190600Y-51252434D01*
X72152532Y-51061053D01*
X72077858Y-50880775D01*
X71969449Y-50718529D01*
X71831471Y-50580551D01*
X71669225Y-50472142D01*
X71488947Y-50397468D01*
X71297566Y-50359400D01*
X71102434Y-50359400D01*
X70911053Y-50397468D01*
X70730775Y-50472142D01*
X70568529Y-50580551D01*
X70430551Y-50718529D01*
X70322142Y-50880775D01*
X70247468Y-51061053D01*
X70209400Y-51252434D01*
X70209400Y-51447566D01*
X70218812Y-51494884D01*
X70205250Y-51498998D01*
X70094936Y-51557963D01*
X69998245Y-51637315D01*
X69918893Y-51734006D01*
X69859928Y-51844320D01*
X69823618Y-51964018D01*
X69811358Y-52088500D01*
X69811358Y-52277145D01*
X69792567Y-52182677D01*
X69744700Y-52067115D01*
X69675207Y-51963111D01*
X69586759Y-51874663D01*
X69482755Y-51805170D01*
X69367193Y-51757303D01*
X69244512Y-51732900D01*
X68717150Y-51732900D01*
X68558400Y-51891650D01*
X68558400Y-54222100D01*
X68578400Y-54222100D01*
X68578400Y-54476100D01*
X68558400Y-54476100D01*
X68558400Y-54496100D01*
X68304400Y-54496100D01*
X68304400Y-54476100D01*
X67204580Y-54476100D01*
X67045830Y-54634850D01*
X67045830Y-55810000D01*
X62654170Y-55810000D01*
X62654170Y-54634850D01*
X62495420Y-54476100D01*
X61395600Y-54476100D01*
X61395600Y-54496100D01*
X61141600Y-54496100D01*
X61141600Y-54476100D01*
X61121600Y-54476100D01*
X61121600Y-54222100D01*
X61141600Y-54222100D01*
X61141600Y-51891650D01*
X61395600Y-51891650D01*
X61395600Y-54222100D01*
X62495420Y-54222100D01*
X62654170Y-54063350D01*
X62654170Y-52305358D01*
X67045830Y-52305358D01*
X67045830Y-54063350D01*
X67204580Y-54222100D01*
X68304400Y-54222100D01*
X68304400Y-51891650D01*
X68145650Y-51732900D01*
X67618288Y-51732900D01*
X67495607Y-51757303D01*
X67380045Y-51805170D01*
X67276041Y-51874663D01*
X67187593Y-51963111D01*
X67118100Y-52067115D01*
X67070233Y-52182677D01*
X67045830Y-52305358D01*
X62654170Y-52305358D01*
X62629767Y-52182677D01*
X62581900Y-52067115D01*
X62512407Y-51963111D01*
X62423959Y-51874663D01*
X62319955Y-51805170D01*
X62204393Y-51757303D01*
X62081712Y-51732900D01*
X61554350Y-51732900D01*
X61395600Y-51891650D01*
X61141600Y-51891650D01*
X60982850Y-51732900D01*
X60455488Y-51732900D01*
X60332807Y-51757303D01*
X60217245Y-51805170D01*
X60113241Y-51874663D01*
X60024793Y-51963111D01*
X59955300Y-52067115D01*
X59907433Y-52182677D01*
X59888642Y-52277145D01*
X59888642Y-52088500D01*
X59876382Y-51964018D01*
X59840072Y-51844320D01*
X59781107Y-51734006D01*
X59701755Y-51637315D01*
X59605064Y-51557963D01*
X59494750Y-51498998D01*
X59481188Y-51494884D01*
X59490600Y-51447566D01*
X59490600Y-51252434D01*
X59452532Y-51061053D01*
X59377858Y-50880775D01*
X59269449Y-50718529D01*
X59131471Y-50580551D01*
X58969225Y-50472142D01*
X58788947Y-50397468D01*
X58597566Y-50359400D01*
X58402434Y-50359400D01*
X58211053Y-50397468D01*
X58030775Y-50472142D01*
X57868529Y-50580551D01*
X57730551Y-50718529D01*
X57622142Y-50880775D01*
X57547468Y-51061053D01*
X57509400Y-51252434D01*
X57509400Y-51447566D01*
X57518812Y-51494884D01*
X57505250Y-51498998D01*
X57394936Y-51557963D01*
X57298245Y-51637315D01*
X57218893Y-51734006D01*
X57159928Y-51844320D01*
X57123618Y-51964018D01*
X57111358Y-52088500D01*
X57111358Y-52277145D01*
X57092567Y-52182677D01*
X57044700Y-52067115D01*
X56975207Y-51963111D01*
X56886759Y-51874663D01*
X56782755Y-51805170D01*
X56667193Y-51757303D01*
X56544512Y-51732900D01*
X56017150Y-51732900D01*
X55858400Y-51891650D01*
X55858400Y-54222100D01*
X55878400Y-54222100D01*
X55878400Y-54476100D01*
X55858400Y-54476100D01*
X55858400Y-54496100D01*
X55604400Y-54496100D01*
X55604400Y-54476100D01*
X54504580Y-54476100D01*
X54345830Y-54634850D01*
X54345830Y-55810000D01*
X49954170Y-55810000D01*
X49954170Y-54634850D01*
X49795420Y-54476100D01*
X48695600Y-54476100D01*
X48695600Y-54496100D01*
X48441600Y-54496100D01*
X48441600Y-54476100D01*
X48421600Y-54476100D01*
X48421600Y-54222100D01*
X48441600Y-54222100D01*
X48441600Y-51891650D01*
X48695600Y-51891650D01*
X48695600Y-54222100D01*
X49795420Y-54222100D01*
X49954170Y-54063350D01*
X49954170Y-52305358D01*
X54345830Y-52305358D01*
X54345830Y-54063350D01*
X54504580Y-54222100D01*
X55604400Y-54222100D01*
X55604400Y-51891650D01*
X55445650Y-51732900D01*
X54918288Y-51732900D01*
X54795607Y-51757303D01*
X54680045Y-51805170D01*
X54576041Y-51874663D01*
X54487593Y-51963111D01*
X54418100Y-52067115D01*
X54370233Y-52182677D01*
X54345830Y-52305358D01*
X49954170Y-52305358D01*
X49929767Y-52182677D01*
X49881900Y-52067115D01*
X49812407Y-51963111D01*
X49723959Y-51874663D01*
X49619955Y-51805170D01*
X49504393Y-51757303D01*
X49381712Y-51732900D01*
X48854350Y-51732900D01*
X48695600Y-51891650D01*
X48441600Y-51891650D01*
X48282850Y-51732900D01*
X47755488Y-51732900D01*
X47632807Y-51757303D01*
X47517245Y-51805170D01*
X47413241Y-51874663D01*
X47324793Y-51963111D01*
X47255300Y-52067115D01*
X47207433Y-52182677D01*
X47188642Y-52277145D01*
X47188642Y-52088500D01*
X47176382Y-51964018D01*
X47140072Y-51844320D01*
X47081107Y-51734006D01*
X47001755Y-51637315D01*
X46905064Y-51557963D01*
X46794750Y-51498998D01*
X46781188Y-51494884D01*
X46790600Y-51447566D01*
X46790600Y-51252434D01*
X46752532Y-51061053D01*
X46677858Y-50880775D01*
X46569449Y-50718529D01*
X46431471Y-50580551D01*
X46269225Y-50472142D01*
X46088947Y-50397468D01*
X45897566Y-50359400D01*
X45702434Y-50359400D01*
X45511053Y-50397468D01*
X45330775Y-50472142D01*
X45168529Y-50580551D01*
X45030551Y-50718529D01*
X44922142Y-50880775D01*
X44847468Y-51061053D01*
X44809400Y-51252434D01*
X44809400Y-51447566D01*
X44818812Y-51494884D01*
X44805250Y-51498998D01*
X44694936Y-51557963D01*
X44598245Y-51637315D01*
X44518893Y-51734006D01*
X44459928Y-51844320D01*
X44423618Y-51964018D01*
X44411358Y-52088500D01*
X44411358Y-52277145D01*
X44392567Y-52182677D01*
X44344700Y-52067115D01*
X44275207Y-51963111D01*
X44186759Y-51874663D01*
X44082755Y-51805170D01*
X43967193Y-51757303D01*
X43844512Y-51732900D01*
X43317150Y-51732900D01*
X43158400Y-51891650D01*
X43158400Y-54222100D01*
X43178400Y-54222100D01*
X43178400Y-54476100D01*
X43158400Y-54476100D01*
X43158400Y-54496100D01*
X42904400Y-54496100D01*
X42904400Y-54476100D01*
X41804580Y-54476100D01*
X41645830Y-54634850D01*
X41645830Y-55810000D01*
X37254170Y-55810000D01*
X37254170Y-54634850D01*
X37095420Y-54476100D01*
X35995600Y-54476100D01*
X35995600Y-54496100D01*
X35741600Y-54496100D01*
X35741600Y-54476100D01*
X35721600Y-54476100D01*
X35721600Y-54222100D01*
X35741600Y-54222100D01*
X35741600Y-51891650D01*
X35995600Y-51891650D01*
X35995600Y-54222100D01*
X37095420Y-54222100D01*
X37254170Y-54063350D01*
X37254170Y-52305358D01*
X41645830Y-52305358D01*
X41645830Y-54063350D01*
X41804580Y-54222100D01*
X42904400Y-54222100D01*
X42904400Y-51891650D01*
X42745650Y-51732900D01*
X42218288Y-51732900D01*
X42095607Y-51757303D01*
X41980045Y-51805170D01*
X41876041Y-51874663D01*
X41787593Y-51963111D01*
X41718100Y-52067115D01*
X41670233Y-52182677D01*
X41645830Y-52305358D01*
X37254170Y-52305358D01*
X37229767Y-52182677D01*
X37181900Y-52067115D01*
X37112407Y-51963111D01*
X37023959Y-51874663D01*
X36919955Y-51805170D01*
X36804393Y-51757303D01*
X36681712Y-51732900D01*
X36154350Y-51732900D01*
X35995600Y-51891650D01*
X35741600Y-51891650D01*
X35582850Y-51732900D01*
X35055488Y-51732900D01*
X34932807Y-51757303D01*
X34817245Y-51805170D01*
X34713241Y-51874663D01*
X34624793Y-51963111D01*
X34555300Y-52067115D01*
X34507433Y-52182677D01*
X34488642Y-52277145D01*
X34488642Y-52088500D01*
X34476382Y-51964018D01*
X34440072Y-51844320D01*
X34381107Y-51734006D01*
X34301755Y-51637315D01*
X34205064Y-51557963D01*
X34094750Y-51498998D01*
X34081188Y-51494884D01*
X34090600Y-51447566D01*
X34090600Y-51252434D01*
X34052532Y-51061053D01*
X33977858Y-50880775D01*
X33869449Y-50718529D01*
X33731471Y-50580551D01*
X33569225Y-50472142D01*
X33388947Y-50397468D01*
X33197566Y-50359400D01*
X33002434Y-50359400D01*
X32811053Y-50397468D01*
X32630775Y-50472142D01*
X32468529Y-50580551D01*
X32330551Y-50718529D01*
X32222142Y-50880775D01*
X32147468Y-51061053D01*
X32109400Y-51252434D01*
X32109400Y-51447566D01*
X32118812Y-51494884D01*
X32105250Y-51498998D01*
X31994936Y-51557963D01*
X31898245Y-51637315D01*
X31818893Y-51734006D01*
X31759928Y-51844320D01*
X31723618Y-51964018D01*
X31711358Y-52088500D01*
X31711358Y-52277145D01*
X31692567Y-52182677D01*
X31644700Y-52067115D01*
X31575207Y-51963111D01*
X31486759Y-51874663D01*
X31382755Y-51805170D01*
X31267193Y-51757303D01*
X31144512Y-51732900D01*
X30617150Y-51732900D01*
X30458400Y-51891650D01*
X30458400Y-54222100D01*
X30478400Y-54222100D01*
X30478400Y-54476100D01*
X30458400Y-54476100D01*
X30458400Y-54496100D01*
X30204400Y-54496100D01*
X30204400Y-54476100D01*
X29104580Y-54476100D01*
X28945830Y-54634850D01*
X28945830Y-55810000D01*
X24554170Y-55810000D01*
X24554170Y-54634850D01*
X24395420Y-54476100D01*
X23295600Y-54476100D01*
X23295600Y-54496100D01*
X23041600Y-54496100D01*
X23041600Y-54476100D01*
X23021600Y-54476100D01*
X23021600Y-54222100D01*
X23041600Y-54222100D01*
X23041600Y-51891650D01*
X23295600Y-51891650D01*
X23295600Y-54222100D01*
X24395420Y-54222100D01*
X24554170Y-54063350D01*
X24554170Y-52305358D01*
X28945830Y-52305358D01*
X28945830Y-54063350D01*
X29104580Y-54222100D01*
X30204400Y-54222100D01*
X30204400Y-51891650D01*
X30045650Y-51732900D01*
X29518288Y-51732900D01*
X29395607Y-51757303D01*
X29280045Y-51805170D01*
X29176041Y-51874663D01*
X29087593Y-51963111D01*
X29018100Y-52067115D01*
X28970233Y-52182677D01*
X28945830Y-52305358D01*
X24554170Y-52305358D01*
X24529767Y-52182677D01*
X24481900Y-52067115D01*
X24412407Y-51963111D01*
X24323959Y-51874663D01*
X24219955Y-51805170D01*
X24104393Y-51757303D01*
X23981712Y-51732900D01*
X23454350Y-51732900D01*
X23295600Y-51891650D01*
X23041600Y-51891650D01*
X22882850Y-51732900D01*
X22355488Y-51732900D01*
X22232807Y-51757303D01*
X22117245Y-51805170D01*
X22013241Y-51874663D01*
X21924793Y-51963111D01*
X21855300Y-52067115D01*
X21807433Y-52182677D01*
X21788642Y-52277145D01*
X21788642Y-52088500D01*
X21776382Y-51964018D01*
X21740072Y-51844320D01*
X21681107Y-51734006D01*
X21601755Y-51637315D01*
X21505064Y-51557963D01*
X21394750Y-51498998D01*
X21381188Y-51494884D01*
X21390600Y-51447566D01*
X21390600Y-51252434D01*
X21352532Y-51061053D01*
X21277858Y-50880775D01*
X21169449Y-50718529D01*
X21031471Y-50580551D01*
X20869225Y-50472142D01*
X20688947Y-50397468D01*
X20497566Y-50359400D01*
X20302434Y-50359400D01*
X20111053Y-50397468D01*
X19930775Y-50472142D01*
X19768529Y-50580551D01*
X19630551Y-50718529D01*
X19522142Y-50880775D01*
X19447468Y-51061053D01*
X19409400Y-51252434D01*
X19409400Y-51447566D01*
X19418812Y-51494884D01*
X19405250Y-51498998D01*
X19294936Y-51557963D01*
X19198245Y-51637315D01*
X19118893Y-51734006D01*
X19059928Y-51844320D01*
X19023618Y-51964018D01*
X19011358Y-52088500D01*
X19011358Y-52277145D01*
X18992567Y-52182677D01*
X18944700Y-52067115D01*
X18875207Y-51963111D01*
X18786759Y-51874663D01*
X18682755Y-51805170D01*
X18567193Y-51757303D01*
X18444512Y-51732900D01*
X17917150Y-51732900D01*
X17758400Y-51891650D01*
X17758400Y-54222100D01*
X17778400Y-54222100D01*
X17778400Y-54476100D01*
X17758400Y-54476100D01*
X17758400Y-54496100D01*
X17504400Y-54496100D01*
X17504400Y-54476100D01*
X16404580Y-54476100D01*
X16245830Y-54634850D01*
X16245830Y-55810000D01*
X11854170Y-55810000D01*
X11854170Y-54634850D01*
X11695420Y-54476100D01*
X10595600Y-54476100D01*
X10595600Y-54496100D01*
X10341600Y-54496100D01*
X10341600Y-54476100D01*
X10321600Y-54476100D01*
X10321600Y-54222100D01*
X10341600Y-54222100D01*
X10341600Y-51891650D01*
X10595600Y-51891650D01*
X10595600Y-54222100D01*
X11695420Y-54222100D01*
X11854170Y-54063350D01*
X11854170Y-52305358D01*
X16245830Y-52305358D01*
X16245830Y-54063350D01*
X16404580Y-54222100D01*
X17504400Y-54222100D01*
X17504400Y-51891650D01*
X17345650Y-51732900D01*
X16818288Y-51732900D01*
X16695607Y-51757303D01*
X16580045Y-51805170D01*
X16476041Y-51874663D01*
X16387593Y-51963111D01*
X16318100Y-52067115D01*
X16270233Y-52182677D01*
X16245830Y-52305358D01*
X11854170Y-52305358D01*
X11829767Y-52182677D01*
X11781900Y-52067115D01*
X11712407Y-51963111D01*
X11623959Y-51874663D01*
X11519955Y-51805170D01*
X11404393Y-51757303D01*
X11281712Y-51732900D01*
X10754350Y-51732900D01*
X10595600Y-51891650D01*
X10341600Y-51891650D01*
X10182850Y-51732900D01*
X9655488Y-51732900D01*
X9532807Y-51757303D01*
X9417245Y-51805170D01*
X9313241Y-51874663D01*
X9224793Y-51963111D01*
X9155300Y-52067115D01*
X9107433Y-52182677D01*
X9088642Y-52277145D01*
X9088642Y-52088500D01*
X9076382Y-51964018D01*
X9040072Y-51844320D01*
X8981107Y-51734006D01*
X8901755Y-51637315D01*
X8805064Y-51557963D01*
X8694750Y-51498998D01*
X8681188Y-51494884D01*
X8690600Y-51447566D01*
X8690600Y-51252434D01*
X8652532Y-51061053D01*
X8577858Y-50880775D01*
X8469449Y-50718529D01*
X8331471Y-50580551D01*
X8169225Y-50472142D01*
X7988947Y-50397468D01*
X7797566Y-50359400D01*
X7602434Y-50359400D01*
X7411053Y-50397468D01*
X7230775Y-50472142D01*
X7068529Y-50580551D01*
X6930551Y-50718529D01*
X6822142Y-50880775D01*
X6747468Y-51061053D01*
X6709400Y-51252434D01*
X6709400Y-51447566D01*
X6718812Y-51494884D01*
X6705250Y-51498998D01*
X6594936Y-51557963D01*
X6498245Y-51637315D01*
X6418893Y-51734006D01*
X6359928Y-51844320D01*
X6323618Y-51964018D01*
X6311358Y-52088500D01*
X6311358Y-52277145D01*
X6292567Y-52182677D01*
X6244700Y-52067115D01*
X6175207Y-51963111D01*
X6086759Y-51874663D01*
X5982755Y-51805170D01*
X5867193Y-51757303D01*
X5744512Y-51732900D01*
X5217150Y-51732900D01*
X5058400Y-51891650D01*
X5058400Y-54222100D01*
X5078400Y-54222100D01*
X5078400Y-54476100D01*
X5058400Y-54476100D01*
X5058400Y-54496100D01*
X4804400Y-54496100D01*
X4804400Y-54476100D01*
X3704580Y-54476100D01*
X3545830Y-54634850D01*
X3545830Y-55810000D01*
X660000Y-55810000D01*
X660000Y-52305358D01*
X3545830Y-52305358D01*
X3545830Y-54063350D01*
X3704580Y-54222100D01*
X4804400Y-54222100D01*
X4804400Y-51891650D01*
X4645650Y-51732900D01*
X4118288Y-51732900D01*
X3995607Y-51757303D01*
X3880045Y-51805170D01*
X3776041Y-51874663D01*
X3687593Y-51963111D01*
X3618100Y-52067115D01*
X3570233Y-52182677D01*
X3545830Y-52305358D01*
X660000Y-52305358D01*
X660000Y-8252434D01*
X59419400Y-8252434D01*
X59419400Y-8447566D01*
X59457468Y-8638947D01*
X59532142Y-8819225D01*
X59640551Y-8981471D01*
X59778529Y-9119449D01*
X59940775Y-9227858D01*
X60121053Y-9302532D01*
X60312434Y-9340600D01*
X60507566Y-9340600D01*
X60698947Y-9302532D01*
X60879225Y-9227858D01*
X60935000Y-9190590D01*
X60990775Y-9227858D01*
X61171053Y-9302532D01*
X61362434Y-9340600D01*
X61557566Y-9340600D01*
X61748947Y-9302532D01*
X61929225Y-9227858D01*
X61935000Y-9223999D01*
X61940775Y-9227858D01*
X62121053Y-9302532D01*
X62312434Y-9340600D01*
X62507566Y-9340600D01*
X62698947Y-9302532D01*
X62879225Y-9227858D01*
X62885000Y-9223999D01*
X62890775Y-9227858D01*
X63071053Y-9302532D01*
X63262434Y-9340600D01*
X63457566Y-9340600D01*
X63648947Y-9302532D01*
X63829225Y-9227858D01*
X63835000Y-9223999D01*
X63840775Y-9227858D01*
X64021053Y-9302532D01*
X64212434Y-9340600D01*
X64407566Y-9340600D01*
X64598947Y-9302532D01*
X64779225Y-9227858D01*
X64810000Y-9207295D01*
X64840775Y-9227858D01*
X65021053Y-9302532D01*
X65212434Y-9340600D01*
X65407566Y-9340600D01*
X65598947Y-9302532D01*
X65779225Y-9227858D01*
X65785000Y-9223999D01*
X65790775Y-9227858D01*
X65971053Y-9302532D01*
X66162434Y-9340600D01*
X66357566Y-9340600D01*
X66548947Y-9302532D01*
X66729225Y-9227858D01*
X66735000Y-9223999D01*
X66740775Y-9227858D01*
X66921053Y-9302532D01*
X67112434Y-9340600D01*
X67307566Y-9340600D01*
X67498947Y-9302532D01*
X67679225Y-9227858D01*
X67685000Y-9223999D01*
X67690775Y-9227858D01*
X67871053Y-9302532D01*
X68062434Y-9340600D01*
X68257566Y-9340600D01*
X68448947Y-9302532D01*
X68629225Y-9227858D01*
X68685000Y-9190590D01*
X68740775Y-9227858D01*
X68921053Y-9302532D01*
X69112434Y-9340600D01*
X69307566Y-9340600D01*
X69498947Y-9302532D01*
X69679225Y-9227858D01*
X69841471Y-9119449D01*
X69979449Y-8981471D01*
X70087858Y-8819225D01*
X70162532Y-8638947D01*
X70200600Y-8447566D01*
X70200600Y-8252434D01*
X70162532Y-8061053D01*
X70087858Y-7880775D01*
X69979449Y-7718529D01*
X69841471Y-7580551D01*
X69679225Y-7472142D01*
X69498947Y-7397468D01*
X69307566Y-7359400D01*
X69112434Y-7359400D01*
X68921053Y-7397468D01*
X68740775Y-7472142D01*
X68685000Y-7509410D01*
X68629225Y-7472142D01*
X68448947Y-7397468D01*
X68257566Y-7359400D01*
X68062434Y-7359400D01*
X67871053Y-7397468D01*
X67690775Y-7472142D01*
X67685000Y-7476001D01*
X67679225Y-7472142D01*
X67498947Y-7397468D01*
X67307566Y-7359400D01*
X67112434Y-7359400D01*
X66921053Y-7397468D01*
X66740775Y-7472142D01*
X66735000Y-7476001D01*
X66729225Y-7472142D01*
X66548947Y-7397468D01*
X66357566Y-7359400D01*
X66162434Y-7359400D01*
X65971053Y-7397468D01*
X65790775Y-7472142D01*
X65785000Y-7476001D01*
X65779225Y-7472142D01*
X65598947Y-7397468D01*
X65407566Y-7359400D01*
X65212434Y-7359400D01*
X65021053Y-7397468D01*
X64840775Y-7472142D01*
X64810000Y-7492705D01*
X64779225Y-7472142D01*
X64598947Y-7397468D01*
X64407566Y-7359400D01*
X64212434Y-7359400D01*
X64021053Y-7397468D01*
X63840775Y-7472142D01*
X63835000Y-7476001D01*
X63829225Y-7472142D01*
X63648947Y-7397468D01*
X63457566Y-7359400D01*
X63262434Y-7359400D01*
X63071053Y-7397468D01*
X62890775Y-7472142D01*
X62885000Y-7476001D01*
X62879225Y-7472142D01*
X62698947Y-7397468D01*
X62507566Y-7359400D01*
X62312434Y-7359400D01*
X62121053Y-7397468D01*
X61940775Y-7472142D01*
X61935000Y-7476001D01*
X61929225Y-7472142D01*
X61748947Y-7397468D01*
X61557566Y-7359400D01*
X61362434Y-7359400D01*
X61171053Y-7397468D01*
X60990775Y-7472142D01*
X60935000Y-7509410D01*
X60879225Y-7472142D01*
X60698947Y-7397468D01*
X60507566Y-7359400D01*
X60312434Y-7359400D01*
X60121053Y-7397468D01*
X59940775Y-7472142D01*
X59778529Y-7580551D01*
X59640551Y-7718529D01*
X59532142Y-7880775D01*
X59457468Y-8061053D01*
X59419400Y-8252434D01*
X660000Y-8252434D01*
X660000Y-5388166D01*
X59316439Y-5388166D01*
X59351550Y-5601588D01*
X59555826Y-5692458D01*
X59773905Y-5741731D01*
X59997406Y-5747511D01*
X60217740Y-5709577D01*
X60426440Y-5629387D01*
X60478450Y-5601588D01*
X60513561Y-5388166D01*
X69186439Y-5388166D01*
X69221550Y-5601588D01*
X69425826Y-5692458D01*
X69643905Y-5741731D01*
X69867406Y-5747511D01*
X70087740Y-5709577D01*
X70296440Y-5629387D01*
X70348450Y-5601588D01*
X70383561Y-5388166D01*
X69785000Y-4789605D01*
X69186439Y-5388166D01*
X60513561Y-5388166D01*
X59915000Y-4789605D01*
X59316439Y-5388166D01*
X660000Y-5388166D01*
X660000Y-4692406D01*
X58777489Y-4692406D01*
X58815423Y-4912740D01*
X58895613Y-5121440D01*
X58923412Y-5173450D01*
X59136834Y-5208561D01*
X59735395Y-4610000D01*
X60094605Y-4610000D01*
X60693166Y-5208561D01*
X60906588Y-5173450D01*
X60997458Y-4969174D01*
X61046731Y-4751095D01*
X61048248Y-4692406D01*
X68647489Y-4692406D01*
X68685423Y-4912740D01*
X68765613Y-5121440D01*
X68793412Y-5173450D01*
X69006834Y-5208561D01*
X69605395Y-4610000D01*
X69964605Y-4610000D01*
X70563166Y-5208561D01*
X70776588Y-5173450D01*
X70867458Y-4969174D01*
X70916731Y-4751095D01*
X70922511Y-4527594D01*
X70884577Y-4307260D01*
X70804387Y-4098560D01*
X70776588Y-4046550D01*
X70563166Y-4011439D01*
X69964605Y-4610000D01*
X69605395Y-4610000D01*
X69006834Y-4011439D01*
X68793412Y-4046550D01*
X68702542Y-4250826D01*
X68653269Y-4468905D01*
X68647489Y-4692406D01*
X61048248Y-4692406D01*
X61052511Y-4527594D01*
X61014577Y-4307260D01*
X60934387Y-4098560D01*
X60906588Y-4046550D01*
X60693166Y-4011439D01*
X60094605Y-4610000D01*
X59735395Y-4610000D01*
X59136834Y-4011439D01*
X58923412Y-4046550D01*
X58832542Y-4250826D01*
X58783269Y-4468905D01*
X58777489Y-4692406D01*
X660000Y-4692406D01*
X660000Y-3831834D01*
X59316439Y-3831834D01*
X59915000Y-4430395D01*
X60513561Y-3831834D01*
X60478450Y-3618412D01*
X60322711Y-3549133D01*
X60630472Y-3549133D01*
X60692965Y-3785450D01*
X60935678Y-3898850D01*
X61195849Y-3962719D01*
X61463482Y-3974604D01*
X61728291Y-3934048D01*
X61980100Y-3842609D01*
X62087035Y-3785450D01*
X62149528Y-3549133D01*
X67550472Y-3549133D01*
X67612965Y-3785450D01*
X67855678Y-3898850D01*
X68115849Y-3962719D01*
X68383482Y-3974604D01*
X68648291Y-3934048D01*
X68900100Y-3842609D01*
X68920258Y-3831834D01*
X69186439Y-3831834D01*
X69785000Y-4430395D01*
X70383561Y-3831834D01*
X70348450Y-3618412D01*
X70144174Y-3527542D01*
X69926095Y-3478269D01*
X69702594Y-3472489D01*
X69482260Y-3510423D01*
X69273560Y-3590613D01*
X69221550Y-3618412D01*
X69186439Y-3831834D01*
X68920258Y-3831834D01*
X69007035Y-3785450D01*
X69069528Y-3549133D01*
X68310000Y-2789605D01*
X67550472Y-3549133D01*
X62149528Y-3549133D01*
X61390000Y-2789605D01*
X60630472Y-3549133D01*
X60322711Y-3549133D01*
X60274174Y-3527542D01*
X60056095Y-3478269D01*
X59832594Y-3472489D01*
X59612260Y-3510423D01*
X59403560Y-3590613D01*
X59351550Y-3618412D01*
X59316439Y-3831834D01*
X660000Y-3831834D01*
X660000Y-2683482D01*
X60025396Y-2683482D01*
X60065952Y-2948291D01*
X60157391Y-3200100D01*
X60214550Y-3307035D01*
X60450867Y-3369528D01*
X61210395Y-2610000D01*
X61569605Y-2610000D01*
X62329133Y-3369528D01*
X62565450Y-3307035D01*
X62678850Y-3064322D01*
X62742719Y-2804151D01*
X62748077Y-2683482D01*
X66945396Y-2683482D01*
X66985952Y-2948291D01*
X67077391Y-3200100D01*
X67134550Y-3307035D01*
X67370867Y-3369528D01*
X68130395Y-2610000D01*
X68489605Y-2610000D01*
X69249133Y-3369528D01*
X69485450Y-3307035D01*
X69598850Y-3064322D01*
X69662719Y-2804151D01*
X69674604Y-2536518D01*
X69634048Y-2271709D01*
X69542609Y-2019900D01*
X69485450Y-1912965D01*
X69249133Y-1850472D01*
X68489605Y-2610000D01*
X68130395Y-2610000D01*
X67370867Y-1850472D01*
X67134550Y-1912965D01*
X67021150Y-2155678D01*
X66957281Y-2415849D01*
X66945396Y-2683482D01*
X62748077Y-2683482D01*
X62754604Y-2536518D01*
X62714048Y-2271709D01*
X62622609Y-2019900D01*
X62565450Y-1912965D01*
X62329133Y-1850472D01*
X61569605Y-2610000D01*
X61210395Y-2610000D01*
X60450867Y-1850472D01*
X60214550Y-1912965D01*
X60101150Y-2155678D01*
X60037281Y-2415849D01*
X60025396Y-2683482D01*
X660000Y-2683482D01*
X660000Y-1670867D01*
X60630472Y-1670867D01*
X61390000Y-2430395D01*
X62149528Y-1670867D01*
X67550472Y-1670867D01*
X68310000Y-2430395D01*
X69069528Y-1670867D01*
X69007035Y-1434550D01*
X68764322Y-1321150D01*
X68504151Y-1257281D01*
X68236518Y-1245396D01*
X67971709Y-1285952D01*
X67719900Y-1377391D01*
X67612965Y-1434550D01*
X67550472Y-1670867D01*
X62149528Y-1670867D01*
X62087035Y-1434550D01*
X61844322Y-1321150D01*
X61584151Y-1257281D01*
X61316518Y-1245396D01*
X61051709Y-1285952D01*
X60799900Y-1377391D01*
X60692965Y-1434550D01*
X60630472Y-1670867D01*
X660000Y-1670867D01*
X660000Y-660000D01*
X129040001Y-660000D01*
X129040000Y-55810000D01*
G04 #@! TD*
M02*
