G04 #@! TF.GenerationSoftware,KiCad,Pcbnew,(5.1.5)-3*
G04 #@! TF.CreationDate,2020-02-28T17:34:21-07:00*
G04 #@! TF.ProjectId,Gateway04,47617465-7761-4793-9034-2e6b69636164,rev?*
G04 #@! TF.SameCoordinates,Original*
G04 #@! TF.FileFunction,Legend,Bot*
G04 #@! TF.FilePolarity,Positive*
%FSLAX46Y46*%
G04 Gerber Fmt 4.6, Leading zero omitted, Abs format (unit mm)*
G04 Created by KiCad (PCBNEW (5.1.5)-3) date 2020-02-28 17:34:21*
%MOMM*%
%LPD*%
G04 APERTURE LIST*
%ADD10C,0.120000*%
%ADD11C,0.225000*%
%ADD12C,0.150000*%
%ADD13C,0.300000*%
G04 APERTURE END LIST*
D10*
X96490800Y-106343000D02*
X96390800Y-107113000D01*
X96390800Y-107113000D02*
X96590800Y-107113000D01*
X96490800Y-106343000D02*
X96490800Y-107113000D01*
X96590800Y-107113000D02*
X96490800Y-106343000D01*
X79206800Y-106343000D02*
X79106800Y-107113000D01*
X79106800Y-107113000D02*
X79306800Y-107113000D01*
X79206800Y-106343000D02*
X79206800Y-107113000D01*
X79306800Y-107113000D02*
X79206800Y-106343000D01*
X79206800Y-89457000D02*
X79106800Y-90227000D01*
X79106800Y-90227000D02*
X79306800Y-90227000D01*
X79206800Y-89457000D02*
X79206800Y-90227000D01*
X79306800Y-90227000D02*
X79206800Y-89457000D01*
D11*
X102754736Y-111014428D02*
X102629736Y-110014428D01*
X102469022Y-111585857D02*
X101977950Y-110514428D01*
X102906522Y-110514428D01*
D10*
X96590800Y-90227000D02*
X96490800Y-89457000D01*
X96390800Y-90227000D02*
X96590800Y-90227000D01*
X96490800Y-89457000D02*
X96390800Y-90227000D01*
X96490800Y-89457000D02*
X96490800Y-90227000D01*
D12*
X114313571Y-94226190D02*
X114313571Y-93892857D01*
X114837380Y-93892857D02*
X113837380Y-93892857D01*
X113837380Y-94369047D01*
X114789761Y-95130952D02*
X114837380Y-95035714D01*
X114837380Y-94845238D01*
X114789761Y-94750000D01*
X114694523Y-94702380D01*
X114313571Y-94702380D01*
X114218333Y-94750000D01*
X114170714Y-94845238D01*
X114170714Y-95035714D01*
X114218333Y-95130952D01*
X114313571Y-95178571D01*
X114408809Y-95178571D01*
X114504047Y-94702380D01*
X114837380Y-95607142D02*
X113837380Y-95607142D01*
X114218333Y-95607142D02*
X114170714Y-95702380D01*
X114170714Y-95892857D01*
X114218333Y-95988095D01*
X114265952Y-96035714D01*
X114361190Y-96083333D01*
X114646904Y-96083333D01*
X114742142Y-96035714D01*
X114789761Y-95988095D01*
X114837380Y-95892857D01*
X114837380Y-95702380D01*
X114789761Y-95607142D01*
X113932619Y-97226190D02*
X113885000Y-97273809D01*
X113837380Y-97369047D01*
X113837380Y-97607142D01*
X113885000Y-97702380D01*
X113932619Y-97750000D01*
X114027857Y-97797619D01*
X114123095Y-97797619D01*
X114265952Y-97750000D01*
X114837380Y-97178571D01*
X114837380Y-97797619D01*
X113837380Y-98416666D02*
X113837380Y-98511904D01*
X113885000Y-98607142D01*
X113932619Y-98654761D01*
X114027857Y-98702380D01*
X114218333Y-98750000D01*
X114456428Y-98750000D01*
X114646904Y-98702380D01*
X114742142Y-98654761D01*
X114789761Y-98607142D01*
X114837380Y-98511904D01*
X114837380Y-98416666D01*
X114789761Y-98321428D01*
X114742142Y-98273809D01*
X114646904Y-98226190D01*
X114456428Y-98178571D01*
X114218333Y-98178571D01*
X114027857Y-98226190D01*
X113932619Y-98273809D01*
X113885000Y-98321428D01*
X113837380Y-98416666D01*
X113932619Y-99130952D02*
X113885000Y-99178571D01*
X113837380Y-99273809D01*
X113837380Y-99511904D01*
X113885000Y-99607142D01*
X113932619Y-99654761D01*
X114027857Y-99702380D01*
X114123095Y-99702380D01*
X114265952Y-99654761D01*
X114837380Y-99083333D01*
X114837380Y-99702380D01*
X113837380Y-100321428D02*
X113837380Y-100416666D01*
X113885000Y-100511904D01*
X113932619Y-100559523D01*
X114027857Y-100607142D01*
X114218333Y-100654761D01*
X114456428Y-100654761D01*
X114646904Y-100607142D01*
X114742142Y-100559523D01*
X114789761Y-100511904D01*
X114837380Y-100416666D01*
X114837380Y-100321428D01*
X114789761Y-100226190D01*
X114742142Y-100178571D01*
X114646904Y-100130952D01*
X114456428Y-100083333D01*
X114218333Y-100083333D01*
X114027857Y-100130952D01*
X113932619Y-100178571D01*
X113885000Y-100226190D01*
X113837380Y-100321428D01*
X72866619Y-100416666D02*
X73866619Y-100416666D01*
X73866619Y-100178571D01*
X73819000Y-100035714D01*
X73723761Y-99940476D01*
X73628523Y-99892857D01*
X73438047Y-99845238D01*
X73295190Y-99845238D01*
X73104714Y-99892857D01*
X73009476Y-99940476D01*
X72914238Y-100035714D01*
X72866619Y-100178571D01*
X72866619Y-100416666D01*
X73533285Y-99511904D02*
X72866619Y-99273809D01*
X73533285Y-99035714D02*
X72866619Y-99273809D01*
X72628523Y-99369047D01*
X72580904Y-99416666D01*
X72533285Y-99511904D01*
X72866619Y-98511904D02*
X72914238Y-98607142D01*
X73009476Y-98654761D01*
X73866619Y-98654761D01*
X72866619Y-97702380D02*
X73390428Y-97702380D01*
X73485666Y-97750000D01*
X73533285Y-97845238D01*
X73533285Y-98035714D01*
X73485666Y-98130952D01*
X72914238Y-97702380D02*
X72866619Y-97797619D01*
X72866619Y-98035714D01*
X72914238Y-98130952D01*
X73009476Y-98178571D01*
X73104714Y-98178571D01*
X73199952Y-98130952D01*
X73247571Y-98035714D01*
X73247571Y-97797619D01*
X73295190Y-97702380D01*
X73533285Y-97226190D02*
X72866619Y-97226190D01*
X73438047Y-97226190D02*
X73485666Y-97178571D01*
X73533285Y-97083333D01*
X73533285Y-96940476D01*
X73485666Y-96845238D01*
X73390428Y-96797619D01*
X72866619Y-96797619D01*
X73866619Y-95369047D02*
X73866619Y-95178571D01*
X73819000Y-95083333D01*
X73723761Y-94988095D01*
X73533285Y-94940476D01*
X73199952Y-94940476D01*
X73009476Y-94988095D01*
X72914238Y-95083333D01*
X72866619Y-95178571D01*
X72866619Y-95369047D01*
X72914238Y-95464285D01*
X73009476Y-95559523D01*
X73199952Y-95607142D01*
X73533285Y-95607142D01*
X73723761Y-95559523D01*
X73819000Y-95464285D01*
X73866619Y-95369047D01*
X72866619Y-94511904D02*
X73866619Y-94511904D01*
X72866619Y-94083333D02*
X73390428Y-94083333D01*
X73485666Y-94130952D01*
X73533285Y-94226190D01*
X73533285Y-94369047D01*
X73485666Y-94464285D01*
X73438047Y-94511904D01*
D10*
X76404000Y-113408000D02*
X76404000Y-81108000D01*
X111300000Y-113408000D02*
X76404000Y-113408000D01*
X77000000Y-80508000D02*
X110700000Y-80508000D01*
X111300000Y-96908000D02*
X76404000Y-96908000D01*
X111300000Y-81108000D02*
X111300000Y-113308000D01*
X93852000Y-113408000D02*
X93852000Y-80508000D01*
X101264000Y-103043000D02*
G75*
G03X101264000Y-103043000I-60000J0D01*
G01*
X103764000Y-103043000D02*
G75*
G03X103764000Y-103043000I-60000J0D01*
G01*
X103264000Y-103043000D02*
G75*
G03X103264000Y-103043000I-60000J0D01*
G01*
X101764000Y-103043000D02*
G75*
G03X101764000Y-103043000I-60000J0D01*
G01*
X100264000Y-103043000D02*
G75*
G03X100264000Y-103043000I-60000J0D01*
G01*
X102264000Y-103043000D02*
G75*
G03X102264000Y-103043000I-60000J0D01*
G01*
X104264000Y-103043000D02*
G75*
G03X104264000Y-103043000I-60000J0D01*
G01*
X102764000Y-103043000D02*
G75*
G03X102764000Y-103043000I-60000J0D01*
G01*
X104764000Y-103043000D02*
G75*
G03X104764000Y-103043000I-60000J0D01*
G01*
X100764000Y-103043000D02*
G75*
G03X100764000Y-103043000I-60000J0D01*
G01*
D11*
X84747522Y-111514428D02*
X85676093Y-111514428D01*
X85104665Y-110943000D01*
X85318950Y-110943000D01*
X85452879Y-110871571D01*
X85515379Y-110800142D01*
X85568950Y-110657285D01*
X85524308Y-110300142D01*
X85435022Y-110157285D01*
X85354665Y-110085857D01*
X85202879Y-110014428D01*
X84774308Y-110014428D01*
X84640379Y-110085857D01*
X84577879Y-110157285D01*
D10*
X83980000Y-103043000D02*
G75*
G03X83980000Y-103043000I-60000J0D01*
G01*
X86480000Y-103043000D02*
G75*
G03X86480000Y-103043000I-60000J0D01*
G01*
X85980000Y-103043000D02*
G75*
G03X85980000Y-103043000I-60000J0D01*
G01*
X84480000Y-103043000D02*
G75*
G03X84480000Y-103043000I-60000J0D01*
G01*
X82980000Y-103043000D02*
G75*
G03X82980000Y-103043000I-60000J0D01*
G01*
X84980000Y-103043000D02*
G75*
G03X84980000Y-103043000I-60000J0D01*
G01*
X86980000Y-103043000D02*
G75*
G03X86980000Y-103043000I-60000J0D01*
G01*
X85480000Y-103043000D02*
G75*
G03X85480000Y-103043000I-60000J0D01*
G01*
X87480000Y-103043000D02*
G75*
G03X87480000Y-103043000I-60000J0D01*
G01*
X83480000Y-103043000D02*
G75*
G03X83480000Y-103043000I-60000J0D01*
G01*
D11*
X102085093Y-94485571D02*
X102165450Y-94557000D01*
X102317236Y-94628428D01*
X102674379Y-94628428D01*
X102808308Y-94557000D01*
X102870808Y-94485571D01*
X102924379Y-94342714D01*
X102906522Y-94199857D01*
X102808308Y-93985571D01*
X101844022Y-93128428D01*
X102772593Y-93128428D01*
D10*
X101264000Y-86657000D02*
G75*
G03X101264000Y-86657000I-60000J0D01*
G01*
X103764000Y-86657000D02*
G75*
G03X103764000Y-86657000I-60000J0D01*
G01*
X103264000Y-86657000D02*
G75*
G03X103264000Y-86657000I-60000J0D01*
G01*
X101764000Y-86657000D02*
G75*
G03X101764000Y-86657000I-60000J0D01*
G01*
X100264000Y-86657000D02*
G75*
G03X100264000Y-86657000I-60000J0D01*
G01*
X102264000Y-86657000D02*
G75*
G03X102264000Y-86657000I-60000J0D01*
G01*
X104264000Y-86657000D02*
G75*
G03X104264000Y-86657000I-60000J0D01*
G01*
X102764000Y-86657000D02*
G75*
G03X102764000Y-86657000I-60000J0D01*
G01*
X104764000Y-86657000D02*
G75*
G03X104764000Y-86657000I-60000J0D01*
G01*
X100764000Y-86657000D02*
G75*
G03X100764000Y-86657000I-60000J0D01*
G01*
X83480000Y-86657000D02*
G75*
G03X83480000Y-86657000I-60000J0D01*
G01*
X87480000Y-86657000D02*
G75*
G03X87480000Y-86657000I-60000J0D01*
G01*
X85480000Y-86657000D02*
G75*
G03X85480000Y-86657000I-60000J0D01*
G01*
X86980000Y-86657000D02*
G75*
G03X86980000Y-86657000I-60000J0D01*
G01*
X84980000Y-86657000D02*
G75*
G03X84980000Y-86657000I-60000J0D01*
G01*
X82980000Y-86657000D02*
G75*
G03X82980000Y-86657000I-60000J0D01*
G01*
X84480000Y-86657000D02*
G75*
G03X84480000Y-86657000I-60000J0D01*
G01*
X85980000Y-86657000D02*
G75*
G03X85980000Y-86657000I-60000J0D01*
G01*
X86480000Y-86657000D02*
G75*
G03X86480000Y-86657000I-60000J0D01*
G01*
X83980000Y-86657000D02*
G75*
G03X83980000Y-86657000I-60000J0D01*
G01*
D11*
X85488593Y-93128428D02*
X84631450Y-93128428D01*
X85060022Y-93128428D02*
X85247522Y-94628428D01*
X85077879Y-94414142D01*
X84917165Y-94271285D01*
X84765379Y-94199857D01*
D13*
X87461553Y-117937000D02*
X87282982Y-118032238D01*
X86997267Y-118032238D01*
X86699648Y-117937000D01*
X86485363Y-117746523D01*
X86366315Y-117556047D01*
X86223458Y-117175095D01*
X86187744Y-116889380D01*
X86235363Y-116508428D01*
X86306791Y-116317952D01*
X86473458Y-116127476D01*
X86747267Y-116032238D01*
X86937744Y-116032238D01*
X87235363Y-116127476D01*
X87342505Y-116222714D01*
X87425839Y-116889380D01*
X87044886Y-116889380D01*
X89032982Y-116032238D02*
X89163934Y-117079857D01*
X89092505Y-117270333D01*
X88913934Y-117365571D01*
X88532982Y-117365571D01*
X88330601Y-117270333D01*
X89044886Y-116127476D02*
X88842505Y-116032238D01*
X88366315Y-116032238D01*
X88187744Y-116127476D01*
X88116315Y-116317952D01*
X88140125Y-116508428D01*
X88259172Y-116698904D01*
X88461553Y-116794142D01*
X88937744Y-116794142D01*
X89140125Y-116889380D01*
X89866315Y-117365571D02*
X90628220Y-117365571D01*
X90235363Y-118032238D02*
X90021077Y-116317952D01*
X90092505Y-116127476D01*
X90271077Y-116032238D01*
X90461553Y-116032238D01*
X91902029Y-116127476D02*
X91699648Y-116032238D01*
X91318696Y-116032238D01*
X91140125Y-116127476D01*
X91068696Y-116317952D01*
X91163934Y-117079857D01*
X91282982Y-117270333D01*
X91485363Y-117365571D01*
X91866315Y-117365571D01*
X92044886Y-117270333D01*
X92116315Y-117079857D01*
X92092505Y-116889380D01*
X91116315Y-116698904D01*
X92818696Y-117365571D02*
X93032982Y-116032238D01*
X93532982Y-116984619D01*
X93794886Y-116032238D01*
X94342505Y-117365571D01*
X95794886Y-116032238D02*
X95925839Y-117079857D01*
X95854410Y-117270333D01*
X95675839Y-117365571D01*
X95294886Y-117365571D01*
X95092505Y-117270333D01*
X95806791Y-116127476D02*
X95604410Y-116032238D01*
X95128220Y-116032238D01*
X94949648Y-116127476D01*
X94878220Y-116317952D01*
X94902029Y-116508428D01*
X95021077Y-116698904D01*
X95223458Y-116794142D01*
X95699648Y-116794142D01*
X95902029Y-116889380D01*
X96723458Y-117365571D02*
X97032982Y-116032238D01*
X97675839Y-117365571D02*
X97032982Y-116032238D01*
X96782982Y-115556047D01*
X96675839Y-115460809D01*
X96473458Y-115365571D01*
X98902029Y-118032238D02*
X99092505Y-118032238D01*
X99271077Y-117937000D01*
X99354410Y-117841761D01*
X99425839Y-117651285D01*
X99473458Y-117270333D01*
X99413934Y-116794142D01*
X99271077Y-116413190D01*
X99152029Y-116222714D01*
X99044886Y-116127476D01*
X98842505Y-116032238D01*
X98652029Y-116032238D01*
X98473458Y-116127476D01*
X98390125Y-116222714D01*
X98318696Y-116413190D01*
X98271077Y-116794142D01*
X98330601Y-117270333D01*
X98473458Y-117651285D01*
X98592505Y-117841761D01*
X98699648Y-117937000D01*
X98902029Y-118032238D01*
X101199648Y-117365571D02*
X101032982Y-116032238D01*
X100818696Y-118127476D02*
X100163934Y-116698904D01*
X101402029Y-116698904D01*
D11*
X92137714Y-77670142D02*
X92637714Y-77670142D01*
X92852000Y-76884428D02*
X92137714Y-76884428D01*
X92137714Y-78384428D01*
X92852000Y-78384428D01*
X93352000Y-76884428D02*
X94137714Y-77884428D01*
X93352000Y-77884428D02*
X94137714Y-76884428D01*
X94709142Y-76884428D02*
X94709142Y-77884428D01*
X94709142Y-78384428D02*
X94637714Y-78313000D01*
X94709142Y-78241571D01*
X94780571Y-78313000D01*
X94709142Y-78384428D01*
X94709142Y-78241571D01*
X95209142Y-77884428D02*
X95780571Y-77884428D01*
X95423428Y-78384428D02*
X95423428Y-77098714D01*
X95494857Y-76955857D01*
X95637714Y-76884428D01*
X95780571Y-76884428D01*
D10*
X76750000Y-83437000D02*
X77070000Y-83637000D01*
X93670000Y-83437000D02*
X93350000Y-83637000D01*
X93670000Y-83437000D02*
X93670000Y-82637000D01*
X93670000Y-82637000D02*
X93350000Y-82437000D01*
X76750000Y-82637000D02*
X77070000Y-82437000D01*
X76750000Y-83437000D02*
X76750000Y-82637000D01*
X77070000Y-85917000D02*
X77070000Y-81697000D01*
X93350000Y-81697000D02*
X93350000Y-85917000D01*
X77520000Y-86367000D02*
X92900000Y-86367000D01*
X77520000Y-81247000D02*
X92900000Y-81247000D01*
X77070000Y-81697000D02*
G75*
G02X77520000Y-81247000I450000J0D01*
G01*
X92900000Y-81247000D02*
G75*
G02X93350000Y-81697000I0J-450000D01*
G01*
X77520000Y-86367000D02*
G75*
G02X77070000Y-85917000I0J450000D01*
G01*
X93350000Y-85917000D02*
G75*
G02X92900000Y-86367000I-450000J0D01*
G01*
X76750000Y-100323000D02*
X77070000Y-100523000D01*
X93670000Y-100323000D02*
X93350000Y-100523000D01*
X93670000Y-100323000D02*
X93670000Y-99523000D01*
X93670000Y-99523000D02*
X93350000Y-99323000D01*
X76750000Y-99523000D02*
X77070000Y-99323000D01*
X76750000Y-100323000D02*
X76750000Y-99523000D01*
X77070000Y-102803000D02*
X77070000Y-98583000D01*
X93350000Y-98583000D02*
X93350000Y-102803000D01*
X77520000Y-103253000D02*
X92900000Y-103253000D01*
X77520000Y-98133000D02*
X92900000Y-98133000D01*
X77070000Y-98583000D02*
G75*
G02X77520000Y-98133000I450000J0D01*
G01*
X92900000Y-98133000D02*
G75*
G02X93350000Y-98583000I0J-450000D01*
G01*
X77520000Y-103253000D02*
G75*
G02X77070000Y-102803000I0J450000D01*
G01*
X93350000Y-102803000D02*
G75*
G02X92900000Y-103253000I-450000J0D01*
G01*
X94034000Y-100323000D02*
X94354000Y-100523000D01*
X110954000Y-100323000D02*
X110634000Y-100523000D01*
X110954000Y-100323000D02*
X110954000Y-99523000D01*
X110954000Y-99523000D02*
X110634000Y-99323000D01*
X94034000Y-99523000D02*
X94354000Y-99323000D01*
X94034000Y-100323000D02*
X94034000Y-99523000D01*
X94354000Y-102803000D02*
X94354000Y-98583000D01*
X110634000Y-98583000D02*
X110634000Y-102803000D01*
X94804000Y-103253000D02*
X110184000Y-103253000D01*
X94804000Y-98133000D02*
X110184000Y-98133000D01*
X94354000Y-98583000D02*
G75*
G02X94804000Y-98133000I450000J0D01*
G01*
X110184000Y-98133000D02*
G75*
G02X110634000Y-98583000I0J-450000D01*
G01*
X94804000Y-103253000D02*
G75*
G02X94354000Y-102803000I0J450000D01*
G01*
X110634000Y-102803000D02*
G75*
G02X110184000Y-103253000I-450000J0D01*
G01*
X94034000Y-83437000D02*
X94354000Y-83637000D01*
X110954000Y-83437000D02*
X110634000Y-83637000D01*
X110954000Y-83437000D02*
X110954000Y-82637000D01*
X110954000Y-82637000D02*
X110634000Y-82437000D01*
X94034000Y-82637000D02*
X94354000Y-82437000D01*
X94034000Y-83437000D02*
X94034000Y-82637000D01*
X94354000Y-85917000D02*
X94354000Y-81697000D01*
X110634000Y-81697000D02*
X110634000Y-85917000D01*
X94804000Y-86367000D02*
X110184000Y-86367000D01*
X94804000Y-81247000D02*
X110184000Y-81247000D01*
X94354000Y-81697000D02*
G75*
G02X94804000Y-81247000I450000J0D01*
G01*
X110184000Y-81247000D02*
G75*
G02X110634000Y-81697000I0J-450000D01*
G01*
X94804000Y-86367000D02*
G75*
G02X94354000Y-85917000I0J450000D01*
G01*
X110634000Y-85917000D02*
G75*
G02X110184000Y-86367000I-450000J0D01*
G01*
M02*
