G04 #@! TF.GenerationSoftware,KiCad,Pcbnew,(5.1.5)-3*
G04 #@! TF.CreationDate,2020-02-28T17:34:21-07:00*
G04 #@! TF.ProjectId,Gateway04,47617465-7761-4793-9034-2e6b69636164,rev?*
G04 #@! TF.SameCoordinates,Original*
G04 #@! TF.FileFunction,Paste,Top*
G04 #@! TF.FilePolarity,Positive*
%FSLAX46Y46*%
G04 Gerber Fmt 4.6, Leading zero omitted, Abs format (unit mm)*
G04 Created by KiCad (PCBNEW (5.1.5)-3) date 2020-02-28 17:34:21*
%MOMM*%
%LPD*%
G04 APERTURE LIST*
%ADD10R,0.300000X2.200000*%
G04 APERTURE END LIST*
D10*
X84960000Y-95907000D03*
X84960000Y-91707000D03*
X84460000Y-95907000D03*
X84460000Y-91707000D03*
X83960000Y-95907000D03*
X83960000Y-91707000D03*
X83460000Y-95907000D03*
X83460000Y-91707000D03*
X82960000Y-95907000D03*
X82960000Y-91707000D03*
X82460000Y-95907000D03*
X82460000Y-91707000D03*
X81960000Y-95907000D03*
X81960000Y-91707000D03*
X81460000Y-95907000D03*
X81460000Y-91707000D03*
X80960000Y-95907000D03*
X80960000Y-91707000D03*
X80460000Y-95907000D03*
X80460000Y-91707000D03*
X89460000Y-91707000D03*
X87960000Y-91707000D03*
X85960000Y-91707000D03*
X89960000Y-91707000D03*
X86960000Y-91707000D03*
X87460000Y-91707000D03*
X85460000Y-91707000D03*
X88960000Y-91707000D03*
X86460000Y-91707000D03*
X88460000Y-91707000D03*
X89460000Y-95907000D03*
X87960000Y-95907000D03*
X85960000Y-95907000D03*
X89960000Y-95907000D03*
X86960000Y-95907000D03*
X87460000Y-95907000D03*
X85460000Y-95907000D03*
X88960000Y-95907000D03*
X86460000Y-95907000D03*
X88460000Y-95907000D03*
X102244000Y-95907000D03*
X102244000Y-91707000D03*
X101744000Y-95907000D03*
X101744000Y-91707000D03*
X101244000Y-95907000D03*
X101244000Y-91707000D03*
X100744000Y-95907000D03*
X100744000Y-91707000D03*
X100244000Y-95907000D03*
X100244000Y-91707000D03*
X99744000Y-95907000D03*
X99744000Y-91707000D03*
X99244000Y-95907000D03*
X99244000Y-91707000D03*
X98744000Y-95907000D03*
X98744000Y-91707000D03*
X98244000Y-95907000D03*
X98244000Y-91707000D03*
X97744000Y-95907000D03*
X97744000Y-91707000D03*
X106744000Y-91707000D03*
X105244000Y-91707000D03*
X103244000Y-91707000D03*
X107244000Y-91707000D03*
X104244000Y-91707000D03*
X104744000Y-91707000D03*
X102744000Y-91707000D03*
X106244000Y-91707000D03*
X103744000Y-91707000D03*
X105744000Y-91707000D03*
X106744000Y-95907000D03*
X105244000Y-95907000D03*
X103244000Y-95907000D03*
X107244000Y-95907000D03*
X104244000Y-95907000D03*
X104744000Y-95907000D03*
X102744000Y-95907000D03*
X106244000Y-95907000D03*
X103744000Y-95907000D03*
X105744000Y-95907000D03*
X84960000Y-112793000D03*
X84960000Y-108593000D03*
X84460000Y-112793000D03*
X84460000Y-108593000D03*
X83960000Y-112793000D03*
X83960000Y-108593000D03*
X83460000Y-112793000D03*
X83460000Y-108593000D03*
X82960000Y-112793000D03*
X82960000Y-108593000D03*
X82460000Y-112793000D03*
X82460000Y-108593000D03*
X81960000Y-112793000D03*
X81960000Y-108593000D03*
X81460000Y-112793000D03*
X81460000Y-108593000D03*
X80960000Y-112793000D03*
X80960000Y-108593000D03*
X80460000Y-112793000D03*
X80460000Y-108593000D03*
X89460000Y-108593000D03*
X87960000Y-108593000D03*
X85960000Y-108593000D03*
X89960000Y-108593000D03*
X86960000Y-108593000D03*
X87460000Y-108593000D03*
X85460000Y-108593000D03*
X88960000Y-108593000D03*
X86460000Y-108593000D03*
X88460000Y-108593000D03*
X89460000Y-112793000D03*
X87960000Y-112793000D03*
X85960000Y-112793000D03*
X89960000Y-112793000D03*
X86960000Y-112793000D03*
X87460000Y-112793000D03*
X85460000Y-112793000D03*
X88960000Y-112793000D03*
X86460000Y-112793000D03*
X88460000Y-112793000D03*
X102244000Y-112793000D03*
X102244000Y-108593000D03*
X101744000Y-112793000D03*
X101744000Y-108593000D03*
X101244000Y-112793000D03*
X101244000Y-108593000D03*
X100744000Y-112793000D03*
X100744000Y-108593000D03*
X100244000Y-112793000D03*
X100244000Y-108593000D03*
X99744000Y-112793000D03*
X99744000Y-108593000D03*
X99244000Y-112793000D03*
X99244000Y-108593000D03*
X98744000Y-112793000D03*
X98744000Y-108593000D03*
X98244000Y-112793000D03*
X98244000Y-108593000D03*
X97744000Y-112793000D03*
X97744000Y-108593000D03*
X106744000Y-108593000D03*
X105244000Y-108593000D03*
X103244000Y-108593000D03*
X107244000Y-108593000D03*
X104244000Y-108593000D03*
X104744000Y-108593000D03*
X102744000Y-108593000D03*
X106244000Y-108593000D03*
X103744000Y-108593000D03*
X105744000Y-108593000D03*
X106744000Y-112793000D03*
X105244000Y-112793000D03*
X103244000Y-112793000D03*
X107244000Y-112793000D03*
X104244000Y-112793000D03*
X104744000Y-112793000D03*
X102744000Y-112793000D03*
X106244000Y-112793000D03*
X103744000Y-112793000D03*
X105744000Y-112793000D03*
M02*
