G04 #@! TF.GenerationSoftware,KiCad,Pcbnew,(5.1.6)-1*
G04 #@! TF.CreationDate,2020-07-21T18:45:32-06:00*
G04 #@! TF.ProjectId,Gateway04,47617465-7761-4793-9034-2e6b69636164,rev?*
G04 #@! TF.SameCoordinates,Original*
G04 #@! TF.FileFunction,Paste,Top*
G04 #@! TF.FilePolarity,Positive*
%FSLAX46Y46*%
G04 Gerber Fmt 4.6, Leading zero omitted, Abs format (unit mm)*
G04 Created by KiCad (PCBNEW (5.1.6)-1) date 2020-07-21 18:45:32*
%MOMM*%
%LPD*%
G01*
G04 APERTURE LIST*
%ADD10R,0.300000X2.200000*%
G04 APERTURE END LIST*
D10*
X86960000Y-96907000D03*
X84960000Y-96907000D03*
X87460000Y-96907000D03*
X83960000Y-96907000D03*
X85960000Y-96907000D03*
X85460000Y-96907000D03*
X88460000Y-96907000D03*
X84460000Y-96907000D03*
X86460000Y-96907000D03*
X87960000Y-96907000D03*
X86960000Y-92707000D03*
X84960000Y-92707000D03*
X87460000Y-92707000D03*
X83960000Y-92707000D03*
X85960000Y-92707000D03*
X85460000Y-92707000D03*
X88460000Y-92707000D03*
X84460000Y-92707000D03*
X86460000Y-92707000D03*
X87960000Y-92707000D03*
X78960000Y-92707000D03*
X78960000Y-96907000D03*
X79460000Y-92707000D03*
X79460000Y-96907000D03*
X79960000Y-92707000D03*
X79960000Y-96907000D03*
X80460000Y-92707000D03*
X80460000Y-96907000D03*
X80960000Y-92707000D03*
X80960000Y-96907000D03*
X81460000Y-92707000D03*
X81460000Y-96907000D03*
X81960000Y-92707000D03*
X81960000Y-96907000D03*
X82460000Y-92707000D03*
X82460000Y-96907000D03*
X82960000Y-92707000D03*
X82960000Y-96907000D03*
X83460000Y-92707000D03*
X83460000Y-96907000D03*
X107244000Y-96907000D03*
X105244000Y-96907000D03*
X107744000Y-96907000D03*
X104244000Y-96907000D03*
X106244000Y-96907000D03*
X105744000Y-96907000D03*
X108744000Y-96907000D03*
X104744000Y-96907000D03*
X106744000Y-96907000D03*
X108244000Y-96907000D03*
X107244000Y-92707000D03*
X105244000Y-92707000D03*
X107744000Y-92707000D03*
X104244000Y-92707000D03*
X106244000Y-92707000D03*
X105744000Y-92707000D03*
X108744000Y-92707000D03*
X104744000Y-92707000D03*
X106744000Y-92707000D03*
X108244000Y-92707000D03*
X99244000Y-92707000D03*
X99244000Y-96907000D03*
X99744000Y-92707000D03*
X99744000Y-96907000D03*
X100244000Y-92707000D03*
X100244000Y-96907000D03*
X100744000Y-92707000D03*
X100744000Y-96907000D03*
X101244000Y-92707000D03*
X101244000Y-96907000D03*
X101744000Y-92707000D03*
X101744000Y-96907000D03*
X102244000Y-92707000D03*
X102244000Y-96907000D03*
X102744000Y-92707000D03*
X102744000Y-96907000D03*
X103244000Y-92707000D03*
X103244000Y-96907000D03*
X103744000Y-92707000D03*
X103744000Y-96907000D03*
X86960000Y-111293000D03*
X84960000Y-111293000D03*
X87460000Y-111293000D03*
X83960000Y-111293000D03*
X85960000Y-111293000D03*
X85460000Y-111293000D03*
X88460000Y-111293000D03*
X84460000Y-111293000D03*
X86460000Y-111293000D03*
X87960000Y-111293000D03*
X86960000Y-107093000D03*
X84960000Y-107093000D03*
X87460000Y-107093000D03*
X83960000Y-107093000D03*
X85960000Y-107093000D03*
X85460000Y-107093000D03*
X88460000Y-107093000D03*
X84460000Y-107093000D03*
X86460000Y-107093000D03*
X87960000Y-107093000D03*
X78960000Y-107093000D03*
X78960000Y-111293000D03*
X79460000Y-107093000D03*
X79460000Y-111293000D03*
X79960000Y-107093000D03*
X79960000Y-111293000D03*
X80460000Y-107093000D03*
X80460000Y-111293000D03*
X80960000Y-107093000D03*
X80960000Y-111293000D03*
X81460000Y-107093000D03*
X81460000Y-111293000D03*
X81960000Y-107093000D03*
X81960000Y-111293000D03*
X82460000Y-107093000D03*
X82460000Y-111293000D03*
X82960000Y-107093000D03*
X82960000Y-111293000D03*
X83460000Y-107093000D03*
X83460000Y-111293000D03*
X107244000Y-111293000D03*
X105244000Y-111293000D03*
X107744000Y-111293000D03*
X104244000Y-111293000D03*
X106244000Y-111293000D03*
X105744000Y-111293000D03*
X108744000Y-111293000D03*
X104744000Y-111293000D03*
X106744000Y-111293000D03*
X108244000Y-111293000D03*
X107244000Y-107093000D03*
X105244000Y-107093000D03*
X107744000Y-107093000D03*
X104244000Y-107093000D03*
X106244000Y-107093000D03*
X105744000Y-107093000D03*
X108744000Y-107093000D03*
X104744000Y-107093000D03*
X106744000Y-107093000D03*
X108244000Y-107093000D03*
X99244000Y-107093000D03*
X99244000Y-111293000D03*
X99744000Y-107093000D03*
X99744000Y-111293000D03*
X100244000Y-107093000D03*
X100244000Y-111293000D03*
X100744000Y-107093000D03*
X100744000Y-111293000D03*
X101244000Y-107093000D03*
X101244000Y-111293000D03*
X101744000Y-107093000D03*
X101744000Y-111293000D03*
X102244000Y-107093000D03*
X102244000Y-111293000D03*
X102744000Y-107093000D03*
X102744000Y-111293000D03*
X103244000Y-107093000D03*
X103244000Y-111293000D03*
X103744000Y-107093000D03*
X103744000Y-111293000D03*
M02*
