M48
; DRILL file {KiCad (5.1.6)-1} date 07/22/20 15:01:32
; FORMAT={-:-/ absolute / inch / decimal}
; #@! TF.CreationDate,2020-07-22T15:01:32-06:00
; #@! TF.GenerationSoftware,Kicad,Pcbnew,(5.1.6)-1
; #@! TF.FileFunction,Plated,1,2,PTH
FMAT,2
INCH
T1C0.0118
T2C0.0394
T3C0.0571
%
G90
G05
T1
X3.0462Y-3.5849
X3.0462Y-4.1513
X3.0724Y-3.5849
X3.0724Y-4.1513
X3.0986Y-3.5849
X3.0986Y-4.1513
X3.1255Y-3.5849
X3.1255Y-4.1513
X3.1517Y-3.5849
X3.1517Y-4.1513
X3.1779Y-3.5849
X3.1779Y-4.1513
X3.2041Y-3.5849
X3.2041Y-4.1513
X3.2302Y-3.5849
X3.2302Y-4.1513
X3.2564Y-3.5849
X3.2564Y-4.1513
X3.2826Y-3.5849
X3.2826Y-4.1513
X3.3088Y-3.5849
X3.3088Y-4.1513
X3.3349Y-3.5849
X3.3349Y-4.1513
X3.3611Y-3.5849
X3.3611Y-4.1513
X3.3873Y-3.5849
X3.3873Y-4.1513
X3.4134Y-3.5849
X3.4134Y-4.1513
X3.4396Y-3.5849
X3.4396Y-4.1513
X3.4658Y-3.5849
X3.4658Y-4.1513
X3.492Y-3.5849
X3.492Y-4.1513
X3.5181Y-3.5849
X3.5181Y-4.1513
X3.5443Y-3.5849
X3.5443Y-4.1513
X3.8448Y-3.5849
X3.8448Y-4.1513
X3.871Y-3.5849
X3.871Y-4.1513
X3.8972Y-3.5849
X3.8972Y-4.1513
X3.9241Y-3.5849
X3.9241Y-4.1513
X3.9503Y-3.5849
X3.9503Y-4.1513
X3.9765Y-3.5849
X3.9765Y-4.1513
X4.0026Y-3.5849
X4.0026Y-4.1513
X4.0288Y-3.5849
X4.0288Y-4.1513
X4.055Y-3.5849
X4.055Y-4.1513
X4.0812Y-3.5849
X4.0812Y-4.1513
X4.1073Y-3.5849
X4.1073Y-4.1513
X4.1335Y-3.5849
X4.1335Y-4.1513
X4.1597Y-3.5849
X4.1597Y-4.1513
X4.1859Y-3.5849
X4.1859Y-4.1513
X4.212Y-3.5849
X4.212Y-4.1513
X4.2382Y-3.5849
X4.2382Y-4.1513
X4.2644Y-3.5849
X4.2644Y-4.1513
X4.2906Y-3.5849
X4.2906Y-4.1513
X4.3167Y-3.5849
X4.3167Y-4.1513
X4.3429Y-3.5849
X4.3429Y-4.1513
T2
X3.8031Y-4.0139
X4.3854Y-4.0139
X3.0045Y-4.2887
X3.5868Y-4.2887
X3.0045Y-3.7223
X3.5868Y-3.7223
X3.8031Y-3.7223
X4.3854Y-3.7223
X3.0045Y-4.0139
X3.5868Y-4.0139
X3.8031Y-3.4475
X4.3854Y-3.4475
X3.0045Y-3.4475
X3.5868Y-3.4475
X3.8031Y-4.2887
X4.3854Y-4.2887
T3
X3.8612Y-3.3688
X4.3273Y-3.3688
X3.0626Y-3.3688
X3.5287Y-3.3688
X3.8612Y-4.3674
X4.3273Y-4.3674
X3.8612Y-3.9352
X4.3273Y-3.9352
X3.0626Y-4.3674
X3.5287Y-4.3674
X3.0626Y-3.8011
X3.5287Y-3.8011
X3.8612Y-3.8011
X4.3273Y-3.8011
X3.0626Y-3.9352
X3.5287Y-3.9352
T0
M30
