M48
; DRILL file {KiCad (5.1.5)-3} date 2/28/2020 5:34:19 PM
; FORMAT={-:-/ absolute / inch / decimal}
; #@! TF.CreationDate,2020-02-28T17:34:19-07:00
; #@! TF.GenerationSoftware,Kicad,Pcbnew,(5.1.5)-3
; #@! TF.FileFunction,Plated,1,2,PTH
FMAT,2
INCH
T1C0.0118
T2C0.0394
T3C0.0571
%
G90
G05
T1
X3.1188Y-3.4963
X3.1188Y-4.1611
X3.1449Y-3.4963
X3.1449Y-4.1611
X3.1719Y-3.4963
X3.1719Y-4.1611
X3.1981Y-3.4963
X3.1981Y-4.1611
X3.2243Y-3.4963
X3.2243Y-4.1611
X3.2504Y-3.4963
X3.2504Y-4.1611
X3.2766Y-3.4963
X3.2766Y-4.1611
X3.3028Y-3.4963
X3.3028Y-4.1611
X3.3289Y-3.4963
X3.3289Y-4.1611
X3.3551Y-3.4963
X3.3551Y-4.1611
X3.3813Y-3.4963
X3.3813Y-4.1611
X3.4075Y-3.4963
X3.4075Y-4.1611
X3.4336Y-3.4963
X3.4336Y-4.1611
X3.4598Y-3.4963
X3.4598Y-4.1611
X3.486Y-3.4963
X3.486Y-4.1611
X3.5122Y-3.4963
X3.5122Y-4.1611
X3.5383Y-3.4963
X3.5383Y-4.1611
X3.5645Y-3.4963
X3.5645Y-4.1611
X3.5907Y-3.4963
X3.5907Y-4.1611
X3.7992Y-3.4963
X3.7992Y-4.1611
X3.8254Y-3.4963
X3.8254Y-4.1611
X3.8524Y-3.4963
X3.8524Y-4.1611
X3.8786Y-3.4963
X3.8786Y-4.1611
X3.9047Y-3.4963
X3.9047Y-4.1611
X3.9309Y-3.4963
X3.9309Y-4.1611
X3.9571Y-3.4963
X3.9571Y-4.1611
X3.9832Y-3.4963
X3.9832Y-4.1611
X4.0094Y-3.4963
X4.0094Y-4.1611
X4.0356Y-3.4963
X4.0356Y-4.1611
X4.0618Y-3.4963
X4.0618Y-4.1611
X4.0879Y-3.4963
X4.0879Y-4.1611
X4.1141Y-3.4963
X4.1141Y-4.1611
X4.1403Y-3.4963
X4.1403Y-4.1611
X4.1665Y-3.4963
X4.1665Y-4.1611
X4.1926Y-3.4963
X4.1926Y-4.1611
X4.2188Y-3.4963
X4.2188Y-4.1611
X4.245Y-3.4963
X4.245Y-4.1611
X4.2711Y-3.4963
X4.2711Y-4.1611
T2
X3.0636Y-4.3084
X3.6459Y-4.3084
X3.7441Y-4.0139
X4.3263Y-4.0139
X3.7441Y-4.3084
X4.3263Y-4.3084
X3.0636Y-3.6436
X3.6459Y-3.6436
X3.0636Y-3.3491
X3.6459Y-3.3491
X3.7441Y-3.3491
X4.3263Y-3.3491
X3.7441Y-3.6436
X4.3263Y-3.6436
X3.0636Y-4.0139
X3.6459Y-4.0139
T3
X3.8021Y-3.9352
X4.2683Y-3.9352
X3.8021Y-4.3871
X4.2683Y-4.3871
X3.1217Y-3.7223
X3.5878Y-3.7223
X3.1217Y-3.2704
X3.5878Y-3.2704
X3.8021Y-3.2704
X4.2683Y-3.2704
X3.8021Y-3.7223
X4.2683Y-3.7223
X3.1217Y-3.9352
X3.5878Y-3.9352
X3.1217Y-4.3871
X3.5878Y-4.3871
T0
M30
