M48
; DRILL file {KiCad (5.1.4)-1} date 10/08/19 18:00:09
; FORMAT={-:-/ absolute / inch / decimal}
; #@! TF.CreationDate,2019-10-08T18:00:09-06:00
; #@! TF.GenerationSoftware,Kicad,Pcbnew,(5.1.4)-1
; #@! TF.FileFunction,Plated,1,2,PTH
FMAT,2
INCH
T1C0.0118
T2C0.0394
T3C0.0571
%
G90
G05
T1
X3.0748Y-3.5062
X3.0748Y-4.1513
X3.1043Y-3.5062
X3.1043Y-4.1513
X3.1339Y-3.5062
X3.1339Y-4.1513
X3.1634Y-3.5062
X3.1634Y-4.1513
X3.1929Y-3.5062
X3.1929Y-4.1513
X3.222Y-3.5062
X3.222Y-4.1513
X3.2516Y-3.5062
X3.2516Y-4.1513
X3.2811Y-3.5062
X3.2811Y-4.1513
X3.3106Y-3.5062
X3.3106Y-4.1513
X3.3402Y-3.5062
X3.3402Y-4.1513
X3.3693Y-3.5062
X3.3693Y-4.1513
X3.3988Y-3.5062
X3.3988Y-4.1513
X3.4283Y-3.5062
X3.4283Y-4.1513
X3.4579Y-3.5062
X3.4579Y-4.1513
X3.4874Y-3.5062
X3.4874Y-4.1513
X3.5165Y-3.5062
X3.5165Y-4.1513
X3.5461Y-3.5062
X3.5461Y-4.1513
X3.5756Y-3.5062
X3.5756Y-4.1513
X3.6051Y-3.5062
X3.6051Y-4.1513
X3.6346Y-3.5062
X3.6346Y-4.1513
X3.7553Y-3.5062
X3.7553Y-4.1513
X3.7848Y-3.5062
X3.7848Y-4.1513
X3.8143Y-3.5062
X3.8143Y-4.1513
X3.8439Y-3.5062
X3.8439Y-4.1513
X3.8734Y-3.5062
X3.8734Y-4.1513
X3.9025Y-3.5062
X3.9025Y-4.1513
X3.932Y-3.5062
X3.932Y-4.1513
X3.9616Y-3.5062
X3.9616Y-4.1513
X3.9911Y-3.5062
X3.9911Y-4.1513
X4.0206Y-3.5062
X4.0206Y-4.1513
X4.0498Y-3.5062
X4.0498Y-4.1513
X4.0793Y-3.5062
X4.0793Y-4.1513
X4.1088Y-3.5062
X4.1088Y-4.1513
X4.1383Y-3.5062
X4.1383Y-4.1513
X4.1679Y-3.5062
X4.1679Y-4.1513
X4.197Y-3.5062
X4.197Y-4.1513
X4.2265Y-3.5062
X4.2265Y-4.1513
X4.2561Y-3.5062
X4.2561Y-4.1513
X4.2856Y-3.5062
X4.2856Y-4.1513
X4.3151Y-3.5062
X4.3151Y-4.1513
T2
X3.7441Y-4.3084
X4.3263Y-4.3084
X3.0636Y-3.9942
X3.6459Y-3.9942
X3.7441Y-3.3491
X4.3263Y-3.3491
X3.7441Y-3.6633
X4.3263Y-3.6633
X3.0636Y-3.3491
X3.6459Y-3.3491
X3.0636Y-3.6633
X3.6459Y-3.6633
X3.7441Y-3.9942
X4.3263Y-3.9942
X3.0636Y-4.3084
X3.6459Y-4.3084
T3
X3.1217Y-3.9155
X3.5878Y-3.9155
X3.8021Y-3.2704
X4.2683Y-3.2704
X3.8021Y-3.742
X4.2683Y-3.742
X3.1217Y-3.2704
X3.5878Y-3.2704
X3.1217Y-3.742
X3.5878Y-3.742
X3.8021Y-3.9155
X4.2683Y-3.9155
X3.1217Y-4.3871
X3.5878Y-4.3871
X3.8021Y-4.3871
X4.2683Y-4.3871
T0
M30
