%TF.GenerationSoftware,KiCad,Pcbnew,(5.1.6)-1*%
%TF.CreationDate,2020-08-25T10:54:11-06:00*%
%TF.ProjectId,SMA_Tester,534d415f-5465-4737-9465-722e6b696361,rev?*%
%TF.SameCoordinates,Original*%
%TF.FileFunction,Copper,L2,Bot*%
%TF.FilePolarity,Positive*%
%FSLAX46Y46*%
G04 Gerber Fmt 4.6, Leading zero omitted, Abs format (unit mm)*
G04 Created by KiCad (PCBNEW (5.1.6)-1) date 2020-08-25 10:54:11*
%MOMM*%
%LPD*%
G01*
G04 APERTURE LIST*
%TA.AperFunction,SMDPad,CuDef*%
%ADD10R,1.270000X5.080000*%
%TD*%
%TA.AperFunction,Conductor*%
%ADD11C,0.254000*%
%TD*%
G04 APERTURE END LIST*
D10*
%TO.P,J1,2*%
%TO.N,GND*%
X136842500Y-99441000D03*
X145351500Y-99441000D03*
%TD*%
D11*
%TO.N,GND*%
G36*
X145952000Y-96263231D02*
G01*
X145637250Y-96266000D01*
X145478500Y-96424750D01*
X145478500Y-99314000D01*
X145498500Y-99314000D01*
X145498500Y-99568000D01*
X145478500Y-99568000D01*
X145478500Y-99588000D01*
X145224500Y-99588000D01*
X145224500Y-99568000D01*
X144240250Y-99568000D01*
X144081500Y-99726750D01*
X144078908Y-101629000D01*
X138115092Y-101629000D01*
X138112500Y-99726750D01*
X137953750Y-99568000D01*
X136969500Y-99568000D01*
X136969500Y-99588000D01*
X136715500Y-99588000D01*
X136715500Y-99568000D01*
X136695500Y-99568000D01*
X136695500Y-99314000D01*
X136715500Y-99314000D01*
X136715500Y-96424750D01*
X136969500Y-96424750D01*
X136969500Y-99314000D01*
X137953750Y-99314000D01*
X138112500Y-99155250D01*
X138115572Y-96901000D01*
X144078428Y-96901000D01*
X144081500Y-99155250D01*
X144240250Y-99314000D01*
X145224500Y-99314000D01*
X145224500Y-96424750D01*
X145065750Y-96266000D01*
X144716500Y-96262928D01*
X144592018Y-96275188D01*
X144472320Y-96311498D01*
X144362006Y-96370463D01*
X144265315Y-96449815D01*
X144185963Y-96546506D01*
X144126998Y-96656820D01*
X144090688Y-96776518D01*
X144078428Y-96901000D01*
X138115572Y-96901000D01*
X138103312Y-96776518D01*
X138067002Y-96656820D01*
X138008037Y-96546506D01*
X137928685Y-96449815D01*
X137831994Y-96370463D01*
X137721680Y-96311498D01*
X137601982Y-96275188D01*
X137477500Y-96262928D01*
X137128250Y-96266000D01*
X136969500Y-96424750D01*
X136715500Y-96424750D01*
X136556750Y-96266000D01*
X136242000Y-96263231D01*
X136242000Y-76933000D01*
X145952001Y-76933000D01*
X145952000Y-96263231D01*
G37*
X145952000Y-96263231D02*
X145637250Y-96266000D01*
X145478500Y-96424750D01*
X145478500Y-99314000D01*
X145498500Y-99314000D01*
X145498500Y-99568000D01*
X145478500Y-99568000D01*
X145478500Y-99588000D01*
X145224500Y-99588000D01*
X145224500Y-99568000D01*
X144240250Y-99568000D01*
X144081500Y-99726750D01*
X144078908Y-101629000D01*
X138115092Y-101629000D01*
X138112500Y-99726750D01*
X137953750Y-99568000D01*
X136969500Y-99568000D01*
X136969500Y-99588000D01*
X136715500Y-99588000D01*
X136715500Y-99568000D01*
X136695500Y-99568000D01*
X136695500Y-99314000D01*
X136715500Y-99314000D01*
X136715500Y-96424750D01*
X136969500Y-96424750D01*
X136969500Y-99314000D01*
X137953750Y-99314000D01*
X138112500Y-99155250D01*
X138115572Y-96901000D01*
X144078428Y-96901000D01*
X144081500Y-99155250D01*
X144240250Y-99314000D01*
X145224500Y-99314000D01*
X145224500Y-96424750D01*
X145065750Y-96266000D01*
X144716500Y-96262928D01*
X144592018Y-96275188D01*
X144472320Y-96311498D01*
X144362006Y-96370463D01*
X144265315Y-96449815D01*
X144185963Y-96546506D01*
X144126998Y-96656820D01*
X144090688Y-96776518D01*
X144078428Y-96901000D01*
X138115572Y-96901000D01*
X138103312Y-96776518D01*
X138067002Y-96656820D01*
X138008037Y-96546506D01*
X137928685Y-96449815D01*
X137831994Y-96370463D01*
X137721680Y-96311498D01*
X137601982Y-96275188D01*
X137477500Y-96262928D01*
X137128250Y-96266000D01*
X136969500Y-96424750D01*
X136715500Y-96424750D01*
X136556750Y-96266000D01*
X136242000Y-96263231D01*
X136242000Y-76933000D01*
X145952001Y-76933000D01*
X145952000Y-96263231D01*
%TD*%
M02*
