%TF.GenerationSoftware,KiCad,Pcbnew,(5.1.6)-1*%
%TF.CreationDate,2020-08-25T10:54:11-06:00*%
%TF.ProjectId,SMA_Tester,534d415f-5465-4737-9465-722e6b696361,rev?*%
%TF.SameCoordinates,Original*%
%TF.FileFunction,Copper,L1,Top*%
%TF.FilePolarity,Positive*%
%FSLAX46Y46*%
G04 Gerber Fmt 4.6, Leading zero omitted, Abs format (unit mm)*
G04 Created by KiCad (PCBNEW (5.1.6)-1) date 2020-08-25 10:54:11*
%MOMM*%
%LPD*%
G01*
G04 APERTURE LIST*
%TA.AperFunction,SMDPad,CuDef*%
%ADD10R,1.270000X5.080000*%
%TD*%
%TA.AperFunction,Conductor*%
%ADD11C,0.254000*%
%TD*%
G04 APERTURE END LIST*
D10*
%TO.P,J1,2*%
%TO.N,GND*%
X136842500Y-99441000D03*
X145351500Y-99441000D03*
%TO.P,J1,1*%
%TO.N,Net-(J1-Pad1)*%
X141097000Y-99441000D03*
%TD*%
D11*
%TO.N,Net-(J1-Pad1)*%
G36*
X142113000Y-101321000D02*
G01*
X140081000Y-101321000D01*
X140081000Y-84455000D01*
X142113000Y-84455000D01*
X142113000Y-101321000D01*
G37*
X142113000Y-101321000D02*
X140081000Y-101321000D01*
X140081000Y-84455000D01*
X142113000Y-84455000D01*
X142113000Y-101321000D01*
%TO.N,GND*%
G36*
X145952000Y-101629000D02*
G01*
X144526000Y-101629000D01*
X144526000Y-78613000D01*
X144523560Y-78588224D01*
X144516333Y-78564399D01*
X144504597Y-78542443D01*
X144488803Y-78523197D01*
X144469557Y-78507403D01*
X144447601Y-78495667D01*
X144423776Y-78488440D01*
X144399000Y-78486000D01*
X142240000Y-78486000D01*
X142215224Y-78488440D01*
X142191399Y-78495667D01*
X142169443Y-78507403D01*
X142150197Y-78523197D01*
X142134403Y-78542443D01*
X142122667Y-78564399D01*
X142115440Y-78588224D01*
X142113000Y-78613000D01*
X142113000Y-83058000D01*
X140081000Y-83058000D01*
X140081000Y-78613000D01*
X140078560Y-78588224D01*
X140071333Y-78564399D01*
X140059597Y-78542443D01*
X140043803Y-78523197D01*
X140024557Y-78507403D01*
X140002601Y-78495667D01*
X139978776Y-78488440D01*
X139954000Y-78486000D01*
X137795000Y-78486000D01*
X137770224Y-78488440D01*
X137746399Y-78495667D01*
X137724443Y-78507403D01*
X137705197Y-78523197D01*
X137689403Y-78542443D01*
X137677667Y-78564399D01*
X137670440Y-78588224D01*
X137668000Y-78613000D01*
X137668000Y-101629000D01*
X136242000Y-101629000D01*
X136242000Y-76933000D01*
X145952001Y-76933000D01*
X145952000Y-101629000D01*
G37*
X145952000Y-101629000D02*
X144526000Y-101629000D01*
X144526000Y-78613000D01*
X144523560Y-78588224D01*
X144516333Y-78564399D01*
X144504597Y-78542443D01*
X144488803Y-78523197D01*
X144469557Y-78507403D01*
X144447601Y-78495667D01*
X144423776Y-78488440D01*
X144399000Y-78486000D01*
X142240000Y-78486000D01*
X142215224Y-78488440D01*
X142191399Y-78495667D01*
X142169443Y-78507403D01*
X142150197Y-78523197D01*
X142134403Y-78542443D01*
X142122667Y-78564399D01*
X142115440Y-78588224D01*
X142113000Y-78613000D01*
X142113000Y-83058000D01*
X140081000Y-83058000D01*
X140081000Y-78613000D01*
X140078560Y-78588224D01*
X140071333Y-78564399D01*
X140059597Y-78542443D01*
X140043803Y-78523197D01*
X140024557Y-78507403D01*
X140002601Y-78495667D01*
X139978776Y-78488440D01*
X139954000Y-78486000D01*
X137795000Y-78486000D01*
X137770224Y-78488440D01*
X137746399Y-78495667D01*
X137724443Y-78507403D01*
X137705197Y-78523197D01*
X137689403Y-78542443D01*
X137677667Y-78564399D01*
X137670440Y-78588224D01*
X137668000Y-78613000D01*
X137668000Y-101629000D01*
X136242000Y-101629000D01*
X136242000Y-76933000D01*
X145952001Y-76933000D01*
X145952000Y-101629000D01*
%TD*%
M02*
