M48
; DRILL file {KiCad (5.1.4)-1} date 8/15/2019 6:00:27 PM
; FORMAT={-:-/ absolute / inch / decimal}
; #@! TF.CreationDate,2019-08-15T18:00:27-06:00
; #@! TF.GenerationSoftware,Kicad,Pcbnew,(5.1.4)-1
; #@! TF.FileFunction,Plated,1,2,PTH
FMAT,2
INCH
T1C0.0157
T2C0.0469
T3C0.0780
%
G90
G05
T1
X3.4409Y-2.8827
X3.8768Y-2.9651
X3.9239Y-2.9337
X3.989Y-2.7862
X4.7528Y-2.8535
X4.7528Y-2.8961
X4.7528Y-2.9386
X4.7528Y-2.9811
X4.7528Y-3.0236
X4.7528Y-3.0661
X4.8272Y-3.1311
X4.8346Y-2.9646
X4.8476Y-3.0657
X4.8898Y-3.0162
X4.927Y-2.9578
X4.9273Y-2.8016
X5.0738Y-2.9559
X5.0922Y-2.8851
X5.1417Y-2.7992
X5.2774Y-2.9915
X5.3425Y-3.0236
X5.3904Y-2.7897
T2
X3.5256Y-2.6665
X3.5256Y-3.0965
X5.4587Y-2.6665
X5.4587Y-3.0965
T3
X3.5256Y-3.278
T0
M30
