G04 #@! TF.GenerationSoftware,KiCad,Pcbnew,(5.1.4)-1*
G04 #@! TF.CreationDate,2019-08-19T13:53:23-06:00*
G04 #@! TF.ProjectId,Windchill01,57696e64-6368-4696-9c6c-30312e6b6963,rev?*
G04 #@! TF.SameCoordinates,Original*
G04 #@! TF.FileFunction,Soldermask,Top*
G04 #@! TF.FilePolarity,Negative*
%FSLAX46Y46*%
G04 Gerber Fmt 4.6, Leading zero omitted, Abs format (unit mm)*
G04 Created by KiCad (PCBNEW (5.1.4)-1) date 2019-08-19 13:53:23*
%MOMM*%
%LPD*%
G04 APERTURE LIST*
%ADD10C,0.262500*%
%ADD11C,0.300000*%
%ADD12C,0.200000*%
%ADD13C,0.100000*%
%ADD14C,0.500000*%
%ADD15C,0.150000*%
%ADD16C,0.250000*%
%ADD17C,0.400000*%
%ADD18C,0.010000*%
%ADD19C,3.880000*%
%ADD20C,2.590000*%
%ADD21R,2.940000X1.670000*%
%ADD22R,0.550000X1.370000*%
%ADD23R,1.300000X1.200000*%
%ADD24C,0.990000*%
%ADD25R,5.720000X1.860000*%
%ADD26R,5.720000X2.350000*%
%ADD27C,1.275000*%
%ADD28R,1.300000X1.100000*%
G04 APERTURE END LIST*
D10*
X111452109Y-62641666D02*
X111650026Y-64391666D01*
X112139609Y-63141666D01*
X112316692Y-64391666D01*
X112952109Y-62641666D01*
X113400026Y-64391666D02*
X113545859Y-63225000D01*
X113618776Y-62641666D02*
X113525026Y-62725000D01*
X113597942Y-62808333D01*
X113691692Y-62725000D01*
X113618776Y-62641666D01*
X113597942Y-62808333D01*
X114379192Y-63225000D02*
X114233359Y-64391666D01*
X114358359Y-63391666D02*
X114452109Y-63308333D01*
X114629192Y-63225000D01*
X114879192Y-63225000D01*
X115035442Y-63308333D01*
X115097942Y-63475000D01*
X114983359Y-64391666D01*
X116566692Y-64391666D02*
X116785442Y-62641666D01*
X116577109Y-64308333D02*
X116400026Y-64391666D01*
X116066692Y-64391666D01*
X115910442Y-64308333D01*
X115837526Y-64225000D01*
X115775026Y-64058333D01*
X115837526Y-63558333D01*
X115941692Y-63391666D01*
X116035442Y-63308333D01*
X116212526Y-63225000D01*
X116545859Y-63225000D01*
X116702109Y-63308333D01*
X118160442Y-64308333D02*
X117983359Y-64391666D01*
X117650026Y-64391666D01*
X117493776Y-64308333D01*
X117420859Y-64225000D01*
X117358359Y-64058333D01*
X117420859Y-63558333D01*
X117525026Y-63391666D01*
X117618776Y-63308333D01*
X117795859Y-63225000D01*
X118129192Y-63225000D01*
X118285442Y-63308333D01*
X118900026Y-64391666D02*
X119118776Y-62641666D01*
X119650026Y-64391666D02*
X119764609Y-63475000D01*
X119702109Y-63308333D01*
X119545859Y-63225000D01*
X119295859Y-63225000D01*
X119118776Y-63308333D01*
X119025026Y-63391666D01*
X120483359Y-64391666D02*
X120629192Y-63225000D01*
X120702109Y-62641666D02*
X120608359Y-62725000D01*
X120681276Y-62808333D01*
X120775026Y-62725000D01*
X120702109Y-62641666D01*
X120681276Y-62808333D01*
X121566692Y-64391666D02*
X121410442Y-64308333D01*
X121347942Y-64141666D01*
X121535442Y-62641666D01*
X122483359Y-64391666D02*
X122327109Y-64308333D01*
X122264609Y-64141666D01*
X122452109Y-62641666D01*
X123702109Y-62641666D02*
X123868776Y-62641666D01*
X124025026Y-62725000D01*
X124097942Y-62808333D01*
X124160442Y-62975000D01*
X124202109Y-63308333D01*
X124150026Y-63725000D01*
X124025026Y-64058333D01*
X123920859Y-64225000D01*
X123827109Y-64308333D01*
X123650026Y-64391666D01*
X123483359Y-64391666D01*
X123327109Y-64308333D01*
X123254192Y-64225000D01*
X123191692Y-64058333D01*
X123150026Y-63725000D01*
X123202109Y-63308333D01*
X123327109Y-62975000D01*
X123431276Y-62808333D01*
X123525026Y-62725000D01*
X123702109Y-62641666D01*
X125733359Y-64391666D02*
X124733359Y-64391666D01*
X125233359Y-64391666D02*
X125452109Y-62641666D01*
X125254192Y-62891666D01*
X125066692Y-63058333D01*
X124889609Y-63141666D01*
D11*
X111050000Y-65100000D02*
X124000000Y-65100000D01*
D12*
X111000000Y-65600000D02*
X119000000Y-65600000D01*
D13*
X111000000Y-65900000D02*
X116000000Y-65900000D01*
X117017919Y-67896571D02*
X117084883Y-67932285D01*
X117227741Y-67932285D01*
X117303633Y-67896571D01*
X117348276Y-67825142D01*
X117352741Y-67789428D01*
X117325955Y-67718000D01*
X117258991Y-67682285D01*
X117151848Y-67682285D01*
X117084883Y-67646571D01*
X117058098Y-67575142D01*
X117062562Y-67539428D01*
X117107205Y-67468000D01*
X117183098Y-67432285D01*
X117290241Y-67432285D01*
X117357205Y-67468000D01*
X117656312Y-67932285D02*
X117718812Y-67432285D01*
X117750062Y-67182285D02*
X117709883Y-67218000D01*
X117741133Y-67253714D01*
X117781312Y-67218000D01*
X117750062Y-67182285D01*
X117741133Y-67253714D01*
X118075955Y-67432285D02*
X118013455Y-67932285D01*
X118067026Y-67503714D02*
X118107205Y-67468000D01*
X118183098Y-67432285D01*
X118290241Y-67432285D01*
X118357205Y-67468000D01*
X118383991Y-67539428D01*
X118334883Y-67932285D01*
X119017919Y-67896571D02*
X118942026Y-67932285D01*
X118799169Y-67932285D01*
X118732205Y-67896571D01*
X118700955Y-67860857D01*
X118674169Y-67789428D01*
X118700955Y-67575142D01*
X118745598Y-67503714D01*
X118785776Y-67468000D01*
X118861669Y-67432285D01*
X119004526Y-67432285D01*
X119071491Y-67468000D01*
X119625062Y-67896571D02*
X119549169Y-67932285D01*
X119406312Y-67932285D01*
X119339348Y-67896571D01*
X119312562Y-67825142D01*
X119348276Y-67539428D01*
X119392919Y-67468000D01*
X119468812Y-67432285D01*
X119611669Y-67432285D01*
X119678633Y-67468000D01*
X119705419Y-67539428D01*
X119696491Y-67610857D01*
X119330419Y-67682285D01*
X120540241Y-67718000D02*
X120897383Y-67718000D01*
X120442026Y-67932285D02*
X120785776Y-67182285D01*
X120942026Y-67932285D01*
X121575955Y-67432285D02*
X121513455Y-67932285D01*
X121254526Y-67432285D02*
X121205419Y-67825142D01*
X121232205Y-67896571D01*
X121299169Y-67932285D01*
X121406312Y-67932285D01*
X121482205Y-67896571D01*
X121522383Y-67860857D01*
X122254526Y-67432285D02*
X122178633Y-68039428D01*
X122133991Y-68110857D01*
X122093812Y-68146571D01*
X122017919Y-68182285D01*
X121910776Y-68182285D01*
X121843812Y-68146571D01*
X122196491Y-67896571D02*
X122120598Y-67932285D01*
X121977741Y-67932285D01*
X121910776Y-67896571D01*
X121879526Y-67860857D01*
X121852741Y-67789428D01*
X121879526Y-67575142D01*
X121924169Y-67503714D01*
X121964348Y-67468000D01*
X122040241Y-67432285D01*
X122183098Y-67432285D01*
X122250062Y-67468000D01*
X122933098Y-67432285D02*
X122870598Y-67932285D01*
X122611669Y-67432285D02*
X122562562Y-67825142D01*
X122589348Y-67896571D01*
X122656312Y-67932285D01*
X122763455Y-67932285D01*
X122839348Y-67896571D01*
X122879526Y-67860857D01*
X123196491Y-67896571D02*
X123263455Y-67932285D01*
X123406312Y-67932285D01*
X123482205Y-67896571D01*
X123526848Y-67825142D01*
X123531312Y-67789428D01*
X123504526Y-67718000D01*
X123437562Y-67682285D01*
X123330419Y-67682285D01*
X123263455Y-67646571D01*
X123236669Y-67575142D01*
X123241133Y-67539428D01*
X123285776Y-67468000D01*
X123361669Y-67432285D01*
X123468812Y-67432285D01*
X123535776Y-67468000D01*
X123790241Y-67432285D02*
X124075955Y-67432285D01*
X123928633Y-67182285D02*
X123848276Y-67825142D01*
X123875062Y-67896571D01*
X123942026Y-67932285D01*
X124013455Y-67932285D01*
X124883991Y-67253714D02*
X124924169Y-67218000D01*
X125000062Y-67182285D01*
X125178633Y-67182285D01*
X125245598Y-67218000D01*
X125276848Y-67253714D01*
X125303633Y-67325142D01*
X125294705Y-67396571D01*
X125245598Y-67503714D01*
X124763455Y-67932285D01*
X125227741Y-67932285D01*
X125785776Y-67182285D02*
X125857205Y-67182285D01*
X125924169Y-67218000D01*
X125955419Y-67253714D01*
X125982205Y-67325142D01*
X126000062Y-67468000D01*
X125977741Y-67646571D01*
X125924169Y-67789428D01*
X125879526Y-67860857D01*
X125839348Y-67896571D01*
X125763455Y-67932285D01*
X125692026Y-67932285D01*
X125625062Y-67896571D01*
X125593812Y-67860857D01*
X125567026Y-67789428D01*
X125549169Y-67646571D01*
X125571491Y-67468000D01*
X125625062Y-67325142D01*
X125669705Y-67253714D01*
X125709883Y-67218000D01*
X125785776Y-67182285D01*
X126656312Y-67932285D02*
X126227741Y-67932285D01*
X126442026Y-67932285D02*
X126535776Y-67182285D01*
X126450955Y-67289428D01*
X126370598Y-67360857D01*
X126294705Y-67396571D01*
X127013455Y-67932285D02*
X127156312Y-67932285D01*
X127232205Y-67896571D01*
X127272383Y-67860857D01*
X127357205Y-67753714D01*
X127410776Y-67610857D01*
X127446491Y-67325142D01*
X127419705Y-67253714D01*
X127388455Y-67218000D01*
X127321491Y-67182285D01*
X127178633Y-67182285D01*
X127102741Y-67218000D01*
X127062562Y-67253714D01*
X127017919Y-67325142D01*
X126995598Y-67503714D01*
X127022383Y-67575142D01*
X127053633Y-67610857D01*
X127120598Y-67646571D01*
X127263455Y-67646571D01*
X127339348Y-67610857D01*
X127379526Y-67575142D01*
X127424169Y-67503714D01*
X141200000Y-80900000D02*
X136200000Y-80900000D01*
D11*
X141150000Y-81700000D02*
X128200000Y-81700000D01*
D12*
X141200000Y-81200000D02*
X133200000Y-81200000D01*
D14*
X141050000Y-82500000D02*
X120200000Y-82500000D01*
D13*
X111736098Y-66896857D02*
X111695919Y-66932571D01*
X111584312Y-66968285D01*
X111512883Y-66968285D01*
X111410205Y-66932571D01*
X111347705Y-66861142D01*
X111320919Y-66789714D01*
X111303062Y-66646857D01*
X111316455Y-66539714D01*
X111370026Y-66396857D01*
X111414669Y-66325428D01*
X111495026Y-66254000D01*
X111606633Y-66218285D01*
X111678062Y-66218285D01*
X111780741Y-66254000D01*
X111811991Y-66289714D01*
X112155741Y-66968285D02*
X112088776Y-66932571D01*
X112057526Y-66896857D01*
X112030741Y-66825428D01*
X112057526Y-66611142D01*
X112102169Y-66539714D01*
X112142348Y-66504000D01*
X112218241Y-66468285D01*
X112325383Y-66468285D01*
X112392348Y-66504000D01*
X112423598Y-66539714D01*
X112450383Y-66611142D01*
X112423598Y-66825428D01*
X112378955Y-66896857D01*
X112338776Y-66932571D01*
X112262883Y-66968285D01*
X112155741Y-66968285D01*
X112834312Y-66968285D02*
X112767348Y-66932571D01*
X112736098Y-66896857D01*
X112709312Y-66825428D01*
X112736098Y-66611142D01*
X112780741Y-66539714D01*
X112820919Y-66504000D01*
X112896812Y-66468285D01*
X113003955Y-66468285D01*
X113070919Y-66504000D01*
X113102169Y-66539714D01*
X113128955Y-66611142D01*
X113102169Y-66825428D01*
X113057526Y-66896857D01*
X113017348Y-66932571D01*
X112941455Y-66968285D01*
X112834312Y-66968285D01*
X113512883Y-66968285D02*
X113445919Y-66932571D01*
X113419133Y-66861142D01*
X113499491Y-66218285D01*
X113798598Y-66968285D02*
X113861098Y-66468285D01*
X113892348Y-66218285D02*
X113852169Y-66254000D01*
X113883419Y-66289714D01*
X113923598Y-66254000D01*
X113892348Y-66218285D01*
X113883419Y-66289714D01*
X114218241Y-66468285D02*
X114155741Y-66968285D01*
X114209312Y-66539714D02*
X114249491Y-66504000D01*
X114325383Y-66468285D01*
X114432526Y-66468285D01*
X114499491Y-66504000D01*
X114526276Y-66575428D01*
X114477169Y-66968285D01*
X115218241Y-66468285D02*
X115142348Y-67075428D01*
X115097705Y-67146857D01*
X115057526Y-67182571D01*
X114981633Y-67218285D01*
X114874491Y-67218285D01*
X114807526Y-67182571D01*
X115160205Y-66932571D02*
X115084312Y-66968285D01*
X114941455Y-66968285D01*
X114874491Y-66932571D01*
X114843241Y-66896857D01*
X114816455Y-66825428D01*
X114843241Y-66611142D01*
X114887883Y-66539714D01*
X114928062Y-66504000D01*
X115003955Y-66468285D01*
X115146812Y-66468285D01*
X115213776Y-66504000D01*
X116053062Y-66932571D02*
X116155741Y-66968285D01*
X116334312Y-66968285D01*
X116410205Y-66932571D01*
X116450383Y-66896857D01*
X116495026Y-66825428D01*
X116503955Y-66754000D01*
X116477169Y-66682571D01*
X116445919Y-66646857D01*
X116378955Y-66611142D01*
X116240562Y-66575428D01*
X116173598Y-66539714D01*
X116142348Y-66504000D01*
X116115562Y-66432571D01*
X116124491Y-66361142D01*
X116169133Y-66289714D01*
X116209312Y-66254000D01*
X116285205Y-66218285D01*
X116463776Y-66218285D01*
X116566455Y-66254000D01*
X116798598Y-66968285D02*
X116892348Y-66218285D01*
X117227169Y-66968285D01*
X117320919Y-66218285D01*
X117553062Y-66932571D02*
X117655741Y-66968285D01*
X117834312Y-66968285D01*
X117910205Y-66932571D01*
X117950383Y-66896857D01*
X117995026Y-66825428D01*
X118003955Y-66754000D01*
X117977169Y-66682571D01*
X117945919Y-66646857D01*
X117878955Y-66611142D01*
X117740562Y-66575428D01*
X117673598Y-66539714D01*
X117642348Y-66504000D01*
X117615562Y-66432571D01*
X117624491Y-66361142D01*
X117669133Y-66289714D01*
X117709312Y-66254000D01*
X117785205Y-66218285D01*
X117963776Y-66218285D01*
X118066455Y-66254000D01*
X118298598Y-66968285D02*
X118392348Y-66218285D01*
X118678062Y-66218285D01*
X118745026Y-66254000D01*
X118776276Y-66289714D01*
X118803062Y-66361142D01*
X118789669Y-66468285D01*
X118745026Y-66539714D01*
X118704848Y-66575428D01*
X118628955Y-66611142D01*
X118343241Y-66611142D01*
X119048598Y-66968285D02*
X119142348Y-66218285D01*
X119320919Y-66218285D01*
X119423598Y-66254000D01*
X119486098Y-66325428D01*
X119512883Y-66396857D01*
X119530741Y-66539714D01*
X119517348Y-66646857D01*
X119463776Y-66789714D01*
X119419133Y-66861142D01*
X119338776Y-66932571D01*
X119227169Y-66968285D01*
X119048598Y-66968285D01*
X119767348Y-66932571D02*
X119834312Y-66968285D01*
X119977169Y-66968285D01*
X120053062Y-66932571D01*
X120097705Y-66861142D01*
X120102169Y-66825428D01*
X120075383Y-66754000D01*
X120008419Y-66718285D01*
X119901276Y-66718285D01*
X119834312Y-66682571D01*
X119807526Y-66611142D01*
X119811991Y-66575428D01*
X119856633Y-66504000D01*
X119932526Y-66468285D01*
X120039669Y-66468285D01*
X120106633Y-66504000D01*
X121298598Y-66968285D02*
X121392348Y-66218285D01*
X121303062Y-66932571D02*
X121227169Y-66968285D01*
X121084312Y-66968285D01*
X121017348Y-66932571D01*
X120986098Y-66896857D01*
X120959312Y-66825428D01*
X120986098Y-66611142D01*
X121030741Y-66539714D01*
X121070919Y-66504000D01*
X121146812Y-66468285D01*
X121289669Y-66468285D01*
X121356633Y-66504000D01*
X121762883Y-66968285D02*
X121695919Y-66932571D01*
X121664669Y-66896857D01*
X121637883Y-66825428D01*
X121664669Y-66611142D01*
X121709312Y-66539714D01*
X121749491Y-66504000D01*
X121825383Y-66468285D01*
X121932526Y-66468285D01*
X121999491Y-66504000D01*
X122030741Y-66539714D01*
X122057526Y-66611142D01*
X122030741Y-66825428D01*
X121986098Y-66896857D01*
X121945919Y-66932571D01*
X121870026Y-66968285D01*
X121762883Y-66968285D01*
X122325383Y-66468285D02*
X122405741Y-66968285D01*
X122593241Y-66611142D01*
X122691455Y-66968285D01*
X122896812Y-66468285D01*
X123182526Y-66468285D02*
X123120026Y-66968285D01*
X123173598Y-66539714D02*
X123213776Y-66504000D01*
X123289669Y-66468285D01*
X123396812Y-66468285D01*
X123463776Y-66504000D01*
X123490562Y-66575428D01*
X123441455Y-66968285D01*
D15*
X111433333Y-83752380D02*
X111433333Y-82752380D01*
X111671428Y-82752380D01*
X111814285Y-82800000D01*
X111909523Y-82895238D01*
X111957142Y-82990476D01*
X112004761Y-83180952D01*
X112004761Y-83323809D01*
X111957142Y-83514285D01*
X111909523Y-83609523D01*
X111814285Y-83704761D01*
X111671428Y-83752380D01*
X111433333Y-83752380D01*
X112338095Y-83085714D02*
X112576190Y-83752380D01*
X112814285Y-83085714D02*
X112576190Y-83752380D01*
X112480952Y-83990476D01*
X112433333Y-84038095D01*
X112338095Y-84085714D01*
X113338095Y-83752380D02*
X113242857Y-83704761D01*
X113195238Y-83609523D01*
X113195238Y-82752380D01*
X114147619Y-83752380D02*
X114147619Y-83228571D01*
X114100000Y-83133333D01*
X114004761Y-83085714D01*
X113814285Y-83085714D01*
X113719047Y-83133333D01*
X114147619Y-83704761D02*
X114052380Y-83752380D01*
X113814285Y-83752380D01*
X113719047Y-83704761D01*
X113671428Y-83609523D01*
X113671428Y-83514285D01*
X113719047Y-83419047D01*
X113814285Y-83371428D01*
X114052380Y-83371428D01*
X114147619Y-83323809D01*
X114623809Y-83085714D02*
X114623809Y-83752380D01*
X114623809Y-83180952D02*
X114671428Y-83133333D01*
X114766666Y-83085714D01*
X114909523Y-83085714D01*
X115004761Y-83133333D01*
X115052380Y-83228571D01*
X115052380Y-83752380D01*
X116480952Y-82752380D02*
X116671428Y-82752380D01*
X116766666Y-82800000D01*
X116861904Y-82895238D01*
X116909523Y-83085714D01*
X116909523Y-83419047D01*
X116861904Y-83609523D01*
X116766666Y-83704761D01*
X116671428Y-83752380D01*
X116480952Y-83752380D01*
X116385714Y-83704761D01*
X116290476Y-83609523D01*
X116242857Y-83419047D01*
X116242857Y-83085714D01*
X116290476Y-82895238D01*
X116385714Y-82800000D01*
X116480952Y-82752380D01*
X117338095Y-83752380D02*
X117338095Y-82752380D01*
X117766666Y-83752380D02*
X117766666Y-83228571D01*
X117719047Y-83133333D01*
X117623809Y-83085714D01*
X117480952Y-83085714D01*
X117385714Y-83133333D01*
X117338095Y-83180952D01*
D14*
X141200000Y-66800000D02*
X141200000Y-61900000D01*
X147400000Y-79600000D02*
X141200000Y-79600000D01*
X147500000Y-66800000D02*
X141200000Y-66800000D01*
X87000000Y-79600000D02*
X87000000Y-84500000D01*
X87000000Y-79600000D02*
X80800000Y-79600000D01*
X87000000Y-66800000D02*
X80800000Y-66800000D01*
D16*
X111000000Y-62000000D02*
X111000000Y-84500000D01*
D17*
X120920000Y-74640000D02*
G75*
G03X120920000Y-74640000I-200000J0D01*
G01*
X120920000Y-73560000D02*
G75*
G03X120920000Y-73560000I-200000J0D01*
G01*
X120920000Y-72480000D02*
G75*
G03X120920000Y-72480000I-200000J0D01*
G01*
X120920000Y-77880000D02*
G75*
G03X120920000Y-77880000I-200000J0D01*
G01*
X120920000Y-76800000D02*
G75*
G03X120920000Y-76800000I-200000J0D01*
G01*
X120920000Y-75720000D02*
G75*
G03X120920000Y-75720000I-200000J0D01*
G01*
D14*
X87000000Y-61900000D02*
X87000000Y-66800000D01*
X141200000Y-61900000D02*
X87000000Y-61900000D01*
X141200000Y-84500000D02*
X141200000Y-79600000D01*
X87000000Y-84500000D02*
X141200000Y-84500000D01*
D18*
G36*
X129820855Y-68476191D02*
G01*
X129874441Y-68498268D01*
X129947976Y-68532463D01*
X129965360Y-68540965D01*
X130187161Y-68638797D01*
X130396783Y-68704906D01*
X130610881Y-68743644D01*
X130795416Y-68757806D01*
X130917833Y-68761717D01*
X131005762Y-68761412D01*
X131070796Y-68755722D01*
X131124528Y-68743478D01*
X131178553Y-68723513D01*
X131191887Y-68717857D01*
X131290018Y-68683206D01*
X131355917Y-68678571D01*
X131392638Y-68704179D01*
X131401811Y-68733264D01*
X131387604Y-68782755D01*
X131329619Y-68820001D01*
X131228651Y-68844844D01*
X131085495Y-68857125D01*
X130900944Y-68856685D01*
X130805819Y-68852363D01*
X130684256Y-68842570D01*
X130565409Y-68827953D01*
X130465220Y-68810726D01*
X130413273Y-68797852D01*
X130322120Y-68765416D01*
X130219734Y-68722453D01*
X130113755Y-68673024D01*
X130011826Y-68621193D01*
X129921587Y-68571021D01*
X129850682Y-68526570D01*
X129806751Y-68491903D01*
X129797436Y-68471083D01*
X129797809Y-68470676D01*
X129820855Y-68476191D01*
X129820855Y-68476191D01*
G37*
X129820855Y-68476191D02*
X129874441Y-68498268D01*
X129947976Y-68532463D01*
X129965360Y-68540965D01*
X130187161Y-68638797D01*
X130396783Y-68704906D01*
X130610881Y-68743644D01*
X130795416Y-68757806D01*
X130917833Y-68761717D01*
X131005762Y-68761412D01*
X131070796Y-68755722D01*
X131124528Y-68743478D01*
X131178553Y-68723513D01*
X131191887Y-68717857D01*
X131290018Y-68683206D01*
X131355917Y-68678571D01*
X131392638Y-68704179D01*
X131401811Y-68733264D01*
X131387604Y-68782755D01*
X131329619Y-68820001D01*
X131228651Y-68844844D01*
X131085495Y-68857125D01*
X130900944Y-68856685D01*
X130805819Y-68852363D01*
X130684256Y-68842570D01*
X130565409Y-68827953D01*
X130465220Y-68810726D01*
X130413273Y-68797852D01*
X130322120Y-68765416D01*
X130219734Y-68722453D01*
X130113755Y-68673024D01*
X130011826Y-68621193D01*
X129921587Y-68571021D01*
X129850682Y-68526570D01*
X129806751Y-68491903D01*
X129797436Y-68471083D01*
X129797809Y-68470676D01*
X129820855Y-68476191D01*
G36*
X135545631Y-67257615D02*
G01*
X135584033Y-67273262D01*
X135686675Y-67350829D01*
X135760857Y-67457485D01*
X135804403Y-67584346D01*
X135815134Y-67722527D01*
X135790876Y-67863145D01*
X135751872Y-67958344D01*
X135663945Y-68082748D01*
X135535489Y-68202083D01*
X135372111Y-68313365D01*
X135179415Y-68413609D01*
X134963009Y-68499833D01*
X134728499Y-68569052D01*
X134525159Y-68611277D01*
X134418469Y-68625607D01*
X134294810Y-68636427D01*
X134163768Y-68643571D01*
X134034932Y-68646873D01*
X133917891Y-68646167D01*
X133822231Y-68641287D01*
X133757543Y-68632066D01*
X133738364Y-68624909D01*
X133736735Y-68613085D01*
X133776815Y-68605671D01*
X133860494Y-68602389D01*
X133892557Y-68602172D01*
X134140127Y-68589856D01*
X134382853Y-68555356D01*
X134615130Y-68500952D01*
X134831356Y-68428923D01*
X135025927Y-68341548D01*
X135193240Y-68241106D01*
X135327692Y-68129877D01*
X135423680Y-68010140D01*
X135445278Y-67970564D01*
X135476166Y-67885493D01*
X135490893Y-67783994D01*
X135493273Y-67702811D01*
X135492112Y-67614609D01*
X135485072Y-67557217D01*
X135466817Y-67515266D01*
X135432014Y-67473387D01*
X135403626Y-67444556D01*
X135322578Y-67379353D01*
X135245790Y-67355795D01*
X135162641Y-67371806D01*
X135123356Y-67389785D01*
X135050243Y-67446603D01*
X135016010Y-67517848D01*
X135018280Y-67576003D01*
X135049794Y-67625412D01*
X135108076Y-67670288D01*
X135174452Y-67697886D01*
X135201841Y-67701273D01*
X135254868Y-67721019D01*
X135290798Y-67768025D01*
X135295739Y-67823940D01*
X135295453Y-67824933D01*
X135260290Y-67887213D01*
X135196356Y-67921802D01*
X135100634Y-67932182D01*
X135023542Y-67925855D01*
X134969710Y-67901322D01*
X134933998Y-67868682D01*
X134866736Y-67769005D01*
X134835428Y-67657959D01*
X134839731Y-67546134D01*
X134879302Y-67444124D01*
X134950317Y-67365133D01*
X135051470Y-67307568D01*
X135175479Y-67266018D01*
X135308444Y-67242499D01*
X135436462Y-67239026D01*
X135545631Y-67257615D01*
X135545631Y-67257615D01*
G37*
X135545631Y-67257615D02*
X135584033Y-67273262D01*
X135686675Y-67350829D01*
X135760857Y-67457485D01*
X135804403Y-67584346D01*
X135815134Y-67722527D01*
X135790876Y-67863145D01*
X135751872Y-67958344D01*
X135663945Y-68082748D01*
X135535489Y-68202083D01*
X135372111Y-68313365D01*
X135179415Y-68413609D01*
X134963009Y-68499833D01*
X134728499Y-68569052D01*
X134525159Y-68611277D01*
X134418469Y-68625607D01*
X134294810Y-68636427D01*
X134163768Y-68643571D01*
X134034932Y-68646873D01*
X133917891Y-68646167D01*
X133822231Y-68641287D01*
X133757543Y-68632066D01*
X133738364Y-68624909D01*
X133736735Y-68613085D01*
X133776815Y-68605671D01*
X133860494Y-68602389D01*
X133892557Y-68602172D01*
X134140127Y-68589856D01*
X134382853Y-68555356D01*
X134615130Y-68500952D01*
X134831356Y-68428923D01*
X135025927Y-68341548D01*
X135193240Y-68241106D01*
X135327692Y-68129877D01*
X135423680Y-68010140D01*
X135445278Y-67970564D01*
X135476166Y-67885493D01*
X135490893Y-67783994D01*
X135493273Y-67702811D01*
X135492112Y-67614609D01*
X135485072Y-67557217D01*
X135466817Y-67515266D01*
X135432014Y-67473387D01*
X135403626Y-67444556D01*
X135322578Y-67379353D01*
X135245790Y-67355795D01*
X135162641Y-67371806D01*
X135123356Y-67389785D01*
X135050243Y-67446603D01*
X135016010Y-67517848D01*
X135018280Y-67576003D01*
X135049794Y-67625412D01*
X135108076Y-67670288D01*
X135174452Y-67697886D01*
X135201841Y-67701273D01*
X135254868Y-67721019D01*
X135290798Y-67768025D01*
X135295739Y-67823940D01*
X135295453Y-67824933D01*
X135260290Y-67887213D01*
X135196356Y-67921802D01*
X135100634Y-67932182D01*
X135023542Y-67925855D01*
X134969710Y-67901322D01*
X134933998Y-67868682D01*
X134866736Y-67769005D01*
X134835428Y-67657959D01*
X134839731Y-67546134D01*
X134879302Y-67444124D01*
X134950317Y-67365133D01*
X135051470Y-67307568D01*
X135175479Y-67266018D01*
X135308444Y-67242499D01*
X135436462Y-67239026D01*
X135545631Y-67257615D01*
G36*
X134411101Y-62933124D02*
G01*
X134624119Y-63005767D01*
X134782497Y-63083689D01*
X134907098Y-63173469D01*
X135005494Y-63283619D01*
X135085259Y-63422650D01*
X135153963Y-63599074D01*
X135155168Y-63602715D01*
X135204783Y-63813133D01*
X135210221Y-64010097D01*
X135171462Y-64193670D01*
X135088487Y-64363917D01*
X134961280Y-64520901D01*
X134859251Y-64612351D01*
X134764263Y-64681530D01*
X134664557Y-64737652D01*
X134550276Y-64784645D01*
X134411564Y-64826437D01*
X134238566Y-64866955D01*
X134200182Y-64875004D01*
X133971732Y-64910941D01*
X133732134Y-64928600D01*
X133497426Y-64927609D01*
X133283649Y-64907594D01*
X133225112Y-64897655D01*
X133073345Y-64863615D01*
X132896040Y-64815665D01*
X132702554Y-64757067D01*
X132502241Y-64691080D01*
X132304456Y-64620967D01*
X132118556Y-64549989D01*
X131953894Y-64481405D01*
X131819826Y-64418478D01*
X131764091Y-64388373D01*
X131657587Y-64329419D01*
X131520838Y-64257688D01*
X131362691Y-64177456D01*
X131191992Y-64093004D01*
X131017586Y-64008610D01*
X130848320Y-63928553D01*
X130693041Y-63857113D01*
X130560594Y-63798568D01*
X130459825Y-63757198D01*
X130457102Y-63756160D01*
X130125102Y-63638260D01*
X129796316Y-63537407D01*
X129478458Y-63455478D01*
X129179242Y-63394348D01*
X128906379Y-63355895D01*
X128766712Y-63344900D01*
X128581021Y-63341293D01*
X128371496Y-63347249D01*
X128153346Y-63361608D01*
X127941780Y-63383209D01*
X127752008Y-63410893D01*
X127656319Y-63429633D01*
X127545434Y-63459267D01*
X127423104Y-63500449D01*
X127295773Y-63549996D01*
X127169887Y-63604725D01*
X127051891Y-63661454D01*
X126948231Y-63717001D01*
X126865352Y-63768181D01*
X126809700Y-63811813D01*
X126787720Y-63844713D01*
X126791760Y-63856547D01*
X126819103Y-63856846D01*
X126879128Y-63844714D01*
X126960786Y-63822571D01*
X126995483Y-63811942D01*
X127282298Y-63737240D01*
X127564029Y-63694701D01*
X127833130Y-63684835D01*
X128082053Y-63708153D01*
X128191436Y-63731100D01*
X128431516Y-63800429D01*
X128655779Y-63884610D01*
X128873945Y-63988527D01*
X129095734Y-64117060D01*
X129330867Y-64275093D01*
X129455641Y-64366075D01*
X129701904Y-64565959D01*
X129921099Y-64780435D01*
X130122389Y-65019530D01*
X130314938Y-65293269D01*
X130343114Y-65337121D01*
X130422673Y-65460805D01*
X130502019Y-65581554D01*
X130574517Y-65689452D01*
X130633531Y-65774581D01*
X130661668Y-65813207D01*
X130794624Y-65959093D01*
X130949490Y-66071442D01*
X131130805Y-66152466D01*
X131343107Y-66204379D01*
X131504168Y-66223912D01*
X131618370Y-66232379D01*
X131698369Y-66235198D01*
X131755900Y-66231461D01*
X131802699Y-66220263D01*
X131850500Y-66200698D01*
X131859582Y-66196469D01*
X131952889Y-66141742D01*
X132049566Y-66067351D01*
X132136781Y-65984812D01*
X132201703Y-65905642D01*
X132221422Y-65871712D01*
X132268400Y-65732644D01*
X132292953Y-65569745D01*
X132293119Y-65400582D01*
X132283250Y-65317965D01*
X132264476Y-65221436D01*
X132242346Y-65131489D01*
X132222126Y-65068909D01*
X132168799Y-64977635D01*
X132090343Y-64887106D01*
X132003842Y-64816103D01*
X131978829Y-64801394D01*
X131880895Y-64772634D01*
X131769947Y-64774177D01*
X131666941Y-64805043D01*
X131645297Y-64816973D01*
X131580526Y-64864834D01*
X131541795Y-64919317D01*
X131517972Y-64997889D01*
X131512757Y-65024912D01*
X131514387Y-65115938D01*
X131554725Y-65182997D01*
X131631680Y-65223753D01*
X131701087Y-65235082D01*
X131771115Y-65243757D01*
X131806686Y-65261435D01*
X131818349Y-65286747D01*
X131808281Y-65334976D01*
X131785280Y-65361792D01*
X131731699Y-65381311D01*
X131648873Y-65390735D01*
X131552570Y-65390293D01*
X131458557Y-65380214D01*
X131382603Y-65360729D01*
X131371047Y-65355761D01*
X131295491Y-65296086D01*
X131243361Y-65206424D01*
X131222101Y-65100115D01*
X131221962Y-65088510D01*
X131236569Y-64997388D01*
X131273608Y-64902481D01*
X131324544Y-64821755D01*
X131368434Y-64780188D01*
X131472163Y-64731626D01*
X131607975Y-64695943D01*
X131763373Y-64673974D01*
X131925858Y-64666550D01*
X132082930Y-64674505D01*
X132222092Y-64698673D01*
X132286068Y-64719021D01*
X132469822Y-64807761D01*
X132611197Y-64914427D01*
X132710737Y-65039895D01*
X132768982Y-65185046D01*
X132786476Y-65350757D01*
X132770544Y-65503950D01*
X132727986Y-65677027D01*
X132666212Y-65821014D01*
X132578874Y-65944565D01*
X132459622Y-66056329D01*
X132302107Y-66164959D01*
X132272091Y-66183127D01*
X132062757Y-66283110D01*
X131827298Y-66351976D01*
X131574560Y-66388769D01*
X131313388Y-66392536D01*
X131052629Y-66362322D01*
X130909728Y-66330108D01*
X130671907Y-66252790D01*
X130433186Y-66150520D01*
X130215024Y-66032697D01*
X130178809Y-66010059D01*
X130070379Y-65930536D01*
X129941025Y-65818924D01*
X129796371Y-65680923D01*
X129642040Y-65522232D01*
X129483656Y-65348550D01*
X129326843Y-65165578D01*
X129238764Y-65057364D01*
X129054726Y-64833326D01*
X128877359Y-64630502D01*
X128710339Y-64452682D01*
X128557341Y-64303656D01*
X128422039Y-64187214D01*
X128331517Y-64121682D01*
X128236305Y-64067704D01*
X128120627Y-64012821D01*
X128008540Y-63968389D01*
X128002084Y-63966179D01*
X127931286Y-63943127D01*
X127869618Y-63926500D01*
X127807381Y-63915273D01*
X127734876Y-63908420D01*
X127642407Y-63904916D01*
X127520273Y-63903735D01*
X127411455Y-63903744D01*
X127242346Y-63905331D01*
X127113283Y-63909703D01*
X127018189Y-63917286D01*
X126950989Y-63928506D01*
X126918535Y-63938273D01*
X126863511Y-63964405D01*
X126833258Y-63988890D01*
X126831160Y-63995182D01*
X126852884Y-64009978D01*
X126907942Y-64025297D01*
X126972477Y-64036118D01*
X127092679Y-64059973D01*
X127238231Y-64101888D01*
X127394574Y-64156691D01*
X127547147Y-64219207D01*
X127681387Y-64284263D01*
X127700677Y-64294834D01*
X127897527Y-64418836D01*
X128105959Y-64575127D01*
X128316056Y-64755125D01*
X128517897Y-64950247D01*
X128701564Y-65151911D01*
X128728728Y-65184364D01*
X128944760Y-65449943D01*
X129142069Y-65700933D01*
X129317771Y-65933454D01*
X129468980Y-66143622D01*
X129592811Y-66327557D01*
X129664134Y-66442818D01*
X129770666Y-66621921D01*
X129860677Y-66768735D01*
X129939824Y-66891479D01*
X130013763Y-66998373D01*
X130088148Y-67097637D01*
X130168635Y-67197492D01*
X130247300Y-67290401D01*
X130411260Y-67474112D01*
X130559415Y-67623611D01*
X130699263Y-67744559D01*
X130838302Y-67842616D01*
X130984030Y-67923443D01*
X131143944Y-67992701D01*
X131209909Y-68017133D01*
X131319257Y-68048014D01*
X131463131Y-68076720D01*
X131632279Y-68102479D01*
X131817451Y-68124524D01*
X132009393Y-68142083D01*
X132198855Y-68154389D01*
X132376585Y-68160671D01*
X132533331Y-68160159D01*
X132659843Y-68152085D01*
X132720002Y-68142737D01*
X132879321Y-68093598D01*
X133065173Y-68009446D01*
X133275361Y-67891428D01*
X133507691Y-67740691D01*
X133561241Y-67703474D01*
X133726006Y-67584659D01*
X133860459Y-67479515D01*
X133974357Y-67378752D01*
X134077459Y-67273083D01*
X134179523Y-67153218D01*
X134290306Y-67009870D01*
X134291297Y-67008546D01*
X134386604Y-66873299D01*
X134452809Y-66757039D01*
X134494574Y-66647241D01*
X134516558Y-66531380D01*
X134523420Y-66396931D01*
X134523455Y-66384515D01*
X134501464Y-66168250D01*
X134435508Y-65966106D01*
X134362986Y-65832728D01*
X134283843Y-65734177D01*
X134190818Y-65671048D01*
X134072527Y-65636839D01*
X134006305Y-65629008D01*
X133923764Y-65624620D01*
X133869835Y-65630528D01*
X133827390Y-65650650D01*
X133792135Y-65677976D01*
X133714759Y-65771574D01*
X133660748Y-65903108D01*
X133635783Y-66023279D01*
X133629199Y-66100324D01*
X133640043Y-66155619D01*
X133669947Y-66208006D01*
X133743320Y-66293878D01*
X133827945Y-66361071D01*
X133911473Y-66400953D01*
X133956308Y-66408182D01*
X134033668Y-66395467D01*
X134090359Y-66362351D01*
X134116031Y-66316371D01*
X134114554Y-66292900D01*
X134088871Y-66254578D01*
X134051742Y-66248919D01*
X134027000Y-66269636D01*
X133999557Y-66293028D01*
X133978058Y-66275749D01*
X133969274Y-66223304D01*
X133969273Y-66222711D01*
X133980926Y-66164053D01*
X134020366Y-66133793D01*
X134097194Y-66124758D01*
X134161616Y-66152791D01*
X134210317Y-66209683D01*
X134239980Y-66287224D01*
X134247289Y-66377204D01*
X134228928Y-66471412D01*
X134188963Y-66551208D01*
X134146670Y-66603600D01*
X134097864Y-66635567D01*
X134024873Y-66657631D01*
X134001901Y-66662599D01*
X133851328Y-66685662D01*
X133723525Y-66684644D01*
X133601329Y-66658659D01*
X133544843Y-66639061D01*
X133385376Y-66556745D01*
X133260651Y-66446068D01*
X133172935Y-66310197D01*
X133124492Y-66152301D01*
X133115135Y-66038092D01*
X133117819Y-65953388D01*
X133130030Y-65887002D01*
X133157567Y-65826948D01*
X133206227Y-65761239D01*
X133281810Y-65677890D01*
X133297248Y-65661635D01*
X133414442Y-65555623D01*
X133536686Y-65482545D01*
X133672574Y-65439826D01*
X133830698Y-65424892D01*
X134019653Y-65435166D01*
X134043978Y-65437875D01*
X134229752Y-65466601D01*
X134385025Y-65508308D01*
X134524809Y-65568146D01*
X134662071Y-65649897D01*
X134777023Y-65731776D01*
X134862657Y-65807868D01*
X134931519Y-65891881D01*
X134996157Y-65997525D01*
X135018839Y-66039738D01*
X135106709Y-66206954D01*
X135094633Y-66486522D01*
X135079857Y-66682804D01*
X135051579Y-66847350D01*
X135005798Y-66993619D01*
X134938517Y-67135067D01*
X134866708Y-67253517D01*
X134718350Y-67454542D01*
X134552550Y-67632943D01*
X134378178Y-67779832D01*
X134271380Y-67850168D01*
X133955411Y-68016376D01*
X133646866Y-68139702D01*
X133341057Y-68221830D01*
X133149546Y-68252948D01*
X133050144Y-68261443D01*
X132914240Y-68267817D01*
X132751467Y-68272055D01*
X132571454Y-68274141D01*
X132383835Y-68274061D01*
X132198242Y-68271800D01*
X132024305Y-68267343D01*
X131871656Y-68260675D01*
X131787182Y-68255051D01*
X131604978Y-68236729D01*
X131406657Y-68210144D01*
X131200016Y-68176918D01*
X130992849Y-68138669D01*
X130792953Y-68097020D01*
X130608123Y-68053590D01*
X130446156Y-68010001D01*
X130314848Y-67967872D01*
X130224781Y-67930261D01*
X130149816Y-67888233D01*
X130047724Y-67825827D01*
X129928743Y-67749812D01*
X129803108Y-67666955D01*
X129681056Y-67584024D01*
X129572822Y-67507786D01*
X129488644Y-67445009D01*
X129477613Y-67436283D01*
X129308242Y-67292122D01*
X129155914Y-67142686D01*
X129016986Y-66982451D01*
X128887812Y-66805895D01*
X128764748Y-66607495D01*
X128644148Y-66381726D01*
X128522370Y-66123068D01*
X128395767Y-65825995D01*
X128365015Y-65750245D01*
X128310364Y-65617454D01*
X128255616Y-65489573D01*
X128205421Y-65377104D01*
X128164426Y-65290552D01*
X128145439Y-65254100D01*
X127980548Y-65000874D01*
X127781481Y-64771818D01*
X127544559Y-64563080D01*
X127357337Y-64429050D01*
X127207815Y-64335124D01*
X127081221Y-64268418D01*
X126966439Y-64224948D01*
X126852353Y-64200728D01*
X126727847Y-64191775D01*
X126694437Y-64191455D01*
X126599873Y-64192609D01*
X126538342Y-64198395D01*
X126496712Y-64212293D01*
X126461849Y-64237787D01*
X126439860Y-64258951D01*
X126385253Y-64339763D01*
X126374371Y-64425394D01*
X126408046Y-64509212D01*
X126408367Y-64509671D01*
X126442757Y-64544671D01*
X126479147Y-64542112D01*
X126487667Y-64537899D01*
X126564942Y-64515835D01*
X126630096Y-64535726D01*
X126659691Y-64566047D01*
X126692289Y-64637397D01*
X126681289Y-64703966D01*
X126653053Y-64746927D01*
X126613527Y-64781424D01*
X126557987Y-64796884D01*
X126499349Y-64799515D01*
X126425057Y-64794851D01*
X126374456Y-64774565D01*
X126325470Y-64729219D01*
X126319527Y-64722626D01*
X126285272Y-64681842D01*
X126265736Y-64645739D01*
X126257947Y-64600634D01*
X126258930Y-64532841D01*
X126263292Y-64463871D01*
X126272273Y-64365625D01*
X126287460Y-64293333D01*
X126315442Y-64227338D01*
X126362805Y-64147987D01*
X126376015Y-64127500D01*
X126443013Y-64034791D01*
X126527944Y-63931749D01*
X126614055Y-63838528D01*
X126626364Y-63826319D01*
X126813054Y-63657289D01*
X127001313Y-63516145D01*
X127198515Y-63399571D01*
X127412038Y-63304249D01*
X127649255Y-63226863D01*
X127917543Y-63164096D01*
X128208091Y-63114961D01*
X128385129Y-63095352D01*
X128598415Y-63081674D01*
X128838405Y-63073874D01*
X129095556Y-63071898D01*
X129360322Y-63075691D01*
X129623160Y-63085199D01*
X129874526Y-63100367D01*
X130104876Y-63121143D01*
X130147728Y-63125983D01*
X130400881Y-63157360D01*
X130616485Y-63188465D01*
X130803108Y-63221463D01*
X130969320Y-63258518D01*
X131123687Y-63301794D01*
X131274780Y-63353455D01*
X131431167Y-63415665D01*
X131601415Y-63490590D01*
X131614000Y-63496333D01*
X131762110Y-63566728D01*
X131904297Y-63640516D01*
X132048486Y-63722449D01*
X132202601Y-63817283D01*
X132374567Y-63929771D01*
X132572307Y-64064668D01*
X132641546Y-64112803D01*
X132812342Y-64231689D01*
X132951423Y-64327642D01*
X133064736Y-64404457D01*
X133158229Y-64465925D01*
X133237850Y-64515839D01*
X133309547Y-64557992D01*
X133379267Y-64596177D01*
X133452959Y-64634187D01*
X133482143Y-64648826D01*
X133581420Y-64697464D01*
X133654643Y-64728821D01*
X133716850Y-64746684D01*
X133783081Y-64754845D01*
X133868375Y-64757091D01*
X133912203Y-64757182D01*
X134013667Y-64756380D01*
X134083260Y-64751507D01*
X134135289Y-64738858D01*
X134184066Y-64714732D01*
X134243897Y-64675424D01*
X134253419Y-64668879D01*
X134394886Y-64544009D01*
X134506366Y-64386893D01*
X134584296Y-64203156D01*
X134608651Y-64107597D01*
X134631613Y-63902685D01*
X134620717Y-63692895D01*
X134578210Y-63489426D01*
X134506337Y-63303476D01*
X134418753Y-63160817D01*
X134343585Y-63095054D01*
X134235750Y-63043006D01*
X134107325Y-63006969D01*
X133970391Y-62989240D01*
X133837027Y-62992114D01*
X133719313Y-63017888D01*
X133702033Y-63024584D01*
X133623654Y-63080358D01*
X133569753Y-63164586D01*
X133542343Y-63265371D01*
X133543438Y-63370817D01*
X133575053Y-63469026D01*
X133616877Y-63527573D01*
X133667200Y-63575216D01*
X133697424Y-63587620D01*
X133715435Y-63566279D01*
X133721323Y-63547359D01*
X133752996Y-63506982D01*
X133811395Y-63486002D01*
X133880121Y-63487291D01*
X133936886Y-63509623D01*
X133976790Y-63545943D01*
X133989348Y-63594711D01*
X133987902Y-63632149D01*
X133959946Y-63716636D01*
X133894278Y-63777724D01*
X133794169Y-63813295D01*
X133694540Y-63821964D01*
X133552042Y-63806165D01*
X133442611Y-63758299D01*
X133365291Y-63677530D01*
X133319130Y-63563022D01*
X133306350Y-63481861D01*
X133302237Y-63390239D01*
X133312512Y-63320059D01*
X133341118Y-63247780D01*
X133347868Y-63234030D01*
X133410385Y-63136502D01*
X133492913Y-63045054D01*
X133581803Y-62973276D01*
X133641435Y-62941654D01*
X133692199Y-62928545D01*
X133774426Y-62914020D01*
X133873560Y-62900512D01*
X133915273Y-62895879D01*
X134165265Y-62892007D01*
X134411101Y-62933124D01*
X134411101Y-62933124D01*
G37*
X134411101Y-62933124D02*
X134624119Y-63005767D01*
X134782497Y-63083689D01*
X134907098Y-63173469D01*
X135005494Y-63283619D01*
X135085259Y-63422650D01*
X135153963Y-63599074D01*
X135155168Y-63602715D01*
X135204783Y-63813133D01*
X135210221Y-64010097D01*
X135171462Y-64193670D01*
X135088487Y-64363917D01*
X134961280Y-64520901D01*
X134859251Y-64612351D01*
X134764263Y-64681530D01*
X134664557Y-64737652D01*
X134550276Y-64784645D01*
X134411564Y-64826437D01*
X134238566Y-64866955D01*
X134200182Y-64875004D01*
X133971732Y-64910941D01*
X133732134Y-64928600D01*
X133497426Y-64927609D01*
X133283649Y-64907594D01*
X133225112Y-64897655D01*
X133073345Y-64863615D01*
X132896040Y-64815665D01*
X132702554Y-64757067D01*
X132502241Y-64691080D01*
X132304456Y-64620967D01*
X132118556Y-64549989D01*
X131953894Y-64481405D01*
X131819826Y-64418478D01*
X131764091Y-64388373D01*
X131657587Y-64329419D01*
X131520838Y-64257688D01*
X131362691Y-64177456D01*
X131191992Y-64093004D01*
X131017586Y-64008610D01*
X130848320Y-63928553D01*
X130693041Y-63857113D01*
X130560594Y-63798568D01*
X130459825Y-63757198D01*
X130457102Y-63756160D01*
X130125102Y-63638260D01*
X129796316Y-63537407D01*
X129478458Y-63455478D01*
X129179242Y-63394348D01*
X128906379Y-63355895D01*
X128766712Y-63344900D01*
X128581021Y-63341293D01*
X128371496Y-63347249D01*
X128153346Y-63361608D01*
X127941780Y-63383209D01*
X127752008Y-63410893D01*
X127656319Y-63429633D01*
X127545434Y-63459267D01*
X127423104Y-63500449D01*
X127295773Y-63549996D01*
X127169887Y-63604725D01*
X127051891Y-63661454D01*
X126948231Y-63717001D01*
X126865352Y-63768181D01*
X126809700Y-63811813D01*
X126787720Y-63844713D01*
X126791760Y-63856547D01*
X126819103Y-63856846D01*
X126879128Y-63844714D01*
X126960786Y-63822571D01*
X126995483Y-63811942D01*
X127282298Y-63737240D01*
X127564029Y-63694701D01*
X127833130Y-63684835D01*
X128082053Y-63708153D01*
X128191436Y-63731100D01*
X128431516Y-63800429D01*
X128655779Y-63884610D01*
X128873945Y-63988527D01*
X129095734Y-64117060D01*
X129330867Y-64275093D01*
X129455641Y-64366075D01*
X129701904Y-64565959D01*
X129921099Y-64780435D01*
X130122389Y-65019530D01*
X130314938Y-65293269D01*
X130343114Y-65337121D01*
X130422673Y-65460805D01*
X130502019Y-65581554D01*
X130574517Y-65689452D01*
X130633531Y-65774581D01*
X130661668Y-65813207D01*
X130794624Y-65959093D01*
X130949490Y-66071442D01*
X131130805Y-66152466D01*
X131343107Y-66204379D01*
X131504168Y-66223912D01*
X131618370Y-66232379D01*
X131698369Y-66235198D01*
X131755900Y-66231461D01*
X131802699Y-66220263D01*
X131850500Y-66200698D01*
X131859582Y-66196469D01*
X131952889Y-66141742D01*
X132049566Y-66067351D01*
X132136781Y-65984812D01*
X132201703Y-65905642D01*
X132221422Y-65871712D01*
X132268400Y-65732644D01*
X132292953Y-65569745D01*
X132293119Y-65400582D01*
X132283250Y-65317965D01*
X132264476Y-65221436D01*
X132242346Y-65131489D01*
X132222126Y-65068909D01*
X132168799Y-64977635D01*
X132090343Y-64887106D01*
X132003842Y-64816103D01*
X131978829Y-64801394D01*
X131880895Y-64772634D01*
X131769947Y-64774177D01*
X131666941Y-64805043D01*
X131645297Y-64816973D01*
X131580526Y-64864834D01*
X131541795Y-64919317D01*
X131517972Y-64997889D01*
X131512757Y-65024912D01*
X131514387Y-65115938D01*
X131554725Y-65182997D01*
X131631680Y-65223753D01*
X131701087Y-65235082D01*
X131771115Y-65243757D01*
X131806686Y-65261435D01*
X131818349Y-65286747D01*
X131808281Y-65334976D01*
X131785280Y-65361792D01*
X131731699Y-65381311D01*
X131648873Y-65390735D01*
X131552570Y-65390293D01*
X131458557Y-65380214D01*
X131382603Y-65360729D01*
X131371047Y-65355761D01*
X131295491Y-65296086D01*
X131243361Y-65206424D01*
X131222101Y-65100115D01*
X131221962Y-65088510D01*
X131236569Y-64997388D01*
X131273608Y-64902481D01*
X131324544Y-64821755D01*
X131368434Y-64780188D01*
X131472163Y-64731626D01*
X131607975Y-64695943D01*
X131763373Y-64673974D01*
X131925858Y-64666550D01*
X132082930Y-64674505D01*
X132222092Y-64698673D01*
X132286068Y-64719021D01*
X132469822Y-64807761D01*
X132611197Y-64914427D01*
X132710737Y-65039895D01*
X132768982Y-65185046D01*
X132786476Y-65350757D01*
X132770544Y-65503950D01*
X132727986Y-65677027D01*
X132666212Y-65821014D01*
X132578874Y-65944565D01*
X132459622Y-66056329D01*
X132302107Y-66164959D01*
X132272091Y-66183127D01*
X132062757Y-66283110D01*
X131827298Y-66351976D01*
X131574560Y-66388769D01*
X131313388Y-66392536D01*
X131052629Y-66362322D01*
X130909728Y-66330108D01*
X130671907Y-66252790D01*
X130433186Y-66150520D01*
X130215024Y-66032697D01*
X130178809Y-66010059D01*
X130070379Y-65930536D01*
X129941025Y-65818924D01*
X129796371Y-65680923D01*
X129642040Y-65522232D01*
X129483656Y-65348550D01*
X129326843Y-65165578D01*
X129238764Y-65057364D01*
X129054726Y-64833326D01*
X128877359Y-64630502D01*
X128710339Y-64452682D01*
X128557341Y-64303656D01*
X128422039Y-64187214D01*
X128331517Y-64121682D01*
X128236305Y-64067704D01*
X128120627Y-64012821D01*
X128008540Y-63968389D01*
X128002084Y-63966179D01*
X127931286Y-63943127D01*
X127869618Y-63926500D01*
X127807381Y-63915273D01*
X127734876Y-63908420D01*
X127642407Y-63904916D01*
X127520273Y-63903735D01*
X127411455Y-63903744D01*
X127242346Y-63905331D01*
X127113283Y-63909703D01*
X127018189Y-63917286D01*
X126950989Y-63928506D01*
X126918535Y-63938273D01*
X126863511Y-63964405D01*
X126833258Y-63988890D01*
X126831160Y-63995182D01*
X126852884Y-64009978D01*
X126907942Y-64025297D01*
X126972477Y-64036118D01*
X127092679Y-64059973D01*
X127238231Y-64101888D01*
X127394574Y-64156691D01*
X127547147Y-64219207D01*
X127681387Y-64284263D01*
X127700677Y-64294834D01*
X127897527Y-64418836D01*
X128105959Y-64575127D01*
X128316056Y-64755125D01*
X128517897Y-64950247D01*
X128701564Y-65151911D01*
X128728728Y-65184364D01*
X128944760Y-65449943D01*
X129142069Y-65700933D01*
X129317771Y-65933454D01*
X129468980Y-66143622D01*
X129592811Y-66327557D01*
X129664134Y-66442818D01*
X129770666Y-66621921D01*
X129860677Y-66768735D01*
X129939824Y-66891479D01*
X130013763Y-66998373D01*
X130088148Y-67097637D01*
X130168635Y-67197492D01*
X130247300Y-67290401D01*
X130411260Y-67474112D01*
X130559415Y-67623611D01*
X130699263Y-67744559D01*
X130838302Y-67842616D01*
X130984030Y-67923443D01*
X131143944Y-67992701D01*
X131209909Y-68017133D01*
X131319257Y-68048014D01*
X131463131Y-68076720D01*
X131632279Y-68102479D01*
X131817451Y-68124524D01*
X132009393Y-68142083D01*
X132198855Y-68154389D01*
X132376585Y-68160671D01*
X132533331Y-68160159D01*
X132659843Y-68152085D01*
X132720002Y-68142737D01*
X132879321Y-68093598D01*
X133065173Y-68009446D01*
X133275361Y-67891428D01*
X133507691Y-67740691D01*
X133561241Y-67703474D01*
X133726006Y-67584659D01*
X133860459Y-67479515D01*
X133974357Y-67378752D01*
X134077459Y-67273083D01*
X134179523Y-67153218D01*
X134290306Y-67009870D01*
X134291297Y-67008546D01*
X134386604Y-66873299D01*
X134452809Y-66757039D01*
X134494574Y-66647241D01*
X134516558Y-66531380D01*
X134523420Y-66396931D01*
X134523455Y-66384515D01*
X134501464Y-66168250D01*
X134435508Y-65966106D01*
X134362986Y-65832728D01*
X134283843Y-65734177D01*
X134190818Y-65671048D01*
X134072527Y-65636839D01*
X134006305Y-65629008D01*
X133923764Y-65624620D01*
X133869835Y-65630528D01*
X133827390Y-65650650D01*
X133792135Y-65677976D01*
X133714759Y-65771574D01*
X133660748Y-65903108D01*
X133635783Y-66023279D01*
X133629199Y-66100324D01*
X133640043Y-66155619D01*
X133669947Y-66208006D01*
X133743320Y-66293878D01*
X133827945Y-66361071D01*
X133911473Y-66400953D01*
X133956308Y-66408182D01*
X134033668Y-66395467D01*
X134090359Y-66362351D01*
X134116031Y-66316371D01*
X134114554Y-66292900D01*
X134088871Y-66254578D01*
X134051742Y-66248919D01*
X134027000Y-66269636D01*
X133999557Y-66293028D01*
X133978058Y-66275749D01*
X133969274Y-66223304D01*
X133969273Y-66222711D01*
X133980926Y-66164053D01*
X134020366Y-66133793D01*
X134097194Y-66124758D01*
X134161616Y-66152791D01*
X134210317Y-66209683D01*
X134239980Y-66287224D01*
X134247289Y-66377204D01*
X134228928Y-66471412D01*
X134188963Y-66551208D01*
X134146670Y-66603600D01*
X134097864Y-66635567D01*
X134024873Y-66657631D01*
X134001901Y-66662599D01*
X133851328Y-66685662D01*
X133723525Y-66684644D01*
X133601329Y-66658659D01*
X133544843Y-66639061D01*
X133385376Y-66556745D01*
X133260651Y-66446068D01*
X133172935Y-66310197D01*
X133124492Y-66152301D01*
X133115135Y-66038092D01*
X133117819Y-65953388D01*
X133130030Y-65887002D01*
X133157567Y-65826948D01*
X133206227Y-65761239D01*
X133281810Y-65677890D01*
X133297248Y-65661635D01*
X133414442Y-65555623D01*
X133536686Y-65482545D01*
X133672574Y-65439826D01*
X133830698Y-65424892D01*
X134019653Y-65435166D01*
X134043978Y-65437875D01*
X134229752Y-65466601D01*
X134385025Y-65508308D01*
X134524809Y-65568146D01*
X134662071Y-65649897D01*
X134777023Y-65731776D01*
X134862657Y-65807868D01*
X134931519Y-65891881D01*
X134996157Y-65997525D01*
X135018839Y-66039738D01*
X135106709Y-66206954D01*
X135094633Y-66486522D01*
X135079857Y-66682804D01*
X135051579Y-66847350D01*
X135005798Y-66993619D01*
X134938517Y-67135067D01*
X134866708Y-67253517D01*
X134718350Y-67454542D01*
X134552550Y-67632943D01*
X134378178Y-67779832D01*
X134271380Y-67850168D01*
X133955411Y-68016376D01*
X133646866Y-68139702D01*
X133341057Y-68221830D01*
X133149546Y-68252948D01*
X133050144Y-68261443D01*
X132914240Y-68267817D01*
X132751467Y-68272055D01*
X132571454Y-68274141D01*
X132383835Y-68274061D01*
X132198242Y-68271800D01*
X132024305Y-68267343D01*
X131871656Y-68260675D01*
X131787182Y-68255051D01*
X131604978Y-68236729D01*
X131406657Y-68210144D01*
X131200016Y-68176918D01*
X130992849Y-68138669D01*
X130792953Y-68097020D01*
X130608123Y-68053590D01*
X130446156Y-68010001D01*
X130314848Y-67967872D01*
X130224781Y-67930261D01*
X130149816Y-67888233D01*
X130047724Y-67825827D01*
X129928743Y-67749812D01*
X129803108Y-67666955D01*
X129681056Y-67584024D01*
X129572822Y-67507786D01*
X129488644Y-67445009D01*
X129477613Y-67436283D01*
X129308242Y-67292122D01*
X129155914Y-67142686D01*
X129016986Y-66982451D01*
X128887812Y-66805895D01*
X128764748Y-66607495D01*
X128644148Y-66381726D01*
X128522370Y-66123068D01*
X128395767Y-65825995D01*
X128365015Y-65750245D01*
X128310364Y-65617454D01*
X128255616Y-65489573D01*
X128205421Y-65377104D01*
X128164426Y-65290552D01*
X128145439Y-65254100D01*
X127980548Y-65000874D01*
X127781481Y-64771818D01*
X127544559Y-64563080D01*
X127357337Y-64429050D01*
X127207815Y-64335124D01*
X127081221Y-64268418D01*
X126966439Y-64224948D01*
X126852353Y-64200728D01*
X126727847Y-64191775D01*
X126694437Y-64191455D01*
X126599873Y-64192609D01*
X126538342Y-64198395D01*
X126496712Y-64212293D01*
X126461849Y-64237787D01*
X126439860Y-64258951D01*
X126385253Y-64339763D01*
X126374371Y-64425394D01*
X126408046Y-64509212D01*
X126408367Y-64509671D01*
X126442757Y-64544671D01*
X126479147Y-64542112D01*
X126487667Y-64537899D01*
X126564942Y-64515835D01*
X126630096Y-64535726D01*
X126659691Y-64566047D01*
X126692289Y-64637397D01*
X126681289Y-64703966D01*
X126653053Y-64746927D01*
X126613527Y-64781424D01*
X126557987Y-64796884D01*
X126499349Y-64799515D01*
X126425057Y-64794851D01*
X126374456Y-64774565D01*
X126325470Y-64729219D01*
X126319527Y-64722626D01*
X126285272Y-64681842D01*
X126265736Y-64645739D01*
X126257947Y-64600634D01*
X126258930Y-64532841D01*
X126263292Y-64463871D01*
X126272273Y-64365625D01*
X126287460Y-64293333D01*
X126315442Y-64227338D01*
X126362805Y-64147987D01*
X126376015Y-64127500D01*
X126443013Y-64034791D01*
X126527944Y-63931749D01*
X126614055Y-63838528D01*
X126626364Y-63826319D01*
X126813054Y-63657289D01*
X127001313Y-63516145D01*
X127198515Y-63399571D01*
X127412038Y-63304249D01*
X127649255Y-63226863D01*
X127917543Y-63164096D01*
X128208091Y-63114961D01*
X128385129Y-63095352D01*
X128598415Y-63081674D01*
X128838405Y-63073874D01*
X129095556Y-63071898D01*
X129360322Y-63075691D01*
X129623160Y-63085199D01*
X129874526Y-63100367D01*
X130104876Y-63121143D01*
X130147728Y-63125983D01*
X130400881Y-63157360D01*
X130616485Y-63188465D01*
X130803108Y-63221463D01*
X130969320Y-63258518D01*
X131123687Y-63301794D01*
X131274780Y-63353455D01*
X131431167Y-63415665D01*
X131601415Y-63490590D01*
X131614000Y-63496333D01*
X131762110Y-63566728D01*
X131904297Y-63640516D01*
X132048486Y-63722449D01*
X132202601Y-63817283D01*
X132374567Y-63929771D01*
X132572307Y-64064668D01*
X132641546Y-64112803D01*
X132812342Y-64231689D01*
X132951423Y-64327642D01*
X133064736Y-64404457D01*
X133158229Y-64465925D01*
X133237850Y-64515839D01*
X133309547Y-64557992D01*
X133379267Y-64596177D01*
X133452959Y-64634187D01*
X133482143Y-64648826D01*
X133581420Y-64697464D01*
X133654643Y-64728821D01*
X133716850Y-64746684D01*
X133783081Y-64754845D01*
X133868375Y-64757091D01*
X133912203Y-64757182D01*
X134013667Y-64756380D01*
X134083260Y-64751507D01*
X134135289Y-64738858D01*
X134184066Y-64714732D01*
X134243897Y-64675424D01*
X134253419Y-64668879D01*
X134394886Y-64544009D01*
X134506366Y-64386893D01*
X134584296Y-64203156D01*
X134608651Y-64107597D01*
X134631613Y-63902685D01*
X134620717Y-63692895D01*
X134578210Y-63489426D01*
X134506337Y-63303476D01*
X134418753Y-63160817D01*
X134343585Y-63095054D01*
X134235750Y-63043006D01*
X134107325Y-63006969D01*
X133970391Y-62989240D01*
X133837027Y-62992114D01*
X133719313Y-63017888D01*
X133702033Y-63024584D01*
X133623654Y-63080358D01*
X133569753Y-63164586D01*
X133542343Y-63265371D01*
X133543438Y-63370817D01*
X133575053Y-63469026D01*
X133616877Y-63527573D01*
X133667200Y-63575216D01*
X133697424Y-63587620D01*
X133715435Y-63566279D01*
X133721323Y-63547359D01*
X133752996Y-63506982D01*
X133811395Y-63486002D01*
X133880121Y-63487291D01*
X133936886Y-63509623D01*
X133976790Y-63545943D01*
X133989348Y-63594711D01*
X133987902Y-63632149D01*
X133959946Y-63716636D01*
X133894278Y-63777724D01*
X133794169Y-63813295D01*
X133694540Y-63821964D01*
X133552042Y-63806165D01*
X133442611Y-63758299D01*
X133365291Y-63677530D01*
X133319130Y-63563022D01*
X133306350Y-63481861D01*
X133302237Y-63390239D01*
X133312512Y-63320059D01*
X133341118Y-63247780D01*
X133347868Y-63234030D01*
X133410385Y-63136502D01*
X133492913Y-63045054D01*
X133581803Y-62973276D01*
X133641435Y-62941654D01*
X133692199Y-62928545D01*
X133774426Y-62914020D01*
X133873560Y-62900512D01*
X133915273Y-62895879D01*
X134165265Y-62892007D01*
X134411101Y-62933124D01*
G36*
X126917238Y-65153914D02*
G01*
X127017337Y-65175294D01*
X127116919Y-65203206D01*
X127194505Y-65231580D01*
X127282965Y-65282571D01*
X127383036Y-65360386D01*
X127481501Y-65452908D01*
X127565139Y-65548022D01*
X127608707Y-65611222D01*
X127651789Y-65692252D01*
X127701272Y-65799772D01*
X127758291Y-65936709D01*
X127823978Y-66105988D01*
X127899468Y-66310536D01*
X127985893Y-66553280D01*
X128084388Y-66837147D01*
X128091019Y-66856464D01*
X128151804Y-67031177D01*
X128210214Y-67194483D01*
X128264027Y-67340514D01*
X128311023Y-67463404D01*
X128348979Y-67557286D01*
X128375674Y-67616294D01*
X128384387Y-67631274D01*
X128472615Y-67722140D01*
X128579581Y-67788806D01*
X128693882Y-67826932D01*
X128804115Y-67832176D01*
X128868790Y-67815647D01*
X128928378Y-67800754D01*
X128964256Y-67808945D01*
X128969146Y-67833759D01*
X128935769Y-67868738D01*
X128931692Y-67871479D01*
X128842180Y-67907126D01*
X128722670Y-67920952D01*
X128584039Y-67912624D01*
X128452852Y-67886163D01*
X128287695Y-67830759D01*
X128149927Y-67757828D01*
X128031959Y-67660749D01*
X127926202Y-67532896D01*
X127825066Y-67367648D01*
X127796174Y-67313060D01*
X127754285Y-67229626D01*
X127719314Y-67153209D01*
X127689158Y-67076570D01*
X127661716Y-66992464D01*
X127634885Y-66893652D01*
X127606565Y-66772891D01*
X127574653Y-66622939D01*
X127537047Y-66436555D01*
X127526841Y-66385091D01*
X127482841Y-66166631D01*
X127444870Y-65988081D01*
X127411315Y-65843806D01*
X127380562Y-65728172D01*
X127350997Y-65635543D01*
X127321007Y-65560285D01*
X127288978Y-65496764D01*
X127257998Y-65446361D01*
X127155312Y-65325555D01*
X127028219Y-65239590D01*
X126869932Y-65183979D01*
X126856749Y-65180937D01*
X126794528Y-65164159D01*
X126766804Y-65150309D01*
X126774050Y-65143077D01*
X126831262Y-65142148D01*
X126917238Y-65153914D01*
X126917238Y-65153914D01*
G37*
X126917238Y-65153914D02*
X127017337Y-65175294D01*
X127116919Y-65203206D01*
X127194505Y-65231580D01*
X127282965Y-65282571D01*
X127383036Y-65360386D01*
X127481501Y-65452908D01*
X127565139Y-65548022D01*
X127608707Y-65611222D01*
X127651789Y-65692252D01*
X127701272Y-65799772D01*
X127758291Y-65936709D01*
X127823978Y-66105988D01*
X127899468Y-66310536D01*
X127985893Y-66553280D01*
X128084388Y-66837147D01*
X128091019Y-66856464D01*
X128151804Y-67031177D01*
X128210214Y-67194483D01*
X128264027Y-67340514D01*
X128311023Y-67463404D01*
X128348979Y-67557286D01*
X128375674Y-67616294D01*
X128384387Y-67631274D01*
X128472615Y-67722140D01*
X128579581Y-67788806D01*
X128693882Y-67826932D01*
X128804115Y-67832176D01*
X128868790Y-67815647D01*
X128928378Y-67800754D01*
X128964256Y-67808945D01*
X128969146Y-67833759D01*
X128935769Y-67868738D01*
X128931692Y-67871479D01*
X128842180Y-67907126D01*
X128722670Y-67920952D01*
X128584039Y-67912624D01*
X128452852Y-67886163D01*
X128287695Y-67830759D01*
X128149927Y-67757828D01*
X128031959Y-67660749D01*
X127926202Y-67532896D01*
X127825066Y-67367648D01*
X127796174Y-67313060D01*
X127754285Y-67229626D01*
X127719314Y-67153209D01*
X127689158Y-67076570D01*
X127661716Y-66992464D01*
X127634885Y-66893652D01*
X127606565Y-66772891D01*
X127574653Y-66622939D01*
X127537047Y-66436555D01*
X127526841Y-66385091D01*
X127482841Y-66166631D01*
X127444870Y-65988081D01*
X127411315Y-65843806D01*
X127380562Y-65728172D01*
X127350997Y-65635543D01*
X127321007Y-65560285D01*
X127288978Y-65496764D01*
X127257998Y-65446361D01*
X127155312Y-65325555D01*
X127028219Y-65239590D01*
X126869932Y-65183979D01*
X126856749Y-65180937D01*
X126794528Y-65164159D01*
X126766804Y-65150309D01*
X126774050Y-65143077D01*
X126831262Y-65142148D01*
X126917238Y-65153914D01*
G36*
X132754471Y-66468465D02*
G01*
X132830047Y-66503260D01*
X132886684Y-66560403D01*
X132905858Y-66600717D01*
X132918345Y-66704925D01*
X132895844Y-66816335D01*
X132842094Y-66916991D01*
X132839212Y-66920711D01*
X132785055Y-66969842D01*
X132699739Y-67025521D01*
X132596267Y-67080778D01*
X132487638Y-67128645D01*
X132390585Y-67161174D01*
X132299450Y-67176811D01*
X132174603Y-67186365D01*
X132028099Y-67189922D01*
X131871993Y-67187568D01*
X131718340Y-67179388D01*
X131579195Y-67165469D01*
X131510409Y-67154895D01*
X131408309Y-67133207D01*
X131295205Y-67103984D01*
X131180173Y-67070220D01*
X131072286Y-67034911D01*
X130980619Y-67001053D01*
X130914247Y-66971642D01*
X130882246Y-66949673D01*
X130880933Y-66947087D01*
X130897289Y-66941286D01*
X130950728Y-66950378D01*
X131035067Y-66973100D01*
X131087225Y-66989284D01*
X131329840Y-67052591D01*
X131571852Y-67088016D01*
X131806886Y-67096111D01*
X132028566Y-67077431D01*
X132230517Y-67032531D01*
X132406362Y-66961964D01*
X132549725Y-66866284D01*
X132554955Y-66861712D01*
X132585038Y-66824367D01*
X132603673Y-66782626D01*
X132607748Y-66749682D01*
X132594151Y-66738731D01*
X132582803Y-66743628D01*
X132541491Y-66745771D01*
X132496070Y-66717104D01*
X132459636Y-66669671D01*
X132445273Y-66617144D01*
X132464360Y-66545586D01*
X132514902Y-66494580D01*
X132586820Y-66464485D01*
X132670036Y-66455660D01*
X132754471Y-66468465D01*
X132754471Y-66468465D01*
G37*
X132754471Y-66468465D02*
X132830047Y-66503260D01*
X132886684Y-66560403D01*
X132905858Y-66600717D01*
X132918345Y-66704925D01*
X132895844Y-66816335D01*
X132842094Y-66916991D01*
X132839212Y-66920711D01*
X132785055Y-66969842D01*
X132699739Y-67025521D01*
X132596267Y-67080778D01*
X132487638Y-67128645D01*
X132390585Y-67161174D01*
X132299450Y-67176811D01*
X132174603Y-67186365D01*
X132028099Y-67189922D01*
X131871993Y-67187568D01*
X131718340Y-67179388D01*
X131579195Y-67165469D01*
X131510409Y-67154895D01*
X131408309Y-67133207D01*
X131295205Y-67103984D01*
X131180173Y-67070220D01*
X131072286Y-67034911D01*
X130980619Y-67001053D01*
X130914247Y-66971642D01*
X130882246Y-66949673D01*
X130880933Y-66947087D01*
X130897289Y-66941286D01*
X130950728Y-66950378D01*
X131035067Y-66973100D01*
X131087225Y-66989284D01*
X131329840Y-67052591D01*
X131571852Y-67088016D01*
X131806886Y-67096111D01*
X132028566Y-67077431D01*
X132230517Y-67032531D01*
X132406362Y-66961964D01*
X132549725Y-66866284D01*
X132554955Y-66861712D01*
X132585038Y-66824367D01*
X132603673Y-66782626D01*
X132607748Y-66749682D01*
X132594151Y-66738731D01*
X132582803Y-66743628D01*
X132541491Y-66745771D01*
X132496070Y-66717104D01*
X132459636Y-66669671D01*
X132445273Y-66617144D01*
X132464360Y-66545586D01*
X132514902Y-66494580D01*
X132586820Y-66464485D01*
X132670036Y-66455660D01*
X132754471Y-66468465D01*
G36*
X136044152Y-64766905D02*
G01*
X136117482Y-64826238D01*
X136169174Y-64916931D01*
X136194072Y-65032275D01*
X136195417Y-65059151D01*
X136175241Y-65161299D01*
X136111906Y-65257467D01*
X136008281Y-65345421D01*
X135867237Y-65422931D01*
X135691643Y-65487764D01*
X135618056Y-65508203D01*
X135505348Y-65530385D01*
X135377284Y-65545100D01*
X135246201Y-65552035D01*
X135124439Y-65550875D01*
X135024334Y-65541307D01*
X134962182Y-65524901D01*
X134942494Y-65512990D01*
X134948197Y-65503968D01*
X134984740Y-65496619D01*
X135057570Y-65489726D01*
X135146909Y-65483641D01*
X135267350Y-65474194D01*
X135358302Y-65461019D01*
X135436462Y-65440275D01*
X135518522Y-65408118D01*
X135563829Y-65387671D01*
X135696629Y-65314342D01*
X135787182Y-65237484D01*
X135834483Y-65158662D01*
X135837532Y-65079440D01*
X135804266Y-65012541D01*
X135770999Y-64936990D01*
X135777232Y-64862401D01*
X135817219Y-64798992D01*
X135885216Y-64756979D01*
X135954341Y-64745636D01*
X136044152Y-64766905D01*
X136044152Y-64766905D01*
G37*
X136044152Y-64766905D02*
X136117482Y-64826238D01*
X136169174Y-64916931D01*
X136194072Y-65032275D01*
X136195417Y-65059151D01*
X136175241Y-65161299D01*
X136111906Y-65257467D01*
X136008281Y-65345421D01*
X135867237Y-65422931D01*
X135691643Y-65487764D01*
X135618056Y-65508203D01*
X135505348Y-65530385D01*
X135377284Y-65545100D01*
X135246201Y-65552035D01*
X135124439Y-65550875D01*
X135024334Y-65541307D01*
X134962182Y-65524901D01*
X134942494Y-65512990D01*
X134948197Y-65503968D01*
X134984740Y-65496619D01*
X135057570Y-65489726D01*
X135146909Y-65483641D01*
X135267350Y-65474194D01*
X135358302Y-65461019D01*
X135436462Y-65440275D01*
X135518522Y-65408118D01*
X135563829Y-65387671D01*
X135696629Y-65314342D01*
X135787182Y-65237484D01*
X135834483Y-65158662D01*
X135837532Y-65079440D01*
X135804266Y-65012541D01*
X135770999Y-64936990D01*
X135777232Y-64862401D01*
X135817219Y-64798992D01*
X135885216Y-64756979D01*
X135954341Y-64745636D01*
X136044152Y-64766905D01*
G36*
X135241158Y-64681772D02*
G01*
X135246355Y-64682262D01*
X135328697Y-64696406D01*
X135386394Y-64725800D01*
X135428402Y-64766125D01*
X135482882Y-64852821D01*
X135493827Y-64938864D01*
X135463858Y-65022130D01*
X135395598Y-65100496D01*
X135291670Y-65171840D01*
X135154695Y-65234037D01*
X134987296Y-65284965D01*
X134792095Y-65322502D01*
X134731273Y-65330507D01*
X134681620Y-65335693D01*
X134668049Y-65334154D01*
X134693179Y-65324062D01*
X134759625Y-65303592D01*
X134777455Y-65298284D01*
X134925022Y-65247064D01*
X135059086Y-65186546D01*
X135173191Y-65120883D01*
X135260881Y-65054227D01*
X135315702Y-64990732D01*
X135331637Y-64941787D01*
X135313003Y-64895811D01*
X135270324Y-64854779D01*
X135225266Y-64838000D01*
X135203620Y-64846863D01*
X135214118Y-64880304D01*
X135215324Y-64882578D01*
X135225399Y-64929086D01*
X135202942Y-64963396D01*
X135165946Y-64993447D01*
X135132255Y-64993488D01*
X135082775Y-64963691D01*
X135041929Y-64909787D01*
X135030845Y-64837328D01*
X135049691Y-64763214D01*
X135080317Y-64719865D01*
X135119021Y-64690282D01*
X135166794Y-64678907D01*
X135241158Y-64681772D01*
X135241158Y-64681772D01*
G37*
X135241158Y-64681772D02*
X135246355Y-64682262D01*
X135328697Y-64696406D01*
X135386394Y-64725800D01*
X135428402Y-64766125D01*
X135482882Y-64852821D01*
X135493827Y-64938864D01*
X135463858Y-65022130D01*
X135395598Y-65100496D01*
X135291670Y-65171840D01*
X135154695Y-65234037D01*
X134987296Y-65284965D01*
X134792095Y-65322502D01*
X134731273Y-65330507D01*
X134681620Y-65335693D01*
X134668049Y-65334154D01*
X134693179Y-65324062D01*
X134759625Y-65303592D01*
X134777455Y-65298284D01*
X134925022Y-65247064D01*
X135059086Y-65186546D01*
X135173191Y-65120883D01*
X135260881Y-65054227D01*
X135315702Y-64990732D01*
X135331637Y-64941787D01*
X135313003Y-64895811D01*
X135270324Y-64854779D01*
X135225266Y-64838000D01*
X135203620Y-64846863D01*
X135214118Y-64880304D01*
X135215324Y-64882578D01*
X135225399Y-64929086D01*
X135202942Y-64963396D01*
X135165946Y-64993447D01*
X135132255Y-64993488D01*
X135082775Y-64963691D01*
X135041929Y-64909787D01*
X135030845Y-64837328D01*
X135049691Y-64763214D01*
X135080317Y-64719865D01*
X135119021Y-64690282D01*
X135166794Y-64678907D01*
X135241158Y-64681772D01*
G36*
X129460632Y-63725077D02*
G01*
X129654755Y-63781780D01*
X129842825Y-63878318D01*
X130027642Y-64016352D01*
X130212008Y-64197545D01*
X130341777Y-64350303D01*
X130463706Y-64492052D01*
X130577919Y-64598513D01*
X130694295Y-64677099D01*
X130822714Y-64735221D01*
X130880864Y-64754771D01*
X130915048Y-64776506D01*
X130921273Y-64791094D01*
X130910898Y-64807748D01*
X130875513Y-64811362D01*
X130808729Y-64801574D01*
X130708205Y-64779003D01*
X130566069Y-64733123D01*
X130415967Y-64665983D01*
X130282695Y-64588875D01*
X130266974Y-64578056D01*
X130229382Y-64543668D01*
X130170623Y-64480599D01*
X130097703Y-64396760D01*
X130017626Y-64300062D01*
X129986853Y-64261687D01*
X129903268Y-64159086D01*
X129821564Y-64063405D01*
X129749635Y-63983581D01*
X129695375Y-63928552D01*
X129682880Y-63917513D01*
X129569396Y-63847200D01*
X129420755Y-63796413D01*
X129233179Y-63763887D01*
X129218768Y-63762291D01*
X129134516Y-63749487D01*
X129094858Y-63735434D01*
X129098324Y-63722234D01*
X129143450Y-63711990D01*
X129228766Y-63706805D01*
X129257658Y-63706546D01*
X129460632Y-63725077D01*
X129460632Y-63725077D01*
G37*
X129460632Y-63725077D02*
X129654755Y-63781780D01*
X129842825Y-63878318D01*
X130027642Y-64016352D01*
X130212008Y-64197545D01*
X130341777Y-64350303D01*
X130463706Y-64492052D01*
X130577919Y-64598513D01*
X130694295Y-64677099D01*
X130822714Y-64735221D01*
X130880864Y-64754771D01*
X130915048Y-64776506D01*
X130921273Y-64791094D01*
X130910898Y-64807748D01*
X130875513Y-64811362D01*
X130808729Y-64801574D01*
X130708205Y-64779003D01*
X130566069Y-64733123D01*
X130415967Y-64665983D01*
X130282695Y-64588875D01*
X130266974Y-64578056D01*
X130229382Y-64543668D01*
X130170623Y-64480599D01*
X130097703Y-64396760D01*
X130017626Y-64300062D01*
X129986853Y-64261687D01*
X129903268Y-64159086D01*
X129821564Y-64063405D01*
X129749635Y-63983581D01*
X129695375Y-63928552D01*
X129682880Y-63917513D01*
X129569396Y-63847200D01*
X129420755Y-63796413D01*
X129233179Y-63763887D01*
X129218768Y-63762291D01*
X129134516Y-63749487D01*
X129094858Y-63735434D01*
X129098324Y-63722234D01*
X129143450Y-63711990D01*
X129228766Y-63706805D01*
X129257658Y-63706546D01*
X129460632Y-63725077D01*
G36*
X130257222Y-62534404D02*
G01*
X130295463Y-62535505D01*
X130640085Y-62557651D01*
X130968536Y-62604454D01*
X131290569Y-62678417D01*
X131615937Y-62782041D01*
X131954392Y-62917830D01*
X132168507Y-63016119D01*
X132341085Y-63096253D01*
X132478278Y-63153093D01*
X132584632Y-63186550D01*
X132664691Y-63196533D01*
X132723000Y-63182954D01*
X132764104Y-63145721D01*
X132792547Y-63084745D01*
X132812237Y-63003382D01*
X132834267Y-62920595D01*
X132868111Y-62874370D01*
X132923833Y-62855120D01*
X132970591Y-62852535D01*
X133051184Y-62871462D01*
X133107800Y-62923458D01*
X133136647Y-63000054D01*
X133133934Y-63092784D01*
X133110359Y-63164675D01*
X133055494Y-63230929D01*
X132960996Y-63281087D01*
X132830793Y-63314379D01*
X132668817Y-63330037D01*
X132478997Y-63327292D01*
X132341364Y-63315139D01*
X132258944Y-63304301D01*
X132176165Y-63290047D01*
X132088465Y-63270923D01*
X131991281Y-63245476D01*
X131880050Y-63212253D01*
X131750208Y-63169799D01*
X131597193Y-63116663D01*
X131416442Y-63051391D01*
X131203392Y-62972529D01*
X130953479Y-62878625D01*
X130861159Y-62843716D01*
X130681728Y-62777058D01*
X130534979Y-62726500D01*
X130411082Y-62690097D01*
X130300210Y-62665903D01*
X130192531Y-62651973D01*
X130078219Y-62646362D01*
X129947444Y-62647124D01*
X129877868Y-62649119D01*
X129746346Y-62654428D01*
X129648201Y-62661687D01*
X129570631Y-62673055D01*
X129500833Y-62690694D01*
X129426004Y-62716764D01*
X129386949Y-62731952D01*
X129302993Y-62763775D01*
X129236866Y-62786185D01*
X129198988Y-62795759D01*
X129194137Y-62795288D01*
X129194375Y-62769137D01*
X129232139Y-62734739D01*
X129300244Y-62695423D01*
X129391507Y-62654517D01*
X129498747Y-62615348D01*
X129614779Y-62581246D01*
X129697153Y-62562218D01*
X129783609Y-62547034D01*
X129872471Y-62537124D01*
X129974113Y-62532024D01*
X130098905Y-62531272D01*
X130257222Y-62534404D01*
X130257222Y-62534404D01*
G37*
X130257222Y-62534404D02*
X130295463Y-62535505D01*
X130640085Y-62557651D01*
X130968536Y-62604454D01*
X131290569Y-62678417D01*
X131615937Y-62782041D01*
X131954392Y-62917830D01*
X132168507Y-63016119D01*
X132341085Y-63096253D01*
X132478278Y-63153093D01*
X132584632Y-63186550D01*
X132664691Y-63196533D01*
X132723000Y-63182954D01*
X132764104Y-63145721D01*
X132792547Y-63084745D01*
X132812237Y-63003382D01*
X132834267Y-62920595D01*
X132868111Y-62874370D01*
X132923833Y-62855120D01*
X132970591Y-62852535D01*
X133051184Y-62871462D01*
X133107800Y-62923458D01*
X133136647Y-63000054D01*
X133133934Y-63092784D01*
X133110359Y-63164675D01*
X133055494Y-63230929D01*
X132960996Y-63281087D01*
X132830793Y-63314379D01*
X132668817Y-63330037D01*
X132478997Y-63327292D01*
X132341364Y-63315139D01*
X132258944Y-63304301D01*
X132176165Y-63290047D01*
X132088465Y-63270923D01*
X131991281Y-63245476D01*
X131880050Y-63212253D01*
X131750208Y-63169799D01*
X131597193Y-63116663D01*
X131416442Y-63051391D01*
X131203392Y-62972529D01*
X130953479Y-62878625D01*
X130861159Y-62843716D01*
X130681728Y-62777058D01*
X130534979Y-62726500D01*
X130411082Y-62690097D01*
X130300210Y-62665903D01*
X130192531Y-62651973D01*
X130078219Y-62646362D01*
X129947444Y-62647124D01*
X129877868Y-62649119D01*
X129746346Y-62654428D01*
X129648201Y-62661687D01*
X129570631Y-62673055D01*
X129500833Y-62690694D01*
X129426004Y-62716764D01*
X129386949Y-62731952D01*
X129302993Y-62763775D01*
X129236866Y-62786185D01*
X129198988Y-62795759D01*
X129194137Y-62795288D01*
X129194375Y-62769137D01*
X129232139Y-62734739D01*
X129300244Y-62695423D01*
X129391507Y-62654517D01*
X129498747Y-62615348D01*
X129614779Y-62581246D01*
X129697153Y-62562218D01*
X129783609Y-62547034D01*
X129872471Y-62537124D01*
X129974113Y-62532024D01*
X130098905Y-62531272D01*
X130257222Y-62534404D01*
D19*
X89550000Y-83260000D03*
D20*
X138650000Y-67730000D03*
X138650000Y-78650000D03*
X89550000Y-67730000D03*
X89550000Y-78650000D03*
D21*
X95860000Y-65660000D03*
X101320000Y-65660000D03*
X95860000Y-68200000D03*
X101320000Y-68200000D03*
X95860000Y-70740000D03*
X101320000Y-70740000D03*
X101320000Y-73280000D03*
X95860000Y-73280000D03*
X101320000Y-75820000D03*
X95860000Y-75820000D03*
X101320000Y-78360000D03*
X95860000Y-78360000D03*
X101320000Y-80900000D03*
X95860000Y-80900000D03*
D22*
X133085000Y-76190000D03*
X132445000Y-76190000D03*
X131785000Y-76190000D03*
X131145000Y-76190000D03*
X131140000Y-73570000D03*
X131790000Y-73570000D03*
X132440000Y-73570000D03*
X133090000Y-73570000D03*
D23*
X139040000Y-75060000D03*
X137040000Y-76010000D03*
X137040000Y-74110000D03*
D13*
G36*
X136016759Y-73616192D02*
G01*
X136040785Y-73619756D01*
X136064345Y-73625657D01*
X136087214Y-73633840D01*
X136109171Y-73644224D01*
X136130004Y-73656711D01*
X136149512Y-73671180D01*
X136167509Y-73687491D01*
X136183820Y-73705488D01*
X136198289Y-73724996D01*
X136210776Y-73745829D01*
X136221160Y-73767786D01*
X136229343Y-73790655D01*
X136235244Y-73814215D01*
X136238808Y-73838241D01*
X136240000Y-73862500D01*
X136240000Y-74357500D01*
X136238808Y-74381759D01*
X136235244Y-74405785D01*
X136229343Y-74429345D01*
X136221160Y-74452214D01*
X136210776Y-74474171D01*
X136198289Y-74495004D01*
X136183820Y-74514512D01*
X136167509Y-74532509D01*
X136149512Y-74548820D01*
X136130004Y-74563289D01*
X136109171Y-74575776D01*
X136087214Y-74586160D01*
X136064345Y-74594343D01*
X136040785Y-74600244D01*
X136016759Y-74603808D01*
X135992500Y-74605000D01*
X135447500Y-74605000D01*
X135423241Y-74603808D01*
X135399215Y-74600244D01*
X135375655Y-74594343D01*
X135352786Y-74586160D01*
X135330829Y-74575776D01*
X135309996Y-74563289D01*
X135290488Y-74548820D01*
X135272491Y-74532509D01*
X135256180Y-74514512D01*
X135241711Y-74495004D01*
X135229224Y-74474171D01*
X135218840Y-74452214D01*
X135210657Y-74429345D01*
X135204756Y-74405785D01*
X135201192Y-74381759D01*
X135200000Y-74357500D01*
X135200000Y-73862500D01*
X135201192Y-73838241D01*
X135204756Y-73814215D01*
X135210657Y-73790655D01*
X135218840Y-73767786D01*
X135229224Y-73745829D01*
X135241711Y-73724996D01*
X135256180Y-73705488D01*
X135272491Y-73687491D01*
X135290488Y-73671180D01*
X135309996Y-73656711D01*
X135330829Y-73644224D01*
X135352786Y-73633840D01*
X135375655Y-73625657D01*
X135399215Y-73619756D01*
X135423241Y-73616192D01*
X135447500Y-73615000D01*
X135992500Y-73615000D01*
X136016759Y-73616192D01*
X136016759Y-73616192D01*
G37*
D24*
X135720000Y-74110000D03*
D13*
G36*
X136016759Y-74586192D02*
G01*
X136040785Y-74589756D01*
X136064345Y-74595657D01*
X136087214Y-74603840D01*
X136109171Y-74614224D01*
X136130004Y-74626711D01*
X136149512Y-74641180D01*
X136167509Y-74657491D01*
X136183820Y-74675488D01*
X136198289Y-74694996D01*
X136210776Y-74715829D01*
X136221160Y-74737786D01*
X136229343Y-74760655D01*
X136235244Y-74784215D01*
X136238808Y-74808241D01*
X136240000Y-74832500D01*
X136240000Y-75327500D01*
X136238808Y-75351759D01*
X136235244Y-75375785D01*
X136229343Y-75399345D01*
X136221160Y-75422214D01*
X136210776Y-75444171D01*
X136198289Y-75465004D01*
X136183820Y-75484512D01*
X136167509Y-75502509D01*
X136149512Y-75518820D01*
X136130004Y-75533289D01*
X136109171Y-75545776D01*
X136087214Y-75556160D01*
X136064345Y-75564343D01*
X136040785Y-75570244D01*
X136016759Y-75573808D01*
X135992500Y-75575000D01*
X135447500Y-75575000D01*
X135423241Y-75573808D01*
X135399215Y-75570244D01*
X135375655Y-75564343D01*
X135352786Y-75556160D01*
X135330829Y-75545776D01*
X135309996Y-75533289D01*
X135290488Y-75518820D01*
X135272491Y-75502509D01*
X135256180Y-75484512D01*
X135241711Y-75465004D01*
X135229224Y-75444171D01*
X135218840Y-75422214D01*
X135210657Y-75399345D01*
X135204756Y-75375785D01*
X135201192Y-75351759D01*
X135200000Y-75327500D01*
X135200000Y-74832500D01*
X135201192Y-74808241D01*
X135204756Y-74784215D01*
X135210657Y-74760655D01*
X135218840Y-74737786D01*
X135229224Y-74715829D01*
X135241711Y-74694996D01*
X135256180Y-74675488D01*
X135272491Y-74657491D01*
X135290488Y-74641180D01*
X135309996Y-74626711D01*
X135330829Y-74614224D01*
X135352786Y-74603840D01*
X135375655Y-74595657D01*
X135399215Y-74589756D01*
X135423241Y-74586192D01*
X135447500Y-74585000D01*
X135992500Y-74585000D01*
X136016759Y-74586192D01*
X136016759Y-74586192D01*
G37*
D24*
X135720000Y-75080000D03*
D13*
G36*
X134326759Y-79201192D02*
G01*
X134350785Y-79204756D01*
X134374345Y-79210657D01*
X134397214Y-79218840D01*
X134419171Y-79229224D01*
X134440004Y-79241711D01*
X134459512Y-79256180D01*
X134477509Y-79272491D01*
X134493820Y-79290488D01*
X134508289Y-79309996D01*
X134520776Y-79330829D01*
X134531160Y-79352786D01*
X134539343Y-79375655D01*
X134545244Y-79399215D01*
X134548808Y-79423241D01*
X134550000Y-79447500D01*
X134550000Y-79992500D01*
X134548808Y-80016759D01*
X134545244Y-80040785D01*
X134539343Y-80064345D01*
X134531160Y-80087214D01*
X134520776Y-80109171D01*
X134508289Y-80130004D01*
X134493820Y-80149512D01*
X134477509Y-80167509D01*
X134459512Y-80183820D01*
X134440004Y-80198289D01*
X134419171Y-80210776D01*
X134397214Y-80221160D01*
X134374345Y-80229343D01*
X134350785Y-80235244D01*
X134326759Y-80238808D01*
X134302500Y-80240000D01*
X133807500Y-80240000D01*
X133783241Y-80238808D01*
X133759215Y-80235244D01*
X133735655Y-80229343D01*
X133712786Y-80221160D01*
X133690829Y-80210776D01*
X133669996Y-80198289D01*
X133650488Y-80183820D01*
X133632491Y-80167509D01*
X133616180Y-80149512D01*
X133601711Y-80130004D01*
X133589224Y-80109171D01*
X133578840Y-80087214D01*
X133570657Y-80064345D01*
X133564756Y-80040785D01*
X133561192Y-80016759D01*
X133560000Y-79992500D01*
X133560000Y-79447500D01*
X133561192Y-79423241D01*
X133564756Y-79399215D01*
X133570657Y-79375655D01*
X133578840Y-79352786D01*
X133589224Y-79330829D01*
X133601711Y-79309996D01*
X133616180Y-79290488D01*
X133632491Y-79272491D01*
X133650488Y-79256180D01*
X133669996Y-79241711D01*
X133690829Y-79229224D01*
X133712786Y-79218840D01*
X133735655Y-79210657D01*
X133759215Y-79204756D01*
X133783241Y-79201192D01*
X133807500Y-79200000D01*
X134302500Y-79200000D01*
X134326759Y-79201192D01*
X134326759Y-79201192D01*
G37*
D24*
X134055000Y-79720000D03*
D13*
G36*
X133356759Y-79201192D02*
G01*
X133380785Y-79204756D01*
X133404345Y-79210657D01*
X133427214Y-79218840D01*
X133449171Y-79229224D01*
X133470004Y-79241711D01*
X133489512Y-79256180D01*
X133507509Y-79272491D01*
X133523820Y-79290488D01*
X133538289Y-79309996D01*
X133550776Y-79330829D01*
X133561160Y-79352786D01*
X133569343Y-79375655D01*
X133575244Y-79399215D01*
X133578808Y-79423241D01*
X133580000Y-79447500D01*
X133580000Y-79992500D01*
X133578808Y-80016759D01*
X133575244Y-80040785D01*
X133569343Y-80064345D01*
X133561160Y-80087214D01*
X133550776Y-80109171D01*
X133538289Y-80130004D01*
X133523820Y-80149512D01*
X133507509Y-80167509D01*
X133489512Y-80183820D01*
X133470004Y-80198289D01*
X133449171Y-80210776D01*
X133427214Y-80221160D01*
X133404345Y-80229343D01*
X133380785Y-80235244D01*
X133356759Y-80238808D01*
X133332500Y-80240000D01*
X132837500Y-80240000D01*
X132813241Y-80238808D01*
X132789215Y-80235244D01*
X132765655Y-80229343D01*
X132742786Y-80221160D01*
X132720829Y-80210776D01*
X132699996Y-80198289D01*
X132680488Y-80183820D01*
X132662491Y-80167509D01*
X132646180Y-80149512D01*
X132631711Y-80130004D01*
X132619224Y-80109171D01*
X132608840Y-80087214D01*
X132600657Y-80064345D01*
X132594756Y-80040785D01*
X132591192Y-80016759D01*
X132590000Y-79992500D01*
X132590000Y-79447500D01*
X132591192Y-79423241D01*
X132594756Y-79399215D01*
X132600657Y-79375655D01*
X132608840Y-79352786D01*
X132619224Y-79330829D01*
X132631711Y-79309996D01*
X132646180Y-79290488D01*
X132662491Y-79272491D01*
X132680488Y-79256180D01*
X132699996Y-79241711D01*
X132720829Y-79229224D01*
X132742786Y-79218840D01*
X132765655Y-79210657D01*
X132789215Y-79204756D01*
X132813241Y-79201192D01*
X132837500Y-79200000D01*
X133332500Y-79200000D01*
X133356759Y-79201192D01*
X133356759Y-79201192D01*
G37*
D24*
X133085000Y-79720000D03*
D25*
X144600000Y-73220000D03*
D26*
X144600000Y-68295000D03*
X144600000Y-78145000D03*
D25*
X83600000Y-73220000D03*
D26*
X83600000Y-78145000D03*
X83600000Y-68295000D03*
D23*
X128200000Y-76200000D03*
X126200000Y-77150000D03*
X126200000Y-75250000D03*
D13*
G36*
X133356759Y-77061192D02*
G01*
X133380785Y-77064756D01*
X133404345Y-77070657D01*
X133427214Y-77078840D01*
X133449171Y-77089224D01*
X133470004Y-77101711D01*
X133489512Y-77116180D01*
X133507509Y-77132491D01*
X133523820Y-77150488D01*
X133538289Y-77169996D01*
X133550776Y-77190829D01*
X133561160Y-77212786D01*
X133569343Y-77235655D01*
X133575244Y-77259215D01*
X133578808Y-77283241D01*
X133580000Y-77307500D01*
X133580000Y-77852500D01*
X133578808Y-77876759D01*
X133575244Y-77900785D01*
X133569343Y-77924345D01*
X133561160Y-77947214D01*
X133550776Y-77969171D01*
X133538289Y-77990004D01*
X133523820Y-78009512D01*
X133507509Y-78027509D01*
X133489512Y-78043820D01*
X133470004Y-78058289D01*
X133449171Y-78070776D01*
X133427214Y-78081160D01*
X133404345Y-78089343D01*
X133380785Y-78095244D01*
X133356759Y-78098808D01*
X133332500Y-78100000D01*
X132837500Y-78100000D01*
X132813241Y-78098808D01*
X132789215Y-78095244D01*
X132765655Y-78089343D01*
X132742786Y-78081160D01*
X132720829Y-78070776D01*
X132699996Y-78058289D01*
X132680488Y-78043820D01*
X132662491Y-78027509D01*
X132646180Y-78009512D01*
X132631711Y-77990004D01*
X132619224Y-77969171D01*
X132608840Y-77947214D01*
X132600657Y-77924345D01*
X132594756Y-77900785D01*
X132591192Y-77876759D01*
X132590000Y-77852500D01*
X132590000Y-77307500D01*
X132591192Y-77283241D01*
X132594756Y-77259215D01*
X132600657Y-77235655D01*
X132608840Y-77212786D01*
X132619224Y-77190829D01*
X132631711Y-77169996D01*
X132646180Y-77150488D01*
X132662491Y-77132491D01*
X132680488Y-77116180D01*
X132699996Y-77101711D01*
X132720829Y-77089224D01*
X132742786Y-77078840D01*
X132765655Y-77070657D01*
X132789215Y-77064756D01*
X132813241Y-77061192D01*
X132837500Y-77060000D01*
X133332500Y-77060000D01*
X133356759Y-77061192D01*
X133356759Y-77061192D01*
G37*
D24*
X133085000Y-77580000D03*
D13*
G36*
X134326759Y-77061192D02*
G01*
X134350785Y-77064756D01*
X134374345Y-77070657D01*
X134397214Y-77078840D01*
X134419171Y-77089224D01*
X134440004Y-77101711D01*
X134459512Y-77116180D01*
X134477509Y-77132491D01*
X134493820Y-77150488D01*
X134508289Y-77169996D01*
X134520776Y-77190829D01*
X134531160Y-77212786D01*
X134539343Y-77235655D01*
X134545244Y-77259215D01*
X134548808Y-77283241D01*
X134550000Y-77307500D01*
X134550000Y-77852500D01*
X134548808Y-77876759D01*
X134545244Y-77900785D01*
X134539343Y-77924345D01*
X134531160Y-77947214D01*
X134520776Y-77969171D01*
X134508289Y-77990004D01*
X134493820Y-78009512D01*
X134477509Y-78027509D01*
X134459512Y-78043820D01*
X134440004Y-78058289D01*
X134419171Y-78070776D01*
X134397214Y-78081160D01*
X134374345Y-78089343D01*
X134350785Y-78095244D01*
X134326759Y-78098808D01*
X134302500Y-78100000D01*
X133807500Y-78100000D01*
X133783241Y-78098808D01*
X133759215Y-78095244D01*
X133735655Y-78089343D01*
X133712786Y-78081160D01*
X133690829Y-78070776D01*
X133669996Y-78058289D01*
X133650488Y-78043820D01*
X133632491Y-78027509D01*
X133616180Y-78009512D01*
X133601711Y-77990004D01*
X133589224Y-77969171D01*
X133578840Y-77947214D01*
X133570657Y-77924345D01*
X133564756Y-77900785D01*
X133561192Y-77876759D01*
X133560000Y-77852500D01*
X133560000Y-77307500D01*
X133561192Y-77283241D01*
X133564756Y-77259215D01*
X133570657Y-77235655D01*
X133578840Y-77212786D01*
X133589224Y-77190829D01*
X133601711Y-77169996D01*
X133616180Y-77150488D01*
X133632491Y-77132491D01*
X133650488Y-77116180D01*
X133669996Y-77101711D01*
X133690829Y-77089224D01*
X133712786Y-77078840D01*
X133735655Y-77070657D01*
X133759215Y-77064756D01*
X133783241Y-77061192D01*
X133807500Y-77060000D01*
X134302500Y-77060000D01*
X134326759Y-77061192D01*
X134326759Y-77061192D01*
G37*
D24*
X134055000Y-77580000D03*
D13*
G36*
X130096759Y-75696192D02*
G01*
X130120785Y-75699756D01*
X130144345Y-75705657D01*
X130167214Y-75713840D01*
X130189171Y-75724224D01*
X130210004Y-75736711D01*
X130229512Y-75751180D01*
X130247509Y-75767491D01*
X130263820Y-75785488D01*
X130278289Y-75804996D01*
X130290776Y-75825829D01*
X130301160Y-75847786D01*
X130309343Y-75870655D01*
X130315244Y-75894215D01*
X130318808Y-75918241D01*
X130320000Y-75942500D01*
X130320000Y-76437500D01*
X130318808Y-76461759D01*
X130315244Y-76485785D01*
X130309343Y-76509345D01*
X130301160Y-76532214D01*
X130290776Y-76554171D01*
X130278289Y-76575004D01*
X130263820Y-76594512D01*
X130247509Y-76612509D01*
X130229512Y-76628820D01*
X130210004Y-76643289D01*
X130189171Y-76655776D01*
X130167214Y-76666160D01*
X130144345Y-76674343D01*
X130120785Y-76680244D01*
X130096759Y-76683808D01*
X130072500Y-76685000D01*
X129527500Y-76685000D01*
X129503241Y-76683808D01*
X129479215Y-76680244D01*
X129455655Y-76674343D01*
X129432786Y-76666160D01*
X129410829Y-76655776D01*
X129389996Y-76643289D01*
X129370488Y-76628820D01*
X129352491Y-76612509D01*
X129336180Y-76594512D01*
X129321711Y-76575004D01*
X129309224Y-76554171D01*
X129298840Y-76532214D01*
X129290657Y-76509345D01*
X129284756Y-76485785D01*
X129281192Y-76461759D01*
X129280000Y-76437500D01*
X129280000Y-75942500D01*
X129281192Y-75918241D01*
X129284756Y-75894215D01*
X129290657Y-75870655D01*
X129298840Y-75847786D01*
X129309224Y-75825829D01*
X129321711Y-75804996D01*
X129336180Y-75785488D01*
X129352491Y-75767491D01*
X129370488Y-75751180D01*
X129389996Y-75736711D01*
X129410829Y-75724224D01*
X129432786Y-75713840D01*
X129455655Y-75705657D01*
X129479215Y-75699756D01*
X129503241Y-75696192D01*
X129527500Y-75695000D01*
X130072500Y-75695000D01*
X130096759Y-75696192D01*
X130096759Y-75696192D01*
G37*
D24*
X129800000Y-76190000D03*
D13*
G36*
X130096759Y-76666192D02*
G01*
X130120785Y-76669756D01*
X130144345Y-76675657D01*
X130167214Y-76683840D01*
X130189171Y-76694224D01*
X130210004Y-76706711D01*
X130229512Y-76721180D01*
X130247509Y-76737491D01*
X130263820Y-76755488D01*
X130278289Y-76774996D01*
X130290776Y-76795829D01*
X130301160Y-76817786D01*
X130309343Y-76840655D01*
X130315244Y-76864215D01*
X130318808Y-76888241D01*
X130320000Y-76912500D01*
X130320000Y-77407500D01*
X130318808Y-77431759D01*
X130315244Y-77455785D01*
X130309343Y-77479345D01*
X130301160Y-77502214D01*
X130290776Y-77524171D01*
X130278289Y-77545004D01*
X130263820Y-77564512D01*
X130247509Y-77582509D01*
X130229512Y-77598820D01*
X130210004Y-77613289D01*
X130189171Y-77625776D01*
X130167214Y-77636160D01*
X130144345Y-77644343D01*
X130120785Y-77650244D01*
X130096759Y-77653808D01*
X130072500Y-77655000D01*
X129527500Y-77655000D01*
X129503241Y-77653808D01*
X129479215Y-77650244D01*
X129455655Y-77644343D01*
X129432786Y-77636160D01*
X129410829Y-77625776D01*
X129389996Y-77613289D01*
X129370488Y-77598820D01*
X129352491Y-77582509D01*
X129336180Y-77564512D01*
X129321711Y-77545004D01*
X129309224Y-77524171D01*
X129298840Y-77502214D01*
X129290657Y-77479345D01*
X129284756Y-77455785D01*
X129281192Y-77431759D01*
X129280000Y-77407500D01*
X129280000Y-76912500D01*
X129281192Y-76888241D01*
X129284756Y-76864215D01*
X129290657Y-76840655D01*
X129298840Y-76817786D01*
X129309224Y-76795829D01*
X129321711Y-76774996D01*
X129336180Y-76755488D01*
X129352491Y-76737491D01*
X129370488Y-76721180D01*
X129389996Y-76706711D01*
X129410829Y-76694224D01*
X129432786Y-76683840D01*
X129455655Y-76675657D01*
X129479215Y-76669756D01*
X129503241Y-76666192D01*
X129527500Y-76665000D01*
X130072500Y-76665000D01*
X130096759Y-76666192D01*
X130096759Y-76666192D01*
G37*
D24*
X129800000Y-77160000D03*
D13*
G36*
X101591759Y-62420192D02*
G01*
X101615785Y-62423756D01*
X101639345Y-62429657D01*
X101662214Y-62437840D01*
X101684171Y-62448224D01*
X101705004Y-62460711D01*
X101724512Y-62475180D01*
X101742509Y-62491491D01*
X101758820Y-62509488D01*
X101773289Y-62528996D01*
X101785776Y-62549829D01*
X101796160Y-62571786D01*
X101804343Y-62594655D01*
X101810244Y-62618215D01*
X101813808Y-62642241D01*
X101815000Y-62666500D01*
X101815000Y-63211500D01*
X101813808Y-63235759D01*
X101810244Y-63259785D01*
X101804343Y-63283345D01*
X101796160Y-63306214D01*
X101785776Y-63328171D01*
X101773289Y-63349004D01*
X101758820Y-63368512D01*
X101742509Y-63386509D01*
X101724512Y-63402820D01*
X101705004Y-63417289D01*
X101684171Y-63429776D01*
X101662214Y-63440160D01*
X101639345Y-63448343D01*
X101615785Y-63454244D01*
X101591759Y-63457808D01*
X101567500Y-63459000D01*
X101072500Y-63459000D01*
X101048241Y-63457808D01*
X101024215Y-63454244D01*
X101000655Y-63448343D01*
X100977786Y-63440160D01*
X100955829Y-63429776D01*
X100934996Y-63417289D01*
X100915488Y-63402820D01*
X100897491Y-63386509D01*
X100881180Y-63368512D01*
X100866711Y-63349004D01*
X100854224Y-63328171D01*
X100843840Y-63306214D01*
X100835657Y-63283345D01*
X100829756Y-63259785D01*
X100826192Y-63235759D01*
X100825000Y-63211500D01*
X100825000Y-62666500D01*
X100826192Y-62642241D01*
X100829756Y-62618215D01*
X100835657Y-62594655D01*
X100843840Y-62571786D01*
X100854224Y-62549829D01*
X100866711Y-62528996D01*
X100881180Y-62509488D01*
X100897491Y-62491491D01*
X100915488Y-62475180D01*
X100934996Y-62460711D01*
X100955829Y-62448224D01*
X100977786Y-62437840D01*
X101000655Y-62429657D01*
X101024215Y-62423756D01*
X101048241Y-62420192D01*
X101072500Y-62419000D01*
X101567500Y-62419000D01*
X101591759Y-62420192D01*
X101591759Y-62420192D01*
G37*
D24*
X101320000Y-62939000D03*
D13*
G36*
X100621759Y-62420192D02*
G01*
X100645785Y-62423756D01*
X100669345Y-62429657D01*
X100692214Y-62437840D01*
X100714171Y-62448224D01*
X100735004Y-62460711D01*
X100754512Y-62475180D01*
X100772509Y-62491491D01*
X100788820Y-62509488D01*
X100803289Y-62528996D01*
X100815776Y-62549829D01*
X100826160Y-62571786D01*
X100834343Y-62594655D01*
X100840244Y-62618215D01*
X100843808Y-62642241D01*
X100845000Y-62666500D01*
X100845000Y-63211500D01*
X100843808Y-63235759D01*
X100840244Y-63259785D01*
X100834343Y-63283345D01*
X100826160Y-63306214D01*
X100815776Y-63328171D01*
X100803289Y-63349004D01*
X100788820Y-63368512D01*
X100772509Y-63386509D01*
X100754512Y-63402820D01*
X100735004Y-63417289D01*
X100714171Y-63429776D01*
X100692214Y-63440160D01*
X100669345Y-63448343D01*
X100645785Y-63454244D01*
X100621759Y-63457808D01*
X100597500Y-63459000D01*
X100102500Y-63459000D01*
X100078241Y-63457808D01*
X100054215Y-63454244D01*
X100030655Y-63448343D01*
X100007786Y-63440160D01*
X99985829Y-63429776D01*
X99964996Y-63417289D01*
X99945488Y-63402820D01*
X99927491Y-63386509D01*
X99911180Y-63368512D01*
X99896711Y-63349004D01*
X99884224Y-63328171D01*
X99873840Y-63306214D01*
X99865657Y-63283345D01*
X99859756Y-63259785D01*
X99856192Y-63235759D01*
X99855000Y-63211500D01*
X99855000Y-62666500D01*
X99856192Y-62642241D01*
X99859756Y-62618215D01*
X99865657Y-62594655D01*
X99873840Y-62571786D01*
X99884224Y-62549829D01*
X99896711Y-62528996D01*
X99911180Y-62509488D01*
X99927491Y-62491491D01*
X99945488Y-62475180D01*
X99964996Y-62460711D01*
X99985829Y-62448224D01*
X100007786Y-62437840D01*
X100030655Y-62429657D01*
X100054215Y-62423756D01*
X100078241Y-62420192D01*
X100102500Y-62419000D01*
X100597500Y-62419000D01*
X100621759Y-62420192D01*
X100621759Y-62420192D01*
G37*
D24*
X100350000Y-62939000D03*
D13*
G36*
X132081759Y-78256192D02*
G01*
X132105785Y-78259756D01*
X132129345Y-78265657D01*
X132152214Y-78273840D01*
X132174171Y-78284224D01*
X132195004Y-78296711D01*
X132214512Y-78311180D01*
X132232509Y-78327491D01*
X132248820Y-78345488D01*
X132263289Y-78364996D01*
X132275776Y-78385829D01*
X132286160Y-78407786D01*
X132294343Y-78430655D01*
X132300244Y-78454215D01*
X132303808Y-78478241D01*
X132305000Y-78502500D01*
X132305000Y-78997500D01*
X132303808Y-79021759D01*
X132300244Y-79045785D01*
X132294343Y-79069345D01*
X132286160Y-79092214D01*
X132275776Y-79114171D01*
X132263289Y-79135004D01*
X132248820Y-79154512D01*
X132232509Y-79172509D01*
X132214512Y-79188820D01*
X132195004Y-79203289D01*
X132174171Y-79215776D01*
X132152214Y-79226160D01*
X132129345Y-79234343D01*
X132105785Y-79240244D01*
X132081759Y-79243808D01*
X132057500Y-79245000D01*
X131512500Y-79245000D01*
X131488241Y-79243808D01*
X131464215Y-79240244D01*
X131440655Y-79234343D01*
X131417786Y-79226160D01*
X131395829Y-79215776D01*
X131374996Y-79203289D01*
X131355488Y-79188820D01*
X131337491Y-79172509D01*
X131321180Y-79154512D01*
X131306711Y-79135004D01*
X131294224Y-79114171D01*
X131283840Y-79092214D01*
X131275657Y-79069345D01*
X131269756Y-79045785D01*
X131266192Y-79021759D01*
X131265000Y-78997500D01*
X131265000Y-78502500D01*
X131266192Y-78478241D01*
X131269756Y-78454215D01*
X131275657Y-78430655D01*
X131283840Y-78407786D01*
X131294224Y-78385829D01*
X131306711Y-78364996D01*
X131321180Y-78345488D01*
X131337491Y-78327491D01*
X131355488Y-78311180D01*
X131374996Y-78296711D01*
X131395829Y-78284224D01*
X131417786Y-78273840D01*
X131440655Y-78265657D01*
X131464215Y-78259756D01*
X131488241Y-78256192D01*
X131512500Y-78255000D01*
X132057500Y-78255000D01*
X132081759Y-78256192D01*
X132081759Y-78256192D01*
G37*
D24*
X131785000Y-78750000D03*
D13*
G36*
X132081759Y-79226192D02*
G01*
X132105785Y-79229756D01*
X132129345Y-79235657D01*
X132152214Y-79243840D01*
X132174171Y-79254224D01*
X132195004Y-79266711D01*
X132214512Y-79281180D01*
X132232509Y-79297491D01*
X132248820Y-79315488D01*
X132263289Y-79334996D01*
X132275776Y-79355829D01*
X132286160Y-79377786D01*
X132294343Y-79400655D01*
X132300244Y-79424215D01*
X132303808Y-79448241D01*
X132305000Y-79472500D01*
X132305000Y-79967500D01*
X132303808Y-79991759D01*
X132300244Y-80015785D01*
X132294343Y-80039345D01*
X132286160Y-80062214D01*
X132275776Y-80084171D01*
X132263289Y-80105004D01*
X132248820Y-80124512D01*
X132232509Y-80142509D01*
X132214512Y-80158820D01*
X132195004Y-80173289D01*
X132174171Y-80185776D01*
X132152214Y-80196160D01*
X132129345Y-80204343D01*
X132105785Y-80210244D01*
X132081759Y-80213808D01*
X132057500Y-80215000D01*
X131512500Y-80215000D01*
X131488241Y-80213808D01*
X131464215Y-80210244D01*
X131440655Y-80204343D01*
X131417786Y-80196160D01*
X131395829Y-80185776D01*
X131374996Y-80173289D01*
X131355488Y-80158820D01*
X131337491Y-80142509D01*
X131321180Y-80124512D01*
X131306711Y-80105004D01*
X131294224Y-80084171D01*
X131283840Y-80062214D01*
X131275657Y-80039345D01*
X131269756Y-80015785D01*
X131266192Y-79991759D01*
X131265000Y-79967500D01*
X131265000Y-79472500D01*
X131266192Y-79448241D01*
X131269756Y-79424215D01*
X131275657Y-79400655D01*
X131283840Y-79377786D01*
X131294224Y-79355829D01*
X131306711Y-79334996D01*
X131321180Y-79315488D01*
X131337491Y-79297491D01*
X131355488Y-79281180D01*
X131374996Y-79266711D01*
X131395829Y-79254224D01*
X131417786Y-79243840D01*
X131440655Y-79235657D01*
X131464215Y-79229756D01*
X131488241Y-79226192D01*
X131512500Y-79225000D01*
X132057500Y-79225000D01*
X132081759Y-79226192D01*
X132081759Y-79226192D01*
G37*
D24*
X131785000Y-79720000D03*
D13*
G36*
X139311759Y-72121192D02*
G01*
X139335785Y-72124756D01*
X139359345Y-72130657D01*
X139382214Y-72138840D01*
X139404171Y-72149224D01*
X139425004Y-72161711D01*
X139444512Y-72176180D01*
X139462509Y-72192491D01*
X139478820Y-72210488D01*
X139493289Y-72229996D01*
X139505776Y-72250829D01*
X139516160Y-72272786D01*
X139524343Y-72295655D01*
X139530244Y-72319215D01*
X139533808Y-72343241D01*
X139535000Y-72367500D01*
X139535000Y-72912500D01*
X139533808Y-72936759D01*
X139530244Y-72960785D01*
X139524343Y-72984345D01*
X139516160Y-73007214D01*
X139505776Y-73029171D01*
X139493289Y-73050004D01*
X139478820Y-73069512D01*
X139462509Y-73087509D01*
X139444512Y-73103820D01*
X139425004Y-73118289D01*
X139404171Y-73130776D01*
X139382214Y-73141160D01*
X139359345Y-73149343D01*
X139335785Y-73155244D01*
X139311759Y-73158808D01*
X139287500Y-73160000D01*
X138792500Y-73160000D01*
X138768241Y-73158808D01*
X138744215Y-73155244D01*
X138720655Y-73149343D01*
X138697786Y-73141160D01*
X138675829Y-73130776D01*
X138654996Y-73118289D01*
X138635488Y-73103820D01*
X138617491Y-73087509D01*
X138601180Y-73069512D01*
X138586711Y-73050004D01*
X138574224Y-73029171D01*
X138563840Y-73007214D01*
X138555657Y-72984345D01*
X138549756Y-72960785D01*
X138546192Y-72936759D01*
X138545000Y-72912500D01*
X138545000Y-72367500D01*
X138546192Y-72343241D01*
X138549756Y-72319215D01*
X138555657Y-72295655D01*
X138563840Y-72272786D01*
X138574224Y-72250829D01*
X138586711Y-72229996D01*
X138601180Y-72210488D01*
X138617491Y-72192491D01*
X138635488Y-72176180D01*
X138654996Y-72161711D01*
X138675829Y-72149224D01*
X138697786Y-72138840D01*
X138720655Y-72130657D01*
X138744215Y-72124756D01*
X138768241Y-72121192D01*
X138792500Y-72120000D01*
X139287500Y-72120000D01*
X139311759Y-72121192D01*
X139311759Y-72121192D01*
G37*
D24*
X139040000Y-72640000D03*
D13*
G36*
X138341759Y-72121192D02*
G01*
X138365785Y-72124756D01*
X138389345Y-72130657D01*
X138412214Y-72138840D01*
X138434171Y-72149224D01*
X138455004Y-72161711D01*
X138474512Y-72176180D01*
X138492509Y-72192491D01*
X138508820Y-72210488D01*
X138523289Y-72229996D01*
X138535776Y-72250829D01*
X138546160Y-72272786D01*
X138554343Y-72295655D01*
X138560244Y-72319215D01*
X138563808Y-72343241D01*
X138565000Y-72367500D01*
X138565000Y-72912500D01*
X138563808Y-72936759D01*
X138560244Y-72960785D01*
X138554343Y-72984345D01*
X138546160Y-73007214D01*
X138535776Y-73029171D01*
X138523289Y-73050004D01*
X138508820Y-73069512D01*
X138492509Y-73087509D01*
X138474512Y-73103820D01*
X138455004Y-73118289D01*
X138434171Y-73130776D01*
X138412214Y-73141160D01*
X138389345Y-73149343D01*
X138365785Y-73155244D01*
X138341759Y-73158808D01*
X138317500Y-73160000D01*
X137822500Y-73160000D01*
X137798241Y-73158808D01*
X137774215Y-73155244D01*
X137750655Y-73149343D01*
X137727786Y-73141160D01*
X137705829Y-73130776D01*
X137684996Y-73118289D01*
X137665488Y-73103820D01*
X137647491Y-73087509D01*
X137631180Y-73069512D01*
X137616711Y-73050004D01*
X137604224Y-73029171D01*
X137593840Y-73007214D01*
X137585657Y-72984345D01*
X137579756Y-72960785D01*
X137576192Y-72936759D01*
X137575000Y-72912500D01*
X137575000Y-72367500D01*
X137576192Y-72343241D01*
X137579756Y-72319215D01*
X137585657Y-72295655D01*
X137593840Y-72272786D01*
X137604224Y-72250829D01*
X137616711Y-72229996D01*
X137631180Y-72210488D01*
X137647491Y-72192491D01*
X137665488Y-72176180D01*
X137684996Y-72161711D01*
X137705829Y-72149224D01*
X137727786Y-72138840D01*
X137750655Y-72130657D01*
X137774215Y-72124756D01*
X137798241Y-72121192D01*
X137822500Y-72120000D01*
X138317500Y-72120000D01*
X138341759Y-72121192D01*
X138341759Y-72121192D01*
G37*
D24*
X138070000Y-72640000D03*
D13*
G36*
X127621759Y-73421192D02*
G01*
X127645785Y-73424756D01*
X127669345Y-73430657D01*
X127692214Y-73438840D01*
X127714171Y-73449224D01*
X127735004Y-73461711D01*
X127754512Y-73476180D01*
X127772509Y-73492491D01*
X127788820Y-73510488D01*
X127803289Y-73529996D01*
X127815776Y-73550829D01*
X127826160Y-73572786D01*
X127834343Y-73595655D01*
X127840244Y-73619215D01*
X127843808Y-73643241D01*
X127845000Y-73667500D01*
X127845000Y-74212500D01*
X127843808Y-74236759D01*
X127840244Y-74260785D01*
X127834343Y-74284345D01*
X127826160Y-74307214D01*
X127815776Y-74329171D01*
X127803289Y-74350004D01*
X127788820Y-74369512D01*
X127772509Y-74387509D01*
X127754512Y-74403820D01*
X127735004Y-74418289D01*
X127714171Y-74430776D01*
X127692214Y-74441160D01*
X127669345Y-74449343D01*
X127645785Y-74455244D01*
X127621759Y-74458808D01*
X127597500Y-74460000D01*
X127102500Y-74460000D01*
X127078241Y-74458808D01*
X127054215Y-74455244D01*
X127030655Y-74449343D01*
X127007786Y-74441160D01*
X126985829Y-74430776D01*
X126964996Y-74418289D01*
X126945488Y-74403820D01*
X126927491Y-74387509D01*
X126911180Y-74369512D01*
X126896711Y-74350004D01*
X126884224Y-74329171D01*
X126873840Y-74307214D01*
X126865657Y-74284345D01*
X126859756Y-74260785D01*
X126856192Y-74236759D01*
X126855000Y-74212500D01*
X126855000Y-73667500D01*
X126856192Y-73643241D01*
X126859756Y-73619215D01*
X126865657Y-73595655D01*
X126873840Y-73572786D01*
X126884224Y-73550829D01*
X126896711Y-73529996D01*
X126911180Y-73510488D01*
X126927491Y-73492491D01*
X126945488Y-73476180D01*
X126964996Y-73461711D01*
X126985829Y-73449224D01*
X127007786Y-73438840D01*
X127030655Y-73430657D01*
X127054215Y-73424756D01*
X127078241Y-73421192D01*
X127102500Y-73420000D01*
X127597500Y-73420000D01*
X127621759Y-73421192D01*
X127621759Y-73421192D01*
G37*
D24*
X127350000Y-73940000D03*
D13*
G36*
X126651759Y-73421192D02*
G01*
X126675785Y-73424756D01*
X126699345Y-73430657D01*
X126722214Y-73438840D01*
X126744171Y-73449224D01*
X126765004Y-73461711D01*
X126784512Y-73476180D01*
X126802509Y-73492491D01*
X126818820Y-73510488D01*
X126833289Y-73529996D01*
X126845776Y-73550829D01*
X126856160Y-73572786D01*
X126864343Y-73595655D01*
X126870244Y-73619215D01*
X126873808Y-73643241D01*
X126875000Y-73667500D01*
X126875000Y-74212500D01*
X126873808Y-74236759D01*
X126870244Y-74260785D01*
X126864343Y-74284345D01*
X126856160Y-74307214D01*
X126845776Y-74329171D01*
X126833289Y-74350004D01*
X126818820Y-74369512D01*
X126802509Y-74387509D01*
X126784512Y-74403820D01*
X126765004Y-74418289D01*
X126744171Y-74430776D01*
X126722214Y-74441160D01*
X126699345Y-74449343D01*
X126675785Y-74455244D01*
X126651759Y-74458808D01*
X126627500Y-74460000D01*
X126132500Y-74460000D01*
X126108241Y-74458808D01*
X126084215Y-74455244D01*
X126060655Y-74449343D01*
X126037786Y-74441160D01*
X126015829Y-74430776D01*
X125994996Y-74418289D01*
X125975488Y-74403820D01*
X125957491Y-74387509D01*
X125941180Y-74369512D01*
X125926711Y-74350004D01*
X125914224Y-74329171D01*
X125903840Y-74307214D01*
X125895657Y-74284345D01*
X125889756Y-74260785D01*
X125886192Y-74236759D01*
X125885000Y-74212500D01*
X125885000Y-73667500D01*
X125886192Y-73643241D01*
X125889756Y-73619215D01*
X125895657Y-73595655D01*
X125903840Y-73572786D01*
X125914224Y-73550829D01*
X125926711Y-73529996D01*
X125941180Y-73510488D01*
X125957491Y-73492491D01*
X125975488Y-73476180D01*
X125994996Y-73461711D01*
X126015829Y-73449224D01*
X126037786Y-73438840D01*
X126060655Y-73430657D01*
X126084215Y-73424756D01*
X126108241Y-73421192D01*
X126132500Y-73420000D01*
X126627500Y-73420000D01*
X126651759Y-73421192D01*
X126651759Y-73421192D01*
G37*
D24*
X126380000Y-73940000D03*
D13*
G36*
X94006759Y-65141192D02*
G01*
X94030785Y-65144756D01*
X94054345Y-65150657D01*
X94077214Y-65158840D01*
X94099171Y-65169224D01*
X94120004Y-65181711D01*
X94139512Y-65196180D01*
X94157509Y-65212491D01*
X94173820Y-65230488D01*
X94188289Y-65249996D01*
X94200776Y-65270829D01*
X94211160Y-65292786D01*
X94219343Y-65315655D01*
X94225244Y-65339215D01*
X94228808Y-65363241D01*
X94230000Y-65387500D01*
X94230000Y-65932500D01*
X94228808Y-65956759D01*
X94225244Y-65980785D01*
X94219343Y-66004345D01*
X94211160Y-66027214D01*
X94200776Y-66049171D01*
X94188289Y-66070004D01*
X94173820Y-66089512D01*
X94157509Y-66107509D01*
X94139512Y-66123820D01*
X94120004Y-66138289D01*
X94099171Y-66150776D01*
X94077214Y-66161160D01*
X94054345Y-66169343D01*
X94030785Y-66175244D01*
X94006759Y-66178808D01*
X93982500Y-66180000D01*
X93487500Y-66180000D01*
X93463241Y-66178808D01*
X93439215Y-66175244D01*
X93415655Y-66169343D01*
X93392786Y-66161160D01*
X93370829Y-66150776D01*
X93349996Y-66138289D01*
X93330488Y-66123820D01*
X93312491Y-66107509D01*
X93296180Y-66089512D01*
X93281711Y-66070004D01*
X93269224Y-66049171D01*
X93258840Y-66027214D01*
X93250657Y-66004345D01*
X93244756Y-65980785D01*
X93241192Y-65956759D01*
X93240000Y-65932500D01*
X93240000Y-65387500D01*
X93241192Y-65363241D01*
X93244756Y-65339215D01*
X93250657Y-65315655D01*
X93258840Y-65292786D01*
X93269224Y-65270829D01*
X93281711Y-65249996D01*
X93296180Y-65230488D01*
X93312491Y-65212491D01*
X93330488Y-65196180D01*
X93349996Y-65181711D01*
X93370829Y-65169224D01*
X93392786Y-65158840D01*
X93415655Y-65150657D01*
X93439215Y-65144756D01*
X93463241Y-65141192D01*
X93487500Y-65140000D01*
X93982500Y-65140000D01*
X94006759Y-65141192D01*
X94006759Y-65141192D01*
G37*
D24*
X93735000Y-65660000D03*
D13*
G36*
X93036759Y-65141192D02*
G01*
X93060785Y-65144756D01*
X93084345Y-65150657D01*
X93107214Y-65158840D01*
X93129171Y-65169224D01*
X93150004Y-65181711D01*
X93169512Y-65196180D01*
X93187509Y-65212491D01*
X93203820Y-65230488D01*
X93218289Y-65249996D01*
X93230776Y-65270829D01*
X93241160Y-65292786D01*
X93249343Y-65315655D01*
X93255244Y-65339215D01*
X93258808Y-65363241D01*
X93260000Y-65387500D01*
X93260000Y-65932500D01*
X93258808Y-65956759D01*
X93255244Y-65980785D01*
X93249343Y-66004345D01*
X93241160Y-66027214D01*
X93230776Y-66049171D01*
X93218289Y-66070004D01*
X93203820Y-66089512D01*
X93187509Y-66107509D01*
X93169512Y-66123820D01*
X93150004Y-66138289D01*
X93129171Y-66150776D01*
X93107214Y-66161160D01*
X93084345Y-66169343D01*
X93060785Y-66175244D01*
X93036759Y-66178808D01*
X93012500Y-66180000D01*
X92517500Y-66180000D01*
X92493241Y-66178808D01*
X92469215Y-66175244D01*
X92445655Y-66169343D01*
X92422786Y-66161160D01*
X92400829Y-66150776D01*
X92379996Y-66138289D01*
X92360488Y-66123820D01*
X92342491Y-66107509D01*
X92326180Y-66089512D01*
X92311711Y-66070004D01*
X92299224Y-66049171D01*
X92288840Y-66027214D01*
X92280657Y-66004345D01*
X92274756Y-65980785D01*
X92271192Y-65956759D01*
X92270000Y-65932500D01*
X92270000Y-65387500D01*
X92271192Y-65363241D01*
X92274756Y-65339215D01*
X92280657Y-65315655D01*
X92288840Y-65292786D01*
X92299224Y-65270829D01*
X92311711Y-65249996D01*
X92326180Y-65230488D01*
X92342491Y-65212491D01*
X92360488Y-65196180D01*
X92379996Y-65181711D01*
X92400829Y-65169224D01*
X92422786Y-65158840D01*
X92445655Y-65150657D01*
X92469215Y-65144756D01*
X92493241Y-65141192D01*
X92517500Y-65140000D01*
X93012500Y-65140000D01*
X93036759Y-65141192D01*
X93036759Y-65141192D01*
G37*
D24*
X92765000Y-65660000D03*
D13*
G36*
X93036759Y-67681192D02*
G01*
X93060785Y-67684756D01*
X93084345Y-67690657D01*
X93107214Y-67698840D01*
X93129171Y-67709224D01*
X93150004Y-67721711D01*
X93169512Y-67736180D01*
X93187509Y-67752491D01*
X93203820Y-67770488D01*
X93218289Y-67789996D01*
X93230776Y-67810829D01*
X93241160Y-67832786D01*
X93249343Y-67855655D01*
X93255244Y-67879215D01*
X93258808Y-67903241D01*
X93260000Y-67927500D01*
X93260000Y-68472500D01*
X93258808Y-68496759D01*
X93255244Y-68520785D01*
X93249343Y-68544345D01*
X93241160Y-68567214D01*
X93230776Y-68589171D01*
X93218289Y-68610004D01*
X93203820Y-68629512D01*
X93187509Y-68647509D01*
X93169512Y-68663820D01*
X93150004Y-68678289D01*
X93129171Y-68690776D01*
X93107214Y-68701160D01*
X93084345Y-68709343D01*
X93060785Y-68715244D01*
X93036759Y-68718808D01*
X93012500Y-68720000D01*
X92517500Y-68720000D01*
X92493241Y-68718808D01*
X92469215Y-68715244D01*
X92445655Y-68709343D01*
X92422786Y-68701160D01*
X92400829Y-68690776D01*
X92379996Y-68678289D01*
X92360488Y-68663820D01*
X92342491Y-68647509D01*
X92326180Y-68629512D01*
X92311711Y-68610004D01*
X92299224Y-68589171D01*
X92288840Y-68567214D01*
X92280657Y-68544345D01*
X92274756Y-68520785D01*
X92271192Y-68496759D01*
X92270000Y-68472500D01*
X92270000Y-67927500D01*
X92271192Y-67903241D01*
X92274756Y-67879215D01*
X92280657Y-67855655D01*
X92288840Y-67832786D01*
X92299224Y-67810829D01*
X92311711Y-67789996D01*
X92326180Y-67770488D01*
X92342491Y-67752491D01*
X92360488Y-67736180D01*
X92379996Y-67721711D01*
X92400829Y-67709224D01*
X92422786Y-67698840D01*
X92445655Y-67690657D01*
X92469215Y-67684756D01*
X92493241Y-67681192D01*
X92517500Y-67680000D01*
X93012500Y-67680000D01*
X93036759Y-67681192D01*
X93036759Y-67681192D01*
G37*
D24*
X92765000Y-68200000D03*
D13*
G36*
X94006759Y-67681192D02*
G01*
X94030785Y-67684756D01*
X94054345Y-67690657D01*
X94077214Y-67698840D01*
X94099171Y-67709224D01*
X94120004Y-67721711D01*
X94139512Y-67736180D01*
X94157509Y-67752491D01*
X94173820Y-67770488D01*
X94188289Y-67789996D01*
X94200776Y-67810829D01*
X94211160Y-67832786D01*
X94219343Y-67855655D01*
X94225244Y-67879215D01*
X94228808Y-67903241D01*
X94230000Y-67927500D01*
X94230000Y-68472500D01*
X94228808Y-68496759D01*
X94225244Y-68520785D01*
X94219343Y-68544345D01*
X94211160Y-68567214D01*
X94200776Y-68589171D01*
X94188289Y-68610004D01*
X94173820Y-68629512D01*
X94157509Y-68647509D01*
X94139512Y-68663820D01*
X94120004Y-68678289D01*
X94099171Y-68690776D01*
X94077214Y-68701160D01*
X94054345Y-68709343D01*
X94030785Y-68715244D01*
X94006759Y-68718808D01*
X93982500Y-68720000D01*
X93487500Y-68720000D01*
X93463241Y-68718808D01*
X93439215Y-68715244D01*
X93415655Y-68709343D01*
X93392786Y-68701160D01*
X93370829Y-68690776D01*
X93349996Y-68678289D01*
X93330488Y-68663820D01*
X93312491Y-68647509D01*
X93296180Y-68629512D01*
X93281711Y-68610004D01*
X93269224Y-68589171D01*
X93258840Y-68567214D01*
X93250657Y-68544345D01*
X93244756Y-68520785D01*
X93241192Y-68496759D01*
X93240000Y-68472500D01*
X93240000Y-67927500D01*
X93241192Y-67903241D01*
X93244756Y-67879215D01*
X93250657Y-67855655D01*
X93258840Y-67832786D01*
X93269224Y-67810829D01*
X93281711Y-67789996D01*
X93296180Y-67770488D01*
X93312491Y-67752491D01*
X93330488Y-67736180D01*
X93349996Y-67721711D01*
X93370829Y-67709224D01*
X93392786Y-67698840D01*
X93415655Y-67690657D01*
X93439215Y-67684756D01*
X93463241Y-67681192D01*
X93487500Y-67680000D01*
X93982500Y-67680000D01*
X94006759Y-67681192D01*
X94006759Y-67681192D01*
G37*
D24*
X93735000Y-68200000D03*
D13*
G36*
X94006759Y-70221192D02*
G01*
X94030785Y-70224756D01*
X94054345Y-70230657D01*
X94077214Y-70238840D01*
X94099171Y-70249224D01*
X94120004Y-70261711D01*
X94139512Y-70276180D01*
X94157509Y-70292491D01*
X94173820Y-70310488D01*
X94188289Y-70329996D01*
X94200776Y-70350829D01*
X94211160Y-70372786D01*
X94219343Y-70395655D01*
X94225244Y-70419215D01*
X94228808Y-70443241D01*
X94230000Y-70467500D01*
X94230000Y-71012500D01*
X94228808Y-71036759D01*
X94225244Y-71060785D01*
X94219343Y-71084345D01*
X94211160Y-71107214D01*
X94200776Y-71129171D01*
X94188289Y-71150004D01*
X94173820Y-71169512D01*
X94157509Y-71187509D01*
X94139512Y-71203820D01*
X94120004Y-71218289D01*
X94099171Y-71230776D01*
X94077214Y-71241160D01*
X94054345Y-71249343D01*
X94030785Y-71255244D01*
X94006759Y-71258808D01*
X93982500Y-71260000D01*
X93487500Y-71260000D01*
X93463241Y-71258808D01*
X93439215Y-71255244D01*
X93415655Y-71249343D01*
X93392786Y-71241160D01*
X93370829Y-71230776D01*
X93349996Y-71218289D01*
X93330488Y-71203820D01*
X93312491Y-71187509D01*
X93296180Y-71169512D01*
X93281711Y-71150004D01*
X93269224Y-71129171D01*
X93258840Y-71107214D01*
X93250657Y-71084345D01*
X93244756Y-71060785D01*
X93241192Y-71036759D01*
X93240000Y-71012500D01*
X93240000Y-70467500D01*
X93241192Y-70443241D01*
X93244756Y-70419215D01*
X93250657Y-70395655D01*
X93258840Y-70372786D01*
X93269224Y-70350829D01*
X93281711Y-70329996D01*
X93296180Y-70310488D01*
X93312491Y-70292491D01*
X93330488Y-70276180D01*
X93349996Y-70261711D01*
X93370829Y-70249224D01*
X93392786Y-70238840D01*
X93415655Y-70230657D01*
X93439215Y-70224756D01*
X93463241Y-70221192D01*
X93487500Y-70220000D01*
X93982500Y-70220000D01*
X94006759Y-70221192D01*
X94006759Y-70221192D01*
G37*
D24*
X93735000Y-70740000D03*
D13*
G36*
X93036759Y-70221192D02*
G01*
X93060785Y-70224756D01*
X93084345Y-70230657D01*
X93107214Y-70238840D01*
X93129171Y-70249224D01*
X93150004Y-70261711D01*
X93169512Y-70276180D01*
X93187509Y-70292491D01*
X93203820Y-70310488D01*
X93218289Y-70329996D01*
X93230776Y-70350829D01*
X93241160Y-70372786D01*
X93249343Y-70395655D01*
X93255244Y-70419215D01*
X93258808Y-70443241D01*
X93260000Y-70467500D01*
X93260000Y-71012500D01*
X93258808Y-71036759D01*
X93255244Y-71060785D01*
X93249343Y-71084345D01*
X93241160Y-71107214D01*
X93230776Y-71129171D01*
X93218289Y-71150004D01*
X93203820Y-71169512D01*
X93187509Y-71187509D01*
X93169512Y-71203820D01*
X93150004Y-71218289D01*
X93129171Y-71230776D01*
X93107214Y-71241160D01*
X93084345Y-71249343D01*
X93060785Y-71255244D01*
X93036759Y-71258808D01*
X93012500Y-71260000D01*
X92517500Y-71260000D01*
X92493241Y-71258808D01*
X92469215Y-71255244D01*
X92445655Y-71249343D01*
X92422786Y-71241160D01*
X92400829Y-71230776D01*
X92379996Y-71218289D01*
X92360488Y-71203820D01*
X92342491Y-71187509D01*
X92326180Y-71169512D01*
X92311711Y-71150004D01*
X92299224Y-71129171D01*
X92288840Y-71107214D01*
X92280657Y-71084345D01*
X92274756Y-71060785D01*
X92271192Y-71036759D01*
X92270000Y-71012500D01*
X92270000Y-70467500D01*
X92271192Y-70443241D01*
X92274756Y-70419215D01*
X92280657Y-70395655D01*
X92288840Y-70372786D01*
X92299224Y-70350829D01*
X92311711Y-70329996D01*
X92326180Y-70310488D01*
X92342491Y-70292491D01*
X92360488Y-70276180D01*
X92379996Y-70261711D01*
X92400829Y-70249224D01*
X92422786Y-70238840D01*
X92445655Y-70230657D01*
X92469215Y-70224756D01*
X92493241Y-70221192D01*
X92517500Y-70220000D01*
X93012500Y-70220000D01*
X93036759Y-70221192D01*
X93036759Y-70221192D01*
G37*
D24*
X92765000Y-70740000D03*
D13*
G36*
X93036759Y-72761192D02*
G01*
X93060785Y-72764756D01*
X93084345Y-72770657D01*
X93107214Y-72778840D01*
X93129171Y-72789224D01*
X93150004Y-72801711D01*
X93169512Y-72816180D01*
X93187509Y-72832491D01*
X93203820Y-72850488D01*
X93218289Y-72869996D01*
X93230776Y-72890829D01*
X93241160Y-72912786D01*
X93249343Y-72935655D01*
X93255244Y-72959215D01*
X93258808Y-72983241D01*
X93260000Y-73007500D01*
X93260000Y-73552500D01*
X93258808Y-73576759D01*
X93255244Y-73600785D01*
X93249343Y-73624345D01*
X93241160Y-73647214D01*
X93230776Y-73669171D01*
X93218289Y-73690004D01*
X93203820Y-73709512D01*
X93187509Y-73727509D01*
X93169512Y-73743820D01*
X93150004Y-73758289D01*
X93129171Y-73770776D01*
X93107214Y-73781160D01*
X93084345Y-73789343D01*
X93060785Y-73795244D01*
X93036759Y-73798808D01*
X93012500Y-73800000D01*
X92517500Y-73800000D01*
X92493241Y-73798808D01*
X92469215Y-73795244D01*
X92445655Y-73789343D01*
X92422786Y-73781160D01*
X92400829Y-73770776D01*
X92379996Y-73758289D01*
X92360488Y-73743820D01*
X92342491Y-73727509D01*
X92326180Y-73709512D01*
X92311711Y-73690004D01*
X92299224Y-73669171D01*
X92288840Y-73647214D01*
X92280657Y-73624345D01*
X92274756Y-73600785D01*
X92271192Y-73576759D01*
X92270000Y-73552500D01*
X92270000Y-73007500D01*
X92271192Y-72983241D01*
X92274756Y-72959215D01*
X92280657Y-72935655D01*
X92288840Y-72912786D01*
X92299224Y-72890829D01*
X92311711Y-72869996D01*
X92326180Y-72850488D01*
X92342491Y-72832491D01*
X92360488Y-72816180D01*
X92379996Y-72801711D01*
X92400829Y-72789224D01*
X92422786Y-72778840D01*
X92445655Y-72770657D01*
X92469215Y-72764756D01*
X92493241Y-72761192D01*
X92517500Y-72760000D01*
X93012500Y-72760000D01*
X93036759Y-72761192D01*
X93036759Y-72761192D01*
G37*
D24*
X92765000Y-73280000D03*
D13*
G36*
X94006759Y-72761192D02*
G01*
X94030785Y-72764756D01*
X94054345Y-72770657D01*
X94077214Y-72778840D01*
X94099171Y-72789224D01*
X94120004Y-72801711D01*
X94139512Y-72816180D01*
X94157509Y-72832491D01*
X94173820Y-72850488D01*
X94188289Y-72869996D01*
X94200776Y-72890829D01*
X94211160Y-72912786D01*
X94219343Y-72935655D01*
X94225244Y-72959215D01*
X94228808Y-72983241D01*
X94230000Y-73007500D01*
X94230000Y-73552500D01*
X94228808Y-73576759D01*
X94225244Y-73600785D01*
X94219343Y-73624345D01*
X94211160Y-73647214D01*
X94200776Y-73669171D01*
X94188289Y-73690004D01*
X94173820Y-73709512D01*
X94157509Y-73727509D01*
X94139512Y-73743820D01*
X94120004Y-73758289D01*
X94099171Y-73770776D01*
X94077214Y-73781160D01*
X94054345Y-73789343D01*
X94030785Y-73795244D01*
X94006759Y-73798808D01*
X93982500Y-73800000D01*
X93487500Y-73800000D01*
X93463241Y-73798808D01*
X93439215Y-73795244D01*
X93415655Y-73789343D01*
X93392786Y-73781160D01*
X93370829Y-73770776D01*
X93349996Y-73758289D01*
X93330488Y-73743820D01*
X93312491Y-73727509D01*
X93296180Y-73709512D01*
X93281711Y-73690004D01*
X93269224Y-73669171D01*
X93258840Y-73647214D01*
X93250657Y-73624345D01*
X93244756Y-73600785D01*
X93241192Y-73576759D01*
X93240000Y-73552500D01*
X93240000Y-73007500D01*
X93241192Y-72983241D01*
X93244756Y-72959215D01*
X93250657Y-72935655D01*
X93258840Y-72912786D01*
X93269224Y-72890829D01*
X93281711Y-72869996D01*
X93296180Y-72850488D01*
X93312491Y-72832491D01*
X93330488Y-72816180D01*
X93349996Y-72801711D01*
X93370829Y-72789224D01*
X93392786Y-72778840D01*
X93415655Y-72770657D01*
X93439215Y-72764756D01*
X93463241Y-72761192D01*
X93487500Y-72760000D01*
X93982500Y-72760000D01*
X94006759Y-72761192D01*
X94006759Y-72761192D01*
G37*
D24*
X93735000Y-73280000D03*
D13*
G36*
X132736759Y-70421192D02*
G01*
X132760785Y-70424756D01*
X132784345Y-70430657D01*
X132807214Y-70438840D01*
X132829171Y-70449224D01*
X132850004Y-70461711D01*
X132869512Y-70476180D01*
X132887509Y-70492491D01*
X132903820Y-70510488D01*
X132918289Y-70529996D01*
X132930776Y-70550829D01*
X132941160Y-70572786D01*
X132949343Y-70595655D01*
X132955244Y-70619215D01*
X132958808Y-70643241D01*
X132960000Y-70667500D01*
X132960000Y-71162500D01*
X132958808Y-71186759D01*
X132955244Y-71210785D01*
X132949343Y-71234345D01*
X132941160Y-71257214D01*
X132930776Y-71279171D01*
X132918289Y-71300004D01*
X132903820Y-71319512D01*
X132887509Y-71337509D01*
X132869512Y-71353820D01*
X132850004Y-71368289D01*
X132829171Y-71380776D01*
X132807214Y-71391160D01*
X132784345Y-71399343D01*
X132760785Y-71405244D01*
X132736759Y-71408808D01*
X132712500Y-71410000D01*
X132167500Y-71410000D01*
X132143241Y-71408808D01*
X132119215Y-71405244D01*
X132095655Y-71399343D01*
X132072786Y-71391160D01*
X132050829Y-71380776D01*
X132029996Y-71368289D01*
X132010488Y-71353820D01*
X131992491Y-71337509D01*
X131976180Y-71319512D01*
X131961711Y-71300004D01*
X131949224Y-71279171D01*
X131938840Y-71257214D01*
X131930657Y-71234345D01*
X131924756Y-71210785D01*
X131921192Y-71186759D01*
X131920000Y-71162500D01*
X131920000Y-70667500D01*
X131921192Y-70643241D01*
X131924756Y-70619215D01*
X131930657Y-70595655D01*
X131938840Y-70572786D01*
X131949224Y-70550829D01*
X131961711Y-70529996D01*
X131976180Y-70510488D01*
X131992491Y-70492491D01*
X132010488Y-70476180D01*
X132029996Y-70461711D01*
X132050829Y-70449224D01*
X132072786Y-70438840D01*
X132095655Y-70430657D01*
X132119215Y-70424756D01*
X132143241Y-70421192D01*
X132167500Y-70420000D01*
X132712500Y-70420000D01*
X132736759Y-70421192D01*
X132736759Y-70421192D01*
G37*
D24*
X132440000Y-70915000D03*
D13*
G36*
X132736759Y-71391192D02*
G01*
X132760785Y-71394756D01*
X132784345Y-71400657D01*
X132807214Y-71408840D01*
X132829171Y-71419224D01*
X132850004Y-71431711D01*
X132869512Y-71446180D01*
X132887509Y-71462491D01*
X132903820Y-71480488D01*
X132918289Y-71499996D01*
X132930776Y-71520829D01*
X132941160Y-71542786D01*
X132949343Y-71565655D01*
X132955244Y-71589215D01*
X132958808Y-71613241D01*
X132960000Y-71637500D01*
X132960000Y-72132500D01*
X132958808Y-72156759D01*
X132955244Y-72180785D01*
X132949343Y-72204345D01*
X132941160Y-72227214D01*
X132930776Y-72249171D01*
X132918289Y-72270004D01*
X132903820Y-72289512D01*
X132887509Y-72307509D01*
X132869512Y-72323820D01*
X132850004Y-72338289D01*
X132829171Y-72350776D01*
X132807214Y-72361160D01*
X132784345Y-72369343D01*
X132760785Y-72375244D01*
X132736759Y-72378808D01*
X132712500Y-72380000D01*
X132167500Y-72380000D01*
X132143241Y-72378808D01*
X132119215Y-72375244D01*
X132095655Y-72369343D01*
X132072786Y-72361160D01*
X132050829Y-72350776D01*
X132029996Y-72338289D01*
X132010488Y-72323820D01*
X131992491Y-72307509D01*
X131976180Y-72289512D01*
X131961711Y-72270004D01*
X131949224Y-72249171D01*
X131938840Y-72227214D01*
X131930657Y-72204345D01*
X131924756Y-72180785D01*
X131921192Y-72156759D01*
X131920000Y-72132500D01*
X131920000Y-71637500D01*
X131921192Y-71613241D01*
X131924756Y-71589215D01*
X131930657Y-71565655D01*
X131938840Y-71542786D01*
X131949224Y-71520829D01*
X131961711Y-71499996D01*
X131976180Y-71480488D01*
X131992491Y-71462491D01*
X132010488Y-71446180D01*
X132029996Y-71431711D01*
X132050829Y-71419224D01*
X132072786Y-71408840D01*
X132095655Y-71400657D01*
X132119215Y-71394756D01*
X132143241Y-71391192D01*
X132167500Y-71390000D01*
X132712500Y-71390000D01*
X132736759Y-71391192D01*
X132736759Y-71391192D01*
G37*
D24*
X132440000Y-71885000D03*
D13*
G36*
X100621759Y-63551192D02*
G01*
X100645785Y-63554756D01*
X100669345Y-63560657D01*
X100692214Y-63568840D01*
X100714171Y-63579224D01*
X100735004Y-63591711D01*
X100754512Y-63606180D01*
X100772509Y-63622491D01*
X100788820Y-63640488D01*
X100803289Y-63659996D01*
X100815776Y-63680829D01*
X100826160Y-63702786D01*
X100834343Y-63725655D01*
X100840244Y-63749215D01*
X100843808Y-63773241D01*
X100845000Y-63797500D01*
X100845000Y-64342500D01*
X100843808Y-64366759D01*
X100840244Y-64390785D01*
X100834343Y-64414345D01*
X100826160Y-64437214D01*
X100815776Y-64459171D01*
X100803289Y-64480004D01*
X100788820Y-64499512D01*
X100772509Y-64517509D01*
X100754512Y-64533820D01*
X100735004Y-64548289D01*
X100714171Y-64560776D01*
X100692214Y-64571160D01*
X100669345Y-64579343D01*
X100645785Y-64585244D01*
X100621759Y-64588808D01*
X100597500Y-64590000D01*
X100102500Y-64590000D01*
X100078241Y-64588808D01*
X100054215Y-64585244D01*
X100030655Y-64579343D01*
X100007786Y-64571160D01*
X99985829Y-64560776D01*
X99964996Y-64548289D01*
X99945488Y-64533820D01*
X99927491Y-64517509D01*
X99911180Y-64499512D01*
X99896711Y-64480004D01*
X99884224Y-64459171D01*
X99873840Y-64437214D01*
X99865657Y-64414345D01*
X99859756Y-64390785D01*
X99856192Y-64366759D01*
X99855000Y-64342500D01*
X99855000Y-63797500D01*
X99856192Y-63773241D01*
X99859756Y-63749215D01*
X99865657Y-63725655D01*
X99873840Y-63702786D01*
X99884224Y-63680829D01*
X99896711Y-63659996D01*
X99911180Y-63640488D01*
X99927491Y-63622491D01*
X99945488Y-63606180D01*
X99964996Y-63591711D01*
X99985829Y-63579224D01*
X100007786Y-63568840D01*
X100030655Y-63560657D01*
X100054215Y-63554756D01*
X100078241Y-63551192D01*
X100102500Y-63550000D01*
X100597500Y-63550000D01*
X100621759Y-63551192D01*
X100621759Y-63551192D01*
G37*
D24*
X100350000Y-64070000D03*
D13*
G36*
X101591759Y-63551192D02*
G01*
X101615785Y-63554756D01*
X101639345Y-63560657D01*
X101662214Y-63568840D01*
X101684171Y-63579224D01*
X101705004Y-63591711D01*
X101724512Y-63606180D01*
X101742509Y-63622491D01*
X101758820Y-63640488D01*
X101773289Y-63659996D01*
X101785776Y-63680829D01*
X101796160Y-63702786D01*
X101804343Y-63725655D01*
X101810244Y-63749215D01*
X101813808Y-63773241D01*
X101815000Y-63797500D01*
X101815000Y-64342500D01*
X101813808Y-64366759D01*
X101810244Y-64390785D01*
X101804343Y-64414345D01*
X101796160Y-64437214D01*
X101785776Y-64459171D01*
X101773289Y-64480004D01*
X101758820Y-64499512D01*
X101742509Y-64517509D01*
X101724512Y-64533820D01*
X101705004Y-64548289D01*
X101684171Y-64560776D01*
X101662214Y-64571160D01*
X101639345Y-64579343D01*
X101615785Y-64585244D01*
X101591759Y-64588808D01*
X101567500Y-64590000D01*
X101072500Y-64590000D01*
X101048241Y-64588808D01*
X101024215Y-64585244D01*
X101000655Y-64579343D01*
X100977786Y-64571160D01*
X100955829Y-64560776D01*
X100934996Y-64548289D01*
X100915488Y-64533820D01*
X100897491Y-64517509D01*
X100881180Y-64499512D01*
X100866711Y-64480004D01*
X100854224Y-64459171D01*
X100843840Y-64437214D01*
X100835657Y-64414345D01*
X100829756Y-64390785D01*
X100826192Y-64366759D01*
X100825000Y-64342500D01*
X100825000Y-63797500D01*
X100826192Y-63773241D01*
X100829756Y-63749215D01*
X100835657Y-63725655D01*
X100843840Y-63702786D01*
X100854224Y-63680829D01*
X100866711Y-63659996D01*
X100881180Y-63640488D01*
X100897491Y-63622491D01*
X100915488Y-63606180D01*
X100934996Y-63591711D01*
X100955829Y-63579224D01*
X100977786Y-63568840D01*
X101000655Y-63560657D01*
X101024215Y-63554756D01*
X101048241Y-63551192D01*
X101072500Y-63550000D01*
X101567500Y-63550000D01*
X101591759Y-63551192D01*
X101591759Y-63551192D01*
G37*
D24*
X101320000Y-64070000D03*
D13*
G36*
X94006759Y-75301192D02*
G01*
X94030785Y-75304756D01*
X94054345Y-75310657D01*
X94077214Y-75318840D01*
X94099171Y-75329224D01*
X94120004Y-75341711D01*
X94139512Y-75356180D01*
X94157509Y-75372491D01*
X94173820Y-75390488D01*
X94188289Y-75409996D01*
X94200776Y-75430829D01*
X94211160Y-75452786D01*
X94219343Y-75475655D01*
X94225244Y-75499215D01*
X94228808Y-75523241D01*
X94230000Y-75547500D01*
X94230000Y-76092500D01*
X94228808Y-76116759D01*
X94225244Y-76140785D01*
X94219343Y-76164345D01*
X94211160Y-76187214D01*
X94200776Y-76209171D01*
X94188289Y-76230004D01*
X94173820Y-76249512D01*
X94157509Y-76267509D01*
X94139512Y-76283820D01*
X94120004Y-76298289D01*
X94099171Y-76310776D01*
X94077214Y-76321160D01*
X94054345Y-76329343D01*
X94030785Y-76335244D01*
X94006759Y-76338808D01*
X93982500Y-76340000D01*
X93487500Y-76340000D01*
X93463241Y-76338808D01*
X93439215Y-76335244D01*
X93415655Y-76329343D01*
X93392786Y-76321160D01*
X93370829Y-76310776D01*
X93349996Y-76298289D01*
X93330488Y-76283820D01*
X93312491Y-76267509D01*
X93296180Y-76249512D01*
X93281711Y-76230004D01*
X93269224Y-76209171D01*
X93258840Y-76187214D01*
X93250657Y-76164345D01*
X93244756Y-76140785D01*
X93241192Y-76116759D01*
X93240000Y-76092500D01*
X93240000Y-75547500D01*
X93241192Y-75523241D01*
X93244756Y-75499215D01*
X93250657Y-75475655D01*
X93258840Y-75452786D01*
X93269224Y-75430829D01*
X93281711Y-75409996D01*
X93296180Y-75390488D01*
X93312491Y-75372491D01*
X93330488Y-75356180D01*
X93349996Y-75341711D01*
X93370829Y-75329224D01*
X93392786Y-75318840D01*
X93415655Y-75310657D01*
X93439215Y-75304756D01*
X93463241Y-75301192D01*
X93487500Y-75300000D01*
X93982500Y-75300000D01*
X94006759Y-75301192D01*
X94006759Y-75301192D01*
G37*
D24*
X93735000Y-75820000D03*
D13*
G36*
X93036759Y-75301192D02*
G01*
X93060785Y-75304756D01*
X93084345Y-75310657D01*
X93107214Y-75318840D01*
X93129171Y-75329224D01*
X93150004Y-75341711D01*
X93169512Y-75356180D01*
X93187509Y-75372491D01*
X93203820Y-75390488D01*
X93218289Y-75409996D01*
X93230776Y-75430829D01*
X93241160Y-75452786D01*
X93249343Y-75475655D01*
X93255244Y-75499215D01*
X93258808Y-75523241D01*
X93260000Y-75547500D01*
X93260000Y-76092500D01*
X93258808Y-76116759D01*
X93255244Y-76140785D01*
X93249343Y-76164345D01*
X93241160Y-76187214D01*
X93230776Y-76209171D01*
X93218289Y-76230004D01*
X93203820Y-76249512D01*
X93187509Y-76267509D01*
X93169512Y-76283820D01*
X93150004Y-76298289D01*
X93129171Y-76310776D01*
X93107214Y-76321160D01*
X93084345Y-76329343D01*
X93060785Y-76335244D01*
X93036759Y-76338808D01*
X93012500Y-76340000D01*
X92517500Y-76340000D01*
X92493241Y-76338808D01*
X92469215Y-76335244D01*
X92445655Y-76329343D01*
X92422786Y-76321160D01*
X92400829Y-76310776D01*
X92379996Y-76298289D01*
X92360488Y-76283820D01*
X92342491Y-76267509D01*
X92326180Y-76249512D01*
X92311711Y-76230004D01*
X92299224Y-76209171D01*
X92288840Y-76187214D01*
X92280657Y-76164345D01*
X92274756Y-76140785D01*
X92271192Y-76116759D01*
X92270000Y-76092500D01*
X92270000Y-75547500D01*
X92271192Y-75523241D01*
X92274756Y-75499215D01*
X92280657Y-75475655D01*
X92288840Y-75452786D01*
X92299224Y-75430829D01*
X92311711Y-75409996D01*
X92326180Y-75390488D01*
X92342491Y-75372491D01*
X92360488Y-75356180D01*
X92379996Y-75341711D01*
X92400829Y-75329224D01*
X92422786Y-75318840D01*
X92445655Y-75310657D01*
X92469215Y-75304756D01*
X92493241Y-75301192D01*
X92517500Y-75300000D01*
X93012500Y-75300000D01*
X93036759Y-75301192D01*
X93036759Y-75301192D01*
G37*
D24*
X92765000Y-75820000D03*
D13*
G36*
X93036759Y-77841192D02*
G01*
X93060785Y-77844756D01*
X93084345Y-77850657D01*
X93107214Y-77858840D01*
X93129171Y-77869224D01*
X93150004Y-77881711D01*
X93169512Y-77896180D01*
X93187509Y-77912491D01*
X93203820Y-77930488D01*
X93218289Y-77949996D01*
X93230776Y-77970829D01*
X93241160Y-77992786D01*
X93249343Y-78015655D01*
X93255244Y-78039215D01*
X93258808Y-78063241D01*
X93260000Y-78087500D01*
X93260000Y-78632500D01*
X93258808Y-78656759D01*
X93255244Y-78680785D01*
X93249343Y-78704345D01*
X93241160Y-78727214D01*
X93230776Y-78749171D01*
X93218289Y-78770004D01*
X93203820Y-78789512D01*
X93187509Y-78807509D01*
X93169512Y-78823820D01*
X93150004Y-78838289D01*
X93129171Y-78850776D01*
X93107214Y-78861160D01*
X93084345Y-78869343D01*
X93060785Y-78875244D01*
X93036759Y-78878808D01*
X93012500Y-78880000D01*
X92517500Y-78880000D01*
X92493241Y-78878808D01*
X92469215Y-78875244D01*
X92445655Y-78869343D01*
X92422786Y-78861160D01*
X92400829Y-78850776D01*
X92379996Y-78838289D01*
X92360488Y-78823820D01*
X92342491Y-78807509D01*
X92326180Y-78789512D01*
X92311711Y-78770004D01*
X92299224Y-78749171D01*
X92288840Y-78727214D01*
X92280657Y-78704345D01*
X92274756Y-78680785D01*
X92271192Y-78656759D01*
X92270000Y-78632500D01*
X92270000Y-78087500D01*
X92271192Y-78063241D01*
X92274756Y-78039215D01*
X92280657Y-78015655D01*
X92288840Y-77992786D01*
X92299224Y-77970829D01*
X92311711Y-77949996D01*
X92326180Y-77930488D01*
X92342491Y-77912491D01*
X92360488Y-77896180D01*
X92379996Y-77881711D01*
X92400829Y-77869224D01*
X92422786Y-77858840D01*
X92445655Y-77850657D01*
X92469215Y-77844756D01*
X92493241Y-77841192D01*
X92517500Y-77840000D01*
X93012500Y-77840000D01*
X93036759Y-77841192D01*
X93036759Y-77841192D01*
G37*
D24*
X92765000Y-78360000D03*
D13*
G36*
X94006759Y-77841192D02*
G01*
X94030785Y-77844756D01*
X94054345Y-77850657D01*
X94077214Y-77858840D01*
X94099171Y-77869224D01*
X94120004Y-77881711D01*
X94139512Y-77896180D01*
X94157509Y-77912491D01*
X94173820Y-77930488D01*
X94188289Y-77949996D01*
X94200776Y-77970829D01*
X94211160Y-77992786D01*
X94219343Y-78015655D01*
X94225244Y-78039215D01*
X94228808Y-78063241D01*
X94230000Y-78087500D01*
X94230000Y-78632500D01*
X94228808Y-78656759D01*
X94225244Y-78680785D01*
X94219343Y-78704345D01*
X94211160Y-78727214D01*
X94200776Y-78749171D01*
X94188289Y-78770004D01*
X94173820Y-78789512D01*
X94157509Y-78807509D01*
X94139512Y-78823820D01*
X94120004Y-78838289D01*
X94099171Y-78850776D01*
X94077214Y-78861160D01*
X94054345Y-78869343D01*
X94030785Y-78875244D01*
X94006759Y-78878808D01*
X93982500Y-78880000D01*
X93487500Y-78880000D01*
X93463241Y-78878808D01*
X93439215Y-78875244D01*
X93415655Y-78869343D01*
X93392786Y-78861160D01*
X93370829Y-78850776D01*
X93349996Y-78838289D01*
X93330488Y-78823820D01*
X93312491Y-78807509D01*
X93296180Y-78789512D01*
X93281711Y-78770004D01*
X93269224Y-78749171D01*
X93258840Y-78727214D01*
X93250657Y-78704345D01*
X93244756Y-78680785D01*
X93241192Y-78656759D01*
X93240000Y-78632500D01*
X93240000Y-78087500D01*
X93241192Y-78063241D01*
X93244756Y-78039215D01*
X93250657Y-78015655D01*
X93258840Y-77992786D01*
X93269224Y-77970829D01*
X93281711Y-77949996D01*
X93296180Y-77930488D01*
X93312491Y-77912491D01*
X93330488Y-77896180D01*
X93349996Y-77881711D01*
X93370829Y-77869224D01*
X93392786Y-77858840D01*
X93415655Y-77850657D01*
X93439215Y-77844756D01*
X93463241Y-77841192D01*
X93487500Y-77840000D01*
X93982500Y-77840000D01*
X94006759Y-77841192D01*
X94006759Y-77841192D01*
G37*
D24*
X93735000Y-78360000D03*
D13*
G36*
X94006759Y-80381192D02*
G01*
X94030785Y-80384756D01*
X94054345Y-80390657D01*
X94077214Y-80398840D01*
X94099171Y-80409224D01*
X94120004Y-80421711D01*
X94139512Y-80436180D01*
X94157509Y-80452491D01*
X94173820Y-80470488D01*
X94188289Y-80489996D01*
X94200776Y-80510829D01*
X94211160Y-80532786D01*
X94219343Y-80555655D01*
X94225244Y-80579215D01*
X94228808Y-80603241D01*
X94230000Y-80627500D01*
X94230000Y-81172500D01*
X94228808Y-81196759D01*
X94225244Y-81220785D01*
X94219343Y-81244345D01*
X94211160Y-81267214D01*
X94200776Y-81289171D01*
X94188289Y-81310004D01*
X94173820Y-81329512D01*
X94157509Y-81347509D01*
X94139512Y-81363820D01*
X94120004Y-81378289D01*
X94099171Y-81390776D01*
X94077214Y-81401160D01*
X94054345Y-81409343D01*
X94030785Y-81415244D01*
X94006759Y-81418808D01*
X93982500Y-81420000D01*
X93487500Y-81420000D01*
X93463241Y-81418808D01*
X93439215Y-81415244D01*
X93415655Y-81409343D01*
X93392786Y-81401160D01*
X93370829Y-81390776D01*
X93349996Y-81378289D01*
X93330488Y-81363820D01*
X93312491Y-81347509D01*
X93296180Y-81329512D01*
X93281711Y-81310004D01*
X93269224Y-81289171D01*
X93258840Y-81267214D01*
X93250657Y-81244345D01*
X93244756Y-81220785D01*
X93241192Y-81196759D01*
X93240000Y-81172500D01*
X93240000Y-80627500D01*
X93241192Y-80603241D01*
X93244756Y-80579215D01*
X93250657Y-80555655D01*
X93258840Y-80532786D01*
X93269224Y-80510829D01*
X93281711Y-80489996D01*
X93296180Y-80470488D01*
X93312491Y-80452491D01*
X93330488Y-80436180D01*
X93349996Y-80421711D01*
X93370829Y-80409224D01*
X93392786Y-80398840D01*
X93415655Y-80390657D01*
X93439215Y-80384756D01*
X93463241Y-80381192D01*
X93487500Y-80380000D01*
X93982500Y-80380000D01*
X94006759Y-80381192D01*
X94006759Y-80381192D01*
G37*
D24*
X93735000Y-80900000D03*
D13*
G36*
X93036759Y-80381192D02*
G01*
X93060785Y-80384756D01*
X93084345Y-80390657D01*
X93107214Y-80398840D01*
X93129171Y-80409224D01*
X93150004Y-80421711D01*
X93169512Y-80436180D01*
X93187509Y-80452491D01*
X93203820Y-80470488D01*
X93218289Y-80489996D01*
X93230776Y-80510829D01*
X93241160Y-80532786D01*
X93249343Y-80555655D01*
X93255244Y-80579215D01*
X93258808Y-80603241D01*
X93260000Y-80627500D01*
X93260000Y-81172500D01*
X93258808Y-81196759D01*
X93255244Y-81220785D01*
X93249343Y-81244345D01*
X93241160Y-81267214D01*
X93230776Y-81289171D01*
X93218289Y-81310004D01*
X93203820Y-81329512D01*
X93187509Y-81347509D01*
X93169512Y-81363820D01*
X93150004Y-81378289D01*
X93129171Y-81390776D01*
X93107214Y-81401160D01*
X93084345Y-81409343D01*
X93060785Y-81415244D01*
X93036759Y-81418808D01*
X93012500Y-81420000D01*
X92517500Y-81420000D01*
X92493241Y-81418808D01*
X92469215Y-81415244D01*
X92445655Y-81409343D01*
X92422786Y-81401160D01*
X92400829Y-81390776D01*
X92379996Y-81378289D01*
X92360488Y-81363820D01*
X92342491Y-81347509D01*
X92326180Y-81329512D01*
X92311711Y-81310004D01*
X92299224Y-81289171D01*
X92288840Y-81267214D01*
X92280657Y-81244345D01*
X92274756Y-81220785D01*
X92271192Y-81196759D01*
X92270000Y-81172500D01*
X92270000Y-80627500D01*
X92271192Y-80603241D01*
X92274756Y-80579215D01*
X92280657Y-80555655D01*
X92288840Y-80532786D01*
X92299224Y-80510829D01*
X92311711Y-80489996D01*
X92326180Y-80470488D01*
X92342491Y-80452491D01*
X92360488Y-80436180D01*
X92379996Y-80421711D01*
X92400829Y-80409224D01*
X92422786Y-80398840D01*
X92445655Y-80390657D01*
X92469215Y-80384756D01*
X92493241Y-80381192D01*
X92517500Y-80380000D01*
X93012500Y-80380000D01*
X93036759Y-80381192D01*
X93036759Y-80381192D01*
G37*
D24*
X92765000Y-80900000D03*
D13*
G36*
X139311759Y-71011192D02*
G01*
X139335785Y-71014756D01*
X139359345Y-71020657D01*
X139382214Y-71028840D01*
X139404171Y-71039224D01*
X139425004Y-71051711D01*
X139444512Y-71066180D01*
X139462509Y-71082491D01*
X139478820Y-71100488D01*
X139493289Y-71119996D01*
X139505776Y-71140829D01*
X139516160Y-71162786D01*
X139524343Y-71185655D01*
X139530244Y-71209215D01*
X139533808Y-71233241D01*
X139535000Y-71257500D01*
X139535000Y-71802500D01*
X139533808Y-71826759D01*
X139530244Y-71850785D01*
X139524343Y-71874345D01*
X139516160Y-71897214D01*
X139505776Y-71919171D01*
X139493289Y-71940004D01*
X139478820Y-71959512D01*
X139462509Y-71977509D01*
X139444512Y-71993820D01*
X139425004Y-72008289D01*
X139404171Y-72020776D01*
X139382214Y-72031160D01*
X139359345Y-72039343D01*
X139335785Y-72045244D01*
X139311759Y-72048808D01*
X139287500Y-72050000D01*
X138792500Y-72050000D01*
X138768241Y-72048808D01*
X138744215Y-72045244D01*
X138720655Y-72039343D01*
X138697786Y-72031160D01*
X138675829Y-72020776D01*
X138654996Y-72008289D01*
X138635488Y-71993820D01*
X138617491Y-71977509D01*
X138601180Y-71959512D01*
X138586711Y-71940004D01*
X138574224Y-71919171D01*
X138563840Y-71897214D01*
X138555657Y-71874345D01*
X138549756Y-71850785D01*
X138546192Y-71826759D01*
X138545000Y-71802500D01*
X138545000Y-71257500D01*
X138546192Y-71233241D01*
X138549756Y-71209215D01*
X138555657Y-71185655D01*
X138563840Y-71162786D01*
X138574224Y-71140829D01*
X138586711Y-71119996D01*
X138601180Y-71100488D01*
X138617491Y-71082491D01*
X138635488Y-71066180D01*
X138654996Y-71051711D01*
X138675829Y-71039224D01*
X138697786Y-71028840D01*
X138720655Y-71020657D01*
X138744215Y-71014756D01*
X138768241Y-71011192D01*
X138792500Y-71010000D01*
X139287500Y-71010000D01*
X139311759Y-71011192D01*
X139311759Y-71011192D01*
G37*
D24*
X139040000Y-71530000D03*
D13*
G36*
X138341759Y-71011192D02*
G01*
X138365785Y-71014756D01*
X138389345Y-71020657D01*
X138412214Y-71028840D01*
X138434171Y-71039224D01*
X138455004Y-71051711D01*
X138474512Y-71066180D01*
X138492509Y-71082491D01*
X138508820Y-71100488D01*
X138523289Y-71119996D01*
X138535776Y-71140829D01*
X138546160Y-71162786D01*
X138554343Y-71185655D01*
X138560244Y-71209215D01*
X138563808Y-71233241D01*
X138565000Y-71257500D01*
X138565000Y-71802500D01*
X138563808Y-71826759D01*
X138560244Y-71850785D01*
X138554343Y-71874345D01*
X138546160Y-71897214D01*
X138535776Y-71919171D01*
X138523289Y-71940004D01*
X138508820Y-71959512D01*
X138492509Y-71977509D01*
X138474512Y-71993820D01*
X138455004Y-72008289D01*
X138434171Y-72020776D01*
X138412214Y-72031160D01*
X138389345Y-72039343D01*
X138365785Y-72045244D01*
X138341759Y-72048808D01*
X138317500Y-72050000D01*
X137822500Y-72050000D01*
X137798241Y-72048808D01*
X137774215Y-72045244D01*
X137750655Y-72039343D01*
X137727786Y-72031160D01*
X137705829Y-72020776D01*
X137684996Y-72008289D01*
X137665488Y-71993820D01*
X137647491Y-71977509D01*
X137631180Y-71959512D01*
X137616711Y-71940004D01*
X137604224Y-71919171D01*
X137593840Y-71897214D01*
X137585657Y-71874345D01*
X137579756Y-71850785D01*
X137576192Y-71826759D01*
X137575000Y-71802500D01*
X137575000Y-71257500D01*
X137576192Y-71233241D01*
X137579756Y-71209215D01*
X137585657Y-71185655D01*
X137593840Y-71162786D01*
X137604224Y-71140829D01*
X137616711Y-71119996D01*
X137631180Y-71100488D01*
X137647491Y-71082491D01*
X137665488Y-71066180D01*
X137684996Y-71051711D01*
X137705829Y-71039224D01*
X137727786Y-71028840D01*
X137750655Y-71020657D01*
X137774215Y-71014756D01*
X137798241Y-71011192D01*
X137822500Y-71010000D01*
X138317500Y-71010000D01*
X138341759Y-71011192D01*
X138341759Y-71011192D01*
G37*
D24*
X138070000Y-71530000D03*
D13*
G36*
X134876759Y-73616192D02*
G01*
X134900785Y-73619756D01*
X134924345Y-73625657D01*
X134947214Y-73633840D01*
X134969171Y-73644224D01*
X134990004Y-73656711D01*
X135009512Y-73671180D01*
X135027509Y-73687491D01*
X135043820Y-73705488D01*
X135058289Y-73724996D01*
X135070776Y-73745829D01*
X135081160Y-73767786D01*
X135089343Y-73790655D01*
X135095244Y-73814215D01*
X135098808Y-73838241D01*
X135100000Y-73862500D01*
X135100000Y-74357500D01*
X135098808Y-74381759D01*
X135095244Y-74405785D01*
X135089343Y-74429345D01*
X135081160Y-74452214D01*
X135070776Y-74474171D01*
X135058289Y-74495004D01*
X135043820Y-74514512D01*
X135027509Y-74532509D01*
X135009512Y-74548820D01*
X134990004Y-74563289D01*
X134969171Y-74575776D01*
X134947214Y-74586160D01*
X134924345Y-74594343D01*
X134900785Y-74600244D01*
X134876759Y-74603808D01*
X134852500Y-74605000D01*
X134307500Y-74605000D01*
X134283241Y-74603808D01*
X134259215Y-74600244D01*
X134235655Y-74594343D01*
X134212786Y-74586160D01*
X134190829Y-74575776D01*
X134169996Y-74563289D01*
X134150488Y-74548820D01*
X134132491Y-74532509D01*
X134116180Y-74514512D01*
X134101711Y-74495004D01*
X134089224Y-74474171D01*
X134078840Y-74452214D01*
X134070657Y-74429345D01*
X134064756Y-74405785D01*
X134061192Y-74381759D01*
X134060000Y-74357500D01*
X134060000Y-73862500D01*
X134061192Y-73838241D01*
X134064756Y-73814215D01*
X134070657Y-73790655D01*
X134078840Y-73767786D01*
X134089224Y-73745829D01*
X134101711Y-73724996D01*
X134116180Y-73705488D01*
X134132491Y-73687491D01*
X134150488Y-73671180D01*
X134169996Y-73656711D01*
X134190829Y-73644224D01*
X134212786Y-73633840D01*
X134235655Y-73625657D01*
X134259215Y-73619756D01*
X134283241Y-73616192D01*
X134307500Y-73615000D01*
X134852500Y-73615000D01*
X134876759Y-73616192D01*
X134876759Y-73616192D01*
G37*
D24*
X134580000Y-74110000D03*
D13*
G36*
X134876759Y-74586192D02*
G01*
X134900785Y-74589756D01*
X134924345Y-74595657D01*
X134947214Y-74603840D01*
X134969171Y-74614224D01*
X134990004Y-74626711D01*
X135009512Y-74641180D01*
X135027509Y-74657491D01*
X135043820Y-74675488D01*
X135058289Y-74694996D01*
X135070776Y-74715829D01*
X135081160Y-74737786D01*
X135089343Y-74760655D01*
X135095244Y-74784215D01*
X135098808Y-74808241D01*
X135100000Y-74832500D01*
X135100000Y-75327500D01*
X135098808Y-75351759D01*
X135095244Y-75375785D01*
X135089343Y-75399345D01*
X135081160Y-75422214D01*
X135070776Y-75444171D01*
X135058289Y-75465004D01*
X135043820Y-75484512D01*
X135027509Y-75502509D01*
X135009512Y-75518820D01*
X134990004Y-75533289D01*
X134969171Y-75545776D01*
X134947214Y-75556160D01*
X134924345Y-75564343D01*
X134900785Y-75570244D01*
X134876759Y-75573808D01*
X134852500Y-75575000D01*
X134307500Y-75575000D01*
X134283241Y-75573808D01*
X134259215Y-75570244D01*
X134235655Y-75564343D01*
X134212786Y-75556160D01*
X134190829Y-75545776D01*
X134169996Y-75533289D01*
X134150488Y-75518820D01*
X134132491Y-75502509D01*
X134116180Y-75484512D01*
X134101711Y-75465004D01*
X134089224Y-75444171D01*
X134078840Y-75422214D01*
X134070657Y-75399345D01*
X134064756Y-75375785D01*
X134061192Y-75351759D01*
X134060000Y-75327500D01*
X134060000Y-74832500D01*
X134061192Y-74808241D01*
X134064756Y-74784215D01*
X134070657Y-74760655D01*
X134078840Y-74737786D01*
X134089224Y-74715829D01*
X134101711Y-74694996D01*
X134116180Y-74675488D01*
X134132491Y-74657491D01*
X134150488Y-74641180D01*
X134169996Y-74626711D01*
X134190829Y-74614224D01*
X134212786Y-74603840D01*
X134235655Y-74595657D01*
X134259215Y-74589756D01*
X134283241Y-74586192D01*
X134307500Y-74585000D01*
X134852500Y-74585000D01*
X134876759Y-74586192D01*
X134876759Y-74586192D01*
G37*
D24*
X134580000Y-75080000D03*
D13*
G36*
X125791493Y-78905535D02*
G01*
X125822435Y-78910125D01*
X125852778Y-78917725D01*
X125882230Y-78928263D01*
X125910508Y-78941638D01*
X125937338Y-78957719D01*
X125962463Y-78976353D01*
X125985640Y-78997360D01*
X126006647Y-79020537D01*
X126025281Y-79045662D01*
X126041362Y-79072492D01*
X126054737Y-79100770D01*
X126065275Y-79130222D01*
X126072875Y-79160565D01*
X126077465Y-79191507D01*
X126079000Y-79222750D01*
X126079000Y-79935250D01*
X126077465Y-79966493D01*
X126072875Y-79997435D01*
X126065275Y-80027778D01*
X126054737Y-80057230D01*
X126041362Y-80085508D01*
X126025281Y-80112338D01*
X126006647Y-80137463D01*
X125985640Y-80160640D01*
X125962463Y-80181647D01*
X125937338Y-80200281D01*
X125910508Y-80216362D01*
X125882230Y-80229737D01*
X125852778Y-80240275D01*
X125822435Y-80247875D01*
X125791493Y-80252465D01*
X125760250Y-80254000D01*
X125122750Y-80254000D01*
X125091507Y-80252465D01*
X125060565Y-80247875D01*
X125030222Y-80240275D01*
X125000770Y-80229737D01*
X124972492Y-80216362D01*
X124945662Y-80200281D01*
X124920537Y-80181647D01*
X124897360Y-80160640D01*
X124876353Y-80137463D01*
X124857719Y-80112338D01*
X124841638Y-80085508D01*
X124828263Y-80057230D01*
X124817725Y-80027778D01*
X124810125Y-79997435D01*
X124805535Y-79966493D01*
X124804000Y-79935250D01*
X124804000Y-79222750D01*
X124805535Y-79191507D01*
X124810125Y-79160565D01*
X124817725Y-79130222D01*
X124828263Y-79100770D01*
X124841638Y-79072492D01*
X124857719Y-79045662D01*
X124876353Y-79020537D01*
X124897360Y-78997360D01*
X124920537Y-78976353D01*
X124945662Y-78957719D01*
X124972492Y-78941638D01*
X125000770Y-78928263D01*
X125030222Y-78917725D01*
X125060565Y-78910125D01*
X125091507Y-78905535D01*
X125122750Y-78904000D01*
X125760250Y-78904000D01*
X125791493Y-78905535D01*
X125791493Y-78905535D01*
G37*
D27*
X125441500Y-79579000D03*
D13*
G36*
X124216493Y-78905535D02*
G01*
X124247435Y-78910125D01*
X124277778Y-78917725D01*
X124307230Y-78928263D01*
X124335508Y-78941638D01*
X124362338Y-78957719D01*
X124387463Y-78976353D01*
X124410640Y-78997360D01*
X124431647Y-79020537D01*
X124450281Y-79045662D01*
X124466362Y-79072492D01*
X124479737Y-79100770D01*
X124490275Y-79130222D01*
X124497875Y-79160565D01*
X124502465Y-79191507D01*
X124504000Y-79222750D01*
X124504000Y-79935250D01*
X124502465Y-79966493D01*
X124497875Y-79997435D01*
X124490275Y-80027778D01*
X124479737Y-80057230D01*
X124466362Y-80085508D01*
X124450281Y-80112338D01*
X124431647Y-80137463D01*
X124410640Y-80160640D01*
X124387463Y-80181647D01*
X124362338Y-80200281D01*
X124335508Y-80216362D01*
X124307230Y-80229737D01*
X124277778Y-80240275D01*
X124247435Y-80247875D01*
X124216493Y-80252465D01*
X124185250Y-80254000D01*
X123547750Y-80254000D01*
X123516507Y-80252465D01*
X123485565Y-80247875D01*
X123455222Y-80240275D01*
X123425770Y-80229737D01*
X123397492Y-80216362D01*
X123370662Y-80200281D01*
X123345537Y-80181647D01*
X123322360Y-80160640D01*
X123301353Y-80137463D01*
X123282719Y-80112338D01*
X123266638Y-80085508D01*
X123253263Y-80057230D01*
X123242725Y-80027778D01*
X123235125Y-79997435D01*
X123230535Y-79966493D01*
X123229000Y-79935250D01*
X123229000Y-79222750D01*
X123230535Y-79191507D01*
X123235125Y-79160565D01*
X123242725Y-79130222D01*
X123253263Y-79100770D01*
X123266638Y-79072492D01*
X123282719Y-79045662D01*
X123301353Y-79020537D01*
X123322360Y-78997360D01*
X123345537Y-78976353D01*
X123370662Y-78957719D01*
X123397492Y-78941638D01*
X123425770Y-78928263D01*
X123455222Y-78917725D01*
X123485565Y-78910125D01*
X123516507Y-78905535D01*
X123547750Y-78904000D01*
X124185250Y-78904000D01*
X124216493Y-78905535D01*
X124216493Y-78905535D01*
G37*
D27*
X123866500Y-79579000D03*
D13*
G36*
X124511759Y-74391192D02*
G01*
X124535785Y-74394756D01*
X124559345Y-74400657D01*
X124582214Y-74408840D01*
X124604171Y-74419224D01*
X124625004Y-74431711D01*
X124644512Y-74446180D01*
X124662509Y-74462491D01*
X124678820Y-74480488D01*
X124693289Y-74499996D01*
X124705776Y-74520829D01*
X124716160Y-74542786D01*
X124724343Y-74565655D01*
X124730244Y-74589215D01*
X124733808Y-74613241D01*
X124735000Y-74637500D01*
X124735000Y-75132500D01*
X124733808Y-75156759D01*
X124730244Y-75180785D01*
X124724343Y-75204345D01*
X124716160Y-75227214D01*
X124705776Y-75249171D01*
X124693289Y-75270004D01*
X124678820Y-75289512D01*
X124662509Y-75307509D01*
X124644512Y-75323820D01*
X124625004Y-75338289D01*
X124604171Y-75350776D01*
X124582214Y-75361160D01*
X124559345Y-75369343D01*
X124535785Y-75375244D01*
X124511759Y-75378808D01*
X124487500Y-75380000D01*
X123942500Y-75380000D01*
X123918241Y-75378808D01*
X123894215Y-75375244D01*
X123870655Y-75369343D01*
X123847786Y-75361160D01*
X123825829Y-75350776D01*
X123804996Y-75338289D01*
X123785488Y-75323820D01*
X123767491Y-75307509D01*
X123751180Y-75289512D01*
X123736711Y-75270004D01*
X123724224Y-75249171D01*
X123713840Y-75227214D01*
X123705657Y-75204345D01*
X123699756Y-75180785D01*
X123696192Y-75156759D01*
X123695000Y-75132500D01*
X123695000Y-74637500D01*
X123696192Y-74613241D01*
X123699756Y-74589215D01*
X123705657Y-74565655D01*
X123713840Y-74542786D01*
X123724224Y-74520829D01*
X123736711Y-74499996D01*
X123751180Y-74480488D01*
X123767491Y-74462491D01*
X123785488Y-74446180D01*
X123804996Y-74431711D01*
X123825829Y-74419224D01*
X123847786Y-74408840D01*
X123870655Y-74400657D01*
X123894215Y-74394756D01*
X123918241Y-74391192D01*
X123942500Y-74390000D01*
X124487500Y-74390000D01*
X124511759Y-74391192D01*
X124511759Y-74391192D01*
G37*
D24*
X124215000Y-74885000D03*
D13*
G36*
X124511759Y-73421192D02*
G01*
X124535785Y-73424756D01*
X124559345Y-73430657D01*
X124582214Y-73438840D01*
X124604171Y-73449224D01*
X124625004Y-73461711D01*
X124644512Y-73476180D01*
X124662509Y-73492491D01*
X124678820Y-73510488D01*
X124693289Y-73529996D01*
X124705776Y-73550829D01*
X124716160Y-73572786D01*
X124724343Y-73595655D01*
X124730244Y-73619215D01*
X124733808Y-73643241D01*
X124735000Y-73667500D01*
X124735000Y-74162500D01*
X124733808Y-74186759D01*
X124730244Y-74210785D01*
X124724343Y-74234345D01*
X124716160Y-74257214D01*
X124705776Y-74279171D01*
X124693289Y-74300004D01*
X124678820Y-74319512D01*
X124662509Y-74337509D01*
X124644512Y-74353820D01*
X124625004Y-74368289D01*
X124604171Y-74380776D01*
X124582214Y-74391160D01*
X124559345Y-74399343D01*
X124535785Y-74405244D01*
X124511759Y-74408808D01*
X124487500Y-74410000D01*
X123942500Y-74410000D01*
X123918241Y-74408808D01*
X123894215Y-74405244D01*
X123870655Y-74399343D01*
X123847786Y-74391160D01*
X123825829Y-74380776D01*
X123804996Y-74368289D01*
X123785488Y-74353820D01*
X123767491Y-74337509D01*
X123751180Y-74319512D01*
X123736711Y-74300004D01*
X123724224Y-74279171D01*
X123713840Y-74257214D01*
X123705657Y-74234345D01*
X123699756Y-74210785D01*
X123696192Y-74186759D01*
X123695000Y-74162500D01*
X123695000Y-73667500D01*
X123696192Y-73643241D01*
X123699756Y-73619215D01*
X123705657Y-73595655D01*
X123713840Y-73572786D01*
X123724224Y-73550829D01*
X123736711Y-73529996D01*
X123751180Y-73510488D01*
X123767491Y-73492491D01*
X123785488Y-73476180D01*
X123804996Y-73461711D01*
X123825829Y-73449224D01*
X123847786Y-73438840D01*
X123870655Y-73430657D01*
X123894215Y-73424756D01*
X123918241Y-73421192D01*
X123942500Y-73420000D01*
X124487500Y-73420000D01*
X124511759Y-73421192D01*
X124511759Y-73421192D01*
G37*
D24*
X124215000Y-73915000D03*
D13*
G36*
X133356759Y-78131192D02*
G01*
X133380785Y-78134756D01*
X133404345Y-78140657D01*
X133427214Y-78148840D01*
X133449171Y-78159224D01*
X133470004Y-78171711D01*
X133489512Y-78186180D01*
X133507509Y-78202491D01*
X133523820Y-78220488D01*
X133538289Y-78239996D01*
X133550776Y-78260829D01*
X133561160Y-78282786D01*
X133569343Y-78305655D01*
X133575244Y-78329215D01*
X133578808Y-78353241D01*
X133580000Y-78377500D01*
X133580000Y-78922500D01*
X133578808Y-78946759D01*
X133575244Y-78970785D01*
X133569343Y-78994345D01*
X133561160Y-79017214D01*
X133550776Y-79039171D01*
X133538289Y-79060004D01*
X133523820Y-79079512D01*
X133507509Y-79097509D01*
X133489512Y-79113820D01*
X133470004Y-79128289D01*
X133449171Y-79140776D01*
X133427214Y-79151160D01*
X133404345Y-79159343D01*
X133380785Y-79165244D01*
X133356759Y-79168808D01*
X133332500Y-79170000D01*
X132837500Y-79170000D01*
X132813241Y-79168808D01*
X132789215Y-79165244D01*
X132765655Y-79159343D01*
X132742786Y-79151160D01*
X132720829Y-79140776D01*
X132699996Y-79128289D01*
X132680488Y-79113820D01*
X132662491Y-79097509D01*
X132646180Y-79079512D01*
X132631711Y-79060004D01*
X132619224Y-79039171D01*
X132608840Y-79017214D01*
X132600657Y-78994345D01*
X132594756Y-78970785D01*
X132591192Y-78946759D01*
X132590000Y-78922500D01*
X132590000Y-78377500D01*
X132591192Y-78353241D01*
X132594756Y-78329215D01*
X132600657Y-78305655D01*
X132608840Y-78282786D01*
X132619224Y-78260829D01*
X132631711Y-78239996D01*
X132646180Y-78220488D01*
X132662491Y-78202491D01*
X132680488Y-78186180D01*
X132699996Y-78171711D01*
X132720829Y-78159224D01*
X132742786Y-78148840D01*
X132765655Y-78140657D01*
X132789215Y-78134756D01*
X132813241Y-78131192D01*
X132837500Y-78130000D01*
X133332500Y-78130000D01*
X133356759Y-78131192D01*
X133356759Y-78131192D01*
G37*
D24*
X133085000Y-78650000D03*
D13*
G36*
X134326759Y-78131192D02*
G01*
X134350785Y-78134756D01*
X134374345Y-78140657D01*
X134397214Y-78148840D01*
X134419171Y-78159224D01*
X134440004Y-78171711D01*
X134459512Y-78186180D01*
X134477509Y-78202491D01*
X134493820Y-78220488D01*
X134508289Y-78239996D01*
X134520776Y-78260829D01*
X134531160Y-78282786D01*
X134539343Y-78305655D01*
X134545244Y-78329215D01*
X134548808Y-78353241D01*
X134550000Y-78377500D01*
X134550000Y-78922500D01*
X134548808Y-78946759D01*
X134545244Y-78970785D01*
X134539343Y-78994345D01*
X134531160Y-79017214D01*
X134520776Y-79039171D01*
X134508289Y-79060004D01*
X134493820Y-79079512D01*
X134477509Y-79097509D01*
X134459512Y-79113820D01*
X134440004Y-79128289D01*
X134419171Y-79140776D01*
X134397214Y-79151160D01*
X134374345Y-79159343D01*
X134350785Y-79165244D01*
X134326759Y-79168808D01*
X134302500Y-79170000D01*
X133807500Y-79170000D01*
X133783241Y-79168808D01*
X133759215Y-79165244D01*
X133735655Y-79159343D01*
X133712786Y-79151160D01*
X133690829Y-79140776D01*
X133669996Y-79128289D01*
X133650488Y-79113820D01*
X133632491Y-79097509D01*
X133616180Y-79079512D01*
X133601711Y-79060004D01*
X133589224Y-79039171D01*
X133578840Y-79017214D01*
X133570657Y-78994345D01*
X133564756Y-78970785D01*
X133561192Y-78946759D01*
X133560000Y-78922500D01*
X133560000Y-78377500D01*
X133561192Y-78353241D01*
X133564756Y-78329215D01*
X133570657Y-78305655D01*
X133578840Y-78282786D01*
X133589224Y-78260829D01*
X133601711Y-78239996D01*
X133616180Y-78220488D01*
X133632491Y-78202491D01*
X133650488Y-78186180D01*
X133669996Y-78171711D01*
X133690829Y-78159224D01*
X133712786Y-78148840D01*
X133735655Y-78140657D01*
X133759215Y-78134756D01*
X133783241Y-78131192D01*
X133807500Y-78130000D01*
X134302500Y-78130000D01*
X134326759Y-78131192D01*
X134326759Y-78131192D01*
G37*
D24*
X134055000Y-78650000D03*
D13*
G36*
X129603759Y-70233192D02*
G01*
X129627785Y-70236756D01*
X129651345Y-70242657D01*
X129674214Y-70250840D01*
X129696171Y-70261224D01*
X129717004Y-70273711D01*
X129736512Y-70288180D01*
X129754509Y-70304491D01*
X129770820Y-70322488D01*
X129785289Y-70341996D01*
X129797776Y-70362829D01*
X129808160Y-70384786D01*
X129816343Y-70407655D01*
X129822244Y-70431215D01*
X129825808Y-70455241D01*
X129827000Y-70479500D01*
X129827000Y-71024500D01*
X129825808Y-71048759D01*
X129822244Y-71072785D01*
X129816343Y-71096345D01*
X129808160Y-71119214D01*
X129797776Y-71141171D01*
X129785289Y-71162004D01*
X129770820Y-71181512D01*
X129754509Y-71199509D01*
X129736512Y-71215820D01*
X129717004Y-71230289D01*
X129696171Y-71242776D01*
X129674214Y-71253160D01*
X129651345Y-71261343D01*
X129627785Y-71267244D01*
X129603759Y-71270808D01*
X129579500Y-71272000D01*
X129084500Y-71272000D01*
X129060241Y-71270808D01*
X129036215Y-71267244D01*
X129012655Y-71261343D01*
X128989786Y-71253160D01*
X128967829Y-71242776D01*
X128946996Y-71230289D01*
X128927488Y-71215820D01*
X128909491Y-71199509D01*
X128893180Y-71181512D01*
X128878711Y-71162004D01*
X128866224Y-71141171D01*
X128855840Y-71119214D01*
X128847657Y-71096345D01*
X128841756Y-71072785D01*
X128838192Y-71048759D01*
X128837000Y-71024500D01*
X128837000Y-70479500D01*
X128838192Y-70455241D01*
X128841756Y-70431215D01*
X128847657Y-70407655D01*
X128855840Y-70384786D01*
X128866224Y-70362829D01*
X128878711Y-70341996D01*
X128893180Y-70322488D01*
X128909491Y-70304491D01*
X128927488Y-70288180D01*
X128946996Y-70273711D01*
X128967829Y-70261224D01*
X128989786Y-70250840D01*
X129012655Y-70242657D01*
X129036215Y-70236756D01*
X129060241Y-70233192D01*
X129084500Y-70232000D01*
X129579500Y-70232000D01*
X129603759Y-70233192D01*
X129603759Y-70233192D01*
G37*
D24*
X129332000Y-70752000D03*
D13*
G36*
X128633759Y-70233192D02*
G01*
X128657785Y-70236756D01*
X128681345Y-70242657D01*
X128704214Y-70250840D01*
X128726171Y-70261224D01*
X128747004Y-70273711D01*
X128766512Y-70288180D01*
X128784509Y-70304491D01*
X128800820Y-70322488D01*
X128815289Y-70341996D01*
X128827776Y-70362829D01*
X128838160Y-70384786D01*
X128846343Y-70407655D01*
X128852244Y-70431215D01*
X128855808Y-70455241D01*
X128857000Y-70479500D01*
X128857000Y-71024500D01*
X128855808Y-71048759D01*
X128852244Y-71072785D01*
X128846343Y-71096345D01*
X128838160Y-71119214D01*
X128827776Y-71141171D01*
X128815289Y-71162004D01*
X128800820Y-71181512D01*
X128784509Y-71199509D01*
X128766512Y-71215820D01*
X128747004Y-71230289D01*
X128726171Y-71242776D01*
X128704214Y-71253160D01*
X128681345Y-71261343D01*
X128657785Y-71267244D01*
X128633759Y-71270808D01*
X128609500Y-71272000D01*
X128114500Y-71272000D01*
X128090241Y-71270808D01*
X128066215Y-71267244D01*
X128042655Y-71261343D01*
X128019786Y-71253160D01*
X127997829Y-71242776D01*
X127976996Y-71230289D01*
X127957488Y-71215820D01*
X127939491Y-71199509D01*
X127923180Y-71181512D01*
X127908711Y-71162004D01*
X127896224Y-71141171D01*
X127885840Y-71119214D01*
X127877657Y-71096345D01*
X127871756Y-71072785D01*
X127868192Y-71048759D01*
X127867000Y-71024500D01*
X127867000Y-70479500D01*
X127868192Y-70455241D01*
X127871756Y-70431215D01*
X127877657Y-70407655D01*
X127885840Y-70384786D01*
X127896224Y-70362829D01*
X127908711Y-70341996D01*
X127923180Y-70322488D01*
X127939491Y-70304491D01*
X127957488Y-70288180D01*
X127976996Y-70273711D01*
X127997829Y-70261224D01*
X128019786Y-70250840D01*
X128042655Y-70242657D01*
X128066215Y-70236756D01*
X128090241Y-70233192D01*
X128114500Y-70232000D01*
X128609500Y-70232000D01*
X128633759Y-70233192D01*
X128633759Y-70233192D01*
G37*
D24*
X128362000Y-70752000D03*
D13*
G36*
X122096759Y-76196192D02*
G01*
X122120785Y-76199756D01*
X122144345Y-76205657D01*
X122167214Y-76213840D01*
X122189171Y-76224224D01*
X122210004Y-76236711D01*
X122229512Y-76251180D01*
X122247509Y-76267491D01*
X122263820Y-76285488D01*
X122278289Y-76304996D01*
X122290776Y-76325829D01*
X122301160Y-76347786D01*
X122309343Y-76370655D01*
X122315244Y-76394215D01*
X122318808Y-76418241D01*
X122320000Y-76442500D01*
X122320000Y-76937500D01*
X122318808Y-76961759D01*
X122315244Y-76985785D01*
X122309343Y-77009345D01*
X122301160Y-77032214D01*
X122290776Y-77054171D01*
X122278289Y-77075004D01*
X122263820Y-77094512D01*
X122247509Y-77112509D01*
X122229512Y-77128820D01*
X122210004Y-77143289D01*
X122189171Y-77155776D01*
X122167214Y-77166160D01*
X122144345Y-77174343D01*
X122120785Y-77180244D01*
X122096759Y-77183808D01*
X122072500Y-77185000D01*
X121527500Y-77185000D01*
X121503241Y-77183808D01*
X121479215Y-77180244D01*
X121455655Y-77174343D01*
X121432786Y-77166160D01*
X121410829Y-77155776D01*
X121389996Y-77143289D01*
X121370488Y-77128820D01*
X121352491Y-77112509D01*
X121336180Y-77094512D01*
X121321711Y-77075004D01*
X121309224Y-77054171D01*
X121298840Y-77032214D01*
X121290657Y-77009345D01*
X121284756Y-76985785D01*
X121281192Y-76961759D01*
X121280000Y-76937500D01*
X121280000Y-76442500D01*
X121281192Y-76418241D01*
X121284756Y-76394215D01*
X121290657Y-76370655D01*
X121298840Y-76347786D01*
X121309224Y-76325829D01*
X121321711Y-76304996D01*
X121336180Y-76285488D01*
X121352491Y-76267491D01*
X121370488Y-76251180D01*
X121389996Y-76236711D01*
X121410829Y-76224224D01*
X121432786Y-76213840D01*
X121455655Y-76205657D01*
X121479215Y-76199756D01*
X121503241Y-76196192D01*
X121527500Y-76195000D01*
X122072500Y-76195000D01*
X122096759Y-76196192D01*
X122096759Y-76196192D01*
G37*
D24*
X121800000Y-76690000D03*
D13*
G36*
X122096759Y-75226192D02*
G01*
X122120785Y-75229756D01*
X122144345Y-75235657D01*
X122167214Y-75243840D01*
X122189171Y-75254224D01*
X122210004Y-75266711D01*
X122229512Y-75281180D01*
X122247509Y-75297491D01*
X122263820Y-75315488D01*
X122278289Y-75334996D01*
X122290776Y-75355829D01*
X122301160Y-75377786D01*
X122309343Y-75400655D01*
X122315244Y-75424215D01*
X122318808Y-75448241D01*
X122320000Y-75472500D01*
X122320000Y-75967500D01*
X122318808Y-75991759D01*
X122315244Y-76015785D01*
X122309343Y-76039345D01*
X122301160Y-76062214D01*
X122290776Y-76084171D01*
X122278289Y-76105004D01*
X122263820Y-76124512D01*
X122247509Y-76142509D01*
X122229512Y-76158820D01*
X122210004Y-76173289D01*
X122189171Y-76185776D01*
X122167214Y-76196160D01*
X122144345Y-76204343D01*
X122120785Y-76210244D01*
X122096759Y-76213808D01*
X122072500Y-76215000D01*
X121527500Y-76215000D01*
X121503241Y-76213808D01*
X121479215Y-76210244D01*
X121455655Y-76204343D01*
X121432786Y-76196160D01*
X121410829Y-76185776D01*
X121389996Y-76173289D01*
X121370488Y-76158820D01*
X121352491Y-76142509D01*
X121336180Y-76124512D01*
X121321711Y-76105004D01*
X121309224Y-76084171D01*
X121298840Y-76062214D01*
X121290657Y-76039345D01*
X121284756Y-76015785D01*
X121281192Y-75991759D01*
X121280000Y-75967500D01*
X121280000Y-75472500D01*
X121281192Y-75448241D01*
X121284756Y-75424215D01*
X121290657Y-75400655D01*
X121298840Y-75377786D01*
X121309224Y-75355829D01*
X121321711Y-75334996D01*
X121336180Y-75315488D01*
X121352491Y-75297491D01*
X121370488Y-75281180D01*
X121389996Y-75266711D01*
X121410829Y-75254224D01*
X121432786Y-75243840D01*
X121455655Y-75235657D01*
X121479215Y-75229756D01*
X121503241Y-75226192D01*
X121527500Y-75225000D01*
X122072500Y-75225000D01*
X122096759Y-75226192D01*
X122096759Y-75226192D01*
G37*
D24*
X121800000Y-75720000D03*
D28*
X126938000Y-70752000D03*
X126938000Y-69482000D03*
X122588000Y-69482000D03*
X122588000Y-70752000D03*
M02*
