G04 #@! TF.GenerationSoftware,KiCad,Pcbnew,(5.1.4)-1*
G04 #@! TF.CreationDate,2019-08-15T18:00:35-06:00*
G04 #@! TF.ProjectId,Windchill01,57696e64-6368-4696-9c6c-30312e6b6963,rev?*
G04 #@! TF.SameCoordinates,Original*
G04 #@! TF.FileFunction,Legend,Bot*
G04 #@! TF.FilePolarity,Positive*
%FSLAX46Y46*%
G04 Gerber Fmt 4.6, Leading zero omitted, Abs format (unit mm)*
G04 Created by KiCad (PCBNEW (5.1.4)-1) date 2019-08-15 18:00:35*
%MOMM*%
%LPD*%
G04 APERTURE LIST*
%ADD10C,0.050000*%
G04 APERTURE END LIST*
D10*
X137057517Y-73478528D02*
X137089410Y-73478528D01*
X137163827Y-73478528D02*
X137174458Y-73478528D01*
X136855529Y-73499790D02*
X136876791Y-73489159D01*
X91014912Y-73489159D02*
X91025543Y-73489159D01*
X137025624Y-83928743D02*
X136929946Y-83928743D01*
X136929946Y-83928743D02*
X136908684Y-83918112D01*
X137036255Y-83939374D02*
X137025624Y-83928743D01*
X92588291Y-73584838D02*
X135611709Y-73584838D01*
X137185088Y-73489159D02*
X137195719Y-73499790D01*
X136876791Y-73489159D02*
X136929946Y-73489159D01*
X135611709Y-73584838D02*
X135845590Y-73584838D01*
X91004281Y-82025805D02*
X137195719Y-82025805D01*
X91004281Y-75392098D02*
X137195719Y-75392098D01*
X135771173Y-83833065D02*
X135611709Y-83822434D01*
X135845590Y-83833065D02*
X135771173Y-83833065D01*
X91004281Y-73499790D02*
X91014912Y-73489159D01*
X136908684Y-83918112D02*
X136855529Y-83918112D01*
X91025543Y-73489159D02*
X91025543Y-73478528D01*
X137174458Y-73478528D02*
X137185088Y-73489159D01*
X91004282Y-75902382D02*
X89664783Y-75902382D01*
X138535219Y-75902382D02*
X138535219Y-75392097D01*
X137195720Y-75902382D02*
X137195720Y-75392097D01*
X91004282Y-75392097D02*
X91004282Y-75902382D01*
X89664783Y-70544388D02*
X89664783Y-71054673D01*
X91004282Y-70544388D02*
X89664783Y-70544388D01*
X89664783Y-75902382D02*
X89664783Y-75392097D01*
X92588291Y-83822434D02*
X92439458Y-83833065D01*
X91068068Y-84385874D02*
X92588293Y-84385874D01*
X91301947Y-83918112D02*
X91280685Y-83928743D01*
X137195720Y-64931251D02*
X138535219Y-64931251D01*
X92588293Y-84385874D02*
X92588291Y-83822434D01*
X91004282Y-64931251D02*
X91004282Y-64420966D01*
X138535219Y-70544388D02*
X138535219Y-71054673D01*
X138535219Y-64931251D02*
X138535219Y-64420966D01*
X137195720Y-70544388D02*
X138535219Y-70544388D01*
X91025543Y-83928743D02*
X91014912Y-83918112D01*
X137089410Y-83939374D02*
X137036255Y-83939374D01*
X137163827Y-83928743D02*
X137153196Y-83939374D01*
X137185088Y-83928743D02*
X137163827Y-83928743D01*
X91004282Y-64931251D02*
X89664783Y-64931251D01*
X137195720Y-64931251D02*
X137195720Y-64420966D01*
X137185088Y-83918112D02*
X137185088Y-83928743D01*
X92439458Y-83833065D02*
X92354410Y-83833065D01*
X137195719Y-83907482D02*
X137185088Y-83918112D01*
X89664783Y-64931251D02*
X89664783Y-64420966D01*
X91014912Y-83918112D02*
X91004281Y-83907482D01*
X91046805Y-83939374D02*
X91036174Y-83928743D01*
X91344471Y-83918112D02*
X91301947Y-83918112D01*
X137195720Y-71054673D02*
X137195720Y-70544388D01*
X92588291Y-83822434D02*
X135611709Y-83822434D01*
X91004282Y-71054673D02*
X91004282Y-70544388D01*
X91280685Y-83928743D02*
X91174376Y-83928743D01*
X91163745Y-83939374D02*
X91046805Y-83939374D01*
X91036174Y-83928743D02*
X91025543Y-83928743D01*
X91174376Y-83928743D02*
X91163745Y-83939374D01*
X91036175Y-62092788D02*
X91057437Y-62071526D01*
X91025544Y-62124681D02*
X91025544Y-62114050D01*
X91014913Y-62145943D02*
X91025544Y-62124681D01*
X91025544Y-62114050D02*
X91036175Y-62092788D01*
X91004282Y-64420964D02*
X91004282Y-63527965D01*
X91014913Y-62167205D02*
X91014913Y-62145943D01*
X89282070Y-64420964D02*
X89282070Y-65824248D01*
X91004282Y-62177835D02*
X91014913Y-62167205D01*
X91057437Y-62071526D02*
X91068068Y-62060895D01*
X91068068Y-62060895D02*
X87049572Y-62060895D01*
X86943261Y-80622521D02*
X86943261Y-84385874D01*
X137195721Y-62167204D02*
X137195721Y-62177834D01*
X86943257Y-62060901D02*
X86943257Y-65824254D01*
X86943261Y-69651390D02*
X87123987Y-69651390D01*
X138535219Y-81515519D02*
X138535219Y-82025804D01*
X91004282Y-81515519D02*
X91004282Y-82025804D01*
X89664783Y-81515519D02*
X91004282Y-81515519D01*
X89664783Y-82025804D02*
X89664783Y-81515519D01*
X137131935Y-62060894D02*
X137153197Y-62071525D01*
X87049567Y-62060901D02*
X86943257Y-62060901D01*
X87123987Y-76795382D02*
X86943261Y-76795382D01*
X86943261Y-76795382D02*
X86943261Y-69651390D01*
X141256739Y-69651390D02*
X141076013Y-69651390D01*
X141150429Y-84385874D02*
X141256738Y-84385874D01*
X86943261Y-80622521D02*
X87123987Y-80622521D01*
X87123985Y-63230304D02*
X87049568Y-62060900D01*
X141256739Y-76795382D02*
X141256739Y-69651390D01*
X141256739Y-65824251D02*
X141256739Y-62060898D01*
X91004282Y-63527964D02*
X91004282Y-62177834D01*
X141076009Y-65824254D02*
X141256735Y-65824254D01*
X141256739Y-62060898D02*
X141150430Y-62060894D01*
X141150429Y-62060894D02*
X141076012Y-63230298D01*
X137195720Y-81515519D02*
X138535219Y-81515519D01*
X86943257Y-65824254D02*
X87123983Y-65824254D01*
X141076013Y-76795382D02*
X141256739Y-76795382D01*
X86943261Y-84385874D02*
X87049571Y-84385874D01*
X141256739Y-80622521D02*
X141076013Y-80622521D01*
X141256738Y-84385874D02*
X141256739Y-80622521D01*
X137195719Y-63527964D02*
X137195719Y-62177834D01*
X141150431Y-62060894D02*
X137131935Y-62060894D01*
X137195720Y-75902382D02*
X138535219Y-75902382D01*
X137195720Y-82025804D02*
X137195720Y-81515519D01*
X140937807Y-83057011D02*
X140959069Y-83078273D01*
X141076009Y-83205844D02*
X141150426Y-84385878D01*
X87432282Y-83003852D02*
X87464175Y-82993221D01*
X89282069Y-69651394D02*
X89282069Y-71054678D01*
X87123985Y-69651394D02*
X87123985Y-76795386D01*
X88144555Y-69651392D02*
X87123985Y-69651394D01*
X88144555Y-76795384D02*
X88144555Y-69651392D01*
X89282069Y-80622524D02*
X88144558Y-80622524D01*
X137195719Y-82918804D02*
X137195719Y-82025805D01*
X138917933Y-80622521D02*
X140055444Y-80622521D01*
X87123985Y-80622524D02*
X87123985Y-83205843D01*
X88038246Y-82918804D02*
X88144555Y-82918804D01*
X89282069Y-82025804D02*
X91004281Y-82025804D01*
X141022854Y-83120796D02*
X141044116Y-83131427D01*
X140990961Y-83088904D02*
X141022854Y-83120796D01*
X141076011Y-80622524D02*
X140055439Y-80622524D01*
X141076011Y-83205843D02*
X141076011Y-80622524D01*
X88144554Y-82918809D02*
X88144554Y-80622525D01*
X140778343Y-83003856D02*
X140810235Y-83014487D01*
X87294080Y-83046375D02*
X87325973Y-83035744D01*
X140055440Y-80622524D02*
X140055440Y-82918807D01*
X88144554Y-80622525D02*
X87123985Y-80622524D01*
X140055439Y-82918809D02*
X137195716Y-82918809D01*
X141076009Y-83173951D02*
X141076009Y-83205844D01*
X141054747Y-83142058D02*
X141065378Y-83163320D01*
X140905914Y-83046380D02*
X140937807Y-83057011D01*
X140874021Y-83035749D02*
X140905914Y-83046380D01*
X140735819Y-82993225D02*
X140778343Y-83003856D01*
X137131933Y-84385874D02*
X141150429Y-84385874D01*
X87389758Y-83014482D02*
X87432282Y-83003852D01*
X87357865Y-83025113D02*
X87389758Y-83014482D01*
X87240925Y-83078268D02*
X87262187Y-83057006D01*
X87262187Y-83057006D02*
X87294080Y-83046375D01*
X140810235Y-83014487D02*
X140874021Y-83035749D01*
X140055439Y-82918809D02*
X140161748Y-82918809D01*
X87325973Y-83035744D02*
X87357865Y-83025113D01*
X137195719Y-84279564D02*
X137185088Y-84290195D01*
X141044116Y-83131427D02*
X141054747Y-83142058D01*
X89282069Y-69651394D02*
X88144558Y-69651394D01*
X91004282Y-82918804D02*
X91004282Y-82025805D01*
X87123985Y-76795386D02*
X88144555Y-76795384D01*
X87049568Y-84385874D02*
X87123985Y-83205839D01*
X138917929Y-82025808D02*
X137195717Y-82025808D01*
X138917929Y-80622524D02*
X138917929Y-82025808D01*
X89282069Y-80622524D02*
X89282069Y-82025808D01*
X137185088Y-84290195D02*
X137185088Y-84311457D01*
X141065378Y-83163320D02*
X141076009Y-83173951D01*
X137185088Y-84311457D02*
X137163826Y-84353981D01*
X137195719Y-82918804D02*
X137195719Y-84279564D01*
X137163826Y-84353981D02*
X137131933Y-84385874D01*
X140959069Y-83078273D02*
X140990961Y-83088904D01*
X91068067Y-84385874D02*
X91057436Y-84364612D01*
X138917929Y-81887604D02*
X138609632Y-81887604D01*
X89282069Y-79187346D02*
X89239545Y-79187346D01*
X88144555Y-82918804D02*
X91004278Y-82918804D01*
X91004281Y-84258303D02*
X91004281Y-82918804D01*
X138609632Y-70927104D02*
X138609632Y-70119152D01*
X138917929Y-70927104D02*
X138609632Y-70927104D01*
X138609632Y-75509039D02*
X138609632Y-76316991D01*
X91014912Y-84279565D02*
X91004281Y-84258303D01*
X91025543Y-84311457D02*
X91014912Y-84290196D01*
X89080081Y-78708954D02*
X89069450Y-78708954D01*
X91025543Y-84332719D02*
X91025543Y-84311457D01*
X138609632Y-81887604D02*
X138609632Y-81090283D01*
X139119917Y-67248803D02*
X139130548Y-67248803D01*
X138917929Y-67248803D02*
X138960453Y-67248803D01*
X135080159Y-65345854D02*
X134931326Y-65345854D01*
X89590366Y-75509039D02*
X89590366Y-76316991D01*
X137163823Y-76316991D02*
X135080159Y-76316991D01*
X139119917Y-67716564D02*
X139130548Y-67716564D01*
X137163824Y-70119156D02*
X138917929Y-70119156D01*
X89080081Y-79187346D02*
X89069450Y-79187346D01*
X138609632Y-64548539D02*
X138609632Y-65345860D01*
X137163823Y-65345861D02*
X135080159Y-65345861D01*
X89282069Y-81887604D02*
X89590366Y-81887604D01*
X138917929Y-75509039D02*
X138609632Y-75509039D01*
X138917929Y-67716564D02*
X138960453Y-67716564D01*
X138917929Y-65824255D02*
X138917929Y-69651394D01*
X138917933Y-76795385D02*
X138917933Y-80622523D01*
X135080159Y-70119154D02*
X137163823Y-70119154D01*
X137163827Y-81090285D02*
X138917933Y-81090285D01*
X93268671Y-76316991D02*
X93130469Y-76316991D01*
X135080159Y-76316994D02*
X134931326Y-76316994D01*
X138917929Y-78219933D02*
X138960453Y-78219933D01*
X89282069Y-75509039D02*
X89590366Y-75509039D01*
X91036174Y-84353981D02*
X91025543Y-84332719D01*
X91057436Y-84364612D02*
X91036174Y-84353981D01*
X87049571Y-84385874D02*
X91068067Y-84385874D01*
X138917929Y-78687694D02*
X138960453Y-78687694D01*
X134931326Y-81090287D02*
X135080159Y-81090287D01*
X93130469Y-81090284D02*
X93268671Y-81090284D01*
X89590366Y-81887604D02*
X89590366Y-81090283D01*
X138917929Y-65345863D02*
X137163824Y-65345863D01*
X139119917Y-78219933D02*
X139130548Y-78219933D01*
X87134616Y-83163316D02*
X87145247Y-83142054D01*
X91014912Y-84290196D02*
X91014912Y-84279565D01*
X134931326Y-70119147D02*
X135080159Y-70119147D01*
X135080159Y-81090284D02*
X137163823Y-81090284D01*
X138917933Y-76316992D02*
X137163827Y-76316992D01*
X139119917Y-78687694D02*
X139130548Y-78687694D01*
X87198401Y-83099530D02*
X87240925Y-83078268D01*
X89282069Y-78708954D02*
X89239545Y-78708954D01*
X87166508Y-83131423D02*
X87198401Y-83099530D01*
X87123985Y-83205839D02*
X87123985Y-83195208D01*
X87123985Y-83195208D02*
X87134616Y-83173947D01*
X87145247Y-83142054D02*
X87166508Y-83131423D01*
X138917929Y-64548539D02*
X138609632Y-64548539D01*
X87134616Y-83173947D02*
X87134616Y-83163316D01*
X89590366Y-70927104D02*
X89590366Y-70119152D01*
X89282069Y-64548539D02*
X89590366Y-64548539D01*
X89282069Y-70927104D02*
X89590366Y-70927104D01*
X91036174Y-70119147D02*
X93130469Y-70119147D01*
X91036171Y-65345866D02*
X89282066Y-65345866D01*
X89282066Y-70119158D02*
X91036171Y-70119158D01*
X89058819Y-68216214D02*
X89058819Y-67748453D01*
X93130469Y-65345854D02*
X91036174Y-65345854D01*
X93130471Y-70119147D02*
X93268673Y-70119147D01*
X139141179Y-67248804D02*
X139141179Y-67716565D01*
X91036174Y-81090287D02*
X93130469Y-81090287D01*
X89058819Y-79187344D02*
X89058819Y-78708952D01*
X134931329Y-81090284D02*
X134931329Y-76316991D01*
X93130469Y-76316994D02*
X91036174Y-76316994D01*
X93268673Y-65345854D02*
X93130471Y-65345854D01*
X139141179Y-78219934D02*
X139141179Y-78687695D01*
X93268673Y-76316994D02*
X93268673Y-81090287D01*
X89282069Y-81090285D02*
X91036174Y-81090285D01*
X91036174Y-76316992D02*
X89282069Y-76316992D01*
X89282069Y-80622524D02*
X89282069Y-76795385D01*
X89080081Y-68216215D02*
X89069450Y-68216215D01*
X89282069Y-68216215D02*
X89239545Y-68216215D01*
X89080081Y-67748454D02*
X89069450Y-67748454D01*
X89282069Y-67748454D02*
X89239545Y-67748454D01*
X134931329Y-70119154D02*
X134931329Y-65345861D01*
X89590366Y-64548539D02*
X89590366Y-65345860D01*
X89282066Y-69651397D02*
X89282066Y-65824258D01*
X138917929Y-71054678D02*
X137195717Y-71054678D01*
X137195719Y-64420964D02*
X137195719Y-63527965D01*
X137195719Y-64420964D02*
X138917931Y-64420964D01*
X140161748Y-63517340D02*
X140108593Y-63527971D01*
X88091400Y-63527971D02*
X88038246Y-63517340D01*
X140778343Y-63442923D02*
X140735819Y-63453554D01*
X140810235Y-63432292D02*
X140778343Y-63442923D01*
X141001592Y-63336614D02*
X140990961Y-63357876D01*
X87325973Y-63400399D02*
X87294080Y-63389769D01*
X138917929Y-69651394D02*
X138917929Y-71054678D01*
X140055439Y-69651394D02*
X140055439Y-76795386D01*
X140874021Y-63400399D02*
X140842128Y-63421661D01*
X140905914Y-63389769D02*
X140874021Y-63400399D01*
X140937807Y-63379138D02*
X140905914Y-63389769D01*
X137195717Y-75392102D02*
X138917929Y-75392102D01*
X87123985Y-63230304D02*
X87123985Y-65824254D01*
X88144555Y-63527971D02*
X88091400Y-63527971D01*
X140959069Y-63368507D02*
X140937807Y-63379138D01*
X140990961Y-63357876D02*
X140959069Y-63368507D01*
X87219663Y-63357876D02*
X87198401Y-63336614D01*
X89282069Y-71054676D02*
X91004281Y-71054676D01*
X91004282Y-75392094D02*
X91004282Y-71054670D01*
X141054747Y-63294090D02*
X141044116Y-63315352D01*
X87123985Y-65824254D02*
X88144555Y-65824254D01*
X87464175Y-63453554D02*
X87432282Y-63442923D01*
X87134616Y-63262197D02*
X87123985Y-63251566D01*
X87134616Y-63283459D02*
X87134616Y-63262197D01*
X141076009Y-69651392D02*
X140055439Y-69651394D01*
X87357865Y-63421661D02*
X87325973Y-63400399D01*
X87198401Y-63336614D02*
X87177139Y-63325983D01*
X87262187Y-63379138D02*
X87240925Y-63368507D01*
X87240925Y-63368507D02*
X87219663Y-63357876D01*
X87432282Y-63442923D02*
X87389758Y-63432292D01*
X138917929Y-75392094D02*
X138917929Y-76795378D01*
X140055439Y-63527971D02*
X137195716Y-63527971D01*
X138917929Y-69651392D02*
X140055440Y-69651392D01*
X138917929Y-76795378D02*
X140055440Y-76795384D01*
X89282069Y-76795384D02*
X89282069Y-75392100D01*
X137195719Y-75392094D02*
X137195719Y-71054670D01*
X91004282Y-64420964D02*
X89282070Y-64420964D01*
X89282069Y-65824254D02*
X88144558Y-65824254D01*
X88144554Y-63527971D02*
X91004277Y-63527971D01*
X140842128Y-63421661D02*
X140810235Y-63432292D01*
X141076011Y-65824254D02*
X141076009Y-63230304D01*
X87177139Y-63325983D02*
X87134616Y-63283459D01*
X140108593Y-63527971D02*
X140055439Y-63527971D01*
X141044116Y-63315352D02*
X141001592Y-63336614D01*
X141065378Y-63283459D02*
X141054747Y-63294090D01*
X140055439Y-76795386D02*
X141076009Y-76795384D01*
X89282069Y-76795386D02*
X88144558Y-76795386D01*
X141076009Y-63230304D02*
X141076009Y-63262197D01*
X87389758Y-63432292D02*
X87357865Y-63421661D01*
X89282069Y-75392100D02*
X91004281Y-75392100D01*
X138917929Y-64420964D02*
X138917929Y-65824248D01*
X141076009Y-63262197D02*
X141065378Y-63283459D01*
X140055440Y-65824254D02*
X141076011Y-65824254D01*
X87123985Y-63251566D02*
X87123985Y-63230304D01*
X138917929Y-65824248D02*
X140055440Y-65824254D01*
X140055440Y-65824254D02*
X140055439Y-63527971D01*
X87294080Y-63389769D02*
X87262187Y-63379138D01*
X141076009Y-76795384D02*
X141076009Y-69651392D01*
X88144555Y-65824254D02*
X88144555Y-63527971D01*
X105419839Y-67525199D02*
X105419839Y-66483367D01*
X104378007Y-67525199D02*
X105419839Y-67525199D01*
X102124247Y-66717248D02*
X100689070Y-66717248D01*
X128648445Y-65824248D02*
X102124247Y-65824248D01*
X124470485Y-67886651D02*
X124470485Y-67525199D01*
X128797278Y-69800220D02*
X101964783Y-69800220D01*
X104176019Y-78570747D02*
X104176019Y-78932199D01*
X125331591Y-78804627D02*
X124300390Y-78804627D01*
X124470485Y-67525199D02*
X125820615Y-67525199D01*
X102825889Y-78932199D02*
X102825889Y-78570747D01*
X104176019Y-78932199D02*
X102825889Y-78932199D01*
X124300390Y-79846460D02*
X123981462Y-79846460D01*
X124300390Y-78804627D02*
X124300390Y-79846460D01*
X105419839Y-67833496D02*
X104378007Y-67833496D01*
X105738767Y-67833496D02*
X105738767Y-68875329D01*
X125820615Y-67525199D02*
X125820615Y-67886651D01*
X124300390Y-78496330D02*
X125331591Y-78496330D01*
X128648445Y-79793305D02*
X126915602Y-79793305D01*
X105738767Y-68875329D02*
X105419839Y-68875329D01*
X106769968Y-67525199D02*
X106769968Y-67833496D01*
X102825889Y-78570747D02*
X104176019Y-78570747D01*
X123981462Y-79846460D02*
X123981462Y-78804627D01*
X128797278Y-65664784D02*
X128797278Y-69800220D01*
X126756138Y-77752164D02*
X126756138Y-76859165D01*
X102124247Y-68758388D02*
X102124247Y-69651387D01*
X100689070Y-66717248D02*
X100689070Y-68758388D01*
X123981462Y-77454498D02*
X124300390Y-77454498D01*
X125820615Y-67886651D02*
X124470485Y-67886651D01*
X101964783Y-65664784D02*
X128797278Y-65664784D01*
X128488981Y-77752164D02*
X126756138Y-77752164D01*
X101964783Y-66557783D02*
X101964783Y-65664784D01*
X101964783Y-69800220D02*
X101964783Y-68907221D01*
X125331591Y-78496330D02*
X125331591Y-78804627D01*
X100540237Y-68907221D02*
X100540237Y-66557783D01*
X100689070Y-76859165D02*
X100689070Y-80537471D01*
X123981462Y-78496330D02*
X123981462Y-77454498D01*
X128488981Y-79644472D02*
X128488981Y-77752164D01*
X126756138Y-80537471D02*
X126756138Y-79644472D01*
X126915602Y-79793305D02*
X126915602Y-80686304D01*
X102124247Y-69651387D02*
X128648445Y-69651387D01*
X100540237Y-66557783D02*
X101964783Y-66557783D01*
X126756138Y-79644472D02*
X128488981Y-79644472D01*
X102124247Y-65824248D02*
X102124247Y-66717248D01*
X122950261Y-78496330D02*
X123981462Y-78496330D01*
X122950261Y-78804627D02*
X122950261Y-78496330D01*
X105419839Y-68875329D02*
X105419839Y-67833496D01*
X100689070Y-68758388D02*
X102124247Y-68758388D01*
X101964783Y-68907221D02*
X100540237Y-68907221D01*
X100689070Y-80537471D02*
X126756138Y-80537471D01*
X126915602Y-80686304D02*
X100540237Y-80686304D01*
X128648445Y-65824248D02*
X128648445Y-69651387D01*
X104378007Y-67833496D02*
X104378007Y-67525199D01*
X106769968Y-67833496D02*
X105738767Y-67833496D01*
X124300390Y-77454498D02*
X124300390Y-78496330D01*
X105738767Y-67525199D02*
X106769968Y-67525199D01*
X123981462Y-78804627D02*
X122950261Y-78804627D01*
X105738767Y-66483367D02*
X105738767Y-67525199D01*
X105419839Y-66483367D02*
X105738767Y-66483367D01*
X126756138Y-76859165D02*
X100689070Y-76859165D01*
X135611709Y-62613713D02*
X135845590Y-62613713D01*
X91025543Y-72957618D02*
X91025543Y-72946988D01*
X91057435Y-72968249D02*
X91046805Y-72957618D01*
X91004282Y-81515521D02*
X91004282Y-81090283D01*
X138535219Y-75902384D02*
X138535219Y-76316991D01*
X91025543Y-62518034D02*
X91025543Y-62507403D01*
X91046805Y-72957618D02*
X91025543Y-72957618D01*
X91004281Y-62528665D02*
X91014912Y-62518034D01*
X92588291Y-62613713D02*
X135611709Y-62613713D01*
X91025543Y-72946988D02*
X91014912Y-72946988D01*
X91365733Y-72946988D02*
X91280685Y-72946988D01*
X92588291Y-73584844D02*
X92588291Y-72851309D01*
X128648445Y-77603331D02*
X128648445Y-79793305D01*
X126915602Y-77603331D02*
X128648445Y-77603331D01*
X126915602Y-76710332D02*
X126915602Y-77603331D01*
X135611709Y-62060904D02*
X135611709Y-62613703D01*
X136951208Y-62518034D02*
X136972470Y-62507403D01*
X137195720Y-76316991D02*
X137195720Y-75902384D01*
X92588291Y-62613704D02*
X92588291Y-62060895D01*
X136855529Y-62528665D02*
X136876791Y-62518034D01*
X91004281Y-64420973D02*
X137195719Y-64420973D01*
X91323209Y-62518034D02*
X91344471Y-62528665D01*
X91301947Y-62518034D02*
X91323209Y-62518034D01*
X137195720Y-65345860D02*
X137195720Y-64931253D01*
X91004282Y-65345860D02*
X91004282Y-64931253D01*
X91004282Y-76316991D02*
X91004282Y-75902384D01*
X89664783Y-76316991D02*
X89664783Y-75902384D01*
X89664783Y-81515521D02*
X89664783Y-81090283D01*
X92588291Y-84385870D02*
X135611709Y-84385870D01*
X137195720Y-81515521D02*
X137195720Y-81090283D01*
X91014912Y-62518034D02*
X91025543Y-62518034D01*
X137131934Y-62060904D02*
X135611709Y-62060904D01*
X92588291Y-72851309D02*
X92439458Y-72851309D01*
X135611709Y-84385870D02*
X137131934Y-84385874D01*
X136972470Y-62507403D02*
X137089410Y-62507403D01*
X92588291Y-72851309D02*
X135611709Y-72851309D01*
X91014912Y-72946988D02*
X91004281Y-72936357D01*
X91280685Y-72946988D02*
X91259423Y-72957618D01*
X91163745Y-72957618D02*
X91142483Y-72968249D01*
X135611709Y-83822430D02*
X135611709Y-84385870D01*
X92354410Y-62613713D02*
X92588291Y-62613713D01*
X91025543Y-62507403D02*
X91046805Y-62507403D01*
X137174458Y-62507403D02*
X137195719Y-62528665D01*
X91259423Y-72957618D02*
X91163745Y-72957618D01*
X92439458Y-72851309D02*
X92354410Y-72861940D01*
X100540237Y-76710332D02*
X126915602Y-76710332D01*
X89664783Y-65345860D02*
X89664783Y-64931253D01*
X100540237Y-80686304D02*
X100540237Y-76710332D01*
X92588291Y-62060894D02*
X135611709Y-62060894D01*
X137195720Y-70544390D02*
X137195720Y-70119152D01*
X92588291Y-62060895D02*
X91068066Y-62060894D01*
X138535219Y-70119152D02*
X138535219Y-70544390D01*
X91004281Y-71054680D02*
X137195719Y-71054680D01*
X138535219Y-64931253D02*
X138535219Y-65345860D01*
X89664783Y-70544390D02*
X89664783Y-70119152D01*
X137163827Y-62507403D02*
X137174458Y-62507403D01*
X136876791Y-62518034D02*
X136951208Y-62518034D01*
X91004282Y-70544390D02*
X91004282Y-70119152D01*
X138535219Y-81090283D02*
X138535219Y-81515521D01*
X135611709Y-72851303D02*
X135611709Y-73584839D01*
X135845590Y-72861934D02*
X135771173Y-72861934D01*
X135771173Y-72861934D02*
X135611709Y-72851303D01*
X136929946Y-72946981D02*
X136855529Y-72946981D01*
X136951208Y-72957612D02*
X136929946Y-72946981D01*
X91323209Y-73489159D02*
X91344471Y-73499790D01*
X91301947Y-73489159D02*
X91323209Y-73489159D01*
X91025543Y-73478528D02*
X91046805Y-73478528D01*
X137185088Y-72946981D02*
X137185088Y-72957612D01*
X137153196Y-72957612D02*
X137142565Y-72968243D01*
X137185088Y-72957612D02*
X137153196Y-72957612D01*
X137057517Y-72968243D02*
X137036255Y-72957612D01*
X137036255Y-72957612D02*
X136951208Y-72957612D01*
X137142565Y-72968243D02*
X137057517Y-72968243D01*
X137195719Y-72936350D02*
X137185088Y-72946981D01*
X92354410Y-73584838D02*
X92588291Y-73584838D01*
M02*
