G04 #@! TF.GenerationSoftware,KiCad,Pcbnew,(5.1.4)-1*
G04 #@! TF.CreationDate,2019-08-19T13:53:23-06:00*
G04 #@! TF.ProjectId,Windchill01,57696e64-6368-4696-9c6c-30312e6b6963,rev?*
G04 #@! TF.SameCoordinates,Original*
G04 #@! TF.FileFunction,Paste,Top*
G04 #@! TF.FilePolarity,Positive*
%FSLAX46Y46*%
G04 Gerber Fmt 4.6, Leading zero omitted, Abs format (unit mm)*
G04 Created by KiCad (PCBNEW (5.1.4)-1) date 2019-08-19 13:53:23*
%MOMM*%
%LPD*%
G04 APERTURE LIST*
%ADD10R,2.540000X1.270000*%
%ADD11R,0.400000X1.220000*%
%ADD12R,0.900000X0.800000*%
%ADD13C,0.100000*%
%ADD14C,0.590000*%
%ADD15R,4.720000X0.860000*%
%ADD16R,4.720000X1.350000*%
%ADD17C,0.875000*%
%ADD18R,0.900000X0.700000*%
G04 APERTURE END LIST*
D10*
X95860000Y-65660000D03*
X101320000Y-65660000D03*
X95860000Y-68200000D03*
X101320000Y-68200000D03*
X95860000Y-70740000D03*
X101320000Y-70740000D03*
X101320000Y-73280000D03*
X95860000Y-73280000D03*
X101320000Y-75820000D03*
X95860000Y-75820000D03*
X101320000Y-78360000D03*
X95860000Y-78360000D03*
X101320000Y-80900000D03*
X95860000Y-80900000D03*
D11*
X133085000Y-76190000D03*
X132445000Y-76190000D03*
X131785000Y-76190000D03*
X131145000Y-76190000D03*
X131140000Y-73570000D03*
X131790000Y-73570000D03*
X132440000Y-73570000D03*
X133090000Y-73570000D03*
D12*
X139040000Y-75060000D03*
X137040000Y-76010000D03*
X137040000Y-74110000D03*
D13*
G36*
X135906958Y-73815710D02*
G01*
X135921276Y-73817834D01*
X135935317Y-73821351D01*
X135948946Y-73826228D01*
X135962031Y-73832417D01*
X135974447Y-73839858D01*
X135986073Y-73848481D01*
X135996798Y-73858202D01*
X136006519Y-73868927D01*
X136015142Y-73880553D01*
X136022583Y-73892969D01*
X136028772Y-73906054D01*
X136033649Y-73919683D01*
X136037166Y-73933724D01*
X136039290Y-73948042D01*
X136040000Y-73962500D01*
X136040000Y-74257500D01*
X136039290Y-74271958D01*
X136037166Y-74286276D01*
X136033649Y-74300317D01*
X136028772Y-74313946D01*
X136022583Y-74327031D01*
X136015142Y-74339447D01*
X136006519Y-74351073D01*
X135996798Y-74361798D01*
X135986073Y-74371519D01*
X135974447Y-74380142D01*
X135962031Y-74387583D01*
X135948946Y-74393772D01*
X135935317Y-74398649D01*
X135921276Y-74402166D01*
X135906958Y-74404290D01*
X135892500Y-74405000D01*
X135547500Y-74405000D01*
X135533042Y-74404290D01*
X135518724Y-74402166D01*
X135504683Y-74398649D01*
X135491054Y-74393772D01*
X135477969Y-74387583D01*
X135465553Y-74380142D01*
X135453927Y-74371519D01*
X135443202Y-74361798D01*
X135433481Y-74351073D01*
X135424858Y-74339447D01*
X135417417Y-74327031D01*
X135411228Y-74313946D01*
X135406351Y-74300317D01*
X135402834Y-74286276D01*
X135400710Y-74271958D01*
X135400000Y-74257500D01*
X135400000Y-73962500D01*
X135400710Y-73948042D01*
X135402834Y-73933724D01*
X135406351Y-73919683D01*
X135411228Y-73906054D01*
X135417417Y-73892969D01*
X135424858Y-73880553D01*
X135433481Y-73868927D01*
X135443202Y-73858202D01*
X135453927Y-73848481D01*
X135465553Y-73839858D01*
X135477969Y-73832417D01*
X135491054Y-73826228D01*
X135504683Y-73821351D01*
X135518724Y-73817834D01*
X135533042Y-73815710D01*
X135547500Y-73815000D01*
X135892500Y-73815000D01*
X135906958Y-73815710D01*
X135906958Y-73815710D01*
G37*
D14*
X135720000Y-74110000D03*
D13*
G36*
X135906958Y-74785710D02*
G01*
X135921276Y-74787834D01*
X135935317Y-74791351D01*
X135948946Y-74796228D01*
X135962031Y-74802417D01*
X135974447Y-74809858D01*
X135986073Y-74818481D01*
X135996798Y-74828202D01*
X136006519Y-74838927D01*
X136015142Y-74850553D01*
X136022583Y-74862969D01*
X136028772Y-74876054D01*
X136033649Y-74889683D01*
X136037166Y-74903724D01*
X136039290Y-74918042D01*
X136040000Y-74932500D01*
X136040000Y-75227500D01*
X136039290Y-75241958D01*
X136037166Y-75256276D01*
X136033649Y-75270317D01*
X136028772Y-75283946D01*
X136022583Y-75297031D01*
X136015142Y-75309447D01*
X136006519Y-75321073D01*
X135996798Y-75331798D01*
X135986073Y-75341519D01*
X135974447Y-75350142D01*
X135962031Y-75357583D01*
X135948946Y-75363772D01*
X135935317Y-75368649D01*
X135921276Y-75372166D01*
X135906958Y-75374290D01*
X135892500Y-75375000D01*
X135547500Y-75375000D01*
X135533042Y-75374290D01*
X135518724Y-75372166D01*
X135504683Y-75368649D01*
X135491054Y-75363772D01*
X135477969Y-75357583D01*
X135465553Y-75350142D01*
X135453927Y-75341519D01*
X135443202Y-75331798D01*
X135433481Y-75321073D01*
X135424858Y-75309447D01*
X135417417Y-75297031D01*
X135411228Y-75283946D01*
X135406351Y-75270317D01*
X135402834Y-75256276D01*
X135400710Y-75241958D01*
X135400000Y-75227500D01*
X135400000Y-74932500D01*
X135400710Y-74918042D01*
X135402834Y-74903724D01*
X135406351Y-74889683D01*
X135411228Y-74876054D01*
X135417417Y-74862969D01*
X135424858Y-74850553D01*
X135433481Y-74838927D01*
X135443202Y-74828202D01*
X135453927Y-74818481D01*
X135465553Y-74809858D01*
X135477969Y-74802417D01*
X135491054Y-74796228D01*
X135504683Y-74791351D01*
X135518724Y-74787834D01*
X135533042Y-74785710D01*
X135547500Y-74785000D01*
X135892500Y-74785000D01*
X135906958Y-74785710D01*
X135906958Y-74785710D01*
G37*
D14*
X135720000Y-75080000D03*
D13*
G36*
X134216958Y-79400710D02*
G01*
X134231276Y-79402834D01*
X134245317Y-79406351D01*
X134258946Y-79411228D01*
X134272031Y-79417417D01*
X134284447Y-79424858D01*
X134296073Y-79433481D01*
X134306798Y-79443202D01*
X134316519Y-79453927D01*
X134325142Y-79465553D01*
X134332583Y-79477969D01*
X134338772Y-79491054D01*
X134343649Y-79504683D01*
X134347166Y-79518724D01*
X134349290Y-79533042D01*
X134350000Y-79547500D01*
X134350000Y-79892500D01*
X134349290Y-79906958D01*
X134347166Y-79921276D01*
X134343649Y-79935317D01*
X134338772Y-79948946D01*
X134332583Y-79962031D01*
X134325142Y-79974447D01*
X134316519Y-79986073D01*
X134306798Y-79996798D01*
X134296073Y-80006519D01*
X134284447Y-80015142D01*
X134272031Y-80022583D01*
X134258946Y-80028772D01*
X134245317Y-80033649D01*
X134231276Y-80037166D01*
X134216958Y-80039290D01*
X134202500Y-80040000D01*
X133907500Y-80040000D01*
X133893042Y-80039290D01*
X133878724Y-80037166D01*
X133864683Y-80033649D01*
X133851054Y-80028772D01*
X133837969Y-80022583D01*
X133825553Y-80015142D01*
X133813927Y-80006519D01*
X133803202Y-79996798D01*
X133793481Y-79986073D01*
X133784858Y-79974447D01*
X133777417Y-79962031D01*
X133771228Y-79948946D01*
X133766351Y-79935317D01*
X133762834Y-79921276D01*
X133760710Y-79906958D01*
X133760000Y-79892500D01*
X133760000Y-79547500D01*
X133760710Y-79533042D01*
X133762834Y-79518724D01*
X133766351Y-79504683D01*
X133771228Y-79491054D01*
X133777417Y-79477969D01*
X133784858Y-79465553D01*
X133793481Y-79453927D01*
X133803202Y-79443202D01*
X133813927Y-79433481D01*
X133825553Y-79424858D01*
X133837969Y-79417417D01*
X133851054Y-79411228D01*
X133864683Y-79406351D01*
X133878724Y-79402834D01*
X133893042Y-79400710D01*
X133907500Y-79400000D01*
X134202500Y-79400000D01*
X134216958Y-79400710D01*
X134216958Y-79400710D01*
G37*
D14*
X134055000Y-79720000D03*
D13*
G36*
X133246958Y-79400710D02*
G01*
X133261276Y-79402834D01*
X133275317Y-79406351D01*
X133288946Y-79411228D01*
X133302031Y-79417417D01*
X133314447Y-79424858D01*
X133326073Y-79433481D01*
X133336798Y-79443202D01*
X133346519Y-79453927D01*
X133355142Y-79465553D01*
X133362583Y-79477969D01*
X133368772Y-79491054D01*
X133373649Y-79504683D01*
X133377166Y-79518724D01*
X133379290Y-79533042D01*
X133380000Y-79547500D01*
X133380000Y-79892500D01*
X133379290Y-79906958D01*
X133377166Y-79921276D01*
X133373649Y-79935317D01*
X133368772Y-79948946D01*
X133362583Y-79962031D01*
X133355142Y-79974447D01*
X133346519Y-79986073D01*
X133336798Y-79996798D01*
X133326073Y-80006519D01*
X133314447Y-80015142D01*
X133302031Y-80022583D01*
X133288946Y-80028772D01*
X133275317Y-80033649D01*
X133261276Y-80037166D01*
X133246958Y-80039290D01*
X133232500Y-80040000D01*
X132937500Y-80040000D01*
X132923042Y-80039290D01*
X132908724Y-80037166D01*
X132894683Y-80033649D01*
X132881054Y-80028772D01*
X132867969Y-80022583D01*
X132855553Y-80015142D01*
X132843927Y-80006519D01*
X132833202Y-79996798D01*
X132823481Y-79986073D01*
X132814858Y-79974447D01*
X132807417Y-79962031D01*
X132801228Y-79948946D01*
X132796351Y-79935317D01*
X132792834Y-79921276D01*
X132790710Y-79906958D01*
X132790000Y-79892500D01*
X132790000Y-79547500D01*
X132790710Y-79533042D01*
X132792834Y-79518724D01*
X132796351Y-79504683D01*
X132801228Y-79491054D01*
X132807417Y-79477969D01*
X132814858Y-79465553D01*
X132823481Y-79453927D01*
X132833202Y-79443202D01*
X132843927Y-79433481D01*
X132855553Y-79424858D01*
X132867969Y-79417417D01*
X132881054Y-79411228D01*
X132894683Y-79406351D01*
X132908724Y-79402834D01*
X132923042Y-79400710D01*
X132937500Y-79400000D01*
X133232500Y-79400000D01*
X133246958Y-79400710D01*
X133246958Y-79400710D01*
G37*
D14*
X133085000Y-79720000D03*
D15*
X144600000Y-73220000D03*
D16*
X144600000Y-68295000D03*
X144600000Y-78145000D03*
D15*
X83600000Y-73220000D03*
D16*
X83600000Y-78145000D03*
X83600000Y-68295000D03*
D12*
X128200000Y-76200000D03*
X126200000Y-77150000D03*
X126200000Y-75250000D03*
D13*
G36*
X133246958Y-77260710D02*
G01*
X133261276Y-77262834D01*
X133275317Y-77266351D01*
X133288946Y-77271228D01*
X133302031Y-77277417D01*
X133314447Y-77284858D01*
X133326073Y-77293481D01*
X133336798Y-77303202D01*
X133346519Y-77313927D01*
X133355142Y-77325553D01*
X133362583Y-77337969D01*
X133368772Y-77351054D01*
X133373649Y-77364683D01*
X133377166Y-77378724D01*
X133379290Y-77393042D01*
X133380000Y-77407500D01*
X133380000Y-77752500D01*
X133379290Y-77766958D01*
X133377166Y-77781276D01*
X133373649Y-77795317D01*
X133368772Y-77808946D01*
X133362583Y-77822031D01*
X133355142Y-77834447D01*
X133346519Y-77846073D01*
X133336798Y-77856798D01*
X133326073Y-77866519D01*
X133314447Y-77875142D01*
X133302031Y-77882583D01*
X133288946Y-77888772D01*
X133275317Y-77893649D01*
X133261276Y-77897166D01*
X133246958Y-77899290D01*
X133232500Y-77900000D01*
X132937500Y-77900000D01*
X132923042Y-77899290D01*
X132908724Y-77897166D01*
X132894683Y-77893649D01*
X132881054Y-77888772D01*
X132867969Y-77882583D01*
X132855553Y-77875142D01*
X132843927Y-77866519D01*
X132833202Y-77856798D01*
X132823481Y-77846073D01*
X132814858Y-77834447D01*
X132807417Y-77822031D01*
X132801228Y-77808946D01*
X132796351Y-77795317D01*
X132792834Y-77781276D01*
X132790710Y-77766958D01*
X132790000Y-77752500D01*
X132790000Y-77407500D01*
X132790710Y-77393042D01*
X132792834Y-77378724D01*
X132796351Y-77364683D01*
X132801228Y-77351054D01*
X132807417Y-77337969D01*
X132814858Y-77325553D01*
X132823481Y-77313927D01*
X132833202Y-77303202D01*
X132843927Y-77293481D01*
X132855553Y-77284858D01*
X132867969Y-77277417D01*
X132881054Y-77271228D01*
X132894683Y-77266351D01*
X132908724Y-77262834D01*
X132923042Y-77260710D01*
X132937500Y-77260000D01*
X133232500Y-77260000D01*
X133246958Y-77260710D01*
X133246958Y-77260710D01*
G37*
D14*
X133085000Y-77580000D03*
D13*
G36*
X134216958Y-77260710D02*
G01*
X134231276Y-77262834D01*
X134245317Y-77266351D01*
X134258946Y-77271228D01*
X134272031Y-77277417D01*
X134284447Y-77284858D01*
X134296073Y-77293481D01*
X134306798Y-77303202D01*
X134316519Y-77313927D01*
X134325142Y-77325553D01*
X134332583Y-77337969D01*
X134338772Y-77351054D01*
X134343649Y-77364683D01*
X134347166Y-77378724D01*
X134349290Y-77393042D01*
X134350000Y-77407500D01*
X134350000Y-77752500D01*
X134349290Y-77766958D01*
X134347166Y-77781276D01*
X134343649Y-77795317D01*
X134338772Y-77808946D01*
X134332583Y-77822031D01*
X134325142Y-77834447D01*
X134316519Y-77846073D01*
X134306798Y-77856798D01*
X134296073Y-77866519D01*
X134284447Y-77875142D01*
X134272031Y-77882583D01*
X134258946Y-77888772D01*
X134245317Y-77893649D01*
X134231276Y-77897166D01*
X134216958Y-77899290D01*
X134202500Y-77900000D01*
X133907500Y-77900000D01*
X133893042Y-77899290D01*
X133878724Y-77897166D01*
X133864683Y-77893649D01*
X133851054Y-77888772D01*
X133837969Y-77882583D01*
X133825553Y-77875142D01*
X133813927Y-77866519D01*
X133803202Y-77856798D01*
X133793481Y-77846073D01*
X133784858Y-77834447D01*
X133777417Y-77822031D01*
X133771228Y-77808946D01*
X133766351Y-77795317D01*
X133762834Y-77781276D01*
X133760710Y-77766958D01*
X133760000Y-77752500D01*
X133760000Y-77407500D01*
X133760710Y-77393042D01*
X133762834Y-77378724D01*
X133766351Y-77364683D01*
X133771228Y-77351054D01*
X133777417Y-77337969D01*
X133784858Y-77325553D01*
X133793481Y-77313927D01*
X133803202Y-77303202D01*
X133813927Y-77293481D01*
X133825553Y-77284858D01*
X133837969Y-77277417D01*
X133851054Y-77271228D01*
X133864683Y-77266351D01*
X133878724Y-77262834D01*
X133893042Y-77260710D01*
X133907500Y-77260000D01*
X134202500Y-77260000D01*
X134216958Y-77260710D01*
X134216958Y-77260710D01*
G37*
D14*
X134055000Y-77580000D03*
D13*
G36*
X129986958Y-75895710D02*
G01*
X130001276Y-75897834D01*
X130015317Y-75901351D01*
X130028946Y-75906228D01*
X130042031Y-75912417D01*
X130054447Y-75919858D01*
X130066073Y-75928481D01*
X130076798Y-75938202D01*
X130086519Y-75948927D01*
X130095142Y-75960553D01*
X130102583Y-75972969D01*
X130108772Y-75986054D01*
X130113649Y-75999683D01*
X130117166Y-76013724D01*
X130119290Y-76028042D01*
X130120000Y-76042500D01*
X130120000Y-76337500D01*
X130119290Y-76351958D01*
X130117166Y-76366276D01*
X130113649Y-76380317D01*
X130108772Y-76393946D01*
X130102583Y-76407031D01*
X130095142Y-76419447D01*
X130086519Y-76431073D01*
X130076798Y-76441798D01*
X130066073Y-76451519D01*
X130054447Y-76460142D01*
X130042031Y-76467583D01*
X130028946Y-76473772D01*
X130015317Y-76478649D01*
X130001276Y-76482166D01*
X129986958Y-76484290D01*
X129972500Y-76485000D01*
X129627500Y-76485000D01*
X129613042Y-76484290D01*
X129598724Y-76482166D01*
X129584683Y-76478649D01*
X129571054Y-76473772D01*
X129557969Y-76467583D01*
X129545553Y-76460142D01*
X129533927Y-76451519D01*
X129523202Y-76441798D01*
X129513481Y-76431073D01*
X129504858Y-76419447D01*
X129497417Y-76407031D01*
X129491228Y-76393946D01*
X129486351Y-76380317D01*
X129482834Y-76366276D01*
X129480710Y-76351958D01*
X129480000Y-76337500D01*
X129480000Y-76042500D01*
X129480710Y-76028042D01*
X129482834Y-76013724D01*
X129486351Y-75999683D01*
X129491228Y-75986054D01*
X129497417Y-75972969D01*
X129504858Y-75960553D01*
X129513481Y-75948927D01*
X129523202Y-75938202D01*
X129533927Y-75928481D01*
X129545553Y-75919858D01*
X129557969Y-75912417D01*
X129571054Y-75906228D01*
X129584683Y-75901351D01*
X129598724Y-75897834D01*
X129613042Y-75895710D01*
X129627500Y-75895000D01*
X129972500Y-75895000D01*
X129986958Y-75895710D01*
X129986958Y-75895710D01*
G37*
D14*
X129800000Y-76190000D03*
D13*
G36*
X129986958Y-76865710D02*
G01*
X130001276Y-76867834D01*
X130015317Y-76871351D01*
X130028946Y-76876228D01*
X130042031Y-76882417D01*
X130054447Y-76889858D01*
X130066073Y-76898481D01*
X130076798Y-76908202D01*
X130086519Y-76918927D01*
X130095142Y-76930553D01*
X130102583Y-76942969D01*
X130108772Y-76956054D01*
X130113649Y-76969683D01*
X130117166Y-76983724D01*
X130119290Y-76998042D01*
X130120000Y-77012500D01*
X130120000Y-77307500D01*
X130119290Y-77321958D01*
X130117166Y-77336276D01*
X130113649Y-77350317D01*
X130108772Y-77363946D01*
X130102583Y-77377031D01*
X130095142Y-77389447D01*
X130086519Y-77401073D01*
X130076798Y-77411798D01*
X130066073Y-77421519D01*
X130054447Y-77430142D01*
X130042031Y-77437583D01*
X130028946Y-77443772D01*
X130015317Y-77448649D01*
X130001276Y-77452166D01*
X129986958Y-77454290D01*
X129972500Y-77455000D01*
X129627500Y-77455000D01*
X129613042Y-77454290D01*
X129598724Y-77452166D01*
X129584683Y-77448649D01*
X129571054Y-77443772D01*
X129557969Y-77437583D01*
X129545553Y-77430142D01*
X129533927Y-77421519D01*
X129523202Y-77411798D01*
X129513481Y-77401073D01*
X129504858Y-77389447D01*
X129497417Y-77377031D01*
X129491228Y-77363946D01*
X129486351Y-77350317D01*
X129482834Y-77336276D01*
X129480710Y-77321958D01*
X129480000Y-77307500D01*
X129480000Y-77012500D01*
X129480710Y-76998042D01*
X129482834Y-76983724D01*
X129486351Y-76969683D01*
X129491228Y-76956054D01*
X129497417Y-76942969D01*
X129504858Y-76930553D01*
X129513481Y-76918927D01*
X129523202Y-76908202D01*
X129533927Y-76898481D01*
X129545553Y-76889858D01*
X129557969Y-76882417D01*
X129571054Y-76876228D01*
X129584683Y-76871351D01*
X129598724Y-76867834D01*
X129613042Y-76865710D01*
X129627500Y-76865000D01*
X129972500Y-76865000D01*
X129986958Y-76865710D01*
X129986958Y-76865710D01*
G37*
D14*
X129800000Y-77160000D03*
D13*
G36*
X101481958Y-62619710D02*
G01*
X101496276Y-62621834D01*
X101510317Y-62625351D01*
X101523946Y-62630228D01*
X101537031Y-62636417D01*
X101549447Y-62643858D01*
X101561073Y-62652481D01*
X101571798Y-62662202D01*
X101581519Y-62672927D01*
X101590142Y-62684553D01*
X101597583Y-62696969D01*
X101603772Y-62710054D01*
X101608649Y-62723683D01*
X101612166Y-62737724D01*
X101614290Y-62752042D01*
X101615000Y-62766500D01*
X101615000Y-63111500D01*
X101614290Y-63125958D01*
X101612166Y-63140276D01*
X101608649Y-63154317D01*
X101603772Y-63167946D01*
X101597583Y-63181031D01*
X101590142Y-63193447D01*
X101581519Y-63205073D01*
X101571798Y-63215798D01*
X101561073Y-63225519D01*
X101549447Y-63234142D01*
X101537031Y-63241583D01*
X101523946Y-63247772D01*
X101510317Y-63252649D01*
X101496276Y-63256166D01*
X101481958Y-63258290D01*
X101467500Y-63259000D01*
X101172500Y-63259000D01*
X101158042Y-63258290D01*
X101143724Y-63256166D01*
X101129683Y-63252649D01*
X101116054Y-63247772D01*
X101102969Y-63241583D01*
X101090553Y-63234142D01*
X101078927Y-63225519D01*
X101068202Y-63215798D01*
X101058481Y-63205073D01*
X101049858Y-63193447D01*
X101042417Y-63181031D01*
X101036228Y-63167946D01*
X101031351Y-63154317D01*
X101027834Y-63140276D01*
X101025710Y-63125958D01*
X101025000Y-63111500D01*
X101025000Y-62766500D01*
X101025710Y-62752042D01*
X101027834Y-62737724D01*
X101031351Y-62723683D01*
X101036228Y-62710054D01*
X101042417Y-62696969D01*
X101049858Y-62684553D01*
X101058481Y-62672927D01*
X101068202Y-62662202D01*
X101078927Y-62652481D01*
X101090553Y-62643858D01*
X101102969Y-62636417D01*
X101116054Y-62630228D01*
X101129683Y-62625351D01*
X101143724Y-62621834D01*
X101158042Y-62619710D01*
X101172500Y-62619000D01*
X101467500Y-62619000D01*
X101481958Y-62619710D01*
X101481958Y-62619710D01*
G37*
D14*
X101320000Y-62939000D03*
D13*
G36*
X100511958Y-62619710D02*
G01*
X100526276Y-62621834D01*
X100540317Y-62625351D01*
X100553946Y-62630228D01*
X100567031Y-62636417D01*
X100579447Y-62643858D01*
X100591073Y-62652481D01*
X100601798Y-62662202D01*
X100611519Y-62672927D01*
X100620142Y-62684553D01*
X100627583Y-62696969D01*
X100633772Y-62710054D01*
X100638649Y-62723683D01*
X100642166Y-62737724D01*
X100644290Y-62752042D01*
X100645000Y-62766500D01*
X100645000Y-63111500D01*
X100644290Y-63125958D01*
X100642166Y-63140276D01*
X100638649Y-63154317D01*
X100633772Y-63167946D01*
X100627583Y-63181031D01*
X100620142Y-63193447D01*
X100611519Y-63205073D01*
X100601798Y-63215798D01*
X100591073Y-63225519D01*
X100579447Y-63234142D01*
X100567031Y-63241583D01*
X100553946Y-63247772D01*
X100540317Y-63252649D01*
X100526276Y-63256166D01*
X100511958Y-63258290D01*
X100497500Y-63259000D01*
X100202500Y-63259000D01*
X100188042Y-63258290D01*
X100173724Y-63256166D01*
X100159683Y-63252649D01*
X100146054Y-63247772D01*
X100132969Y-63241583D01*
X100120553Y-63234142D01*
X100108927Y-63225519D01*
X100098202Y-63215798D01*
X100088481Y-63205073D01*
X100079858Y-63193447D01*
X100072417Y-63181031D01*
X100066228Y-63167946D01*
X100061351Y-63154317D01*
X100057834Y-63140276D01*
X100055710Y-63125958D01*
X100055000Y-63111500D01*
X100055000Y-62766500D01*
X100055710Y-62752042D01*
X100057834Y-62737724D01*
X100061351Y-62723683D01*
X100066228Y-62710054D01*
X100072417Y-62696969D01*
X100079858Y-62684553D01*
X100088481Y-62672927D01*
X100098202Y-62662202D01*
X100108927Y-62652481D01*
X100120553Y-62643858D01*
X100132969Y-62636417D01*
X100146054Y-62630228D01*
X100159683Y-62625351D01*
X100173724Y-62621834D01*
X100188042Y-62619710D01*
X100202500Y-62619000D01*
X100497500Y-62619000D01*
X100511958Y-62619710D01*
X100511958Y-62619710D01*
G37*
D14*
X100350000Y-62939000D03*
D13*
G36*
X131971958Y-78455710D02*
G01*
X131986276Y-78457834D01*
X132000317Y-78461351D01*
X132013946Y-78466228D01*
X132027031Y-78472417D01*
X132039447Y-78479858D01*
X132051073Y-78488481D01*
X132061798Y-78498202D01*
X132071519Y-78508927D01*
X132080142Y-78520553D01*
X132087583Y-78532969D01*
X132093772Y-78546054D01*
X132098649Y-78559683D01*
X132102166Y-78573724D01*
X132104290Y-78588042D01*
X132105000Y-78602500D01*
X132105000Y-78897500D01*
X132104290Y-78911958D01*
X132102166Y-78926276D01*
X132098649Y-78940317D01*
X132093772Y-78953946D01*
X132087583Y-78967031D01*
X132080142Y-78979447D01*
X132071519Y-78991073D01*
X132061798Y-79001798D01*
X132051073Y-79011519D01*
X132039447Y-79020142D01*
X132027031Y-79027583D01*
X132013946Y-79033772D01*
X132000317Y-79038649D01*
X131986276Y-79042166D01*
X131971958Y-79044290D01*
X131957500Y-79045000D01*
X131612500Y-79045000D01*
X131598042Y-79044290D01*
X131583724Y-79042166D01*
X131569683Y-79038649D01*
X131556054Y-79033772D01*
X131542969Y-79027583D01*
X131530553Y-79020142D01*
X131518927Y-79011519D01*
X131508202Y-79001798D01*
X131498481Y-78991073D01*
X131489858Y-78979447D01*
X131482417Y-78967031D01*
X131476228Y-78953946D01*
X131471351Y-78940317D01*
X131467834Y-78926276D01*
X131465710Y-78911958D01*
X131465000Y-78897500D01*
X131465000Y-78602500D01*
X131465710Y-78588042D01*
X131467834Y-78573724D01*
X131471351Y-78559683D01*
X131476228Y-78546054D01*
X131482417Y-78532969D01*
X131489858Y-78520553D01*
X131498481Y-78508927D01*
X131508202Y-78498202D01*
X131518927Y-78488481D01*
X131530553Y-78479858D01*
X131542969Y-78472417D01*
X131556054Y-78466228D01*
X131569683Y-78461351D01*
X131583724Y-78457834D01*
X131598042Y-78455710D01*
X131612500Y-78455000D01*
X131957500Y-78455000D01*
X131971958Y-78455710D01*
X131971958Y-78455710D01*
G37*
D14*
X131785000Y-78750000D03*
D13*
G36*
X131971958Y-79425710D02*
G01*
X131986276Y-79427834D01*
X132000317Y-79431351D01*
X132013946Y-79436228D01*
X132027031Y-79442417D01*
X132039447Y-79449858D01*
X132051073Y-79458481D01*
X132061798Y-79468202D01*
X132071519Y-79478927D01*
X132080142Y-79490553D01*
X132087583Y-79502969D01*
X132093772Y-79516054D01*
X132098649Y-79529683D01*
X132102166Y-79543724D01*
X132104290Y-79558042D01*
X132105000Y-79572500D01*
X132105000Y-79867500D01*
X132104290Y-79881958D01*
X132102166Y-79896276D01*
X132098649Y-79910317D01*
X132093772Y-79923946D01*
X132087583Y-79937031D01*
X132080142Y-79949447D01*
X132071519Y-79961073D01*
X132061798Y-79971798D01*
X132051073Y-79981519D01*
X132039447Y-79990142D01*
X132027031Y-79997583D01*
X132013946Y-80003772D01*
X132000317Y-80008649D01*
X131986276Y-80012166D01*
X131971958Y-80014290D01*
X131957500Y-80015000D01*
X131612500Y-80015000D01*
X131598042Y-80014290D01*
X131583724Y-80012166D01*
X131569683Y-80008649D01*
X131556054Y-80003772D01*
X131542969Y-79997583D01*
X131530553Y-79990142D01*
X131518927Y-79981519D01*
X131508202Y-79971798D01*
X131498481Y-79961073D01*
X131489858Y-79949447D01*
X131482417Y-79937031D01*
X131476228Y-79923946D01*
X131471351Y-79910317D01*
X131467834Y-79896276D01*
X131465710Y-79881958D01*
X131465000Y-79867500D01*
X131465000Y-79572500D01*
X131465710Y-79558042D01*
X131467834Y-79543724D01*
X131471351Y-79529683D01*
X131476228Y-79516054D01*
X131482417Y-79502969D01*
X131489858Y-79490553D01*
X131498481Y-79478927D01*
X131508202Y-79468202D01*
X131518927Y-79458481D01*
X131530553Y-79449858D01*
X131542969Y-79442417D01*
X131556054Y-79436228D01*
X131569683Y-79431351D01*
X131583724Y-79427834D01*
X131598042Y-79425710D01*
X131612500Y-79425000D01*
X131957500Y-79425000D01*
X131971958Y-79425710D01*
X131971958Y-79425710D01*
G37*
D14*
X131785000Y-79720000D03*
D13*
G36*
X139201958Y-72320710D02*
G01*
X139216276Y-72322834D01*
X139230317Y-72326351D01*
X139243946Y-72331228D01*
X139257031Y-72337417D01*
X139269447Y-72344858D01*
X139281073Y-72353481D01*
X139291798Y-72363202D01*
X139301519Y-72373927D01*
X139310142Y-72385553D01*
X139317583Y-72397969D01*
X139323772Y-72411054D01*
X139328649Y-72424683D01*
X139332166Y-72438724D01*
X139334290Y-72453042D01*
X139335000Y-72467500D01*
X139335000Y-72812500D01*
X139334290Y-72826958D01*
X139332166Y-72841276D01*
X139328649Y-72855317D01*
X139323772Y-72868946D01*
X139317583Y-72882031D01*
X139310142Y-72894447D01*
X139301519Y-72906073D01*
X139291798Y-72916798D01*
X139281073Y-72926519D01*
X139269447Y-72935142D01*
X139257031Y-72942583D01*
X139243946Y-72948772D01*
X139230317Y-72953649D01*
X139216276Y-72957166D01*
X139201958Y-72959290D01*
X139187500Y-72960000D01*
X138892500Y-72960000D01*
X138878042Y-72959290D01*
X138863724Y-72957166D01*
X138849683Y-72953649D01*
X138836054Y-72948772D01*
X138822969Y-72942583D01*
X138810553Y-72935142D01*
X138798927Y-72926519D01*
X138788202Y-72916798D01*
X138778481Y-72906073D01*
X138769858Y-72894447D01*
X138762417Y-72882031D01*
X138756228Y-72868946D01*
X138751351Y-72855317D01*
X138747834Y-72841276D01*
X138745710Y-72826958D01*
X138745000Y-72812500D01*
X138745000Y-72467500D01*
X138745710Y-72453042D01*
X138747834Y-72438724D01*
X138751351Y-72424683D01*
X138756228Y-72411054D01*
X138762417Y-72397969D01*
X138769858Y-72385553D01*
X138778481Y-72373927D01*
X138788202Y-72363202D01*
X138798927Y-72353481D01*
X138810553Y-72344858D01*
X138822969Y-72337417D01*
X138836054Y-72331228D01*
X138849683Y-72326351D01*
X138863724Y-72322834D01*
X138878042Y-72320710D01*
X138892500Y-72320000D01*
X139187500Y-72320000D01*
X139201958Y-72320710D01*
X139201958Y-72320710D01*
G37*
D14*
X139040000Y-72640000D03*
D13*
G36*
X138231958Y-72320710D02*
G01*
X138246276Y-72322834D01*
X138260317Y-72326351D01*
X138273946Y-72331228D01*
X138287031Y-72337417D01*
X138299447Y-72344858D01*
X138311073Y-72353481D01*
X138321798Y-72363202D01*
X138331519Y-72373927D01*
X138340142Y-72385553D01*
X138347583Y-72397969D01*
X138353772Y-72411054D01*
X138358649Y-72424683D01*
X138362166Y-72438724D01*
X138364290Y-72453042D01*
X138365000Y-72467500D01*
X138365000Y-72812500D01*
X138364290Y-72826958D01*
X138362166Y-72841276D01*
X138358649Y-72855317D01*
X138353772Y-72868946D01*
X138347583Y-72882031D01*
X138340142Y-72894447D01*
X138331519Y-72906073D01*
X138321798Y-72916798D01*
X138311073Y-72926519D01*
X138299447Y-72935142D01*
X138287031Y-72942583D01*
X138273946Y-72948772D01*
X138260317Y-72953649D01*
X138246276Y-72957166D01*
X138231958Y-72959290D01*
X138217500Y-72960000D01*
X137922500Y-72960000D01*
X137908042Y-72959290D01*
X137893724Y-72957166D01*
X137879683Y-72953649D01*
X137866054Y-72948772D01*
X137852969Y-72942583D01*
X137840553Y-72935142D01*
X137828927Y-72926519D01*
X137818202Y-72916798D01*
X137808481Y-72906073D01*
X137799858Y-72894447D01*
X137792417Y-72882031D01*
X137786228Y-72868946D01*
X137781351Y-72855317D01*
X137777834Y-72841276D01*
X137775710Y-72826958D01*
X137775000Y-72812500D01*
X137775000Y-72467500D01*
X137775710Y-72453042D01*
X137777834Y-72438724D01*
X137781351Y-72424683D01*
X137786228Y-72411054D01*
X137792417Y-72397969D01*
X137799858Y-72385553D01*
X137808481Y-72373927D01*
X137818202Y-72363202D01*
X137828927Y-72353481D01*
X137840553Y-72344858D01*
X137852969Y-72337417D01*
X137866054Y-72331228D01*
X137879683Y-72326351D01*
X137893724Y-72322834D01*
X137908042Y-72320710D01*
X137922500Y-72320000D01*
X138217500Y-72320000D01*
X138231958Y-72320710D01*
X138231958Y-72320710D01*
G37*
D14*
X138070000Y-72640000D03*
D13*
G36*
X127511958Y-73620710D02*
G01*
X127526276Y-73622834D01*
X127540317Y-73626351D01*
X127553946Y-73631228D01*
X127567031Y-73637417D01*
X127579447Y-73644858D01*
X127591073Y-73653481D01*
X127601798Y-73663202D01*
X127611519Y-73673927D01*
X127620142Y-73685553D01*
X127627583Y-73697969D01*
X127633772Y-73711054D01*
X127638649Y-73724683D01*
X127642166Y-73738724D01*
X127644290Y-73753042D01*
X127645000Y-73767500D01*
X127645000Y-74112500D01*
X127644290Y-74126958D01*
X127642166Y-74141276D01*
X127638649Y-74155317D01*
X127633772Y-74168946D01*
X127627583Y-74182031D01*
X127620142Y-74194447D01*
X127611519Y-74206073D01*
X127601798Y-74216798D01*
X127591073Y-74226519D01*
X127579447Y-74235142D01*
X127567031Y-74242583D01*
X127553946Y-74248772D01*
X127540317Y-74253649D01*
X127526276Y-74257166D01*
X127511958Y-74259290D01*
X127497500Y-74260000D01*
X127202500Y-74260000D01*
X127188042Y-74259290D01*
X127173724Y-74257166D01*
X127159683Y-74253649D01*
X127146054Y-74248772D01*
X127132969Y-74242583D01*
X127120553Y-74235142D01*
X127108927Y-74226519D01*
X127098202Y-74216798D01*
X127088481Y-74206073D01*
X127079858Y-74194447D01*
X127072417Y-74182031D01*
X127066228Y-74168946D01*
X127061351Y-74155317D01*
X127057834Y-74141276D01*
X127055710Y-74126958D01*
X127055000Y-74112500D01*
X127055000Y-73767500D01*
X127055710Y-73753042D01*
X127057834Y-73738724D01*
X127061351Y-73724683D01*
X127066228Y-73711054D01*
X127072417Y-73697969D01*
X127079858Y-73685553D01*
X127088481Y-73673927D01*
X127098202Y-73663202D01*
X127108927Y-73653481D01*
X127120553Y-73644858D01*
X127132969Y-73637417D01*
X127146054Y-73631228D01*
X127159683Y-73626351D01*
X127173724Y-73622834D01*
X127188042Y-73620710D01*
X127202500Y-73620000D01*
X127497500Y-73620000D01*
X127511958Y-73620710D01*
X127511958Y-73620710D01*
G37*
D14*
X127350000Y-73940000D03*
D13*
G36*
X126541958Y-73620710D02*
G01*
X126556276Y-73622834D01*
X126570317Y-73626351D01*
X126583946Y-73631228D01*
X126597031Y-73637417D01*
X126609447Y-73644858D01*
X126621073Y-73653481D01*
X126631798Y-73663202D01*
X126641519Y-73673927D01*
X126650142Y-73685553D01*
X126657583Y-73697969D01*
X126663772Y-73711054D01*
X126668649Y-73724683D01*
X126672166Y-73738724D01*
X126674290Y-73753042D01*
X126675000Y-73767500D01*
X126675000Y-74112500D01*
X126674290Y-74126958D01*
X126672166Y-74141276D01*
X126668649Y-74155317D01*
X126663772Y-74168946D01*
X126657583Y-74182031D01*
X126650142Y-74194447D01*
X126641519Y-74206073D01*
X126631798Y-74216798D01*
X126621073Y-74226519D01*
X126609447Y-74235142D01*
X126597031Y-74242583D01*
X126583946Y-74248772D01*
X126570317Y-74253649D01*
X126556276Y-74257166D01*
X126541958Y-74259290D01*
X126527500Y-74260000D01*
X126232500Y-74260000D01*
X126218042Y-74259290D01*
X126203724Y-74257166D01*
X126189683Y-74253649D01*
X126176054Y-74248772D01*
X126162969Y-74242583D01*
X126150553Y-74235142D01*
X126138927Y-74226519D01*
X126128202Y-74216798D01*
X126118481Y-74206073D01*
X126109858Y-74194447D01*
X126102417Y-74182031D01*
X126096228Y-74168946D01*
X126091351Y-74155317D01*
X126087834Y-74141276D01*
X126085710Y-74126958D01*
X126085000Y-74112500D01*
X126085000Y-73767500D01*
X126085710Y-73753042D01*
X126087834Y-73738724D01*
X126091351Y-73724683D01*
X126096228Y-73711054D01*
X126102417Y-73697969D01*
X126109858Y-73685553D01*
X126118481Y-73673927D01*
X126128202Y-73663202D01*
X126138927Y-73653481D01*
X126150553Y-73644858D01*
X126162969Y-73637417D01*
X126176054Y-73631228D01*
X126189683Y-73626351D01*
X126203724Y-73622834D01*
X126218042Y-73620710D01*
X126232500Y-73620000D01*
X126527500Y-73620000D01*
X126541958Y-73620710D01*
X126541958Y-73620710D01*
G37*
D14*
X126380000Y-73940000D03*
D13*
G36*
X93896958Y-65340710D02*
G01*
X93911276Y-65342834D01*
X93925317Y-65346351D01*
X93938946Y-65351228D01*
X93952031Y-65357417D01*
X93964447Y-65364858D01*
X93976073Y-65373481D01*
X93986798Y-65383202D01*
X93996519Y-65393927D01*
X94005142Y-65405553D01*
X94012583Y-65417969D01*
X94018772Y-65431054D01*
X94023649Y-65444683D01*
X94027166Y-65458724D01*
X94029290Y-65473042D01*
X94030000Y-65487500D01*
X94030000Y-65832500D01*
X94029290Y-65846958D01*
X94027166Y-65861276D01*
X94023649Y-65875317D01*
X94018772Y-65888946D01*
X94012583Y-65902031D01*
X94005142Y-65914447D01*
X93996519Y-65926073D01*
X93986798Y-65936798D01*
X93976073Y-65946519D01*
X93964447Y-65955142D01*
X93952031Y-65962583D01*
X93938946Y-65968772D01*
X93925317Y-65973649D01*
X93911276Y-65977166D01*
X93896958Y-65979290D01*
X93882500Y-65980000D01*
X93587500Y-65980000D01*
X93573042Y-65979290D01*
X93558724Y-65977166D01*
X93544683Y-65973649D01*
X93531054Y-65968772D01*
X93517969Y-65962583D01*
X93505553Y-65955142D01*
X93493927Y-65946519D01*
X93483202Y-65936798D01*
X93473481Y-65926073D01*
X93464858Y-65914447D01*
X93457417Y-65902031D01*
X93451228Y-65888946D01*
X93446351Y-65875317D01*
X93442834Y-65861276D01*
X93440710Y-65846958D01*
X93440000Y-65832500D01*
X93440000Y-65487500D01*
X93440710Y-65473042D01*
X93442834Y-65458724D01*
X93446351Y-65444683D01*
X93451228Y-65431054D01*
X93457417Y-65417969D01*
X93464858Y-65405553D01*
X93473481Y-65393927D01*
X93483202Y-65383202D01*
X93493927Y-65373481D01*
X93505553Y-65364858D01*
X93517969Y-65357417D01*
X93531054Y-65351228D01*
X93544683Y-65346351D01*
X93558724Y-65342834D01*
X93573042Y-65340710D01*
X93587500Y-65340000D01*
X93882500Y-65340000D01*
X93896958Y-65340710D01*
X93896958Y-65340710D01*
G37*
D14*
X93735000Y-65660000D03*
D13*
G36*
X92926958Y-65340710D02*
G01*
X92941276Y-65342834D01*
X92955317Y-65346351D01*
X92968946Y-65351228D01*
X92982031Y-65357417D01*
X92994447Y-65364858D01*
X93006073Y-65373481D01*
X93016798Y-65383202D01*
X93026519Y-65393927D01*
X93035142Y-65405553D01*
X93042583Y-65417969D01*
X93048772Y-65431054D01*
X93053649Y-65444683D01*
X93057166Y-65458724D01*
X93059290Y-65473042D01*
X93060000Y-65487500D01*
X93060000Y-65832500D01*
X93059290Y-65846958D01*
X93057166Y-65861276D01*
X93053649Y-65875317D01*
X93048772Y-65888946D01*
X93042583Y-65902031D01*
X93035142Y-65914447D01*
X93026519Y-65926073D01*
X93016798Y-65936798D01*
X93006073Y-65946519D01*
X92994447Y-65955142D01*
X92982031Y-65962583D01*
X92968946Y-65968772D01*
X92955317Y-65973649D01*
X92941276Y-65977166D01*
X92926958Y-65979290D01*
X92912500Y-65980000D01*
X92617500Y-65980000D01*
X92603042Y-65979290D01*
X92588724Y-65977166D01*
X92574683Y-65973649D01*
X92561054Y-65968772D01*
X92547969Y-65962583D01*
X92535553Y-65955142D01*
X92523927Y-65946519D01*
X92513202Y-65936798D01*
X92503481Y-65926073D01*
X92494858Y-65914447D01*
X92487417Y-65902031D01*
X92481228Y-65888946D01*
X92476351Y-65875317D01*
X92472834Y-65861276D01*
X92470710Y-65846958D01*
X92470000Y-65832500D01*
X92470000Y-65487500D01*
X92470710Y-65473042D01*
X92472834Y-65458724D01*
X92476351Y-65444683D01*
X92481228Y-65431054D01*
X92487417Y-65417969D01*
X92494858Y-65405553D01*
X92503481Y-65393927D01*
X92513202Y-65383202D01*
X92523927Y-65373481D01*
X92535553Y-65364858D01*
X92547969Y-65357417D01*
X92561054Y-65351228D01*
X92574683Y-65346351D01*
X92588724Y-65342834D01*
X92603042Y-65340710D01*
X92617500Y-65340000D01*
X92912500Y-65340000D01*
X92926958Y-65340710D01*
X92926958Y-65340710D01*
G37*
D14*
X92765000Y-65660000D03*
D13*
G36*
X92926958Y-67880710D02*
G01*
X92941276Y-67882834D01*
X92955317Y-67886351D01*
X92968946Y-67891228D01*
X92982031Y-67897417D01*
X92994447Y-67904858D01*
X93006073Y-67913481D01*
X93016798Y-67923202D01*
X93026519Y-67933927D01*
X93035142Y-67945553D01*
X93042583Y-67957969D01*
X93048772Y-67971054D01*
X93053649Y-67984683D01*
X93057166Y-67998724D01*
X93059290Y-68013042D01*
X93060000Y-68027500D01*
X93060000Y-68372500D01*
X93059290Y-68386958D01*
X93057166Y-68401276D01*
X93053649Y-68415317D01*
X93048772Y-68428946D01*
X93042583Y-68442031D01*
X93035142Y-68454447D01*
X93026519Y-68466073D01*
X93016798Y-68476798D01*
X93006073Y-68486519D01*
X92994447Y-68495142D01*
X92982031Y-68502583D01*
X92968946Y-68508772D01*
X92955317Y-68513649D01*
X92941276Y-68517166D01*
X92926958Y-68519290D01*
X92912500Y-68520000D01*
X92617500Y-68520000D01*
X92603042Y-68519290D01*
X92588724Y-68517166D01*
X92574683Y-68513649D01*
X92561054Y-68508772D01*
X92547969Y-68502583D01*
X92535553Y-68495142D01*
X92523927Y-68486519D01*
X92513202Y-68476798D01*
X92503481Y-68466073D01*
X92494858Y-68454447D01*
X92487417Y-68442031D01*
X92481228Y-68428946D01*
X92476351Y-68415317D01*
X92472834Y-68401276D01*
X92470710Y-68386958D01*
X92470000Y-68372500D01*
X92470000Y-68027500D01*
X92470710Y-68013042D01*
X92472834Y-67998724D01*
X92476351Y-67984683D01*
X92481228Y-67971054D01*
X92487417Y-67957969D01*
X92494858Y-67945553D01*
X92503481Y-67933927D01*
X92513202Y-67923202D01*
X92523927Y-67913481D01*
X92535553Y-67904858D01*
X92547969Y-67897417D01*
X92561054Y-67891228D01*
X92574683Y-67886351D01*
X92588724Y-67882834D01*
X92603042Y-67880710D01*
X92617500Y-67880000D01*
X92912500Y-67880000D01*
X92926958Y-67880710D01*
X92926958Y-67880710D01*
G37*
D14*
X92765000Y-68200000D03*
D13*
G36*
X93896958Y-67880710D02*
G01*
X93911276Y-67882834D01*
X93925317Y-67886351D01*
X93938946Y-67891228D01*
X93952031Y-67897417D01*
X93964447Y-67904858D01*
X93976073Y-67913481D01*
X93986798Y-67923202D01*
X93996519Y-67933927D01*
X94005142Y-67945553D01*
X94012583Y-67957969D01*
X94018772Y-67971054D01*
X94023649Y-67984683D01*
X94027166Y-67998724D01*
X94029290Y-68013042D01*
X94030000Y-68027500D01*
X94030000Y-68372500D01*
X94029290Y-68386958D01*
X94027166Y-68401276D01*
X94023649Y-68415317D01*
X94018772Y-68428946D01*
X94012583Y-68442031D01*
X94005142Y-68454447D01*
X93996519Y-68466073D01*
X93986798Y-68476798D01*
X93976073Y-68486519D01*
X93964447Y-68495142D01*
X93952031Y-68502583D01*
X93938946Y-68508772D01*
X93925317Y-68513649D01*
X93911276Y-68517166D01*
X93896958Y-68519290D01*
X93882500Y-68520000D01*
X93587500Y-68520000D01*
X93573042Y-68519290D01*
X93558724Y-68517166D01*
X93544683Y-68513649D01*
X93531054Y-68508772D01*
X93517969Y-68502583D01*
X93505553Y-68495142D01*
X93493927Y-68486519D01*
X93483202Y-68476798D01*
X93473481Y-68466073D01*
X93464858Y-68454447D01*
X93457417Y-68442031D01*
X93451228Y-68428946D01*
X93446351Y-68415317D01*
X93442834Y-68401276D01*
X93440710Y-68386958D01*
X93440000Y-68372500D01*
X93440000Y-68027500D01*
X93440710Y-68013042D01*
X93442834Y-67998724D01*
X93446351Y-67984683D01*
X93451228Y-67971054D01*
X93457417Y-67957969D01*
X93464858Y-67945553D01*
X93473481Y-67933927D01*
X93483202Y-67923202D01*
X93493927Y-67913481D01*
X93505553Y-67904858D01*
X93517969Y-67897417D01*
X93531054Y-67891228D01*
X93544683Y-67886351D01*
X93558724Y-67882834D01*
X93573042Y-67880710D01*
X93587500Y-67880000D01*
X93882500Y-67880000D01*
X93896958Y-67880710D01*
X93896958Y-67880710D01*
G37*
D14*
X93735000Y-68200000D03*
D13*
G36*
X93896958Y-70420710D02*
G01*
X93911276Y-70422834D01*
X93925317Y-70426351D01*
X93938946Y-70431228D01*
X93952031Y-70437417D01*
X93964447Y-70444858D01*
X93976073Y-70453481D01*
X93986798Y-70463202D01*
X93996519Y-70473927D01*
X94005142Y-70485553D01*
X94012583Y-70497969D01*
X94018772Y-70511054D01*
X94023649Y-70524683D01*
X94027166Y-70538724D01*
X94029290Y-70553042D01*
X94030000Y-70567500D01*
X94030000Y-70912500D01*
X94029290Y-70926958D01*
X94027166Y-70941276D01*
X94023649Y-70955317D01*
X94018772Y-70968946D01*
X94012583Y-70982031D01*
X94005142Y-70994447D01*
X93996519Y-71006073D01*
X93986798Y-71016798D01*
X93976073Y-71026519D01*
X93964447Y-71035142D01*
X93952031Y-71042583D01*
X93938946Y-71048772D01*
X93925317Y-71053649D01*
X93911276Y-71057166D01*
X93896958Y-71059290D01*
X93882500Y-71060000D01*
X93587500Y-71060000D01*
X93573042Y-71059290D01*
X93558724Y-71057166D01*
X93544683Y-71053649D01*
X93531054Y-71048772D01*
X93517969Y-71042583D01*
X93505553Y-71035142D01*
X93493927Y-71026519D01*
X93483202Y-71016798D01*
X93473481Y-71006073D01*
X93464858Y-70994447D01*
X93457417Y-70982031D01*
X93451228Y-70968946D01*
X93446351Y-70955317D01*
X93442834Y-70941276D01*
X93440710Y-70926958D01*
X93440000Y-70912500D01*
X93440000Y-70567500D01*
X93440710Y-70553042D01*
X93442834Y-70538724D01*
X93446351Y-70524683D01*
X93451228Y-70511054D01*
X93457417Y-70497969D01*
X93464858Y-70485553D01*
X93473481Y-70473927D01*
X93483202Y-70463202D01*
X93493927Y-70453481D01*
X93505553Y-70444858D01*
X93517969Y-70437417D01*
X93531054Y-70431228D01*
X93544683Y-70426351D01*
X93558724Y-70422834D01*
X93573042Y-70420710D01*
X93587500Y-70420000D01*
X93882500Y-70420000D01*
X93896958Y-70420710D01*
X93896958Y-70420710D01*
G37*
D14*
X93735000Y-70740000D03*
D13*
G36*
X92926958Y-70420710D02*
G01*
X92941276Y-70422834D01*
X92955317Y-70426351D01*
X92968946Y-70431228D01*
X92982031Y-70437417D01*
X92994447Y-70444858D01*
X93006073Y-70453481D01*
X93016798Y-70463202D01*
X93026519Y-70473927D01*
X93035142Y-70485553D01*
X93042583Y-70497969D01*
X93048772Y-70511054D01*
X93053649Y-70524683D01*
X93057166Y-70538724D01*
X93059290Y-70553042D01*
X93060000Y-70567500D01*
X93060000Y-70912500D01*
X93059290Y-70926958D01*
X93057166Y-70941276D01*
X93053649Y-70955317D01*
X93048772Y-70968946D01*
X93042583Y-70982031D01*
X93035142Y-70994447D01*
X93026519Y-71006073D01*
X93016798Y-71016798D01*
X93006073Y-71026519D01*
X92994447Y-71035142D01*
X92982031Y-71042583D01*
X92968946Y-71048772D01*
X92955317Y-71053649D01*
X92941276Y-71057166D01*
X92926958Y-71059290D01*
X92912500Y-71060000D01*
X92617500Y-71060000D01*
X92603042Y-71059290D01*
X92588724Y-71057166D01*
X92574683Y-71053649D01*
X92561054Y-71048772D01*
X92547969Y-71042583D01*
X92535553Y-71035142D01*
X92523927Y-71026519D01*
X92513202Y-71016798D01*
X92503481Y-71006073D01*
X92494858Y-70994447D01*
X92487417Y-70982031D01*
X92481228Y-70968946D01*
X92476351Y-70955317D01*
X92472834Y-70941276D01*
X92470710Y-70926958D01*
X92470000Y-70912500D01*
X92470000Y-70567500D01*
X92470710Y-70553042D01*
X92472834Y-70538724D01*
X92476351Y-70524683D01*
X92481228Y-70511054D01*
X92487417Y-70497969D01*
X92494858Y-70485553D01*
X92503481Y-70473927D01*
X92513202Y-70463202D01*
X92523927Y-70453481D01*
X92535553Y-70444858D01*
X92547969Y-70437417D01*
X92561054Y-70431228D01*
X92574683Y-70426351D01*
X92588724Y-70422834D01*
X92603042Y-70420710D01*
X92617500Y-70420000D01*
X92912500Y-70420000D01*
X92926958Y-70420710D01*
X92926958Y-70420710D01*
G37*
D14*
X92765000Y-70740000D03*
D13*
G36*
X92926958Y-72960710D02*
G01*
X92941276Y-72962834D01*
X92955317Y-72966351D01*
X92968946Y-72971228D01*
X92982031Y-72977417D01*
X92994447Y-72984858D01*
X93006073Y-72993481D01*
X93016798Y-73003202D01*
X93026519Y-73013927D01*
X93035142Y-73025553D01*
X93042583Y-73037969D01*
X93048772Y-73051054D01*
X93053649Y-73064683D01*
X93057166Y-73078724D01*
X93059290Y-73093042D01*
X93060000Y-73107500D01*
X93060000Y-73452500D01*
X93059290Y-73466958D01*
X93057166Y-73481276D01*
X93053649Y-73495317D01*
X93048772Y-73508946D01*
X93042583Y-73522031D01*
X93035142Y-73534447D01*
X93026519Y-73546073D01*
X93016798Y-73556798D01*
X93006073Y-73566519D01*
X92994447Y-73575142D01*
X92982031Y-73582583D01*
X92968946Y-73588772D01*
X92955317Y-73593649D01*
X92941276Y-73597166D01*
X92926958Y-73599290D01*
X92912500Y-73600000D01*
X92617500Y-73600000D01*
X92603042Y-73599290D01*
X92588724Y-73597166D01*
X92574683Y-73593649D01*
X92561054Y-73588772D01*
X92547969Y-73582583D01*
X92535553Y-73575142D01*
X92523927Y-73566519D01*
X92513202Y-73556798D01*
X92503481Y-73546073D01*
X92494858Y-73534447D01*
X92487417Y-73522031D01*
X92481228Y-73508946D01*
X92476351Y-73495317D01*
X92472834Y-73481276D01*
X92470710Y-73466958D01*
X92470000Y-73452500D01*
X92470000Y-73107500D01*
X92470710Y-73093042D01*
X92472834Y-73078724D01*
X92476351Y-73064683D01*
X92481228Y-73051054D01*
X92487417Y-73037969D01*
X92494858Y-73025553D01*
X92503481Y-73013927D01*
X92513202Y-73003202D01*
X92523927Y-72993481D01*
X92535553Y-72984858D01*
X92547969Y-72977417D01*
X92561054Y-72971228D01*
X92574683Y-72966351D01*
X92588724Y-72962834D01*
X92603042Y-72960710D01*
X92617500Y-72960000D01*
X92912500Y-72960000D01*
X92926958Y-72960710D01*
X92926958Y-72960710D01*
G37*
D14*
X92765000Y-73280000D03*
D13*
G36*
X93896958Y-72960710D02*
G01*
X93911276Y-72962834D01*
X93925317Y-72966351D01*
X93938946Y-72971228D01*
X93952031Y-72977417D01*
X93964447Y-72984858D01*
X93976073Y-72993481D01*
X93986798Y-73003202D01*
X93996519Y-73013927D01*
X94005142Y-73025553D01*
X94012583Y-73037969D01*
X94018772Y-73051054D01*
X94023649Y-73064683D01*
X94027166Y-73078724D01*
X94029290Y-73093042D01*
X94030000Y-73107500D01*
X94030000Y-73452500D01*
X94029290Y-73466958D01*
X94027166Y-73481276D01*
X94023649Y-73495317D01*
X94018772Y-73508946D01*
X94012583Y-73522031D01*
X94005142Y-73534447D01*
X93996519Y-73546073D01*
X93986798Y-73556798D01*
X93976073Y-73566519D01*
X93964447Y-73575142D01*
X93952031Y-73582583D01*
X93938946Y-73588772D01*
X93925317Y-73593649D01*
X93911276Y-73597166D01*
X93896958Y-73599290D01*
X93882500Y-73600000D01*
X93587500Y-73600000D01*
X93573042Y-73599290D01*
X93558724Y-73597166D01*
X93544683Y-73593649D01*
X93531054Y-73588772D01*
X93517969Y-73582583D01*
X93505553Y-73575142D01*
X93493927Y-73566519D01*
X93483202Y-73556798D01*
X93473481Y-73546073D01*
X93464858Y-73534447D01*
X93457417Y-73522031D01*
X93451228Y-73508946D01*
X93446351Y-73495317D01*
X93442834Y-73481276D01*
X93440710Y-73466958D01*
X93440000Y-73452500D01*
X93440000Y-73107500D01*
X93440710Y-73093042D01*
X93442834Y-73078724D01*
X93446351Y-73064683D01*
X93451228Y-73051054D01*
X93457417Y-73037969D01*
X93464858Y-73025553D01*
X93473481Y-73013927D01*
X93483202Y-73003202D01*
X93493927Y-72993481D01*
X93505553Y-72984858D01*
X93517969Y-72977417D01*
X93531054Y-72971228D01*
X93544683Y-72966351D01*
X93558724Y-72962834D01*
X93573042Y-72960710D01*
X93587500Y-72960000D01*
X93882500Y-72960000D01*
X93896958Y-72960710D01*
X93896958Y-72960710D01*
G37*
D14*
X93735000Y-73280000D03*
D13*
G36*
X132626958Y-70620710D02*
G01*
X132641276Y-70622834D01*
X132655317Y-70626351D01*
X132668946Y-70631228D01*
X132682031Y-70637417D01*
X132694447Y-70644858D01*
X132706073Y-70653481D01*
X132716798Y-70663202D01*
X132726519Y-70673927D01*
X132735142Y-70685553D01*
X132742583Y-70697969D01*
X132748772Y-70711054D01*
X132753649Y-70724683D01*
X132757166Y-70738724D01*
X132759290Y-70753042D01*
X132760000Y-70767500D01*
X132760000Y-71062500D01*
X132759290Y-71076958D01*
X132757166Y-71091276D01*
X132753649Y-71105317D01*
X132748772Y-71118946D01*
X132742583Y-71132031D01*
X132735142Y-71144447D01*
X132726519Y-71156073D01*
X132716798Y-71166798D01*
X132706073Y-71176519D01*
X132694447Y-71185142D01*
X132682031Y-71192583D01*
X132668946Y-71198772D01*
X132655317Y-71203649D01*
X132641276Y-71207166D01*
X132626958Y-71209290D01*
X132612500Y-71210000D01*
X132267500Y-71210000D01*
X132253042Y-71209290D01*
X132238724Y-71207166D01*
X132224683Y-71203649D01*
X132211054Y-71198772D01*
X132197969Y-71192583D01*
X132185553Y-71185142D01*
X132173927Y-71176519D01*
X132163202Y-71166798D01*
X132153481Y-71156073D01*
X132144858Y-71144447D01*
X132137417Y-71132031D01*
X132131228Y-71118946D01*
X132126351Y-71105317D01*
X132122834Y-71091276D01*
X132120710Y-71076958D01*
X132120000Y-71062500D01*
X132120000Y-70767500D01*
X132120710Y-70753042D01*
X132122834Y-70738724D01*
X132126351Y-70724683D01*
X132131228Y-70711054D01*
X132137417Y-70697969D01*
X132144858Y-70685553D01*
X132153481Y-70673927D01*
X132163202Y-70663202D01*
X132173927Y-70653481D01*
X132185553Y-70644858D01*
X132197969Y-70637417D01*
X132211054Y-70631228D01*
X132224683Y-70626351D01*
X132238724Y-70622834D01*
X132253042Y-70620710D01*
X132267500Y-70620000D01*
X132612500Y-70620000D01*
X132626958Y-70620710D01*
X132626958Y-70620710D01*
G37*
D14*
X132440000Y-70915000D03*
D13*
G36*
X132626958Y-71590710D02*
G01*
X132641276Y-71592834D01*
X132655317Y-71596351D01*
X132668946Y-71601228D01*
X132682031Y-71607417D01*
X132694447Y-71614858D01*
X132706073Y-71623481D01*
X132716798Y-71633202D01*
X132726519Y-71643927D01*
X132735142Y-71655553D01*
X132742583Y-71667969D01*
X132748772Y-71681054D01*
X132753649Y-71694683D01*
X132757166Y-71708724D01*
X132759290Y-71723042D01*
X132760000Y-71737500D01*
X132760000Y-72032500D01*
X132759290Y-72046958D01*
X132757166Y-72061276D01*
X132753649Y-72075317D01*
X132748772Y-72088946D01*
X132742583Y-72102031D01*
X132735142Y-72114447D01*
X132726519Y-72126073D01*
X132716798Y-72136798D01*
X132706073Y-72146519D01*
X132694447Y-72155142D01*
X132682031Y-72162583D01*
X132668946Y-72168772D01*
X132655317Y-72173649D01*
X132641276Y-72177166D01*
X132626958Y-72179290D01*
X132612500Y-72180000D01*
X132267500Y-72180000D01*
X132253042Y-72179290D01*
X132238724Y-72177166D01*
X132224683Y-72173649D01*
X132211054Y-72168772D01*
X132197969Y-72162583D01*
X132185553Y-72155142D01*
X132173927Y-72146519D01*
X132163202Y-72136798D01*
X132153481Y-72126073D01*
X132144858Y-72114447D01*
X132137417Y-72102031D01*
X132131228Y-72088946D01*
X132126351Y-72075317D01*
X132122834Y-72061276D01*
X132120710Y-72046958D01*
X132120000Y-72032500D01*
X132120000Y-71737500D01*
X132120710Y-71723042D01*
X132122834Y-71708724D01*
X132126351Y-71694683D01*
X132131228Y-71681054D01*
X132137417Y-71667969D01*
X132144858Y-71655553D01*
X132153481Y-71643927D01*
X132163202Y-71633202D01*
X132173927Y-71623481D01*
X132185553Y-71614858D01*
X132197969Y-71607417D01*
X132211054Y-71601228D01*
X132224683Y-71596351D01*
X132238724Y-71592834D01*
X132253042Y-71590710D01*
X132267500Y-71590000D01*
X132612500Y-71590000D01*
X132626958Y-71590710D01*
X132626958Y-71590710D01*
G37*
D14*
X132440000Y-71885000D03*
D13*
G36*
X100511958Y-63750710D02*
G01*
X100526276Y-63752834D01*
X100540317Y-63756351D01*
X100553946Y-63761228D01*
X100567031Y-63767417D01*
X100579447Y-63774858D01*
X100591073Y-63783481D01*
X100601798Y-63793202D01*
X100611519Y-63803927D01*
X100620142Y-63815553D01*
X100627583Y-63827969D01*
X100633772Y-63841054D01*
X100638649Y-63854683D01*
X100642166Y-63868724D01*
X100644290Y-63883042D01*
X100645000Y-63897500D01*
X100645000Y-64242500D01*
X100644290Y-64256958D01*
X100642166Y-64271276D01*
X100638649Y-64285317D01*
X100633772Y-64298946D01*
X100627583Y-64312031D01*
X100620142Y-64324447D01*
X100611519Y-64336073D01*
X100601798Y-64346798D01*
X100591073Y-64356519D01*
X100579447Y-64365142D01*
X100567031Y-64372583D01*
X100553946Y-64378772D01*
X100540317Y-64383649D01*
X100526276Y-64387166D01*
X100511958Y-64389290D01*
X100497500Y-64390000D01*
X100202500Y-64390000D01*
X100188042Y-64389290D01*
X100173724Y-64387166D01*
X100159683Y-64383649D01*
X100146054Y-64378772D01*
X100132969Y-64372583D01*
X100120553Y-64365142D01*
X100108927Y-64356519D01*
X100098202Y-64346798D01*
X100088481Y-64336073D01*
X100079858Y-64324447D01*
X100072417Y-64312031D01*
X100066228Y-64298946D01*
X100061351Y-64285317D01*
X100057834Y-64271276D01*
X100055710Y-64256958D01*
X100055000Y-64242500D01*
X100055000Y-63897500D01*
X100055710Y-63883042D01*
X100057834Y-63868724D01*
X100061351Y-63854683D01*
X100066228Y-63841054D01*
X100072417Y-63827969D01*
X100079858Y-63815553D01*
X100088481Y-63803927D01*
X100098202Y-63793202D01*
X100108927Y-63783481D01*
X100120553Y-63774858D01*
X100132969Y-63767417D01*
X100146054Y-63761228D01*
X100159683Y-63756351D01*
X100173724Y-63752834D01*
X100188042Y-63750710D01*
X100202500Y-63750000D01*
X100497500Y-63750000D01*
X100511958Y-63750710D01*
X100511958Y-63750710D01*
G37*
D14*
X100350000Y-64070000D03*
D13*
G36*
X101481958Y-63750710D02*
G01*
X101496276Y-63752834D01*
X101510317Y-63756351D01*
X101523946Y-63761228D01*
X101537031Y-63767417D01*
X101549447Y-63774858D01*
X101561073Y-63783481D01*
X101571798Y-63793202D01*
X101581519Y-63803927D01*
X101590142Y-63815553D01*
X101597583Y-63827969D01*
X101603772Y-63841054D01*
X101608649Y-63854683D01*
X101612166Y-63868724D01*
X101614290Y-63883042D01*
X101615000Y-63897500D01*
X101615000Y-64242500D01*
X101614290Y-64256958D01*
X101612166Y-64271276D01*
X101608649Y-64285317D01*
X101603772Y-64298946D01*
X101597583Y-64312031D01*
X101590142Y-64324447D01*
X101581519Y-64336073D01*
X101571798Y-64346798D01*
X101561073Y-64356519D01*
X101549447Y-64365142D01*
X101537031Y-64372583D01*
X101523946Y-64378772D01*
X101510317Y-64383649D01*
X101496276Y-64387166D01*
X101481958Y-64389290D01*
X101467500Y-64390000D01*
X101172500Y-64390000D01*
X101158042Y-64389290D01*
X101143724Y-64387166D01*
X101129683Y-64383649D01*
X101116054Y-64378772D01*
X101102969Y-64372583D01*
X101090553Y-64365142D01*
X101078927Y-64356519D01*
X101068202Y-64346798D01*
X101058481Y-64336073D01*
X101049858Y-64324447D01*
X101042417Y-64312031D01*
X101036228Y-64298946D01*
X101031351Y-64285317D01*
X101027834Y-64271276D01*
X101025710Y-64256958D01*
X101025000Y-64242500D01*
X101025000Y-63897500D01*
X101025710Y-63883042D01*
X101027834Y-63868724D01*
X101031351Y-63854683D01*
X101036228Y-63841054D01*
X101042417Y-63827969D01*
X101049858Y-63815553D01*
X101058481Y-63803927D01*
X101068202Y-63793202D01*
X101078927Y-63783481D01*
X101090553Y-63774858D01*
X101102969Y-63767417D01*
X101116054Y-63761228D01*
X101129683Y-63756351D01*
X101143724Y-63752834D01*
X101158042Y-63750710D01*
X101172500Y-63750000D01*
X101467500Y-63750000D01*
X101481958Y-63750710D01*
X101481958Y-63750710D01*
G37*
D14*
X101320000Y-64070000D03*
D13*
G36*
X93896958Y-75500710D02*
G01*
X93911276Y-75502834D01*
X93925317Y-75506351D01*
X93938946Y-75511228D01*
X93952031Y-75517417D01*
X93964447Y-75524858D01*
X93976073Y-75533481D01*
X93986798Y-75543202D01*
X93996519Y-75553927D01*
X94005142Y-75565553D01*
X94012583Y-75577969D01*
X94018772Y-75591054D01*
X94023649Y-75604683D01*
X94027166Y-75618724D01*
X94029290Y-75633042D01*
X94030000Y-75647500D01*
X94030000Y-75992500D01*
X94029290Y-76006958D01*
X94027166Y-76021276D01*
X94023649Y-76035317D01*
X94018772Y-76048946D01*
X94012583Y-76062031D01*
X94005142Y-76074447D01*
X93996519Y-76086073D01*
X93986798Y-76096798D01*
X93976073Y-76106519D01*
X93964447Y-76115142D01*
X93952031Y-76122583D01*
X93938946Y-76128772D01*
X93925317Y-76133649D01*
X93911276Y-76137166D01*
X93896958Y-76139290D01*
X93882500Y-76140000D01*
X93587500Y-76140000D01*
X93573042Y-76139290D01*
X93558724Y-76137166D01*
X93544683Y-76133649D01*
X93531054Y-76128772D01*
X93517969Y-76122583D01*
X93505553Y-76115142D01*
X93493927Y-76106519D01*
X93483202Y-76096798D01*
X93473481Y-76086073D01*
X93464858Y-76074447D01*
X93457417Y-76062031D01*
X93451228Y-76048946D01*
X93446351Y-76035317D01*
X93442834Y-76021276D01*
X93440710Y-76006958D01*
X93440000Y-75992500D01*
X93440000Y-75647500D01*
X93440710Y-75633042D01*
X93442834Y-75618724D01*
X93446351Y-75604683D01*
X93451228Y-75591054D01*
X93457417Y-75577969D01*
X93464858Y-75565553D01*
X93473481Y-75553927D01*
X93483202Y-75543202D01*
X93493927Y-75533481D01*
X93505553Y-75524858D01*
X93517969Y-75517417D01*
X93531054Y-75511228D01*
X93544683Y-75506351D01*
X93558724Y-75502834D01*
X93573042Y-75500710D01*
X93587500Y-75500000D01*
X93882500Y-75500000D01*
X93896958Y-75500710D01*
X93896958Y-75500710D01*
G37*
D14*
X93735000Y-75820000D03*
D13*
G36*
X92926958Y-75500710D02*
G01*
X92941276Y-75502834D01*
X92955317Y-75506351D01*
X92968946Y-75511228D01*
X92982031Y-75517417D01*
X92994447Y-75524858D01*
X93006073Y-75533481D01*
X93016798Y-75543202D01*
X93026519Y-75553927D01*
X93035142Y-75565553D01*
X93042583Y-75577969D01*
X93048772Y-75591054D01*
X93053649Y-75604683D01*
X93057166Y-75618724D01*
X93059290Y-75633042D01*
X93060000Y-75647500D01*
X93060000Y-75992500D01*
X93059290Y-76006958D01*
X93057166Y-76021276D01*
X93053649Y-76035317D01*
X93048772Y-76048946D01*
X93042583Y-76062031D01*
X93035142Y-76074447D01*
X93026519Y-76086073D01*
X93016798Y-76096798D01*
X93006073Y-76106519D01*
X92994447Y-76115142D01*
X92982031Y-76122583D01*
X92968946Y-76128772D01*
X92955317Y-76133649D01*
X92941276Y-76137166D01*
X92926958Y-76139290D01*
X92912500Y-76140000D01*
X92617500Y-76140000D01*
X92603042Y-76139290D01*
X92588724Y-76137166D01*
X92574683Y-76133649D01*
X92561054Y-76128772D01*
X92547969Y-76122583D01*
X92535553Y-76115142D01*
X92523927Y-76106519D01*
X92513202Y-76096798D01*
X92503481Y-76086073D01*
X92494858Y-76074447D01*
X92487417Y-76062031D01*
X92481228Y-76048946D01*
X92476351Y-76035317D01*
X92472834Y-76021276D01*
X92470710Y-76006958D01*
X92470000Y-75992500D01*
X92470000Y-75647500D01*
X92470710Y-75633042D01*
X92472834Y-75618724D01*
X92476351Y-75604683D01*
X92481228Y-75591054D01*
X92487417Y-75577969D01*
X92494858Y-75565553D01*
X92503481Y-75553927D01*
X92513202Y-75543202D01*
X92523927Y-75533481D01*
X92535553Y-75524858D01*
X92547969Y-75517417D01*
X92561054Y-75511228D01*
X92574683Y-75506351D01*
X92588724Y-75502834D01*
X92603042Y-75500710D01*
X92617500Y-75500000D01*
X92912500Y-75500000D01*
X92926958Y-75500710D01*
X92926958Y-75500710D01*
G37*
D14*
X92765000Y-75820000D03*
D13*
G36*
X92926958Y-78040710D02*
G01*
X92941276Y-78042834D01*
X92955317Y-78046351D01*
X92968946Y-78051228D01*
X92982031Y-78057417D01*
X92994447Y-78064858D01*
X93006073Y-78073481D01*
X93016798Y-78083202D01*
X93026519Y-78093927D01*
X93035142Y-78105553D01*
X93042583Y-78117969D01*
X93048772Y-78131054D01*
X93053649Y-78144683D01*
X93057166Y-78158724D01*
X93059290Y-78173042D01*
X93060000Y-78187500D01*
X93060000Y-78532500D01*
X93059290Y-78546958D01*
X93057166Y-78561276D01*
X93053649Y-78575317D01*
X93048772Y-78588946D01*
X93042583Y-78602031D01*
X93035142Y-78614447D01*
X93026519Y-78626073D01*
X93016798Y-78636798D01*
X93006073Y-78646519D01*
X92994447Y-78655142D01*
X92982031Y-78662583D01*
X92968946Y-78668772D01*
X92955317Y-78673649D01*
X92941276Y-78677166D01*
X92926958Y-78679290D01*
X92912500Y-78680000D01*
X92617500Y-78680000D01*
X92603042Y-78679290D01*
X92588724Y-78677166D01*
X92574683Y-78673649D01*
X92561054Y-78668772D01*
X92547969Y-78662583D01*
X92535553Y-78655142D01*
X92523927Y-78646519D01*
X92513202Y-78636798D01*
X92503481Y-78626073D01*
X92494858Y-78614447D01*
X92487417Y-78602031D01*
X92481228Y-78588946D01*
X92476351Y-78575317D01*
X92472834Y-78561276D01*
X92470710Y-78546958D01*
X92470000Y-78532500D01*
X92470000Y-78187500D01*
X92470710Y-78173042D01*
X92472834Y-78158724D01*
X92476351Y-78144683D01*
X92481228Y-78131054D01*
X92487417Y-78117969D01*
X92494858Y-78105553D01*
X92503481Y-78093927D01*
X92513202Y-78083202D01*
X92523927Y-78073481D01*
X92535553Y-78064858D01*
X92547969Y-78057417D01*
X92561054Y-78051228D01*
X92574683Y-78046351D01*
X92588724Y-78042834D01*
X92603042Y-78040710D01*
X92617500Y-78040000D01*
X92912500Y-78040000D01*
X92926958Y-78040710D01*
X92926958Y-78040710D01*
G37*
D14*
X92765000Y-78360000D03*
D13*
G36*
X93896958Y-78040710D02*
G01*
X93911276Y-78042834D01*
X93925317Y-78046351D01*
X93938946Y-78051228D01*
X93952031Y-78057417D01*
X93964447Y-78064858D01*
X93976073Y-78073481D01*
X93986798Y-78083202D01*
X93996519Y-78093927D01*
X94005142Y-78105553D01*
X94012583Y-78117969D01*
X94018772Y-78131054D01*
X94023649Y-78144683D01*
X94027166Y-78158724D01*
X94029290Y-78173042D01*
X94030000Y-78187500D01*
X94030000Y-78532500D01*
X94029290Y-78546958D01*
X94027166Y-78561276D01*
X94023649Y-78575317D01*
X94018772Y-78588946D01*
X94012583Y-78602031D01*
X94005142Y-78614447D01*
X93996519Y-78626073D01*
X93986798Y-78636798D01*
X93976073Y-78646519D01*
X93964447Y-78655142D01*
X93952031Y-78662583D01*
X93938946Y-78668772D01*
X93925317Y-78673649D01*
X93911276Y-78677166D01*
X93896958Y-78679290D01*
X93882500Y-78680000D01*
X93587500Y-78680000D01*
X93573042Y-78679290D01*
X93558724Y-78677166D01*
X93544683Y-78673649D01*
X93531054Y-78668772D01*
X93517969Y-78662583D01*
X93505553Y-78655142D01*
X93493927Y-78646519D01*
X93483202Y-78636798D01*
X93473481Y-78626073D01*
X93464858Y-78614447D01*
X93457417Y-78602031D01*
X93451228Y-78588946D01*
X93446351Y-78575317D01*
X93442834Y-78561276D01*
X93440710Y-78546958D01*
X93440000Y-78532500D01*
X93440000Y-78187500D01*
X93440710Y-78173042D01*
X93442834Y-78158724D01*
X93446351Y-78144683D01*
X93451228Y-78131054D01*
X93457417Y-78117969D01*
X93464858Y-78105553D01*
X93473481Y-78093927D01*
X93483202Y-78083202D01*
X93493927Y-78073481D01*
X93505553Y-78064858D01*
X93517969Y-78057417D01*
X93531054Y-78051228D01*
X93544683Y-78046351D01*
X93558724Y-78042834D01*
X93573042Y-78040710D01*
X93587500Y-78040000D01*
X93882500Y-78040000D01*
X93896958Y-78040710D01*
X93896958Y-78040710D01*
G37*
D14*
X93735000Y-78360000D03*
D13*
G36*
X93896958Y-80580710D02*
G01*
X93911276Y-80582834D01*
X93925317Y-80586351D01*
X93938946Y-80591228D01*
X93952031Y-80597417D01*
X93964447Y-80604858D01*
X93976073Y-80613481D01*
X93986798Y-80623202D01*
X93996519Y-80633927D01*
X94005142Y-80645553D01*
X94012583Y-80657969D01*
X94018772Y-80671054D01*
X94023649Y-80684683D01*
X94027166Y-80698724D01*
X94029290Y-80713042D01*
X94030000Y-80727500D01*
X94030000Y-81072500D01*
X94029290Y-81086958D01*
X94027166Y-81101276D01*
X94023649Y-81115317D01*
X94018772Y-81128946D01*
X94012583Y-81142031D01*
X94005142Y-81154447D01*
X93996519Y-81166073D01*
X93986798Y-81176798D01*
X93976073Y-81186519D01*
X93964447Y-81195142D01*
X93952031Y-81202583D01*
X93938946Y-81208772D01*
X93925317Y-81213649D01*
X93911276Y-81217166D01*
X93896958Y-81219290D01*
X93882500Y-81220000D01*
X93587500Y-81220000D01*
X93573042Y-81219290D01*
X93558724Y-81217166D01*
X93544683Y-81213649D01*
X93531054Y-81208772D01*
X93517969Y-81202583D01*
X93505553Y-81195142D01*
X93493927Y-81186519D01*
X93483202Y-81176798D01*
X93473481Y-81166073D01*
X93464858Y-81154447D01*
X93457417Y-81142031D01*
X93451228Y-81128946D01*
X93446351Y-81115317D01*
X93442834Y-81101276D01*
X93440710Y-81086958D01*
X93440000Y-81072500D01*
X93440000Y-80727500D01*
X93440710Y-80713042D01*
X93442834Y-80698724D01*
X93446351Y-80684683D01*
X93451228Y-80671054D01*
X93457417Y-80657969D01*
X93464858Y-80645553D01*
X93473481Y-80633927D01*
X93483202Y-80623202D01*
X93493927Y-80613481D01*
X93505553Y-80604858D01*
X93517969Y-80597417D01*
X93531054Y-80591228D01*
X93544683Y-80586351D01*
X93558724Y-80582834D01*
X93573042Y-80580710D01*
X93587500Y-80580000D01*
X93882500Y-80580000D01*
X93896958Y-80580710D01*
X93896958Y-80580710D01*
G37*
D14*
X93735000Y-80900000D03*
D13*
G36*
X92926958Y-80580710D02*
G01*
X92941276Y-80582834D01*
X92955317Y-80586351D01*
X92968946Y-80591228D01*
X92982031Y-80597417D01*
X92994447Y-80604858D01*
X93006073Y-80613481D01*
X93016798Y-80623202D01*
X93026519Y-80633927D01*
X93035142Y-80645553D01*
X93042583Y-80657969D01*
X93048772Y-80671054D01*
X93053649Y-80684683D01*
X93057166Y-80698724D01*
X93059290Y-80713042D01*
X93060000Y-80727500D01*
X93060000Y-81072500D01*
X93059290Y-81086958D01*
X93057166Y-81101276D01*
X93053649Y-81115317D01*
X93048772Y-81128946D01*
X93042583Y-81142031D01*
X93035142Y-81154447D01*
X93026519Y-81166073D01*
X93016798Y-81176798D01*
X93006073Y-81186519D01*
X92994447Y-81195142D01*
X92982031Y-81202583D01*
X92968946Y-81208772D01*
X92955317Y-81213649D01*
X92941276Y-81217166D01*
X92926958Y-81219290D01*
X92912500Y-81220000D01*
X92617500Y-81220000D01*
X92603042Y-81219290D01*
X92588724Y-81217166D01*
X92574683Y-81213649D01*
X92561054Y-81208772D01*
X92547969Y-81202583D01*
X92535553Y-81195142D01*
X92523927Y-81186519D01*
X92513202Y-81176798D01*
X92503481Y-81166073D01*
X92494858Y-81154447D01*
X92487417Y-81142031D01*
X92481228Y-81128946D01*
X92476351Y-81115317D01*
X92472834Y-81101276D01*
X92470710Y-81086958D01*
X92470000Y-81072500D01*
X92470000Y-80727500D01*
X92470710Y-80713042D01*
X92472834Y-80698724D01*
X92476351Y-80684683D01*
X92481228Y-80671054D01*
X92487417Y-80657969D01*
X92494858Y-80645553D01*
X92503481Y-80633927D01*
X92513202Y-80623202D01*
X92523927Y-80613481D01*
X92535553Y-80604858D01*
X92547969Y-80597417D01*
X92561054Y-80591228D01*
X92574683Y-80586351D01*
X92588724Y-80582834D01*
X92603042Y-80580710D01*
X92617500Y-80580000D01*
X92912500Y-80580000D01*
X92926958Y-80580710D01*
X92926958Y-80580710D01*
G37*
D14*
X92765000Y-80900000D03*
D13*
G36*
X139201958Y-71210710D02*
G01*
X139216276Y-71212834D01*
X139230317Y-71216351D01*
X139243946Y-71221228D01*
X139257031Y-71227417D01*
X139269447Y-71234858D01*
X139281073Y-71243481D01*
X139291798Y-71253202D01*
X139301519Y-71263927D01*
X139310142Y-71275553D01*
X139317583Y-71287969D01*
X139323772Y-71301054D01*
X139328649Y-71314683D01*
X139332166Y-71328724D01*
X139334290Y-71343042D01*
X139335000Y-71357500D01*
X139335000Y-71702500D01*
X139334290Y-71716958D01*
X139332166Y-71731276D01*
X139328649Y-71745317D01*
X139323772Y-71758946D01*
X139317583Y-71772031D01*
X139310142Y-71784447D01*
X139301519Y-71796073D01*
X139291798Y-71806798D01*
X139281073Y-71816519D01*
X139269447Y-71825142D01*
X139257031Y-71832583D01*
X139243946Y-71838772D01*
X139230317Y-71843649D01*
X139216276Y-71847166D01*
X139201958Y-71849290D01*
X139187500Y-71850000D01*
X138892500Y-71850000D01*
X138878042Y-71849290D01*
X138863724Y-71847166D01*
X138849683Y-71843649D01*
X138836054Y-71838772D01*
X138822969Y-71832583D01*
X138810553Y-71825142D01*
X138798927Y-71816519D01*
X138788202Y-71806798D01*
X138778481Y-71796073D01*
X138769858Y-71784447D01*
X138762417Y-71772031D01*
X138756228Y-71758946D01*
X138751351Y-71745317D01*
X138747834Y-71731276D01*
X138745710Y-71716958D01*
X138745000Y-71702500D01*
X138745000Y-71357500D01*
X138745710Y-71343042D01*
X138747834Y-71328724D01*
X138751351Y-71314683D01*
X138756228Y-71301054D01*
X138762417Y-71287969D01*
X138769858Y-71275553D01*
X138778481Y-71263927D01*
X138788202Y-71253202D01*
X138798927Y-71243481D01*
X138810553Y-71234858D01*
X138822969Y-71227417D01*
X138836054Y-71221228D01*
X138849683Y-71216351D01*
X138863724Y-71212834D01*
X138878042Y-71210710D01*
X138892500Y-71210000D01*
X139187500Y-71210000D01*
X139201958Y-71210710D01*
X139201958Y-71210710D01*
G37*
D14*
X139040000Y-71530000D03*
D13*
G36*
X138231958Y-71210710D02*
G01*
X138246276Y-71212834D01*
X138260317Y-71216351D01*
X138273946Y-71221228D01*
X138287031Y-71227417D01*
X138299447Y-71234858D01*
X138311073Y-71243481D01*
X138321798Y-71253202D01*
X138331519Y-71263927D01*
X138340142Y-71275553D01*
X138347583Y-71287969D01*
X138353772Y-71301054D01*
X138358649Y-71314683D01*
X138362166Y-71328724D01*
X138364290Y-71343042D01*
X138365000Y-71357500D01*
X138365000Y-71702500D01*
X138364290Y-71716958D01*
X138362166Y-71731276D01*
X138358649Y-71745317D01*
X138353772Y-71758946D01*
X138347583Y-71772031D01*
X138340142Y-71784447D01*
X138331519Y-71796073D01*
X138321798Y-71806798D01*
X138311073Y-71816519D01*
X138299447Y-71825142D01*
X138287031Y-71832583D01*
X138273946Y-71838772D01*
X138260317Y-71843649D01*
X138246276Y-71847166D01*
X138231958Y-71849290D01*
X138217500Y-71850000D01*
X137922500Y-71850000D01*
X137908042Y-71849290D01*
X137893724Y-71847166D01*
X137879683Y-71843649D01*
X137866054Y-71838772D01*
X137852969Y-71832583D01*
X137840553Y-71825142D01*
X137828927Y-71816519D01*
X137818202Y-71806798D01*
X137808481Y-71796073D01*
X137799858Y-71784447D01*
X137792417Y-71772031D01*
X137786228Y-71758946D01*
X137781351Y-71745317D01*
X137777834Y-71731276D01*
X137775710Y-71716958D01*
X137775000Y-71702500D01*
X137775000Y-71357500D01*
X137775710Y-71343042D01*
X137777834Y-71328724D01*
X137781351Y-71314683D01*
X137786228Y-71301054D01*
X137792417Y-71287969D01*
X137799858Y-71275553D01*
X137808481Y-71263927D01*
X137818202Y-71253202D01*
X137828927Y-71243481D01*
X137840553Y-71234858D01*
X137852969Y-71227417D01*
X137866054Y-71221228D01*
X137879683Y-71216351D01*
X137893724Y-71212834D01*
X137908042Y-71210710D01*
X137922500Y-71210000D01*
X138217500Y-71210000D01*
X138231958Y-71210710D01*
X138231958Y-71210710D01*
G37*
D14*
X138070000Y-71530000D03*
D13*
G36*
X134766958Y-73815710D02*
G01*
X134781276Y-73817834D01*
X134795317Y-73821351D01*
X134808946Y-73826228D01*
X134822031Y-73832417D01*
X134834447Y-73839858D01*
X134846073Y-73848481D01*
X134856798Y-73858202D01*
X134866519Y-73868927D01*
X134875142Y-73880553D01*
X134882583Y-73892969D01*
X134888772Y-73906054D01*
X134893649Y-73919683D01*
X134897166Y-73933724D01*
X134899290Y-73948042D01*
X134900000Y-73962500D01*
X134900000Y-74257500D01*
X134899290Y-74271958D01*
X134897166Y-74286276D01*
X134893649Y-74300317D01*
X134888772Y-74313946D01*
X134882583Y-74327031D01*
X134875142Y-74339447D01*
X134866519Y-74351073D01*
X134856798Y-74361798D01*
X134846073Y-74371519D01*
X134834447Y-74380142D01*
X134822031Y-74387583D01*
X134808946Y-74393772D01*
X134795317Y-74398649D01*
X134781276Y-74402166D01*
X134766958Y-74404290D01*
X134752500Y-74405000D01*
X134407500Y-74405000D01*
X134393042Y-74404290D01*
X134378724Y-74402166D01*
X134364683Y-74398649D01*
X134351054Y-74393772D01*
X134337969Y-74387583D01*
X134325553Y-74380142D01*
X134313927Y-74371519D01*
X134303202Y-74361798D01*
X134293481Y-74351073D01*
X134284858Y-74339447D01*
X134277417Y-74327031D01*
X134271228Y-74313946D01*
X134266351Y-74300317D01*
X134262834Y-74286276D01*
X134260710Y-74271958D01*
X134260000Y-74257500D01*
X134260000Y-73962500D01*
X134260710Y-73948042D01*
X134262834Y-73933724D01*
X134266351Y-73919683D01*
X134271228Y-73906054D01*
X134277417Y-73892969D01*
X134284858Y-73880553D01*
X134293481Y-73868927D01*
X134303202Y-73858202D01*
X134313927Y-73848481D01*
X134325553Y-73839858D01*
X134337969Y-73832417D01*
X134351054Y-73826228D01*
X134364683Y-73821351D01*
X134378724Y-73817834D01*
X134393042Y-73815710D01*
X134407500Y-73815000D01*
X134752500Y-73815000D01*
X134766958Y-73815710D01*
X134766958Y-73815710D01*
G37*
D14*
X134580000Y-74110000D03*
D13*
G36*
X134766958Y-74785710D02*
G01*
X134781276Y-74787834D01*
X134795317Y-74791351D01*
X134808946Y-74796228D01*
X134822031Y-74802417D01*
X134834447Y-74809858D01*
X134846073Y-74818481D01*
X134856798Y-74828202D01*
X134866519Y-74838927D01*
X134875142Y-74850553D01*
X134882583Y-74862969D01*
X134888772Y-74876054D01*
X134893649Y-74889683D01*
X134897166Y-74903724D01*
X134899290Y-74918042D01*
X134900000Y-74932500D01*
X134900000Y-75227500D01*
X134899290Y-75241958D01*
X134897166Y-75256276D01*
X134893649Y-75270317D01*
X134888772Y-75283946D01*
X134882583Y-75297031D01*
X134875142Y-75309447D01*
X134866519Y-75321073D01*
X134856798Y-75331798D01*
X134846073Y-75341519D01*
X134834447Y-75350142D01*
X134822031Y-75357583D01*
X134808946Y-75363772D01*
X134795317Y-75368649D01*
X134781276Y-75372166D01*
X134766958Y-75374290D01*
X134752500Y-75375000D01*
X134407500Y-75375000D01*
X134393042Y-75374290D01*
X134378724Y-75372166D01*
X134364683Y-75368649D01*
X134351054Y-75363772D01*
X134337969Y-75357583D01*
X134325553Y-75350142D01*
X134313927Y-75341519D01*
X134303202Y-75331798D01*
X134293481Y-75321073D01*
X134284858Y-75309447D01*
X134277417Y-75297031D01*
X134271228Y-75283946D01*
X134266351Y-75270317D01*
X134262834Y-75256276D01*
X134260710Y-75241958D01*
X134260000Y-75227500D01*
X134260000Y-74932500D01*
X134260710Y-74918042D01*
X134262834Y-74903724D01*
X134266351Y-74889683D01*
X134271228Y-74876054D01*
X134277417Y-74862969D01*
X134284858Y-74850553D01*
X134293481Y-74838927D01*
X134303202Y-74828202D01*
X134313927Y-74818481D01*
X134325553Y-74809858D01*
X134337969Y-74802417D01*
X134351054Y-74796228D01*
X134364683Y-74791351D01*
X134378724Y-74787834D01*
X134393042Y-74785710D01*
X134407500Y-74785000D01*
X134752500Y-74785000D01*
X134766958Y-74785710D01*
X134766958Y-74785710D01*
G37*
D14*
X134580000Y-75080000D03*
D13*
G36*
X125681691Y-79105053D02*
G01*
X125702926Y-79108203D01*
X125723750Y-79113419D01*
X125743962Y-79120651D01*
X125763368Y-79129830D01*
X125781781Y-79140866D01*
X125799024Y-79153654D01*
X125814930Y-79168070D01*
X125829346Y-79183976D01*
X125842134Y-79201219D01*
X125853170Y-79219632D01*
X125862349Y-79239038D01*
X125869581Y-79259250D01*
X125874797Y-79280074D01*
X125877947Y-79301309D01*
X125879000Y-79322750D01*
X125879000Y-79835250D01*
X125877947Y-79856691D01*
X125874797Y-79877926D01*
X125869581Y-79898750D01*
X125862349Y-79918962D01*
X125853170Y-79938368D01*
X125842134Y-79956781D01*
X125829346Y-79974024D01*
X125814930Y-79989930D01*
X125799024Y-80004346D01*
X125781781Y-80017134D01*
X125763368Y-80028170D01*
X125743962Y-80037349D01*
X125723750Y-80044581D01*
X125702926Y-80049797D01*
X125681691Y-80052947D01*
X125660250Y-80054000D01*
X125222750Y-80054000D01*
X125201309Y-80052947D01*
X125180074Y-80049797D01*
X125159250Y-80044581D01*
X125139038Y-80037349D01*
X125119632Y-80028170D01*
X125101219Y-80017134D01*
X125083976Y-80004346D01*
X125068070Y-79989930D01*
X125053654Y-79974024D01*
X125040866Y-79956781D01*
X125029830Y-79938368D01*
X125020651Y-79918962D01*
X125013419Y-79898750D01*
X125008203Y-79877926D01*
X125005053Y-79856691D01*
X125004000Y-79835250D01*
X125004000Y-79322750D01*
X125005053Y-79301309D01*
X125008203Y-79280074D01*
X125013419Y-79259250D01*
X125020651Y-79239038D01*
X125029830Y-79219632D01*
X125040866Y-79201219D01*
X125053654Y-79183976D01*
X125068070Y-79168070D01*
X125083976Y-79153654D01*
X125101219Y-79140866D01*
X125119632Y-79129830D01*
X125139038Y-79120651D01*
X125159250Y-79113419D01*
X125180074Y-79108203D01*
X125201309Y-79105053D01*
X125222750Y-79104000D01*
X125660250Y-79104000D01*
X125681691Y-79105053D01*
X125681691Y-79105053D01*
G37*
D17*
X125441500Y-79579000D03*
D13*
G36*
X124106691Y-79105053D02*
G01*
X124127926Y-79108203D01*
X124148750Y-79113419D01*
X124168962Y-79120651D01*
X124188368Y-79129830D01*
X124206781Y-79140866D01*
X124224024Y-79153654D01*
X124239930Y-79168070D01*
X124254346Y-79183976D01*
X124267134Y-79201219D01*
X124278170Y-79219632D01*
X124287349Y-79239038D01*
X124294581Y-79259250D01*
X124299797Y-79280074D01*
X124302947Y-79301309D01*
X124304000Y-79322750D01*
X124304000Y-79835250D01*
X124302947Y-79856691D01*
X124299797Y-79877926D01*
X124294581Y-79898750D01*
X124287349Y-79918962D01*
X124278170Y-79938368D01*
X124267134Y-79956781D01*
X124254346Y-79974024D01*
X124239930Y-79989930D01*
X124224024Y-80004346D01*
X124206781Y-80017134D01*
X124188368Y-80028170D01*
X124168962Y-80037349D01*
X124148750Y-80044581D01*
X124127926Y-80049797D01*
X124106691Y-80052947D01*
X124085250Y-80054000D01*
X123647750Y-80054000D01*
X123626309Y-80052947D01*
X123605074Y-80049797D01*
X123584250Y-80044581D01*
X123564038Y-80037349D01*
X123544632Y-80028170D01*
X123526219Y-80017134D01*
X123508976Y-80004346D01*
X123493070Y-79989930D01*
X123478654Y-79974024D01*
X123465866Y-79956781D01*
X123454830Y-79938368D01*
X123445651Y-79918962D01*
X123438419Y-79898750D01*
X123433203Y-79877926D01*
X123430053Y-79856691D01*
X123429000Y-79835250D01*
X123429000Y-79322750D01*
X123430053Y-79301309D01*
X123433203Y-79280074D01*
X123438419Y-79259250D01*
X123445651Y-79239038D01*
X123454830Y-79219632D01*
X123465866Y-79201219D01*
X123478654Y-79183976D01*
X123493070Y-79168070D01*
X123508976Y-79153654D01*
X123526219Y-79140866D01*
X123544632Y-79129830D01*
X123564038Y-79120651D01*
X123584250Y-79113419D01*
X123605074Y-79108203D01*
X123626309Y-79105053D01*
X123647750Y-79104000D01*
X124085250Y-79104000D01*
X124106691Y-79105053D01*
X124106691Y-79105053D01*
G37*
D17*
X123866500Y-79579000D03*
D13*
G36*
X124401958Y-74590710D02*
G01*
X124416276Y-74592834D01*
X124430317Y-74596351D01*
X124443946Y-74601228D01*
X124457031Y-74607417D01*
X124469447Y-74614858D01*
X124481073Y-74623481D01*
X124491798Y-74633202D01*
X124501519Y-74643927D01*
X124510142Y-74655553D01*
X124517583Y-74667969D01*
X124523772Y-74681054D01*
X124528649Y-74694683D01*
X124532166Y-74708724D01*
X124534290Y-74723042D01*
X124535000Y-74737500D01*
X124535000Y-75032500D01*
X124534290Y-75046958D01*
X124532166Y-75061276D01*
X124528649Y-75075317D01*
X124523772Y-75088946D01*
X124517583Y-75102031D01*
X124510142Y-75114447D01*
X124501519Y-75126073D01*
X124491798Y-75136798D01*
X124481073Y-75146519D01*
X124469447Y-75155142D01*
X124457031Y-75162583D01*
X124443946Y-75168772D01*
X124430317Y-75173649D01*
X124416276Y-75177166D01*
X124401958Y-75179290D01*
X124387500Y-75180000D01*
X124042500Y-75180000D01*
X124028042Y-75179290D01*
X124013724Y-75177166D01*
X123999683Y-75173649D01*
X123986054Y-75168772D01*
X123972969Y-75162583D01*
X123960553Y-75155142D01*
X123948927Y-75146519D01*
X123938202Y-75136798D01*
X123928481Y-75126073D01*
X123919858Y-75114447D01*
X123912417Y-75102031D01*
X123906228Y-75088946D01*
X123901351Y-75075317D01*
X123897834Y-75061276D01*
X123895710Y-75046958D01*
X123895000Y-75032500D01*
X123895000Y-74737500D01*
X123895710Y-74723042D01*
X123897834Y-74708724D01*
X123901351Y-74694683D01*
X123906228Y-74681054D01*
X123912417Y-74667969D01*
X123919858Y-74655553D01*
X123928481Y-74643927D01*
X123938202Y-74633202D01*
X123948927Y-74623481D01*
X123960553Y-74614858D01*
X123972969Y-74607417D01*
X123986054Y-74601228D01*
X123999683Y-74596351D01*
X124013724Y-74592834D01*
X124028042Y-74590710D01*
X124042500Y-74590000D01*
X124387500Y-74590000D01*
X124401958Y-74590710D01*
X124401958Y-74590710D01*
G37*
D14*
X124215000Y-74885000D03*
D13*
G36*
X124401958Y-73620710D02*
G01*
X124416276Y-73622834D01*
X124430317Y-73626351D01*
X124443946Y-73631228D01*
X124457031Y-73637417D01*
X124469447Y-73644858D01*
X124481073Y-73653481D01*
X124491798Y-73663202D01*
X124501519Y-73673927D01*
X124510142Y-73685553D01*
X124517583Y-73697969D01*
X124523772Y-73711054D01*
X124528649Y-73724683D01*
X124532166Y-73738724D01*
X124534290Y-73753042D01*
X124535000Y-73767500D01*
X124535000Y-74062500D01*
X124534290Y-74076958D01*
X124532166Y-74091276D01*
X124528649Y-74105317D01*
X124523772Y-74118946D01*
X124517583Y-74132031D01*
X124510142Y-74144447D01*
X124501519Y-74156073D01*
X124491798Y-74166798D01*
X124481073Y-74176519D01*
X124469447Y-74185142D01*
X124457031Y-74192583D01*
X124443946Y-74198772D01*
X124430317Y-74203649D01*
X124416276Y-74207166D01*
X124401958Y-74209290D01*
X124387500Y-74210000D01*
X124042500Y-74210000D01*
X124028042Y-74209290D01*
X124013724Y-74207166D01*
X123999683Y-74203649D01*
X123986054Y-74198772D01*
X123972969Y-74192583D01*
X123960553Y-74185142D01*
X123948927Y-74176519D01*
X123938202Y-74166798D01*
X123928481Y-74156073D01*
X123919858Y-74144447D01*
X123912417Y-74132031D01*
X123906228Y-74118946D01*
X123901351Y-74105317D01*
X123897834Y-74091276D01*
X123895710Y-74076958D01*
X123895000Y-74062500D01*
X123895000Y-73767500D01*
X123895710Y-73753042D01*
X123897834Y-73738724D01*
X123901351Y-73724683D01*
X123906228Y-73711054D01*
X123912417Y-73697969D01*
X123919858Y-73685553D01*
X123928481Y-73673927D01*
X123938202Y-73663202D01*
X123948927Y-73653481D01*
X123960553Y-73644858D01*
X123972969Y-73637417D01*
X123986054Y-73631228D01*
X123999683Y-73626351D01*
X124013724Y-73622834D01*
X124028042Y-73620710D01*
X124042500Y-73620000D01*
X124387500Y-73620000D01*
X124401958Y-73620710D01*
X124401958Y-73620710D01*
G37*
D14*
X124215000Y-73915000D03*
D13*
G36*
X133246958Y-78330710D02*
G01*
X133261276Y-78332834D01*
X133275317Y-78336351D01*
X133288946Y-78341228D01*
X133302031Y-78347417D01*
X133314447Y-78354858D01*
X133326073Y-78363481D01*
X133336798Y-78373202D01*
X133346519Y-78383927D01*
X133355142Y-78395553D01*
X133362583Y-78407969D01*
X133368772Y-78421054D01*
X133373649Y-78434683D01*
X133377166Y-78448724D01*
X133379290Y-78463042D01*
X133380000Y-78477500D01*
X133380000Y-78822500D01*
X133379290Y-78836958D01*
X133377166Y-78851276D01*
X133373649Y-78865317D01*
X133368772Y-78878946D01*
X133362583Y-78892031D01*
X133355142Y-78904447D01*
X133346519Y-78916073D01*
X133336798Y-78926798D01*
X133326073Y-78936519D01*
X133314447Y-78945142D01*
X133302031Y-78952583D01*
X133288946Y-78958772D01*
X133275317Y-78963649D01*
X133261276Y-78967166D01*
X133246958Y-78969290D01*
X133232500Y-78970000D01*
X132937500Y-78970000D01*
X132923042Y-78969290D01*
X132908724Y-78967166D01*
X132894683Y-78963649D01*
X132881054Y-78958772D01*
X132867969Y-78952583D01*
X132855553Y-78945142D01*
X132843927Y-78936519D01*
X132833202Y-78926798D01*
X132823481Y-78916073D01*
X132814858Y-78904447D01*
X132807417Y-78892031D01*
X132801228Y-78878946D01*
X132796351Y-78865317D01*
X132792834Y-78851276D01*
X132790710Y-78836958D01*
X132790000Y-78822500D01*
X132790000Y-78477500D01*
X132790710Y-78463042D01*
X132792834Y-78448724D01*
X132796351Y-78434683D01*
X132801228Y-78421054D01*
X132807417Y-78407969D01*
X132814858Y-78395553D01*
X132823481Y-78383927D01*
X132833202Y-78373202D01*
X132843927Y-78363481D01*
X132855553Y-78354858D01*
X132867969Y-78347417D01*
X132881054Y-78341228D01*
X132894683Y-78336351D01*
X132908724Y-78332834D01*
X132923042Y-78330710D01*
X132937500Y-78330000D01*
X133232500Y-78330000D01*
X133246958Y-78330710D01*
X133246958Y-78330710D01*
G37*
D14*
X133085000Y-78650000D03*
D13*
G36*
X134216958Y-78330710D02*
G01*
X134231276Y-78332834D01*
X134245317Y-78336351D01*
X134258946Y-78341228D01*
X134272031Y-78347417D01*
X134284447Y-78354858D01*
X134296073Y-78363481D01*
X134306798Y-78373202D01*
X134316519Y-78383927D01*
X134325142Y-78395553D01*
X134332583Y-78407969D01*
X134338772Y-78421054D01*
X134343649Y-78434683D01*
X134347166Y-78448724D01*
X134349290Y-78463042D01*
X134350000Y-78477500D01*
X134350000Y-78822500D01*
X134349290Y-78836958D01*
X134347166Y-78851276D01*
X134343649Y-78865317D01*
X134338772Y-78878946D01*
X134332583Y-78892031D01*
X134325142Y-78904447D01*
X134316519Y-78916073D01*
X134306798Y-78926798D01*
X134296073Y-78936519D01*
X134284447Y-78945142D01*
X134272031Y-78952583D01*
X134258946Y-78958772D01*
X134245317Y-78963649D01*
X134231276Y-78967166D01*
X134216958Y-78969290D01*
X134202500Y-78970000D01*
X133907500Y-78970000D01*
X133893042Y-78969290D01*
X133878724Y-78967166D01*
X133864683Y-78963649D01*
X133851054Y-78958772D01*
X133837969Y-78952583D01*
X133825553Y-78945142D01*
X133813927Y-78936519D01*
X133803202Y-78926798D01*
X133793481Y-78916073D01*
X133784858Y-78904447D01*
X133777417Y-78892031D01*
X133771228Y-78878946D01*
X133766351Y-78865317D01*
X133762834Y-78851276D01*
X133760710Y-78836958D01*
X133760000Y-78822500D01*
X133760000Y-78477500D01*
X133760710Y-78463042D01*
X133762834Y-78448724D01*
X133766351Y-78434683D01*
X133771228Y-78421054D01*
X133777417Y-78407969D01*
X133784858Y-78395553D01*
X133793481Y-78383927D01*
X133803202Y-78373202D01*
X133813927Y-78363481D01*
X133825553Y-78354858D01*
X133837969Y-78347417D01*
X133851054Y-78341228D01*
X133864683Y-78336351D01*
X133878724Y-78332834D01*
X133893042Y-78330710D01*
X133907500Y-78330000D01*
X134202500Y-78330000D01*
X134216958Y-78330710D01*
X134216958Y-78330710D01*
G37*
D14*
X134055000Y-78650000D03*
D13*
G36*
X129493958Y-70432710D02*
G01*
X129508276Y-70434834D01*
X129522317Y-70438351D01*
X129535946Y-70443228D01*
X129549031Y-70449417D01*
X129561447Y-70456858D01*
X129573073Y-70465481D01*
X129583798Y-70475202D01*
X129593519Y-70485927D01*
X129602142Y-70497553D01*
X129609583Y-70509969D01*
X129615772Y-70523054D01*
X129620649Y-70536683D01*
X129624166Y-70550724D01*
X129626290Y-70565042D01*
X129627000Y-70579500D01*
X129627000Y-70924500D01*
X129626290Y-70938958D01*
X129624166Y-70953276D01*
X129620649Y-70967317D01*
X129615772Y-70980946D01*
X129609583Y-70994031D01*
X129602142Y-71006447D01*
X129593519Y-71018073D01*
X129583798Y-71028798D01*
X129573073Y-71038519D01*
X129561447Y-71047142D01*
X129549031Y-71054583D01*
X129535946Y-71060772D01*
X129522317Y-71065649D01*
X129508276Y-71069166D01*
X129493958Y-71071290D01*
X129479500Y-71072000D01*
X129184500Y-71072000D01*
X129170042Y-71071290D01*
X129155724Y-71069166D01*
X129141683Y-71065649D01*
X129128054Y-71060772D01*
X129114969Y-71054583D01*
X129102553Y-71047142D01*
X129090927Y-71038519D01*
X129080202Y-71028798D01*
X129070481Y-71018073D01*
X129061858Y-71006447D01*
X129054417Y-70994031D01*
X129048228Y-70980946D01*
X129043351Y-70967317D01*
X129039834Y-70953276D01*
X129037710Y-70938958D01*
X129037000Y-70924500D01*
X129037000Y-70579500D01*
X129037710Y-70565042D01*
X129039834Y-70550724D01*
X129043351Y-70536683D01*
X129048228Y-70523054D01*
X129054417Y-70509969D01*
X129061858Y-70497553D01*
X129070481Y-70485927D01*
X129080202Y-70475202D01*
X129090927Y-70465481D01*
X129102553Y-70456858D01*
X129114969Y-70449417D01*
X129128054Y-70443228D01*
X129141683Y-70438351D01*
X129155724Y-70434834D01*
X129170042Y-70432710D01*
X129184500Y-70432000D01*
X129479500Y-70432000D01*
X129493958Y-70432710D01*
X129493958Y-70432710D01*
G37*
D14*
X129332000Y-70752000D03*
D13*
G36*
X128523958Y-70432710D02*
G01*
X128538276Y-70434834D01*
X128552317Y-70438351D01*
X128565946Y-70443228D01*
X128579031Y-70449417D01*
X128591447Y-70456858D01*
X128603073Y-70465481D01*
X128613798Y-70475202D01*
X128623519Y-70485927D01*
X128632142Y-70497553D01*
X128639583Y-70509969D01*
X128645772Y-70523054D01*
X128650649Y-70536683D01*
X128654166Y-70550724D01*
X128656290Y-70565042D01*
X128657000Y-70579500D01*
X128657000Y-70924500D01*
X128656290Y-70938958D01*
X128654166Y-70953276D01*
X128650649Y-70967317D01*
X128645772Y-70980946D01*
X128639583Y-70994031D01*
X128632142Y-71006447D01*
X128623519Y-71018073D01*
X128613798Y-71028798D01*
X128603073Y-71038519D01*
X128591447Y-71047142D01*
X128579031Y-71054583D01*
X128565946Y-71060772D01*
X128552317Y-71065649D01*
X128538276Y-71069166D01*
X128523958Y-71071290D01*
X128509500Y-71072000D01*
X128214500Y-71072000D01*
X128200042Y-71071290D01*
X128185724Y-71069166D01*
X128171683Y-71065649D01*
X128158054Y-71060772D01*
X128144969Y-71054583D01*
X128132553Y-71047142D01*
X128120927Y-71038519D01*
X128110202Y-71028798D01*
X128100481Y-71018073D01*
X128091858Y-71006447D01*
X128084417Y-70994031D01*
X128078228Y-70980946D01*
X128073351Y-70967317D01*
X128069834Y-70953276D01*
X128067710Y-70938958D01*
X128067000Y-70924500D01*
X128067000Y-70579500D01*
X128067710Y-70565042D01*
X128069834Y-70550724D01*
X128073351Y-70536683D01*
X128078228Y-70523054D01*
X128084417Y-70509969D01*
X128091858Y-70497553D01*
X128100481Y-70485927D01*
X128110202Y-70475202D01*
X128120927Y-70465481D01*
X128132553Y-70456858D01*
X128144969Y-70449417D01*
X128158054Y-70443228D01*
X128171683Y-70438351D01*
X128185724Y-70434834D01*
X128200042Y-70432710D01*
X128214500Y-70432000D01*
X128509500Y-70432000D01*
X128523958Y-70432710D01*
X128523958Y-70432710D01*
G37*
D14*
X128362000Y-70752000D03*
D13*
G36*
X121986958Y-76395710D02*
G01*
X122001276Y-76397834D01*
X122015317Y-76401351D01*
X122028946Y-76406228D01*
X122042031Y-76412417D01*
X122054447Y-76419858D01*
X122066073Y-76428481D01*
X122076798Y-76438202D01*
X122086519Y-76448927D01*
X122095142Y-76460553D01*
X122102583Y-76472969D01*
X122108772Y-76486054D01*
X122113649Y-76499683D01*
X122117166Y-76513724D01*
X122119290Y-76528042D01*
X122120000Y-76542500D01*
X122120000Y-76837500D01*
X122119290Y-76851958D01*
X122117166Y-76866276D01*
X122113649Y-76880317D01*
X122108772Y-76893946D01*
X122102583Y-76907031D01*
X122095142Y-76919447D01*
X122086519Y-76931073D01*
X122076798Y-76941798D01*
X122066073Y-76951519D01*
X122054447Y-76960142D01*
X122042031Y-76967583D01*
X122028946Y-76973772D01*
X122015317Y-76978649D01*
X122001276Y-76982166D01*
X121986958Y-76984290D01*
X121972500Y-76985000D01*
X121627500Y-76985000D01*
X121613042Y-76984290D01*
X121598724Y-76982166D01*
X121584683Y-76978649D01*
X121571054Y-76973772D01*
X121557969Y-76967583D01*
X121545553Y-76960142D01*
X121533927Y-76951519D01*
X121523202Y-76941798D01*
X121513481Y-76931073D01*
X121504858Y-76919447D01*
X121497417Y-76907031D01*
X121491228Y-76893946D01*
X121486351Y-76880317D01*
X121482834Y-76866276D01*
X121480710Y-76851958D01*
X121480000Y-76837500D01*
X121480000Y-76542500D01*
X121480710Y-76528042D01*
X121482834Y-76513724D01*
X121486351Y-76499683D01*
X121491228Y-76486054D01*
X121497417Y-76472969D01*
X121504858Y-76460553D01*
X121513481Y-76448927D01*
X121523202Y-76438202D01*
X121533927Y-76428481D01*
X121545553Y-76419858D01*
X121557969Y-76412417D01*
X121571054Y-76406228D01*
X121584683Y-76401351D01*
X121598724Y-76397834D01*
X121613042Y-76395710D01*
X121627500Y-76395000D01*
X121972500Y-76395000D01*
X121986958Y-76395710D01*
X121986958Y-76395710D01*
G37*
D14*
X121800000Y-76690000D03*
D13*
G36*
X121986958Y-75425710D02*
G01*
X122001276Y-75427834D01*
X122015317Y-75431351D01*
X122028946Y-75436228D01*
X122042031Y-75442417D01*
X122054447Y-75449858D01*
X122066073Y-75458481D01*
X122076798Y-75468202D01*
X122086519Y-75478927D01*
X122095142Y-75490553D01*
X122102583Y-75502969D01*
X122108772Y-75516054D01*
X122113649Y-75529683D01*
X122117166Y-75543724D01*
X122119290Y-75558042D01*
X122120000Y-75572500D01*
X122120000Y-75867500D01*
X122119290Y-75881958D01*
X122117166Y-75896276D01*
X122113649Y-75910317D01*
X122108772Y-75923946D01*
X122102583Y-75937031D01*
X122095142Y-75949447D01*
X122086519Y-75961073D01*
X122076798Y-75971798D01*
X122066073Y-75981519D01*
X122054447Y-75990142D01*
X122042031Y-75997583D01*
X122028946Y-76003772D01*
X122015317Y-76008649D01*
X122001276Y-76012166D01*
X121986958Y-76014290D01*
X121972500Y-76015000D01*
X121627500Y-76015000D01*
X121613042Y-76014290D01*
X121598724Y-76012166D01*
X121584683Y-76008649D01*
X121571054Y-76003772D01*
X121557969Y-75997583D01*
X121545553Y-75990142D01*
X121533927Y-75981519D01*
X121523202Y-75971798D01*
X121513481Y-75961073D01*
X121504858Y-75949447D01*
X121497417Y-75937031D01*
X121491228Y-75923946D01*
X121486351Y-75910317D01*
X121482834Y-75896276D01*
X121480710Y-75881958D01*
X121480000Y-75867500D01*
X121480000Y-75572500D01*
X121480710Y-75558042D01*
X121482834Y-75543724D01*
X121486351Y-75529683D01*
X121491228Y-75516054D01*
X121497417Y-75502969D01*
X121504858Y-75490553D01*
X121513481Y-75478927D01*
X121523202Y-75468202D01*
X121533927Y-75458481D01*
X121545553Y-75449858D01*
X121557969Y-75442417D01*
X121571054Y-75436228D01*
X121584683Y-75431351D01*
X121598724Y-75427834D01*
X121613042Y-75425710D01*
X121627500Y-75425000D01*
X121972500Y-75425000D01*
X121986958Y-75425710D01*
X121986958Y-75425710D01*
G37*
D14*
X121800000Y-75720000D03*
D18*
X126938000Y-70752000D03*
X126938000Y-69482000D03*
X122588000Y-69482000D03*
X122588000Y-70752000D03*
M02*
