G04 #@! TF.GenerationSoftware,KiCad,Pcbnew,(5.1.2)-1*
G04 #@! TF.CreationDate,2019-05-02T18:24:12-06:00*
G04 #@! TF.ProjectId,Igloo09,49676c6f-6f30-4392-9e6b-696361645f70,rev?*
G04 #@! TF.SameCoordinates,Original*
G04 #@! TF.FileFunction,Legend,Top*
G04 #@! TF.FilePolarity,Positive*
%FSLAX46Y46*%
G04 Gerber Fmt 4.6, Leading zero omitted, Abs format (unit mm)*
G04 Created by KiCad (PCBNEW (5.1.2)-1) date 2019-05-02 18:24:12*
%MOMM*%
%LPD*%
G04 APERTURE LIST*
%ADD10C,0.150000*%
%ADD11C,0.300000*%
%ADD12C,0.080000*%
G04 APERTURE END LIST*
D10*
X131576559Y-48521880D02*
X131576559Y-47521880D01*
X131909892Y-48236166D01*
X132243225Y-47521880D01*
X132243225Y-48521880D01*
X133147987Y-48521880D02*
X133147987Y-47998071D01*
X133100368Y-47902833D01*
X133005130Y-47855214D01*
X132814654Y-47855214D01*
X132719416Y-47902833D01*
X133147987Y-48474261D02*
X133052749Y-48521880D01*
X132814654Y-48521880D01*
X132719416Y-48474261D01*
X132671797Y-48379023D01*
X132671797Y-48283785D01*
X132719416Y-48188547D01*
X132814654Y-48140928D01*
X133052749Y-48140928D01*
X133147987Y-48093309D01*
X133528940Y-47855214D02*
X133767035Y-48521880D01*
X134005130Y-47855214D02*
X133767035Y-48521880D01*
X133671797Y-48759976D01*
X133624178Y-48807595D01*
X133528940Y-48855214D01*
X135100368Y-47617119D02*
X135147987Y-47569500D01*
X135243225Y-47521880D01*
X135481320Y-47521880D01*
X135576559Y-47569500D01*
X135624178Y-47617119D01*
X135671797Y-47712357D01*
X135671797Y-47807595D01*
X135624178Y-47950452D01*
X135052749Y-48521880D01*
X135671797Y-48521880D01*
X136290844Y-47521880D02*
X136386082Y-47521880D01*
X136481320Y-47569500D01*
X136528940Y-47617119D01*
X136576559Y-47712357D01*
X136624178Y-47902833D01*
X136624178Y-48140928D01*
X136576559Y-48331404D01*
X136528940Y-48426642D01*
X136481320Y-48474261D01*
X136386082Y-48521880D01*
X136290844Y-48521880D01*
X136195606Y-48474261D01*
X136147987Y-48426642D01*
X136100368Y-48331404D01*
X136052749Y-48140928D01*
X136052749Y-47902833D01*
X136100368Y-47712357D01*
X136147987Y-47617119D01*
X136195606Y-47569500D01*
X136290844Y-47521880D01*
X137576559Y-48521880D02*
X137005130Y-48521880D01*
X137290844Y-48521880D02*
X137290844Y-47521880D01*
X137195606Y-47664738D01*
X137100368Y-47759976D01*
X137005130Y-47807595D01*
X138052749Y-48521880D02*
X138243225Y-48521880D01*
X138338463Y-48474261D01*
X138386082Y-48426642D01*
X138481320Y-48283785D01*
X138528940Y-48093309D01*
X138528940Y-47712357D01*
X138481320Y-47617119D01*
X138433701Y-47569500D01*
X138338463Y-47521880D01*
X138147987Y-47521880D01*
X138052749Y-47569500D01*
X138005130Y-47617119D01*
X137957511Y-47712357D01*
X137957511Y-47950452D01*
X138005130Y-48045690D01*
X138052749Y-48093309D01*
X138147987Y-48140928D01*
X138338463Y-48140928D01*
X138433701Y-48093309D01*
X138481320Y-48045690D01*
X138528940Y-47950452D01*
X131570173Y-49941740D02*
X131570173Y-48941740D01*
X131808268Y-48941740D01*
X131951125Y-48989360D01*
X132046363Y-49084598D01*
X132093982Y-49179836D01*
X132141601Y-49370312D01*
X132141601Y-49513169D01*
X132093982Y-49703645D01*
X132046363Y-49798883D01*
X131951125Y-49894121D01*
X131808268Y-49941740D01*
X131570173Y-49941740D01*
X132474935Y-49275074D02*
X132713030Y-49941740D01*
X132951125Y-49275074D02*
X132713030Y-49941740D01*
X132617792Y-50179836D01*
X132570173Y-50227455D01*
X132474935Y-50275074D01*
X133474935Y-49941740D02*
X133379697Y-49894121D01*
X133332078Y-49798883D01*
X133332078Y-48941740D01*
X134284459Y-49941740D02*
X134284459Y-49417931D01*
X134236840Y-49322693D01*
X134141601Y-49275074D01*
X133951125Y-49275074D01*
X133855887Y-49322693D01*
X134284459Y-49894121D02*
X134189220Y-49941740D01*
X133951125Y-49941740D01*
X133855887Y-49894121D01*
X133808268Y-49798883D01*
X133808268Y-49703645D01*
X133855887Y-49608407D01*
X133951125Y-49560788D01*
X134189220Y-49560788D01*
X134284459Y-49513169D01*
X134760649Y-49275074D02*
X134760649Y-49941740D01*
X134760649Y-49370312D02*
X134808268Y-49322693D01*
X134903506Y-49275074D01*
X135046363Y-49275074D01*
X135141601Y-49322693D01*
X135189220Y-49417931D01*
X135189220Y-49941740D01*
X136617792Y-48941740D02*
X136808268Y-48941740D01*
X136903506Y-48989360D01*
X136998744Y-49084598D01*
X137046363Y-49275074D01*
X137046363Y-49608407D01*
X136998744Y-49798883D01*
X136903506Y-49894121D01*
X136808268Y-49941740D01*
X136617792Y-49941740D01*
X136522554Y-49894121D01*
X136427316Y-49798883D01*
X136379697Y-49608407D01*
X136379697Y-49275074D01*
X136427316Y-49084598D01*
X136522554Y-48989360D01*
X136617792Y-48941740D01*
X137474935Y-49941740D02*
X137474935Y-48941740D01*
X137903506Y-49941740D02*
X137903506Y-49417931D01*
X137855887Y-49322693D01*
X137760649Y-49275074D01*
X137617792Y-49275074D01*
X137522554Y-49322693D01*
X137474935Y-49370312D01*
D11*
X131687632Y-46573961D02*
X131937632Y-44573961D01*
X133663823Y-45240628D02*
X133461442Y-46859676D01*
X133342394Y-47050152D01*
X133235251Y-47145390D01*
X133032870Y-47240628D01*
X132747156Y-47240628D01*
X132568585Y-47145390D01*
X133509061Y-46478723D02*
X133306680Y-46573961D01*
X132925727Y-46573961D01*
X132747156Y-46478723D01*
X132663823Y-46383485D01*
X132592394Y-46193009D01*
X132663823Y-45621580D01*
X132782870Y-45431104D01*
X132890013Y-45335866D01*
X133092394Y-45240628D01*
X133473346Y-45240628D01*
X133651918Y-45335866D01*
X134735251Y-46573961D02*
X134556680Y-46478723D01*
X134485251Y-46288247D01*
X134699537Y-44573961D01*
X135782870Y-46573961D02*
X135604299Y-46478723D01*
X135520965Y-46383485D01*
X135449537Y-46193009D01*
X135520965Y-45621580D01*
X135640013Y-45431104D01*
X135747156Y-45335866D01*
X135949537Y-45240628D01*
X136235251Y-45240628D01*
X136413823Y-45335866D01*
X136497156Y-45431104D01*
X136568585Y-45621580D01*
X136497156Y-46193009D01*
X136378108Y-46383485D01*
X136270965Y-46478723D01*
X136068585Y-46573961D01*
X135782870Y-46573961D01*
X137592394Y-46573961D02*
X137413823Y-46478723D01*
X137330489Y-46383485D01*
X137259061Y-46193009D01*
X137330489Y-45621580D01*
X137449537Y-45431104D01*
X137556680Y-45335866D01*
X137759061Y-45240628D01*
X138044775Y-45240628D01*
X138223346Y-45335866D01*
X138306680Y-45431104D01*
X138378108Y-45621580D01*
X138306680Y-46193009D01*
X138187632Y-46383485D01*
X138080489Y-46478723D01*
X137878108Y-46573961D01*
X137592394Y-46573961D01*
X139747156Y-44573961D02*
X139937632Y-44573961D01*
X140116204Y-44669200D01*
X140199537Y-44764438D01*
X140270965Y-44954914D01*
X140318585Y-45335866D01*
X140259061Y-45812057D01*
X140116204Y-46193009D01*
X139997156Y-46383485D01*
X139890013Y-46478723D01*
X139687632Y-46573961D01*
X139497156Y-46573961D01*
X139318585Y-46478723D01*
X139235251Y-46383485D01*
X139163823Y-46193009D01*
X139116204Y-45812057D01*
X139175727Y-45335866D01*
X139318585Y-44954914D01*
X139437632Y-44764438D01*
X139544775Y-44669200D01*
X139747156Y-44573961D01*
X141116204Y-46573961D02*
X141497156Y-46573961D01*
X141699537Y-46478723D01*
X141806680Y-46383485D01*
X142032870Y-46097771D01*
X142175727Y-45716819D01*
X142270965Y-44954914D01*
X142199537Y-44764438D01*
X142116204Y-44669200D01*
X141937632Y-44573961D01*
X141556680Y-44573961D01*
X141354299Y-44669200D01*
X141247156Y-44764438D01*
X141128108Y-44954914D01*
X141068585Y-45431104D01*
X141140013Y-45621580D01*
X141223346Y-45716819D01*
X141401918Y-45812057D01*
X141782870Y-45812057D01*
X141985251Y-45716819D01*
X142092394Y-45621580D01*
X142211442Y-45431104D01*
D12*
X153402571Y-81328571D02*
X153745428Y-81328571D01*
X153574000Y-81328571D02*
X153574000Y-81928571D01*
X153631142Y-81842857D01*
X153688285Y-81785714D01*
X153745428Y-81757142D01*
X152174000Y-81928571D02*
X151802571Y-81928571D01*
X152002571Y-81700000D01*
X151916857Y-81700000D01*
X151859714Y-81671428D01*
X151831142Y-81642857D01*
X151802571Y-81585714D01*
X151802571Y-81442857D01*
X151831142Y-81385714D01*
X151859714Y-81357142D01*
X151916857Y-81328571D01*
X152088285Y-81328571D01*
X152145428Y-81357142D01*
X152174000Y-81385714D01*
X150231142Y-81928571D02*
X150516857Y-81928571D01*
X150545428Y-81642857D01*
X150516857Y-81671428D01*
X150459714Y-81700000D01*
X150316857Y-81700000D01*
X150259714Y-81671428D01*
X150231142Y-81642857D01*
X150202571Y-81585714D01*
X150202571Y-81442857D01*
X150231142Y-81385714D01*
X150259714Y-81357142D01*
X150316857Y-81328571D01*
X150459714Y-81328571D01*
X150516857Y-81357142D01*
X150545428Y-81385714D01*
X148974000Y-81928571D02*
X148574000Y-81928571D01*
X148831142Y-81328571D01*
X147288285Y-81328571D02*
X147174000Y-81328571D01*
X147116857Y-81357142D01*
X147088285Y-81385714D01*
X147031142Y-81471428D01*
X147002571Y-81585714D01*
X147002571Y-81814285D01*
X147031142Y-81871428D01*
X147059714Y-81900000D01*
X147116857Y-81928571D01*
X147231142Y-81928571D01*
X147288285Y-81900000D01*
X147316857Y-81871428D01*
X147345428Y-81814285D01*
X147345428Y-81671428D01*
X147316857Y-81614285D01*
X147288285Y-81585714D01*
X147231142Y-81557142D01*
X147116857Y-81557142D01*
X147059714Y-81585714D01*
X147031142Y-81614285D01*
X147002571Y-81671428D01*
X146571428Y-44671428D02*
X146228571Y-44671428D01*
X146400000Y-44671428D02*
X146400000Y-44071428D01*
X146342857Y-44157142D01*
X146285714Y-44214285D01*
X146228571Y-44242857D01*
X147800000Y-44071428D02*
X148171428Y-44071428D01*
X147971428Y-44300000D01*
X148057142Y-44300000D01*
X148114285Y-44328571D01*
X148142857Y-44357142D01*
X148171428Y-44414285D01*
X148171428Y-44557142D01*
X148142857Y-44614285D01*
X148114285Y-44642857D01*
X148057142Y-44671428D01*
X147885714Y-44671428D01*
X147828571Y-44642857D01*
X147800000Y-44614285D01*
X149742857Y-44071428D02*
X149457142Y-44071428D01*
X149428571Y-44357142D01*
X149457142Y-44328571D01*
X149514285Y-44300000D01*
X149657142Y-44300000D01*
X149714285Y-44328571D01*
X149742857Y-44357142D01*
X149771428Y-44414285D01*
X149771428Y-44557142D01*
X149742857Y-44614285D01*
X149714285Y-44642857D01*
X149657142Y-44671428D01*
X149514285Y-44671428D01*
X149457142Y-44642857D01*
X149428571Y-44614285D01*
X151000000Y-44071428D02*
X151400000Y-44071428D01*
X151142857Y-44671428D01*
X152685714Y-44671428D02*
X152800000Y-44671428D01*
X152857142Y-44642857D01*
X152885714Y-44614285D01*
X152942857Y-44528571D01*
X152971428Y-44414285D01*
X152971428Y-44185714D01*
X152942857Y-44128571D01*
X152914285Y-44100000D01*
X152857142Y-44071428D01*
X152742857Y-44071428D01*
X152685714Y-44100000D01*
X152657142Y-44128571D01*
X152628571Y-44185714D01*
X152628571Y-44328571D01*
X152657142Y-44385714D01*
X152685714Y-44414285D01*
X152742857Y-44442857D01*
X152857142Y-44442857D01*
X152914285Y-44414285D01*
X152942857Y-44385714D01*
X152971428Y-44328571D01*
D10*
X146163976Y-71937619D02*
X145973500Y-71937619D01*
X145878261Y-71985238D01*
X145830642Y-72032857D01*
X145735404Y-72175714D01*
X145687785Y-72366190D01*
X145687785Y-72747142D01*
X145735404Y-72842380D01*
X145783023Y-72890000D01*
X145878261Y-72937619D01*
X146068738Y-72937619D01*
X146163976Y-72890000D01*
X146211595Y-72842380D01*
X146259214Y-72747142D01*
X146259214Y-72509047D01*
X146211595Y-72413809D01*
X146163976Y-72366190D01*
X146068738Y-72318571D01*
X145878261Y-72318571D01*
X145783023Y-72366190D01*
X145735404Y-72413809D01*
X145687785Y-72509047D01*
X148592833Y-72937619D02*
X147926166Y-72937619D01*
X148354738Y-71937619D01*
X150307404Y-72937619D02*
X150783595Y-72937619D01*
X150831214Y-72461428D01*
X150783595Y-72509047D01*
X150688357Y-72556666D01*
X150450261Y-72556666D01*
X150355023Y-72509047D01*
X150307404Y-72461428D01*
X150259785Y-72366190D01*
X150259785Y-72128095D01*
X150307404Y-72032857D01*
X150355023Y-71985238D01*
X150450261Y-71937619D01*
X150688357Y-71937619D01*
X150783595Y-71985238D01*
X150831214Y-72032857D01*
X153164833Y-72937619D02*
X152545785Y-72937619D01*
X152879119Y-72556666D01*
X152736261Y-72556666D01*
X152641023Y-72509047D01*
X152593404Y-72461428D01*
X152545785Y-72366190D01*
X152545785Y-72128095D01*
X152593404Y-72032857D01*
X152641023Y-71985238D01*
X152736261Y-71937619D01*
X153021976Y-71937619D01*
X153117214Y-71985238D01*
X153164833Y-72032857D01*
X154831785Y-71937619D02*
X155403214Y-71937619D01*
X155117500Y-71937619D02*
X155117500Y-72937619D01*
X155212738Y-72794761D01*
X155307976Y-72699523D01*
X155403214Y-72651904D01*
D11*
X140428571Y-72392857D02*
X140214285Y-72321428D01*
X139857142Y-72321428D01*
X139714285Y-72392857D01*
X139642857Y-72464285D01*
X139571428Y-72607142D01*
X139571428Y-72750000D01*
X139642857Y-72892857D01*
X139714285Y-72964285D01*
X139857142Y-73035714D01*
X140142857Y-73107142D01*
X140285714Y-73178571D01*
X140357142Y-73250000D01*
X140428571Y-73392857D01*
X140428571Y-73535714D01*
X140357142Y-73678571D01*
X140285714Y-73750000D01*
X140142857Y-73821428D01*
X139785714Y-73821428D01*
X139571428Y-73750000D01*
X160428571Y-72392857D02*
X160214285Y-72321428D01*
X159857142Y-72321428D01*
X159714285Y-72392857D01*
X159642857Y-72464285D01*
X159571428Y-72607142D01*
X159571428Y-72750000D01*
X159642857Y-72892857D01*
X159714285Y-72964285D01*
X159857142Y-73035714D01*
X160142857Y-73107142D01*
X160285714Y-73178571D01*
X160357142Y-73250000D01*
X160428571Y-73392857D01*
X160428571Y-73535714D01*
X160357142Y-73678571D01*
X160285714Y-73750000D01*
X160142857Y-73821428D01*
X159785714Y-73821428D01*
X159571428Y-73750000D01*
X139571428Y-53678571D02*
X139571428Y-52178571D01*
X140428571Y-53678571D01*
X140428571Y-52178571D01*
X159571428Y-53678571D02*
X159571428Y-52178571D01*
X160428571Y-53678571D01*
X160428571Y-52178571D01*
D10*
X153810023Y-54046380D02*
X154000500Y-54046380D01*
X154095738Y-53998761D01*
X154143357Y-53951142D01*
X154238595Y-53808285D01*
X154286214Y-53617809D01*
X154286214Y-53236857D01*
X154238595Y-53141619D01*
X154190976Y-53094000D01*
X154095738Y-53046380D01*
X153905261Y-53046380D01*
X153810023Y-53094000D01*
X153762404Y-53141619D01*
X153714785Y-53236857D01*
X153714785Y-53474952D01*
X153762404Y-53570190D01*
X153810023Y-53617809D01*
X153905261Y-53665428D01*
X154095738Y-53665428D01*
X154190976Y-53617809D01*
X154238595Y-53570190D01*
X154286214Y-53474952D01*
X151381166Y-53046380D02*
X152047833Y-53046380D01*
X151619261Y-54046380D01*
X149666595Y-53046380D02*
X149190404Y-53046380D01*
X149142785Y-53522571D01*
X149190404Y-53474952D01*
X149285642Y-53427333D01*
X149523738Y-53427333D01*
X149618976Y-53474952D01*
X149666595Y-53522571D01*
X149714214Y-53617809D01*
X149714214Y-53855904D01*
X149666595Y-53951142D01*
X149618976Y-53998761D01*
X149523738Y-54046380D01*
X149285642Y-54046380D01*
X149190404Y-53998761D01*
X149142785Y-53951142D01*
X146809166Y-53046380D02*
X147428214Y-53046380D01*
X147094880Y-53427333D01*
X147237738Y-53427333D01*
X147332976Y-53474952D01*
X147380595Y-53522571D01*
X147428214Y-53617809D01*
X147428214Y-53855904D01*
X147380595Y-53951142D01*
X147332976Y-53998761D01*
X147237738Y-54046380D01*
X146952023Y-54046380D01*
X146856785Y-53998761D01*
X146809166Y-53951142D01*
X145142214Y-54046380D02*
X144570785Y-54046380D01*
X144856500Y-54046380D02*
X144856500Y-53046380D01*
X144761261Y-53189238D01*
X144666023Y-53284476D01*
X144570785Y-53332095D01*
D11*
X141976190Y-78690476D02*
X141690476Y-78595238D01*
X141214285Y-78595238D01*
X141023809Y-78690476D01*
X140928571Y-78785714D01*
X140833333Y-78976190D01*
X140833333Y-79166666D01*
X140928571Y-79357142D01*
X141023809Y-79452380D01*
X141214285Y-79547619D01*
X141595238Y-79642857D01*
X141785714Y-79738095D01*
X141880952Y-79833333D01*
X141976190Y-80023809D01*
X141976190Y-80214285D01*
X141880952Y-80404761D01*
X141785714Y-80500000D01*
X141595238Y-80595238D01*
X141119047Y-80595238D01*
X140833333Y-80500000D01*
X139595238Y-80595238D02*
X139214285Y-80595238D01*
X139023809Y-80500000D01*
X138833333Y-80309523D01*
X138738095Y-79928571D01*
X138738095Y-79261904D01*
X138833333Y-78880952D01*
X139023809Y-78690476D01*
X139214285Y-78595238D01*
X139595238Y-78595238D01*
X139785714Y-78690476D01*
X139976190Y-78880952D01*
X140071428Y-79261904D01*
X140071428Y-79928571D01*
X139976190Y-80309523D01*
X139785714Y-80500000D01*
X139595238Y-80595238D01*
X137880952Y-80595238D02*
X137880952Y-78976190D01*
X137785714Y-78785714D01*
X137690476Y-78690476D01*
X137500000Y-78595238D01*
X137119047Y-78595238D01*
X136928571Y-78690476D01*
X136833333Y-78785714D01*
X136738095Y-78976190D01*
X136738095Y-80595238D01*
X136071428Y-80595238D02*
X134928571Y-80595238D01*
X135500000Y-78595238D02*
X135500000Y-80595238D01*
X134261904Y-78595238D02*
X134261904Y-80595238D01*
X134261904Y-79642857D02*
X133119047Y-79642857D01*
X133119047Y-78595238D02*
X133119047Y-80595238D01*
X158071428Y-47404761D02*
X158071428Y-45404761D01*
X159214285Y-47404761D01*
X159214285Y-45404761D01*
X160547619Y-45404761D02*
X160928571Y-45404761D01*
X161119047Y-45500000D01*
X161309523Y-45690476D01*
X161404761Y-46071428D01*
X161404761Y-46738095D01*
X161309523Y-47119047D01*
X161119047Y-47309523D01*
X160928571Y-47404761D01*
X160547619Y-47404761D01*
X160357142Y-47309523D01*
X160166666Y-47119047D01*
X160071428Y-46738095D01*
X160071428Y-46071428D01*
X160166666Y-45690476D01*
X160357142Y-45500000D01*
X160547619Y-45404761D01*
X163404761Y-47404761D02*
X162738095Y-46452380D01*
X162261904Y-47404761D02*
X162261904Y-45404761D01*
X163023809Y-45404761D01*
X163214285Y-45500000D01*
X163309523Y-45595238D01*
X163404761Y-45785714D01*
X163404761Y-46071428D01*
X163309523Y-46261904D01*
X163214285Y-46357142D01*
X163023809Y-46452380D01*
X162261904Y-46452380D01*
X163976190Y-45404761D02*
X165119047Y-45404761D01*
X164547619Y-47404761D02*
X164547619Y-45404761D01*
X165785714Y-47404761D02*
X165785714Y-45404761D01*
X165785714Y-46357142D02*
X166928571Y-46357142D01*
X166928571Y-47404761D02*
X166928571Y-45404761D01*
M02*
