G04 #@! TF.GenerationSoftware,KiCad,Pcbnew,(5.1.2)-1*
G04 #@! TF.CreationDate,2019-05-02T18:24:12-06:00*
G04 #@! TF.ProjectId,Igloo09,49676c6f-6f30-4392-9e6b-696361645f70,rev?*
G04 #@! TF.SameCoordinates,Original*
G04 #@! TF.FileFunction,Legend,Bot*
G04 #@! TF.FilePolarity,Positive*
%FSLAX46Y46*%
G04 Gerber Fmt 4.6, Leading zero omitted, Abs format (unit mm)*
G04 Created by KiCad (PCBNEW (5.1.2)-1) date 2019-05-02 18:24:12*
%MOMM*%
%LPD*%
G04 APERTURE LIST*
%ADD10C,0.050000*%
G04 APERTURE END LIST*
D10*
X146410000Y-47850000D02*
G75*
G03X146410000Y-47850000I-660000J0D01*
G01*
X146282983Y-47850000D02*
G75*
G03X146282983Y-47850000I-532983J0D01*
G01*
X147250000Y-44150000D02*
X147250000Y-45300000D01*
X146700000Y-44000000D02*
X147100000Y-44000000D01*
X146550000Y-45300000D02*
X146550000Y-44150000D01*
X146550000Y-44150000D02*
X146700000Y-44000000D01*
X147100000Y-44000000D02*
X147250000Y-44150000D01*
X152900000Y-44000000D02*
X153300000Y-44000000D01*
X152750000Y-45300000D02*
X152750000Y-44150000D01*
X153300000Y-44000000D02*
X153450000Y-44150000D01*
X152750000Y-44150000D02*
X152900000Y-44000000D01*
X153450000Y-44150000D02*
X153450000Y-45300000D01*
X146500000Y-45150000D02*
X146500000Y-43990000D01*
X151350000Y-48100000D02*
X151150000Y-48100000D01*
X150350000Y-40946410D02*
X150150000Y-40946410D01*
X150850000Y-40946410D02*
X150650000Y-40946410D01*
X147850000Y-40946410D02*
X147650000Y-40946410D01*
X151850000Y-48100000D02*
X151650000Y-48100000D01*
X147850000Y-48100000D02*
X147650000Y-48100000D01*
X148350000Y-48100000D02*
X148150000Y-48100000D01*
X150850000Y-48100000D02*
X150650000Y-48100000D01*
X148850000Y-40946410D02*
X148650000Y-40946410D01*
X151350000Y-40946410D02*
X151150000Y-40946410D01*
X148350000Y-40946410D02*
X148150000Y-40946410D01*
X150350000Y-48100000D02*
X150150000Y-48100000D01*
X149350000Y-40946410D02*
X149150000Y-40946410D01*
X149350000Y-48100000D02*
X149150000Y-48100000D01*
X149850000Y-48100000D02*
X149650000Y-48100000D01*
X152350000Y-48100000D02*
X152150000Y-48100000D01*
X148850000Y-48100000D02*
X148650000Y-48100000D01*
X150850000Y-45970000D02*
X150650000Y-45970000D01*
X147850000Y-45970000D02*
X147650000Y-45970000D01*
X151350000Y-45970000D02*
X151150000Y-45970000D01*
X150350000Y-45970000D02*
X150150000Y-45970000D01*
X149850000Y-45970000D02*
X149650000Y-45970000D01*
X148350000Y-45970000D02*
X148150000Y-45970000D01*
X149350000Y-45970000D02*
X149150000Y-45970000D01*
X148850000Y-45970000D02*
X148650000Y-45970000D01*
X152350000Y-45970000D02*
X152150000Y-45970000D01*
X151850000Y-45970000D02*
X151650000Y-45970000D01*
X151350000Y-45220000D02*
X151150000Y-45220000D01*
X152350000Y-45220000D02*
X152150000Y-45220000D01*
X147850000Y-45220000D02*
X147650000Y-45220000D01*
X148850000Y-45220000D02*
X148650000Y-45220000D01*
X148350000Y-45220000D02*
X148150000Y-45220000D01*
X150850000Y-45220000D02*
X150650000Y-45220000D01*
X149850000Y-45220000D02*
X149650000Y-45220000D01*
X149350000Y-45220000D02*
X149150000Y-45220000D01*
X151850000Y-45220000D02*
X151650000Y-45220000D01*
X150350000Y-45220000D02*
X150150000Y-45220000D01*
X146500000Y-43990000D02*
X147300000Y-43990000D01*
X147300000Y-43990000D02*
X147300000Y-44650000D01*
X147300000Y-44650000D02*
X147450000Y-44800000D01*
X152550000Y-44800000D02*
X152700000Y-44650000D01*
X152700000Y-44650000D02*
X152700000Y-43990000D01*
X152700000Y-43990000D02*
X153500000Y-43990000D01*
X153500000Y-43990000D02*
X153500000Y-45150000D01*
X153500000Y-45150000D02*
X153650000Y-45300000D01*
X154650000Y-40600000D02*
X154650000Y-45300000D01*
X145350000Y-40600000D02*
X145350000Y-45300000D01*
X146350000Y-45300000D02*
X146500000Y-45150000D01*
X155100000Y-40600000D02*
X144900000Y-40600000D01*
X146350000Y-45300000D02*
X144900000Y-45300000D01*
X155100000Y-45300000D02*
X153650000Y-45300000D01*
X145150000Y-40000000D02*
X145150000Y-40600000D01*
X145150000Y-45300000D02*
X145150000Y-48550000D01*
X145400000Y-40000000D02*
X145400000Y-40600000D01*
X145400000Y-45300000D02*
X145400000Y-48550000D01*
X154850000Y-40000000D02*
X145150000Y-40000000D01*
X154600000Y-40000000D02*
X154600000Y-40600000D01*
X154600000Y-45300000D02*
X154600000Y-48550000D01*
X154850000Y-40000000D02*
X154850000Y-40600000D01*
X154850000Y-45300000D02*
X154850000Y-48550000D01*
X147250000Y-44800000D02*
X152750000Y-44800000D01*
X153350000Y-48550000D02*
X153350000Y-45300000D01*
X146650000Y-48550000D02*
X146650000Y-45300000D01*
X148150000Y-45300000D02*
X147850000Y-45300000D01*
X148350000Y-44900000D02*
X148350000Y-45000000D01*
X148650000Y-45000000D02*
X148650000Y-44900000D01*
X149150000Y-45000000D02*
X149150000Y-44900000D01*
X149150000Y-44900000D02*
X149350000Y-44900000D01*
X149650000Y-45300000D02*
X149350000Y-45300000D01*
X149650000Y-45000000D02*
X149650000Y-44900000D01*
X150150000Y-45300000D02*
X149850000Y-45300000D01*
X150650000Y-45000000D02*
X150650000Y-44900000D01*
X151150000Y-45000000D02*
X151150000Y-44900000D01*
X151650000Y-45300000D02*
X151350000Y-45300000D01*
X152150000Y-45300000D02*
X151850000Y-45300000D01*
X152350000Y-44900000D02*
X152350000Y-45000000D01*
X147650000Y-45000000D02*
X147650000Y-44900000D01*
X151150000Y-44900000D02*
X151350000Y-44900000D01*
X147850000Y-44900000D02*
X147850000Y-45000000D01*
X150150000Y-45000000D02*
X150150000Y-44900000D01*
X148150000Y-45000000D02*
X148150000Y-44900000D01*
X150650000Y-45300000D02*
X150350000Y-45300000D01*
X148650000Y-44900000D02*
X148850000Y-44900000D01*
X149850000Y-44900000D02*
X149850000Y-45000000D01*
X152150000Y-45000000D02*
X152150000Y-44900000D01*
X148650000Y-45300000D02*
X148350000Y-45300000D01*
X151350000Y-44900000D02*
X151350000Y-45000000D01*
X150650000Y-44900000D02*
X150850000Y-44900000D01*
X148150000Y-44900000D02*
X148350000Y-44900000D01*
X151850000Y-44900000D02*
X151850000Y-45000000D01*
X149150000Y-45300000D02*
X148850000Y-45300000D01*
X151150000Y-45300000D02*
X150850000Y-45300000D01*
X150150000Y-44900000D02*
X150350000Y-44900000D01*
X149350000Y-44900000D02*
X149350000Y-45000000D01*
X152150000Y-44900000D02*
X152350000Y-44900000D01*
X147650000Y-44900000D02*
X147850000Y-44900000D01*
X151650000Y-45000000D02*
X151650000Y-44900000D01*
X149650000Y-44900000D02*
X149850000Y-44900000D01*
X150850000Y-44900000D02*
X150850000Y-45000000D01*
X151650000Y-44900000D02*
X151850000Y-44900000D01*
X148850000Y-44900000D02*
X148850000Y-45000000D01*
X150350000Y-44900000D02*
X150350000Y-45000000D01*
X147650000Y-45300000D02*
X146550000Y-45300000D01*
X153450000Y-45300000D02*
X152350000Y-45300000D01*
X144750000Y-43100000D02*
X144750000Y-45550000D01*
X143800000Y-42950000D02*
X144600000Y-42950000D01*
X143650000Y-43100000D02*
X143800000Y-42950000D01*
X143650000Y-48400000D02*
X143650000Y-43100000D01*
X143800000Y-48550000D02*
X143650000Y-48400000D01*
X144600000Y-42950000D02*
X144750000Y-43100000D01*
X144750000Y-45550000D02*
X145150000Y-45550000D01*
X156350000Y-48400000D02*
X156200000Y-48550000D01*
X156200000Y-42950000D02*
X156350000Y-43100000D01*
X155400000Y-42950000D02*
X156200000Y-42950000D01*
X155250000Y-43100000D02*
X155400000Y-42950000D01*
X154850000Y-45550000D02*
X155250000Y-45550000D01*
X156350000Y-43100000D02*
X156350000Y-48400000D01*
X155250000Y-45550000D02*
X155250000Y-43100000D01*
X148150000Y-48550000D02*
X147850000Y-48550000D01*
X149150000Y-48550000D02*
X148850000Y-48550000D01*
X148650000Y-48550000D02*
X148350000Y-48550000D01*
X147650000Y-48550000D02*
X143800000Y-48550000D01*
X156200000Y-48550000D02*
X152350000Y-48550000D01*
X151150000Y-48550000D02*
X150850000Y-48550000D01*
X149650000Y-48550000D02*
X149350000Y-48550000D01*
X150650000Y-48550000D02*
X150350000Y-48550000D01*
X152150000Y-48550000D02*
X151850000Y-48550000D01*
X151650000Y-48550000D02*
X151350000Y-48550000D01*
X150150000Y-48550000D02*
X149850000Y-48550000D01*
X155100000Y-45550000D02*
X155100000Y-40600000D01*
X154875000Y-45550000D02*
X154875000Y-45300000D01*
X144900000Y-45550000D02*
X144900000Y-40600000D01*
X145125000Y-45550000D02*
X145125000Y-45300000D01*
X155155769Y-42978359D02*
X155100000Y-42978359D01*
X144844231Y-42978359D02*
X144900000Y-42978359D01*
X144895729Y-42399802D02*
X144899434Y-42412207D01*
X144874981Y-42315066D02*
X144895729Y-42399802D01*
X144861698Y-42228844D02*
X144874981Y-42315066D01*
X144855980Y-42141793D02*
X144861698Y-42228844D01*
X144857871Y-42054575D02*
X144855980Y-42141793D01*
X144867356Y-41967853D02*
X144857871Y-42054575D01*
X144867356Y-41967853D02*
X144900000Y-41755558D01*
X145043333Y-40600000D02*
X144891176Y-40314706D01*
X144891176Y-40314706D02*
X144716003Y-40408131D01*
X144716003Y-40408131D02*
X144845000Y-40650000D01*
X144845000Y-40650000D02*
X144653217Y-42006552D01*
X144691869Y-42502860D02*
X144692144Y-42503760D01*
X144666829Y-42405710D02*
X144691869Y-42502860D01*
X144650352Y-42306748D02*
X144666829Y-42405710D01*
X144642562Y-42206726D02*
X144650352Y-42306748D01*
X144643520Y-42106406D02*
X144642562Y-42206726D01*
X144653217Y-42006552D02*
X144643520Y-42106406D01*
X144692144Y-42503760D02*
X144725922Y-42614243D01*
X144900000Y-42414058D02*
X144899434Y-42412207D01*
X144725922Y-42614243D02*
X144900000Y-43150000D01*
X155307856Y-42503760D02*
X155274078Y-42614243D01*
X155308131Y-42502860D02*
X155307856Y-42503760D01*
X155333171Y-42405710D02*
X155308131Y-42502860D01*
X155349648Y-42306748D02*
X155333171Y-42405710D01*
X155357438Y-42206726D02*
X155349648Y-42306748D01*
X155356480Y-42106406D02*
X155357438Y-42206726D01*
X155346783Y-42006552D02*
X155356480Y-42106406D01*
X155155000Y-40650000D02*
X155346783Y-42006552D01*
X155283997Y-40408131D02*
X155155000Y-40650000D01*
X155108824Y-40314706D02*
X155283997Y-40408131D01*
X154956667Y-40600000D02*
X155108824Y-40314706D01*
X155132644Y-41967853D02*
X155100000Y-41755558D01*
X155104271Y-42399802D02*
X155100566Y-42412207D01*
X155125019Y-42315066D02*
X155104271Y-42399802D01*
X155138302Y-42228844D02*
X155125019Y-42315066D01*
X155144020Y-42141793D02*
X155138302Y-42228844D01*
X155142129Y-42054575D02*
X155144020Y-42141793D01*
X155132644Y-41967853D02*
X155142129Y-42054575D01*
X155274078Y-42614243D02*
X155100000Y-43150000D01*
X155100000Y-42414058D02*
X155100566Y-42412207D01*
X145146250Y-47850000D02*
X146353750Y-47850000D01*
X145750000Y-47157000D02*
X145750000Y-48543000D01*
X154250000Y-47157000D02*
X154250000Y-48543000D01*
X153557000Y-47850000D02*
X154943000Y-47850000D01*
X145125000Y-40600000D02*
X145125000Y-45300000D01*
X154875000Y-40600000D02*
X154875000Y-45300000D01*
X145150000Y-40600000D02*
X145150000Y-45300000D01*
X145400000Y-40600000D02*
X145400000Y-45300000D01*
X154600000Y-40600000D02*
X154600000Y-45300000D01*
X154850000Y-40600000D02*
X154850000Y-45300000D01*
X146135000Y-40000000D02*
X146135000Y-42950000D01*
X146965000Y-40000000D02*
X146965000Y-42950000D01*
X153865000Y-40000000D02*
X153865000Y-42950000D01*
X153035000Y-40000000D02*
X153035000Y-42950000D01*
X149850000Y-42750000D02*
X149850000Y-40000000D01*
X149650000Y-42750000D02*
X149650000Y-40000000D01*
X149350000Y-42750000D02*
X149150000Y-42750000D01*
X152150000Y-42750000D02*
X152150000Y-40000000D01*
X148350000Y-42750000D02*
X148350000Y-40000000D01*
X148350000Y-42750000D02*
X148150000Y-42750000D01*
X149150000Y-42750000D02*
X149150000Y-40000000D01*
X149350000Y-42750000D02*
X149350000Y-40000000D01*
X148850000Y-42750000D02*
X148850000Y-40000000D01*
X148850000Y-42750000D02*
X148650000Y-42750000D01*
X151350000Y-42750000D02*
X151350000Y-40000000D01*
X151150000Y-42750000D02*
X151150000Y-40000000D01*
X148650000Y-42750000D02*
X148650000Y-40000000D01*
X148150000Y-42750000D02*
X148150000Y-40000000D01*
X152350000Y-42750000D02*
X152350000Y-40000000D01*
X151850000Y-42750000D02*
X151650000Y-42750000D01*
X151650000Y-42750000D02*
X151650000Y-40000000D01*
X151850000Y-42750000D02*
X151850000Y-40000000D01*
X149850000Y-42750000D02*
X149650000Y-42750000D01*
X151350000Y-42750000D02*
X151150000Y-42750000D01*
X150350000Y-42750000D02*
X150350000Y-40000000D01*
X147850000Y-42750000D02*
X147850000Y-40000000D01*
X147650000Y-42750000D02*
X147650000Y-40000000D01*
X152350000Y-42750000D02*
X152150000Y-42750000D01*
X150850000Y-42750000D02*
X150850000Y-40000000D01*
X150650000Y-42750000D02*
X150650000Y-40000000D01*
X150850000Y-42750000D02*
X150650000Y-42750000D01*
X147850000Y-42750000D02*
X147650000Y-42750000D01*
X150350000Y-42750000D02*
X150150000Y-42750000D01*
X150150000Y-42750000D02*
X150150000Y-40000000D01*
X154850000Y-42950000D02*
X145150000Y-42950000D01*
X149650000Y-44900000D02*
X149650000Y-43000000D01*
X148350000Y-43000000D02*
X148350000Y-44900000D01*
X149150000Y-44900000D02*
X149150000Y-43000000D01*
X148650000Y-44900000D02*
X148650000Y-43000000D01*
X150650000Y-44900000D02*
X150650000Y-43000000D01*
X151150000Y-44900000D02*
X151150000Y-43000000D01*
X147850000Y-43000000D02*
X147850000Y-44900000D01*
X150150000Y-44900000D02*
X150150000Y-43000000D01*
X148150000Y-44900000D02*
X148150000Y-43000000D01*
X149850000Y-43000000D02*
X149850000Y-44900000D01*
X152150000Y-44900000D02*
X152150000Y-43000000D01*
X151350000Y-43000000D02*
X151350000Y-44900000D01*
X151850000Y-43000000D02*
X151850000Y-44900000D01*
X149350000Y-43000000D02*
X149350000Y-44900000D01*
X151650000Y-44900000D02*
X151650000Y-43000000D01*
X150850000Y-43000000D02*
X150850000Y-44900000D01*
X148850000Y-43000000D02*
X148850000Y-44900000D01*
X150350000Y-43000000D02*
X150350000Y-44900000D01*
X145650000Y-40000000D02*
X145650000Y-42950000D01*
X154350000Y-40000000D02*
X154350000Y-42950000D01*
X152150000Y-47850000D02*
X152350000Y-47850000D01*
X149150000Y-47850000D02*
X149350000Y-47850000D01*
X150150000Y-47850000D02*
X150350000Y-47850000D01*
X151650000Y-47850000D02*
X151850000Y-47850000D01*
X149650000Y-47850000D02*
X149850000Y-47850000D01*
X148650000Y-47850000D02*
X148850000Y-47850000D01*
X148150000Y-47850000D02*
X148350000Y-47850000D01*
X147650000Y-47850000D02*
X147850000Y-47850000D01*
X151150000Y-47850000D02*
X151350000Y-47850000D01*
X150650000Y-47850000D02*
X150850000Y-47850000D01*
X144900000Y-43150000D02*
X145125000Y-43150000D01*
X144900000Y-42950000D02*
X145125000Y-42950000D01*
X155100000Y-43150000D02*
X154875000Y-43150000D01*
X155100000Y-42950000D02*
X154875000Y-42950000D01*
X145550000Y-40000000D02*
X145550000Y-42950000D01*
X154450000Y-40000000D02*
X154450000Y-42950000D01*
X154150000Y-40000000D02*
X154150000Y-42950000D01*
X145850000Y-40000000D02*
X145850000Y-42950000D01*
X145750000Y-40000000D02*
X145750000Y-42950000D01*
X154250000Y-40000000D02*
X154250000Y-42950000D01*
X155100000Y-42978359D02*
X154927476Y-42978359D01*
X144900000Y-42978359D02*
X145072524Y-42978359D01*
X144900000Y-41755558D02*
X145070000Y-40650000D01*
X145070000Y-40650000D02*
X145043333Y-40600000D01*
X145125000Y-43150000D02*
X144900000Y-42414058D01*
X154930000Y-40650000D02*
X154956667Y-40600000D01*
X155100000Y-41755558D02*
X154930000Y-40650000D01*
X154875000Y-43150000D02*
X155100000Y-42414058D01*
X146175000Y-40000000D02*
X146175000Y-42950000D01*
X146925000Y-40000000D02*
X146925000Y-42950000D01*
X147650000Y-45300000D02*
X147850000Y-45300000D01*
X148150000Y-45300000D02*
X148350000Y-45300000D01*
X148650000Y-45300000D02*
X148850000Y-45300000D01*
X149150000Y-45300000D02*
X149350000Y-45300000D01*
X149650000Y-45300000D02*
X149850000Y-45300000D01*
X153075000Y-40000000D02*
X153075000Y-42950000D01*
X150150000Y-45300000D02*
X150350000Y-45300000D01*
X151150000Y-45300000D02*
X151350000Y-45300000D01*
X150650000Y-45300000D02*
X150850000Y-45300000D01*
X151650000Y-45300000D02*
X151850000Y-45300000D01*
X153825000Y-40000000D02*
X153825000Y-42950000D01*
X152150000Y-45300000D02*
X152350000Y-45300000D01*
X155147404Y-43004105D02*
X154919604Y-43004105D01*
X144852596Y-43004105D02*
X145080396Y-43004105D01*
X155100000Y-42550000D02*
X144900000Y-42550000D01*
X155100000Y-42750000D02*
X154875000Y-42750000D01*
X144900000Y-42750000D02*
X145125000Y-42750000D01*
X144944445Y-46430000D02*
X144944445Y-45550000D01*
X155055555Y-45550000D02*
X155055555Y-46430000D01*
X145200000Y-46430000D02*
X145200000Y-45300000D01*
X145350000Y-45300000D02*
X145350000Y-46430000D01*
X154650000Y-45300000D02*
X154650000Y-46430000D01*
X154791421Y-45300000D02*
X154791421Y-46430000D01*
X156350000Y-44150000D02*
X155250000Y-44150000D01*
X144100000Y-44800000D02*
X144100000Y-45300000D01*
X155700000Y-47050000D02*
X155700000Y-47550000D01*
X155900000Y-47050000D02*
X155700000Y-47050000D01*
X155700000Y-47550000D02*
X155900000Y-47550000D01*
X144100000Y-47050000D02*
X144100000Y-47550000D01*
X144300000Y-44800000D02*
X144100000Y-44800000D01*
X155900000Y-47050000D02*
X155900000Y-47550000D01*
X155900000Y-44800000D02*
X155700000Y-44800000D01*
X155700000Y-45300000D02*
X155900000Y-45300000D01*
X144300000Y-44800000D02*
X144300000Y-45300000D01*
X144300000Y-47050000D02*
X144100000Y-47050000D01*
X144100000Y-47550000D02*
X144300000Y-47550000D01*
X144300000Y-47050000D02*
X144300000Y-47550000D01*
X144750000Y-44150000D02*
X143650000Y-44150000D01*
X144100000Y-45300000D02*
X144300000Y-45300000D01*
X155700000Y-44800000D02*
X155700000Y-45300000D01*
X154910000Y-47850000D02*
G75*
G03X154910000Y-47850000I-660000J0D01*
G01*
X155900000Y-44800000D02*
X155900000Y-45300000D01*
X146287500Y-46430000D02*
X146287500Y-45930000D01*
X146287500Y-45930000D02*
X146062500Y-45930000D01*
X146062500Y-45737500D02*
X146500000Y-45300000D01*
X146500000Y-45300000D02*
X146500000Y-45150000D01*
X153500000Y-45150000D02*
X153500000Y-45300000D01*
X153500000Y-45300000D02*
X153937500Y-45737500D01*
X153937500Y-45930000D02*
X153712500Y-45930000D01*
X153712500Y-46430000D02*
X153712500Y-45930000D01*
X146287500Y-46430000D02*
X144944445Y-46430000D01*
X155055555Y-46430000D02*
X153712500Y-46430000D01*
X146062500Y-46430000D02*
X146062500Y-45737500D01*
X153937500Y-45737500D02*
X153937500Y-46430000D01*
X146287500Y-45980000D02*
X146062500Y-45980000D01*
X153937500Y-45980000D02*
X153712500Y-45980000D01*
X153712500Y-46380000D02*
X153937500Y-46380000D01*
X146062500Y-46380000D02*
X146287500Y-46380000D01*
X154782983Y-47850000D02*
G75*
G03X154782983Y-47850000I-532983J0D01*
G01*
X144300000Y-47450000D02*
X144100000Y-47450000D01*
X144300000Y-47150000D02*
X144100000Y-47150000D01*
X155900000Y-44900000D02*
X155700000Y-44900000D01*
X155900000Y-45200000D02*
X155700000Y-45200000D01*
X155900000Y-47150000D02*
X155700000Y-47150000D01*
X155900000Y-47450000D02*
X155700000Y-47450000D01*
X144300000Y-45200000D02*
X144100000Y-45200000D01*
X144300000Y-44900000D02*
X144100000Y-44900000D01*
X149850000Y-45000000D02*
X149650000Y-45000000D01*
X149850000Y-45450000D02*
X149650000Y-45450000D01*
X148850000Y-45000000D02*
X148650000Y-45000000D01*
X148850000Y-45450000D02*
X148650000Y-45450000D01*
X149350000Y-45000000D02*
X149150000Y-45000000D01*
X149350000Y-45450000D02*
X149150000Y-45450000D01*
X150350000Y-45000000D02*
X150150000Y-45000000D01*
X150350000Y-45450000D02*
X150150000Y-45450000D01*
X150850000Y-45450000D02*
X150650000Y-45450000D01*
X150850000Y-45000000D02*
X150650000Y-45000000D01*
X151350000Y-45450000D02*
X151150000Y-45450000D01*
X151350000Y-45000000D02*
X151150000Y-45000000D01*
X152350000Y-45450000D02*
X152150000Y-45450000D01*
X152350000Y-45000000D02*
X152150000Y-45000000D01*
X148350000Y-45450000D02*
X148150000Y-45450000D01*
X148350000Y-45000000D02*
X148150000Y-45000000D01*
X151850000Y-45450000D02*
X151650000Y-45450000D01*
X151850000Y-45000000D02*
X151650000Y-45000000D01*
X147850000Y-45450000D02*
X147650000Y-45450000D01*
X147850000Y-45000000D02*
X147650000Y-45000000D01*
X148850000Y-48850000D02*
X148650000Y-48850000D01*
X148650000Y-45000000D02*
X148650000Y-48850000D01*
X148850000Y-48850000D02*
X148850000Y-45000000D01*
X147850000Y-48850000D02*
X147650000Y-48850000D01*
X147650000Y-48850000D02*
X147650000Y-45000000D01*
X147850000Y-48850000D02*
X147850000Y-45000000D01*
X148350000Y-48850000D02*
X148150000Y-48850000D01*
X148150000Y-45000000D02*
X148150000Y-48850000D01*
X148350000Y-48850000D02*
X148350000Y-45000000D01*
X150350000Y-48850000D02*
X150150000Y-48850000D01*
X150350000Y-48850000D02*
X150350000Y-45000000D01*
X150150000Y-45000000D02*
X150150000Y-48850000D01*
X149350000Y-48850000D02*
X149150000Y-48850000D01*
X149150000Y-45000000D02*
X149150000Y-48850000D01*
X149350000Y-48850000D02*
X149350000Y-45000000D01*
X149850000Y-48850000D02*
X149650000Y-48850000D01*
X149850000Y-48850000D02*
X149850000Y-45000000D01*
X149650000Y-45000000D02*
X149650000Y-48850000D01*
X151350000Y-48850000D02*
X151150000Y-48850000D01*
X151150000Y-45000000D02*
X151150000Y-48850000D01*
X151350000Y-48850000D02*
X151350000Y-45000000D01*
X151850000Y-48850000D02*
X151650000Y-48850000D01*
X151650000Y-45000000D02*
X151650000Y-48850000D01*
X151850000Y-48850000D02*
X151850000Y-45000000D01*
X152350000Y-48850000D02*
X152150000Y-48850000D01*
X152350000Y-48850000D02*
X152350000Y-45000000D01*
X152150000Y-45000000D02*
X152150000Y-48850000D01*
X150850000Y-48850000D02*
X150650000Y-48850000D01*
X150650000Y-45000000D02*
X150650000Y-48850000D01*
X150850000Y-48850000D02*
X150850000Y-45000000D01*
X151850000Y-43000000D02*
X151850000Y-42750000D01*
X151850000Y-40200000D02*
X151650000Y-40200000D01*
X151650000Y-42750000D02*
X151650000Y-43000000D01*
X151350000Y-43000000D02*
X151350000Y-42750000D01*
X151350000Y-40200000D02*
X151150000Y-40200000D01*
X151150000Y-42750000D02*
X151150000Y-43000000D01*
X150850000Y-43000000D02*
X150850000Y-42750000D01*
X150850000Y-40200000D02*
X150650000Y-40200000D01*
X150650000Y-42750000D02*
X150650000Y-43000000D01*
X150350000Y-43000000D02*
X150350000Y-42750000D01*
X150350000Y-40200000D02*
X150150000Y-40200000D01*
X150150000Y-42750000D02*
X150150000Y-43000000D01*
X149850000Y-43000000D02*
X149850000Y-42750000D01*
X149850000Y-40200000D02*
X149650000Y-40200000D01*
X149650000Y-42750000D02*
X149650000Y-43000000D01*
X149350000Y-43000000D02*
X149350000Y-42750000D01*
X149350000Y-40200000D02*
X149150000Y-40200000D01*
X149150000Y-42750000D02*
X149150000Y-43000000D01*
X148850000Y-43000000D02*
X148850000Y-42750000D01*
X148850000Y-40200000D02*
X148650000Y-40200000D01*
X148650000Y-42750000D02*
X148650000Y-43000000D01*
X148350000Y-43000000D02*
X148350000Y-42750000D01*
X148350000Y-40200000D02*
X148150000Y-40200000D01*
X148150000Y-42750000D02*
X148150000Y-43000000D01*
X147850000Y-43000000D02*
X147850000Y-42750000D01*
X147850000Y-40200000D02*
X147650000Y-40200000D01*
X148650000Y-45000000D02*
X148350000Y-45000000D01*
X149150000Y-45000000D02*
X148850000Y-45000000D01*
X150150000Y-45000000D02*
X149850000Y-45000000D01*
X150650000Y-45000000D02*
X150350000Y-45000000D01*
X151150000Y-45000000D02*
X150850000Y-45000000D01*
X151650000Y-45000000D02*
X151350000Y-45000000D01*
X152150000Y-45000000D02*
X151850000Y-45000000D01*
X152350000Y-40200000D02*
X152150000Y-40200000D01*
X152150000Y-42750000D02*
X152150000Y-43000000D01*
X148150000Y-45000000D02*
X147850000Y-45000000D01*
X149650000Y-45000000D02*
X149350000Y-45000000D01*
X152350000Y-44900000D02*
X152350000Y-42750000D01*
X147650000Y-44900000D02*
X147650000Y-42750000D01*
X148350000Y-40546410D02*
X148150000Y-40546410D01*
X148850000Y-40546410D02*
X148650000Y-40546410D01*
X151850000Y-40546410D02*
X151650000Y-40546410D01*
X147850000Y-40546410D02*
X147650000Y-40546410D01*
X152350000Y-43000000D02*
X147650000Y-43000000D01*
X149350000Y-40546410D02*
X149150000Y-40546410D01*
X152350000Y-40546410D02*
X152150000Y-40546410D01*
X150850000Y-40546410D02*
X150650000Y-40546410D01*
X149850000Y-40546410D02*
X149650000Y-40546410D01*
X150350000Y-40546410D02*
X150150000Y-40546410D01*
X151350000Y-40546410D02*
X151150000Y-40546410D01*
X151850000Y-40946410D02*
X151650000Y-40946410D01*
X152350000Y-40946410D02*
X152150000Y-40946410D01*
X149850000Y-40946410D02*
X149650000Y-40946410D01*
X154910000Y-78150000D02*
G75*
G03X154910000Y-78150000I-660000J0D01*
G01*
X154782983Y-78150000D02*
G75*
G03X154782983Y-78150000I-532983J0D01*
G01*
X152750000Y-81850000D02*
X152750000Y-80700000D01*
X153300000Y-82000000D02*
X152900000Y-82000000D01*
X153450000Y-80700000D02*
X153450000Y-81850000D01*
X153450000Y-81850000D02*
X153300000Y-82000000D01*
X152900000Y-82000000D02*
X152750000Y-81850000D01*
X147100000Y-82000000D02*
X146700000Y-82000000D01*
X147250000Y-80700000D02*
X147250000Y-81850000D01*
X146700000Y-82000000D02*
X146550000Y-81850000D01*
X147250000Y-81850000D02*
X147100000Y-82000000D01*
X146550000Y-81850000D02*
X146550000Y-80700000D01*
X153500000Y-80850000D02*
X153500000Y-82010000D01*
X148650000Y-77900000D02*
X148850000Y-77900000D01*
X149650000Y-85053590D02*
X149850000Y-85053590D01*
X149150000Y-85053590D02*
X149350000Y-85053590D01*
X152150000Y-85053590D02*
X152350000Y-85053590D01*
X148150000Y-77900000D02*
X148350000Y-77900000D01*
X152150000Y-77900000D02*
X152350000Y-77900000D01*
X151650000Y-77900000D02*
X151850000Y-77900000D01*
X149150000Y-77900000D02*
X149350000Y-77900000D01*
X151150000Y-85053590D02*
X151350000Y-85053590D01*
X148650000Y-85053590D02*
X148850000Y-85053590D01*
X151650000Y-85053590D02*
X151850000Y-85053590D01*
X149650000Y-77900000D02*
X149850000Y-77900000D01*
X150650000Y-85053590D02*
X150850000Y-85053590D01*
X150650000Y-77900000D02*
X150850000Y-77900000D01*
X150150000Y-77900000D02*
X150350000Y-77900000D01*
X147650000Y-77900000D02*
X147850000Y-77900000D01*
X151150000Y-77900000D02*
X151350000Y-77900000D01*
X149150000Y-80030000D02*
X149350000Y-80030000D01*
X152150000Y-80030000D02*
X152350000Y-80030000D01*
X148650000Y-80030000D02*
X148850000Y-80030000D01*
X149650000Y-80030000D02*
X149850000Y-80030000D01*
X150150000Y-80030000D02*
X150350000Y-80030000D01*
X151650000Y-80030000D02*
X151850000Y-80030000D01*
X150650000Y-80030000D02*
X150850000Y-80030000D01*
X151150000Y-80030000D02*
X151350000Y-80030000D01*
X147650000Y-80030000D02*
X147850000Y-80030000D01*
X148150000Y-80030000D02*
X148350000Y-80030000D01*
X148650000Y-80780000D02*
X148850000Y-80780000D01*
X147650000Y-80780000D02*
X147850000Y-80780000D01*
X152150000Y-80780000D02*
X152350000Y-80780000D01*
X151150000Y-80780000D02*
X151350000Y-80780000D01*
X151650000Y-80780000D02*
X151850000Y-80780000D01*
X149150000Y-80780000D02*
X149350000Y-80780000D01*
X150150000Y-80780000D02*
X150350000Y-80780000D01*
X150650000Y-80780000D02*
X150850000Y-80780000D01*
X148150000Y-80780000D02*
X148350000Y-80780000D01*
X149650000Y-80780000D02*
X149850000Y-80780000D01*
X153500000Y-82010000D02*
X152700000Y-82010000D01*
X152700000Y-82010000D02*
X152700000Y-81350000D01*
X152700000Y-81350000D02*
X152550000Y-81200000D01*
X147450000Y-81200000D02*
X147300000Y-81350000D01*
X147300000Y-81350000D02*
X147300000Y-82010000D01*
X147300000Y-82010000D02*
X146500000Y-82010000D01*
X146500000Y-82010000D02*
X146500000Y-80850000D01*
X146500000Y-80850000D02*
X146350000Y-80700000D01*
X145350000Y-85400000D02*
X145350000Y-80700000D01*
X154650000Y-85400000D02*
X154650000Y-80700000D01*
X153650000Y-80700000D02*
X153500000Y-80850000D01*
X144900000Y-85400000D02*
X155100000Y-85400000D01*
X153650000Y-80700000D02*
X155100000Y-80700000D01*
X144900000Y-80700000D02*
X146350000Y-80700000D01*
X154850000Y-86000000D02*
X154850000Y-85400000D01*
X154850000Y-80700000D02*
X154850000Y-77450000D01*
X154600000Y-86000000D02*
X154600000Y-85400000D01*
X154600000Y-80700000D02*
X154600000Y-77450000D01*
X145150000Y-86000000D02*
X154850000Y-86000000D01*
X145400000Y-86000000D02*
X145400000Y-85400000D01*
X145400000Y-80700000D02*
X145400000Y-77450000D01*
X145150000Y-86000000D02*
X145150000Y-85400000D01*
X145150000Y-80700000D02*
X145150000Y-77450000D01*
X152750000Y-81200000D02*
X147250000Y-81200000D01*
X146650000Y-77450000D02*
X146650000Y-80700000D01*
X153350000Y-77450000D02*
X153350000Y-80700000D01*
X151850000Y-80700000D02*
X152150000Y-80700000D01*
X151650000Y-81100000D02*
X151650000Y-81000000D01*
X151350000Y-81000000D02*
X151350000Y-81100000D01*
X150850000Y-81000000D02*
X150850000Y-81100000D01*
X150850000Y-81100000D02*
X150650000Y-81100000D01*
X150350000Y-80700000D02*
X150650000Y-80700000D01*
X150350000Y-81000000D02*
X150350000Y-81100000D01*
X149850000Y-80700000D02*
X150150000Y-80700000D01*
X149350000Y-81000000D02*
X149350000Y-81100000D01*
X148850000Y-81000000D02*
X148850000Y-81100000D01*
X148350000Y-80700000D02*
X148650000Y-80700000D01*
X147850000Y-80700000D02*
X148150000Y-80700000D01*
X147650000Y-81100000D02*
X147650000Y-81000000D01*
X152350000Y-81000000D02*
X152350000Y-81100000D01*
X148850000Y-81100000D02*
X148650000Y-81100000D01*
X152150000Y-81100000D02*
X152150000Y-81000000D01*
X149850000Y-81000000D02*
X149850000Y-81100000D01*
X151850000Y-81000000D02*
X151850000Y-81100000D01*
X149350000Y-80700000D02*
X149650000Y-80700000D01*
X151350000Y-81100000D02*
X151150000Y-81100000D01*
X150150000Y-81100000D02*
X150150000Y-81000000D01*
X147850000Y-81000000D02*
X147850000Y-81100000D01*
X151350000Y-80700000D02*
X151650000Y-80700000D01*
X148650000Y-81100000D02*
X148650000Y-81000000D01*
X149350000Y-81100000D02*
X149150000Y-81100000D01*
X151850000Y-81100000D02*
X151650000Y-81100000D01*
X148150000Y-81100000D02*
X148150000Y-81000000D01*
X150850000Y-80700000D02*
X151150000Y-80700000D01*
X148850000Y-80700000D02*
X149150000Y-80700000D01*
X149850000Y-81100000D02*
X149650000Y-81100000D01*
X150650000Y-81100000D02*
X150650000Y-81000000D01*
X147850000Y-81100000D02*
X147650000Y-81100000D01*
X152350000Y-81100000D02*
X152150000Y-81100000D01*
X148350000Y-81000000D02*
X148350000Y-81100000D01*
X150350000Y-81100000D02*
X150150000Y-81100000D01*
X149150000Y-81100000D02*
X149150000Y-81000000D01*
X148350000Y-81100000D02*
X148150000Y-81100000D01*
X151150000Y-81100000D02*
X151150000Y-81000000D01*
X149650000Y-81100000D02*
X149650000Y-81000000D01*
X152350000Y-80700000D02*
X153450000Y-80700000D01*
X146550000Y-80700000D02*
X147650000Y-80700000D01*
X155250000Y-82900000D02*
X155250000Y-80450000D01*
X156200000Y-83050000D02*
X155400000Y-83050000D01*
X156350000Y-82900000D02*
X156200000Y-83050000D01*
X156350000Y-77600000D02*
X156350000Y-82900000D01*
X156200000Y-77450000D02*
X156350000Y-77600000D01*
X155400000Y-83050000D02*
X155250000Y-82900000D01*
X155250000Y-80450000D02*
X154850000Y-80450000D01*
X143650000Y-77600000D02*
X143800000Y-77450000D01*
X143800000Y-83050000D02*
X143650000Y-82900000D01*
X144600000Y-83050000D02*
X143800000Y-83050000D01*
X144750000Y-82900000D02*
X144600000Y-83050000D01*
X145150000Y-80450000D02*
X144750000Y-80450000D01*
X143650000Y-82900000D02*
X143650000Y-77600000D01*
X144750000Y-80450000D02*
X144750000Y-82900000D01*
X151850000Y-77450000D02*
X152150000Y-77450000D01*
X150850000Y-77450000D02*
X151150000Y-77450000D01*
X151350000Y-77450000D02*
X151650000Y-77450000D01*
X152350000Y-77450000D02*
X156200000Y-77450000D01*
X143800000Y-77450000D02*
X147650000Y-77450000D01*
X148850000Y-77450000D02*
X149150000Y-77450000D01*
X150350000Y-77450000D02*
X150650000Y-77450000D01*
X149350000Y-77450000D02*
X149650000Y-77450000D01*
X147850000Y-77450000D02*
X148150000Y-77450000D01*
X148350000Y-77450000D02*
X148650000Y-77450000D01*
X149850000Y-77450000D02*
X150150000Y-77450000D01*
X144900000Y-80450000D02*
X144900000Y-85400000D01*
X145125000Y-80450000D02*
X145125000Y-80700000D01*
X155100000Y-80450000D02*
X155100000Y-85400000D01*
X154875000Y-80450000D02*
X154875000Y-80700000D01*
X144844231Y-83021641D02*
X144900000Y-83021641D01*
X155155769Y-83021641D02*
X155100000Y-83021641D01*
X155104271Y-83600198D02*
X155100566Y-83587793D01*
X155125019Y-83684934D02*
X155104271Y-83600198D01*
X155138302Y-83771156D02*
X155125019Y-83684934D01*
X155144020Y-83858207D02*
X155138302Y-83771156D01*
X155142129Y-83945425D02*
X155144020Y-83858207D01*
X155132644Y-84032147D02*
X155142129Y-83945425D01*
X155132644Y-84032147D02*
X155100000Y-84244442D01*
X154956667Y-85400000D02*
X155108824Y-85685294D01*
X155108824Y-85685294D02*
X155283997Y-85591869D01*
X155283997Y-85591869D02*
X155155000Y-85350000D01*
X155155000Y-85350000D02*
X155346783Y-83993448D01*
X155308131Y-83497140D02*
X155307856Y-83496240D01*
X155333171Y-83594290D02*
X155308131Y-83497140D01*
X155349648Y-83693252D02*
X155333171Y-83594290D01*
X155357438Y-83793274D02*
X155349648Y-83693252D01*
X155356480Y-83893594D02*
X155357438Y-83793274D01*
X155346783Y-83993448D02*
X155356480Y-83893594D01*
X155307856Y-83496240D02*
X155274078Y-83385757D01*
X155100000Y-83585942D02*
X155100566Y-83587793D01*
X155274078Y-83385757D02*
X155100000Y-82850000D01*
X144692144Y-83496240D02*
X144725922Y-83385757D01*
X144691869Y-83497140D02*
X144692144Y-83496240D01*
X144666829Y-83594290D02*
X144691869Y-83497140D01*
X144650352Y-83693252D02*
X144666829Y-83594290D01*
X144642562Y-83793274D02*
X144650352Y-83693252D01*
X144643520Y-83893594D02*
X144642562Y-83793274D01*
X144653217Y-83993448D02*
X144643520Y-83893594D01*
X144845000Y-85350000D02*
X144653217Y-83993448D01*
X144716003Y-85591869D02*
X144845000Y-85350000D01*
X144891176Y-85685294D02*
X144716003Y-85591869D01*
X145043333Y-85400000D02*
X144891176Y-85685294D01*
X144867356Y-84032147D02*
X144900000Y-84244442D01*
X144895729Y-83600198D02*
X144899434Y-83587793D01*
X144874981Y-83684934D02*
X144895729Y-83600198D01*
X144861698Y-83771156D02*
X144874981Y-83684934D01*
X144855980Y-83858207D02*
X144861698Y-83771156D01*
X144857871Y-83945425D02*
X144855980Y-83858207D01*
X144867356Y-84032147D02*
X144857871Y-83945425D01*
X144725922Y-83385757D02*
X144900000Y-82850000D01*
X144900000Y-83585942D02*
X144899434Y-83587793D01*
X154853750Y-78150000D02*
X153646250Y-78150000D01*
X154250000Y-78843000D02*
X154250000Y-77457000D01*
X145750000Y-78843000D02*
X145750000Y-77457000D01*
X146443000Y-78150000D02*
X145057000Y-78150000D01*
X154875000Y-85400000D02*
X154875000Y-80700000D01*
X145125000Y-85400000D02*
X145125000Y-80700000D01*
X154850000Y-85400000D02*
X154850000Y-80700000D01*
X154600000Y-85400000D02*
X154600000Y-80700000D01*
X145400000Y-85400000D02*
X145400000Y-80700000D01*
X145150000Y-85400000D02*
X145150000Y-80700000D01*
X153865000Y-86000000D02*
X153865000Y-83050000D01*
X153035000Y-86000000D02*
X153035000Y-83050000D01*
X146135000Y-86000000D02*
X146135000Y-83050000D01*
X146965000Y-86000000D02*
X146965000Y-83050000D01*
X150150000Y-83250000D02*
X150150000Y-86000000D01*
X150350000Y-83250000D02*
X150350000Y-86000000D01*
X150650000Y-83250000D02*
X150850000Y-83250000D01*
X147850000Y-83250000D02*
X147850000Y-86000000D01*
X151650000Y-83250000D02*
X151650000Y-86000000D01*
X151650000Y-83250000D02*
X151850000Y-83250000D01*
X150850000Y-83250000D02*
X150850000Y-86000000D01*
X150650000Y-83250000D02*
X150650000Y-86000000D01*
X151150000Y-83250000D02*
X151150000Y-86000000D01*
X151150000Y-83250000D02*
X151350000Y-83250000D01*
X148650000Y-83250000D02*
X148650000Y-86000000D01*
X148850000Y-83250000D02*
X148850000Y-86000000D01*
X151350000Y-83250000D02*
X151350000Y-86000000D01*
X151850000Y-83250000D02*
X151850000Y-86000000D01*
X147650000Y-83250000D02*
X147650000Y-86000000D01*
X148150000Y-83250000D02*
X148350000Y-83250000D01*
X148350000Y-83250000D02*
X148350000Y-86000000D01*
X148150000Y-83250000D02*
X148150000Y-86000000D01*
X150150000Y-83250000D02*
X150350000Y-83250000D01*
X148650000Y-83250000D02*
X148850000Y-83250000D01*
X149650000Y-83250000D02*
X149650000Y-86000000D01*
X152150000Y-83250000D02*
X152150000Y-86000000D01*
X152350000Y-83250000D02*
X152350000Y-86000000D01*
X147650000Y-83250000D02*
X147850000Y-83250000D01*
X149150000Y-83250000D02*
X149150000Y-86000000D01*
X149350000Y-83250000D02*
X149350000Y-86000000D01*
X149150000Y-83250000D02*
X149350000Y-83250000D01*
X152150000Y-83250000D02*
X152350000Y-83250000D01*
X149650000Y-83250000D02*
X149850000Y-83250000D01*
X149850000Y-83250000D02*
X149850000Y-86000000D01*
X145150000Y-83050000D02*
X154850000Y-83050000D01*
X150350000Y-81100000D02*
X150350000Y-83000000D01*
X151650000Y-83000000D02*
X151650000Y-81100000D01*
X150850000Y-81100000D02*
X150850000Y-83000000D01*
X151350000Y-81100000D02*
X151350000Y-83000000D01*
X149350000Y-81100000D02*
X149350000Y-83000000D01*
X148850000Y-81100000D02*
X148850000Y-83000000D01*
X152150000Y-83000000D02*
X152150000Y-81100000D01*
X149850000Y-81100000D02*
X149850000Y-83000000D01*
X151850000Y-81100000D02*
X151850000Y-83000000D01*
X150150000Y-83000000D02*
X150150000Y-81100000D01*
X147850000Y-81100000D02*
X147850000Y-83000000D01*
X148650000Y-83000000D02*
X148650000Y-81100000D01*
X148150000Y-83000000D02*
X148150000Y-81100000D01*
X150650000Y-83000000D02*
X150650000Y-81100000D01*
X148350000Y-81100000D02*
X148350000Y-83000000D01*
X149150000Y-83000000D02*
X149150000Y-81100000D01*
X151150000Y-83000000D02*
X151150000Y-81100000D01*
X149650000Y-83000000D02*
X149650000Y-81100000D01*
X154350000Y-86000000D02*
X154350000Y-83050000D01*
X145650000Y-86000000D02*
X145650000Y-83050000D01*
X147850000Y-78150000D02*
X147650000Y-78150000D01*
X150850000Y-78150000D02*
X150650000Y-78150000D01*
X149850000Y-78150000D02*
X149650000Y-78150000D01*
X148350000Y-78150000D02*
X148150000Y-78150000D01*
X150350000Y-78150000D02*
X150150000Y-78150000D01*
X151350000Y-78150000D02*
X151150000Y-78150000D01*
X151850000Y-78150000D02*
X151650000Y-78150000D01*
X152350000Y-78150000D02*
X152150000Y-78150000D01*
X148850000Y-78150000D02*
X148650000Y-78150000D01*
X149350000Y-78150000D02*
X149150000Y-78150000D01*
X155100000Y-82850000D02*
X154875000Y-82850000D01*
X155100000Y-83050000D02*
X154875000Y-83050000D01*
X144900000Y-82850000D02*
X145125000Y-82850000D01*
X144900000Y-83050000D02*
X145125000Y-83050000D01*
X154450000Y-86000000D02*
X154450000Y-83050000D01*
X145550000Y-86000000D02*
X145550000Y-83050000D01*
X145850000Y-86000000D02*
X145850000Y-83050000D01*
X154150000Y-86000000D02*
X154150000Y-83050000D01*
X154250000Y-86000000D02*
X154250000Y-83050000D01*
X145750000Y-86000000D02*
X145750000Y-83050000D01*
X144900000Y-83021641D02*
X145072524Y-83021641D01*
X155100000Y-83021641D02*
X154927476Y-83021641D01*
X155100000Y-84244442D02*
X154930000Y-85350000D01*
X154930000Y-85350000D02*
X154956667Y-85400000D01*
X154875000Y-82850000D02*
X155100000Y-83585942D01*
X145070000Y-85350000D02*
X145043333Y-85400000D01*
X144900000Y-84244442D02*
X145070000Y-85350000D01*
X145125000Y-82850000D02*
X144900000Y-83585942D01*
X153825000Y-86000000D02*
X153825000Y-83050000D01*
X153075000Y-86000000D02*
X153075000Y-83050000D01*
X152350000Y-80700000D02*
X152150000Y-80700000D01*
X151850000Y-80700000D02*
X151650000Y-80700000D01*
X151350000Y-80700000D02*
X151150000Y-80700000D01*
X150850000Y-80700000D02*
X150650000Y-80700000D01*
X150350000Y-80700000D02*
X150150000Y-80700000D01*
X146925000Y-86000000D02*
X146925000Y-83050000D01*
X149850000Y-80700000D02*
X149650000Y-80700000D01*
X148850000Y-80700000D02*
X148650000Y-80700000D01*
X149350000Y-80700000D02*
X149150000Y-80700000D01*
X148350000Y-80700000D02*
X148150000Y-80700000D01*
X146175000Y-86000000D02*
X146175000Y-83050000D01*
X147850000Y-80700000D02*
X147650000Y-80700000D01*
X144852596Y-82995895D02*
X145080396Y-82995895D01*
X155147404Y-82995895D02*
X154919604Y-82995895D01*
X144900000Y-83450000D02*
X155100000Y-83450000D01*
X144900000Y-83250000D02*
X145125000Y-83250000D01*
X155100000Y-83250000D02*
X154875000Y-83250000D01*
X155055555Y-79570000D02*
X155055555Y-80450000D01*
X144944445Y-80450000D02*
X144944445Y-79570000D01*
X154800000Y-79570000D02*
X154800000Y-80700000D01*
X154650000Y-80700000D02*
X154650000Y-79570000D01*
X145350000Y-80700000D02*
X145350000Y-79570000D01*
X145208579Y-80700000D02*
X145208579Y-79570000D01*
X143650000Y-81850000D02*
X144750000Y-81850000D01*
X155900000Y-81200000D02*
X155900000Y-80700000D01*
X144300000Y-78950000D02*
X144300000Y-78450000D01*
X144100000Y-78950000D02*
X144300000Y-78950000D01*
X144300000Y-78450000D02*
X144100000Y-78450000D01*
X155900000Y-78950000D02*
X155900000Y-78450000D01*
X155700000Y-81200000D02*
X155900000Y-81200000D01*
X144100000Y-78950000D02*
X144100000Y-78450000D01*
X144100000Y-81200000D02*
X144300000Y-81200000D01*
X144300000Y-80700000D02*
X144100000Y-80700000D01*
X155700000Y-81200000D02*
X155700000Y-80700000D01*
X155700000Y-78950000D02*
X155900000Y-78950000D01*
X155900000Y-78450000D02*
X155700000Y-78450000D01*
X155700000Y-78950000D02*
X155700000Y-78450000D01*
X155250000Y-81850000D02*
X156350000Y-81850000D01*
X155900000Y-80700000D02*
X155700000Y-80700000D01*
X144300000Y-81200000D02*
X144300000Y-80700000D01*
X146410000Y-78150000D02*
G75*
G03X146410000Y-78150000I-660000J0D01*
G01*
X144100000Y-81200000D02*
X144100000Y-80700000D01*
X153712500Y-79570000D02*
X153712500Y-80070000D01*
X153712500Y-80070000D02*
X153937500Y-80070000D01*
X153937500Y-80262500D02*
X153500000Y-80700000D01*
X153500000Y-80700000D02*
X153500000Y-80850000D01*
X146500000Y-80850000D02*
X146500000Y-80700000D01*
X146500000Y-80700000D02*
X146062500Y-80262500D01*
X146062500Y-80070000D02*
X146287500Y-80070000D01*
X146287500Y-79570000D02*
X146287500Y-80070000D01*
X153712500Y-79570000D02*
X155055555Y-79570000D01*
X144944445Y-79570000D02*
X146287500Y-79570000D01*
X153937500Y-79570000D02*
X153937500Y-80262500D01*
X146062500Y-80262500D02*
X146062500Y-79570000D01*
X153712500Y-80020000D02*
X153937500Y-80020000D01*
X146062500Y-80020000D02*
X146287500Y-80020000D01*
X146287500Y-79620000D02*
X146062500Y-79620000D01*
X153937500Y-79620000D02*
X153712500Y-79620000D01*
X146282983Y-78150000D02*
G75*
G03X146282983Y-78150000I-532983J0D01*
G01*
X155700000Y-78550000D02*
X155900000Y-78550000D01*
X155700000Y-78850000D02*
X155900000Y-78850000D01*
X144100000Y-81100000D02*
X144300000Y-81100000D01*
X144100000Y-80800000D02*
X144300000Y-80800000D01*
X144100000Y-78850000D02*
X144300000Y-78850000D01*
X144100000Y-78550000D02*
X144300000Y-78550000D01*
X155700000Y-80800000D02*
X155900000Y-80800000D01*
X155700000Y-81100000D02*
X155900000Y-81100000D01*
X150150000Y-81000000D02*
X150350000Y-81000000D01*
X150150000Y-80550000D02*
X150350000Y-80550000D01*
X151150000Y-81000000D02*
X151350000Y-81000000D01*
X151150000Y-80550000D02*
X151350000Y-80550000D01*
X150650000Y-81000000D02*
X150850000Y-81000000D01*
X150650000Y-80550000D02*
X150850000Y-80550000D01*
X149650000Y-81000000D02*
X149850000Y-81000000D01*
X149650000Y-80550000D02*
X149850000Y-80550000D01*
X149150000Y-80550000D02*
X149350000Y-80550000D01*
X149150000Y-81000000D02*
X149350000Y-81000000D01*
X148650000Y-80550000D02*
X148850000Y-80550000D01*
X148650000Y-81000000D02*
X148850000Y-81000000D01*
X147650000Y-80550000D02*
X147850000Y-80550000D01*
X147650000Y-81000000D02*
X147850000Y-81000000D01*
X151650000Y-80550000D02*
X151850000Y-80550000D01*
X151650000Y-81000000D02*
X151850000Y-81000000D01*
X148150000Y-80550000D02*
X148350000Y-80550000D01*
X148150000Y-81000000D02*
X148350000Y-81000000D01*
X152150000Y-80550000D02*
X152350000Y-80550000D01*
X152150000Y-81000000D02*
X152350000Y-81000000D01*
X151150000Y-77150000D02*
X151350000Y-77150000D01*
X151350000Y-81000000D02*
X151350000Y-77150000D01*
X151150000Y-77150000D02*
X151150000Y-81000000D01*
X152150000Y-77150000D02*
X152350000Y-77150000D01*
X152350000Y-77150000D02*
X152350000Y-81000000D01*
X152150000Y-77150000D02*
X152150000Y-81000000D01*
X151650000Y-77150000D02*
X151850000Y-77150000D01*
X151850000Y-81000000D02*
X151850000Y-77150000D01*
X151650000Y-77150000D02*
X151650000Y-81000000D01*
X149650000Y-77150000D02*
X149850000Y-77150000D01*
X149650000Y-77150000D02*
X149650000Y-81000000D01*
X149850000Y-81000000D02*
X149850000Y-77150000D01*
X150650000Y-77150000D02*
X150850000Y-77150000D01*
X150850000Y-81000000D02*
X150850000Y-77150000D01*
X150650000Y-77150000D02*
X150650000Y-81000000D01*
X150150000Y-77150000D02*
X150350000Y-77150000D01*
X150150000Y-77150000D02*
X150150000Y-81000000D01*
X150350000Y-81000000D02*
X150350000Y-77150000D01*
X148650000Y-77150000D02*
X148850000Y-77150000D01*
X148850000Y-81000000D02*
X148850000Y-77150000D01*
X148650000Y-77150000D02*
X148650000Y-81000000D01*
X148150000Y-77150000D02*
X148350000Y-77150000D01*
X148350000Y-81000000D02*
X148350000Y-77150000D01*
X148150000Y-77150000D02*
X148150000Y-81000000D01*
X147650000Y-77150000D02*
X147850000Y-77150000D01*
X147650000Y-77150000D02*
X147650000Y-81000000D01*
X147850000Y-81000000D02*
X147850000Y-77150000D01*
X149150000Y-77150000D02*
X149350000Y-77150000D01*
X149350000Y-81000000D02*
X149350000Y-77150000D01*
X149150000Y-77150000D02*
X149150000Y-81000000D01*
X148150000Y-83000000D02*
X148150000Y-83250000D01*
X148150000Y-85800000D02*
X148350000Y-85800000D01*
X148350000Y-83250000D02*
X148350000Y-83000000D01*
X148650000Y-83000000D02*
X148650000Y-83250000D01*
X148650000Y-85800000D02*
X148850000Y-85800000D01*
X148850000Y-83250000D02*
X148850000Y-83000000D01*
X149150000Y-83000000D02*
X149150000Y-83250000D01*
X149150000Y-85800000D02*
X149350000Y-85800000D01*
X149350000Y-83250000D02*
X149350000Y-83000000D01*
X149650000Y-83000000D02*
X149650000Y-83250000D01*
X149650000Y-85800000D02*
X149850000Y-85800000D01*
X149850000Y-83250000D02*
X149850000Y-83000000D01*
X150150000Y-83000000D02*
X150150000Y-83250000D01*
X150150000Y-85800000D02*
X150350000Y-85800000D01*
X150350000Y-83250000D02*
X150350000Y-83000000D01*
X150650000Y-83000000D02*
X150650000Y-83250000D01*
X150650000Y-85800000D02*
X150850000Y-85800000D01*
X150850000Y-83250000D02*
X150850000Y-83000000D01*
X151150000Y-83000000D02*
X151150000Y-83250000D01*
X151150000Y-85800000D02*
X151350000Y-85800000D01*
X151350000Y-83250000D02*
X151350000Y-83000000D01*
X151650000Y-83000000D02*
X151650000Y-83250000D01*
X151650000Y-85800000D02*
X151850000Y-85800000D01*
X151850000Y-83250000D02*
X151850000Y-83000000D01*
X152150000Y-83000000D02*
X152150000Y-83250000D01*
X152150000Y-85800000D02*
X152350000Y-85800000D01*
X151350000Y-81000000D02*
X151650000Y-81000000D01*
X150850000Y-81000000D02*
X151150000Y-81000000D01*
X149850000Y-81000000D02*
X150150000Y-81000000D01*
X149350000Y-81000000D02*
X149650000Y-81000000D01*
X148850000Y-81000000D02*
X149150000Y-81000000D01*
X148350000Y-81000000D02*
X148650000Y-81000000D01*
X147850000Y-81000000D02*
X148150000Y-81000000D01*
X147650000Y-85800000D02*
X147850000Y-85800000D01*
X147850000Y-83250000D02*
X147850000Y-83000000D01*
X151850000Y-81000000D02*
X152150000Y-81000000D01*
X150350000Y-81000000D02*
X150650000Y-81000000D01*
X147650000Y-81100000D02*
X147650000Y-83250000D01*
X152350000Y-81100000D02*
X152350000Y-83250000D01*
X151650000Y-85453590D02*
X151850000Y-85453590D01*
X151150000Y-85453590D02*
X151350000Y-85453590D01*
X148150000Y-85453590D02*
X148350000Y-85453590D01*
X152150000Y-85453590D02*
X152350000Y-85453590D01*
X147650000Y-83000000D02*
X152350000Y-83000000D01*
X150650000Y-85453590D02*
X150850000Y-85453590D01*
X147650000Y-85453590D02*
X147850000Y-85453590D01*
X149150000Y-85453590D02*
X149350000Y-85453590D01*
X150150000Y-85453590D02*
X150350000Y-85453590D01*
X149650000Y-85453590D02*
X149850000Y-85453590D01*
X148650000Y-85453590D02*
X148850000Y-85453590D01*
X148150000Y-85053590D02*
X148350000Y-85053590D01*
X147650000Y-85053590D02*
X147850000Y-85053590D01*
X150150000Y-85053590D02*
X150350000Y-85053590D01*
M02*
