G04 #@! TF.GenerationSoftware,KiCad,Pcbnew,(5.1.2)-1*
G04 #@! TF.CreationDate,2019-05-02T18:24:12-06:00*
G04 #@! TF.ProjectId,Igloo09,49676c6f-6f30-4392-9e6b-696361645f70,rev?*
G04 #@! TF.SameCoordinates,Original*
G04 #@! TF.FileFunction,Soldermask,Top*
G04 #@! TF.FilePolarity,Negative*
%FSLAX46Y46*%
G04 Gerber Fmt 4.6, Leading zero omitted, Abs format (unit mm)*
G04 Created by KiCad (PCBNEW (5.1.2)-1) date 2019-05-02 18:24:12*
%MOMM*%
%LPD*%
G04 APERTURE LIST*
%ADD10C,0.150000*%
%ADD11C,2.300000*%
%ADD12C,1.400000*%
%ADD13R,0.781000X1.670000*%
G04 APERTURE END LIST*
D10*
X146426631Y-82537300D02*
G75*
G03X146426631Y-82537300I-18491J0D01*
G01*
X146486880Y-82501740D02*
G75*
G03X146486880Y-82501740I-83820J0D01*
G01*
X146629346Y-82501740D02*
G75*
G03X146629346Y-82501740I-228826J0D01*
G01*
X147226731Y-82537300D02*
G75*
G03X147226731Y-82537300I-18491J0D01*
G01*
X147286980Y-82501740D02*
G75*
G03X147286980Y-82501740I-83820J0D01*
G01*
X147429446Y-82501740D02*
G75*
G03X147429446Y-82501740I-228826J0D01*
G01*
X148026831Y-82537300D02*
G75*
G03X148026831Y-82537300I-18491J0D01*
G01*
X148087080Y-82501740D02*
G75*
G03X148087080Y-82501740I-83820J0D01*
G01*
X148229546Y-82501740D02*
G75*
G03X148229546Y-82501740I-228826J0D01*
G01*
X148826931Y-82537300D02*
G75*
G03X148826931Y-82537300I-18491J0D01*
G01*
X148887180Y-82501740D02*
G75*
G03X148887180Y-82501740I-83820J0D01*
G01*
X149029646Y-82501740D02*
G75*
G03X149029646Y-82501740I-228826J0D01*
G01*
X149627031Y-82537300D02*
G75*
G03X149627031Y-82537300I-18491J0D01*
G01*
X149687280Y-82501740D02*
G75*
G03X149687280Y-82501740I-83820J0D01*
G01*
X149829746Y-82501740D02*
G75*
G03X149829746Y-82501740I-228826J0D01*
G01*
X150427131Y-82537300D02*
G75*
G03X150427131Y-82537300I-18491J0D01*
G01*
X150487380Y-82501740D02*
G75*
G03X150487380Y-82501740I-83820J0D01*
G01*
X150629846Y-82501740D02*
G75*
G03X150629846Y-82501740I-228826J0D01*
G01*
X151227231Y-82537300D02*
G75*
G03X151227231Y-82537300I-18491J0D01*
G01*
X151287480Y-82501740D02*
G75*
G03X151287480Y-82501740I-83820J0D01*
G01*
X151429946Y-82501740D02*
G75*
G03X151429946Y-82501740I-228826J0D01*
G01*
X152027331Y-82534760D02*
G75*
G03X152027331Y-82534760I-18491J0D01*
G01*
X152087580Y-82499200D02*
G75*
G03X152087580Y-82499200I-83820J0D01*
G01*
X152230046Y-82499200D02*
G75*
G03X152230046Y-82499200I-228826J0D01*
G01*
X152827431Y-82537300D02*
G75*
G03X152827431Y-82537300I-18491J0D01*
G01*
X152887680Y-82501740D02*
G75*
G03X152887680Y-82501740I-83820J0D01*
G01*
X153030146Y-82501740D02*
G75*
G03X153030146Y-82501740I-228826J0D01*
G01*
X153624991Y-82534760D02*
G75*
G03X153624991Y-82534760I-18491J0D01*
G01*
X153685240Y-82499200D02*
G75*
G03X153685240Y-82499200I-83820J0D01*
G01*
X153827706Y-82499200D02*
G75*
G03X153827706Y-82499200I-228826J0D01*
G01*
X146429171Y-43535600D02*
G75*
G03X146429171Y-43535600I-18491J0D01*
G01*
X146489420Y-43500040D02*
G75*
G03X146489420Y-43500040I-83820J0D01*
G01*
X146631886Y-43500040D02*
G75*
G03X146631886Y-43500040I-228826J0D01*
G01*
X147226731Y-43538140D02*
G75*
G03X147226731Y-43538140I-18491J0D01*
G01*
X147286980Y-43502580D02*
G75*
G03X147286980Y-43502580I-83820J0D01*
G01*
X147429446Y-43502580D02*
G75*
G03X147429446Y-43502580I-228826J0D01*
G01*
X148026831Y-43535600D02*
G75*
G03X148026831Y-43535600I-18491J0D01*
G01*
X148087080Y-43500040D02*
G75*
G03X148087080Y-43500040I-83820J0D01*
G01*
X148229546Y-43500040D02*
G75*
G03X148229546Y-43500040I-228826J0D01*
G01*
X148824391Y-43535600D02*
G75*
G03X148824391Y-43535600I-18491J0D01*
G01*
X148884640Y-43500040D02*
G75*
G03X148884640Y-43500040I-83820J0D01*
G01*
X149027106Y-43500040D02*
G75*
G03X149027106Y-43500040I-228826J0D01*
G01*
X149627031Y-43538140D02*
G75*
G03X149627031Y-43538140I-18491J0D01*
G01*
X149687280Y-43502580D02*
G75*
G03X149687280Y-43502580I-83820J0D01*
G01*
X149829746Y-43502580D02*
G75*
G03X149829746Y-43502580I-228826J0D01*
G01*
X150424591Y-43538140D02*
G75*
G03X150424591Y-43538140I-18491J0D01*
G01*
X150484840Y-43502580D02*
G75*
G03X150484840Y-43502580I-83820J0D01*
G01*
X150627306Y-43502580D02*
G75*
G03X150627306Y-43502580I-228826J0D01*
G01*
X151224691Y-43535600D02*
G75*
G03X151224691Y-43535600I-18491J0D01*
G01*
X151284940Y-43500040D02*
G75*
G03X151284940Y-43500040I-83820J0D01*
G01*
X151427406Y-43500040D02*
G75*
G03X151427406Y-43500040I-228826J0D01*
G01*
X152024791Y-43538140D02*
G75*
G03X152024791Y-43538140I-18491J0D01*
G01*
X152085040Y-43502580D02*
G75*
G03X152085040Y-43502580I-83820J0D01*
G01*
X152227506Y-43502580D02*
G75*
G03X152227506Y-43502580I-228826J0D01*
G01*
X152824891Y-43538140D02*
G75*
G03X152824891Y-43538140I-18491J0D01*
G01*
X152885140Y-43502580D02*
G75*
G03X152885140Y-43502580I-83820J0D01*
G01*
X153027606Y-43502580D02*
G75*
G03X153027606Y-43502580I-228826J0D01*
G01*
X153627531Y-43535600D02*
G75*
G03X153627531Y-43535600I-18491J0D01*
G01*
X153687780Y-43500040D02*
G75*
G03X153687780Y-43500040I-83820J0D01*
G01*
X153830246Y-43500040D02*
G75*
G03X153830246Y-43500040I-228826J0D01*
G01*
D11*
X154250000Y-47850000D03*
X145750000Y-47850000D03*
D12*
X155800000Y-47300000D03*
X155800000Y-45050000D03*
X144200000Y-47300000D03*
X144200000Y-45050000D03*
X153825000Y-46175000D03*
X146175000Y-46175000D03*
D11*
X145750000Y-78150000D03*
X154250000Y-78150000D03*
D12*
X144200000Y-78700000D03*
X144200000Y-80950000D03*
X155800000Y-78700000D03*
X155800000Y-80950000D03*
X146175000Y-79825000D03*
X153825000Y-79825000D03*
D13*
X155143500Y-70615000D03*
X154000500Y-70615000D03*
X152857500Y-70615000D03*
X151714500Y-70615000D03*
X150571500Y-70615000D03*
X149428500Y-70615000D03*
X148285500Y-70615000D03*
X147142500Y-70615000D03*
X145999500Y-70615000D03*
X144856500Y-70615000D03*
X144856500Y-55385000D03*
X145999500Y-55385000D03*
X147142500Y-55385000D03*
X148285500Y-55385000D03*
X149428500Y-55385000D03*
X150571500Y-55385000D03*
X151714500Y-55385000D03*
X152857500Y-55385000D03*
X154000500Y-55385000D03*
X155143500Y-55385000D03*
M02*
