G04 #@! TF.GenerationSoftware,KiCad,Pcbnew,(5.1.2)-1*
G04 #@! TF.CreationDate,2019-05-02T18:24:12-06:00*
G04 #@! TF.ProjectId,Igloo09,49676c6f-6f30-4392-9e6b-696361645f70,rev?*
G04 #@! TF.SameCoordinates,Original*
G04 #@! TF.FileFunction,Copper,L2,Bot*
G04 #@! TF.FilePolarity,Positive*
%FSLAX46Y46*%
G04 Gerber Fmt 4.6, Leading zero omitted, Abs format (unit mm)*
G04 Created by KiCad (PCBNEW (5.1.2)-1) date 2019-05-02 18:24:12*
%MOMM*%
%LPD*%
G04 APERTURE LIST*
%ADD10C,1.900000*%
%ADD11C,1.000000*%
%ADD12R,0.300000X0.850000*%
%ADD13C,0.604000*%
%ADD14C,1.016000*%
%ADD15C,0.711000*%
%ADD16C,3.280000*%
%ADD17C,0.152400*%
%ADD18C,0.254000*%
G04 APERTURE END LIST*
D10*
X154250000Y-47850000D03*
X145750000Y-47850000D03*
D11*
X155800000Y-47300000D03*
X155800000Y-45050000D03*
X144200000Y-47300000D03*
X144200000Y-45050000D03*
X153825000Y-46175000D03*
X146175000Y-46175000D03*
D12*
X147750000Y-45600000D03*
X147750000Y-48475000D03*
X148250000Y-45600000D03*
X148250000Y-48475000D03*
X148750000Y-45600000D03*
X148750000Y-48475000D03*
X149250000Y-45600000D03*
X149250000Y-48475000D03*
X149750000Y-45600000D03*
X149750000Y-48475000D03*
X150250000Y-45600000D03*
X150250000Y-48475000D03*
X150750000Y-45600000D03*
X150750000Y-48475000D03*
X151250000Y-45600000D03*
X151250000Y-48475000D03*
X151750000Y-45600000D03*
X151750000Y-48475000D03*
X152250000Y-45600000D03*
X152250000Y-48475000D03*
D10*
X145750000Y-78150000D03*
X154250000Y-78150000D03*
D11*
X144200000Y-78700000D03*
X144200000Y-80950000D03*
X155800000Y-78700000D03*
X155800000Y-80950000D03*
X146175000Y-79825000D03*
X153825000Y-79825000D03*
D12*
X152250000Y-80400000D03*
X152250000Y-77525000D03*
X151750000Y-80400000D03*
X151750000Y-77525000D03*
X151250000Y-80400000D03*
X151250000Y-77525000D03*
X150750000Y-80400000D03*
X150750000Y-77525000D03*
X150250000Y-80400000D03*
X150250000Y-77525000D03*
X149750000Y-80400000D03*
X149750000Y-77525000D03*
X149250000Y-80400000D03*
X149250000Y-77525000D03*
X148750000Y-80400000D03*
X148750000Y-77525000D03*
X148250000Y-80400000D03*
X148250000Y-77525000D03*
X147750000Y-80400000D03*
X147750000Y-77525000D03*
D13*
X153600000Y-43500000D03*
X152800000Y-43500000D03*
X152000000Y-43500000D03*
X151200000Y-43500000D03*
X150400000Y-43500000D03*
X149600000Y-43500000D03*
X148800000Y-43500000D03*
X148000000Y-43500000D03*
X147200000Y-43500000D03*
X146400000Y-43500000D03*
D14*
X165240000Y-51380000D03*
X165240000Y-59380000D03*
X165240000Y-66620000D03*
X165240000Y-74620000D03*
X134760000Y-51380000D03*
X134760000Y-66620000D03*
X134760000Y-74620000D03*
X141285000Y-63000000D03*
X141285000Y-58000000D03*
X141285000Y-67920000D03*
X158715000Y-58000000D03*
X158715000Y-63000000D03*
X158715000Y-68000000D03*
D15*
X156715000Y-59000000D03*
X156715000Y-63010000D03*
X156715000Y-67000000D03*
X157715000Y-56000000D03*
X157715000Y-70000000D03*
X157715000Y-53000000D03*
X157715000Y-73000000D03*
X162000000Y-60000000D03*
X162000000Y-66000000D03*
X165240000Y-63000000D03*
X162740000Y-55360000D03*
X167740000Y-55400000D03*
X162740000Y-70660000D03*
X167740000Y-70620000D03*
X137260000Y-55380000D03*
X134760000Y-63000000D03*
X137260000Y-70620000D03*
X143285000Y-59000000D03*
X143285000Y-63090000D03*
X143285000Y-67000000D03*
X142285000Y-70000000D03*
X142285000Y-73000000D03*
X142285000Y-56000000D03*
X142285000Y-53000000D03*
X132260000Y-70620000D03*
X132260000Y-55380000D03*
X138000000Y-60000000D03*
X138000000Y-66000000D03*
X144250000Y-69250000D03*
X145400000Y-69250000D03*
X146550000Y-69250000D03*
X147700000Y-69250000D03*
X148850000Y-69250000D03*
X150000000Y-69250000D03*
X151150000Y-69240400D03*
X152300000Y-69250000D03*
X153450000Y-69240400D03*
X154600000Y-69240400D03*
X155750000Y-69240400D03*
X144253400Y-56750000D03*
X145403400Y-56750000D03*
X146553400Y-56750000D03*
X148853400Y-56750000D03*
X154603400Y-56750000D03*
X153453400Y-56750000D03*
X150003400Y-56750000D03*
X147703400Y-56750000D03*
X151153400Y-56750000D03*
X152303400Y-56750000D03*
X155753400Y-56750000D03*
D16*
X165240000Y-55380000D03*
X165240000Y-70620000D03*
X134760000Y-55380000D03*
X134760000Y-70620000D03*
D14*
X134760000Y-59380000D03*
D13*
X153600000Y-82500000D03*
X152800000Y-82500000D03*
X152000000Y-82500000D03*
X151200000Y-82500000D03*
X150400000Y-82500000D03*
X149600000Y-82500000D03*
X148800000Y-82500000D03*
X148000000Y-82500000D03*
X147200000Y-82500000D03*
X146400000Y-82500000D03*
D17*
X152250000Y-45019364D02*
X152250000Y-45600000D01*
X153600000Y-43669364D02*
X152250000Y-45019364D01*
X153600000Y-43500000D02*
X153600000Y-43669364D01*
X152800000Y-43927092D02*
X152800000Y-43500000D01*
X152800000Y-43970982D02*
X152800000Y-43927092D01*
X151750000Y-45020982D02*
X152800000Y-43970982D01*
X151750000Y-45600000D02*
X151750000Y-45020982D01*
X152000000Y-43927092D02*
X152000000Y-43500000D01*
X152000000Y-44272600D02*
X152000000Y-43927092D01*
X151250000Y-45022600D02*
X152000000Y-44272600D01*
X151250000Y-45600000D02*
X151250000Y-45022600D01*
X151200000Y-43927092D02*
X151200000Y-43500000D01*
X151200000Y-44572600D02*
X151200000Y-43927092D01*
X150750000Y-45022600D02*
X151200000Y-44572600D01*
X150750000Y-45600000D02*
X150750000Y-45022600D01*
X150250000Y-43650000D02*
X150400000Y-43500000D01*
X150250000Y-45600000D02*
X150250000Y-43650000D01*
X149750000Y-43650000D02*
X149600000Y-43500000D01*
X149750000Y-45600000D02*
X149750000Y-43650000D01*
X148800000Y-43927092D02*
X148800000Y-43500000D01*
X148800000Y-44572600D02*
X148800000Y-43927092D01*
X149250000Y-45022600D02*
X148800000Y-44572600D01*
X149250000Y-45600000D02*
X149250000Y-45022600D01*
X148000000Y-43927092D02*
X148000000Y-43500000D01*
X148000000Y-44272600D02*
X148000000Y-43927092D01*
X148750000Y-45022600D02*
X148000000Y-44272600D01*
X148750000Y-45600000D02*
X148750000Y-45022600D01*
X147200000Y-43927092D02*
X147200000Y-43500000D01*
X147200000Y-43972600D02*
X147200000Y-43927092D01*
X148250000Y-45022600D02*
X147200000Y-43972600D01*
X148250000Y-45600000D02*
X148250000Y-45022600D01*
X146400000Y-43672600D02*
X146400000Y-43500000D01*
X147750000Y-45022600D02*
X146400000Y-43672600D01*
X147750000Y-45600000D02*
X147750000Y-45022600D01*
X153600000Y-82327400D02*
X153600000Y-82500000D01*
X152250000Y-80977400D02*
X153600000Y-82327400D01*
X152250000Y-80400000D02*
X152250000Y-80977400D01*
X152800000Y-82072908D02*
X152800000Y-82500000D01*
X152800000Y-82027400D02*
X152800000Y-82072908D01*
X151750000Y-80977400D02*
X152800000Y-82027400D01*
X151750000Y-80400000D02*
X151750000Y-80977400D01*
X152000000Y-82072908D02*
X152000000Y-82500000D01*
X152000000Y-81727400D02*
X152000000Y-82072908D01*
X151250000Y-80977400D02*
X152000000Y-81727400D01*
X151250000Y-80400000D02*
X151250000Y-80977400D01*
X151200000Y-82072908D02*
X151200000Y-82500000D01*
X151200000Y-81427400D02*
X151200000Y-82072908D01*
X150750000Y-80977400D02*
X151200000Y-81427400D01*
X150750000Y-80400000D02*
X150750000Y-80977400D01*
X150250000Y-82350000D02*
X150400000Y-82500000D01*
X150250000Y-80400000D02*
X150250000Y-82350000D01*
X149750000Y-82350000D02*
X149600000Y-82500000D01*
X149750000Y-80400000D02*
X149750000Y-82350000D01*
X148800000Y-82072908D02*
X148800000Y-82500000D01*
X148800000Y-81427400D02*
X148800000Y-82072908D01*
X149250000Y-80977400D02*
X148800000Y-81427400D01*
X149250000Y-80400000D02*
X149250000Y-80977400D01*
X148000000Y-82072908D02*
X148000000Y-82500000D01*
X148000000Y-81729018D02*
X148000000Y-82072908D01*
X148750000Y-80979018D02*
X148000000Y-81729018D01*
X148750000Y-80400000D02*
X148750000Y-80979018D01*
X147200000Y-82072908D02*
X147200000Y-82500000D01*
X147200000Y-82027400D02*
X147200000Y-82072908D01*
X148250000Y-80977400D02*
X147200000Y-82027400D01*
X148250000Y-80400000D02*
X148250000Y-80977400D01*
X146400000Y-82327000D02*
X146400000Y-82500000D01*
X146701599Y-82025401D02*
X146400000Y-82327000D01*
X146701999Y-82025401D02*
X146701599Y-82025401D01*
X147750000Y-80400000D02*
X147750000Y-80977400D01*
X147750000Y-80977400D02*
X146701999Y-82025401D01*
D18*
G36*
X145671000Y-43571800D02*
G01*
X145699015Y-43712641D01*
X145753969Y-43845311D01*
X145833749Y-43964710D01*
X145935290Y-44066251D01*
X146054689Y-44146031D01*
X146187359Y-44200985D01*
X146224052Y-44208284D01*
X147172712Y-45156944D01*
X147170934Y-45175000D01*
X147170934Y-45619681D01*
X147166588Y-45611550D01*
X146953166Y-45576439D01*
X146354605Y-46175000D01*
X146368748Y-46189143D01*
X146222713Y-46335177D01*
X146093834Y-46301724D01*
X145981253Y-46189143D01*
X145995395Y-46175000D01*
X145396834Y-45576439D01*
X145193146Y-45609949D01*
X145282458Y-45409174D01*
X145285246Y-45396834D01*
X145576439Y-45396834D01*
X146175000Y-45995395D01*
X146773561Y-45396834D01*
X146738450Y-45183412D01*
X146534174Y-45092542D01*
X146316095Y-45043269D01*
X146092594Y-45037489D01*
X145872260Y-45075423D01*
X145663560Y-45155613D01*
X145611550Y-45183412D01*
X145576439Y-45396834D01*
X145285246Y-45396834D01*
X145331731Y-45191095D01*
X145337511Y-44967594D01*
X145299577Y-44747260D01*
X145219387Y-44538560D01*
X145191588Y-44486550D01*
X144978166Y-44451439D01*
X144379605Y-45050000D01*
X144978166Y-45648561D01*
X145181854Y-45615051D01*
X145092542Y-45815826D01*
X145043269Y-46033905D01*
X145037489Y-46257406D01*
X145064374Y-46413564D01*
X144973935Y-46461905D01*
X144916211Y-46404181D01*
X144798561Y-46521831D01*
X144763450Y-46308412D01*
X144559174Y-46217542D01*
X144364048Y-46173455D01*
X144502740Y-46149577D01*
X144711440Y-46069387D01*
X144763450Y-46041588D01*
X144798561Y-45828166D01*
X144200000Y-45229605D01*
X143601439Y-45828166D01*
X143636550Y-46041588D01*
X143840826Y-46132458D01*
X144035952Y-46176545D01*
X143897260Y-46200423D01*
X143688560Y-46280613D01*
X143636550Y-46308412D01*
X143601439Y-46521834D01*
X144200000Y-47120395D01*
X144214143Y-47106253D01*
X144305088Y-47197198D01*
X144255065Y-47300671D01*
X144206842Y-47486447D01*
X144200000Y-47479605D01*
X143601439Y-48078166D01*
X143636550Y-48291588D01*
X143840826Y-48382458D01*
X144058905Y-48431731D01*
X144276180Y-48437350D01*
X144304487Y-48518644D01*
X144390958Y-48680421D01*
X144650248Y-48770147D01*
X145570395Y-47850000D01*
X145300356Y-47579961D01*
X145331731Y-47441095D01*
X145336495Y-47256890D01*
X145750000Y-47670395D01*
X146111653Y-47308742D01*
X146257406Y-47312511D01*
X146477740Y-47274577D01*
X146522056Y-47257549D01*
X145929605Y-47850000D01*
X146849752Y-48770147D01*
X147109042Y-48680421D01*
X147244935Y-48399329D01*
X147323379Y-48097127D01*
X147341359Y-47785427D01*
X147298184Y-47476209D01*
X147195513Y-47181356D01*
X147109042Y-47019579D01*
X146985279Y-46976751D01*
X147070819Y-46891211D01*
X146953169Y-46773561D01*
X147166588Y-46738450D01*
X147257458Y-46534174D01*
X147302803Y-46333481D01*
X147361624Y-46381755D01*
X147435804Y-46421405D01*
X147516293Y-46445822D01*
X147600000Y-46454066D01*
X147900000Y-46454066D01*
X147983707Y-46445822D01*
X148000000Y-46440879D01*
X148016293Y-46445822D01*
X148100000Y-46454066D01*
X148400000Y-46454066D01*
X148483707Y-46445822D01*
X148500000Y-46440879D01*
X148516293Y-46445822D01*
X148600000Y-46454066D01*
X148900000Y-46454066D01*
X148983707Y-46445822D01*
X149000000Y-46440879D01*
X149016293Y-46445822D01*
X149100000Y-46454066D01*
X149400000Y-46454066D01*
X149483707Y-46445822D01*
X149500000Y-46440879D01*
X149516293Y-46445822D01*
X149600000Y-46454066D01*
X149900000Y-46454066D01*
X149983707Y-46445822D01*
X150000000Y-46440879D01*
X150016293Y-46445822D01*
X150100000Y-46454066D01*
X150400000Y-46454066D01*
X150483707Y-46445822D01*
X150500000Y-46440879D01*
X150516293Y-46445822D01*
X150600000Y-46454066D01*
X150900000Y-46454066D01*
X150983707Y-46445822D01*
X151000000Y-46440879D01*
X151016293Y-46445822D01*
X151100000Y-46454066D01*
X151400000Y-46454066D01*
X151483707Y-46445822D01*
X151500000Y-46440879D01*
X151516293Y-46445822D01*
X151600000Y-46454066D01*
X151900000Y-46454066D01*
X151983707Y-46445822D01*
X152000000Y-46440879D01*
X152016293Y-46445822D01*
X152100000Y-46454066D01*
X152400000Y-46454066D01*
X152483707Y-46445822D01*
X152564196Y-46421405D01*
X152638376Y-46381755D01*
X152700167Y-46331044D01*
X152725423Y-46477740D01*
X152805613Y-46686440D01*
X152833412Y-46738450D01*
X153046831Y-46773561D01*
X152929181Y-46891211D01*
X153014721Y-46976751D01*
X152890958Y-47019579D01*
X152755065Y-47300671D01*
X152676621Y-47602873D01*
X152658641Y-47914573D01*
X152701816Y-48223791D01*
X152804487Y-48518644D01*
X152890958Y-48680421D01*
X153150248Y-48770147D01*
X154070395Y-47850000D01*
X153481364Y-47260969D01*
X153683905Y-47306731D01*
X153891710Y-47312105D01*
X154250000Y-47670395D01*
X154665794Y-47254601D01*
X154662489Y-47382406D01*
X154696963Y-47582642D01*
X154429605Y-47850000D01*
X155349752Y-48770147D01*
X155609042Y-48680421D01*
X155728401Y-48433528D01*
X155882406Y-48437511D01*
X156102740Y-48399577D01*
X156311440Y-48319387D01*
X156363450Y-48291588D01*
X156398561Y-48078166D01*
X155800000Y-47479605D01*
X155798823Y-47480782D01*
X155798184Y-47476209D01*
X155736826Y-47300000D01*
X155979605Y-47300000D01*
X156578166Y-47898561D01*
X156791588Y-47863450D01*
X156882458Y-47659174D01*
X156931731Y-47441095D01*
X156937511Y-47217594D01*
X156899577Y-46997260D01*
X156819387Y-46788560D01*
X156791588Y-46736550D01*
X156578166Y-46701439D01*
X155979605Y-47300000D01*
X155736826Y-47300000D01*
X155699449Y-47192661D01*
X155785858Y-47106253D01*
X155800000Y-47120395D01*
X156398561Y-46521834D01*
X156363450Y-46308412D01*
X156159174Y-46217542D01*
X155964048Y-46173455D01*
X156102740Y-46149577D01*
X156311440Y-46069387D01*
X156363450Y-46041588D01*
X156398561Y-45828166D01*
X155800000Y-45229605D01*
X155201439Y-45828166D01*
X155236550Y-46041588D01*
X155440826Y-46132458D01*
X155635952Y-46176545D01*
X155497260Y-46200423D01*
X155288560Y-46280613D01*
X155236550Y-46308412D01*
X155201439Y-46521831D01*
X155083789Y-46404181D01*
X155024194Y-46463776D01*
X154933293Y-46419830D01*
X154956731Y-46316095D01*
X154962511Y-46092594D01*
X154924577Y-45872260D01*
X154844387Y-45663560D01*
X154818490Y-45615108D01*
X155021834Y-45648561D01*
X155620395Y-45050000D01*
X155979605Y-45050000D01*
X156578166Y-45648561D01*
X156791588Y-45613450D01*
X156882458Y-45409174D01*
X156931731Y-45191095D01*
X156937511Y-44967594D01*
X156899577Y-44747260D01*
X156819387Y-44538560D01*
X156791588Y-44486550D01*
X156578166Y-44451439D01*
X155979605Y-45050000D01*
X155620395Y-45050000D01*
X155021834Y-44451439D01*
X154808412Y-44486550D01*
X154717542Y-44690826D01*
X154668269Y-44908905D01*
X154662489Y-45132406D01*
X154700423Y-45352740D01*
X154780613Y-45561440D01*
X154806510Y-45609892D01*
X154603166Y-45576439D01*
X154004605Y-46175000D01*
X154018748Y-46189143D01*
X153910921Y-46296969D01*
X153876209Y-46301816D01*
X153778092Y-46335982D01*
X153631253Y-46189143D01*
X153645395Y-46175000D01*
X153046834Y-45576439D01*
X152833412Y-45611550D01*
X152829066Y-45621320D01*
X152829066Y-45396834D01*
X153226439Y-45396834D01*
X153825000Y-45995395D01*
X154423561Y-45396834D01*
X154388450Y-45183412D01*
X154184174Y-45092542D01*
X153966095Y-45043269D01*
X153742594Y-45037489D01*
X153522260Y-45075423D01*
X153313560Y-45155613D01*
X153261550Y-45183412D01*
X153226439Y-45396834D01*
X152829066Y-45396834D01*
X152829066Y-45175000D01*
X152826998Y-45153998D01*
X153709162Y-44271834D01*
X155201439Y-44271834D01*
X155800000Y-44870395D01*
X156398561Y-44271834D01*
X156363450Y-44058412D01*
X156159174Y-43967542D01*
X155941095Y-43918269D01*
X155717594Y-43912489D01*
X155497260Y-43950423D01*
X155288560Y-44030613D01*
X155236550Y-44058412D01*
X155201439Y-44271834D01*
X153709162Y-44271834D01*
X153771909Y-44209087D01*
X153812641Y-44200985D01*
X153945311Y-44146031D01*
X154064710Y-44066251D01*
X154166251Y-43964710D01*
X154246031Y-43845311D01*
X154300985Y-43712641D01*
X154329000Y-43571800D01*
X154329000Y-43452000D01*
X169548000Y-43452000D01*
X169548001Y-82548000D01*
X154329000Y-82548000D01*
X154329000Y-82428200D01*
X154300985Y-82287359D01*
X154246031Y-82154689D01*
X154166251Y-82035290D01*
X154064710Y-81933749D01*
X153945311Y-81853969D01*
X153812641Y-81799015D01*
X153775948Y-81791716D01*
X153712398Y-81728166D01*
X155201439Y-81728166D01*
X155236550Y-81941588D01*
X155440826Y-82032458D01*
X155658905Y-82081731D01*
X155882406Y-82087511D01*
X156102740Y-82049577D01*
X156311440Y-81969387D01*
X156363450Y-81941588D01*
X156398561Y-81728166D01*
X155800000Y-81129605D01*
X155201439Y-81728166D01*
X153712398Y-81728166D01*
X152827288Y-80843056D01*
X152829066Y-80825000D01*
X152829066Y-80603166D01*
X153226439Y-80603166D01*
X153261550Y-80816588D01*
X153465826Y-80907458D01*
X153683905Y-80956731D01*
X153907406Y-80962511D01*
X154127740Y-80924577D01*
X154336440Y-80844387D01*
X154388450Y-80816588D01*
X154423561Y-80603166D01*
X153825000Y-80004605D01*
X153226439Y-80603166D01*
X152829066Y-80603166D01*
X152829066Y-80380319D01*
X152833412Y-80388450D01*
X153046834Y-80423561D01*
X153645395Y-79825000D01*
X153631253Y-79810858D01*
X153777287Y-79664823D01*
X153906166Y-79698276D01*
X154018748Y-79810858D01*
X154004605Y-79825000D01*
X154603166Y-80423561D01*
X154806854Y-80390051D01*
X154717542Y-80590826D01*
X154668269Y-80808905D01*
X154662489Y-81032406D01*
X154700423Y-81252740D01*
X154780613Y-81461440D01*
X154808412Y-81513450D01*
X155021834Y-81548561D01*
X155620395Y-80950000D01*
X155979605Y-80950000D01*
X156578166Y-81548561D01*
X156791588Y-81513450D01*
X156882458Y-81309174D01*
X156931731Y-81091095D01*
X156937511Y-80867594D01*
X156899577Y-80647260D01*
X156819387Y-80438560D01*
X156791588Y-80386550D01*
X156578166Y-80351439D01*
X155979605Y-80950000D01*
X155620395Y-80950000D01*
X155021834Y-80351439D01*
X154818146Y-80384949D01*
X154907458Y-80184174D01*
X154956731Y-79966095D01*
X154962511Y-79742594D01*
X154935626Y-79586436D01*
X155026065Y-79538095D01*
X155083789Y-79595819D01*
X155201439Y-79478169D01*
X155236550Y-79691588D01*
X155440826Y-79782458D01*
X155635952Y-79826545D01*
X155497260Y-79850423D01*
X155288560Y-79930613D01*
X155236550Y-79958412D01*
X155201439Y-80171834D01*
X155800000Y-80770395D01*
X156398561Y-80171834D01*
X156363450Y-79958412D01*
X156159174Y-79867542D01*
X155964048Y-79823455D01*
X156102740Y-79799577D01*
X156311440Y-79719387D01*
X156363450Y-79691588D01*
X156398561Y-79478166D01*
X155800000Y-78879605D01*
X155785858Y-78893748D01*
X155694912Y-78802802D01*
X155744610Y-78700000D01*
X155979605Y-78700000D01*
X156578166Y-79298561D01*
X156791588Y-79263450D01*
X156882458Y-79059174D01*
X156931731Y-78841095D01*
X156937511Y-78617594D01*
X156899577Y-78397260D01*
X156819387Y-78188560D01*
X156791588Y-78136550D01*
X156578166Y-78101439D01*
X155979605Y-78700000D01*
X155744610Y-78700000D01*
X155744935Y-78699329D01*
X155793158Y-78513553D01*
X155800000Y-78520395D01*
X156398561Y-77921834D01*
X156363450Y-77708412D01*
X156159174Y-77617542D01*
X155941095Y-77568269D01*
X155723820Y-77562650D01*
X155695513Y-77481356D01*
X155609042Y-77319579D01*
X155349752Y-77229853D01*
X154429605Y-78150000D01*
X154699644Y-78420039D01*
X154668269Y-78558905D01*
X154663505Y-78743110D01*
X154250000Y-78329605D01*
X153888347Y-78691258D01*
X153742594Y-78687489D01*
X153522260Y-78725423D01*
X153477944Y-78742451D01*
X154070395Y-78150000D01*
X153150248Y-77229853D01*
X152890958Y-77319579D01*
X152755065Y-77600671D01*
X152676621Y-77902873D01*
X152658641Y-78214573D01*
X152701816Y-78523791D01*
X152804487Y-78818644D01*
X152890958Y-78980421D01*
X153014721Y-79023249D01*
X152929181Y-79108789D01*
X153046831Y-79226439D01*
X152833412Y-79261550D01*
X152742542Y-79465826D01*
X152697197Y-79666519D01*
X152638376Y-79618245D01*
X152564196Y-79578595D01*
X152483707Y-79554178D01*
X152400000Y-79545934D01*
X152100000Y-79545934D01*
X152016293Y-79554178D01*
X152000000Y-79559121D01*
X151983707Y-79554178D01*
X151900000Y-79545934D01*
X151600000Y-79545934D01*
X151516293Y-79554178D01*
X151500000Y-79559121D01*
X151483707Y-79554178D01*
X151400000Y-79545934D01*
X151100000Y-79545934D01*
X151016293Y-79554178D01*
X151000000Y-79559121D01*
X150983707Y-79554178D01*
X150900000Y-79545934D01*
X150600000Y-79545934D01*
X150516293Y-79554178D01*
X150500000Y-79559121D01*
X150483707Y-79554178D01*
X150400000Y-79545934D01*
X150100000Y-79545934D01*
X150016293Y-79554178D01*
X150000000Y-79559121D01*
X149983707Y-79554178D01*
X149900000Y-79545934D01*
X149600000Y-79545934D01*
X149516293Y-79554178D01*
X149500000Y-79559121D01*
X149483707Y-79554178D01*
X149400000Y-79545934D01*
X149100000Y-79545934D01*
X149016293Y-79554178D01*
X149000000Y-79559121D01*
X148983707Y-79554178D01*
X148900000Y-79545934D01*
X148600000Y-79545934D01*
X148516293Y-79554178D01*
X148500000Y-79559121D01*
X148483707Y-79554178D01*
X148400000Y-79545934D01*
X148100000Y-79545934D01*
X148016293Y-79554178D01*
X148000000Y-79559121D01*
X147983707Y-79554178D01*
X147900000Y-79545934D01*
X147600000Y-79545934D01*
X147516293Y-79554178D01*
X147435804Y-79578595D01*
X147361624Y-79618245D01*
X147299833Y-79668956D01*
X147274577Y-79522260D01*
X147194387Y-79313560D01*
X147166588Y-79261550D01*
X146953169Y-79226439D01*
X147070819Y-79108789D01*
X146985279Y-79023249D01*
X147109042Y-78980421D01*
X147244935Y-78699329D01*
X147323379Y-78397127D01*
X147341359Y-78085427D01*
X147298184Y-77776209D01*
X147195513Y-77481356D01*
X147109042Y-77319579D01*
X146849752Y-77229853D01*
X145929605Y-78150000D01*
X146518636Y-78739031D01*
X146316095Y-78693269D01*
X146108290Y-78687895D01*
X145750000Y-78329605D01*
X145334206Y-78745399D01*
X145337511Y-78617594D01*
X145303037Y-78417358D01*
X145570395Y-78150000D01*
X144650248Y-77229853D01*
X144390958Y-77319579D01*
X144271599Y-77566472D01*
X144117594Y-77562489D01*
X143897260Y-77600423D01*
X143688560Y-77680613D01*
X143636550Y-77708412D01*
X143601439Y-77921834D01*
X144200000Y-78520395D01*
X144201177Y-78519218D01*
X144201816Y-78523791D01*
X144300551Y-78807339D01*
X144214143Y-78893748D01*
X144200000Y-78879605D01*
X143601439Y-79478166D01*
X143636550Y-79691588D01*
X143840826Y-79782458D01*
X144035952Y-79826545D01*
X143897260Y-79850423D01*
X143688560Y-79930613D01*
X143636550Y-79958412D01*
X143601439Y-80171834D01*
X144200000Y-80770395D01*
X144798561Y-80171834D01*
X144763450Y-79958412D01*
X144559174Y-79867542D01*
X144364048Y-79823455D01*
X144502740Y-79799577D01*
X144711440Y-79719387D01*
X144763450Y-79691588D01*
X144798561Y-79478169D01*
X144916211Y-79595819D01*
X144975806Y-79536224D01*
X145066707Y-79580170D01*
X145043269Y-79683905D01*
X145037489Y-79907406D01*
X145075423Y-80127740D01*
X145155613Y-80336440D01*
X145181510Y-80384892D01*
X144978166Y-80351439D01*
X144379605Y-80950000D01*
X144978166Y-81548561D01*
X145191588Y-81513450D01*
X145282458Y-81309174D01*
X145331731Y-81091095D01*
X145337511Y-80867594D01*
X145299577Y-80647260D01*
X145282635Y-80603166D01*
X145576439Y-80603166D01*
X145611550Y-80816588D01*
X145815826Y-80907458D01*
X146033905Y-80956731D01*
X146257406Y-80962511D01*
X146477740Y-80924577D01*
X146686440Y-80844387D01*
X146738450Y-80816588D01*
X146773561Y-80603166D01*
X146175000Y-80004605D01*
X145576439Y-80603166D01*
X145282635Y-80603166D01*
X145219387Y-80438560D01*
X145193490Y-80390108D01*
X145396834Y-80423561D01*
X145995395Y-79825000D01*
X145981253Y-79810858D01*
X146089079Y-79703031D01*
X146123791Y-79698184D01*
X146221908Y-79664018D01*
X146368748Y-79810858D01*
X146354605Y-79825000D01*
X146953166Y-80423561D01*
X147166588Y-80388450D01*
X147170934Y-80378680D01*
X147170934Y-80825000D01*
X147172712Y-80843056D01*
X146365487Y-81650281D01*
X146344062Y-81667864D01*
X146328305Y-81687064D01*
X146223553Y-81791816D01*
X146187359Y-81799015D01*
X146054689Y-81853969D01*
X145935290Y-81933749D01*
X145833749Y-82035290D01*
X145753969Y-82154689D01*
X145699015Y-82287359D01*
X145671000Y-82428200D01*
X145671000Y-82548000D01*
X130452000Y-82548000D01*
X130452000Y-81728166D01*
X143601439Y-81728166D01*
X143636550Y-81941588D01*
X143840826Y-82032458D01*
X144058905Y-82081731D01*
X144282406Y-82087511D01*
X144502740Y-82049577D01*
X144711440Y-81969387D01*
X144763450Y-81941588D01*
X144798561Y-81728166D01*
X144200000Y-81129605D01*
X143601439Y-81728166D01*
X130452000Y-81728166D01*
X130452000Y-81032406D01*
X143062489Y-81032406D01*
X143100423Y-81252740D01*
X143180613Y-81461440D01*
X143208412Y-81513450D01*
X143421834Y-81548561D01*
X144020395Y-80950000D01*
X143421834Y-80351439D01*
X143208412Y-80386550D01*
X143117542Y-80590826D01*
X143068269Y-80808905D01*
X143062489Y-81032406D01*
X130452000Y-81032406D01*
X130452000Y-78782406D01*
X143062489Y-78782406D01*
X143100423Y-79002740D01*
X143180613Y-79211440D01*
X143208412Y-79263450D01*
X143421834Y-79298561D01*
X144020395Y-78700000D01*
X143421834Y-78101439D01*
X143208412Y-78136550D01*
X143117542Y-78340826D01*
X143068269Y-78558905D01*
X143062489Y-78782406D01*
X130452000Y-78782406D01*
X130452000Y-77050248D01*
X144829853Y-77050248D01*
X145750000Y-77970395D01*
X146670147Y-77050248D01*
X153329853Y-77050248D01*
X154250000Y-77970395D01*
X155170147Y-77050248D01*
X155080421Y-76790958D01*
X154799329Y-76655065D01*
X154497127Y-76576621D01*
X154185427Y-76558641D01*
X153876209Y-76601816D01*
X153581356Y-76704487D01*
X153419579Y-76790958D01*
X153329853Y-77050248D01*
X146670147Y-77050248D01*
X146580421Y-76790958D01*
X146299329Y-76655065D01*
X145997127Y-76576621D01*
X145685427Y-76558641D01*
X145376209Y-76601816D01*
X145081356Y-76704487D01*
X144919579Y-76790958D01*
X144829853Y-77050248D01*
X130452000Y-77050248D01*
X130452000Y-57285000D01*
X143830813Y-57285000D01*
X143833001Y-57307215D01*
X143833000Y-68692795D01*
X143830813Y-68715000D01*
X143839540Y-68803607D01*
X143865386Y-68888810D01*
X143907357Y-68967333D01*
X143963841Y-69036159D01*
X144032667Y-69092643D01*
X144111190Y-69134614D01*
X144196393Y-69160460D01*
X144285000Y-69169187D01*
X144307205Y-69167000D01*
X155692795Y-69167000D01*
X155715000Y-69169187D01*
X155737205Y-69167000D01*
X155803607Y-69160460D01*
X155888810Y-69134614D01*
X155967333Y-69092643D01*
X156036159Y-69036159D01*
X156092643Y-68967333D01*
X156134614Y-68888810D01*
X156160460Y-68803607D01*
X156169187Y-68715000D01*
X156167000Y-68692795D01*
X156167000Y-57307205D01*
X156169187Y-57285000D01*
X156160460Y-57196393D01*
X156134614Y-57111190D01*
X156092643Y-57032667D01*
X156036159Y-56963841D01*
X155967333Y-56907357D01*
X155888810Y-56865386D01*
X155803607Y-56839540D01*
X155737205Y-56833000D01*
X155715000Y-56830813D01*
X155692795Y-56833000D01*
X144307205Y-56833000D01*
X144285000Y-56830813D01*
X144262795Y-56833000D01*
X144196393Y-56839540D01*
X144111190Y-56865386D01*
X144032667Y-56907357D01*
X143963841Y-56963841D01*
X143907357Y-57032667D01*
X143865386Y-57111190D01*
X143839540Y-57196393D01*
X143830813Y-57285000D01*
X130452000Y-57285000D01*
X130452000Y-48949752D01*
X144829853Y-48949752D01*
X144919579Y-49209042D01*
X145200671Y-49344935D01*
X145502873Y-49423379D01*
X145814573Y-49441359D01*
X146123791Y-49398184D01*
X146418644Y-49295513D01*
X146580421Y-49209042D01*
X146670147Y-48949752D01*
X153329853Y-48949752D01*
X153419579Y-49209042D01*
X153700671Y-49344935D01*
X154002873Y-49423379D01*
X154314573Y-49441359D01*
X154623791Y-49398184D01*
X154918644Y-49295513D01*
X155080421Y-49209042D01*
X155170147Y-48949752D01*
X154250000Y-48029605D01*
X153329853Y-48949752D01*
X146670147Y-48949752D01*
X145750000Y-48029605D01*
X144829853Y-48949752D01*
X130452000Y-48949752D01*
X130452000Y-47382406D01*
X143062489Y-47382406D01*
X143100423Y-47602740D01*
X143180613Y-47811440D01*
X143208412Y-47863450D01*
X143421834Y-47898561D01*
X144020395Y-47300000D01*
X143421834Y-46701439D01*
X143208412Y-46736550D01*
X143117542Y-46940826D01*
X143068269Y-47158905D01*
X143062489Y-47382406D01*
X130452000Y-47382406D01*
X130452000Y-45132406D01*
X143062489Y-45132406D01*
X143100423Y-45352740D01*
X143180613Y-45561440D01*
X143208412Y-45613450D01*
X143421834Y-45648561D01*
X144020395Y-45050000D01*
X143421834Y-44451439D01*
X143208412Y-44486550D01*
X143117542Y-44690826D01*
X143068269Y-44908905D01*
X143062489Y-45132406D01*
X130452000Y-45132406D01*
X130452000Y-44271834D01*
X143601439Y-44271834D01*
X144200000Y-44870395D01*
X144798561Y-44271834D01*
X144763450Y-44058412D01*
X144559174Y-43967542D01*
X144341095Y-43918269D01*
X144117594Y-43912489D01*
X143897260Y-43950423D01*
X143688560Y-44030613D01*
X143636550Y-44058412D01*
X143601439Y-44271834D01*
X130452000Y-44271834D01*
X130452000Y-43452000D01*
X145671000Y-43452000D01*
X145671000Y-43571800D01*
X145671000Y-43571800D01*
G37*
X145671000Y-43571800D02*
X145699015Y-43712641D01*
X145753969Y-43845311D01*
X145833749Y-43964710D01*
X145935290Y-44066251D01*
X146054689Y-44146031D01*
X146187359Y-44200985D01*
X146224052Y-44208284D01*
X147172712Y-45156944D01*
X147170934Y-45175000D01*
X147170934Y-45619681D01*
X147166588Y-45611550D01*
X146953166Y-45576439D01*
X146354605Y-46175000D01*
X146368748Y-46189143D01*
X146222713Y-46335177D01*
X146093834Y-46301724D01*
X145981253Y-46189143D01*
X145995395Y-46175000D01*
X145396834Y-45576439D01*
X145193146Y-45609949D01*
X145282458Y-45409174D01*
X145285246Y-45396834D01*
X145576439Y-45396834D01*
X146175000Y-45995395D01*
X146773561Y-45396834D01*
X146738450Y-45183412D01*
X146534174Y-45092542D01*
X146316095Y-45043269D01*
X146092594Y-45037489D01*
X145872260Y-45075423D01*
X145663560Y-45155613D01*
X145611550Y-45183412D01*
X145576439Y-45396834D01*
X145285246Y-45396834D01*
X145331731Y-45191095D01*
X145337511Y-44967594D01*
X145299577Y-44747260D01*
X145219387Y-44538560D01*
X145191588Y-44486550D01*
X144978166Y-44451439D01*
X144379605Y-45050000D01*
X144978166Y-45648561D01*
X145181854Y-45615051D01*
X145092542Y-45815826D01*
X145043269Y-46033905D01*
X145037489Y-46257406D01*
X145064374Y-46413564D01*
X144973935Y-46461905D01*
X144916211Y-46404181D01*
X144798561Y-46521831D01*
X144763450Y-46308412D01*
X144559174Y-46217542D01*
X144364048Y-46173455D01*
X144502740Y-46149577D01*
X144711440Y-46069387D01*
X144763450Y-46041588D01*
X144798561Y-45828166D01*
X144200000Y-45229605D01*
X143601439Y-45828166D01*
X143636550Y-46041588D01*
X143840826Y-46132458D01*
X144035952Y-46176545D01*
X143897260Y-46200423D01*
X143688560Y-46280613D01*
X143636550Y-46308412D01*
X143601439Y-46521834D01*
X144200000Y-47120395D01*
X144214143Y-47106253D01*
X144305088Y-47197198D01*
X144255065Y-47300671D01*
X144206842Y-47486447D01*
X144200000Y-47479605D01*
X143601439Y-48078166D01*
X143636550Y-48291588D01*
X143840826Y-48382458D01*
X144058905Y-48431731D01*
X144276180Y-48437350D01*
X144304487Y-48518644D01*
X144390958Y-48680421D01*
X144650248Y-48770147D01*
X145570395Y-47850000D01*
X145300356Y-47579961D01*
X145331731Y-47441095D01*
X145336495Y-47256890D01*
X145750000Y-47670395D01*
X146111653Y-47308742D01*
X146257406Y-47312511D01*
X146477740Y-47274577D01*
X146522056Y-47257549D01*
X145929605Y-47850000D01*
X146849752Y-48770147D01*
X147109042Y-48680421D01*
X147244935Y-48399329D01*
X147323379Y-48097127D01*
X147341359Y-47785427D01*
X147298184Y-47476209D01*
X147195513Y-47181356D01*
X147109042Y-47019579D01*
X146985279Y-46976751D01*
X147070819Y-46891211D01*
X146953169Y-46773561D01*
X147166588Y-46738450D01*
X147257458Y-46534174D01*
X147302803Y-46333481D01*
X147361624Y-46381755D01*
X147435804Y-46421405D01*
X147516293Y-46445822D01*
X147600000Y-46454066D01*
X147900000Y-46454066D01*
X147983707Y-46445822D01*
X148000000Y-46440879D01*
X148016293Y-46445822D01*
X148100000Y-46454066D01*
X148400000Y-46454066D01*
X148483707Y-46445822D01*
X148500000Y-46440879D01*
X148516293Y-46445822D01*
X148600000Y-46454066D01*
X148900000Y-46454066D01*
X148983707Y-46445822D01*
X149000000Y-46440879D01*
X149016293Y-46445822D01*
X149100000Y-46454066D01*
X149400000Y-46454066D01*
X149483707Y-46445822D01*
X149500000Y-46440879D01*
X149516293Y-46445822D01*
X149600000Y-46454066D01*
X149900000Y-46454066D01*
X149983707Y-46445822D01*
X150000000Y-46440879D01*
X150016293Y-46445822D01*
X150100000Y-46454066D01*
X150400000Y-46454066D01*
X150483707Y-46445822D01*
X150500000Y-46440879D01*
X150516293Y-46445822D01*
X150600000Y-46454066D01*
X150900000Y-46454066D01*
X150983707Y-46445822D01*
X151000000Y-46440879D01*
X151016293Y-46445822D01*
X151100000Y-46454066D01*
X151400000Y-46454066D01*
X151483707Y-46445822D01*
X151500000Y-46440879D01*
X151516293Y-46445822D01*
X151600000Y-46454066D01*
X151900000Y-46454066D01*
X151983707Y-46445822D01*
X152000000Y-46440879D01*
X152016293Y-46445822D01*
X152100000Y-46454066D01*
X152400000Y-46454066D01*
X152483707Y-46445822D01*
X152564196Y-46421405D01*
X152638376Y-46381755D01*
X152700167Y-46331044D01*
X152725423Y-46477740D01*
X152805613Y-46686440D01*
X152833412Y-46738450D01*
X153046831Y-46773561D01*
X152929181Y-46891211D01*
X153014721Y-46976751D01*
X152890958Y-47019579D01*
X152755065Y-47300671D01*
X152676621Y-47602873D01*
X152658641Y-47914573D01*
X152701816Y-48223791D01*
X152804487Y-48518644D01*
X152890958Y-48680421D01*
X153150248Y-48770147D01*
X154070395Y-47850000D01*
X153481364Y-47260969D01*
X153683905Y-47306731D01*
X153891710Y-47312105D01*
X154250000Y-47670395D01*
X154665794Y-47254601D01*
X154662489Y-47382406D01*
X154696963Y-47582642D01*
X154429605Y-47850000D01*
X155349752Y-48770147D01*
X155609042Y-48680421D01*
X155728401Y-48433528D01*
X155882406Y-48437511D01*
X156102740Y-48399577D01*
X156311440Y-48319387D01*
X156363450Y-48291588D01*
X156398561Y-48078166D01*
X155800000Y-47479605D01*
X155798823Y-47480782D01*
X155798184Y-47476209D01*
X155736826Y-47300000D01*
X155979605Y-47300000D01*
X156578166Y-47898561D01*
X156791588Y-47863450D01*
X156882458Y-47659174D01*
X156931731Y-47441095D01*
X156937511Y-47217594D01*
X156899577Y-46997260D01*
X156819387Y-46788560D01*
X156791588Y-46736550D01*
X156578166Y-46701439D01*
X155979605Y-47300000D01*
X155736826Y-47300000D01*
X155699449Y-47192661D01*
X155785858Y-47106253D01*
X155800000Y-47120395D01*
X156398561Y-46521834D01*
X156363450Y-46308412D01*
X156159174Y-46217542D01*
X155964048Y-46173455D01*
X156102740Y-46149577D01*
X156311440Y-46069387D01*
X156363450Y-46041588D01*
X156398561Y-45828166D01*
X155800000Y-45229605D01*
X155201439Y-45828166D01*
X155236550Y-46041588D01*
X155440826Y-46132458D01*
X155635952Y-46176545D01*
X155497260Y-46200423D01*
X155288560Y-46280613D01*
X155236550Y-46308412D01*
X155201439Y-46521831D01*
X155083789Y-46404181D01*
X155024194Y-46463776D01*
X154933293Y-46419830D01*
X154956731Y-46316095D01*
X154962511Y-46092594D01*
X154924577Y-45872260D01*
X154844387Y-45663560D01*
X154818490Y-45615108D01*
X155021834Y-45648561D01*
X155620395Y-45050000D01*
X155979605Y-45050000D01*
X156578166Y-45648561D01*
X156791588Y-45613450D01*
X156882458Y-45409174D01*
X156931731Y-45191095D01*
X156937511Y-44967594D01*
X156899577Y-44747260D01*
X156819387Y-44538560D01*
X156791588Y-44486550D01*
X156578166Y-44451439D01*
X155979605Y-45050000D01*
X155620395Y-45050000D01*
X155021834Y-44451439D01*
X154808412Y-44486550D01*
X154717542Y-44690826D01*
X154668269Y-44908905D01*
X154662489Y-45132406D01*
X154700423Y-45352740D01*
X154780613Y-45561440D01*
X154806510Y-45609892D01*
X154603166Y-45576439D01*
X154004605Y-46175000D01*
X154018748Y-46189143D01*
X153910921Y-46296969D01*
X153876209Y-46301816D01*
X153778092Y-46335982D01*
X153631253Y-46189143D01*
X153645395Y-46175000D01*
X153046834Y-45576439D01*
X152833412Y-45611550D01*
X152829066Y-45621320D01*
X152829066Y-45396834D01*
X153226439Y-45396834D01*
X153825000Y-45995395D01*
X154423561Y-45396834D01*
X154388450Y-45183412D01*
X154184174Y-45092542D01*
X153966095Y-45043269D01*
X153742594Y-45037489D01*
X153522260Y-45075423D01*
X153313560Y-45155613D01*
X153261550Y-45183412D01*
X153226439Y-45396834D01*
X152829066Y-45396834D01*
X152829066Y-45175000D01*
X152826998Y-45153998D01*
X153709162Y-44271834D01*
X155201439Y-44271834D01*
X155800000Y-44870395D01*
X156398561Y-44271834D01*
X156363450Y-44058412D01*
X156159174Y-43967542D01*
X155941095Y-43918269D01*
X155717594Y-43912489D01*
X155497260Y-43950423D01*
X155288560Y-44030613D01*
X155236550Y-44058412D01*
X155201439Y-44271834D01*
X153709162Y-44271834D01*
X153771909Y-44209087D01*
X153812641Y-44200985D01*
X153945311Y-44146031D01*
X154064710Y-44066251D01*
X154166251Y-43964710D01*
X154246031Y-43845311D01*
X154300985Y-43712641D01*
X154329000Y-43571800D01*
X154329000Y-43452000D01*
X169548000Y-43452000D01*
X169548001Y-82548000D01*
X154329000Y-82548000D01*
X154329000Y-82428200D01*
X154300985Y-82287359D01*
X154246031Y-82154689D01*
X154166251Y-82035290D01*
X154064710Y-81933749D01*
X153945311Y-81853969D01*
X153812641Y-81799015D01*
X153775948Y-81791716D01*
X153712398Y-81728166D01*
X155201439Y-81728166D01*
X155236550Y-81941588D01*
X155440826Y-82032458D01*
X155658905Y-82081731D01*
X155882406Y-82087511D01*
X156102740Y-82049577D01*
X156311440Y-81969387D01*
X156363450Y-81941588D01*
X156398561Y-81728166D01*
X155800000Y-81129605D01*
X155201439Y-81728166D01*
X153712398Y-81728166D01*
X152827288Y-80843056D01*
X152829066Y-80825000D01*
X152829066Y-80603166D01*
X153226439Y-80603166D01*
X153261550Y-80816588D01*
X153465826Y-80907458D01*
X153683905Y-80956731D01*
X153907406Y-80962511D01*
X154127740Y-80924577D01*
X154336440Y-80844387D01*
X154388450Y-80816588D01*
X154423561Y-80603166D01*
X153825000Y-80004605D01*
X153226439Y-80603166D01*
X152829066Y-80603166D01*
X152829066Y-80380319D01*
X152833412Y-80388450D01*
X153046834Y-80423561D01*
X153645395Y-79825000D01*
X153631253Y-79810858D01*
X153777287Y-79664823D01*
X153906166Y-79698276D01*
X154018748Y-79810858D01*
X154004605Y-79825000D01*
X154603166Y-80423561D01*
X154806854Y-80390051D01*
X154717542Y-80590826D01*
X154668269Y-80808905D01*
X154662489Y-81032406D01*
X154700423Y-81252740D01*
X154780613Y-81461440D01*
X154808412Y-81513450D01*
X155021834Y-81548561D01*
X155620395Y-80950000D01*
X155979605Y-80950000D01*
X156578166Y-81548561D01*
X156791588Y-81513450D01*
X156882458Y-81309174D01*
X156931731Y-81091095D01*
X156937511Y-80867594D01*
X156899577Y-80647260D01*
X156819387Y-80438560D01*
X156791588Y-80386550D01*
X156578166Y-80351439D01*
X155979605Y-80950000D01*
X155620395Y-80950000D01*
X155021834Y-80351439D01*
X154818146Y-80384949D01*
X154907458Y-80184174D01*
X154956731Y-79966095D01*
X154962511Y-79742594D01*
X154935626Y-79586436D01*
X155026065Y-79538095D01*
X155083789Y-79595819D01*
X155201439Y-79478169D01*
X155236550Y-79691588D01*
X155440826Y-79782458D01*
X155635952Y-79826545D01*
X155497260Y-79850423D01*
X155288560Y-79930613D01*
X155236550Y-79958412D01*
X155201439Y-80171834D01*
X155800000Y-80770395D01*
X156398561Y-80171834D01*
X156363450Y-79958412D01*
X156159174Y-79867542D01*
X155964048Y-79823455D01*
X156102740Y-79799577D01*
X156311440Y-79719387D01*
X156363450Y-79691588D01*
X156398561Y-79478166D01*
X155800000Y-78879605D01*
X155785858Y-78893748D01*
X155694912Y-78802802D01*
X155744610Y-78700000D01*
X155979605Y-78700000D01*
X156578166Y-79298561D01*
X156791588Y-79263450D01*
X156882458Y-79059174D01*
X156931731Y-78841095D01*
X156937511Y-78617594D01*
X156899577Y-78397260D01*
X156819387Y-78188560D01*
X156791588Y-78136550D01*
X156578166Y-78101439D01*
X155979605Y-78700000D01*
X155744610Y-78700000D01*
X155744935Y-78699329D01*
X155793158Y-78513553D01*
X155800000Y-78520395D01*
X156398561Y-77921834D01*
X156363450Y-77708412D01*
X156159174Y-77617542D01*
X155941095Y-77568269D01*
X155723820Y-77562650D01*
X155695513Y-77481356D01*
X155609042Y-77319579D01*
X155349752Y-77229853D01*
X154429605Y-78150000D01*
X154699644Y-78420039D01*
X154668269Y-78558905D01*
X154663505Y-78743110D01*
X154250000Y-78329605D01*
X153888347Y-78691258D01*
X153742594Y-78687489D01*
X153522260Y-78725423D01*
X153477944Y-78742451D01*
X154070395Y-78150000D01*
X153150248Y-77229853D01*
X152890958Y-77319579D01*
X152755065Y-77600671D01*
X152676621Y-77902873D01*
X152658641Y-78214573D01*
X152701816Y-78523791D01*
X152804487Y-78818644D01*
X152890958Y-78980421D01*
X153014721Y-79023249D01*
X152929181Y-79108789D01*
X153046831Y-79226439D01*
X152833412Y-79261550D01*
X152742542Y-79465826D01*
X152697197Y-79666519D01*
X152638376Y-79618245D01*
X152564196Y-79578595D01*
X152483707Y-79554178D01*
X152400000Y-79545934D01*
X152100000Y-79545934D01*
X152016293Y-79554178D01*
X152000000Y-79559121D01*
X151983707Y-79554178D01*
X151900000Y-79545934D01*
X151600000Y-79545934D01*
X151516293Y-79554178D01*
X151500000Y-79559121D01*
X151483707Y-79554178D01*
X151400000Y-79545934D01*
X151100000Y-79545934D01*
X151016293Y-79554178D01*
X151000000Y-79559121D01*
X150983707Y-79554178D01*
X150900000Y-79545934D01*
X150600000Y-79545934D01*
X150516293Y-79554178D01*
X150500000Y-79559121D01*
X150483707Y-79554178D01*
X150400000Y-79545934D01*
X150100000Y-79545934D01*
X150016293Y-79554178D01*
X150000000Y-79559121D01*
X149983707Y-79554178D01*
X149900000Y-79545934D01*
X149600000Y-79545934D01*
X149516293Y-79554178D01*
X149500000Y-79559121D01*
X149483707Y-79554178D01*
X149400000Y-79545934D01*
X149100000Y-79545934D01*
X149016293Y-79554178D01*
X149000000Y-79559121D01*
X148983707Y-79554178D01*
X148900000Y-79545934D01*
X148600000Y-79545934D01*
X148516293Y-79554178D01*
X148500000Y-79559121D01*
X148483707Y-79554178D01*
X148400000Y-79545934D01*
X148100000Y-79545934D01*
X148016293Y-79554178D01*
X148000000Y-79559121D01*
X147983707Y-79554178D01*
X147900000Y-79545934D01*
X147600000Y-79545934D01*
X147516293Y-79554178D01*
X147435804Y-79578595D01*
X147361624Y-79618245D01*
X147299833Y-79668956D01*
X147274577Y-79522260D01*
X147194387Y-79313560D01*
X147166588Y-79261550D01*
X146953169Y-79226439D01*
X147070819Y-79108789D01*
X146985279Y-79023249D01*
X147109042Y-78980421D01*
X147244935Y-78699329D01*
X147323379Y-78397127D01*
X147341359Y-78085427D01*
X147298184Y-77776209D01*
X147195513Y-77481356D01*
X147109042Y-77319579D01*
X146849752Y-77229853D01*
X145929605Y-78150000D01*
X146518636Y-78739031D01*
X146316095Y-78693269D01*
X146108290Y-78687895D01*
X145750000Y-78329605D01*
X145334206Y-78745399D01*
X145337511Y-78617594D01*
X145303037Y-78417358D01*
X145570395Y-78150000D01*
X144650248Y-77229853D01*
X144390958Y-77319579D01*
X144271599Y-77566472D01*
X144117594Y-77562489D01*
X143897260Y-77600423D01*
X143688560Y-77680613D01*
X143636550Y-77708412D01*
X143601439Y-77921834D01*
X144200000Y-78520395D01*
X144201177Y-78519218D01*
X144201816Y-78523791D01*
X144300551Y-78807339D01*
X144214143Y-78893748D01*
X144200000Y-78879605D01*
X143601439Y-79478166D01*
X143636550Y-79691588D01*
X143840826Y-79782458D01*
X144035952Y-79826545D01*
X143897260Y-79850423D01*
X143688560Y-79930613D01*
X143636550Y-79958412D01*
X143601439Y-80171834D01*
X144200000Y-80770395D01*
X144798561Y-80171834D01*
X144763450Y-79958412D01*
X144559174Y-79867542D01*
X144364048Y-79823455D01*
X144502740Y-79799577D01*
X144711440Y-79719387D01*
X144763450Y-79691588D01*
X144798561Y-79478169D01*
X144916211Y-79595819D01*
X144975806Y-79536224D01*
X145066707Y-79580170D01*
X145043269Y-79683905D01*
X145037489Y-79907406D01*
X145075423Y-80127740D01*
X145155613Y-80336440D01*
X145181510Y-80384892D01*
X144978166Y-80351439D01*
X144379605Y-80950000D01*
X144978166Y-81548561D01*
X145191588Y-81513450D01*
X145282458Y-81309174D01*
X145331731Y-81091095D01*
X145337511Y-80867594D01*
X145299577Y-80647260D01*
X145282635Y-80603166D01*
X145576439Y-80603166D01*
X145611550Y-80816588D01*
X145815826Y-80907458D01*
X146033905Y-80956731D01*
X146257406Y-80962511D01*
X146477740Y-80924577D01*
X146686440Y-80844387D01*
X146738450Y-80816588D01*
X146773561Y-80603166D01*
X146175000Y-80004605D01*
X145576439Y-80603166D01*
X145282635Y-80603166D01*
X145219387Y-80438560D01*
X145193490Y-80390108D01*
X145396834Y-80423561D01*
X145995395Y-79825000D01*
X145981253Y-79810858D01*
X146089079Y-79703031D01*
X146123791Y-79698184D01*
X146221908Y-79664018D01*
X146368748Y-79810858D01*
X146354605Y-79825000D01*
X146953166Y-80423561D01*
X147166588Y-80388450D01*
X147170934Y-80378680D01*
X147170934Y-80825000D01*
X147172712Y-80843056D01*
X146365487Y-81650281D01*
X146344062Y-81667864D01*
X146328305Y-81687064D01*
X146223553Y-81791816D01*
X146187359Y-81799015D01*
X146054689Y-81853969D01*
X145935290Y-81933749D01*
X145833749Y-82035290D01*
X145753969Y-82154689D01*
X145699015Y-82287359D01*
X145671000Y-82428200D01*
X145671000Y-82548000D01*
X130452000Y-82548000D01*
X130452000Y-81728166D01*
X143601439Y-81728166D01*
X143636550Y-81941588D01*
X143840826Y-82032458D01*
X144058905Y-82081731D01*
X144282406Y-82087511D01*
X144502740Y-82049577D01*
X144711440Y-81969387D01*
X144763450Y-81941588D01*
X144798561Y-81728166D01*
X144200000Y-81129605D01*
X143601439Y-81728166D01*
X130452000Y-81728166D01*
X130452000Y-81032406D01*
X143062489Y-81032406D01*
X143100423Y-81252740D01*
X143180613Y-81461440D01*
X143208412Y-81513450D01*
X143421834Y-81548561D01*
X144020395Y-80950000D01*
X143421834Y-80351439D01*
X143208412Y-80386550D01*
X143117542Y-80590826D01*
X143068269Y-80808905D01*
X143062489Y-81032406D01*
X130452000Y-81032406D01*
X130452000Y-78782406D01*
X143062489Y-78782406D01*
X143100423Y-79002740D01*
X143180613Y-79211440D01*
X143208412Y-79263450D01*
X143421834Y-79298561D01*
X144020395Y-78700000D01*
X143421834Y-78101439D01*
X143208412Y-78136550D01*
X143117542Y-78340826D01*
X143068269Y-78558905D01*
X143062489Y-78782406D01*
X130452000Y-78782406D01*
X130452000Y-77050248D01*
X144829853Y-77050248D01*
X145750000Y-77970395D01*
X146670147Y-77050248D01*
X153329853Y-77050248D01*
X154250000Y-77970395D01*
X155170147Y-77050248D01*
X155080421Y-76790958D01*
X154799329Y-76655065D01*
X154497127Y-76576621D01*
X154185427Y-76558641D01*
X153876209Y-76601816D01*
X153581356Y-76704487D01*
X153419579Y-76790958D01*
X153329853Y-77050248D01*
X146670147Y-77050248D01*
X146580421Y-76790958D01*
X146299329Y-76655065D01*
X145997127Y-76576621D01*
X145685427Y-76558641D01*
X145376209Y-76601816D01*
X145081356Y-76704487D01*
X144919579Y-76790958D01*
X144829853Y-77050248D01*
X130452000Y-77050248D01*
X130452000Y-57285000D01*
X143830813Y-57285000D01*
X143833001Y-57307215D01*
X143833000Y-68692795D01*
X143830813Y-68715000D01*
X143839540Y-68803607D01*
X143865386Y-68888810D01*
X143907357Y-68967333D01*
X143963841Y-69036159D01*
X144032667Y-69092643D01*
X144111190Y-69134614D01*
X144196393Y-69160460D01*
X144285000Y-69169187D01*
X144307205Y-69167000D01*
X155692795Y-69167000D01*
X155715000Y-69169187D01*
X155737205Y-69167000D01*
X155803607Y-69160460D01*
X155888810Y-69134614D01*
X155967333Y-69092643D01*
X156036159Y-69036159D01*
X156092643Y-68967333D01*
X156134614Y-68888810D01*
X156160460Y-68803607D01*
X156169187Y-68715000D01*
X156167000Y-68692795D01*
X156167000Y-57307205D01*
X156169187Y-57285000D01*
X156160460Y-57196393D01*
X156134614Y-57111190D01*
X156092643Y-57032667D01*
X156036159Y-56963841D01*
X155967333Y-56907357D01*
X155888810Y-56865386D01*
X155803607Y-56839540D01*
X155737205Y-56833000D01*
X155715000Y-56830813D01*
X155692795Y-56833000D01*
X144307205Y-56833000D01*
X144285000Y-56830813D01*
X144262795Y-56833000D01*
X144196393Y-56839540D01*
X144111190Y-56865386D01*
X144032667Y-56907357D01*
X143963841Y-56963841D01*
X143907357Y-57032667D01*
X143865386Y-57111190D01*
X143839540Y-57196393D01*
X143830813Y-57285000D01*
X130452000Y-57285000D01*
X130452000Y-48949752D01*
X144829853Y-48949752D01*
X144919579Y-49209042D01*
X145200671Y-49344935D01*
X145502873Y-49423379D01*
X145814573Y-49441359D01*
X146123791Y-49398184D01*
X146418644Y-49295513D01*
X146580421Y-49209042D01*
X146670147Y-48949752D01*
X153329853Y-48949752D01*
X153419579Y-49209042D01*
X153700671Y-49344935D01*
X154002873Y-49423379D01*
X154314573Y-49441359D01*
X154623791Y-49398184D01*
X154918644Y-49295513D01*
X155080421Y-49209042D01*
X155170147Y-48949752D01*
X154250000Y-48029605D01*
X153329853Y-48949752D01*
X146670147Y-48949752D01*
X145750000Y-48029605D01*
X144829853Y-48949752D01*
X130452000Y-48949752D01*
X130452000Y-47382406D01*
X143062489Y-47382406D01*
X143100423Y-47602740D01*
X143180613Y-47811440D01*
X143208412Y-47863450D01*
X143421834Y-47898561D01*
X144020395Y-47300000D01*
X143421834Y-46701439D01*
X143208412Y-46736550D01*
X143117542Y-46940826D01*
X143068269Y-47158905D01*
X143062489Y-47382406D01*
X130452000Y-47382406D01*
X130452000Y-45132406D01*
X143062489Y-45132406D01*
X143100423Y-45352740D01*
X143180613Y-45561440D01*
X143208412Y-45613450D01*
X143421834Y-45648561D01*
X144020395Y-45050000D01*
X143421834Y-44451439D01*
X143208412Y-44486550D01*
X143117542Y-44690826D01*
X143068269Y-44908905D01*
X143062489Y-45132406D01*
X130452000Y-45132406D01*
X130452000Y-44271834D01*
X143601439Y-44271834D01*
X144200000Y-44870395D01*
X144798561Y-44271834D01*
X144763450Y-44058412D01*
X144559174Y-43967542D01*
X144341095Y-43918269D01*
X144117594Y-43912489D01*
X143897260Y-43950423D01*
X143688560Y-44030613D01*
X143636550Y-44058412D01*
X143601439Y-44271834D01*
X130452000Y-44271834D01*
X130452000Y-43452000D01*
X145671000Y-43452000D01*
X145671000Y-43571800D01*
M02*
