G04 #@! TF.GenerationSoftware,KiCad,Pcbnew,(5.1.2)-1*
G04 #@! TF.CreationDate,2019-05-02T18:24:12-06:00*
G04 #@! TF.ProjectId,Igloo09,49676c6f-6f30-4392-9e6b-696361645f70,rev?*
G04 #@! TF.SameCoordinates,Original*
G04 #@! TF.FileFunction,Paste,Bot*
G04 #@! TF.FilePolarity,Positive*
%FSLAX46Y46*%
G04 Gerber Fmt 4.6, Leading zero omitted, Abs format (unit mm)*
G04 Created by KiCad (PCBNEW (5.1.2)-1) date 2019-05-02 18:24:12*
%MOMM*%
%LPD*%
G04 APERTURE LIST*
%ADD10R,0.300000X0.850000*%
G04 APERTURE END LIST*
D10*
X147750000Y-45600000D03*
X147750000Y-48475000D03*
X148250000Y-45600000D03*
X148250000Y-48475000D03*
X148750000Y-45600000D03*
X148750000Y-48475000D03*
X149250000Y-45600000D03*
X149250000Y-48475000D03*
X149750000Y-45600000D03*
X149750000Y-48475000D03*
X150250000Y-45600000D03*
X150250000Y-48475000D03*
X150750000Y-45600000D03*
X150750000Y-48475000D03*
X151250000Y-45600000D03*
X151250000Y-48475000D03*
X151750000Y-45600000D03*
X151750000Y-48475000D03*
X152250000Y-45600000D03*
X152250000Y-48475000D03*
X152250000Y-80400000D03*
X152250000Y-77525000D03*
X151750000Y-80400000D03*
X151750000Y-77525000D03*
X151250000Y-80400000D03*
X151250000Y-77525000D03*
X150750000Y-80400000D03*
X150750000Y-77525000D03*
X150250000Y-80400000D03*
X150250000Y-77525000D03*
X149750000Y-80400000D03*
X149750000Y-77525000D03*
X149250000Y-80400000D03*
X149250000Y-77525000D03*
X148750000Y-80400000D03*
X148750000Y-77525000D03*
X148250000Y-80400000D03*
X148250000Y-77525000D03*
X147750000Y-80400000D03*
X147750000Y-77525000D03*
M02*
