G04 #@! TF.GenerationSoftware,KiCad,Pcbnew,(5.1.2)-1*
G04 #@! TF.CreationDate,2019-05-02T18:24:12-06:00*
G04 #@! TF.ProjectId,Igloo09,49676c6f-6f30-4392-9e6b-696361645f70,rev?*
G04 #@! TF.SameCoordinates,Original*
G04 #@! TF.FileFunction,Soldermask,Bot*
G04 #@! TF.FilePolarity,Negative*
%FSLAX46Y46*%
G04 Gerber Fmt 4.6, Leading zero omitted, Abs format (unit mm)*
G04 Created by KiCad (PCBNEW (5.1.2)-1) date 2019-05-02 18:24:12*
%MOMM*%
%LPD*%
G04 APERTURE LIST*
%ADD10C,2.300000*%
%ADD11C,1.400000*%
%ADD12R,0.700000X1.250000*%
%ADD13C,0.254000*%
G04 APERTURE END LIST*
D10*
X154250000Y-47850000D03*
X145750000Y-47850000D03*
D11*
X155800000Y-47300000D03*
X155800000Y-45050000D03*
X144200000Y-47300000D03*
X144200000Y-45050000D03*
X153825000Y-46175000D03*
X146175000Y-46175000D03*
D12*
X147750000Y-45600000D03*
X147750000Y-48475000D03*
X148250000Y-45600000D03*
X148250000Y-48475000D03*
X148750000Y-45600000D03*
X148750000Y-48475000D03*
X149250000Y-45600000D03*
X149250000Y-48475000D03*
X149750000Y-45600000D03*
X149750000Y-48475000D03*
X150250000Y-45600000D03*
X150250000Y-48475000D03*
X150750000Y-45600000D03*
X150750000Y-48475000D03*
X151250000Y-45600000D03*
X151250000Y-48475000D03*
X151750000Y-45600000D03*
X151750000Y-48475000D03*
X152250000Y-45600000D03*
X152250000Y-48475000D03*
D10*
X145750000Y-78150000D03*
X154250000Y-78150000D03*
D11*
X144200000Y-78700000D03*
X144200000Y-80950000D03*
X155800000Y-78700000D03*
X155800000Y-80950000D03*
X146175000Y-79825000D03*
X153825000Y-79825000D03*
D12*
X152250000Y-80400000D03*
X152250000Y-77525000D03*
X151750000Y-80400000D03*
X151750000Y-77525000D03*
X151250000Y-80400000D03*
X151250000Y-77525000D03*
X150750000Y-80400000D03*
X150750000Y-77525000D03*
X150250000Y-80400000D03*
X150250000Y-77525000D03*
X149750000Y-80400000D03*
X149750000Y-77525000D03*
X149250000Y-80400000D03*
X149250000Y-77525000D03*
X148750000Y-80400000D03*
X148750000Y-77525000D03*
X148250000Y-80400000D03*
X148250000Y-77525000D03*
X147750000Y-80400000D03*
X147750000Y-77525000D03*
D13*
G36*
X169873000Y-75273000D02*
G01*
X130127000Y-75273000D01*
X130127000Y-57285000D01*
X144285000Y-57285000D01*
X144285000Y-68715000D01*
X155715000Y-68715000D01*
X155715000Y-57285000D01*
X144285000Y-57285000D01*
X130127000Y-57285000D01*
X130127000Y-50727000D01*
X169873000Y-50727000D01*
X169873000Y-75273000D01*
X169873000Y-75273000D01*
G37*
X169873000Y-75273000D02*
X130127000Y-75273000D01*
X130127000Y-57285000D01*
X144285000Y-57285000D01*
X144285000Y-68715000D01*
X155715000Y-68715000D01*
X155715000Y-57285000D01*
X144285000Y-57285000D01*
X130127000Y-57285000D01*
X130127000Y-50727000D01*
X169873000Y-50727000D01*
X169873000Y-75273000D01*
M02*
