M48
; DRILL file {KiCad (5.1.2)-1} date 5/2/2019 6:24:10 PM
; FORMAT={-:-/ absolute / inch / decimal}
; #@! TF.CreationDate,2019-05-02T18:24:10-06:00
; #@! TF.GenerationSoftware,Kicad,Pcbnew,(5.1.2)-1
; #@! TF.FileFunction,Plated,1,2,PTH
FMAT,2
INCH
T1C0.0118
T2C0.0140
T3C0.0200
T4C0.0276
T5C0.0551
T6C0.1283
%
G90
G05
T1
X5.7638Y-1.7126
X5.7638Y-3.248
X5.7953Y-1.7126
X5.7953Y-3.248
X5.8268Y-1.7126
X5.8268Y-3.248
X5.8583Y-1.7126
X5.8583Y-3.248
X5.8898Y-1.7126
X5.8898Y-3.248
X5.9213Y-1.7126
X5.9213Y-3.248
X5.9528Y-1.7126
X5.9528Y-3.248
X5.9843Y-1.7126
X5.9843Y-3.248
X6.0157Y-1.7126
X6.0157Y-3.248
X6.0472Y-1.7126
X6.0472Y-3.248
T2
X5.2071Y-2.1803
X5.2071Y-2.7803
X5.3055Y-2.4803
X5.4039Y-2.1803
X5.4039Y-2.7803
X5.4331Y-2.3622
X5.4331Y-2.5984
X5.6018Y-2.0866
X5.6018Y-2.2047
X5.6018Y-2.7559
X5.6018Y-2.874
X5.6411Y-2.3228
X5.6411Y-2.4839
X5.6411Y-2.6378
X5.6791Y-2.7264
X5.6793Y-2.2343
X5.7244Y-2.7264
X5.7245Y-2.2343
X5.7697Y-2.7264
X5.7698Y-2.2343
X5.815Y-2.7264
X5.8151Y-2.2343
X5.8602Y-2.7264
X5.8604Y-2.2343
X5.9055Y-2.7264
X5.9056Y-2.2343
X5.9508Y-2.726
X5.9509Y-2.2343
X5.9961Y-2.7264
X5.9962Y-2.2343
X6.0413Y-2.726
X6.0415Y-2.2343
X6.0866Y-2.726
X6.0867Y-2.2343
X6.1319Y-2.726
X6.132Y-2.2343
X6.1699Y-2.3228
X6.1699Y-2.4807
X6.1699Y-2.6378
X6.2093Y-2.0866
X6.2093Y-2.2047
X6.2093Y-2.7559
X6.2093Y-2.874
X6.378Y-2.3622
X6.378Y-2.5984
X6.4071Y-2.1795
X6.4071Y-2.7819
X6.5055Y-2.4803
X6.6039Y-2.1811
X6.6039Y-2.7803
T3
X5.3055Y-2.0228
X5.3055Y-2.3378
X5.3055Y-2.6228
X5.3055Y-2.9378
X5.5624Y-2.2835
X5.5624Y-2.4803
X5.5624Y-2.674
X6.2486Y-2.2835
X6.2486Y-2.4803
X6.2486Y-2.6772
X6.5055Y-2.0228
X6.5055Y-2.3378
X6.5055Y-2.6228
X6.5055Y-2.9378
T4
X5.6772Y-3.0984
X5.6772Y-3.187
X5.7549Y-3.1427
X6.0561Y-3.1427
X6.1339Y-3.0984
X6.1339Y-3.187
X5.6772Y-1.7736
X5.6772Y-1.8622
X5.7549Y-1.8179
X6.0561Y-1.8179
X6.1339Y-1.7736
X6.1339Y-1.8622
T5
X5.7382Y-3.0768
X6.0728Y-3.0768
X5.7382Y-1.8839
X6.0728Y-1.8839
T6
X5.3055Y-2.1803
X5.3055Y-2.7803
X6.5055Y-2.1803
X6.5055Y-2.7803
T0
M30
