G04 #@! TF.GenerationSoftware,KiCad,Pcbnew,(5.1.0)-1*
G04 #@! TF.CreationDate,2019-04-24T15:31:07-06:00*
G04 #@! TF.ProjectId,feedthrough_pcb,66656564-7468-4726-9f75-67685f706362,rev?*
G04 #@! TF.SameCoordinates,Original*
G04 #@! TF.FileFunction,Copper,L1,Top*
G04 #@! TF.FilePolarity,Positive*
%FSLAX46Y46*%
G04 Gerber Fmt 4.6, Leading zero omitted, Abs format (unit mm)*
G04 Created by KiCad (PCBNEW (5.1.0)-1) date 2019-04-24 15:31:07*
%MOMM*%
%LPD*%
G04 APERTURE LIST*
%ADD10C,1.000000*%
%ADD11C,1.450000*%
%ADD12R,0.300000X1.500000*%
%ADD13C,0.504800*%
%ADD14C,0.152400*%
G04 APERTURE END LIST*
D10*
X95065000Y-95760000D03*
X104935000Y-95760000D03*
D11*
X96540000Y-93760000D03*
X103460000Y-93760000D03*
X103460000Y-100740000D03*
X96540000Y-100740000D03*
D10*
X104935000Y-98740000D03*
X95065000Y-98740000D03*
D12*
X97710000Y-98250000D03*
X97710000Y-101750000D03*
X98210000Y-98250000D03*
X98210000Y-101750000D03*
X98710000Y-98250000D03*
X98710000Y-101750000D03*
X99210000Y-98250000D03*
X99210000Y-101750000D03*
X99710000Y-98250000D03*
X99710000Y-101750000D03*
X100210000Y-98250000D03*
X100210000Y-101750000D03*
X100710000Y-98250000D03*
X100710000Y-101750000D03*
X101210000Y-98250000D03*
X101210000Y-101750000D03*
X101710000Y-98250000D03*
X101710000Y-101750000D03*
X102210000Y-98250000D03*
X102210000Y-101750000D03*
D13*
X102210000Y-99500000D03*
X101710000Y-95000000D03*
X101210000Y-99500000D03*
X100710000Y-95000000D03*
X100210000Y-99500000D03*
X99710000Y-95000000D03*
X99210000Y-99500000D03*
X98710000Y-95000000D03*
X98210000Y-99500000D03*
X97710000Y-95000000D03*
D14*
X102210000Y-98250000D02*
X102210000Y-99500000D01*
X101710000Y-97510000D02*
X101710000Y-95000000D01*
X101710000Y-98250000D02*
X101710000Y-97510000D01*
X101210000Y-98250000D02*
X101210000Y-99500000D01*
X100710000Y-98250000D02*
X100710000Y-95000000D01*
X100210000Y-98250000D02*
X100210000Y-99500000D01*
X99710000Y-98250000D02*
X99710000Y-95000000D01*
X99210000Y-98250000D02*
X99210000Y-99500000D01*
X98710000Y-98250000D02*
X98710000Y-95000000D01*
X98210000Y-98250000D02*
X98210000Y-99500000D01*
X97710000Y-97347600D02*
X97710000Y-95000000D01*
X97710000Y-98250000D02*
X97710000Y-97347600D01*
M02*
