G04 #@! TF.GenerationSoftware,KiCad,Pcbnew,(5.1.0)-1*
G04 #@! TF.CreationDate,2019-04-24T17:46:10-06:00*
G04 #@! TF.ProjectId,feedthrough_pcb,66656564-7468-4726-9f75-67685f706362,rev?*
G04 #@! TF.SameCoordinates,Original*
G04 #@! TF.FileFunction,Copper,L1,Top*
G04 #@! TF.FilePolarity,Positive*
%FSLAX46Y46*%
G04 Gerber Fmt 4.6, Leading zero omitted, Abs format (unit mm)*
G04 Created by KiCad (PCBNEW (5.1.0)-1) date 2019-04-24 17:46:10*
%MOMM*%
%LPD*%
G04 APERTURE LIST*
%ADD10C,1.000000*%
%ADD11C,1.450000*%
%ADD12R,0.300000X1.500000*%
%ADD13C,0.504800*%
%ADD14C,0.152400*%
%ADD15C,0.254000*%
G04 APERTURE END LIST*
D10*
X95065000Y-95760000D03*
X104935000Y-95760000D03*
D11*
X96540000Y-93760000D03*
X103460000Y-93760000D03*
X103460000Y-100740000D03*
X96540000Y-100740000D03*
D10*
X104935000Y-98740000D03*
X95065000Y-98740000D03*
D12*
X97710000Y-98250000D03*
X97710000Y-101750000D03*
X98210000Y-98250000D03*
X98210000Y-101750000D03*
X98710000Y-98250000D03*
X98710000Y-101750000D03*
X99210000Y-98250000D03*
X99210000Y-101750000D03*
X99710000Y-98250000D03*
X99710000Y-101750000D03*
X100210000Y-98250000D03*
X100210000Y-101750000D03*
X100710000Y-98250000D03*
X100710000Y-101750000D03*
X101210000Y-98250000D03*
X101210000Y-101750000D03*
X101710000Y-98250000D03*
X101710000Y-101750000D03*
X102210000Y-98250000D03*
X102210000Y-101750000D03*
D10*
X82769000Y-94260000D03*
X92639000Y-94260000D03*
D11*
X84244000Y-92260000D03*
X91164000Y-92260000D03*
X91164000Y-102240000D03*
X84244000Y-102240000D03*
D10*
X92639000Y-100240000D03*
X82769000Y-100240000D03*
D12*
X85414000Y-99750000D03*
X85414000Y-103250000D03*
X85914000Y-99750000D03*
X85914000Y-103250000D03*
X86414000Y-99750000D03*
X86414000Y-103250000D03*
X86914000Y-99750000D03*
X86914000Y-103250000D03*
X87414000Y-99750000D03*
X87414000Y-103250000D03*
X87914000Y-99750000D03*
X87914000Y-103250000D03*
X88414000Y-99750000D03*
X88414000Y-103250000D03*
X88914000Y-99750000D03*
X88914000Y-103250000D03*
X89414000Y-99750000D03*
X89414000Y-103250000D03*
X89914000Y-99750000D03*
X89914000Y-103250000D03*
D13*
X88039000Y-97250000D03*
X87299000Y-97250000D03*
X88789000Y-97250000D03*
X89539000Y-97250000D03*
X90289000Y-97250000D03*
X91039000Y-97250000D03*
X86549000Y-97250000D03*
X85799000Y-97250000D03*
X85049000Y-97250000D03*
X84299000Y-97250000D03*
X102210000Y-99500000D03*
X101710000Y-95000000D03*
X101210000Y-99500000D03*
X100710000Y-95000000D03*
X100210000Y-99500000D03*
X99710000Y-95000000D03*
X99210000Y-99500000D03*
X98710000Y-95000000D03*
X98210000Y-99500000D03*
X97710000Y-95000000D03*
D14*
X102210000Y-98250000D02*
X102210000Y-99500000D01*
X101710000Y-97510000D02*
X101710000Y-95000000D01*
X101710000Y-98250000D02*
X101710000Y-97510000D01*
X101210000Y-98250000D02*
X101210000Y-99500000D01*
X100710000Y-98250000D02*
X100710000Y-95000000D01*
X100210000Y-98250000D02*
X100210000Y-99500000D01*
X99710000Y-98250000D02*
X99710000Y-95000000D01*
X99210000Y-98250000D02*
X99210000Y-99500000D01*
X98710000Y-98250000D02*
X98710000Y-95000000D01*
X98210000Y-98250000D02*
X98210000Y-99500000D01*
X97710000Y-97347600D02*
X97710000Y-95000000D01*
X97710000Y-98250000D02*
X97710000Y-97347600D01*
X89914000Y-99750000D02*
X89914000Y-98770000D01*
X91039000Y-97645000D02*
X91039000Y-97250000D01*
X89914000Y-98770000D02*
X91039000Y-97645000D01*
X90289000Y-97606947D02*
X90289000Y-97250000D01*
X90289000Y-97888765D02*
X90289000Y-97606947D01*
X89414000Y-98763765D02*
X90289000Y-97888765D01*
X89414000Y-99750000D02*
X89414000Y-98763765D01*
X88914000Y-99750000D02*
X88914000Y-98765382D01*
X89539000Y-98140382D02*
X89539000Y-97250000D01*
X88914000Y-98765382D02*
X89539000Y-98140382D01*
X88789000Y-98392000D02*
X88789000Y-97250000D01*
X88414000Y-99750000D02*
X88414000Y-98767000D01*
X88414000Y-98767000D02*
X88789000Y-98392000D01*
X87914000Y-99750000D02*
X87914000Y-98768000D01*
X88039000Y-98643000D02*
X88039000Y-97250000D01*
X87914000Y-98768000D02*
X88039000Y-98643000D01*
X87414000Y-99750000D02*
X87414000Y-98771000D01*
X87299000Y-98656000D02*
X87299000Y-97250000D01*
X87414000Y-98771000D02*
X87299000Y-98656000D01*
X86914000Y-99750000D02*
X86914000Y-98766000D01*
X86549000Y-98401000D02*
X86549000Y-97250000D01*
X86914000Y-98766000D02*
X86549000Y-98401000D01*
X85799000Y-97606947D02*
X85799000Y-97250000D01*
X85799000Y-98149382D02*
X85799000Y-97606947D01*
X86414000Y-98764382D02*
X85799000Y-98149382D01*
X86414000Y-99750000D02*
X86414000Y-98764382D01*
X85914000Y-99750000D02*
X85914000Y-98762764D01*
X85049000Y-97897764D02*
X85049000Y-97250000D01*
X85914000Y-98762764D02*
X85049000Y-97897764D01*
X85414000Y-99750000D02*
X85414000Y-98763000D01*
X84299000Y-97606947D02*
X84299000Y-97250000D01*
X84299000Y-97646146D02*
X84299000Y-97606947D01*
X84906000Y-98253146D02*
X84299000Y-97646146D01*
X84906000Y-98255000D02*
X84906000Y-98253146D01*
X85414000Y-98763000D02*
X84906000Y-98255000D01*
D15*
G36*
X97007984Y-60437034D02*
G01*
X99377032Y-60717429D01*
X101723047Y-61150120D01*
X104036249Y-61733303D01*
X106306996Y-62464546D01*
X108525820Y-63340802D01*
X110683473Y-64358417D01*
X112770960Y-65513150D01*
X114779578Y-66800186D01*
X116700953Y-68214160D01*
X118527077Y-69749177D01*
X120250337Y-71398839D01*
X121863547Y-73156268D01*
X123359985Y-75014139D01*
X124733410Y-76964705D01*
X125978099Y-78999836D01*
X127088861Y-81111048D01*
X128061066Y-83289539D01*
X128890662Y-85526228D01*
X129574191Y-87811790D01*
X130108801Y-90136698D01*
X130492266Y-92491260D01*
X130722986Y-94865660D01*
X130800000Y-97250000D01*
X130793191Y-97959307D01*
X130670418Y-100341729D01*
X130394158Y-102711262D01*
X129965562Y-105058029D01*
X129386418Y-107372245D01*
X128659139Y-109644265D01*
X127786757Y-111864615D01*
X126772909Y-114024041D01*
X125621822Y-116113540D01*
X124338294Y-118124401D01*
X122927675Y-120048242D01*
X121395847Y-121877042D01*
X119749195Y-123603178D01*
X117994584Y-125219453D01*
X116139329Y-126719131D01*
X114191162Y-128095959D01*
X112158207Y-129344197D01*
X110048937Y-130458642D01*
X107872146Y-131434649D01*
X105636909Y-132268147D01*
X103352542Y-132955663D01*
X101028571Y-133494331D01*
X98674682Y-133881905D01*
X96300688Y-134116769D01*
X93916486Y-134197944D01*
X91532016Y-134125092D01*
X89157217Y-133898516D01*
X86801989Y-133519161D01*
X84476151Y-132988609D01*
X82189399Y-132309071D01*
X79951266Y-131483380D01*
X77771081Y-130514978D01*
X75657934Y-129407902D01*
X73620634Y-128166768D01*
X71667674Y-126796749D01*
X69807194Y-125303556D01*
X68046952Y-123693415D01*
X66394285Y-121973038D01*
X64856083Y-120149596D01*
X63438757Y-118230691D01*
X62148218Y-116224322D01*
X60989844Y-114138854D01*
X59968464Y-111982981D01*
X59088337Y-109765689D01*
X58353132Y-107496222D01*
X57765913Y-105184041D01*
X57329128Y-102838785D01*
X57044598Y-100470230D01*
X56913510Y-98088252D01*
X56922293Y-97173236D01*
X83519600Y-97173236D01*
X83519600Y-97326764D01*
X83549552Y-97477343D01*
X83608305Y-97619184D01*
X83693601Y-97746838D01*
X83703804Y-97757041D01*
X83704528Y-97764393D01*
X83739020Y-97878096D01*
X83760559Y-97918393D01*
X83795031Y-97982887D01*
X83814831Y-98007013D01*
X83870410Y-98074736D01*
X83893430Y-98093628D01*
X84450042Y-98650242D01*
X84477410Y-98683590D01*
X84500430Y-98702482D01*
X84740144Y-98942197D01*
X84734451Y-99000000D01*
X84734451Y-100500000D01*
X84744626Y-100603310D01*
X84774761Y-100702650D01*
X84823696Y-100794202D01*
X84889552Y-100874448D01*
X84969798Y-100940304D01*
X85061350Y-100989239D01*
X85160690Y-101019374D01*
X85264000Y-101029549D01*
X85564000Y-101029549D01*
X85664000Y-101019700D01*
X85764000Y-101029549D01*
X86064000Y-101029549D01*
X86164000Y-101019700D01*
X86264000Y-101029549D01*
X86564000Y-101029549D01*
X86664000Y-101019700D01*
X86764000Y-101029549D01*
X87064000Y-101029549D01*
X87164000Y-101019700D01*
X87264000Y-101029549D01*
X87564000Y-101029549D01*
X87664000Y-101019700D01*
X87764000Y-101029549D01*
X88064000Y-101029549D01*
X88164000Y-101019700D01*
X88264000Y-101029549D01*
X88564000Y-101029549D01*
X88664000Y-101019700D01*
X88764000Y-101029549D01*
X89064000Y-101029549D01*
X89164000Y-101019700D01*
X89264000Y-101029549D01*
X89564000Y-101029549D01*
X89664000Y-101019700D01*
X89764000Y-101029549D01*
X90064000Y-101029549D01*
X90167310Y-101019374D01*
X90266650Y-100989239D01*
X90358202Y-100940304D01*
X90438448Y-100874448D01*
X90504304Y-100794202D01*
X90553239Y-100702650D01*
X90583374Y-100603310D01*
X90593549Y-100500000D01*
X90593549Y-99000000D01*
X90588484Y-98948569D01*
X91444576Y-98092477D01*
X91467590Y-98073590D01*
X91542969Y-97981741D01*
X91598980Y-97876951D01*
X91633472Y-97763248D01*
X91634071Y-97757166D01*
X91644399Y-97746838D01*
X91729695Y-97619184D01*
X91788448Y-97477343D01*
X91818400Y-97326764D01*
X91818400Y-97173236D01*
X91788448Y-97022657D01*
X91729695Y-96880816D01*
X91644399Y-96753162D01*
X91535838Y-96644601D01*
X91408184Y-96559305D01*
X91266343Y-96500552D01*
X91115764Y-96470600D01*
X90962236Y-96470600D01*
X90811657Y-96500552D01*
X90669816Y-96559305D01*
X90664000Y-96563191D01*
X90658184Y-96559305D01*
X90516343Y-96500552D01*
X90365764Y-96470600D01*
X90212236Y-96470600D01*
X90061657Y-96500552D01*
X89919816Y-96559305D01*
X89914000Y-96563191D01*
X89908184Y-96559305D01*
X89766343Y-96500552D01*
X89615764Y-96470600D01*
X89462236Y-96470600D01*
X89311657Y-96500552D01*
X89169816Y-96559305D01*
X89164000Y-96563191D01*
X89158184Y-96559305D01*
X89016343Y-96500552D01*
X88865764Y-96470600D01*
X88712236Y-96470600D01*
X88561657Y-96500552D01*
X88419816Y-96559305D01*
X88414000Y-96563191D01*
X88408184Y-96559305D01*
X88266343Y-96500552D01*
X88115764Y-96470600D01*
X87962236Y-96470600D01*
X87811657Y-96500552D01*
X87669816Y-96559305D01*
X87669000Y-96559850D01*
X87668184Y-96559305D01*
X87526343Y-96500552D01*
X87375764Y-96470600D01*
X87222236Y-96470600D01*
X87071657Y-96500552D01*
X86929816Y-96559305D01*
X86924000Y-96563191D01*
X86918184Y-96559305D01*
X86776343Y-96500552D01*
X86625764Y-96470600D01*
X86472236Y-96470600D01*
X86321657Y-96500552D01*
X86179816Y-96559305D01*
X86174000Y-96563191D01*
X86168184Y-96559305D01*
X86026343Y-96500552D01*
X85875764Y-96470600D01*
X85722236Y-96470600D01*
X85571657Y-96500552D01*
X85429816Y-96559305D01*
X85424000Y-96563191D01*
X85418184Y-96559305D01*
X85276343Y-96500552D01*
X85125764Y-96470600D01*
X84972236Y-96470600D01*
X84821657Y-96500552D01*
X84679816Y-96559305D01*
X84674000Y-96563191D01*
X84668184Y-96559305D01*
X84526343Y-96500552D01*
X84375764Y-96470600D01*
X84222236Y-96470600D01*
X84071657Y-96500552D01*
X83929816Y-96559305D01*
X83802162Y-96644601D01*
X83693601Y-96753162D01*
X83608305Y-96880816D01*
X83549552Y-97022657D01*
X83519600Y-97173236D01*
X56922293Y-97173236D01*
X56936410Y-95702778D01*
X56994339Y-94923236D01*
X96930600Y-94923236D01*
X96930600Y-95076764D01*
X96960552Y-95227343D01*
X97019305Y-95369184D01*
X97104601Y-95496838D01*
X97106801Y-95499038D01*
X97106800Y-97229925D01*
X97070761Y-97297350D01*
X97040626Y-97396690D01*
X97030451Y-97500000D01*
X97030451Y-99000000D01*
X97040626Y-99103310D01*
X97070761Y-99202650D01*
X97119696Y-99294202D01*
X97185552Y-99374448D01*
X97265798Y-99440304D01*
X97357350Y-99489239D01*
X97430600Y-99511460D01*
X97430600Y-99576764D01*
X97460552Y-99727343D01*
X97519305Y-99869184D01*
X97604601Y-99996838D01*
X97713162Y-100105399D01*
X97840816Y-100190695D01*
X97982657Y-100249448D01*
X98133236Y-100279400D01*
X98286764Y-100279400D01*
X98437343Y-100249448D01*
X98579184Y-100190695D01*
X98706838Y-100105399D01*
X98710000Y-100102237D01*
X98713162Y-100105399D01*
X98840816Y-100190695D01*
X98982657Y-100249448D01*
X99133236Y-100279400D01*
X99286764Y-100279400D01*
X99437343Y-100249448D01*
X99579184Y-100190695D01*
X99706838Y-100105399D01*
X99710000Y-100102237D01*
X99713162Y-100105399D01*
X99840816Y-100190695D01*
X99982657Y-100249448D01*
X100133236Y-100279400D01*
X100286764Y-100279400D01*
X100437343Y-100249448D01*
X100579184Y-100190695D01*
X100706838Y-100105399D01*
X100710000Y-100102237D01*
X100713162Y-100105399D01*
X100840816Y-100190695D01*
X100982657Y-100249448D01*
X101133236Y-100279400D01*
X101286764Y-100279400D01*
X101437343Y-100249448D01*
X101579184Y-100190695D01*
X101706838Y-100105399D01*
X101710000Y-100102237D01*
X101713162Y-100105399D01*
X101840816Y-100190695D01*
X101982657Y-100249448D01*
X102133236Y-100279400D01*
X102286764Y-100279400D01*
X102437343Y-100249448D01*
X102579184Y-100190695D01*
X102706838Y-100105399D01*
X102815399Y-99996838D01*
X102900695Y-99869184D01*
X102959448Y-99727343D01*
X102989400Y-99576764D01*
X102989400Y-99423236D01*
X102959448Y-99272657D01*
X102900695Y-99130816D01*
X102879752Y-99099473D01*
X102889549Y-99000000D01*
X102889549Y-97500000D01*
X102879374Y-97396690D01*
X102849239Y-97297350D01*
X102800304Y-97205798D01*
X102734448Y-97125552D01*
X102654202Y-97059696D01*
X102562650Y-97010761D01*
X102463310Y-96980626D01*
X102360000Y-96970451D01*
X102313200Y-96970451D01*
X102313200Y-95499037D01*
X102315399Y-95496838D01*
X102400695Y-95369184D01*
X102459448Y-95227343D01*
X102489400Y-95076764D01*
X102489400Y-94923236D01*
X102459448Y-94772657D01*
X102400695Y-94630816D01*
X102315399Y-94503162D01*
X102206838Y-94394601D01*
X102079184Y-94309305D01*
X101937343Y-94250552D01*
X101786764Y-94220600D01*
X101633236Y-94220600D01*
X101482657Y-94250552D01*
X101340816Y-94309305D01*
X101213162Y-94394601D01*
X101210000Y-94397763D01*
X101206838Y-94394601D01*
X101079184Y-94309305D01*
X100937343Y-94250552D01*
X100786764Y-94220600D01*
X100633236Y-94220600D01*
X100482657Y-94250552D01*
X100340816Y-94309305D01*
X100213162Y-94394601D01*
X100210000Y-94397763D01*
X100206838Y-94394601D01*
X100079184Y-94309305D01*
X99937343Y-94250552D01*
X99786764Y-94220600D01*
X99633236Y-94220600D01*
X99482657Y-94250552D01*
X99340816Y-94309305D01*
X99213162Y-94394601D01*
X99210000Y-94397763D01*
X99206838Y-94394601D01*
X99079184Y-94309305D01*
X98937343Y-94250552D01*
X98786764Y-94220600D01*
X98633236Y-94220600D01*
X98482657Y-94250552D01*
X98340816Y-94309305D01*
X98213162Y-94394601D01*
X98210000Y-94397763D01*
X98206838Y-94394601D01*
X98079184Y-94309305D01*
X97937343Y-94250552D01*
X97786764Y-94220600D01*
X97633236Y-94220600D01*
X97482657Y-94250552D01*
X97340816Y-94309305D01*
X97213162Y-94394601D01*
X97104601Y-94503162D01*
X97019305Y-94630816D01*
X96960552Y-94772657D01*
X96930600Y-94923236D01*
X56994339Y-94923236D01*
X57113202Y-93323755D01*
X57443149Y-90961099D01*
X57924876Y-88624661D01*
X58556375Y-86324179D01*
X59335013Y-84069244D01*
X60257544Y-81869257D01*
X61320123Y-79733389D01*
X62518319Y-77670543D01*
X63847138Y-75689319D01*
X65301040Y-73797977D01*
X66873964Y-72004401D01*
X68559354Y-70316067D01*
X70350182Y-68740015D01*
X72238984Y-67282814D01*
X74217885Y-65950539D01*
X76278637Y-64748745D01*
X78412647Y-63682440D01*
X80611021Y-62756070D01*
X82864593Y-61973498D01*
X85163969Y-61337985D01*
X87499564Y-60852181D01*
X89861640Y-60518110D01*
X92240351Y-60337166D01*
X94625781Y-60310103D01*
X97007984Y-60437034D01*
X97007984Y-60437034D01*
G37*
X97007984Y-60437034D02*
X99377032Y-60717429D01*
X101723047Y-61150120D01*
X104036249Y-61733303D01*
X106306996Y-62464546D01*
X108525820Y-63340802D01*
X110683473Y-64358417D01*
X112770960Y-65513150D01*
X114779578Y-66800186D01*
X116700953Y-68214160D01*
X118527077Y-69749177D01*
X120250337Y-71398839D01*
X121863547Y-73156268D01*
X123359985Y-75014139D01*
X124733410Y-76964705D01*
X125978099Y-78999836D01*
X127088861Y-81111048D01*
X128061066Y-83289539D01*
X128890662Y-85526228D01*
X129574191Y-87811790D01*
X130108801Y-90136698D01*
X130492266Y-92491260D01*
X130722986Y-94865660D01*
X130800000Y-97250000D01*
X130793191Y-97959307D01*
X130670418Y-100341729D01*
X130394158Y-102711262D01*
X129965562Y-105058029D01*
X129386418Y-107372245D01*
X128659139Y-109644265D01*
X127786757Y-111864615D01*
X126772909Y-114024041D01*
X125621822Y-116113540D01*
X124338294Y-118124401D01*
X122927675Y-120048242D01*
X121395847Y-121877042D01*
X119749195Y-123603178D01*
X117994584Y-125219453D01*
X116139329Y-126719131D01*
X114191162Y-128095959D01*
X112158207Y-129344197D01*
X110048937Y-130458642D01*
X107872146Y-131434649D01*
X105636909Y-132268147D01*
X103352542Y-132955663D01*
X101028571Y-133494331D01*
X98674682Y-133881905D01*
X96300688Y-134116769D01*
X93916486Y-134197944D01*
X91532016Y-134125092D01*
X89157217Y-133898516D01*
X86801989Y-133519161D01*
X84476151Y-132988609D01*
X82189399Y-132309071D01*
X79951266Y-131483380D01*
X77771081Y-130514978D01*
X75657934Y-129407902D01*
X73620634Y-128166768D01*
X71667674Y-126796749D01*
X69807194Y-125303556D01*
X68046952Y-123693415D01*
X66394285Y-121973038D01*
X64856083Y-120149596D01*
X63438757Y-118230691D01*
X62148218Y-116224322D01*
X60989844Y-114138854D01*
X59968464Y-111982981D01*
X59088337Y-109765689D01*
X58353132Y-107496222D01*
X57765913Y-105184041D01*
X57329128Y-102838785D01*
X57044598Y-100470230D01*
X56913510Y-98088252D01*
X56922293Y-97173236D01*
X83519600Y-97173236D01*
X83519600Y-97326764D01*
X83549552Y-97477343D01*
X83608305Y-97619184D01*
X83693601Y-97746838D01*
X83703804Y-97757041D01*
X83704528Y-97764393D01*
X83739020Y-97878096D01*
X83760559Y-97918393D01*
X83795031Y-97982887D01*
X83814831Y-98007013D01*
X83870410Y-98074736D01*
X83893430Y-98093628D01*
X84450042Y-98650242D01*
X84477410Y-98683590D01*
X84500430Y-98702482D01*
X84740144Y-98942197D01*
X84734451Y-99000000D01*
X84734451Y-100500000D01*
X84744626Y-100603310D01*
X84774761Y-100702650D01*
X84823696Y-100794202D01*
X84889552Y-100874448D01*
X84969798Y-100940304D01*
X85061350Y-100989239D01*
X85160690Y-101019374D01*
X85264000Y-101029549D01*
X85564000Y-101029549D01*
X85664000Y-101019700D01*
X85764000Y-101029549D01*
X86064000Y-101029549D01*
X86164000Y-101019700D01*
X86264000Y-101029549D01*
X86564000Y-101029549D01*
X86664000Y-101019700D01*
X86764000Y-101029549D01*
X87064000Y-101029549D01*
X87164000Y-101019700D01*
X87264000Y-101029549D01*
X87564000Y-101029549D01*
X87664000Y-101019700D01*
X87764000Y-101029549D01*
X88064000Y-101029549D01*
X88164000Y-101019700D01*
X88264000Y-101029549D01*
X88564000Y-101029549D01*
X88664000Y-101019700D01*
X88764000Y-101029549D01*
X89064000Y-101029549D01*
X89164000Y-101019700D01*
X89264000Y-101029549D01*
X89564000Y-101029549D01*
X89664000Y-101019700D01*
X89764000Y-101029549D01*
X90064000Y-101029549D01*
X90167310Y-101019374D01*
X90266650Y-100989239D01*
X90358202Y-100940304D01*
X90438448Y-100874448D01*
X90504304Y-100794202D01*
X90553239Y-100702650D01*
X90583374Y-100603310D01*
X90593549Y-100500000D01*
X90593549Y-99000000D01*
X90588484Y-98948569D01*
X91444576Y-98092477D01*
X91467590Y-98073590D01*
X91542969Y-97981741D01*
X91598980Y-97876951D01*
X91633472Y-97763248D01*
X91634071Y-97757166D01*
X91644399Y-97746838D01*
X91729695Y-97619184D01*
X91788448Y-97477343D01*
X91818400Y-97326764D01*
X91818400Y-97173236D01*
X91788448Y-97022657D01*
X91729695Y-96880816D01*
X91644399Y-96753162D01*
X91535838Y-96644601D01*
X91408184Y-96559305D01*
X91266343Y-96500552D01*
X91115764Y-96470600D01*
X90962236Y-96470600D01*
X90811657Y-96500552D01*
X90669816Y-96559305D01*
X90664000Y-96563191D01*
X90658184Y-96559305D01*
X90516343Y-96500552D01*
X90365764Y-96470600D01*
X90212236Y-96470600D01*
X90061657Y-96500552D01*
X89919816Y-96559305D01*
X89914000Y-96563191D01*
X89908184Y-96559305D01*
X89766343Y-96500552D01*
X89615764Y-96470600D01*
X89462236Y-96470600D01*
X89311657Y-96500552D01*
X89169816Y-96559305D01*
X89164000Y-96563191D01*
X89158184Y-96559305D01*
X89016343Y-96500552D01*
X88865764Y-96470600D01*
X88712236Y-96470600D01*
X88561657Y-96500552D01*
X88419816Y-96559305D01*
X88414000Y-96563191D01*
X88408184Y-96559305D01*
X88266343Y-96500552D01*
X88115764Y-96470600D01*
X87962236Y-96470600D01*
X87811657Y-96500552D01*
X87669816Y-96559305D01*
X87669000Y-96559850D01*
X87668184Y-96559305D01*
X87526343Y-96500552D01*
X87375764Y-96470600D01*
X87222236Y-96470600D01*
X87071657Y-96500552D01*
X86929816Y-96559305D01*
X86924000Y-96563191D01*
X86918184Y-96559305D01*
X86776343Y-96500552D01*
X86625764Y-96470600D01*
X86472236Y-96470600D01*
X86321657Y-96500552D01*
X86179816Y-96559305D01*
X86174000Y-96563191D01*
X86168184Y-96559305D01*
X86026343Y-96500552D01*
X85875764Y-96470600D01*
X85722236Y-96470600D01*
X85571657Y-96500552D01*
X85429816Y-96559305D01*
X85424000Y-96563191D01*
X85418184Y-96559305D01*
X85276343Y-96500552D01*
X85125764Y-96470600D01*
X84972236Y-96470600D01*
X84821657Y-96500552D01*
X84679816Y-96559305D01*
X84674000Y-96563191D01*
X84668184Y-96559305D01*
X84526343Y-96500552D01*
X84375764Y-96470600D01*
X84222236Y-96470600D01*
X84071657Y-96500552D01*
X83929816Y-96559305D01*
X83802162Y-96644601D01*
X83693601Y-96753162D01*
X83608305Y-96880816D01*
X83549552Y-97022657D01*
X83519600Y-97173236D01*
X56922293Y-97173236D01*
X56936410Y-95702778D01*
X56994339Y-94923236D01*
X96930600Y-94923236D01*
X96930600Y-95076764D01*
X96960552Y-95227343D01*
X97019305Y-95369184D01*
X97104601Y-95496838D01*
X97106801Y-95499038D01*
X97106800Y-97229925D01*
X97070761Y-97297350D01*
X97040626Y-97396690D01*
X97030451Y-97500000D01*
X97030451Y-99000000D01*
X97040626Y-99103310D01*
X97070761Y-99202650D01*
X97119696Y-99294202D01*
X97185552Y-99374448D01*
X97265798Y-99440304D01*
X97357350Y-99489239D01*
X97430600Y-99511460D01*
X97430600Y-99576764D01*
X97460552Y-99727343D01*
X97519305Y-99869184D01*
X97604601Y-99996838D01*
X97713162Y-100105399D01*
X97840816Y-100190695D01*
X97982657Y-100249448D01*
X98133236Y-100279400D01*
X98286764Y-100279400D01*
X98437343Y-100249448D01*
X98579184Y-100190695D01*
X98706838Y-100105399D01*
X98710000Y-100102237D01*
X98713162Y-100105399D01*
X98840816Y-100190695D01*
X98982657Y-100249448D01*
X99133236Y-100279400D01*
X99286764Y-100279400D01*
X99437343Y-100249448D01*
X99579184Y-100190695D01*
X99706838Y-100105399D01*
X99710000Y-100102237D01*
X99713162Y-100105399D01*
X99840816Y-100190695D01*
X99982657Y-100249448D01*
X100133236Y-100279400D01*
X100286764Y-100279400D01*
X100437343Y-100249448D01*
X100579184Y-100190695D01*
X100706838Y-100105399D01*
X100710000Y-100102237D01*
X100713162Y-100105399D01*
X100840816Y-100190695D01*
X100982657Y-100249448D01*
X101133236Y-100279400D01*
X101286764Y-100279400D01*
X101437343Y-100249448D01*
X101579184Y-100190695D01*
X101706838Y-100105399D01*
X101710000Y-100102237D01*
X101713162Y-100105399D01*
X101840816Y-100190695D01*
X101982657Y-100249448D01*
X102133236Y-100279400D01*
X102286764Y-100279400D01*
X102437343Y-100249448D01*
X102579184Y-100190695D01*
X102706838Y-100105399D01*
X102815399Y-99996838D01*
X102900695Y-99869184D01*
X102959448Y-99727343D01*
X102989400Y-99576764D01*
X102989400Y-99423236D01*
X102959448Y-99272657D01*
X102900695Y-99130816D01*
X102879752Y-99099473D01*
X102889549Y-99000000D01*
X102889549Y-97500000D01*
X102879374Y-97396690D01*
X102849239Y-97297350D01*
X102800304Y-97205798D01*
X102734448Y-97125552D01*
X102654202Y-97059696D01*
X102562650Y-97010761D01*
X102463310Y-96980626D01*
X102360000Y-96970451D01*
X102313200Y-96970451D01*
X102313200Y-95499037D01*
X102315399Y-95496838D01*
X102400695Y-95369184D01*
X102459448Y-95227343D01*
X102489400Y-95076764D01*
X102489400Y-94923236D01*
X102459448Y-94772657D01*
X102400695Y-94630816D01*
X102315399Y-94503162D01*
X102206838Y-94394601D01*
X102079184Y-94309305D01*
X101937343Y-94250552D01*
X101786764Y-94220600D01*
X101633236Y-94220600D01*
X101482657Y-94250552D01*
X101340816Y-94309305D01*
X101213162Y-94394601D01*
X101210000Y-94397763D01*
X101206838Y-94394601D01*
X101079184Y-94309305D01*
X100937343Y-94250552D01*
X100786764Y-94220600D01*
X100633236Y-94220600D01*
X100482657Y-94250552D01*
X100340816Y-94309305D01*
X100213162Y-94394601D01*
X100210000Y-94397763D01*
X100206838Y-94394601D01*
X100079184Y-94309305D01*
X99937343Y-94250552D01*
X99786764Y-94220600D01*
X99633236Y-94220600D01*
X99482657Y-94250552D01*
X99340816Y-94309305D01*
X99213162Y-94394601D01*
X99210000Y-94397763D01*
X99206838Y-94394601D01*
X99079184Y-94309305D01*
X98937343Y-94250552D01*
X98786764Y-94220600D01*
X98633236Y-94220600D01*
X98482657Y-94250552D01*
X98340816Y-94309305D01*
X98213162Y-94394601D01*
X98210000Y-94397763D01*
X98206838Y-94394601D01*
X98079184Y-94309305D01*
X97937343Y-94250552D01*
X97786764Y-94220600D01*
X97633236Y-94220600D01*
X97482657Y-94250552D01*
X97340816Y-94309305D01*
X97213162Y-94394601D01*
X97104601Y-94503162D01*
X97019305Y-94630816D01*
X96960552Y-94772657D01*
X96930600Y-94923236D01*
X56994339Y-94923236D01*
X57113202Y-93323755D01*
X57443149Y-90961099D01*
X57924876Y-88624661D01*
X58556375Y-86324179D01*
X59335013Y-84069244D01*
X60257544Y-81869257D01*
X61320123Y-79733389D01*
X62518319Y-77670543D01*
X63847138Y-75689319D01*
X65301040Y-73797977D01*
X66873964Y-72004401D01*
X68559354Y-70316067D01*
X70350182Y-68740015D01*
X72238984Y-67282814D01*
X74217885Y-65950539D01*
X76278637Y-64748745D01*
X78412647Y-63682440D01*
X80611021Y-62756070D01*
X82864593Y-61973498D01*
X85163969Y-61337985D01*
X87499564Y-60852181D01*
X89861640Y-60518110D01*
X92240351Y-60337166D01*
X94625781Y-60310103D01*
X97007984Y-60437034D01*
M02*
