M48
; DRILL file {KiCad (5.1.0)-1} date 4/24/2019 5:46:08 PM
; FORMAT={-:-/ absolute / inch / decimal}
; #@! TF.CreationDate,2019-04-24T17:46:08-06:00
; #@! TF.GenerationSoftware,Kicad,Pcbnew,(5.1.0)-1
; #@! TF.FileFunction,Plated,1,2,PTH
FMAT,2
INCH
T1C0.0118
T2C0.0394
T3C0.0571
%
G90
G05
T1
X3.3189Y-3.8287
X3.3484Y-3.8287
X3.3779Y-3.8287
X3.4074Y-3.8287
X3.437Y-3.8287
X3.4661Y-3.8287
X3.4956Y-3.8287
X3.5252Y-3.8287
X3.5547Y-3.8287
X3.5842Y-3.8287
X3.8469Y-3.7402
X3.8665Y-3.9173
X3.8862Y-3.7402
X3.9059Y-3.9173
X3.9256Y-3.7402
X3.9453Y-3.9173
X3.965Y-3.7402
X3.9846Y-3.9173
X4.0043Y-3.7402
X4.024Y-3.9173
T2
X3.2586Y-3.9465
X3.6472Y-3.9465
X3.7427Y-3.8874
X4.1313Y-3.8874
X3.2586Y-3.711
X3.6472Y-3.711
X3.7427Y-3.7701
X4.1313Y-3.7701
T3
X3.3167Y-4.0252
X3.5891Y-4.0252
X3.8008Y-3.9661
X4.0732Y-3.9661
X3.3167Y-3.6323
X3.5891Y-3.6323
X3.8008Y-3.6913
X4.0732Y-3.6913
T0
M30
