G04 #@! TF.GenerationSoftware,KiCad,Pcbnew,(5.1.0)-1*
G04 #@! TF.CreationDate,2019-04-24T17:46:10-06:00*
G04 #@! TF.ProjectId,feedthrough_pcb,66656564-7468-4726-9f75-67685f706362,rev?*
G04 #@! TF.SameCoordinates,Original*
G04 #@! TF.FileFunction,Paste,Bot*
G04 #@! TF.FilePolarity,Positive*
%FSLAX46Y46*%
G04 Gerber Fmt 4.6, Leading zero omitted, Abs format (unit mm)*
G04 Created by KiCad (PCBNEW (5.1.0)-1) date 2019-04-24 17:46:10*
%MOMM*%
%LPD*%
G04 APERTURE LIST*
%ADD10R,0.300000X1.500000*%
G04 APERTURE END LIST*
D10*
X102210000Y-92750000D03*
X102210000Y-96250000D03*
X101710000Y-92750000D03*
X101710000Y-96250000D03*
X101210000Y-92750000D03*
X101210000Y-96250000D03*
X100710000Y-92750000D03*
X100710000Y-96250000D03*
X100210000Y-92750000D03*
X100210000Y-96250000D03*
X99710000Y-92750000D03*
X99710000Y-96250000D03*
X99210000Y-92750000D03*
X99210000Y-96250000D03*
X98710000Y-92750000D03*
X98710000Y-96250000D03*
X98210000Y-92750000D03*
X98210000Y-96250000D03*
X97710000Y-92750000D03*
X97710000Y-96250000D03*
X89914000Y-91250000D03*
X89914000Y-94750000D03*
X89414000Y-91250000D03*
X89414000Y-94750000D03*
X88914000Y-91250000D03*
X88914000Y-94750000D03*
X88414000Y-91250000D03*
X88414000Y-94750000D03*
X87914000Y-91250000D03*
X87914000Y-94750000D03*
X87414000Y-91250000D03*
X87414000Y-94750000D03*
X86914000Y-91250000D03*
X86914000Y-94750000D03*
X86414000Y-91250000D03*
X86414000Y-94750000D03*
X85914000Y-91250000D03*
X85914000Y-94750000D03*
X85414000Y-91250000D03*
X85414000Y-94750000D03*
M02*
