G04 #@! TF.GenerationSoftware,KiCad,Pcbnew,(5.1.0)-1*
G04 #@! TF.CreationDate,2019-04-24T15:31:07-06:00*
G04 #@! TF.ProjectId,feedthrough_pcb,66656564-7468-4726-9f75-67685f706362,rev?*
G04 #@! TF.SameCoordinates,Original*
G04 #@! TF.FileFunction,Soldermask,Top*
G04 #@! TF.FilePolarity,Negative*
%FSLAX46Y46*%
G04 Gerber Fmt 4.6, Leading zero omitted, Abs format (unit mm)*
G04 Created by KiCad (PCBNEW (5.1.0)-1) date 2019-04-24 15:31:07*
%MOMM*%
%LPD*%
G04 APERTURE LIST*
%ADD10C,0.100000*%
G04 APERTURE END LIST*
D10*
G36*
X102411000Y-102551000D02*
G01*
X97509000Y-102551000D01*
X97509000Y-101056827D01*
X97506598Y-101032441D01*
X97499485Y-101008992D01*
X97487934Y-100987381D01*
X97472389Y-100968439D01*
X97453447Y-100952894D01*
X97446162Y-100949000D01*
X102411000Y-100949000D01*
X102411000Y-102551000D01*
X102411000Y-102551000D01*
G37*
G36*
X103686348Y-99993820D02*
G01*
X103686350Y-99993821D01*
X103686351Y-99993821D01*
X103827574Y-100052317D01*
X103827577Y-100052319D01*
X103954669Y-100137239D01*
X104062761Y-100245331D01*
X104147681Y-100372423D01*
X104147683Y-100372426D01*
X104206179Y-100513649D01*
X104206180Y-100513652D01*
X104236000Y-100663569D01*
X104236000Y-100816431D01*
X104209631Y-100949000D01*
X104206179Y-100966351D01*
X104147683Y-101107574D01*
X104147681Y-101107577D01*
X104062761Y-101234669D01*
X103954669Y-101342761D01*
X103827577Y-101427681D01*
X103827574Y-101427683D01*
X103686351Y-101486179D01*
X103686350Y-101486179D01*
X103686348Y-101486180D01*
X103536431Y-101516000D01*
X103383569Y-101516000D01*
X103233652Y-101486180D01*
X103233650Y-101486179D01*
X103233649Y-101486179D01*
X103092426Y-101427683D01*
X103092423Y-101427681D01*
X102965331Y-101342761D01*
X102857239Y-101234669D01*
X102772319Y-101107577D01*
X102772317Y-101107574D01*
X102713821Y-100966351D01*
X102710370Y-100949000D01*
X102684000Y-100816431D01*
X102684000Y-100663569D01*
X102713820Y-100513652D01*
X102713821Y-100513649D01*
X102772317Y-100372426D01*
X102772319Y-100372423D01*
X102857239Y-100245331D01*
X102965331Y-100137239D01*
X103092423Y-100052319D01*
X103092426Y-100052317D01*
X103233649Y-99993821D01*
X103233650Y-99993821D01*
X103233652Y-99993820D01*
X103383569Y-99964000D01*
X103536431Y-99964000D01*
X103686348Y-99993820D01*
X103686348Y-99993820D01*
G37*
G36*
X96766348Y-99993820D02*
G01*
X96766350Y-99993821D01*
X96766351Y-99993821D01*
X96907574Y-100052317D01*
X96907577Y-100052319D01*
X97034669Y-100137239D01*
X97142761Y-100245331D01*
X97227681Y-100372423D01*
X97227683Y-100372426D01*
X97286179Y-100513649D01*
X97286180Y-100513652D01*
X97316000Y-100663569D01*
X97316000Y-100824001D01*
X97318402Y-100848387D01*
X97325515Y-100871836D01*
X97337066Y-100893447D01*
X97352611Y-100912389D01*
X97371553Y-100927934D01*
X97379642Y-100932257D01*
X97359615Y-100934230D01*
X97336166Y-100941343D01*
X97314555Y-100952894D01*
X97295613Y-100968439D01*
X97280068Y-100987381D01*
X97268517Y-101008990D01*
X97227683Y-101107574D01*
X97227681Y-101107577D01*
X97142761Y-101234669D01*
X97034669Y-101342761D01*
X96907577Y-101427681D01*
X96907574Y-101427683D01*
X96766351Y-101486179D01*
X96766350Y-101486179D01*
X96766348Y-101486180D01*
X96616431Y-101516000D01*
X96463569Y-101516000D01*
X96313652Y-101486180D01*
X96313650Y-101486179D01*
X96313649Y-101486179D01*
X96172426Y-101427683D01*
X96172423Y-101427681D01*
X96045331Y-101342761D01*
X95937239Y-101234669D01*
X95852319Y-101107577D01*
X95852317Y-101107574D01*
X95793821Y-100966351D01*
X95790370Y-100949000D01*
X95764000Y-100816431D01*
X95764000Y-100663569D01*
X95793820Y-100513652D01*
X95793821Y-100513649D01*
X95852317Y-100372426D01*
X95852319Y-100372423D01*
X95937239Y-100245331D01*
X96045331Y-100137239D01*
X96172423Y-100052319D01*
X96172426Y-100052317D01*
X96313649Y-99993821D01*
X96313650Y-99993821D01*
X96313652Y-99993820D01*
X96463569Y-99964000D01*
X96616431Y-99964000D01*
X96766348Y-99993820D01*
X96766348Y-99993820D01*
G37*
G36*
X105095721Y-98210174D02*
G01*
X105195995Y-98251709D01*
X105195996Y-98251710D01*
X105286242Y-98312010D01*
X105362990Y-98388758D01*
X105362991Y-98388760D01*
X105423291Y-98479005D01*
X105464826Y-98579279D01*
X105486000Y-98685730D01*
X105486000Y-98794270D01*
X105464826Y-98900721D01*
X105423291Y-99000995D01*
X105423290Y-99000996D01*
X105362990Y-99091242D01*
X105286242Y-99167990D01*
X105240812Y-99198345D01*
X105195995Y-99228291D01*
X105095721Y-99269826D01*
X104989270Y-99291000D01*
X104880730Y-99291000D01*
X104774279Y-99269826D01*
X104674005Y-99228291D01*
X104629188Y-99198345D01*
X104583758Y-99167990D01*
X104507010Y-99091242D01*
X104446710Y-99000996D01*
X104446709Y-99000995D01*
X104405174Y-98900721D01*
X104384000Y-98794270D01*
X104384000Y-98685730D01*
X104405174Y-98579279D01*
X104446709Y-98479005D01*
X104507009Y-98388760D01*
X104507010Y-98388758D01*
X104583758Y-98312010D01*
X104674004Y-98251710D01*
X104674005Y-98251709D01*
X104774279Y-98210174D01*
X104880730Y-98189000D01*
X104989270Y-98189000D01*
X105095721Y-98210174D01*
X105095721Y-98210174D01*
G37*
G36*
X95225721Y-98210174D02*
G01*
X95325995Y-98251709D01*
X95325996Y-98251710D01*
X95416242Y-98312010D01*
X95492990Y-98388758D01*
X95492991Y-98388760D01*
X95553291Y-98479005D01*
X95594826Y-98579279D01*
X95616000Y-98685730D01*
X95616000Y-98794270D01*
X95594826Y-98900721D01*
X95553291Y-99000995D01*
X95553290Y-99000996D01*
X95492990Y-99091242D01*
X95416242Y-99167990D01*
X95370812Y-99198345D01*
X95325995Y-99228291D01*
X95225721Y-99269826D01*
X95119270Y-99291000D01*
X95010730Y-99291000D01*
X94904279Y-99269826D01*
X94804005Y-99228291D01*
X94759188Y-99198345D01*
X94713758Y-99167990D01*
X94637010Y-99091242D01*
X94576710Y-99000996D01*
X94576709Y-99000995D01*
X94535174Y-98900721D01*
X94514000Y-98794270D01*
X94514000Y-98685730D01*
X94535174Y-98579279D01*
X94576709Y-98479005D01*
X94637009Y-98388760D01*
X94637010Y-98388758D01*
X94713758Y-98312010D01*
X94804004Y-98251710D01*
X94804005Y-98251709D01*
X94904279Y-98210174D01*
X95010730Y-98189000D01*
X95119270Y-98189000D01*
X95225721Y-98210174D01*
X95225721Y-98210174D01*
G37*
G36*
X102411000Y-99051000D02*
G01*
X97509000Y-99051000D01*
X97509000Y-97449000D01*
X102411000Y-97449000D01*
X102411000Y-99051000D01*
X102411000Y-99051000D01*
G37*
G36*
X105095721Y-95230174D02*
G01*
X105195995Y-95271709D01*
X105195996Y-95271710D01*
X105286242Y-95332010D01*
X105362990Y-95408758D01*
X105362991Y-95408760D01*
X105423291Y-95499005D01*
X105464826Y-95599279D01*
X105486000Y-95705730D01*
X105486000Y-95814270D01*
X105464826Y-95920721D01*
X105423291Y-96020995D01*
X105423290Y-96020996D01*
X105362990Y-96111242D01*
X105286242Y-96187990D01*
X105240812Y-96218345D01*
X105195995Y-96248291D01*
X105095721Y-96289826D01*
X104989270Y-96311000D01*
X104880730Y-96311000D01*
X104774279Y-96289826D01*
X104674005Y-96248291D01*
X104629188Y-96218345D01*
X104583758Y-96187990D01*
X104507010Y-96111242D01*
X104446710Y-96020996D01*
X104446709Y-96020995D01*
X104405174Y-95920721D01*
X104384000Y-95814270D01*
X104384000Y-95705730D01*
X104405174Y-95599279D01*
X104446709Y-95499005D01*
X104507009Y-95408760D01*
X104507010Y-95408758D01*
X104583758Y-95332010D01*
X104674004Y-95271710D01*
X104674005Y-95271709D01*
X104774279Y-95230174D01*
X104880730Y-95209000D01*
X104989270Y-95209000D01*
X105095721Y-95230174D01*
X105095721Y-95230174D01*
G37*
G36*
X95225721Y-95230174D02*
G01*
X95325995Y-95271709D01*
X95325996Y-95271710D01*
X95416242Y-95332010D01*
X95492990Y-95408758D01*
X95492991Y-95408760D01*
X95553291Y-95499005D01*
X95594826Y-95599279D01*
X95616000Y-95705730D01*
X95616000Y-95814270D01*
X95594826Y-95920721D01*
X95553291Y-96020995D01*
X95553290Y-96020996D01*
X95492990Y-96111242D01*
X95416242Y-96187990D01*
X95370812Y-96218345D01*
X95325995Y-96248291D01*
X95225721Y-96289826D01*
X95119270Y-96311000D01*
X95010730Y-96311000D01*
X94904279Y-96289826D01*
X94804005Y-96248291D01*
X94759188Y-96218345D01*
X94713758Y-96187990D01*
X94637010Y-96111242D01*
X94576710Y-96020996D01*
X94576709Y-96020995D01*
X94535174Y-95920721D01*
X94514000Y-95814270D01*
X94514000Y-95705730D01*
X94535174Y-95599279D01*
X94576709Y-95499005D01*
X94637009Y-95408760D01*
X94637010Y-95408758D01*
X94713758Y-95332010D01*
X94804004Y-95271710D01*
X94804005Y-95271709D01*
X94904279Y-95230174D01*
X95010730Y-95209000D01*
X95119270Y-95209000D01*
X95225721Y-95230174D01*
X95225721Y-95230174D01*
G37*
G36*
X103686348Y-93013820D02*
G01*
X103686350Y-93013821D01*
X103686351Y-93013821D01*
X103827574Y-93072317D01*
X103827577Y-93072319D01*
X103954669Y-93157239D01*
X104062761Y-93265331D01*
X104147681Y-93392423D01*
X104147683Y-93392426D01*
X104206179Y-93533649D01*
X104236000Y-93683571D01*
X104236000Y-93836429D01*
X104206179Y-93986351D01*
X104147683Y-94127574D01*
X104147681Y-94127577D01*
X104062761Y-94254669D01*
X103954669Y-94362761D01*
X103827577Y-94447681D01*
X103827574Y-94447683D01*
X103686351Y-94506179D01*
X103686350Y-94506179D01*
X103686348Y-94506180D01*
X103536431Y-94536000D01*
X103383569Y-94536000D01*
X103233652Y-94506180D01*
X103233650Y-94506179D01*
X103233649Y-94506179D01*
X103092426Y-94447683D01*
X103092423Y-94447681D01*
X102965331Y-94362761D01*
X102857239Y-94254669D01*
X102772319Y-94127577D01*
X102772317Y-94127574D01*
X102713821Y-93986351D01*
X102684000Y-93836429D01*
X102684000Y-93683571D01*
X102713821Y-93533649D01*
X102772317Y-93392426D01*
X102772319Y-93392423D01*
X102857239Y-93265331D01*
X102965331Y-93157239D01*
X103092423Y-93072319D01*
X103092426Y-93072317D01*
X103233649Y-93013821D01*
X103233650Y-93013821D01*
X103233652Y-93013820D01*
X103383569Y-92984000D01*
X103536431Y-92984000D01*
X103686348Y-93013820D01*
X103686348Y-93013820D01*
G37*
G36*
X96766348Y-93013820D02*
G01*
X96766350Y-93013821D01*
X96766351Y-93013821D01*
X96907574Y-93072317D01*
X96907577Y-93072319D01*
X97034669Y-93157239D01*
X97142761Y-93265331D01*
X97227681Y-93392423D01*
X97227683Y-93392426D01*
X97286179Y-93533649D01*
X97316000Y-93683571D01*
X97316000Y-93836429D01*
X97286179Y-93986351D01*
X97227683Y-94127574D01*
X97227681Y-94127577D01*
X97142761Y-94254669D01*
X97034669Y-94362761D01*
X96907577Y-94447681D01*
X96907574Y-94447683D01*
X96766351Y-94506179D01*
X96766350Y-94506179D01*
X96766348Y-94506180D01*
X96616431Y-94536000D01*
X96463569Y-94536000D01*
X96313652Y-94506180D01*
X96313650Y-94506179D01*
X96313649Y-94506179D01*
X96172426Y-94447683D01*
X96172423Y-94447681D01*
X96045331Y-94362761D01*
X95937239Y-94254669D01*
X95852319Y-94127577D01*
X95852317Y-94127574D01*
X95793821Y-93986351D01*
X95764000Y-93836429D01*
X95764000Y-93683571D01*
X95793821Y-93533649D01*
X95852317Y-93392426D01*
X95852319Y-93392423D01*
X95937239Y-93265331D01*
X96045331Y-93157239D01*
X96172423Y-93072319D01*
X96172426Y-93072317D01*
X96313649Y-93013821D01*
X96313650Y-93013821D01*
X96313652Y-93013820D01*
X96463569Y-92984000D01*
X96616431Y-92984000D01*
X96766348Y-93013820D01*
X96766348Y-93013820D01*
G37*
M02*
