M48
;DRILL file {KiCad (6.0.0-rc1-dev-305-gf0b8b2136)} date 08/02/19 14:10:38
;FORMAT={-:-/ absolute / inch / decimal}
FMAT,2
INCH,TZ
T1C0.0157
T2C0.0449
T3C0.0591
T4C0.1201
%
G90
G05
M72
T1
X2.2382Y-3.063
X2.3192Y-3.6152
X2.3408Y-4.1527
X2.3465Y-3.5669
X2.3484Y-4.5551
X2.3547Y-3.4862
X2.3865Y-3.6168
X2.3976Y-4.5551
X2.4276Y-4.2269
X2.4306Y-3.4487
X2.4488Y-4.5551
X2.4646Y-2.8031
X2.4777Y-4.1527
X2.4781Y-4.2752
X2.4803Y-3.063
X2.5Y-3.622
X2.563Y-3.063
X2.5787Y-3.815
X2.5825Y-3.3087
X2.6181Y-3.7441
X2.6235Y-4.1527
X2.6319Y-4.4888
X2.6453Y-2.9685
X2.6969Y-4.3937
X2.7014Y-4.8268
X2.709Y-3.9817
X2.7139Y-4.1527
X2.7163Y-4.5079
X2.7386Y-4.5337
X2.7508Y-4.33
X2.7513Y-4.5625
X2.7768Y-4.3691
X2.8001Y-4.2182
X2.8011Y-3.9777
X2.8104Y-4.8268
X2.8162Y-3.6226
X2.8394Y-3.644
X2.8594Y-3.6746
X2.865Y-4.8268
X2.8858Y-4.437
X2.8898Y-3.0846
X2.9195Y-4.8268
X2.9724Y-2.7402
X2.974Y-4.8268
X2.9825Y-4.1088
X3.0876Y-4.2467
X3.0883Y-3.4461
X3.093Y-3.545
X3.1282Y-3.3683
X3.1299Y-3.0866
X3.1457Y-2.7047
X3.1732Y-2.7283
X3.2008Y-3.7559
X3.2047Y-3.6299
X3.2244Y-3.0512
X3.2338Y-4.3733
X3.2339Y-3.3125
X3.2339Y-4.1028
X3.2617Y-3.5161
X3.2637Y-4.3083
X3.2638Y-3.6142
X3.3382Y-2.974
X3.3644Y-3.3683
T2
X2.4059Y-2.465
X2.4059Y-2.565
X2.5059Y-2.465
X2.5059Y-2.565
X2.6059Y-2.465
X2.6059Y-2.565
X2.7059Y-2.465
X2.7059Y-2.565
X2.8059Y-2.465
X2.8059Y-2.565
X2.9059Y-2.465
X2.9059Y-2.565
X3.0059Y-2.465
X3.0059Y-2.565
X3.1059Y-2.465
X3.1059Y-2.565
T3
X2.4429Y-4.8051
X3.0689Y-4.8051
T4
X2.264Y-4.8051
X3.2478Y-4.8051
T0
M30
