G04 #@! TF.GenerationSoftware,KiCad,Pcbnew,(6.0.0-rc1-dev-305-gf0b8b2136)*
G04 #@! TF.CreationDate,2019-08-02T14:10:45-06:00*
G04 #@! TF.ProjectId,Slush01,536C75736830312E6B696361645F7063,rev?*
G04 #@! TF.SameCoordinates,Original*
G04 #@! TF.FileFunction,Legend,Bot*
G04 #@! TF.FilePolarity,Positive*
%FSLAX46Y46*%
G04 Gerber Fmt 4.6, Leading zero omitted, Abs format (unit mm)*
G04 Created by KiCad (PCBNEW (6.0.0-rc1-dev-305-gf0b8b2136)) date 08/02/19 14:10:45*
%MOMM*%
%LPD*%
G01*
G04 APERTURE LIST*
%ADD10C,0.150000*%
%ADD11C,0.100000*%
%ADD12C,0.500000*%
G04 APERTURE END LIST*
D10*
X81301000Y-63062380D02*
X81301000Y-62062380D01*
X81634333Y-64602380D02*
X81301000Y-65602380D01*
X80967666Y-64602380D01*
D11*
X76603968Y-67267619D02*
X76096031Y-67267619D01*
X74063968Y-67267619D02*
X73556031Y-67267619D01*
X73810000Y-67521587D02*
X73810000Y-67013650D01*
D10*
X68548080Y-69477142D02*
X68601651Y-69524761D01*
X68750461Y-69572380D01*
X68845699Y-69572380D01*
X68982604Y-69524761D01*
X69065937Y-69429523D01*
X69101651Y-69334285D01*
X69125461Y-69143809D01*
X69107604Y-69000952D01*
X69036175Y-68810476D01*
X68976651Y-68715238D01*
X68869508Y-68620000D01*
X68720699Y-68572380D01*
X68625461Y-68572380D01*
X68488556Y-68620000D01*
X68446889Y-68667619D01*
X68131413Y-69572380D02*
X68006413Y-68572380D01*
X67702842Y-69572380D02*
X67637366Y-69048571D01*
X67673080Y-68953333D01*
X67762366Y-68905714D01*
X67905223Y-68905714D01*
X68006413Y-68953333D01*
X68059985Y-69000952D01*
X66399270Y-68667619D02*
X66345699Y-68620000D01*
X66244508Y-68572380D01*
X66006413Y-68572380D01*
X65917127Y-68620000D01*
X65875461Y-68667619D01*
X65839747Y-68762857D01*
X65851651Y-68858095D01*
X65917127Y-69000952D01*
X66559985Y-69572380D01*
X65940937Y-69572380D01*
D11*
X79143968Y-67267619D02*
X78636031Y-67267619D01*
X78890000Y-67521587D02*
X78890000Y-67013650D01*
X63903968Y-67267619D02*
X63396031Y-67267619D01*
X63650000Y-67521587D02*
X63650000Y-67013650D01*
X66443968Y-67267619D02*
X65936031Y-67267619D01*
X68983968Y-67267619D02*
X68476031Y-67267619D01*
X68730000Y-67521587D02*
X68730000Y-67013650D01*
D10*
X63468080Y-69477142D02*
X63521651Y-69524761D01*
X63670461Y-69572380D01*
X63765699Y-69572380D01*
X63902604Y-69524761D01*
X63985937Y-69429523D01*
X64021651Y-69334285D01*
X64045461Y-69143809D01*
X64027604Y-69000952D01*
X63956175Y-68810476D01*
X63896651Y-68715238D01*
X63789508Y-68620000D01*
X63640699Y-68572380D01*
X63545461Y-68572380D01*
X63408556Y-68620000D01*
X63366889Y-68667619D01*
X63051413Y-69572380D02*
X62926413Y-68572380D01*
X62622842Y-69572380D02*
X62557366Y-69048571D01*
X62593080Y-68953333D01*
X62682366Y-68905714D01*
X62825223Y-68905714D01*
X62926413Y-68953333D01*
X62979985Y-69000952D01*
X61354985Y-68572380D02*
X60735937Y-68572380D01*
X61116889Y-68953333D01*
X60974032Y-68953333D01*
X60884747Y-69000952D01*
X60843080Y-69048571D01*
X60807366Y-69143809D01*
X60837127Y-69381904D01*
X60896651Y-69477142D01*
X60950223Y-69524761D01*
X61051413Y-69572380D01*
X61337127Y-69572380D01*
X61426413Y-69524761D01*
X61468080Y-69477142D01*
X73628080Y-69477142D02*
X73681651Y-69524761D01*
X73830461Y-69572380D01*
X73925699Y-69572380D01*
X74062604Y-69524761D01*
X74145937Y-69429523D01*
X74181651Y-69334285D01*
X74205461Y-69143809D01*
X74187604Y-69000952D01*
X74116175Y-68810476D01*
X74056651Y-68715238D01*
X73949508Y-68620000D01*
X73800699Y-68572380D01*
X73705461Y-68572380D01*
X73568556Y-68620000D01*
X73526889Y-68667619D01*
X73211413Y-69572380D02*
X73086413Y-68572380D01*
X72782842Y-69572380D02*
X72717366Y-69048571D01*
X72753080Y-68953333D01*
X72842366Y-68905714D01*
X72985223Y-68905714D01*
X73086413Y-68953333D01*
X73139985Y-69000952D01*
X71020937Y-69572380D02*
X71592366Y-69572380D01*
X71306651Y-69572380D02*
X71181651Y-68572380D01*
X71294747Y-68715238D01*
X71401889Y-68810476D01*
X71503080Y-68858095D01*
D11*
X61363968Y-67267619D02*
X60856031Y-67267619D01*
D10*
X78708080Y-69477142D02*
X78761651Y-69524761D01*
X78910461Y-69572380D01*
X79005699Y-69572380D01*
X79142604Y-69524761D01*
X79225937Y-69429523D01*
X79261651Y-69334285D01*
X79285461Y-69143809D01*
X79267604Y-69000952D01*
X79196175Y-68810476D01*
X79136651Y-68715238D01*
X79029508Y-68620000D01*
X78880699Y-68572380D01*
X78785461Y-68572380D01*
X78648556Y-68620000D01*
X78606889Y-68667619D01*
X78291413Y-69572380D02*
X78166413Y-68572380D01*
X77862842Y-69572380D02*
X77797366Y-69048571D01*
X77833080Y-68953333D01*
X77922366Y-68905714D01*
X78065223Y-68905714D01*
X78166413Y-68953333D01*
X78219985Y-69000952D01*
X76309270Y-68572380D02*
X76214032Y-68572380D01*
X76124747Y-68620000D01*
X76083080Y-68667619D01*
X76047366Y-68762857D01*
X76023556Y-68953333D01*
X76053318Y-69191428D01*
X76124747Y-69381904D01*
X76184270Y-69477142D01*
X76237842Y-69524761D01*
X76339032Y-69572380D01*
X76434270Y-69572380D01*
X76523556Y-69524761D01*
X76565223Y-69477142D01*
X76600937Y-69381904D01*
X76624747Y-69191428D01*
X76594985Y-68953333D01*
X76523556Y-68762857D01*
X76464032Y-68667619D01*
X76410461Y-68620000D01*
X76309270Y-68572380D01*
D11*
X71523968Y-67267619D02*
X71016031Y-67267619D01*
D10*
X80180000Y-65150000D02*
X80180000Y-70530000D01*
X75080000Y-65150000D02*
X75080000Y-70530000D01*
X70010000Y-65160000D02*
X70010000Y-70540000D01*
X64920000Y-65140000D02*
X64920000Y-70520000D01*
X59840000Y-65160000D02*
X59840000Y-70540000D01*
D12*
X87000000Y-70500000D02*
X53000000Y-70500000D01*
M02*
