G04 #@! TF.GenerationSoftware,KiCad,Pcbnew,(6.0.0-rc1-dev-305-gf0b8b2136)*
G04 #@! TF.CreationDate,2019-08-01T16:32:06-06:00*
G04 #@! TF.ProjectId,Slush01,536C75736830312E6B696361645F7063,rev?*
G04 #@! TF.SameCoordinates,Original*
G04 #@! TF.FileFunction,Paste,Top*
G04 #@! TF.FilePolarity,Positive*
%FSLAX46Y46*%
G04 Gerber Fmt 4.6, Leading zero omitted, Abs format (unit mm)*
G04 Created by KiCad (PCBNEW (6.0.0-rc1-dev-305-gf0b8b2136)) date 08/01/19 16:32:06*
%MOMM*%
%LPD*%
G01*
G04 APERTURE LIST*
%ADD10C,0.100000*%
%ADD11C,1.150000*%
%ADD12C,1.350000*%
%ADD13R,0.800000X3.500000*%
%ADD14R,0.450000X1.450000*%
%ADD15R,0.600000X1.150000*%
%ADD16R,1.550000X0.600000*%
G04 APERTURE END LIST*
D10*
G04 #@! TO.C,R13*
G36*
X59373505Y-72802204D02*
X59397773Y-72805804D01*
X59421572Y-72811765D01*
X59444671Y-72820030D01*
X59466850Y-72830520D01*
X59487893Y-72843132D01*
X59507599Y-72857747D01*
X59525777Y-72874223D01*
X59542253Y-72892401D01*
X59556868Y-72912107D01*
X59569480Y-72933150D01*
X59579970Y-72955329D01*
X59588235Y-72978428D01*
X59594196Y-73002227D01*
X59597796Y-73026495D01*
X59599000Y-73050999D01*
X59599000Y-73701001D01*
X59597796Y-73725505D01*
X59594196Y-73749773D01*
X59588235Y-73773572D01*
X59579970Y-73796671D01*
X59569480Y-73818850D01*
X59556868Y-73839893D01*
X59542253Y-73859599D01*
X59525777Y-73877777D01*
X59507599Y-73894253D01*
X59487893Y-73908868D01*
X59466850Y-73921480D01*
X59444671Y-73931970D01*
X59421572Y-73940235D01*
X59397773Y-73946196D01*
X59373505Y-73949796D01*
X59349001Y-73951000D01*
X58448999Y-73951000D01*
X58424495Y-73949796D01*
X58400227Y-73946196D01*
X58376428Y-73940235D01*
X58353329Y-73931970D01*
X58331150Y-73921480D01*
X58310107Y-73908868D01*
X58290401Y-73894253D01*
X58272223Y-73877777D01*
X58255747Y-73859599D01*
X58241132Y-73839893D01*
X58228520Y-73818850D01*
X58218030Y-73796671D01*
X58209765Y-73773572D01*
X58203804Y-73749773D01*
X58200204Y-73725505D01*
X58199000Y-73701001D01*
X58199000Y-73050999D01*
X58200204Y-73026495D01*
X58203804Y-73002227D01*
X58209765Y-72978428D01*
X58218030Y-72955329D01*
X58228520Y-72933150D01*
X58241132Y-72912107D01*
X58255747Y-72892401D01*
X58272223Y-72874223D01*
X58290401Y-72857747D01*
X58310107Y-72843132D01*
X58331150Y-72830520D01*
X58353329Y-72820030D01*
X58376428Y-72811765D01*
X58400227Y-72805804D01*
X58424495Y-72802204D01*
X58448999Y-72801000D01*
X59349001Y-72801000D01*
X59373505Y-72802204D01*
X59373505Y-72802204D01*
G37*
D11*
X58899000Y-73376000D03*
D10*
G36*
X59373505Y-74852204D02*
X59397773Y-74855804D01*
X59421572Y-74861765D01*
X59444671Y-74870030D01*
X59466850Y-74880520D01*
X59487893Y-74893132D01*
X59507599Y-74907747D01*
X59525777Y-74924223D01*
X59542253Y-74942401D01*
X59556868Y-74962107D01*
X59569480Y-74983150D01*
X59579970Y-75005329D01*
X59588235Y-75028428D01*
X59594196Y-75052227D01*
X59597796Y-75076495D01*
X59599000Y-75100999D01*
X59599000Y-75751001D01*
X59597796Y-75775505D01*
X59594196Y-75799773D01*
X59588235Y-75823572D01*
X59579970Y-75846671D01*
X59569480Y-75868850D01*
X59556868Y-75889893D01*
X59542253Y-75909599D01*
X59525777Y-75927777D01*
X59507599Y-75944253D01*
X59487893Y-75958868D01*
X59466850Y-75971480D01*
X59444671Y-75981970D01*
X59421572Y-75990235D01*
X59397773Y-75996196D01*
X59373505Y-75999796D01*
X59349001Y-76001000D01*
X58448999Y-76001000D01*
X58424495Y-75999796D01*
X58400227Y-75996196D01*
X58376428Y-75990235D01*
X58353329Y-75981970D01*
X58331150Y-75971480D01*
X58310107Y-75958868D01*
X58290401Y-75944253D01*
X58272223Y-75927777D01*
X58255747Y-75909599D01*
X58241132Y-75889893D01*
X58228520Y-75868850D01*
X58218030Y-75846671D01*
X58209765Y-75823572D01*
X58203804Y-75799773D01*
X58200204Y-75775505D01*
X58199000Y-75751001D01*
X58199000Y-75100999D01*
X58200204Y-75076495D01*
X58203804Y-75052227D01*
X58209765Y-75028428D01*
X58218030Y-75005329D01*
X58228520Y-74983150D01*
X58241132Y-74962107D01*
X58255747Y-74942401D01*
X58272223Y-74924223D01*
X58290401Y-74907747D01*
X58310107Y-74893132D01*
X58331150Y-74880520D01*
X58353329Y-74870030D01*
X58376428Y-74861765D01*
X58400227Y-74855804D01*
X58424495Y-74852204D01*
X58448999Y-74851000D01*
X59349001Y-74851000D01*
X59373505Y-74852204D01*
X59373505Y-74852204D01*
G37*
D11*
X58899000Y-75426000D03*
G04 #@! TD*
D10*
G04 #@! TO.C,R12*
G36*
X61423505Y-72802204D02*
X61447773Y-72805804D01*
X61471572Y-72811765D01*
X61494671Y-72820030D01*
X61516850Y-72830520D01*
X61537893Y-72843132D01*
X61557599Y-72857747D01*
X61575777Y-72874223D01*
X61592253Y-72892401D01*
X61606868Y-72912107D01*
X61619480Y-72933150D01*
X61629970Y-72955329D01*
X61638235Y-72978428D01*
X61644196Y-73002227D01*
X61647796Y-73026495D01*
X61649000Y-73050999D01*
X61649000Y-73701001D01*
X61647796Y-73725505D01*
X61644196Y-73749773D01*
X61638235Y-73773572D01*
X61629970Y-73796671D01*
X61619480Y-73818850D01*
X61606868Y-73839893D01*
X61592253Y-73859599D01*
X61575777Y-73877777D01*
X61557599Y-73894253D01*
X61537893Y-73908868D01*
X61516850Y-73921480D01*
X61494671Y-73931970D01*
X61471572Y-73940235D01*
X61447773Y-73946196D01*
X61423505Y-73949796D01*
X61399001Y-73951000D01*
X60498999Y-73951000D01*
X60474495Y-73949796D01*
X60450227Y-73946196D01*
X60426428Y-73940235D01*
X60403329Y-73931970D01*
X60381150Y-73921480D01*
X60360107Y-73908868D01*
X60340401Y-73894253D01*
X60322223Y-73877777D01*
X60305747Y-73859599D01*
X60291132Y-73839893D01*
X60278520Y-73818850D01*
X60268030Y-73796671D01*
X60259765Y-73773572D01*
X60253804Y-73749773D01*
X60250204Y-73725505D01*
X60249000Y-73701001D01*
X60249000Y-73050999D01*
X60250204Y-73026495D01*
X60253804Y-73002227D01*
X60259765Y-72978428D01*
X60268030Y-72955329D01*
X60278520Y-72933150D01*
X60291132Y-72912107D01*
X60305747Y-72892401D01*
X60322223Y-72874223D01*
X60340401Y-72857747D01*
X60360107Y-72843132D01*
X60381150Y-72830520D01*
X60403329Y-72820030D01*
X60426428Y-72811765D01*
X60450227Y-72805804D01*
X60474495Y-72802204D01*
X60498999Y-72801000D01*
X61399001Y-72801000D01*
X61423505Y-72802204D01*
X61423505Y-72802204D01*
G37*
D11*
X60949000Y-73376000D03*
D10*
G36*
X61423505Y-74852204D02*
X61447773Y-74855804D01*
X61471572Y-74861765D01*
X61494671Y-74870030D01*
X61516850Y-74880520D01*
X61537893Y-74893132D01*
X61557599Y-74907747D01*
X61575777Y-74924223D01*
X61592253Y-74942401D01*
X61606868Y-74962107D01*
X61619480Y-74983150D01*
X61629970Y-75005329D01*
X61638235Y-75028428D01*
X61644196Y-75052227D01*
X61647796Y-75076495D01*
X61649000Y-75100999D01*
X61649000Y-75751001D01*
X61647796Y-75775505D01*
X61644196Y-75799773D01*
X61638235Y-75823572D01*
X61629970Y-75846671D01*
X61619480Y-75868850D01*
X61606868Y-75889893D01*
X61592253Y-75909599D01*
X61575777Y-75927777D01*
X61557599Y-75944253D01*
X61537893Y-75958868D01*
X61516850Y-75971480D01*
X61494671Y-75981970D01*
X61471572Y-75990235D01*
X61447773Y-75996196D01*
X61423505Y-75999796D01*
X61399001Y-76001000D01*
X60498999Y-76001000D01*
X60474495Y-75999796D01*
X60450227Y-75996196D01*
X60426428Y-75990235D01*
X60403329Y-75981970D01*
X60381150Y-75971480D01*
X60360107Y-75958868D01*
X60340401Y-75944253D01*
X60322223Y-75927777D01*
X60305747Y-75909599D01*
X60291132Y-75889893D01*
X60278520Y-75868850D01*
X60268030Y-75846671D01*
X60259765Y-75823572D01*
X60253804Y-75799773D01*
X60250204Y-75775505D01*
X60249000Y-75751001D01*
X60249000Y-75100999D01*
X60250204Y-75076495D01*
X60253804Y-75052227D01*
X60259765Y-75028428D01*
X60268030Y-75005329D01*
X60278520Y-74983150D01*
X60291132Y-74962107D01*
X60305747Y-74942401D01*
X60322223Y-74924223D01*
X60340401Y-74907747D01*
X60360107Y-74893132D01*
X60381150Y-74880520D01*
X60403329Y-74870030D01*
X60426428Y-74861765D01*
X60450227Y-74855804D01*
X60474495Y-74852204D01*
X60498999Y-74851000D01*
X61399001Y-74851000D01*
X61423505Y-74852204D01*
X61423505Y-74852204D01*
G37*
D11*
X60949000Y-75426000D03*
G04 #@! TD*
D10*
G04 #@! TO.C,C17*
G36*
X57379505Y-82932204D02*
X57403773Y-82935804D01*
X57427572Y-82941765D01*
X57450671Y-82950030D01*
X57472850Y-82960520D01*
X57493893Y-82973132D01*
X57513599Y-82987747D01*
X57531777Y-83004223D01*
X57548253Y-83022401D01*
X57562868Y-83042107D01*
X57575480Y-83063150D01*
X57585970Y-83085329D01*
X57594235Y-83108428D01*
X57600196Y-83132227D01*
X57603796Y-83156495D01*
X57605000Y-83180999D01*
X57605000Y-83831001D01*
X57603796Y-83855505D01*
X57600196Y-83879773D01*
X57594235Y-83903572D01*
X57585970Y-83926671D01*
X57575480Y-83948850D01*
X57562868Y-83969893D01*
X57548253Y-83989599D01*
X57531777Y-84007777D01*
X57513599Y-84024253D01*
X57493893Y-84038868D01*
X57472850Y-84051480D01*
X57450671Y-84061970D01*
X57427572Y-84070235D01*
X57403773Y-84076196D01*
X57379505Y-84079796D01*
X57355001Y-84081000D01*
X56454999Y-84081000D01*
X56430495Y-84079796D01*
X56406227Y-84076196D01*
X56382428Y-84070235D01*
X56359329Y-84061970D01*
X56337150Y-84051480D01*
X56316107Y-84038868D01*
X56296401Y-84024253D01*
X56278223Y-84007777D01*
X56261747Y-83989599D01*
X56247132Y-83969893D01*
X56234520Y-83948850D01*
X56224030Y-83926671D01*
X56215765Y-83903572D01*
X56209804Y-83879773D01*
X56206204Y-83855505D01*
X56205000Y-83831001D01*
X56205000Y-83180999D01*
X56206204Y-83156495D01*
X56209804Y-83132227D01*
X56215765Y-83108428D01*
X56224030Y-83085329D01*
X56234520Y-83063150D01*
X56247132Y-83042107D01*
X56261747Y-83022401D01*
X56278223Y-83004223D01*
X56296401Y-82987747D01*
X56316107Y-82973132D01*
X56337150Y-82960520D01*
X56359329Y-82950030D01*
X56382428Y-82941765D01*
X56406227Y-82935804D01*
X56430495Y-82932204D01*
X56454999Y-82931000D01*
X57355001Y-82931000D01*
X57379505Y-82932204D01*
X57379505Y-82932204D01*
G37*
D11*
X56905000Y-83506000D03*
D10*
G36*
X57379505Y-84982204D02*
X57403773Y-84985804D01*
X57427572Y-84991765D01*
X57450671Y-85000030D01*
X57472850Y-85010520D01*
X57493893Y-85023132D01*
X57513599Y-85037747D01*
X57531777Y-85054223D01*
X57548253Y-85072401D01*
X57562868Y-85092107D01*
X57575480Y-85113150D01*
X57585970Y-85135329D01*
X57594235Y-85158428D01*
X57600196Y-85182227D01*
X57603796Y-85206495D01*
X57605000Y-85230999D01*
X57605000Y-85881001D01*
X57603796Y-85905505D01*
X57600196Y-85929773D01*
X57594235Y-85953572D01*
X57585970Y-85976671D01*
X57575480Y-85998850D01*
X57562868Y-86019893D01*
X57548253Y-86039599D01*
X57531777Y-86057777D01*
X57513599Y-86074253D01*
X57493893Y-86088868D01*
X57472850Y-86101480D01*
X57450671Y-86111970D01*
X57427572Y-86120235D01*
X57403773Y-86126196D01*
X57379505Y-86129796D01*
X57355001Y-86131000D01*
X56454999Y-86131000D01*
X56430495Y-86129796D01*
X56406227Y-86126196D01*
X56382428Y-86120235D01*
X56359329Y-86111970D01*
X56337150Y-86101480D01*
X56316107Y-86088868D01*
X56296401Y-86074253D01*
X56278223Y-86057777D01*
X56261747Y-86039599D01*
X56247132Y-86019893D01*
X56234520Y-85998850D01*
X56224030Y-85976671D01*
X56215765Y-85953572D01*
X56209804Y-85929773D01*
X56206204Y-85905505D01*
X56205000Y-85881001D01*
X56205000Y-85230999D01*
X56206204Y-85206495D01*
X56209804Y-85182227D01*
X56215765Y-85158428D01*
X56224030Y-85135329D01*
X56234520Y-85113150D01*
X56247132Y-85092107D01*
X56261747Y-85072401D01*
X56278223Y-85054223D01*
X56296401Y-85037747D01*
X56316107Y-85023132D01*
X56337150Y-85010520D01*
X56359329Y-85000030D01*
X56382428Y-84991765D01*
X56406227Y-84985804D01*
X56430495Y-84982204D01*
X56454999Y-84981000D01*
X57355001Y-84981000D01*
X57379505Y-84982204D01*
X57379505Y-84982204D01*
G37*
D11*
X56905000Y-85556000D03*
G04 #@! TD*
D10*
G04 #@! TO.C,R11*
G36*
X63473505Y-72802204D02*
X63497773Y-72805804D01*
X63521572Y-72811765D01*
X63544671Y-72820030D01*
X63566850Y-72830520D01*
X63587893Y-72843132D01*
X63607599Y-72857747D01*
X63625777Y-72874223D01*
X63642253Y-72892401D01*
X63656868Y-72912107D01*
X63669480Y-72933150D01*
X63679970Y-72955329D01*
X63688235Y-72978428D01*
X63694196Y-73002227D01*
X63697796Y-73026495D01*
X63699000Y-73050999D01*
X63699000Y-73701001D01*
X63697796Y-73725505D01*
X63694196Y-73749773D01*
X63688235Y-73773572D01*
X63679970Y-73796671D01*
X63669480Y-73818850D01*
X63656868Y-73839893D01*
X63642253Y-73859599D01*
X63625777Y-73877777D01*
X63607599Y-73894253D01*
X63587893Y-73908868D01*
X63566850Y-73921480D01*
X63544671Y-73931970D01*
X63521572Y-73940235D01*
X63497773Y-73946196D01*
X63473505Y-73949796D01*
X63449001Y-73951000D01*
X62548999Y-73951000D01*
X62524495Y-73949796D01*
X62500227Y-73946196D01*
X62476428Y-73940235D01*
X62453329Y-73931970D01*
X62431150Y-73921480D01*
X62410107Y-73908868D01*
X62390401Y-73894253D01*
X62372223Y-73877777D01*
X62355747Y-73859599D01*
X62341132Y-73839893D01*
X62328520Y-73818850D01*
X62318030Y-73796671D01*
X62309765Y-73773572D01*
X62303804Y-73749773D01*
X62300204Y-73725505D01*
X62299000Y-73701001D01*
X62299000Y-73050999D01*
X62300204Y-73026495D01*
X62303804Y-73002227D01*
X62309765Y-72978428D01*
X62318030Y-72955329D01*
X62328520Y-72933150D01*
X62341132Y-72912107D01*
X62355747Y-72892401D01*
X62372223Y-72874223D01*
X62390401Y-72857747D01*
X62410107Y-72843132D01*
X62431150Y-72830520D01*
X62453329Y-72820030D01*
X62476428Y-72811765D01*
X62500227Y-72805804D01*
X62524495Y-72802204D01*
X62548999Y-72801000D01*
X63449001Y-72801000D01*
X63473505Y-72802204D01*
X63473505Y-72802204D01*
G37*
D11*
X62999000Y-73376000D03*
D10*
G36*
X63473505Y-74852204D02*
X63497773Y-74855804D01*
X63521572Y-74861765D01*
X63544671Y-74870030D01*
X63566850Y-74880520D01*
X63587893Y-74893132D01*
X63607599Y-74907747D01*
X63625777Y-74924223D01*
X63642253Y-74942401D01*
X63656868Y-74962107D01*
X63669480Y-74983150D01*
X63679970Y-75005329D01*
X63688235Y-75028428D01*
X63694196Y-75052227D01*
X63697796Y-75076495D01*
X63699000Y-75100999D01*
X63699000Y-75751001D01*
X63697796Y-75775505D01*
X63694196Y-75799773D01*
X63688235Y-75823572D01*
X63679970Y-75846671D01*
X63669480Y-75868850D01*
X63656868Y-75889893D01*
X63642253Y-75909599D01*
X63625777Y-75927777D01*
X63607599Y-75944253D01*
X63587893Y-75958868D01*
X63566850Y-75971480D01*
X63544671Y-75981970D01*
X63521572Y-75990235D01*
X63497773Y-75996196D01*
X63473505Y-75999796D01*
X63449001Y-76001000D01*
X62548999Y-76001000D01*
X62524495Y-75999796D01*
X62500227Y-75996196D01*
X62476428Y-75990235D01*
X62453329Y-75981970D01*
X62431150Y-75971480D01*
X62410107Y-75958868D01*
X62390401Y-75944253D01*
X62372223Y-75927777D01*
X62355747Y-75909599D01*
X62341132Y-75889893D01*
X62328520Y-75868850D01*
X62318030Y-75846671D01*
X62309765Y-75823572D01*
X62303804Y-75799773D01*
X62300204Y-75775505D01*
X62299000Y-75751001D01*
X62299000Y-75100999D01*
X62300204Y-75076495D01*
X62303804Y-75052227D01*
X62309765Y-75028428D01*
X62318030Y-75005329D01*
X62328520Y-74983150D01*
X62341132Y-74962107D01*
X62355747Y-74942401D01*
X62372223Y-74924223D01*
X62390401Y-74907747D01*
X62410107Y-74893132D01*
X62431150Y-74880520D01*
X62453329Y-74870030D01*
X62476428Y-74861765D01*
X62500227Y-74855804D01*
X62524495Y-74852204D01*
X62548999Y-74851000D01*
X63449001Y-74851000D01*
X63473505Y-74852204D01*
X63473505Y-74852204D01*
G37*
D11*
X62999000Y-75426000D03*
G04 #@! TD*
D10*
G04 #@! TO.C,C18*
G36*
X55058505Y-81894704D02*
X55082773Y-81898304D01*
X55106572Y-81904265D01*
X55129671Y-81912530D01*
X55151850Y-81923020D01*
X55172893Y-81935632D01*
X55192599Y-81950247D01*
X55210777Y-81966723D01*
X55227253Y-81984901D01*
X55241868Y-82004607D01*
X55254480Y-82025650D01*
X55264970Y-82047829D01*
X55273235Y-82070928D01*
X55279196Y-82094727D01*
X55282796Y-82118995D01*
X55284000Y-82143499D01*
X55284000Y-83218501D01*
X55282796Y-83243005D01*
X55279196Y-83267273D01*
X55273235Y-83291072D01*
X55264970Y-83314171D01*
X55254480Y-83336350D01*
X55241868Y-83357393D01*
X55227253Y-83377099D01*
X55210777Y-83395277D01*
X55192599Y-83411753D01*
X55172893Y-83426368D01*
X55151850Y-83438980D01*
X55129671Y-83449470D01*
X55106572Y-83457735D01*
X55082773Y-83463696D01*
X55058505Y-83467296D01*
X55034001Y-83468500D01*
X54183999Y-83468500D01*
X54159495Y-83467296D01*
X54135227Y-83463696D01*
X54111428Y-83457735D01*
X54088329Y-83449470D01*
X54066150Y-83438980D01*
X54045107Y-83426368D01*
X54025401Y-83411753D01*
X54007223Y-83395277D01*
X53990747Y-83377099D01*
X53976132Y-83357393D01*
X53963520Y-83336350D01*
X53953030Y-83314171D01*
X53944765Y-83291072D01*
X53938804Y-83267273D01*
X53935204Y-83243005D01*
X53934000Y-83218501D01*
X53934000Y-82143499D01*
X53935204Y-82118995D01*
X53938804Y-82094727D01*
X53944765Y-82070928D01*
X53953030Y-82047829D01*
X53963520Y-82025650D01*
X53976132Y-82004607D01*
X53990747Y-81984901D01*
X54007223Y-81966723D01*
X54025401Y-81950247D01*
X54045107Y-81935632D01*
X54066150Y-81923020D01*
X54088329Y-81912530D01*
X54111428Y-81904265D01*
X54135227Y-81898304D01*
X54159495Y-81894704D01*
X54183999Y-81893500D01*
X55034001Y-81893500D01*
X55058505Y-81894704D01*
X55058505Y-81894704D01*
G37*
D12*
X54609000Y-82681000D03*
D10*
G36*
X55058505Y-84769704D02*
X55082773Y-84773304D01*
X55106572Y-84779265D01*
X55129671Y-84787530D01*
X55151850Y-84798020D01*
X55172893Y-84810632D01*
X55192599Y-84825247D01*
X55210777Y-84841723D01*
X55227253Y-84859901D01*
X55241868Y-84879607D01*
X55254480Y-84900650D01*
X55264970Y-84922829D01*
X55273235Y-84945928D01*
X55279196Y-84969727D01*
X55282796Y-84993995D01*
X55284000Y-85018499D01*
X55284000Y-86093501D01*
X55282796Y-86118005D01*
X55279196Y-86142273D01*
X55273235Y-86166072D01*
X55264970Y-86189171D01*
X55254480Y-86211350D01*
X55241868Y-86232393D01*
X55227253Y-86252099D01*
X55210777Y-86270277D01*
X55192599Y-86286753D01*
X55172893Y-86301368D01*
X55151850Y-86313980D01*
X55129671Y-86324470D01*
X55106572Y-86332735D01*
X55082773Y-86338696D01*
X55058505Y-86342296D01*
X55034001Y-86343500D01*
X54183999Y-86343500D01*
X54159495Y-86342296D01*
X54135227Y-86338696D01*
X54111428Y-86332735D01*
X54088329Y-86324470D01*
X54066150Y-86313980D01*
X54045107Y-86301368D01*
X54025401Y-86286753D01*
X54007223Y-86270277D01*
X53990747Y-86252099D01*
X53976132Y-86232393D01*
X53963520Y-86211350D01*
X53953030Y-86189171D01*
X53944765Y-86166072D01*
X53938804Y-86142273D01*
X53935204Y-86118005D01*
X53934000Y-86093501D01*
X53934000Y-85018499D01*
X53935204Y-84993995D01*
X53938804Y-84969727D01*
X53944765Y-84945928D01*
X53953030Y-84922829D01*
X53963520Y-84900650D01*
X53976132Y-84879607D01*
X53990747Y-84859901D01*
X54007223Y-84841723D01*
X54025401Y-84825247D01*
X54045107Y-84810632D01*
X54066150Y-84798020D01*
X54088329Y-84787530D01*
X54111428Y-84779265D01*
X54135227Y-84773304D01*
X54159495Y-84769704D01*
X54183999Y-84768500D01*
X55034001Y-84768500D01*
X55058505Y-84769704D01*
X55058505Y-84769704D01*
G37*
D12*
X54609000Y-85556000D03*
G04 #@! TD*
D10*
G04 #@! TO.C,R7*
G36*
X80005505Y-72802204D02*
X80029773Y-72805804D01*
X80053572Y-72811765D01*
X80076671Y-72820030D01*
X80098850Y-72830520D01*
X80119893Y-72843132D01*
X80139599Y-72857747D01*
X80157777Y-72874223D01*
X80174253Y-72892401D01*
X80188868Y-72912107D01*
X80201480Y-72933150D01*
X80211970Y-72955329D01*
X80220235Y-72978428D01*
X80226196Y-73002227D01*
X80229796Y-73026495D01*
X80231000Y-73050999D01*
X80231000Y-73701001D01*
X80229796Y-73725505D01*
X80226196Y-73749773D01*
X80220235Y-73773572D01*
X80211970Y-73796671D01*
X80201480Y-73818850D01*
X80188868Y-73839893D01*
X80174253Y-73859599D01*
X80157777Y-73877777D01*
X80139599Y-73894253D01*
X80119893Y-73908868D01*
X80098850Y-73921480D01*
X80076671Y-73931970D01*
X80053572Y-73940235D01*
X80029773Y-73946196D01*
X80005505Y-73949796D01*
X79981001Y-73951000D01*
X79080999Y-73951000D01*
X79056495Y-73949796D01*
X79032227Y-73946196D01*
X79008428Y-73940235D01*
X78985329Y-73931970D01*
X78963150Y-73921480D01*
X78942107Y-73908868D01*
X78922401Y-73894253D01*
X78904223Y-73877777D01*
X78887747Y-73859599D01*
X78873132Y-73839893D01*
X78860520Y-73818850D01*
X78850030Y-73796671D01*
X78841765Y-73773572D01*
X78835804Y-73749773D01*
X78832204Y-73725505D01*
X78831000Y-73701001D01*
X78831000Y-73050999D01*
X78832204Y-73026495D01*
X78835804Y-73002227D01*
X78841765Y-72978428D01*
X78850030Y-72955329D01*
X78860520Y-72933150D01*
X78873132Y-72912107D01*
X78887747Y-72892401D01*
X78904223Y-72874223D01*
X78922401Y-72857747D01*
X78942107Y-72843132D01*
X78963150Y-72830520D01*
X78985329Y-72820030D01*
X79008428Y-72811765D01*
X79032227Y-72805804D01*
X79056495Y-72802204D01*
X79080999Y-72801000D01*
X79981001Y-72801000D01*
X80005505Y-72802204D01*
X80005505Y-72802204D01*
G37*
D11*
X79531000Y-73376000D03*
D10*
G36*
X80005505Y-74852204D02*
X80029773Y-74855804D01*
X80053572Y-74861765D01*
X80076671Y-74870030D01*
X80098850Y-74880520D01*
X80119893Y-74893132D01*
X80139599Y-74907747D01*
X80157777Y-74924223D01*
X80174253Y-74942401D01*
X80188868Y-74962107D01*
X80201480Y-74983150D01*
X80211970Y-75005329D01*
X80220235Y-75028428D01*
X80226196Y-75052227D01*
X80229796Y-75076495D01*
X80231000Y-75100999D01*
X80231000Y-75751001D01*
X80229796Y-75775505D01*
X80226196Y-75799773D01*
X80220235Y-75823572D01*
X80211970Y-75846671D01*
X80201480Y-75868850D01*
X80188868Y-75889893D01*
X80174253Y-75909599D01*
X80157777Y-75927777D01*
X80139599Y-75944253D01*
X80119893Y-75958868D01*
X80098850Y-75971480D01*
X80076671Y-75981970D01*
X80053572Y-75990235D01*
X80029773Y-75996196D01*
X80005505Y-75999796D01*
X79981001Y-76001000D01*
X79080999Y-76001000D01*
X79056495Y-75999796D01*
X79032227Y-75996196D01*
X79008428Y-75990235D01*
X78985329Y-75981970D01*
X78963150Y-75971480D01*
X78942107Y-75958868D01*
X78922401Y-75944253D01*
X78904223Y-75927777D01*
X78887747Y-75909599D01*
X78873132Y-75889893D01*
X78860520Y-75868850D01*
X78850030Y-75846671D01*
X78841765Y-75823572D01*
X78835804Y-75799773D01*
X78832204Y-75775505D01*
X78831000Y-75751001D01*
X78831000Y-75100999D01*
X78832204Y-75076495D01*
X78835804Y-75052227D01*
X78841765Y-75028428D01*
X78850030Y-75005329D01*
X78860520Y-74983150D01*
X78873132Y-74962107D01*
X78887747Y-74942401D01*
X78904223Y-74924223D01*
X78922401Y-74907747D01*
X78942107Y-74893132D01*
X78963150Y-74880520D01*
X78985329Y-74870030D01*
X79008428Y-74861765D01*
X79032227Y-74855804D01*
X79056495Y-74852204D01*
X79080999Y-74851000D01*
X79981001Y-74851000D01*
X80005505Y-74852204D01*
X80005505Y-74852204D01*
G37*
D11*
X79531000Y-75426000D03*
G04 #@! TD*
D10*
G04 #@! TO.C,C11*
G36*
X71590505Y-81894704D02*
X71614773Y-81898304D01*
X71638572Y-81904265D01*
X71661671Y-81912530D01*
X71683850Y-81923020D01*
X71704893Y-81935632D01*
X71724599Y-81950247D01*
X71742777Y-81966723D01*
X71759253Y-81984901D01*
X71773868Y-82004607D01*
X71786480Y-82025650D01*
X71796970Y-82047829D01*
X71805235Y-82070928D01*
X71811196Y-82094727D01*
X71814796Y-82118995D01*
X71816000Y-82143499D01*
X71816000Y-83218501D01*
X71814796Y-83243005D01*
X71811196Y-83267273D01*
X71805235Y-83291072D01*
X71796970Y-83314171D01*
X71786480Y-83336350D01*
X71773868Y-83357393D01*
X71759253Y-83377099D01*
X71742777Y-83395277D01*
X71724599Y-83411753D01*
X71704893Y-83426368D01*
X71683850Y-83438980D01*
X71661671Y-83449470D01*
X71638572Y-83457735D01*
X71614773Y-83463696D01*
X71590505Y-83467296D01*
X71566001Y-83468500D01*
X70715999Y-83468500D01*
X70691495Y-83467296D01*
X70667227Y-83463696D01*
X70643428Y-83457735D01*
X70620329Y-83449470D01*
X70598150Y-83438980D01*
X70577107Y-83426368D01*
X70557401Y-83411753D01*
X70539223Y-83395277D01*
X70522747Y-83377099D01*
X70508132Y-83357393D01*
X70495520Y-83336350D01*
X70485030Y-83314171D01*
X70476765Y-83291072D01*
X70470804Y-83267273D01*
X70467204Y-83243005D01*
X70466000Y-83218501D01*
X70466000Y-82143499D01*
X70467204Y-82118995D01*
X70470804Y-82094727D01*
X70476765Y-82070928D01*
X70485030Y-82047829D01*
X70495520Y-82025650D01*
X70508132Y-82004607D01*
X70522747Y-81984901D01*
X70539223Y-81966723D01*
X70557401Y-81950247D01*
X70577107Y-81935632D01*
X70598150Y-81923020D01*
X70620329Y-81912530D01*
X70643428Y-81904265D01*
X70667227Y-81898304D01*
X70691495Y-81894704D01*
X70715999Y-81893500D01*
X71566001Y-81893500D01*
X71590505Y-81894704D01*
X71590505Y-81894704D01*
G37*
D12*
X71141000Y-82681000D03*
D10*
G36*
X71590505Y-84769704D02*
X71614773Y-84773304D01*
X71638572Y-84779265D01*
X71661671Y-84787530D01*
X71683850Y-84798020D01*
X71704893Y-84810632D01*
X71724599Y-84825247D01*
X71742777Y-84841723D01*
X71759253Y-84859901D01*
X71773868Y-84879607D01*
X71786480Y-84900650D01*
X71796970Y-84922829D01*
X71805235Y-84945928D01*
X71811196Y-84969727D01*
X71814796Y-84993995D01*
X71816000Y-85018499D01*
X71816000Y-86093501D01*
X71814796Y-86118005D01*
X71811196Y-86142273D01*
X71805235Y-86166072D01*
X71796970Y-86189171D01*
X71786480Y-86211350D01*
X71773868Y-86232393D01*
X71759253Y-86252099D01*
X71742777Y-86270277D01*
X71724599Y-86286753D01*
X71704893Y-86301368D01*
X71683850Y-86313980D01*
X71661671Y-86324470D01*
X71638572Y-86332735D01*
X71614773Y-86338696D01*
X71590505Y-86342296D01*
X71566001Y-86343500D01*
X70715999Y-86343500D01*
X70691495Y-86342296D01*
X70667227Y-86338696D01*
X70643428Y-86332735D01*
X70620329Y-86324470D01*
X70598150Y-86313980D01*
X70577107Y-86301368D01*
X70557401Y-86286753D01*
X70539223Y-86270277D01*
X70522747Y-86252099D01*
X70508132Y-86232393D01*
X70495520Y-86211350D01*
X70485030Y-86189171D01*
X70476765Y-86166072D01*
X70470804Y-86142273D01*
X70467204Y-86118005D01*
X70466000Y-86093501D01*
X70466000Y-85018499D01*
X70467204Y-84993995D01*
X70470804Y-84969727D01*
X70476765Y-84945928D01*
X70485030Y-84922829D01*
X70495520Y-84900650D01*
X70508132Y-84879607D01*
X70522747Y-84859901D01*
X70539223Y-84841723D01*
X70557401Y-84825247D01*
X70577107Y-84810632D01*
X70598150Y-84798020D01*
X70620329Y-84787530D01*
X70643428Y-84779265D01*
X70667227Y-84773304D01*
X70691495Y-84769704D01*
X70715999Y-84768500D01*
X71566001Y-84768500D01*
X71590505Y-84769704D01*
X71590505Y-84769704D01*
G37*
D12*
X71141000Y-85556000D03*
G04 #@! TD*
D10*
G04 #@! TO.C,R8*
G36*
X77955505Y-72802204D02*
X77979773Y-72805804D01*
X78003572Y-72811765D01*
X78026671Y-72820030D01*
X78048850Y-72830520D01*
X78069893Y-72843132D01*
X78089599Y-72857747D01*
X78107777Y-72874223D01*
X78124253Y-72892401D01*
X78138868Y-72912107D01*
X78151480Y-72933150D01*
X78161970Y-72955329D01*
X78170235Y-72978428D01*
X78176196Y-73002227D01*
X78179796Y-73026495D01*
X78181000Y-73050999D01*
X78181000Y-73701001D01*
X78179796Y-73725505D01*
X78176196Y-73749773D01*
X78170235Y-73773572D01*
X78161970Y-73796671D01*
X78151480Y-73818850D01*
X78138868Y-73839893D01*
X78124253Y-73859599D01*
X78107777Y-73877777D01*
X78089599Y-73894253D01*
X78069893Y-73908868D01*
X78048850Y-73921480D01*
X78026671Y-73931970D01*
X78003572Y-73940235D01*
X77979773Y-73946196D01*
X77955505Y-73949796D01*
X77931001Y-73951000D01*
X77030999Y-73951000D01*
X77006495Y-73949796D01*
X76982227Y-73946196D01*
X76958428Y-73940235D01*
X76935329Y-73931970D01*
X76913150Y-73921480D01*
X76892107Y-73908868D01*
X76872401Y-73894253D01*
X76854223Y-73877777D01*
X76837747Y-73859599D01*
X76823132Y-73839893D01*
X76810520Y-73818850D01*
X76800030Y-73796671D01*
X76791765Y-73773572D01*
X76785804Y-73749773D01*
X76782204Y-73725505D01*
X76781000Y-73701001D01*
X76781000Y-73050999D01*
X76782204Y-73026495D01*
X76785804Y-73002227D01*
X76791765Y-72978428D01*
X76800030Y-72955329D01*
X76810520Y-72933150D01*
X76823132Y-72912107D01*
X76837747Y-72892401D01*
X76854223Y-72874223D01*
X76872401Y-72857747D01*
X76892107Y-72843132D01*
X76913150Y-72830520D01*
X76935329Y-72820030D01*
X76958428Y-72811765D01*
X76982227Y-72805804D01*
X77006495Y-72802204D01*
X77030999Y-72801000D01*
X77931001Y-72801000D01*
X77955505Y-72802204D01*
X77955505Y-72802204D01*
G37*
D11*
X77481000Y-73376000D03*
D10*
G36*
X77955505Y-74852204D02*
X77979773Y-74855804D01*
X78003572Y-74861765D01*
X78026671Y-74870030D01*
X78048850Y-74880520D01*
X78069893Y-74893132D01*
X78089599Y-74907747D01*
X78107777Y-74924223D01*
X78124253Y-74942401D01*
X78138868Y-74962107D01*
X78151480Y-74983150D01*
X78161970Y-75005329D01*
X78170235Y-75028428D01*
X78176196Y-75052227D01*
X78179796Y-75076495D01*
X78181000Y-75100999D01*
X78181000Y-75751001D01*
X78179796Y-75775505D01*
X78176196Y-75799773D01*
X78170235Y-75823572D01*
X78161970Y-75846671D01*
X78151480Y-75868850D01*
X78138868Y-75889893D01*
X78124253Y-75909599D01*
X78107777Y-75927777D01*
X78089599Y-75944253D01*
X78069893Y-75958868D01*
X78048850Y-75971480D01*
X78026671Y-75981970D01*
X78003572Y-75990235D01*
X77979773Y-75996196D01*
X77955505Y-75999796D01*
X77931001Y-76001000D01*
X77030999Y-76001000D01*
X77006495Y-75999796D01*
X76982227Y-75996196D01*
X76958428Y-75990235D01*
X76935329Y-75981970D01*
X76913150Y-75971480D01*
X76892107Y-75958868D01*
X76872401Y-75944253D01*
X76854223Y-75927777D01*
X76837747Y-75909599D01*
X76823132Y-75889893D01*
X76810520Y-75868850D01*
X76800030Y-75846671D01*
X76791765Y-75823572D01*
X76785804Y-75799773D01*
X76782204Y-75775505D01*
X76781000Y-75751001D01*
X76781000Y-75100999D01*
X76782204Y-75076495D01*
X76785804Y-75052227D01*
X76791765Y-75028428D01*
X76800030Y-75005329D01*
X76810520Y-74983150D01*
X76823132Y-74962107D01*
X76837747Y-74942401D01*
X76854223Y-74924223D01*
X76872401Y-74907747D01*
X76892107Y-74893132D01*
X76913150Y-74880520D01*
X76935329Y-74870030D01*
X76958428Y-74861765D01*
X76982227Y-74855804D01*
X77006495Y-74852204D01*
X77030999Y-74851000D01*
X77931001Y-74851000D01*
X77955505Y-74852204D01*
X77955505Y-74852204D01*
G37*
D11*
X77481000Y-75426000D03*
G04 #@! TD*
D10*
G04 #@! TO.C,C7*
G36*
X77830505Y-79411204D02*
X77854773Y-79414804D01*
X77878572Y-79420765D01*
X77901671Y-79429030D01*
X77923850Y-79439520D01*
X77944893Y-79452132D01*
X77964599Y-79466747D01*
X77982777Y-79483223D01*
X77999253Y-79501401D01*
X78013868Y-79521107D01*
X78026480Y-79542150D01*
X78036970Y-79564329D01*
X78045235Y-79587428D01*
X78051196Y-79611227D01*
X78054796Y-79635495D01*
X78056000Y-79659999D01*
X78056000Y-80560001D01*
X78054796Y-80584505D01*
X78051196Y-80608773D01*
X78045235Y-80632572D01*
X78036970Y-80655671D01*
X78026480Y-80677850D01*
X78013868Y-80698893D01*
X77999253Y-80718599D01*
X77982777Y-80736777D01*
X77964599Y-80753253D01*
X77944893Y-80767868D01*
X77923850Y-80780480D01*
X77901671Y-80790970D01*
X77878572Y-80799235D01*
X77854773Y-80805196D01*
X77830505Y-80808796D01*
X77806001Y-80810000D01*
X77155999Y-80810000D01*
X77131495Y-80808796D01*
X77107227Y-80805196D01*
X77083428Y-80799235D01*
X77060329Y-80790970D01*
X77038150Y-80780480D01*
X77017107Y-80767868D01*
X76997401Y-80753253D01*
X76979223Y-80736777D01*
X76962747Y-80718599D01*
X76948132Y-80698893D01*
X76935520Y-80677850D01*
X76925030Y-80655671D01*
X76916765Y-80632572D01*
X76910804Y-80608773D01*
X76907204Y-80584505D01*
X76906000Y-80560001D01*
X76906000Y-79659999D01*
X76907204Y-79635495D01*
X76910804Y-79611227D01*
X76916765Y-79587428D01*
X76925030Y-79564329D01*
X76935520Y-79542150D01*
X76948132Y-79521107D01*
X76962747Y-79501401D01*
X76979223Y-79483223D01*
X76997401Y-79466747D01*
X77017107Y-79452132D01*
X77038150Y-79439520D01*
X77060329Y-79429030D01*
X77083428Y-79420765D01*
X77107227Y-79414804D01*
X77131495Y-79411204D01*
X77155999Y-79410000D01*
X77806001Y-79410000D01*
X77830505Y-79411204D01*
X77830505Y-79411204D01*
G37*
D11*
X77481000Y-80110000D03*
D10*
G36*
X79880505Y-79411204D02*
X79904773Y-79414804D01*
X79928572Y-79420765D01*
X79951671Y-79429030D01*
X79973850Y-79439520D01*
X79994893Y-79452132D01*
X80014599Y-79466747D01*
X80032777Y-79483223D01*
X80049253Y-79501401D01*
X80063868Y-79521107D01*
X80076480Y-79542150D01*
X80086970Y-79564329D01*
X80095235Y-79587428D01*
X80101196Y-79611227D01*
X80104796Y-79635495D01*
X80106000Y-79659999D01*
X80106000Y-80560001D01*
X80104796Y-80584505D01*
X80101196Y-80608773D01*
X80095235Y-80632572D01*
X80086970Y-80655671D01*
X80076480Y-80677850D01*
X80063868Y-80698893D01*
X80049253Y-80718599D01*
X80032777Y-80736777D01*
X80014599Y-80753253D01*
X79994893Y-80767868D01*
X79973850Y-80780480D01*
X79951671Y-80790970D01*
X79928572Y-80799235D01*
X79904773Y-80805196D01*
X79880505Y-80808796D01*
X79856001Y-80810000D01*
X79205999Y-80810000D01*
X79181495Y-80808796D01*
X79157227Y-80805196D01*
X79133428Y-80799235D01*
X79110329Y-80790970D01*
X79088150Y-80780480D01*
X79067107Y-80767868D01*
X79047401Y-80753253D01*
X79029223Y-80736777D01*
X79012747Y-80718599D01*
X78998132Y-80698893D01*
X78985520Y-80677850D01*
X78975030Y-80655671D01*
X78966765Y-80632572D01*
X78960804Y-80608773D01*
X78957204Y-80584505D01*
X78956000Y-80560001D01*
X78956000Y-79659999D01*
X78957204Y-79635495D01*
X78960804Y-79611227D01*
X78966765Y-79587428D01*
X78975030Y-79564329D01*
X78985520Y-79542150D01*
X78998132Y-79521107D01*
X79012747Y-79501401D01*
X79029223Y-79483223D01*
X79047401Y-79466747D01*
X79067107Y-79452132D01*
X79088150Y-79439520D01*
X79110329Y-79429030D01*
X79133428Y-79420765D01*
X79157227Y-79414804D01*
X79181495Y-79411204D01*
X79205999Y-79410000D01*
X79856001Y-79410000D01*
X79880505Y-79411204D01*
X79880505Y-79411204D01*
G37*
D11*
X79531000Y-80110000D03*
G04 #@! TD*
D10*
G04 #@! TO.C,C8*
G36*
X75780505Y-77115995D02*
X75804773Y-77119595D01*
X75828572Y-77125556D01*
X75851671Y-77133821D01*
X75873850Y-77144311D01*
X75894893Y-77156923D01*
X75914599Y-77171538D01*
X75932777Y-77188014D01*
X75949253Y-77206192D01*
X75963868Y-77225898D01*
X75976480Y-77246941D01*
X75986970Y-77269120D01*
X75995235Y-77292219D01*
X76001196Y-77316018D01*
X76004796Y-77340286D01*
X76006000Y-77364790D01*
X76006000Y-78264792D01*
X76004796Y-78289296D01*
X76001196Y-78313564D01*
X75995235Y-78337363D01*
X75986970Y-78360462D01*
X75976480Y-78382641D01*
X75963868Y-78403684D01*
X75949253Y-78423390D01*
X75932777Y-78441568D01*
X75914599Y-78458044D01*
X75894893Y-78472659D01*
X75873850Y-78485271D01*
X75851671Y-78495761D01*
X75828572Y-78504026D01*
X75804773Y-78509987D01*
X75780505Y-78513587D01*
X75756001Y-78514791D01*
X75105999Y-78514791D01*
X75081495Y-78513587D01*
X75057227Y-78509987D01*
X75033428Y-78504026D01*
X75010329Y-78495761D01*
X74988150Y-78485271D01*
X74967107Y-78472659D01*
X74947401Y-78458044D01*
X74929223Y-78441568D01*
X74912747Y-78423390D01*
X74898132Y-78403684D01*
X74885520Y-78382641D01*
X74875030Y-78360462D01*
X74866765Y-78337363D01*
X74860804Y-78313564D01*
X74857204Y-78289296D01*
X74856000Y-78264792D01*
X74856000Y-77364790D01*
X74857204Y-77340286D01*
X74860804Y-77316018D01*
X74866765Y-77292219D01*
X74875030Y-77269120D01*
X74885520Y-77246941D01*
X74898132Y-77225898D01*
X74912747Y-77206192D01*
X74929223Y-77188014D01*
X74947401Y-77171538D01*
X74967107Y-77156923D01*
X74988150Y-77144311D01*
X75010329Y-77133821D01*
X75033428Y-77125556D01*
X75057227Y-77119595D01*
X75081495Y-77115995D01*
X75105999Y-77114791D01*
X75756001Y-77114791D01*
X75780505Y-77115995D01*
X75780505Y-77115995D01*
G37*
D11*
X75431000Y-77814791D03*
D10*
G36*
X77830505Y-77115995D02*
X77854773Y-77119595D01*
X77878572Y-77125556D01*
X77901671Y-77133821D01*
X77923850Y-77144311D01*
X77944893Y-77156923D01*
X77964599Y-77171538D01*
X77982777Y-77188014D01*
X77999253Y-77206192D01*
X78013868Y-77225898D01*
X78026480Y-77246941D01*
X78036970Y-77269120D01*
X78045235Y-77292219D01*
X78051196Y-77316018D01*
X78054796Y-77340286D01*
X78056000Y-77364790D01*
X78056000Y-78264792D01*
X78054796Y-78289296D01*
X78051196Y-78313564D01*
X78045235Y-78337363D01*
X78036970Y-78360462D01*
X78026480Y-78382641D01*
X78013868Y-78403684D01*
X77999253Y-78423390D01*
X77982777Y-78441568D01*
X77964599Y-78458044D01*
X77944893Y-78472659D01*
X77923850Y-78485271D01*
X77901671Y-78495761D01*
X77878572Y-78504026D01*
X77854773Y-78509987D01*
X77830505Y-78513587D01*
X77806001Y-78514791D01*
X77155999Y-78514791D01*
X77131495Y-78513587D01*
X77107227Y-78509987D01*
X77083428Y-78504026D01*
X77060329Y-78495761D01*
X77038150Y-78485271D01*
X77017107Y-78472659D01*
X76997401Y-78458044D01*
X76979223Y-78441568D01*
X76962747Y-78423390D01*
X76948132Y-78403684D01*
X76935520Y-78382641D01*
X76925030Y-78360462D01*
X76916765Y-78337363D01*
X76910804Y-78313564D01*
X76907204Y-78289296D01*
X76906000Y-78264792D01*
X76906000Y-77364790D01*
X76907204Y-77340286D01*
X76910804Y-77316018D01*
X76916765Y-77292219D01*
X76925030Y-77269120D01*
X76935520Y-77246941D01*
X76948132Y-77225898D01*
X76962747Y-77206192D01*
X76979223Y-77188014D01*
X76997401Y-77171538D01*
X77017107Y-77156923D01*
X77038150Y-77144311D01*
X77060329Y-77133821D01*
X77083428Y-77125556D01*
X77107227Y-77119595D01*
X77131495Y-77115995D01*
X77155999Y-77114791D01*
X77806001Y-77114791D01*
X77830505Y-77115995D01*
X77830505Y-77115995D01*
G37*
D11*
X77481000Y-77814791D03*
G04 #@! TD*
D10*
G04 #@! TO.C,R9*
G36*
X75905505Y-72802204D02*
X75929773Y-72805804D01*
X75953572Y-72811765D01*
X75976671Y-72820030D01*
X75998850Y-72830520D01*
X76019893Y-72843132D01*
X76039599Y-72857747D01*
X76057777Y-72874223D01*
X76074253Y-72892401D01*
X76088868Y-72912107D01*
X76101480Y-72933150D01*
X76111970Y-72955329D01*
X76120235Y-72978428D01*
X76126196Y-73002227D01*
X76129796Y-73026495D01*
X76131000Y-73050999D01*
X76131000Y-73701001D01*
X76129796Y-73725505D01*
X76126196Y-73749773D01*
X76120235Y-73773572D01*
X76111970Y-73796671D01*
X76101480Y-73818850D01*
X76088868Y-73839893D01*
X76074253Y-73859599D01*
X76057777Y-73877777D01*
X76039599Y-73894253D01*
X76019893Y-73908868D01*
X75998850Y-73921480D01*
X75976671Y-73931970D01*
X75953572Y-73940235D01*
X75929773Y-73946196D01*
X75905505Y-73949796D01*
X75881001Y-73951000D01*
X74980999Y-73951000D01*
X74956495Y-73949796D01*
X74932227Y-73946196D01*
X74908428Y-73940235D01*
X74885329Y-73931970D01*
X74863150Y-73921480D01*
X74842107Y-73908868D01*
X74822401Y-73894253D01*
X74804223Y-73877777D01*
X74787747Y-73859599D01*
X74773132Y-73839893D01*
X74760520Y-73818850D01*
X74750030Y-73796671D01*
X74741765Y-73773572D01*
X74735804Y-73749773D01*
X74732204Y-73725505D01*
X74731000Y-73701001D01*
X74731000Y-73050999D01*
X74732204Y-73026495D01*
X74735804Y-73002227D01*
X74741765Y-72978428D01*
X74750030Y-72955329D01*
X74760520Y-72933150D01*
X74773132Y-72912107D01*
X74787747Y-72892401D01*
X74804223Y-72874223D01*
X74822401Y-72857747D01*
X74842107Y-72843132D01*
X74863150Y-72830520D01*
X74885329Y-72820030D01*
X74908428Y-72811765D01*
X74932227Y-72805804D01*
X74956495Y-72802204D01*
X74980999Y-72801000D01*
X75881001Y-72801000D01*
X75905505Y-72802204D01*
X75905505Y-72802204D01*
G37*
D11*
X75431000Y-73376000D03*
D10*
G36*
X75905505Y-74852204D02*
X75929773Y-74855804D01*
X75953572Y-74861765D01*
X75976671Y-74870030D01*
X75998850Y-74880520D01*
X76019893Y-74893132D01*
X76039599Y-74907747D01*
X76057777Y-74924223D01*
X76074253Y-74942401D01*
X76088868Y-74962107D01*
X76101480Y-74983150D01*
X76111970Y-75005329D01*
X76120235Y-75028428D01*
X76126196Y-75052227D01*
X76129796Y-75076495D01*
X76131000Y-75100999D01*
X76131000Y-75751001D01*
X76129796Y-75775505D01*
X76126196Y-75799773D01*
X76120235Y-75823572D01*
X76111970Y-75846671D01*
X76101480Y-75868850D01*
X76088868Y-75889893D01*
X76074253Y-75909599D01*
X76057777Y-75927777D01*
X76039599Y-75944253D01*
X76019893Y-75958868D01*
X75998850Y-75971480D01*
X75976671Y-75981970D01*
X75953572Y-75990235D01*
X75929773Y-75996196D01*
X75905505Y-75999796D01*
X75881001Y-76001000D01*
X74980999Y-76001000D01*
X74956495Y-75999796D01*
X74932227Y-75996196D01*
X74908428Y-75990235D01*
X74885329Y-75981970D01*
X74863150Y-75971480D01*
X74842107Y-75958868D01*
X74822401Y-75944253D01*
X74804223Y-75927777D01*
X74787747Y-75909599D01*
X74773132Y-75889893D01*
X74760520Y-75868850D01*
X74750030Y-75846671D01*
X74741765Y-75823572D01*
X74735804Y-75799773D01*
X74732204Y-75775505D01*
X74731000Y-75751001D01*
X74731000Y-75100999D01*
X74732204Y-75076495D01*
X74735804Y-75052227D01*
X74741765Y-75028428D01*
X74750030Y-75005329D01*
X74760520Y-74983150D01*
X74773132Y-74962107D01*
X74787747Y-74942401D01*
X74804223Y-74924223D01*
X74822401Y-74907747D01*
X74842107Y-74893132D01*
X74863150Y-74880520D01*
X74885329Y-74870030D01*
X74908428Y-74861765D01*
X74932227Y-74855804D01*
X74956495Y-74852204D01*
X74980999Y-74851000D01*
X75881001Y-74851000D01*
X75905505Y-74852204D01*
X75905505Y-74852204D01*
G37*
D11*
X75431000Y-75426000D03*
G04 #@! TD*
D10*
G04 #@! TO.C,C10*
G36*
X73911505Y-82932204D02*
X73935773Y-82935804D01*
X73959572Y-82941765D01*
X73982671Y-82950030D01*
X74004850Y-82960520D01*
X74025893Y-82973132D01*
X74045599Y-82987747D01*
X74063777Y-83004223D01*
X74080253Y-83022401D01*
X74094868Y-83042107D01*
X74107480Y-83063150D01*
X74117970Y-83085329D01*
X74126235Y-83108428D01*
X74132196Y-83132227D01*
X74135796Y-83156495D01*
X74137000Y-83180999D01*
X74137000Y-83831001D01*
X74135796Y-83855505D01*
X74132196Y-83879773D01*
X74126235Y-83903572D01*
X74117970Y-83926671D01*
X74107480Y-83948850D01*
X74094868Y-83969893D01*
X74080253Y-83989599D01*
X74063777Y-84007777D01*
X74045599Y-84024253D01*
X74025893Y-84038868D01*
X74004850Y-84051480D01*
X73982671Y-84061970D01*
X73959572Y-84070235D01*
X73935773Y-84076196D01*
X73911505Y-84079796D01*
X73887001Y-84081000D01*
X72986999Y-84081000D01*
X72962495Y-84079796D01*
X72938227Y-84076196D01*
X72914428Y-84070235D01*
X72891329Y-84061970D01*
X72869150Y-84051480D01*
X72848107Y-84038868D01*
X72828401Y-84024253D01*
X72810223Y-84007777D01*
X72793747Y-83989599D01*
X72779132Y-83969893D01*
X72766520Y-83948850D01*
X72756030Y-83926671D01*
X72747765Y-83903572D01*
X72741804Y-83879773D01*
X72738204Y-83855505D01*
X72737000Y-83831001D01*
X72737000Y-83180999D01*
X72738204Y-83156495D01*
X72741804Y-83132227D01*
X72747765Y-83108428D01*
X72756030Y-83085329D01*
X72766520Y-83063150D01*
X72779132Y-83042107D01*
X72793747Y-83022401D01*
X72810223Y-83004223D01*
X72828401Y-82987747D01*
X72848107Y-82973132D01*
X72869150Y-82960520D01*
X72891329Y-82950030D01*
X72914428Y-82941765D01*
X72938227Y-82935804D01*
X72962495Y-82932204D01*
X72986999Y-82931000D01*
X73887001Y-82931000D01*
X73911505Y-82932204D01*
X73911505Y-82932204D01*
G37*
D11*
X73437000Y-83506000D03*
D10*
G36*
X73911505Y-84982204D02*
X73935773Y-84985804D01*
X73959572Y-84991765D01*
X73982671Y-85000030D01*
X74004850Y-85010520D01*
X74025893Y-85023132D01*
X74045599Y-85037747D01*
X74063777Y-85054223D01*
X74080253Y-85072401D01*
X74094868Y-85092107D01*
X74107480Y-85113150D01*
X74117970Y-85135329D01*
X74126235Y-85158428D01*
X74132196Y-85182227D01*
X74135796Y-85206495D01*
X74137000Y-85230999D01*
X74137000Y-85881001D01*
X74135796Y-85905505D01*
X74132196Y-85929773D01*
X74126235Y-85953572D01*
X74117970Y-85976671D01*
X74107480Y-85998850D01*
X74094868Y-86019893D01*
X74080253Y-86039599D01*
X74063777Y-86057777D01*
X74045599Y-86074253D01*
X74025893Y-86088868D01*
X74004850Y-86101480D01*
X73982671Y-86111970D01*
X73959572Y-86120235D01*
X73935773Y-86126196D01*
X73911505Y-86129796D01*
X73887001Y-86131000D01*
X72986999Y-86131000D01*
X72962495Y-86129796D01*
X72938227Y-86126196D01*
X72914428Y-86120235D01*
X72891329Y-86111970D01*
X72869150Y-86101480D01*
X72848107Y-86088868D01*
X72828401Y-86074253D01*
X72810223Y-86057777D01*
X72793747Y-86039599D01*
X72779132Y-86019893D01*
X72766520Y-85998850D01*
X72756030Y-85976671D01*
X72747765Y-85953572D01*
X72741804Y-85929773D01*
X72738204Y-85905505D01*
X72737000Y-85881001D01*
X72737000Y-85230999D01*
X72738204Y-85206495D01*
X72741804Y-85182227D01*
X72747765Y-85158428D01*
X72756030Y-85135329D01*
X72766520Y-85113150D01*
X72779132Y-85092107D01*
X72793747Y-85072401D01*
X72810223Y-85054223D01*
X72828401Y-85037747D01*
X72848107Y-85023132D01*
X72869150Y-85010520D01*
X72891329Y-85000030D01*
X72914428Y-84991765D01*
X72938227Y-84985804D01*
X72962495Y-84982204D01*
X72986999Y-84981000D01*
X73887001Y-84981000D01*
X73911505Y-84982204D01*
X73911505Y-84982204D01*
G37*
D11*
X73437000Y-85556000D03*
G04 #@! TD*
D10*
G04 #@! TO.C,C5*
G36*
X79930505Y-82932204D02*
X79954773Y-82935804D01*
X79978572Y-82941765D01*
X80001671Y-82950030D01*
X80023850Y-82960520D01*
X80044893Y-82973132D01*
X80064599Y-82987747D01*
X80082777Y-83004223D01*
X80099253Y-83022401D01*
X80113868Y-83042107D01*
X80126480Y-83063150D01*
X80136970Y-83085329D01*
X80145235Y-83108428D01*
X80151196Y-83132227D01*
X80154796Y-83156495D01*
X80156000Y-83180999D01*
X80156000Y-83831001D01*
X80154796Y-83855505D01*
X80151196Y-83879773D01*
X80145235Y-83903572D01*
X80136970Y-83926671D01*
X80126480Y-83948850D01*
X80113868Y-83969893D01*
X80099253Y-83989599D01*
X80082777Y-84007777D01*
X80064599Y-84024253D01*
X80044893Y-84038868D01*
X80023850Y-84051480D01*
X80001671Y-84061970D01*
X79978572Y-84070235D01*
X79954773Y-84076196D01*
X79930505Y-84079796D01*
X79906001Y-84081000D01*
X79005999Y-84081000D01*
X78981495Y-84079796D01*
X78957227Y-84076196D01*
X78933428Y-84070235D01*
X78910329Y-84061970D01*
X78888150Y-84051480D01*
X78867107Y-84038868D01*
X78847401Y-84024253D01*
X78829223Y-84007777D01*
X78812747Y-83989599D01*
X78798132Y-83969893D01*
X78785520Y-83948850D01*
X78775030Y-83926671D01*
X78766765Y-83903572D01*
X78760804Y-83879773D01*
X78757204Y-83855505D01*
X78756000Y-83831001D01*
X78756000Y-83180999D01*
X78757204Y-83156495D01*
X78760804Y-83132227D01*
X78766765Y-83108428D01*
X78775030Y-83085329D01*
X78785520Y-83063150D01*
X78798132Y-83042107D01*
X78812747Y-83022401D01*
X78829223Y-83004223D01*
X78847401Y-82987747D01*
X78867107Y-82973132D01*
X78888150Y-82960520D01*
X78910329Y-82950030D01*
X78933428Y-82941765D01*
X78957227Y-82935804D01*
X78981495Y-82932204D01*
X79005999Y-82931000D01*
X79906001Y-82931000D01*
X79930505Y-82932204D01*
X79930505Y-82932204D01*
G37*
D11*
X79456000Y-83506000D03*
D10*
G36*
X79930505Y-84982204D02*
X79954773Y-84985804D01*
X79978572Y-84991765D01*
X80001671Y-85000030D01*
X80023850Y-85010520D01*
X80044893Y-85023132D01*
X80064599Y-85037747D01*
X80082777Y-85054223D01*
X80099253Y-85072401D01*
X80113868Y-85092107D01*
X80126480Y-85113150D01*
X80136970Y-85135329D01*
X80145235Y-85158428D01*
X80151196Y-85182227D01*
X80154796Y-85206495D01*
X80156000Y-85230999D01*
X80156000Y-85881001D01*
X80154796Y-85905505D01*
X80151196Y-85929773D01*
X80145235Y-85953572D01*
X80136970Y-85976671D01*
X80126480Y-85998850D01*
X80113868Y-86019893D01*
X80099253Y-86039599D01*
X80082777Y-86057777D01*
X80064599Y-86074253D01*
X80044893Y-86088868D01*
X80023850Y-86101480D01*
X80001671Y-86111970D01*
X79978572Y-86120235D01*
X79954773Y-86126196D01*
X79930505Y-86129796D01*
X79906001Y-86131000D01*
X79005999Y-86131000D01*
X78981495Y-86129796D01*
X78957227Y-86126196D01*
X78933428Y-86120235D01*
X78910329Y-86111970D01*
X78888150Y-86101480D01*
X78867107Y-86088868D01*
X78847401Y-86074253D01*
X78829223Y-86057777D01*
X78812747Y-86039599D01*
X78798132Y-86019893D01*
X78785520Y-85998850D01*
X78775030Y-85976671D01*
X78766765Y-85953572D01*
X78760804Y-85929773D01*
X78757204Y-85905505D01*
X78756000Y-85881001D01*
X78756000Y-85230999D01*
X78757204Y-85206495D01*
X78760804Y-85182227D01*
X78766765Y-85158428D01*
X78775030Y-85135329D01*
X78785520Y-85113150D01*
X78798132Y-85092107D01*
X78812747Y-85072401D01*
X78829223Y-85054223D01*
X78847401Y-85037747D01*
X78867107Y-85023132D01*
X78888150Y-85010520D01*
X78910329Y-85000030D01*
X78933428Y-84991765D01*
X78957227Y-84985804D01*
X78981495Y-84982204D01*
X79005999Y-84981000D01*
X79906001Y-84981000D01*
X79930505Y-84982204D01*
X79930505Y-84982204D01*
G37*
D11*
X79456000Y-85556000D03*
G04 #@! TD*
D10*
G04 #@! TO.C,C6*
G36*
X85930505Y-82932204D02*
X85954773Y-82935804D01*
X85978572Y-82941765D01*
X86001671Y-82950030D01*
X86023850Y-82960520D01*
X86044893Y-82973132D01*
X86064599Y-82987747D01*
X86082777Y-83004223D01*
X86099253Y-83022401D01*
X86113868Y-83042107D01*
X86126480Y-83063150D01*
X86136970Y-83085329D01*
X86145235Y-83108428D01*
X86151196Y-83132227D01*
X86154796Y-83156495D01*
X86156000Y-83180999D01*
X86156000Y-83831001D01*
X86154796Y-83855505D01*
X86151196Y-83879773D01*
X86145235Y-83903572D01*
X86136970Y-83926671D01*
X86126480Y-83948850D01*
X86113868Y-83969893D01*
X86099253Y-83989599D01*
X86082777Y-84007777D01*
X86064599Y-84024253D01*
X86044893Y-84038868D01*
X86023850Y-84051480D01*
X86001671Y-84061970D01*
X85978572Y-84070235D01*
X85954773Y-84076196D01*
X85930505Y-84079796D01*
X85906001Y-84081000D01*
X85005999Y-84081000D01*
X84981495Y-84079796D01*
X84957227Y-84076196D01*
X84933428Y-84070235D01*
X84910329Y-84061970D01*
X84888150Y-84051480D01*
X84867107Y-84038868D01*
X84847401Y-84024253D01*
X84829223Y-84007777D01*
X84812747Y-83989599D01*
X84798132Y-83969893D01*
X84785520Y-83948850D01*
X84775030Y-83926671D01*
X84766765Y-83903572D01*
X84760804Y-83879773D01*
X84757204Y-83855505D01*
X84756000Y-83831001D01*
X84756000Y-83180999D01*
X84757204Y-83156495D01*
X84760804Y-83132227D01*
X84766765Y-83108428D01*
X84775030Y-83085329D01*
X84785520Y-83063150D01*
X84798132Y-83042107D01*
X84812747Y-83022401D01*
X84829223Y-83004223D01*
X84847401Y-82987747D01*
X84867107Y-82973132D01*
X84888150Y-82960520D01*
X84910329Y-82950030D01*
X84933428Y-82941765D01*
X84957227Y-82935804D01*
X84981495Y-82932204D01*
X85005999Y-82931000D01*
X85906001Y-82931000D01*
X85930505Y-82932204D01*
X85930505Y-82932204D01*
G37*
D11*
X85456000Y-83506000D03*
D10*
G36*
X85930505Y-84982204D02*
X85954773Y-84985804D01*
X85978572Y-84991765D01*
X86001671Y-85000030D01*
X86023850Y-85010520D01*
X86044893Y-85023132D01*
X86064599Y-85037747D01*
X86082777Y-85054223D01*
X86099253Y-85072401D01*
X86113868Y-85092107D01*
X86126480Y-85113150D01*
X86136970Y-85135329D01*
X86145235Y-85158428D01*
X86151196Y-85182227D01*
X86154796Y-85206495D01*
X86156000Y-85230999D01*
X86156000Y-85881001D01*
X86154796Y-85905505D01*
X86151196Y-85929773D01*
X86145235Y-85953572D01*
X86136970Y-85976671D01*
X86126480Y-85998850D01*
X86113868Y-86019893D01*
X86099253Y-86039599D01*
X86082777Y-86057777D01*
X86064599Y-86074253D01*
X86044893Y-86088868D01*
X86023850Y-86101480D01*
X86001671Y-86111970D01*
X85978572Y-86120235D01*
X85954773Y-86126196D01*
X85930505Y-86129796D01*
X85906001Y-86131000D01*
X85005999Y-86131000D01*
X84981495Y-86129796D01*
X84957227Y-86126196D01*
X84933428Y-86120235D01*
X84910329Y-86111970D01*
X84888150Y-86101480D01*
X84867107Y-86088868D01*
X84847401Y-86074253D01*
X84829223Y-86057777D01*
X84812747Y-86039599D01*
X84798132Y-86019893D01*
X84785520Y-85998850D01*
X84775030Y-85976671D01*
X84766765Y-85953572D01*
X84760804Y-85929773D01*
X84757204Y-85905505D01*
X84756000Y-85881001D01*
X84756000Y-85230999D01*
X84757204Y-85206495D01*
X84760804Y-85182227D01*
X84766765Y-85158428D01*
X84775030Y-85135329D01*
X84785520Y-85113150D01*
X84798132Y-85092107D01*
X84812747Y-85072401D01*
X84829223Y-85054223D01*
X84847401Y-85037747D01*
X84867107Y-85023132D01*
X84888150Y-85010520D01*
X84910329Y-85000030D01*
X84933428Y-84991765D01*
X84957227Y-84985804D01*
X84981495Y-84982204D01*
X85005999Y-84981000D01*
X85906001Y-84981000D01*
X85930505Y-84982204D01*
X85930505Y-84982204D01*
G37*
D11*
X85456000Y-85556000D03*
G04 #@! TD*
D10*
G04 #@! TO.C,C9*
G36*
X73730505Y-79411204D02*
X73754773Y-79414804D01*
X73778572Y-79420765D01*
X73801671Y-79429030D01*
X73823850Y-79439520D01*
X73844893Y-79452132D01*
X73864599Y-79466747D01*
X73882777Y-79483223D01*
X73899253Y-79501401D01*
X73913868Y-79521107D01*
X73926480Y-79542150D01*
X73936970Y-79564329D01*
X73945235Y-79587428D01*
X73951196Y-79611227D01*
X73954796Y-79635495D01*
X73956000Y-79659999D01*
X73956000Y-80560001D01*
X73954796Y-80584505D01*
X73951196Y-80608773D01*
X73945235Y-80632572D01*
X73936970Y-80655671D01*
X73926480Y-80677850D01*
X73913868Y-80698893D01*
X73899253Y-80718599D01*
X73882777Y-80736777D01*
X73864599Y-80753253D01*
X73844893Y-80767868D01*
X73823850Y-80780480D01*
X73801671Y-80790970D01*
X73778572Y-80799235D01*
X73754773Y-80805196D01*
X73730505Y-80808796D01*
X73706001Y-80810000D01*
X73055999Y-80810000D01*
X73031495Y-80808796D01*
X73007227Y-80805196D01*
X72983428Y-80799235D01*
X72960329Y-80790970D01*
X72938150Y-80780480D01*
X72917107Y-80767868D01*
X72897401Y-80753253D01*
X72879223Y-80736777D01*
X72862747Y-80718599D01*
X72848132Y-80698893D01*
X72835520Y-80677850D01*
X72825030Y-80655671D01*
X72816765Y-80632572D01*
X72810804Y-80608773D01*
X72807204Y-80584505D01*
X72806000Y-80560001D01*
X72806000Y-79659999D01*
X72807204Y-79635495D01*
X72810804Y-79611227D01*
X72816765Y-79587428D01*
X72825030Y-79564329D01*
X72835520Y-79542150D01*
X72848132Y-79521107D01*
X72862747Y-79501401D01*
X72879223Y-79483223D01*
X72897401Y-79466747D01*
X72917107Y-79452132D01*
X72938150Y-79439520D01*
X72960329Y-79429030D01*
X72983428Y-79420765D01*
X73007227Y-79414804D01*
X73031495Y-79411204D01*
X73055999Y-79410000D01*
X73706001Y-79410000D01*
X73730505Y-79411204D01*
X73730505Y-79411204D01*
G37*
D11*
X73381000Y-80110000D03*
D10*
G36*
X75780505Y-79411204D02*
X75804773Y-79414804D01*
X75828572Y-79420765D01*
X75851671Y-79429030D01*
X75873850Y-79439520D01*
X75894893Y-79452132D01*
X75914599Y-79466747D01*
X75932777Y-79483223D01*
X75949253Y-79501401D01*
X75963868Y-79521107D01*
X75976480Y-79542150D01*
X75986970Y-79564329D01*
X75995235Y-79587428D01*
X76001196Y-79611227D01*
X76004796Y-79635495D01*
X76006000Y-79659999D01*
X76006000Y-80560001D01*
X76004796Y-80584505D01*
X76001196Y-80608773D01*
X75995235Y-80632572D01*
X75986970Y-80655671D01*
X75976480Y-80677850D01*
X75963868Y-80698893D01*
X75949253Y-80718599D01*
X75932777Y-80736777D01*
X75914599Y-80753253D01*
X75894893Y-80767868D01*
X75873850Y-80780480D01*
X75851671Y-80790970D01*
X75828572Y-80799235D01*
X75804773Y-80805196D01*
X75780505Y-80808796D01*
X75756001Y-80810000D01*
X75105999Y-80810000D01*
X75081495Y-80808796D01*
X75057227Y-80805196D01*
X75033428Y-80799235D01*
X75010329Y-80790970D01*
X74988150Y-80780480D01*
X74967107Y-80767868D01*
X74947401Y-80753253D01*
X74929223Y-80736777D01*
X74912747Y-80718599D01*
X74898132Y-80698893D01*
X74885520Y-80677850D01*
X74875030Y-80655671D01*
X74866765Y-80632572D01*
X74860804Y-80608773D01*
X74857204Y-80584505D01*
X74856000Y-80560001D01*
X74856000Y-79659999D01*
X74857204Y-79635495D01*
X74860804Y-79611227D01*
X74866765Y-79587428D01*
X74875030Y-79564329D01*
X74885520Y-79542150D01*
X74898132Y-79521107D01*
X74912747Y-79501401D01*
X74929223Y-79483223D01*
X74947401Y-79466747D01*
X74967107Y-79452132D01*
X74988150Y-79439520D01*
X75010329Y-79429030D01*
X75033428Y-79420765D01*
X75057227Y-79414804D01*
X75081495Y-79411204D01*
X75105999Y-79410000D01*
X75756001Y-79410000D01*
X75780505Y-79411204D01*
X75780505Y-79411204D01*
G37*
D11*
X75431000Y-80110000D03*
G04 #@! TD*
D10*
G04 #@! TO.C,C13*
G36*
X69398505Y-82932204D02*
X69422773Y-82935804D01*
X69446572Y-82941765D01*
X69469671Y-82950030D01*
X69491850Y-82960520D01*
X69512893Y-82973132D01*
X69532599Y-82987747D01*
X69550777Y-83004223D01*
X69567253Y-83022401D01*
X69581868Y-83042107D01*
X69594480Y-83063150D01*
X69604970Y-83085329D01*
X69613235Y-83108428D01*
X69619196Y-83132227D01*
X69622796Y-83156495D01*
X69624000Y-83180999D01*
X69624000Y-83831001D01*
X69622796Y-83855505D01*
X69619196Y-83879773D01*
X69613235Y-83903572D01*
X69604970Y-83926671D01*
X69594480Y-83948850D01*
X69581868Y-83969893D01*
X69567253Y-83989599D01*
X69550777Y-84007777D01*
X69532599Y-84024253D01*
X69512893Y-84038868D01*
X69491850Y-84051480D01*
X69469671Y-84061970D01*
X69446572Y-84070235D01*
X69422773Y-84076196D01*
X69398505Y-84079796D01*
X69374001Y-84081000D01*
X68473999Y-84081000D01*
X68449495Y-84079796D01*
X68425227Y-84076196D01*
X68401428Y-84070235D01*
X68378329Y-84061970D01*
X68356150Y-84051480D01*
X68335107Y-84038868D01*
X68315401Y-84024253D01*
X68297223Y-84007777D01*
X68280747Y-83989599D01*
X68266132Y-83969893D01*
X68253520Y-83948850D01*
X68243030Y-83926671D01*
X68234765Y-83903572D01*
X68228804Y-83879773D01*
X68225204Y-83855505D01*
X68224000Y-83831001D01*
X68224000Y-83180999D01*
X68225204Y-83156495D01*
X68228804Y-83132227D01*
X68234765Y-83108428D01*
X68243030Y-83085329D01*
X68253520Y-83063150D01*
X68266132Y-83042107D01*
X68280747Y-83022401D01*
X68297223Y-83004223D01*
X68315401Y-82987747D01*
X68335107Y-82973132D01*
X68356150Y-82960520D01*
X68378329Y-82950030D01*
X68401428Y-82941765D01*
X68425227Y-82935804D01*
X68449495Y-82932204D01*
X68473999Y-82931000D01*
X69374001Y-82931000D01*
X69398505Y-82932204D01*
X69398505Y-82932204D01*
G37*
D11*
X68924000Y-83506000D03*
D10*
G36*
X69398505Y-84982204D02*
X69422773Y-84985804D01*
X69446572Y-84991765D01*
X69469671Y-85000030D01*
X69491850Y-85010520D01*
X69512893Y-85023132D01*
X69532599Y-85037747D01*
X69550777Y-85054223D01*
X69567253Y-85072401D01*
X69581868Y-85092107D01*
X69594480Y-85113150D01*
X69604970Y-85135329D01*
X69613235Y-85158428D01*
X69619196Y-85182227D01*
X69622796Y-85206495D01*
X69624000Y-85230999D01*
X69624000Y-85881001D01*
X69622796Y-85905505D01*
X69619196Y-85929773D01*
X69613235Y-85953572D01*
X69604970Y-85976671D01*
X69594480Y-85998850D01*
X69581868Y-86019893D01*
X69567253Y-86039599D01*
X69550777Y-86057777D01*
X69532599Y-86074253D01*
X69512893Y-86088868D01*
X69491850Y-86101480D01*
X69469671Y-86111970D01*
X69446572Y-86120235D01*
X69422773Y-86126196D01*
X69398505Y-86129796D01*
X69374001Y-86131000D01*
X68473999Y-86131000D01*
X68449495Y-86129796D01*
X68425227Y-86126196D01*
X68401428Y-86120235D01*
X68378329Y-86111970D01*
X68356150Y-86101480D01*
X68335107Y-86088868D01*
X68315401Y-86074253D01*
X68297223Y-86057777D01*
X68280747Y-86039599D01*
X68266132Y-86019893D01*
X68253520Y-85998850D01*
X68243030Y-85976671D01*
X68234765Y-85953572D01*
X68228804Y-85929773D01*
X68225204Y-85905505D01*
X68224000Y-85881001D01*
X68224000Y-85230999D01*
X68225204Y-85206495D01*
X68228804Y-85182227D01*
X68234765Y-85158428D01*
X68243030Y-85135329D01*
X68253520Y-85113150D01*
X68266132Y-85092107D01*
X68280747Y-85072401D01*
X68297223Y-85054223D01*
X68315401Y-85037747D01*
X68335107Y-85023132D01*
X68356150Y-85010520D01*
X68378329Y-85000030D01*
X68401428Y-84991765D01*
X68425227Y-84985804D01*
X68449495Y-84982204D01*
X68473999Y-84981000D01*
X69374001Y-84981000D01*
X69398505Y-84982204D01*
X69398505Y-84982204D01*
G37*
D11*
X68924000Y-85556000D03*
G04 #@! TD*
D10*
G04 #@! TO.C,C12*
G36*
X63398505Y-82932204D02*
X63422773Y-82935804D01*
X63446572Y-82941765D01*
X63469671Y-82950030D01*
X63491850Y-82960520D01*
X63512893Y-82973132D01*
X63532599Y-82987747D01*
X63550777Y-83004223D01*
X63567253Y-83022401D01*
X63581868Y-83042107D01*
X63594480Y-83063150D01*
X63604970Y-83085329D01*
X63613235Y-83108428D01*
X63619196Y-83132227D01*
X63622796Y-83156495D01*
X63624000Y-83180999D01*
X63624000Y-83831001D01*
X63622796Y-83855505D01*
X63619196Y-83879773D01*
X63613235Y-83903572D01*
X63604970Y-83926671D01*
X63594480Y-83948850D01*
X63581868Y-83969893D01*
X63567253Y-83989599D01*
X63550777Y-84007777D01*
X63532599Y-84024253D01*
X63512893Y-84038868D01*
X63491850Y-84051480D01*
X63469671Y-84061970D01*
X63446572Y-84070235D01*
X63422773Y-84076196D01*
X63398505Y-84079796D01*
X63374001Y-84081000D01*
X62473999Y-84081000D01*
X62449495Y-84079796D01*
X62425227Y-84076196D01*
X62401428Y-84070235D01*
X62378329Y-84061970D01*
X62356150Y-84051480D01*
X62335107Y-84038868D01*
X62315401Y-84024253D01*
X62297223Y-84007777D01*
X62280747Y-83989599D01*
X62266132Y-83969893D01*
X62253520Y-83948850D01*
X62243030Y-83926671D01*
X62234765Y-83903572D01*
X62228804Y-83879773D01*
X62225204Y-83855505D01*
X62224000Y-83831001D01*
X62224000Y-83180999D01*
X62225204Y-83156495D01*
X62228804Y-83132227D01*
X62234765Y-83108428D01*
X62243030Y-83085329D01*
X62253520Y-83063150D01*
X62266132Y-83042107D01*
X62280747Y-83022401D01*
X62297223Y-83004223D01*
X62315401Y-82987747D01*
X62335107Y-82973132D01*
X62356150Y-82960520D01*
X62378329Y-82950030D01*
X62401428Y-82941765D01*
X62425227Y-82935804D01*
X62449495Y-82932204D01*
X62473999Y-82931000D01*
X63374001Y-82931000D01*
X63398505Y-82932204D01*
X63398505Y-82932204D01*
G37*
D11*
X62924000Y-83506000D03*
D10*
G36*
X63398505Y-84982204D02*
X63422773Y-84985804D01*
X63446572Y-84991765D01*
X63469671Y-85000030D01*
X63491850Y-85010520D01*
X63512893Y-85023132D01*
X63532599Y-85037747D01*
X63550777Y-85054223D01*
X63567253Y-85072401D01*
X63581868Y-85092107D01*
X63594480Y-85113150D01*
X63604970Y-85135329D01*
X63613235Y-85158428D01*
X63619196Y-85182227D01*
X63622796Y-85206495D01*
X63624000Y-85230999D01*
X63624000Y-85881001D01*
X63622796Y-85905505D01*
X63619196Y-85929773D01*
X63613235Y-85953572D01*
X63604970Y-85976671D01*
X63594480Y-85998850D01*
X63581868Y-86019893D01*
X63567253Y-86039599D01*
X63550777Y-86057777D01*
X63532599Y-86074253D01*
X63512893Y-86088868D01*
X63491850Y-86101480D01*
X63469671Y-86111970D01*
X63446572Y-86120235D01*
X63422773Y-86126196D01*
X63398505Y-86129796D01*
X63374001Y-86131000D01*
X62473999Y-86131000D01*
X62449495Y-86129796D01*
X62425227Y-86126196D01*
X62401428Y-86120235D01*
X62378329Y-86111970D01*
X62356150Y-86101480D01*
X62335107Y-86088868D01*
X62315401Y-86074253D01*
X62297223Y-86057777D01*
X62280747Y-86039599D01*
X62266132Y-86019893D01*
X62253520Y-85998850D01*
X62243030Y-85976671D01*
X62234765Y-85953572D01*
X62228804Y-85929773D01*
X62225204Y-85905505D01*
X62224000Y-85881001D01*
X62224000Y-85230999D01*
X62225204Y-85206495D01*
X62228804Y-85182227D01*
X62234765Y-85158428D01*
X62243030Y-85135329D01*
X62253520Y-85113150D01*
X62266132Y-85092107D01*
X62280747Y-85072401D01*
X62297223Y-85054223D01*
X62315401Y-85037747D01*
X62335107Y-85023132D01*
X62356150Y-85010520D01*
X62378329Y-85000030D01*
X62401428Y-84991765D01*
X62425227Y-84985804D01*
X62449495Y-84982204D01*
X62473999Y-84981000D01*
X63374001Y-84981000D01*
X63398505Y-84982204D01*
X63398505Y-84982204D01*
G37*
D11*
X62924000Y-85556000D03*
G04 #@! TD*
D10*
G04 #@! TO.C,C16*
G36*
X57198505Y-79411204D02*
X57222773Y-79414804D01*
X57246572Y-79420765D01*
X57269671Y-79429030D01*
X57291850Y-79439520D01*
X57312893Y-79452132D01*
X57332599Y-79466747D01*
X57350777Y-79483223D01*
X57367253Y-79501401D01*
X57381868Y-79521107D01*
X57394480Y-79542150D01*
X57404970Y-79564329D01*
X57413235Y-79587428D01*
X57419196Y-79611227D01*
X57422796Y-79635495D01*
X57424000Y-79659999D01*
X57424000Y-80560001D01*
X57422796Y-80584505D01*
X57419196Y-80608773D01*
X57413235Y-80632572D01*
X57404970Y-80655671D01*
X57394480Y-80677850D01*
X57381868Y-80698893D01*
X57367253Y-80718599D01*
X57350777Y-80736777D01*
X57332599Y-80753253D01*
X57312893Y-80767868D01*
X57291850Y-80780480D01*
X57269671Y-80790970D01*
X57246572Y-80799235D01*
X57222773Y-80805196D01*
X57198505Y-80808796D01*
X57174001Y-80810000D01*
X56523999Y-80810000D01*
X56499495Y-80808796D01*
X56475227Y-80805196D01*
X56451428Y-80799235D01*
X56428329Y-80790970D01*
X56406150Y-80780480D01*
X56385107Y-80767868D01*
X56365401Y-80753253D01*
X56347223Y-80736777D01*
X56330747Y-80718599D01*
X56316132Y-80698893D01*
X56303520Y-80677850D01*
X56293030Y-80655671D01*
X56284765Y-80632572D01*
X56278804Y-80608773D01*
X56275204Y-80584505D01*
X56274000Y-80560001D01*
X56274000Y-79659999D01*
X56275204Y-79635495D01*
X56278804Y-79611227D01*
X56284765Y-79587428D01*
X56293030Y-79564329D01*
X56303520Y-79542150D01*
X56316132Y-79521107D01*
X56330747Y-79501401D01*
X56347223Y-79483223D01*
X56365401Y-79466747D01*
X56385107Y-79452132D01*
X56406150Y-79439520D01*
X56428329Y-79429030D01*
X56451428Y-79420765D01*
X56475227Y-79414804D01*
X56499495Y-79411204D01*
X56523999Y-79410000D01*
X57174001Y-79410000D01*
X57198505Y-79411204D01*
X57198505Y-79411204D01*
G37*
D11*
X56849000Y-80110000D03*
D10*
G36*
X59248505Y-79411204D02*
X59272773Y-79414804D01*
X59296572Y-79420765D01*
X59319671Y-79429030D01*
X59341850Y-79439520D01*
X59362893Y-79452132D01*
X59382599Y-79466747D01*
X59400777Y-79483223D01*
X59417253Y-79501401D01*
X59431868Y-79521107D01*
X59444480Y-79542150D01*
X59454970Y-79564329D01*
X59463235Y-79587428D01*
X59469196Y-79611227D01*
X59472796Y-79635495D01*
X59474000Y-79659999D01*
X59474000Y-80560001D01*
X59472796Y-80584505D01*
X59469196Y-80608773D01*
X59463235Y-80632572D01*
X59454970Y-80655671D01*
X59444480Y-80677850D01*
X59431868Y-80698893D01*
X59417253Y-80718599D01*
X59400777Y-80736777D01*
X59382599Y-80753253D01*
X59362893Y-80767868D01*
X59341850Y-80780480D01*
X59319671Y-80790970D01*
X59296572Y-80799235D01*
X59272773Y-80805196D01*
X59248505Y-80808796D01*
X59224001Y-80810000D01*
X58573999Y-80810000D01*
X58549495Y-80808796D01*
X58525227Y-80805196D01*
X58501428Y-80799235D01*
X58478329Y-80790970D01*
X58456150Y-80780480D01*
X58435107Y-80767868D01*
X58415401Y-80753253D01*
X58397223Y-80736777D01*
X58380747Y-80718599D01*
X58366132Y-80698893D01*
X58353520Y-80677850D01*
X58343030Y-80655671D01*
X58334765Y-80632572D01*
X58328804Y-80608773D01*
X58325204Y-80584505D01*
X58324000Y-80560001D01*
X58324000Y-79659999D01*
X58325204Y-79635495D01*
X58328804Y-79611227D01*
X58334765Y-79587428D01*
X58343030Y-79564329D01*
X58353520Y-79542150D01*
X58366132Y-79521107D01*
X58380747Y-79501401D01*
X58397223Y-79483223D01*
X58415401Y-79466747D01*
X58435107Y-79452132D01*
X58456150Y-79439520D01*
X58478329Y-79429030D01*
X58501428Y-79420765D01*
X58525227Y-79414804D01*
X58549495Y-79411204D01*
X58573999Y-79410000D01*
X59224001Y-79410000D01*
X59248505Y-79411204D01*
X59248505Y-79411204D01*
G37*
D11*
X58899000Y-80110000D03*
G04 #@! TD*
D10*
G04 #@! TO.C,C15*
G36*
X59248505Y-77115995D02*
X59272773Y-77119595D01*
X59296572Y-77125556D01*
X59319671Y-77133821D01*
X59341850Y-77144311D01*
X59362893Y-77156923D01*
X59382599Y-77171538D01*
X59400777Y-77188014D01*
X59417253Y-77206192D01*
X59431868Y-77225898D01*
X59444480Y-77246941D01*
X59454970Y-77269120D01*
X59463235Y-77292219D01*
X59469196Y-77316018D01*
X59472796Y-77340286D01*
X59474000Y-77364790D01*
X59474000Y-78264792D01*
X59472796Y-78289296D01*
X59469196Y-78313564D01*
X59463235Y-78337363D01*
X59454970Y-78360462D01*
X59444480Y-78382641D01*
X59431868Y-78403684D01*
X59417253Y-78423390D01*
X59400777Y-78441568D01*
X59382599Y-78458044D01*
X59362893Y-78472659D01*
X59341850Y-78485271D01*
X59319671Y-78495761D01*
X59296572Y-78504026D01*
X59272773Y-78509987D01*
X59248505Y-78513587D01*
X59224001Y-78514791D01*
X58573999Y-78514791D01*
X58549495Y-78513587D01*
X58525227Y-78509987D01*
X58501428Y-78504026D01*
X58478329Y-78495761D01*
X58456150Y-78485271D01*
X58435107Y-78472659D01*
X58415401Y-78458044D01*
X58397223Y-78441568D01*
X58380747Y-78423390D01*
X58366132Y-78403684D01*
X58353520Y-78382641D01*
X58343030Y-78360462D01*
X58334765Y-78337363D01*
X58328804Y-78313564D01*
X58325204Y-78289296D01*
X58324000Y-78264792D01*
X58324000Y-77364790D01*
X58325204Y-77340286D01*
X58328804Y-77316018D01*
X58334765Y-77292219D01*
X58343030Y-77269120D01*
X58353520Y-77246941D01*
X58366132Y-77225898D01*
X58380747Y-77206192D01*
X58397223Y-77188014D01*
X58415401Y-77171538D01*
X58435107Y-77156923D01*
X58456150Y-77144311D01*
X58478329Y-77133821D01*
X58501428Y-77125556D01*
X58525227Y-77119595D01*
X58549495Y-77115995D01*
X58573999Y-77114791D01*
X59224001Y-77114791D01*
X59248505Y-77115995D01*
X59248505Y-77115995D01*
G37*
D11*
X58899000Y-77814791D03*
D10*
G36*
X61298505Y-77115995D02*
X61322773Y-77119595D01*
X61346572Y-77125556D01*
X61369671Y-77133821D01*
X61391850Y-77144311D01*
X61412893Y-77156923D01*
X61432599Y-77171538D01*
X61450777Y-77188014D01*
X61467253Y-77206192D01*
X61481868Y-77225898D01*
X61494480Y-77246941D01*
X61504970Y-77269120D01*
X61513235Y-77292219D01*
X61519196Y-77316018D01*
X61522796Y-77340286D01*
X61524000Y-77364790D01*
X61524000Y-78264792D01*
X61522796Y-78289296D01*
X61519196Y-78313564D01*
X61513235Y-78337363D01*
X61504970Y-78360462D01*
X61494480Y-78382641D01*
X61481868Y-78403684D01*
X61467253Y-78423390D01*
X61450777Y-78441568D01*
X61432599Y-78458044D01*
X61412893Y-78472659D01*
X61391850Y-78485271D01*
X61369671Y-78495761D01*
X61346572Y-78504026D01*
X61322773Y-78509987D01*
X61298505Y-78513587D01*
X61274001Y-78514791D01*
X60623999Y-78514791D01*
X60599495Y-78513587D01*
X60575227Y-78509987D01*
X60551428Y-78504026D01*
X60528329Y-78495761D01*
X60506150Y-78485271D01*
X60485107Y-78472659D01*
X60465401Y-78458044D01*
X60447223Y-78441568D01*
X60430747Y-78423390D01*
X60416132Y-78403684D01*
X60403520Y-78382641D01*
X60393030Y-78360462D01*
X60384765Y-78337363D01*
X60378804Y-78313564D01*
X60375204Y-78289296D01*
X60374000Y-78264792D01*
X60374000Y-77364790D01*
X60375204Y-77340286D01*
X60378804Y-77316018D01*
X60384765Y-77292219D01*
X60393030Y-77269120D01*
X60403520Y-77246941D01*
X60416132Y-77225898D01*
X60430747Y-77206192D01*
X60447223Y-77188014D01*
X60465401Y-77171538D01*
X60485107Y-77156923D01*
X60506150Y-77144311D01*
X60528329Y-77133821D01*
X60551428Y-77125556D01*
X60575227Y-77119595D01*
X60599495Y-77115995D01*
X60623999Y-77114791D01*
X61274001Y-77114791D01*
X61298505Y-77115995D01*
X61298505Y-77115995D01*
G37*
D11*
X60949000Y-77814791D03*
G04 #@! TD*
D10*
G04 #@! TO.C,C14*
G36*
X61298505Y-79411204D02*
X61322773Y-79414804D01*
X61346572Y-79420765D01*
X61369671Y-79429030D01*
X61391850Y-79439520D01*
X61412893Y-79452132D01*
X61432599Y-79466747D01*
X61450777Y-79483223D01*
X61467253Y-79501401D01*
X61481868Y-79521107D01*
X61494480Y-79542150D01*
X61504970Y-79564329D01*
X61513235Y-79587428D01*
X61519196Y-79611227D01*
X61522796Y-79635495D01*
X61524000Y-79659999D01*
X61524000Y-80560001D01*
X61522796Y-80584505D01*
X61519196Y-80608773D01*
X61513235Y-80632572D01*
X61504970Y-80655671D01*
X61494480Y-80677850D01*
X61481868Y-80698893D01*
X61467253Y-80718599D01*
X61450777Y-80736777D01*
X61432599Y-80753253D01*
X61412893Y-80767868D01*
X61391850Y-80780480D01*
X61369671Y-80790970D01*
X61346572Y-80799235D01*
X61322773Y-80805196D01*
X61298505Y-80808796D01*
X61274001Y-80810000D01*
X60623999Y-80810000D01*
X60599495Y-80808796D01*
X60575227Y-80805196D01*
X60551428Y-80799235D01*
X60528329Y-80790970D01*
X60506150Y-80780480D01*
X60485107Y-80767868D01*
X60465401Y-80753253D01*
X60447223Y-80736777D01*
X60430747Y-80718599D01*
X60416132Y-80698893D01*
X60403520Y-80677850D01*
X60393030Y-80655671D01*
X60384765Y-80632572D01*
X60378804Y-80608773D01*
X60375204Y-80584505D01*
X60374000Y-80560001D01*
X60374000Y-79659999D01*
X60375204Y-79635495D01*
X60378804Y-79611227D01*
X60384765Y-79587428D01*
X60393030Y-79564329D01*
X60403520Y-79542150D01*
X60416132Y-79521107D01*
X60430747Y-79501401D01*
X60447223Y-79483223D01*
X60465401Y-79466747D01*
X60485107Y-79452132D01*
X60506150Y-79439520D01*
X60528329Y-79429030D01*
X60551428Y-79420765D01*
X60575227Y-79414804D01*
X60599495Y-79411204D01*
X60623999Y-79410000D01*
X61274001Y-79410000D01*
X61298505Y-79411204D01*
X61298505Y-79411204D01*
G37*
D11*
X60949000Y-80110000D03*
D10*
G36*
X63348505Y-79411204D02*
X63372773Y-79414804D01*
X63396572Y-79420765D01*
X63419671Y-79429030D01*
X63441850Y-79439520D01*
X63462893Y-79452132D01*
X63482599Y-79466747D01*
X63500777Y-79483223D01*
X63517253Y-79501401D01*
X63531868Y-79521107D01*
X63544480Y-79542150D01*
X63554970Y-79564329D01*
X63563235Y-79587428D01*
X63569196Y-79611227D01*
X63572796Y-79635495D01*
X63574000Y-79659999D01*
X63574000Y-80560001D01*
X63572796Y-80584505D01*
X63569196Y-80608773D01*
X63563235Y-80632572D01*
X63554970Y-80655671D01*
X63544480Y-80677850D01*
X63531868Y-80698893D01*
X63517253Y-80718599D01*
X63500777Y-80736777D01*
X63482599Y-80753253D01*
X63462893Y-80767868D01*
X63441850Y-80780480D01*
X63419671Y-80790970D01*
X63396572Y-80799235D01*
X63372773Y-80805196D01*
X63348505Y-80808796D01*
X63324001Y-80810000D01*
X62673999Y-80810000D01*
X62649495Y-80808796D01*
X62625227Y-80805196D01*
X62601428Y-80799235D01*
X62578329Y-80790970D01*
X62556150Y-80780480D01*
X62535107Y-80767868D01*
X62515401Y-80753253D01*
X62497223Y-80736777D01*
X62480747Y-80718599D01*
X62466132Y-80698893D01*
X62453520Y-80677850D01*
X62443030Y-80655671D01*
X62434765Y-80632572D01*
X62428804Y-80608773D01*
X62425204Y-80584505D01*
X62424000Y-80560001D01*
X62424000Y-79659999D01*
X62425204Y-79635495D01*
X62428804Y-79611227D01*
X62434765Y-79587428D01*
X62443030Y-79564329D01*
X62453520Y-79542150D01*
X62466132Y-79521107D01*
X62480747Y-79501401D01*
X62497223Y-79483223D01*
X62515401Y-79466747D01*
X62535107Y-79452132D01*
X62556150Y-79439520D01*
X62578329Y-79429030D01*
X62601428Y-79420765D01*
X62625227Y-79414804D01*
X62649495Y-79411204D01*
X62673999Y-79410000D01*
X63324001Y-79410000D01*
X63348505Y-79411204D01*
X63348505Y-79411204D01*
G37*
D11*
X62999000Y-80110000D03*
G04 #@! TD*
D10*
G04 #@! TO.C,C28*
G36*
X77839505Y-99334204D02*
X77863773Y-99337804D01*
X77887572Y-99343765D01*
X77910671Y-99352030D01*
X77932850Y-99362520D01*
X77953893Y-99375132D01*
X77973599Y-99389747D01*
X77991777Y-99406223D01*
X78008253Y-99424401D01*
X78022868Y-99444107D01*
X78035480Y-99465150D01*
X78045970Y-99487329D01*
X78054235Y-99510428D01*
X78060196Y-99534227D01*
X78063796Y-99558495D01*
X78065000Y-99582999D01*
X78065000Y-100483001D01*
X78063796Y-100507505D01*
X78060196Y-100531773D01*
X78054235Y-100555572D01*
X78045970Y-100578671D01*
X78035480Y-100600850D01*
X78022868Y-100621893D01*
X78008253Y-100641599D01*
X77991777Y-100659777D01*
X77973599Y-100676253D01*
X77953893Y-100690868D01*
X77932850Y-100703480D01*
X77910671Y-100713970D01*
X77887572Y-100722235D01*
X77863773Y-100728196D01*
X77839505Y-100731796D01*
X77815001Y-100733000D01*
X77164999Y-100733000D01*
X77140495Y-100731796D01*
X77116227Y-100728196D01*
X77092428Y-100722235D01*
X77069329Y-100713970D01*
X77047150Y-100703480D01*
X77026107Y-100690868D01*
X77006401Y-100676253D01*
X76988223Y-100659777D01*
X76971747Y-100641599D01*
X76957132Y-100621893D01*
X76944520Y-100600850D01*
X76934030Y-100578671D01*
X76925765Y-100555572D01*
X76919804Y-100531773D01*
X76916204Y-100507505D01*
X76915000Y-100483001D01*
X76915000Y-99582999D01*
X76916204Y-99558495D01*
X76919804Y-99534227D01*
X76925765Y-99510428D01*
X76934030Y-99487329D01*
X76944520Y-99465150D01*
X76957132Y-99444107D01*
X76971747Y-99424401D01*
X76988223Y-99406223D01*
X77006401Y-99389747D01*
X77026107Y-99375132D01*
X77047150Y-99362520D01*
X77069329Y-99352030D01*
X77092428Y-99343765D01*
X77116227Y-99337804D01*
X77140495Y-99334204D01*
X77164999Y-99333000D01*
X77815001Y-99333000D01*
X77839505Y-99334204D01*
X77839505Y-99334204D01*
G37*
D11*
X77490000Y-100033000D03*
D10*
G36*
X79889505Y-99334204D02*
X79913773Y-99337804D01*
X79937572Y-99343765D01*
X79960671Y-99352030D01*
X79982850Y-99362520D01*
X80003893Y-99375132D01*
X80023599Y-99389747D01*
X80041777Y-99406223D01*
X80058253Y-99424401D01*
X80072868Y-99444107D01*
X80085480Y-99465150D01*
X80095970Y-99487329D01*
X80104235Y-99510428D01*
X80110196Y-99534227D01*
X80113796Y-99558495D01*
X80115000Y-99582999D01*
X80115000Y-100483001D01*
X80113796Y-100507505D01*
X80110196Y-100531773D01*
X80104235Y-100555572D01*
X80095970Y-100578671D01*
X80085480Y-100600850D01*
X80072868Y-100621893D01*
X80058253Y-100641599D01*
X80041777Y-100659777D01*
X80023599Y-100676253D01*
X80003893Y-100690868D01*
X79982850Y-100703480D01*
X79960671Y-100713970D01*
X79937572Y-100722235D01*
X79913773Y-100728196D01*
X79889505Y-100731796D01*
X79865001Y-100733000D01*
X79214999Y-100733000D01*
X79190495Y-100731796D01*
X79166227Y-100728196D01*
X79142428Y-100722235D01*
X79119329Y-100713970D01*
X79097150Y-100703480D01*
X79076107Y-100690868D01*
X79056401Y-100676253D01*
X79038223Y-100659777D01*
X79021747Y-100641599D01*
X79007132Y-100621893D01*
X78994520Y-100600850D01*
X78984030Y-100578671D01*
X78975765Y-100555572D01*
X78969804Y-100531773D01*
X78966204Y-100507505D01*
X78965000Y-100483001D01*
X78965000Y-99582999D01*
X78966204Y-99558495D01*
X78969804Y-99534227D01*
X78975765Y-99510428D01*
X78984030Y-99487329D01*
X78994520Y-99465150D01*
X79007132Y-99444107D01*
X79021747Y-99424401D01*
X79038223Y-99406223D01*
X79056401Y-99389747D01*
X79076107Y-99375132D01*
X79097150Y-99362520D01*
X79119329Y-99352030D01*
X79142428Y-99343765D01*
X79166227Y-99337804D01*
X79190495Y-99334204D01*
X79214999Y-99333000D01*
X79865001Y-99333000D01*
X79889505Y-99334204D01*
X79889505Y-99334204D01*
G37*
D11*
X79540000Y-100033000D03*
G04 #@! TD*
D10*
G04 #@! TO.C,R21*
G36*
X75914505Y-92725204D02*
X75938773Y-92728804D01*
X75962572Y-92734765D01*
X75985671Y-92743030D01*
X76007850Y-92753520D01*
X76028893Y-92766132D01*
X76048599Y-92780747D01*
X76066777Y-92797223D01*
X76083253Y-92815401D01*
X76097868Y-92835107D01*
X76110480Y-92856150D01*
X76120970Y-92878329D01*
X76129235Y-92901428D01*
X76135196Y-92925227D01*
X76138796Y-92949495D01*
X76140000Y-92973999D01*
X76140000Y-93624001D01*
X76138796Y-93648505D01*
X76135196Y-93672773D01*
X76129235Y-93696572D01*
X76120970Y-93719671D01*
X76110480Y-93741850D01*
X76097868Y-93762893D01*
X76083253Y-93782599D01*
X76066777Y-93800777D01*
X76048599Y-93817253D01*
X76028893Y-93831868D01*
X76007850Y-93844480D01*
X75985671Y-93854970D01*
X75962572Y-93863235D01*
X75938773Y-93869196D01*
X75914505Y-93872796D01*
X75890001Y-93874000D01*
X74989999Y-93874000D01*
X74965495Y-93872796D01*
X74941227Y-93869196D01*
X74917428Y-93863235D01*
X74894329Y-93854970D01*
X74872150Y-93844480D01*
X74851107Y-93831868D01*
X74831401Y-93817253D01*
X74813223Y-93800777D01*
X74796747Y-93782599D01*
X74782132Y-93762893D01*
X74769520Y-93741850D01*
X74759030Y-93719671D01*
X74750765Y-93696572D01*
X74744804Y-93672773D01*
X74741204Y-93648505D01*
X74740000Y-93624001D01*
X74740000Y-92973999D01*
X74741204Y-92949495D01*
X74744804Y-92925227D01*
X74750765Y-92901428D01*
X74759030Y-92878329D01*
X74769520Y-92856150D01*
X74782132Y-92835107D01*
X74796747Y-92815401D01*
X74813223Y-92797223D01*
X74831401Y-92780747D01*
X74851107Y-92766132D01*
X74872150Y-92753520D01*
X74894329Y-92743030D01*
X74917428Y-92734765D01*
X74941227Y-92728804D01*
X74965495Y-92725204D01*
X74989999Y-92724000D01*
X75890001Y-92724000D01*
X75914505Y-92725204D01*
X75914505Y-92725204D01*
G37*
D11*
X75440000Y-93299000D03*
D10*
G36*
X75914505Y-94775204D02*
X75938773Y-94778804D01*
X75962572Y-94784765D01*
X75985671Y-94793030D01*
X76007850Y-94803520D01*
X76028893Y-94816132D01*
X76048599Y-94830747D01*
X76066777Y-94847223D01*
X76083253Y-94865401D01*
X76097868Y-94885107D01*
X76110480Y-94906150D01*
X76120970Y-94928329D01*
X76129235Y-94951428D01*
X76135196Y-94975227D01*
X76138796Y-94999495D01*
X76140000Y-95023999D01*
X76140000Y-95674001D01*
X76138796Y-95698505D01*
X76135196Y-95722773D01*
X76129235Y-95746572D01*
X76120970Y-95769671D01*
X76110480Y-95791850D01*
X76097868Y-95812893D01*
X76083253Y-95832599D01*
X76066777Y-95850777D01*
X76048599Y-95867253D01*
X76028893Y-95881868D01*
X76007850Y-95894480D01*
X75985671Y-95904970D01*
X75962572Y-95913235D01*
X75938773Y-95919196D01*
X75914505Y-95922796D01*
X75890001Y-95924000D01*
X74989999Y-95924000D01*
X74965495Y-95922796D01*
X74941227Y-95919196D01*
X74917428Y-95913235D01*
X74894329Y-95904970D01*
X74872150Y-95894480D01*
X74851107Y-95881868D01*
X74831401Y-95867253D01*
X74813223Y-95850777D01*
X74796747Y-95832599D01*
X74782132Y-95812893D01*
X74769520Y-95791850D01*
X74759030Y-95769671D01*
X74750765Y-95746572D01*
X74744804Y-95722773D01*
X74741204Y-95698505D01*
X74740000Y-95674001D01*
X74740000Y-95023999D01*
X74741204Y-94999495D01*
X74744804Y-94975227D01*
X74750765Y-94951428D01*
X74759030Y-94928329D01*
X74769520Y-94906150D01*
X74782132Y-94885107D01*
X74796747Y-94865401D01*
X74813223Y-94847223D01*
X74831401Y-94830747D01*
X74851107Y-94816132D01*
X74872150Y-94803520D01*
X74894329Y-94793030D01*
X74917428Y-94784765D01*
X74941227Y-94778804D01*
X74965495Y-94775204D01*
X74989999Y-94774000D01*
X75890001Y-94774000D01*
X75914505Y-94775204D01*
X75914505Y-94775204D01*
G37*
D11*
X75440000Y-95349000D03*
G04 #@! TD*
D10*
G04 #@! TO.C,R20*
G36*
X77964505Y-92725204D02*
X77988773Y-92728804D01*
X78012572Y-92734765D01*
X78035671Y-92743030D01*
X78057850Y-92753520D01*
X78078893Y-92766132D01*
X78098599Y-92780747D01*
X78116777Y-92797223D01*
X78133253Y-92815401D01*
X78147868Y-92835107D01*
X78160480Y-92856150D01*
X78170970Y-92878329D01*
X78179235Y-92901428D01*
X78185196Y-92925227D01*
X78188796Y-92949495D01*
X78190000Y-92973999D01*
X78190000Y-93624001D01*
X78188796Y-93648505D01*
X78185196Y-93672773D01*
X78179235Y-93696572D01*
X78170970Y-93719671D01*
X78160480Y-93741850D01*
X78147868Y-93762893D01*
X78133253Y-93782599D01*
X78116777Y-93800777D01*
X78098599Y-93817253D01*
X78078893Y-93831868D01*
X78057850Y-93844480D01*
X78035671Y-93854970D01*
X78012572Y-93863235D01*
X77988773Y-93869196D01*
X77964505Y-93872796D01*
X77940001Y-93874000D01*
X77039999Y-93874000D01*
X77015495Y-93872796D01*
X76991227Y-93869196D01*
X76967428Y-93863235D01*
X76944329Y-93854970D01*
X76922150Y-93844480D01*
X76901107Y-93831868D01*
X76881401Y-93817253D01*
X76863223Y-93800777D01*
X76846747Y-93782599D01*
X76832132Y-93762893D01*
X76819520Y-93741850D01*
X76809030Y-93719671D01*
X76800765Y-93696572D01*
X76794804Y-93672773D01*
X76791204Y-93648505D01*
X76790000Y-93624001D01*
X76790000Y-92973999D01*
X76791204Y-92949495D01*
X76794804Y-92925227D01*
X76800765Y-92901428D01*
X76809030Y-92878329D01*
X76819520Y-92856150D01*
X76832132Y-92835107D01*
X76846747Y-92815401D01*
X76863223Y-92797223D01*
X76881401Y-92780747D01*
X76901107Y-92766132D01*
X76922150Y-92753520D01*
X76944329Y-92743030D01*
X76967428Y-92734765D01*
X76991227Y-92728804D01*
X77015495Y-92725204D01*
X77039999Y-92724000D01*
X77940001Y-92724000D01*
X77964505Y-92725204D01*
X77964505Y-92725204D01*
G37*
D11*
X77490000Y-93299000D03*
D10*
G36*
X77964505Y-94775204D02*
X77988773Y-94778804D01*
X78012572Y-94784765D01*
X78035671Y-94793030D01*
X78057850Y-94803520D01*
X78078893Y-94816132D01*
X78098599Y-94830747D01*
X78116777Y-94847223D01*
X78133253Y-94865401D01*
X78147868Y-94885107D01*
X78160480Y-94906150D01*
X78170970Y-94928329D01*
X78179235Y-94951428D01*
X78185196Y-94975227D01*
X78188796Y-94999495D01*
X78190000Y-95023999D01*
X78190000Y-95674001D01*
X78188796Y-95698505D01*
X78185196Y-95722773D01*
X78179235Y-95746572D01*
X78170970Y-95769671D01*
X78160480Y-95791850D01*
X78147868Y-95812893D01*
X78133253Y-95832599D01*
X78116777Y-95850777D01*
X78098599Y-95867253D01*
X78078893Y-95881868D01*
X78057850Y-95894480D01*
X78035671Y-95904970D01*
X78012572Y-95913235D01*
X77988773Y-95919196D01*
X77964505Y-95922796D01*
X77940001Y-95924000D01*
X77039999Y-95924000D01*
X77015495Y-95922796D01*
X76991227Y-95919196D01*
X76967428Y-95913235D01*
X76944329Y-95904970D01*
X76922150Y-95894480D01*
X76901107Y-95881868D01*
X76881401Y-95867253D01*
X76863223Y-95850777D01*
X76846747Y-95832599D01*
X76832132Y-95812893D01*
X76819520Y-95791850D01*
X76809030Y-95769671D01*
X76800765Y-95746572D01*
X76794804Y-95722773D01*
X76791204Y-95698505D01*
X76790000Y-95674001D01*
X76790000Y-95023999D01*
X76791204Y-94999495D01*
X76794804Y-94975227D01*
X76800765Y-94951428D01*
X76809030Y-94928329D01*
X76819520Y-94906150D01*
X76832132Y-94885107D01*
X76846747Y-94865401D01*
X76863223Y-94847223D01*
X76881401Y-94830747D01*
X76901107Y-94816132D01*
X76922150Y-94803520D01*
X76944329Y-94793030D01*
X76967428Y-94784765D01*
X76991227Y-94778804D01*
X77015495Y-94775204D01*
X77039999Y-94774000D01*
X77940001Y-94774000D01*
X77964505Y-94775204D01*
X77964505Y-94775204D01*
G37*
D11*
X77490000Y-95349000D03*
G04 #@! TD*
D10*
G04 #@! TO.C,C31*
G36*
X73920505Y-102855204D02*
X73944773Y-102858804D01*
X73968572Y-102864765D01*
X73991671Y-102873030D01*
X74013850Y-102883520D01*
X74034893Y-102896132D01*
X74054599Y-102910747D01*
X74072777Y-102927223D01*
X74089253Y-102945401D01*
X74103868Y-102965107D01*
X74116480Y-102986150D01*
X74126970Y-103008329D01*
X74135235Y-103031428D01*
X74141196Y-103055227D01*
X74144796Y-103079495D01*
X74146000Y-103103999D01*
X74146000Y-103754001D01*
X74144796Y-103778505D01*
X74141196Y-103802773D01*
X74135235Y-103826572D01*
X74126970Y-103849671D01*
X74116480Y-103871850D01*
X74103868Y-103892893D01*
X74089253Y-103912599D01*
X74072777Y-103930777D01*
X74054599Y-103947253D01*
X74034893Y-103961868D01*
X74013850Y-103974480D01*
X73991671Y-103984970D01*
X73968572Y-103993235D01*
X73944773Y-103999196D01*
X73920505Y-104002796D01*
X73896001Y-104004000D01*
X72995999Y-104004000D01*
X72971495Y-104002796D01*
X72947227Y-103999196D01*
X72923428Y-103993235D01*
X72900329Y-103984970D01*
X72878150Y-103974480D01*
X72857107Y-103961868D01*
X72837401Y-103947253D01*
X72819223Y-103930777D01*
X72802747Y-103912599D01*
X72788132Y-103892893D01*
X72775520Y-103871850D01*
X72765030Y-103849671D01*
X72756765Y-103826572D01*
X72750804Y-103802773D01*
X72747204Y-103778505D01*
X72746000Y-103754001D01*
X72746000Y-103103999D01*
X72747204Y-103079495D01*
X72750804Y-103055227D01*
X72756765Y-103031428D01*
X72765030Y-103008329D01*
X72775520Y-102986150D01*
X72788132Y-102965107D01*
X72802747Y-102945401D01*
X72819223Y-102927223D01*
X72837401Y-102910747D01*
X72857107Y-102896132D01*
X72878150Y-102883520D01*
X72900329Y-102873030D01*
X72923428Y-102864765D01*
X72947227Y-102858804D01*
X72971495Y-102855204D01*
X72995999Y-102854000D01*
X73896001Y-102854000D01*
X73920505Y-102855204D01*
X73920505Y-102855204D01*
G37*
D11*
X73446000Y-103429000D03*
D10*
G36*
X73920505Y-104905204D02*
X73944773Y-104908804D01*
X73968572Y-104914765D01*
X73991671Y-104923030D01*
X74013850Y-104933520D01*
X74034893Y-104946132D01*
X74054599Y-104960747D01*
X74072777Y-104977223D01*
X74089253Y-104995401D01*
X74103868Y-105015107D01*
X74116480Y-105036150D01*
X74126970Y-105058329D01*
X74135235Y-105081428D01*
X74141196Y-105105227D01*
X74144796Y-105129495D01*
X74146000Y-105153999D01*
X74146000Y-105804001D01*
X74144796Y-105828505D01*
X74141196Y-105852773D01*
X74135235Y-105876572D01*
X74126970Y-105899671D01*
X74116480Y-105921850D01*
X74103868Y-105942893D01*
X74089253Y-105962599D01*
X74072777Y-105980777D01*
X74054599Y-105997253D01*
X74034893Y-106011868D01*
X74013850Y-106024480D01*
X73991671Y-106034970D01*
X73968572Y-106043235D01*
X73944773Y-106049196D01*
X73920505Y-106052796D01*
X73896001Y-106054000D01*
X72995999Y-106054000D01*
X72971495Y-106052796D01*
X72947227Y-106049196D01*
X72923428Y-106043235D01*
X72900329Y-106034970D01*
X72878150Y-106024480D01*
X72857107Y-106011868D01*
X72837401Y-105997253D01*
X72819223Y-105980777D01*
X72802747Y-105962599D01*
X72788132Y-105942893D01*
X72775520Y-105921850D01*
X72765030Y-105899671D01*
X72756765Y-105876572D01*
X72750804Y-105852773D01*
X72747204Y-105828505D01*
X72746000Y-105804001D01*
X72746000Y-105153999D01*
X72747204Y-105129495D01*
X72750804Y-105105227D01*
X72756765Y-105081428D01*
X72765030Y-105058329D01*
X72775520Y-105036150D01*
X72788132Y-105015107D01*
X72802747Y-104995401D01*
X72819223Y-104977223D01*
X72837401Y-104960747D01*
X72857107Y-104946132D01*
X72878150Y-104933520D01*
X72900329Y-104923030D01*
X72923428Y-104914765D01*
X72947227Y-104908804D01*
X72971495Y-104905204D01*
X72995999Y-104904000D01*
X73896001Y-104904000D01*
X73920505Y-104905204D01*
X73920505Y-104905204D01*
G37*
D11*
X73446000Y-105479000D03*
G04 #@! TD*
D10*
G04 #@! TO.C,R19*
G36*
X80014505Y-92725204D02*
X80038773Y-92728804D01*
X80062572Y-92734765D01*
X80085671Y-92743030D01*
X80107850Y-92753520D01*
X80128893Y-92766132D01*
X80148599Y-92780747D01*
X80166777Y-92797223D01*
X80183253Y-92815401D01*
X80197868Y-92835107D01*
X80210480Y-92856150D01*
X80220970Y-92878329D01*
X80229235Y-92901428D01*
X80235196Y-92925227D01*
X80238796Y-92949495D01*
X80240000Y-92973999D01*
X80240000Y-93624001D01*
X80238796Y-93648505D01*
X80235196Y-93672773D01*
X80229235Y-93696572D01*
X80220970Y-93719671D01*
X80210480Y-93741850D01*
X80197868Y-93762893D01*
X80183253Y-93782599D01*
X80166777Y-93800777D01*
X80148599Y-93817253D01*
X80128893Y-93831868D01*
X80107850Y-93844480D01*
X80085671Y-93854970D01*
X80062572Y-93863235D01*
X80038773Y-93869196D01*
X80014505Y-93872796D01*
X79990001Y-93874000D01*
X79089999Y-93874000D01*
X79065495Y-93872796D01*
X79041227Y-93869196D01*
X79017428Y-93863235D01*
X78994329Y-93854970D01*
X78972150Y-93844480D01*
X78951107Y-93831868D01*
X78931401Y-93817253D01*
X78913223Y-93800777D01*
X78896747Y-93782599D01*
X78882132Y-93762893D01*
X78869520Y-93741850D01*
X78859030Y-93719671D01*
X78850765Y-93696572D01*
X78844804Y-93672773D01*
X78841204Y-93648505D01*
X78840000Y-93624001D01*
X78840000Y-92973999D01*
X78841204Y-92949495D01*
X78844804Y-92925227D01*
X78850765Y-92901428D01*
X78859030Y-92878329D01*
X78869520Y-92856150D01*
X78882132Y-92835107D01*
X78896747Y-92815401D01*
X78913223Y-92797223D01*
X78931401Y-92780747D01*
X78951107Y-92766132D01*
X78972150Y-92753520D01*
X78994329Y-92743030D01*
X79017428Y-92734765D01*
X79041227Y-92728804D01*
X79065495Y-92725204D01*
X79089999Y-92724000D01*
X79990001Y-92724000D01*
X80014505Y-92725204D01*
X80014505Y-92725204D01*
G37*
D11*
X79540000Y-93299000D03*
D10*
G36*
X80014505Y-94775204D02*
X80038773Y-94778804D01*
X80062572Y-94784765D01*
X80085671Y-94793030D01*
X80107850Y-94803520D01*
X80128893Y-94816132D01*
X80148599Y-94830747D01*
X80166777Y-94847223D01*
X80183253Y-94865401D01*
X80197868Y-94885107D01*
X80210480Y-94906150D01*
X80220970Y-94928329D01*
X80229235Y-94951428D01*
X80235196Y-94975227D01*
X80238796Y-94999495D01*
X80240000Y-95023999D01*
X80240000Y-95674001D01*
X80238796Y-95698505D01*
X80235196Y-95722773D01*
X80229235Y-95746572D01*
X80220970Y-95769671D01*
X80210480Y-95791850D01*
X80197868Y-95812893D01*
X80183253Y-95832599D01*
X80166777Y-95850777D01*
X80148599Y-95867253D01*
X80128893Y-95881868D01*
X80107850Y-95894480D01*
X80085671Y-95904970D01*
X80062572Y-95913235D01*
X80038773Y-95919196D01*
X80014505Y-95922796D01*
X79990001Y-95924000D01*
X79089999Y-95924000D01*
X79065495Y-95922796D01*
X79041227Y-95919196D01*
X79017428Y-95913235D01*
X78994329Y-95904970D01*
X78972150Y-95894480D01*
X78951107Y-95881868D01*
X78931401Y-95867253D01*
X78913223Y-95850777D01*
X78896747Y-95832599D01*
X78882132Y-95812893D01*
X78869520Y-95791850D01*
X78859030Y-95769671D01*
X78850765Y-95746572D01*
X78844804Y-95722773D01*
X78841204Y-95698505D01*
X78840000Y-95674001D01*
X78840000Y-95023999D01*
X78841204Y-94999495D01*
X78844804Y-94975227D01*
X78850765Y-94951428D01*
X78859030Y-94928329D01*
X78869520Y-94906150D01*
X78882132Y-94885107D01*
X78896747Y-94865401D01*
X78913223Y-94847223D01*
X78931401Y-94830747D01*
X78951107Y-94816132D01*
X78972150Y-94803520D01*
X78994329Y-94793030D01*
X79017428Y-94784765D01*
X79041227Y-94778804D01*
X79065495Y-94775204D01*
X79089999Y-94774000D01*
X79990001Y-94774000D01*
X80014505Y-94775204D01*
X80014505Y-94775204D01*
G37*
D11*
X79540000Y-95349000D03*
G04 #@! TD*
D10*
G04 #@! TO.C,C32*
G36*
X71599505Y-101817704D02*
X71623773Y-101821304D01*
X71647572Y-101827265D01*
X71670671Y-101835530D01*
X71692850Y-101846020D01*
X71713893Y-101858632D01*
X71733599Y-101873247D01*
X71751777Y-101889723D01*
X71768253Y-101907901D01*
X71782868Y-101927607D01*
X71795480Y-101948650D01*
X71805970Y-101970829D01*
X71814235Y-101993928D01*
X71820196Y-102017727D01*
X71823796Y-102041995D01*
X71825000Y-102066499D01*
X71825000Y-103141501D01*
X71823796Y-103166005D01*
X71820196Y-103190273D01*
X71814235Y-103214072D01*
X71805970Y-103237171D01*
X71795480Y-103259350D01*
X71782868Y-103280393D01*
X71768253Y-103300099D01*
X71751777Y-103318277D01*
X71733599Y-103334753D01*
X71713893Y-103349368D01*
X71692850Y-103361980D01*
X71670671Y-103372470D01*
X71647572Y-103380735D01*
X71623773Y-103386696D01*
X71599505Y-103390296D01*
X71575001Y-103391500D01*
X70724999Y-103391500D01*
X70700495Y-103390296D01*
X70676227Y-103386696D01*
X70652428Y-103380735D01*
X70629329Y-103372470D01*
X70607150Y-103361980D01*
X70586107Y-103349368D01*
X70566401Y-103334753D01*
X70548223Y-103318277D01*
X70531747Y-103300099D01*
X70517132Y-103280393D01*
X70504520Y-103259350D01*
X70494030Y-103237171D01*
X70485765Y-103214072D01*
X70479804Y-103190273D01*
X70476204Y-103166005D01*
X70475000Y-103141501D01*
X70475000Y-102066499D01*
X70476204Y-102041995D01*
X70479804Y-102017727D01*
X70485765Y-101993928D01*
X70494030Y-101970829D01*
X70504520Y-101948650D01*
X70517132Y-101927607D01*
X70531747Y-101907901D01*
X70548223Y-101889723D01*
X70566401Y-101873247D01*
X70586107Y-101858632D01*
X70607150Y-101846020D01*
X70629329Y-101835530D01*
X70652428Y-101827265D01*
X70676227Y-101821304D01*
X70700495Y-101817704D01*
X70724999Y-101816500D01*
X71575001Y-101816500D01*
X71599505Y-101817704D01*
X71599505Y-101817704D01*
G37*
D12*
X71150000Y-102604000D03*
D10*
G36*
X71599505Y-104692704D02*
X71623773Y-104696304D01*
X71647572Y-104702265D01*
X71670671Y-104710530D01*
X71692850Y-104721020D01*
X71713893Y-104733632D01*
X71733599Y-104748247D01*
X71751777Y-104764723D01*
X71768253Y-104782901D01*
X71782868Y-104802607D01*
X71795480Y-104823650D01*
X71805970Y-104845829D01*
X71814235Y-104868928D01*
X71820196Y-104892727D01*
X71823796Y-104916995D01*
X71825000Y-104941499D01*
X71825000Y-106016501D01*
X71823796Y-106041005D01*
X71820196Y-106065273D01*
X71814235Y-106089072D01*
X71805970Y-106112171D01*
X71795480Y-106134350D01*
X71782868Y-106155393D01*
X71768253Y-106175099D01*
X71751777Y-106193277D01*
X71733599Y-106209753D01*
X71713893Y-106224368D01*
X71692850Y-106236980D01*
X71670671Y-106247470D01*
X71647572Y-106255735D01*
X71623773Y-106261696D01*
X71599505Y-106265296D01*
X71575001Y-106266500D01*
X70724999Y-106266500D01*
X70700495Y-106265296D01*
X70676227Y-106261696D01*
X70652428Y-106255735D01*
X70629329Y-106247470D01*
X70607150Y-106236980D01*
X70586107Y-106224368D01*
X70566401Y-106209753D01*
X70548223Y-106193277D01*
X70531747Y-106175099D01*
X70517132Y-106155393D01*
X70504520Y-106134350D01*
X70494030Y-106112171D01*
X70485765Y-106089072D01*
X70479804Y-106065273D01*
X70476204Y-106041005D01*
X70475000Y-106016501D01*
X70475000Y-104941499D01*
X70476204Y-104916995D01*
X70479804Y-104892727D01*
X70485765Y-104868928D01*
X70494030Y-104845829D01*
X70504520Y-104823650D01*
X70517132Y-104802607D01*
X70531747Y-104782901D01*
X70548223Y-104764723D01*
X70566401Y-104748247D01*
X70586107Y-104733632D01*
X70607150Y-104721020D01*
X70629329Y-104710530D01*
X70652428Y-104702265D01*
X70676227Y-104696304D01*
X70700495Y-104692704D01*
X70724999Y-104691500D01*
X71575001Y-104691500D01*
X71599505Y-104692704D01*
X71599505Y-104692704D01*
G37*
D12*
X71150000Y-105479000D03*
G04 #@! TD*
D10*
G04 #@! TO.C,C27*
G36*
X85939505Y-102855204D02*
X85963773Y-102858804D01*
X85987572Y-102864765D01*
X86010671Y-102873030D01*
X86032850Y-102883520D01*
X86053893Y-102896132D01*
X86073599Y-102910747D01*
X86091777Y-102927223D01*
X86108253Y-102945401D01*
X86122868Y-102965107D01*
X86135480Y-102986150D01*
X86145970Y-103008329D01*
X86154235Y-103031428D01*
X86160196Y-103055227D01*
X86163796Y-103079495D01*
X86165000Y-103103999D01*
X86165000Y-103754001D01*
X86163796Y-103778505D01*
X86160196Y-103802773D01*
X86154235Y-103826572D01*
X86145970Y-103849671D01*
X86135480Y-103871850D01*
X86122868Y-103892893D01*
X86108253Y-103912599D01*
X86091777Y-103930777D01*
X86073599Y-103947253D01*
X86053893Y-103961868D01*
X86032850Y-103974480D01*
X86010671Y-103984970D01*
X85987572Y-103993235D01*
X85963773Y-103999196D01*
X85939505Y-104002796D01*
X85915001Y-104004000D01*
X85014999Y-104004000D01*
X84990495Y-104002796D01*
X84966227Y-103999196D01*
X84942428Y-103993235D01*
X84919329Y-103984970D01*
X84897150Y-103974480D01*
X84876107Y-103961868D01*
X84856401Y-103947253D01*
X84838223Y-103930777D01*
X84821747Y-103912599D01*
X84807132Y-103892893D01*
X84794520Y-103871850D01*
X84784030Y-103849671D01*
X84775765Y-103826572D01*
X84769804Y-103802773D01*
X84766204Y-103778505D01*
X84765000Y-103754001D01*
X84765000Y-103103999D01*
X84766204Y-103079495D01*
X84769804Y-103055227D01*
X84775765Y-103031428D01*
X84784030Y-103008329D01*
X84794520Y-102986150D01*
X84807132Y-102965107D01*
X84821747Y-102945401D01*
X84838223Y-102927223D01*
X84856401Y-102910747D01*
X84876107Y-102896132D01*
X84897150Y-102883520D01*
X84919329Y-102873030D01*
X84942428Y-102864765D01*
X84966227Y-102858804D01*
X84990495Y-102855204D01*
X85014999Y-102854000D01*
X85915001Y-102854000D01*
X85939505Y-102855204D01*
X85939505Y-102855204D01*
G37*
D11*
X85465000Y-103429000D03*
D10*
G36*
X85939505Y-104905204D02*
X85963773Y-104908804D01*
X85987572Y-104914765D01*
X86010671Y-104923030D01*
X86032850Y-104933520D01*
X86053893Y-104946132D01*
X86073599Y-104960747D01*
X86091777Y-104977223D01*
X86108253Y-104995401D01*
X86122868Y-105015107D01*
X86135480Y-105036150D01*
X86145970Y-105058329D01*
X86154235Y-105081428D01*
X86160196Y-105105227D01*
X86163796Y-105129495D01*
X86165000Y-105153999D01*
X86165000Y-105804001D01*
X86163796Y-105828505D01*
X86160196Y-105852773D01*
X86154235Y-105876572D01*
X86145970Y-105899671D01*
X86135480Y-105921850D01*
X86122868Y-105942893D01*
X86108253Y-105962599D01*
X86091777Y-105980777D01*
X86073599Y-105997253D01*
X86053893Y-106011868D01*
X86032850Y-106024480D01*
X86010671Y-106034970D01*
X85987572Y-106043235D01*
X85963773Y-106049196D01*
X85939505Y-106052796D01*
X85915001Y-106054000D01*
X85014999Y-106054000D01*
X84990495Y-106052796D01*
X84966227Y-106049196D01*
X84942428Y-106043235D01*
X84919329Y-106034970D01*
X84897150Y-106024480D01*
X84876107Y-106011868D01*
X84856401Y-105997253D01*
X84838223Y-105980777D01*
X84821747Y-105962599D01*
X84807132Y-105942893D01*
X84794520Y-105921850D01*
X84784030Y-105899671D01*
X84775765Y-105876572D01*
X84769804Y-105852773D01*
X84766204Y-105828505D01*
X84765000Y-105804001D01*
X84765000Y-105153999D01*
X84766204Y-105129495D01*
X84769804Y-105105227D01*
X84775765Y-105081428D01*
X84784030Y-105058329D01*
X84794520Y-105036150D01*
X84807132Y-105015107D01*
X84821747Y-104995401D01*
X84838223Y-104977223D01*
X84856401Y-104960747D01*
X84876107Y-104946132D01*
X84897150Y-104933520D01*
X84919329Y-104923030D01*
X84942428Y-104914765D01*
X84966227Y-104908804D01*
X84990495Y-104905204D01*
X85014999Y-104904000D01*
X85915001Y-104904000D01*
X85939505Y-104905204D01*
X85939505Y-104905204D01*
G37*
D11*
X85465000Y-105479000D03*
G04 #@! TD*
D10*
G04 #@! TO.C,C26*
G36*
X79939505Y-102855204D02*
X79963773Y-102858804D01*
X79987572Y-102864765D01*
X80010671Y-102873030D01*
X80032850Y-102883520D01*
X80053893Y-102896132D01*
X80073599Y-102910747D01*
X80091777Y-102927223D01*
X80108253Y-102945401D01*
X80122868Y-102965107D01*
X80135480Y-102986150D01*
X80145970Y-103008329D01*
X80154235Y-103031428D01*
X80160196Y-103055227D01*
X80163796Y-103079495D01*
X80165000Y-103103999D01*
X80165000Y-103754001D01*
X80163796Y-103778505D01*
X80160196Y-103802773D01*
X80154235Y-103826572D01*
X80145970Y-103849671D01*
X80135480Y-103871850D01*
X80122868Y-103892893D01*
X80108253Y-103912599D01*
X80091777Y-103930777D01*
X80073599Y-103947253D01*
X80053893Y-103961868D01*
X80032850Y-103974480D01*
X80010671Y-103984970D01*
X79987572Y-103993235D01*
X79963773Y-103999196D01*
X79939505Y-104002796D01*
X79915001Y-104004000D01*
X79014999Y-104004000D01*
X78990495Y-104002796D01*
X78966227Y-103999196D01*
X78942428Y-103993235D01*
X78919329Y-103984970D01*
X78897150Y-103974480D01*
X78876107Y-103961868D01*
X78856401Y-103947253D01*
X78838223Y-103930777D01*
X78821747Y-103912599D01*
X78807132Y-103892893D01*
X78794520Y-103871850D01*
X78784030Y-103849671D01*
X78775765Y-103826572D01*
X78769804Y-103802773D01*
X78766204Y-103778505D01*
X78765000Y-103754001D01*
X78765000Y-103103999D01*
X78766204Y-103079495D01*
X78769804Y-103055227D01*
X78775765Y-103031428D01*
X78784030Y-103008329D01*
X78794520Y-102986150D01*
X78807132Y-102965107D01*
X78821747Y-102945401D01*
X78838223Y-102927223D01*
X78856401Y-102910747D01*
X78876107Y-102896132D01*
X78897150Y-102883520D01*
X78919329Y-102873030D01*
X78942428Y-102864765D01*
X78966227Y-102858804D01*
X78990495Y-102855204D01*
X79014999Y-102854000D01*
X79915001Y-102854000D01*
X79939505Y-102855204D01*
X79939505Y-102855204D01*
G37*
D11*
X79465000Y-103429000D03*
D10*
G36*
X79939505Y-104905204D02*
X79963773Y-104908804D01*
X79987572Y-104914765D01*
X80010671Y-104923030D01*
X80032850Y-104933520D01*
X80053893Y-104946132D01*
X80073599Y-104960747D01*
X80091777Y-104977223D01*
X80108253Y-104995401D01*
X80122868Y-105015107D01*
X80135480Y-105036150D01*
X80145970Y-105058329D01*
X80154235Y-105081428D01*
X80160196Y-105105227D01*
X80163796Y-105129495D01*
X80165000Y-105153999D01*
X80165000Y-105804001D01*
X80163796Y-105828505D01*
X80160196Y-105852773D01*
X80154235Y-105876572D01*
X80145970Y-105899671D01*
X80135480Y-105921850D01*
X80122868Y-105942893D01*
X80108253Y-105962599D01*
X80091777Y-105980777D01*
X80073599Y-105997253D01*
X80053893Y-106011868D01*
X80032850Y-106024480D01*
X80010671Y-106034970D01*
X79987572Y-106043235D01*
X79963773Y-106049196D01*
X79939505Y-106052796D01*
X79915001Y-106054000D01*
X79014999Y-106054000D01*
X78990495Y-106052796D01*
X78966227Y-106049196D01*
X78942428Y-106043235D01*
X78919329Y-106034970D01*
X78897150Y-106024480D01*
X78876107Y-106011868D01*
X78856401Y-105997253D01*
X78838223Y-105980777D01*
X78821747Y-105962599D01*
X78807132Y-105942893D01*
X78794520Y-105921850D01*
X78784030Y-105899671D01*
X78775765Y-105876572D01*
X78769804Y-105852773D01*
X78766204Y-105828505D01*
X78765000Y-105804001D01*
X78765000Y-105153999D01*
X78766204Y-105129495D01*
X78769804Y-105105227D01*
X78775765Y-105081428D01*
X78784030Y-105058329D01*
X78794520Y-105036150D01*
X78807132Y-105015107D01*
X78821747Y-104995401D01*
X78838223Y-104977223D01*
X78856401Y-104960747D01*
X78876107Y-104946132D01*
X78897150Y-104933520D01*
X78919329Y-104923030D01*
X78942428Y-104914765D01*
X78966227Y-104908804D01*
X78990495Y-104905204D01*
X79014999Y-104904000D01*
X79915001Y-104904000D01*
X79939505Y-104905204D01*
X79939505Y-104905204D01*
G37*
D11*
X79465000Y-105479000D03*
G04 #@! TD*
D10*
G04 #@! TO.C,C30*
G36*
X73739505Y-99334204D02*
X73763773Y-99337804D01*
X73787572Y-99343765D01*
X73810671Y-99352030D01*
X73832850Y-99362520D01*
X73853893Y-99375132D01*
X73873599Y-99389747D01*
X73891777Y-99406223D01*
X73908253Y-99424401D01*
X73922868Y-99444107D01*
X73935480Y-99465150D01*
X73945970Y-99487329D01*
X73954235Y-99510428D01*
X73960196Y-99534227D01*
X73963796Y-99558495D01*
X73965000Y-99582999D01*
X73965000Y-100483001D01*
X73963796Y-100507505D01*
X73960196Y-100531773D01*
X73954235Y-100555572D01*
X73945970Y-100578671D01*
X73935480Y-100600850D01*
X73922868Y-100621893D01*
X73908253Y-100641599D01*
X73891777Y-100659777D01*
X73873599Y-100676253D01*
X73853893Y-100690868D01*
X73832850Y-100703480D01*
X73810671Y-100713970D01*
X73787572Y-100722235D01*
X73763773Y-100728196D01*
X73739505Y-100731796D01*
X73715001Y-100733000D01*
X73064999Y-100733000D01*
X73040495Y-100731796D01*
X73016227Y-100728196D01*
X72992428Y-100722235D01*
X72969329Y-100713970D01*
X72947150Y-100703480D01*
X72926107Y-100690868D01*
X72906401Y-100676253D01*
X72888223Y-100659777D01*
X72871747Y-100641599D01*
X72857132Y-100621893D01*
X72844520Y-100600850D01*
X72834030Y-100578671D01*
X72825765Y-100555572D01*
X72819804Y-100531773D01*
X72816204Y-100507505D01*
X72815000Y-100483001D01*
X72815000Y-99582999D01*
X72816204Y-99558495D01*
X72819804Y-99534227D01*
X72825765Y-99510428D01*
X72834030Y-99487329D01*
X72844520Y-99465150D01*
X72857132Y-99444107D01*
X72871747Y-99424401D01*
X72888223Y-99406223D01*
X72906401Y-99389747D01*
X72926107Y-99375132D01*
X72947150Y-99362520D01*
X72969329Y-99352030D01*
X72992428Y-99343765D01*
X73016227Y-99337804D01*
X73040495Y-99334204D01*
X73064999Y-99333000D01*
X73715001Y-99333000D01*
X73739505Y-99334204D01*
X73739505Y-99334204D01*
G37*
D11*
X73390000Y-100033000D03*
D10*
G36*
X75789505Y-99334204D02*
X75813773Y-99337804D01*
X75837572Y-99343765D01*
X75860671Y-99352030D01*
X75882850Y-99362520D01*
X75903893Y-99375132D01*
X75923599Y-99389747D01*
X75941777Y-99406223D01*
X75958253Y-99424401D01*
X75972868Y-99444107D01*
X75985480Y-99465150D01*
X75995970Y-99487329D01*
X76004235Y-99510428D01*
X76010196Y-99534227D01*
X76013796Y-99558495D01*
X76015000Y-99582999D01*
X76015000Y-100483001D01*
X76013796Y-100507505D01*
X76010196Y-100531773D01*
X76004235Y-100555572D01*
X75995970Y-100578671D01*
X75985480Y-100600850D01*
X75972868Y-100621893D01*
X75958253Y-100641599D01*
X75941777Y-100659777D01*
X75923599Y-100676253D01*
X75903893Y-100690868D01*
X75882850Y-100703480D01*
X75860671Y-100713970D01*
X75837572Y-100722235D01*
X75813773Y-100728196D01*
X75789505Y-100731796D01*
X75765001Y-100733000D01*
X75114999Y-100733000D01*
X75090495Y-100731796D01*
X75066227Y-100728196D01*
X75042428Y-100722235D01*
X75019329Y-100713970D01*
X74997150Y-100703480D01*
X74976107Y-100690868D01*
X74956401Y-100676253D01*
X74938223Y-100659777D01*
X74921747Y-100641599D01*
X74907132Y-100621893D01*
X74894520Y-100600850D01*
X74884030Y-100578671D01*
X74875765Y-100555572D01*
X74869804Y-100531773D01*
X74866204Y-100507505D01*
X74865000Y-100483001D01*
X74865000Y-99582999D01*
X74866204Y-99558495D01*
X74869804Y-99534227D01*
X74875765Y-99510428D01*
X74884030Y-99487329D01*
X74894520Y-99465150D01*
X74907132Y-99444107D01*
X74921747Y-99424401D01*
X74938223Y-99406223D01*
X74956401Y-99389747D01*
X74976107Y-99375132D01*
X74997150Y-99362520D01*
X75019329Y-99352030D01*
X75042428Y-99343765D01*
X75066227Y-99337804D01*
X75090495Y-99334204D01*
X75114999Y-99333000D01*
X75765001Y-99333000D01*
X75789505Y-99334204D01*
X75789505Y-99334204D01*
G37*
D11*
X75440000Y-100033000D03*
G04 #@! TD*
D10*
G04 #@! TO.C,C29*
G36*
X75789505Y-97038995D02*
X75813773Y-97042595D01*
X75837572Y-97048556D01*
X75860671Y-97056821D01*
X75882850Y-97067311D01*
X75903893Y-97079923D01*
X75923599Y-97094538D01*
X75941777Y-97111014D01*
X75958253Y-97129192D01*
X75972868Y-97148898D01*
X75985480Y-97169941D01*
X75995970Y-97192120D01*
X76004235Y-97215219D01*
X76010196Y-97239018D01*
X76013796Y-97263286D01*
X76015000Y-97287790D01*
X76015000Y-98187792D01*
X76013796Y-98212296D01*
X76010196Y-98236564D01*
X76004235Y-98260363D01*
X75995970Y-98283462D01*
X75985480Y-98305641D01*
X75972868Y-98326684D01*
X75958253Y-98346390D01*
X75941777Y-98364568D01*
X75923599Y-98381044D01*
X75903893Y-98395659D01*
X75882850Y-98408271D01*
X75860671Y-98418761D01*
X75837572Y-98427026D01*
X75813773Y-98432987D01*
X75789505Y-98436587D01*
X75765001Y-98437791D01*
X75114999Y-98437791D01*
X75090495Y-98436587D01*
X75066227Y-98432987D01*
X75042428Y-98427026D01*
X75019329Y-98418761D01*
X74997150Y-98408271D01*
X74976107Y-98395659D01*
X74956401Y-98381044D01*
X74938223Y-98364568D01*
X74921747Y-98346390D01*
X74907132Y-98326684D01*
X74894520Y-98305641D01*
X74884030Y-98283462D01*
X74875765Y-98260363D01*
X74869804Y-98236564D01*
X74866204Y-98212296D01*
X74865000Y-98187792D01*
X74865000Y-97287790D01*
X74866204Y-97263286D01*
X74869804Y-97239018D01*
X74875765Y-97215219D01*
X74884030Y-97192120D01*
X74894520Y-97169941D01*
X74907132Y-97148898D01*
X74921747Y-97129192D01*
X74938223Y-97111014D01*
X74956401Y-97094538D01*
X74976107Y-97079923D01*
X74997150Y-97067311D01*
X75019329Y-97056821D01*
X75042428Y-97048556D01*
X75066227Y-97042595D01*
X75090495Y-97038995D01*
X75114999Y-97037791D01*
X75765001Y-97037791D01*
X75789505Y-97038995D01*
X75789505Y-97038995D01*
G37*
D11*
X75440000Y-97737791D03*
D10*
G36*
X77839505Y-97038995D02*
X77863773Y-97042595D01*
X77887572Y-97048556D01*
X77910671Y-97056821D01*
X77932850Y-97067311D01*
X77953893Y-97079923D01*
X77973599Y-97094538D01*
X77991777Y-97111014D01*
X78008253Y-97129192D01*
X78022868Y-97148898D01*
X78035480Y-97169941D01*
X78045970Y-97192120D01*
X78054235Y-97215219D01*
X78060196Y-97239018D01*
X78063796Y-97263286D01*
X78065000Y-97287790D01*
X78065000Y-98187792D01*
X78063796Y-98212296D01*
X78060196Y-98236564D01*
X78054235Y-98260363D01*
X78045970Y-98283462D01*
X78035480Y-98305641D01*
X78022868Y-98326684D01*
X78008253Y-98346390D01*
X77991777Y-98364568D01*
X77973599Y-98381044D01*
X77953893Y-98395659D01*
X77932850Y-98408271D01*
X77910671Y-98418761D01*
X77887572Y-98427026D01*
X77863773Y-98432987D01*
X77839505Y-98436587D01*
X77815001Y-98437791D01*
X77164999Y-98437791D01*
X77140495Y-98436587D01*
X77116227Y-98432987D01*
X77092428Y-98427026D01*
X77069329Y-98418761D01*
X77047150Y-98408271D01*
X77026107Y-98395659D01*
X77006401Y-98381044D01*
X76988223Y-98364568D01*
X76971747Y-98346390D01*
X76957132Y-98326684D01*
X76944520Y-98305641D01*
X76934030Y-98283462D01*
X76925765Y-98260363D01*
X76919804Y-98236564D01*
X76916204Y-98212296D01*
X76915000Y-98187792D01*
X76915000Y-97287790D01*
X76916204Y-97263286D01*
X76919804Y-97239018D01*
X76925765Y-97215219D01*
X76934030Y-97192120D01*
X76944520Y-97169941D01*
X76957132Y-97148898D01*
X76971747Y-97129192D01*
X76988223Y-97111014D01*
X77006401Y-97094538D01*
X77026107Y-97079923D01*
X77047150Y-97067311D01*
X77069329Y-97056821D01*
X77092428Y-97048556D01*
X77116227Y-97042595D01*
X77140495Y-97038995D01*
X77164999Y-97037791D01*
X77815001Y-97037791D01*
X77839505Y-97038995D01*
X77839505Y-97038995D01*
G37*
D11*
X77490000Y-97737791D03*
G04 #@! TD*
D13*
G04 #@! TO.C,J1*
X64460000Y-122600000D03*
X65845000Y-122600000D03*
X67230000Y-122600000D03*
X68615000Y-122600000D03*
X70000000Y-122600000D03*
X71385000Y-122600000D03*
X72770000Y-122600000D03*
X74155000Y-122600000D03*
X75540000Y-122600000D03*
G04 #@! TD*
D10*
G04 #@! TO.C,C1*
G36*
X68654505Y-114214204D02*
X68678773Y-114217804D01*
X68702572Y-114223765D01*
X68725671Y-114232030D01*
X68747850Y-114242520D01*
X68768893Y-114255132D01*
X68788599Y-114269747D01*
X68806777Y-114286223D01*
X68823253Y-114304401D01*
X68837868Y-114324107D01*
X68850480Y-114345150D01*
X68860970Y-114367329D01*
X68869235Y-114390428D01*
X68875196Y-114414227D01*
X68878796Y-114438495D01*
X68880000Y-114462999D01*
X68880000Y-115113001D01*
X68878796Y-115137505D01*
X68875196Y-115161773D01*
X68869235Y-115185572D01*
X68860970Y-115208671D01*
X68850480Y-115230850D01*
X68837868Y-115251893D01*
X68823253Y-115271599D01*
X68806777Y-115289777D01*
X68788599Y-115306253D01*
X68768893Y-115320868D01*
X68747850Y-115333480D01*
X68725671Y-115343970D01*
X68702572Y-115352235D01*
X68678773Y-115358196D01*
X68654505Y-115361796D01*
X68630001Y-115363000D01*
X67729999Y-115363000D01*
X67705495Y-115361796D01*
X67681227Y-115358196D01*
X67657428Y-115352235D01*
X67634329Y-115343970D01*
X67612150Y-115333480D01*
X67591107Y-115320868D01*
X67571401Y-115306253D01*
X67553223Y-115289777D01*
X67536747Y-115271599D01*
X67522132Y-115251893D01*
X67509520Y-115230850D01*
X67499030Y-115208671D01*
X67490765Y-115185572D01*
X67484804Y-115161773D01*
X67481204Y-115137505D01*
X67480000Y-115113001D01*
X67480000Y-114462999D01*
X67481204Y-114438495D01*
X67484804Y-114414227D01*
X67490765Y-114390428D01*
X67499030Y-114367329D01*
X67509520Y-114345150D01*
X67522132Y-114324107D01*
X67536747Y-114304401D01*
X67553223Y-114286223D01*
X67571401Y-114269747D01*
X67591107Y-114255132D01*
X67612150Y-114242520D01*
X67634329Y-114232030D01*
X67657428Y-114223765D01*
X67681227Y-114217804D01*
X67705495Y-114214204D01*
X67729999Y-114213000D01*
X68630001Y-114213000D01*
X68654505Y-114214204D01*
X68654505Y-114214204D01*
G37*
D11*
X68180000Y-114788000D03*
D10*
G36*
X68654505Y-112164204D02*
X68678773Y-112167804D01*
X68702572Y-112173765D01*
X68725671Y-112182030D01*
X68747850Y-112192520D01*
X68768893Y-112205132D01*
X68788599Y-112219747D01*
X68806777Y-112236223D01*
X68823253Y-112254401D01*
X68837868Y-112274107D01*
X68850480Y-112295150D01*
X68860970Y-112317329D01*
X68869235Y-112340428D01*
X68875196Y-112364227D01*
X68878796Y-112388495D01*
X68880000Y-112412999D01*
X68880000Y-113063001D01*
X68878796Y-113087505D01*
X68875196Y-113111773D01*
X68869235Y-113135572D01*
X68860970Y-113158671D01*
X68850480Y-113180850D01*
X68837868Y-113201893D01*
X68823253Y-113221599D01*
X68806777Y-113239777D01*
X68788599Y-113256253D01*
X68768893Y-113270868D01*
X68747850Y-113283480D01*
X68725671Y-113293970D01*
X68702572Y-113302235D01*
X68678773Y-113308196D01*
X68654505Y-113311796D01*
X68630001Y-113313000D01*
X67729999Y-113313000D01*
X67705495Y-113311796D01*
X67681227Y-113308196D01*
X67657428Y-113302235D01*
X67634329Y-113293970D01*
X67612150Y-113283480D01*
X67591107Y-113270868D01*
X67571401Y-113256253D01*
X67553223Y-113239777D01*
X67536747Y-113221599D01*
X67522132Y-113201893D01*
X67509520Y-113180850D01*
X67499030Y-113158671D01*
X67490765Y-113135572D01*
X67484804Y-113111773D01*
X67481204Y-113087505D01*
X67480000Y-113063001D01*
X67480000Y-112412999D01*
X67481204Y-112388495D01*
X67484804Y-112364227D01*
X67490765Y-112340428D01*
X67499030Y-112317329D01*
X67509520Y-112295150D01*
X67522132Y-112274107D01*
X67536747Y-112254401D01*
X67553223Y-112236223D01*
X67571401Y-112219747D01*
X67591107Y-112205132D01*
X67612150Y-112192520D01*
X67634329Y-112182030D01*
X67657428Y-112173765D01*
X67681227Y-112167804D01*
X67705495Y-112164204D01*
X67729999Y-112163000D01*
X68630001Y-112163000D01*
X68654505Y-112164204D01*
X68654505Y-112164204D01*
G37*
D11*
X68180000Y-112738000D03*
G04 #@! TD*
D10*
G04 #@! TO.C,C2*
G36*
X59254505Y-114214204D02*
X59278773Y-114217804D01*
X59302572Y-114223765D01*
X59325671Y-114232030D01*
X59347850Y-114242520D01*
X59368893Y-114255132D01*
X59388599Y-114269747D01*
X59406777Y-114286223D01*
X59423253Y-114304401D01*
X59437868Y-114324107D01*
X59450480Y-114345150D01*
X59460970Y-114367329D01*
X59469235Y-114390428D01*
X59475196Y-114414227D01*
X59478796Y-114438495D01*
X59480000Y-114462999D01*
X59480000Y-115113001D01*
X59478796Y-115137505D01*
X59475196Y-115161773D01*
X59469235Y-115185572D01*
X59460970Y-115208671D01*
X59450480Y-115230850D01*
X59437868Y-115251893D01*
X59423253Y-115271599D01*
X59406777Y-115289777D01*
X59388599Y-115306253D01*
X59368893Y-115320868D01*
X59347850Y-115333480D01*
X59325671Y-115343970D01*
X59302572Y-115352235D01*
X59278773Y-115358196D01*
X59254505Y-115361796D01*
X59230001Y-115363000D01*
X58329999Y-115363000D01*
X58305495Y-115361796D01*
X58281227Y-115358196D01*
X58257428Y-115352235D01*
X58234329Y-115343970D01*
X58212150Y-115333480D01*
X58191107Y-115320868D01*
X58171401Y-115306253D01*
X58153223Y-115289777D01*
X58136747Y-115271599D01*
X58122132Y-115251893D01*
X58109520Y-115230850D01*
X58099030Y-115208671D01*
X58090765Y-115185572D01*
X58084804Y-115161773D01*
X58081204Y-115137505D01*
X58080000Y-115113001D01*
X58080000Y-114462999D01*
X58081204Y-114438495D01*
X58084804Y-114414227D01*
X58090765Y-114390428D01*
X58099030Y-114367329D01*
X58109520Y-114345150D01*
X58122132Y-114324107D01*
X58136747Y-114304401D01*
X58153223Y-114286223D01*
X58171401Y-114269747D01*
X58191107Y-114255132D01*
X58212150Y-114242520D01*
X58234329Y-114232030D01*
X58257428Y-114223765D01*
X58281227Y-114217804D01*
X58305495Y-114214204D01*
X58329999Y-114213000D01*
X59230001Y-114213000D01*
X59254505Y-114214204D01*
X59254505Y-114214204D01*
G37*
D11*
X58780000Y-114788000D03*
D10*
G36*
X59254505Y-112164204D02*
X59278773Y-112167804D01*
X59302572Y-112173765D01*
X59325671Y-112182030D01*
X59347850Y-112192520D01*
X59368893Y-112205132D01*
X59388599Y-112219747D01*
X59406777Y-112236223D01*
X59423253Y-112254401D01*
X59437868Y-112274107D01*
X59450480Y-112295150D01*
X59460970Y-112317329D01*
X59469235Y-112340428D01*
X59475196Y-112364227D01*
X59478796Y-112388495D01*
X59480000Y-112412999D01*
X59480000Y-113063001D01*
X59478796Y-113087505D01*
X59475196Y-113111773D01*
X59469235Y-113135572D01*
X59460970Y-113158671D01*
X59450480Y-113180850D01*
X59437868Y-113201893D01*
X59423253Y-113221599D01*
X59406777Y-113239777D01*
X59388599Y-113256253D01*
X59368893Y-113270868D01*
X59347850Y-113283480D01*
X59325671Y-113293970D01*
X59302572Y-113302235D01*
X59278773Y-113308196D01*
X59254505Y-113311796D01*
X59230001Y-113313000D01*
X58329999Y-113313000D01*
X58305495Y-113311796D01*
X58281227Y-113308196D01*
X58257428Y-113302235D01*
X58234329Y-113293970D01*
X58212150Y-113283480D01*
X58191107Y-113270868D01*
X58171401Y-113256253D01*
X58153223Y-113239777D01*
X58136747Y-113221599D01*
X58122132Y-113201893D01*
X58109520Y-113180850D01*
X58099030Y-113158671D01*
X58090765Y-113135572D01*
X58084804Y-113111773D01*
X58081204Y-113087505D01*
X58080000Y-113063001D01*
X58080000Y-112412999D01*
X58081204Y-112388495D01*
X58084804Y-112364227D01*
X58090765Y-112340428D01*
X58099030Y-112317329D01*
X58109520Y-112295150D01*
X58122132Y-112274107D01*
X58136747Y-112254401D01*
X58153223Y-112236223D01*
X58171401Y-112219747D01*
X58191107Y-112205132D01*
X58212150Y-112192520D01*
X58234329Y-112182030D01*
X58257428Y-112173765D01*
X58281227Y-112167804D01*
X58305495Y-112164204D01*
X58329999Y-112163000D01*
X59230001Y-112163000D01*
X59254505Y-112164204D01*
X59254505Y-112164204D01*
G37*
D11*
X58780000Y-112738000D03*
G04 #@! TD*
D10*
G04 #@! TO.C,C3*
G36*
X78398505Y-115574204D02*
X78422773Y-115577804D01*
X78446572Y-115583765D01*
X78469671Y-115592030D01*
X78491850Y-115602520D01*
X78512893Y-115615132D01*
X78532599Y-115629747D01*
X78550777Y-115646223D01*
X78567253Y-115664401D01*
X78581868Y-115684107D01*
X78594480Y-115705150D01*
X78604970Y-115727329D01*
X78613235Y-115750428D01*
X78619196Y-115774227D01*
X78622796Y-115798495D01*
X78624000Y-115822999D01*
X78624000Y-116473001D01*
X78622796Y-116497505D01*
X78619196Y-116521773D01*
X78613235Y-116545572D01*
X78604970Y-116568671D01*
X78594480Y-116590850D01*
X78581868Y-116611893D01*
X78567253Y-116631599D01*
X78550777Y-116649777D01*
X78532599Y-116666253D01*
X78512893Y-116680868D01*
X78491850Y-116693480D01*
X78469671Y-116703970D01*
X78446572Y-116712235D01*
X78422773Y-116718196D01*
X78398505Y-116721796D01*
X78374001Y-116723000D01*
X77473999Y-116723000D01*
X77449495Y-116721796D01*
X77425227Y-116718196D01*
X77401428Y-116712235D01*
X77378329Y-116703970D01*
X77356150Y-116693480D01*
X77335107Y-116680868D01*
X77315401Y-116666253D01*
X77297223Y-116649777D01*
X77280747Y-116631599D01*
X77266132Y-116611893D01*
X77253520Y-116590850D01*
X77243030Y-116568671D01*
X77234765Y-116545572D01*
X77228804Y-116521773D01*
X77225204Y-116497505D01*
X77224000Y-116473001D01*
X77224000Y-115822999D01*
X77225204Y-115798495D01*
X77228804Y-115774227D01*
X77234765Y-115750428D01*
X77243030Y-115727329D01*
X77253520Y-115705150D01*
X77266132Y-115684107D01*
X77280747Y-115664401D01*
X77297223Y-115646223D01*
X77315401Y-115629747D01*
X77335107Y-115615132D01*
X77356150Y-115602520D01*
X77378329Y-115592030D01*
X77401428Y-115583765D01*
X77425227Y-115577804D01*
X77449495Y-115574204D01*
X77473999Y-115573000D01*
X78374001Y-115573000D01*
X78398505Y-115574204D01*
X78398505Y-115574204D01*
G37*
D11*
X77924000Y-116148000D03*
D10*
G36*
X78398505Y-113524204D02*
X78422773Y-113527804D01*
X78446572Y-113533765D01*
X78469671Y-113542030D01*
X78491850Y-113552520D01*
X78512893Y-113565132D01*
X78532599Y-113579747D01*
X78550777Y-113596223D01*
X78567253Y-113614401D01*
X78581868Y-113634107D01*
X78594480Y-113655150D01*
X78604970Y-113677329D01*
X78613235Y-113700428D01*
X78619196Y-113724227D01*
X78622796Y-113748495D01*
X78624000Y-113772999D01*
X78624000Y-114423001D01*
X78622796Y-114447505D01*
X78619196Y-114471773D01*
X78613235Y-114495572D01*
X78604970Y-114518671D01*
X78594480Y-114540850D01*
X78581868Y-114561893D01*
X78567253Y-114581599D01*
X78550777Y-114599777D01*
X78532599Y-114616253D01*
X78512893Y-114630868D01*
X78491850Y-114643480D01*
X78469671Y-114653970D01*
X78446572Y-114662235D01*
X78422773Y-114668196D01*
X78398505Y-114671796D01*
X78374001Y-114673000D01*
X77473999Y-114673000D01*
X77449495Y-114671796D01*
X77425227Y-114668196D01*
X77401428Y-114662235D01*
X77378329Y-114653970D01*
X77356150Y-114643480D01*
X77335107Y-114630868D01*
X77315401Y-114616253D01*
X77297223Y-114599777D01*
X77280747Y-114581599D01*
X77266132Y-114561893D01*
X77253520Y-114540850D01*
X77243030Y-114518671D01*
X77234765Y-114495572D01*
X77228804Y-114471773D01*
X77225204Y-114447505D01*
X77224000Y-114423001D01*
X77224000Y-113772999D01*
X77225204Y-113748495D01*
X77228804Y-113724227D01*
X77234765Y-113700428D01*
X77243030Y-113677329D01*
X77253520Y-113655150D01*
X77266132Y-113634107D01*
X77280747Y-113614401D01*
X77297223Y-113596223D01*
X77315401Y-113579747D01*
X77335107Y-113565132D01*
X77356150Y-113552520D01*
X77378329Y-113542030D01*
X77401428Y-113533765D01*
X77425227Y-113527804D01*
X77449495Y-113524204D01*
X77473999Y-113523000D01*
X78374001Y-113523000D01*
X78398505Y-113524204D01*
X78398505Y-113524204D01*
G37*
D11*
X77924000Y-114098000D03*
G04 #@! TD*
D10*
G04 #@! TO.C,C4*
G36*
X72571505Y-113524204D02*
X72595773Y-113527804D01*
X72619572Y-113533765D01*
X72642671Y-113542030D01*
X72664850Y-113552520D01*
X72685893Y-113565132D01*
X72705599Y-113579747D01*
X72723777Y-113596223D01*
X72740253Y-113614401D01*
X72754868Y-113634107D01*
X72767480Y-113655150D01*
X72777970Y-113677329D01*
X72786235Y-113700428D01*
X72792196Y-113724227D01*
X72795796Y-113748495D01*
X72797000Y-113772999D01*
X72797000Y-114423001D01*
X72795796Y-114447505D01*
X72792196Y-114471773D01*
X72786235Y-114495572D01*
X72777970Y-114518671D01*
X72767480Y-114540850D01*
X72754868Y-114561893D01*
X72740253Y-114581599D01*
X72723777Y-114599777D01*
X72705599Y-114616253D01*
X72685893Y-114630868D01*
X72664850Y-114643480D01*
X72642671Y-114653970D01*
X72619572Y-114662235D01*
X72595773Y-114668196D01*
X72571505Y-114671796D01*
X72547001Y-114673000D01*
X71646999Y-114673000D01*
X71622495Y-114671796D01*
X71598227Y-114668196D01*
X71574428Y-114662235D01*
X71551329Y-114653970D01*
X71529150Y-114643480D01*
X71508107Y-114630868D01*
X71488401Y-114616253D01*
X71470223Y-114599777D01*
X71453747Y-114581599D01*
X71439132Y-114561893D01*
X71426520Y-114540850D01*
X71416030Y-114518671D01*
X71407765Y-114495572D01*
X71401804Y-114471773D01*
X71398204Y-114447505D01*
X71397000Y-114423001D01*
X71397000Y-113772999D01*
X71398204Y-113748495D01*
X71401804Y-113724227D01*
X71407765Y-113700428D01*
X71416030Y-113677329D01*
X71426520Y-113655150D01*
X71439132Y-113634107D01*
X71453747Y-113614401D01*
X71470223Y-113596223D01*
X71488401Y-113579747D01*
X71508107Y-113565132D01*
X71529150Y-113552520D01*
X71551329Y-113542030D01*
X71574428Y-113533765D01*
X71598227Y-113527804D01*
X71622495Y-113524204D01*
X71646999Y-113523000D01*
X72547001Y-113523000D01*
X72571505Y-113524204D01*
X72571505Y-113524204D01*
G37*
D11*
X72097000Y-114098000D03*
D10*
G36*
X72571505Y-115574204D02*
X72595773Y-115577804D01*
X72619572Y-115583765D01*
X72642671Y-115592030D01*
X72664850Y-115602520D01*
X72685893Y-115615132D01*
X72705599Y-115629747D01*
X72723777Y-115646223D01*
X72740253Y-115664401D01*
X72754868Y-115684107D01*
X72767480Y-115705150D01*
X72777970Y-115727329D01*
X72786235Y-115750428D01*
X72792196Y-115774227D01*
X72795796Y-115798495D01*
X72797000Y-115822999D01*
X72797000Y-116473001D01*
X72795796Y-116497505D01*
X72792196Y-116521773D01*
X72786235Y-116545572D01*
X72777970Y-116568671D01*
X72767480Y-116590850D01*
X72754868Y-116611893D01*
X72740253Y-116631599D01*
X72723777Y-116649777D01*
X72705599Y-116666253D01*
X72685893Y-116680868D01*
X72664850Y-116693480D01*
X72642671Y-116703970D01*
X72619572Y-116712235D01*
X72595773Y-116718196D01*
X72571505Y-116721796D01*
X72547001Y-116723000D01*
X71646999Y-116723000D01*
X71622495Y-116721796D01*
X71598227Y-116718196D01*
X71574428Y-116712235D01*
X71551329Y-116703970D01*
X71529150Y-116693480D01*
X71508107Y-116680868D01*
X71488401Y-116666253D01*
X71470223Y-116649777D01*
X71453747Y-116631599D01*
X71439132Y-116611893D01*
X71426520Y-116590850D01*
X71416030Y-116568671D01*
X71407765Y-116545572D01*
X71401804Y-116521773D01*
X71398204Y-116497505D01*
X71397000Y-116473001D01*
X71397000Y-115822999D01*
X71398204Y-115798495D01*
X71401804Y-115774227D01*
X71407765Y-115750428D01*
X71416030Y-115727329D01*
X71426520Y-115705150D01*
X71439132Y-115684107D01*
X71453747Y-115664401D01*
X71470223Y-115646223D01*
X71488401Y-115629747D01*
X71508107Y-115615132D01*
X71529150Y-115602520D01*
X71551329Y-115592030D01*
X71574428Y-115583765D01*
X71598227Y-115577804D01*
X71622495Y-115574204D01*
X71646999Y-115573000D01*
X72547001Y-115573000D01*
X72571505Y-115574204D01*
X72571505Y-115574204D01*
G37*
D11*
X72097000Y-116148000D03*
G04 #@! TD*
D10*
G04 #@! TO.C,C19*
G36*
X63407505Y-102855204D02*
X63431773Y-102858804D01*
X63455572Y-102864765D01*
X63478671Y-102873030D01*
X63500850Y-102883520D01*
X63521893Y-102896132D01*
X63541599Y-102910747D01*
X63559777Y-102927223D01*
X63576253Y-102945401D01*
X63590868Y-102965107D01*
X63603480Y-102986150D01*
X63613970Y-103008329D01*
X63622235Y-103031428D01*
X63628196Y-103055227D01*
X63631796Y-103079495D01*
X63633000Y-103103999D01*
X63633000Y-103754001D01*
X63631796Y-103778505D01*
X63628196Y-103802773D01*
X63622235Y-103826572D01*
X63613970Y-103849671D01*
X63603480Y-103871850D01*
X63590868Y-103892893D01*
X63576253Y-103912599D01*
X63559777Y-103930777D01*
X63541599Y-103947253D01*
X63521893Y-103961868D01*
X63500850Y-103974480D01*
X63478671Y-103984970D01*
X63455572Y-103993235D01*
X63431773Y-103999196D01*
X63407505Y-104002796D01*
X63383001Y-104004000D01*
X62482999Y-104004000D01*
X62458495Y-104002796D01*
X62434227Y-103999196D01*
X62410428Y-103993235D01*
X62387329Y-103984970D01*
X62365150Y-103974480D01*
X62344107Y-103961868D01*
X62324401Y-103947253D01*
X62306223Y-103930777D01*
X62289747Y-103912599D01*
X62275132Y-103892893D01*
X62262520Y-103871850D01*
X62252030Y-103849671D01*
X62243765Y-103826572D01*
X62237804Y-103802773D01*
X62234204Y-103778505D01*
X62233000Y-103754001D01*
X62233000Y-103103999D01*
X62234204Y-103079495D01*
X62237804Y-103055227D01*
X62243765Y-103031428D01*
X62252030Y-103008329D01*
X62262520Y-102986150D01*
X62275132Y-102965107D01*
X62289747Y-102945401D01*
X62306223Y-102927223D01*
X62324401Y-102910747D01*
X62344107Y-102896132D01*
X62365150Y-102883520D01*
X62387329Y-102873030D01*
X62410428Y-102864765D01*
X62434227Y-102858804D01*
X62458495Y-102855204D01*
X62482999Y-102854000D01*
X63383001Y-102854000D01*
X63407505Y-102855204D01*
X63407505Y-102855204D01*
G37*
D11*
X62933000Y-103429000D03*
D10*
G36*
X63407505Y-104905204D02*
X63431773Y-104908804D01*
X63455572Y-104914765D01*
X63478671Y-104923030D01*
X63500850Y-104933520D01*
X63521893Y-104946132D01*
X63541599Y-104960747D01*
X63559777Y-104977223D01*
X63576253Y-104995401D01*
X63590868Y-105015107D01*
X63603480Y-105036150D01*
X63613970Y-105058329D01*
X63622235Y-105081428D01*
X63628196Y-105105227D01*
X63631796Y-105129495D01*
X63633000Y-105153999D01*
X63633000Y-105804001D01*
X63631796Y-105828505D01*
X63628196Y-105852773D01*
X63622235Y-105876572D01*
X63613970Y-105899671D01*
X63603480Y-105921850D01*
X63590868Y-105942893D01*
X63576253Y-105962599D01*
X63559777Y-105980777D01*
X63541599Y-105997253D01*
X63521893Y-106011868D01*
X63500850Y-106024480D01*
X63478671Y-106034970D01*
X63455572Y-106043235D01*
X63431773Y-106049196D01*
X63407505Y-106052796D01*
X63383001Y-106054000D01*
X62482999Y-106054000D01*
X62458495Y-106052796D01*
X62434227Y-106049196D01*
X62410428Y-106043235D01*
X62387329Y-106034970D01*
X62365150Y-106024480D01*
X62344107Y-106011868D01*
X62324401Y-105997253D01*
X62306223Y-105980777D01*
X62289747Y-105962599D01*
X62275132Y-105942893D01*
X62262520Y-105921850D01*
X62252030Y-105899671D01*
X62243765Y-105876572D01*
X62237804Y-105852773D01*
X62234204Y-105828505D01*
X62233000Y-105804001D01*
X62233000Y-105153999D01*
X62234204Y-105129495D01*
X62237804Y-105105227D01*
X62243765Y-105081428D01*
X62252030Y-105058329D01*
X62262520Y-105036150D01*
X62275132Y-105015107D01*
X62289747Y-104995401D01*
X62306223Y-104977223D01*
X62324401Y-104960747D01*
X62344107Y-104946132D01*
X62365150Y-104933520D01*
X62387329Y-104923030D01*
X62410428Y-104914765D01*
X62434227Y-104908804D01*
X62458495Y-104905204D01*
X62482999Y-104904000D01*
X63383001Y-104904000D01*
X63407505Y-104905204D01*
X63407505Y-104905204D01*
G37*
D11*
X62933000Y-105479000D03*
G04 #@! TD*
D10*
G04 #@! TO.C,C20*
G36*
X69407505Y-102855204D02*
X69431773Y-102858804D01*
X69455572Y-102864765D01*
X69478671Y-102873030D01*
X69500850Y-102883520D01*
X69521893Y-102896132D01*
X69541599Y-102910747D01*
X69559777Y-102927223D01*
X69576253Y-102945401D01*
X69590868Y-102965107D01*
X69603480Y-102986150D01*
X69613970Y-103008329D01*
X69622235Y-103031428D01*
X69628196Y-103055227D01*
X69631796Y-103079495D01*
X69633000Y-103103999D01*
X69633000Y-103754001D01*
X69631796Y-103778505D01*
X69628196Y-103802773D01*
X69622235Y-103826572D01*
X69613970Y-103849671D01*
X69603480Y-103871850D01*
X69590868Y-103892893D01*
X69576253Y-103912599D01*
X69559777Y-103930777D01*
X69541599Y-103947253D01*
X69521893Y-103961868D01*
X69500850Y-103974480D01*
X69478671Y-103984970D01*
X69455572Y-103993235D01*
X69431773Y-103999196D01*
X69407505Y-104002796D01*
X69383001Y-104004000D01*
X68482999Y-104004000D01*
X68458495Y-104002796D01*
X68434227Y-103999196D01*
X68410428Y-103993235D01*
X68387329Y-103984970D01*
X68365150Y-103974480D01*
X68344107Y-103961868D01*
X68324401Y-103947253D01*
X68306223Y-103930777D01*
X68289747Y-103912599D01*
X68275132Y-103892893D01*
X68262520Y-103871850D01*
X68252030Y-103849671D01*
X68243765Y-103826572D01*
X68237804Y-103802773D01*
X68234204Y-103778505D01*
X68233000Y-103754001D01*
X68233000Y-103103999D01*
X68234204Y-103079495D01*
X68237804Y-103055227D01*
X68243765Y-103031428D01*
X68252030Y-103008329D01*
X68262520Y-102986150D01*
X68275132Y-102965107D01*
X68289747Y-102945401D01*
X68306223Y-102927223D01*
X68324401Y-102910747D01*
X68344107Y-102896132D01*
X68365150Y-102883520D01*
X68387329Y-102873030D01*
X68410428Y-102864765D01*
X68434227Y-102858804D01*
X68458495Y-102855204D01*
X68482999Y-102854000D01*
X69383001Y-102854000D01*
X69407505Y-102855204D01*
X69407505Y-102855204D01*
G37*
D11*
X68933000Y-103429000D03*
D10*
G36*
X69407505Y-104905204D02*
X69431773Y-104908804D01*
X69455572Y-104914765D01*
X69478671Y-104923030D01*
X69500850Y-104933520D01*
X69521893Y-104946132D01*
X69541599Y-104960747D01*
X69559777Y-104977223D01*
X69576253Y-104995401D01*
X69590868Y-105015107D01*
X69603480Y-105036150D01*
X69613970Y-105058329D01*
X69622235Y-105081428D01*
X69628196Y-105105227D01*
X69631796Y-105129495D01*
X69633000Y-105153999D01*
X69633000Y-105804001D01*
X69631796Y-105828505D01*
X69628196Y-105852773D01*
X69622235Y-105876572D01*
X69613970Y-105899671D01*
X69603480Y-105921850D01*
X69590868Y-105942893D01*
X69576253Y-105962599D01*
X69559777Y-105980777D01*
X69541599Y-105997253D01*
X69521893Y-106011868D01*
X69500850Y-106024480D01*
X69478671Y-106034970D01*
X69455572Y-106043235D01*
X69431773Y-106049196D01*
X69407505Y-106052796D01*
X69383001Y-106054000D01*
X68482999Y-106054000D01*
X68458495Y-106052796D01*
X68434227Y-106049196D01*
X68410428Y-106043235D01*
X68387329Y-106034970D01*
X68365150Y-106024480D01*
X68344107Y-106011868D01*
X68324401Y-105997253D01*
X68306223Y-105980777D01*
X68289747Y-105962599D01*
X68275132Y-105942893D01*
X68262520Y-105921850D01*
X68252030Y-105899671D01*
X68243765Y-105876572D01*
X68237804Y-105852773D01*
X68234204Y-105828505D01*
X68233000Y-105804001D01*
X68233000Y-105153999D01*
X68234204Y-105129495D01*
X68237804Y-105105227D01*
X68243765Y-105081428D01*
X68252030Y-105058329D01*
X68262520Y-105036150D01*
X68275132Y-105015107D01*
X68289747Y-104995401D01*
X68306223Y-104977223D01*
X68324401Y-104960747D01*
X68344107Y-104946132D01*
X68365150Y-104933520D01*
X68387329Y-104923030D01*
X68410428Y-104914765D01*
X68434227Y-104908804D01*
X68458495Y-104905204D01*
X68482999Y-104904000D01*
X69383001Y-104904000D01*
X69407505Y-104905204D01*
X69407505Y-104905204D01*
G37*
D11*
X68933000Y-105479000D03*
G04 #@! TD*
D10*
G04 #@! TO.C,C21*
G36*
X61307505Y-99334204D02*
X61331773Y-99337804D01*
X61355572Y-99343765D01*
X61378671Y-99352030D01*
X61400850Y-99362520D01*
X61421893Y-99375132D01*
X61441599Y-99389747D01*
X61459777Y-99406223D01*
X61476253Y-99424401D01*
X61490868Y-99444107D01*
X61503480Y-99465150D01*
X61513970Y-99487329D01*
X61522235Y-99510428D01*
X61528196Y-99534227D01*
X61531796Y-99558495D01*
X61533000Y-99582999D01*
X61533000Y-100483001D01*
X61531796Y-100507505D01*
X61528196Y-100531773D01*
X61522235Y-100555572D01*
X61513970Y-100578671D01*
X61503480Y-100600850D01*
X61490868Y-100621893D01*
X61476253Y-100641599D01*
X61459777Y-100659777D01*
X61441599Y-100676253D01*
X61421893Y-100690868D01*
X61400850Y-100703480D01*
X61378671Y-100713970D01*
X61355572Y-100722235D01*
X61331773Y-100728196D01*
X61307505Y-100731796D01*
X61283001Y-100733000D01*
X60632999Y-100733000D01*
X60608495Y-100731796D01*
X60584227Y-100728196D01*
X60560428Y-100722235D01*
X60537329Y-100713970D01*
X60515150Y-100703480D01*
X60494107Y-100690868D01*
X60474401Y-100676253D01*
X60456223Y-100659777D01*
X60439747Y-100641599D01*
X60425132Y-100621893D01*
X60412520Y-100600850D01*
X60402030Y-100578671D01*
X60393765Y-100555572D01*
X60387804Y-100531773D01*
X60384204Y-100507505D01*
X60383000Y-100483001D01*
X60383000Y-99582999D01*
X60384204Y-99558495D01*
X60387804Y-99534227D01*
X60393765Y-99510428D01*
X60402030Y-99487329D01*
X60412520Y-99465150D01*
X60425132Y-99444107D01*
X60439747Y-99424401D01*
X60456223Y-99406223D01*
X60474401Y-99389747D01*
X60494107Y-99375132D01*
X60515150Y-99362520D01*
X60537329Y-99352030D01*
X60560428Y-99343765D01*
X60584227Y-99337804D01*
X60608495Y-99334204D01*
X60632999Y-99333000D01*
X61283001Y-99333000D01*
X61307505Y-99334204D01*
X61307505Y-99334204D01*
G37*
D11*
X60958000Y-100033000D03*
D10*
G36*
X63357505Y-99334204D02*
X63381773Y-99337804D01*
X63405572Y-99343765D01*
X63428671Y-99352030D01*
X63450850Y-99362520D01*
X63471893Y-99375132D01*
X63491599Y-99389747D01*
X63509777Y-99406223D01*
X63526253Y-99424401D01*
X63540868Y-99444107D01*
X63553480Y-99465150D01*
X63563970Y-99487329D01*
X63572235Y-99510428D01*
X63578196Y-99534227D01*
X63581796Y-99558495D01*
X63583000Y-99582999D01*
X63583000Y-100483001D01*
X63581796Y-100507505D01*
X63578196Y-100531773D01*
X63572235Y-100555572D01*
X63563970Y-100578671D01*
X63553480Y-100600850D01*
X63540868Y-100621893D01*
X63526253Y-100641599D01*
X63509777Y-100659777D01*
X63491599Y-100676253D01*
X63471893Y-100690868D01*
X63450850Y-100703480D01*
X63428671Y-100713970D01*
X63405572Y-100722235D01*
X63381773Y-100728196D01*
X63357505Y-100731796D01*
X63333001Y-100733000D01*
X62682999Y-100733000D01*
X62658495Y-100731796D01*
X62634227Y-100728196D01*
X62610428Y-100722235D01*
X62587329Y-100713970D01*
X62565150Y-100703480D01*
X62544107Y-100690868D01*
X62524401Y-100676253D01*
X62506223Y-100659777D01*
X62489747Y-100641599D01*
X62475132Y-100621893D01*
X62462520Y-100600850D01*
X62452030Y-100578671D01*
X62443765Y-100555572D01*
X62437804Y-100531773D01*
X62434204Y-100507505D01*
X62433000Y-100483001D01*
X62433000Y-99582999D01*
X62434204Y-99558495D01*
X62437804Y-99534227D01*
X62443765Y-99510428D01*
X62452030Y-99487329D01*
X62462520Y-99465150D01*
X62475132Y-99444107D01*
X62489747Y-99424401D01*
X62506223Y-99406223D01*
X62524401Y-99389747D01*
X62544107Y-99375132D01*
X62565150Y-99362520D01*
X62587329Y-99352030D01*
X62610428Y-99343765D01*
X62634227Y-99337804D01*
X62658495Y-99334204D01*
X62682999Y-99333000D01*
X63333001Y-99333000D01*
X63357505Y-99334204D01*
X63357505Y-99334204D01*
G37*
D11*
X63008000Y-100033000D03*
G04 #@! TD*
D10*
G04 #@! TO.C,C22*
G36*
X59257505Y-97038995D02*
X59281773Y-97042595D01*
X59305572Y-97048556D01*
X59328671Y-97056821D01*
X59350850Y-97067311D01*
X59371893Y-97079923D01*
X59391599Y-97094538D01*
X59409777Y-97111014D01*
X59426253Y-97129192D01*
X59440868Y-97148898D01*
X59453480Y-97169941D01*
X59463970Y-97192120D01*
X59472235Y-97215219D01*
X59478196Y-97239018D01*
X59481796Y-97263286D01*
X59483000Y-97287790D01*
X59483000Y-98187792D01*
X59481796Y-98212296D01*
X59478196Y-98236564D01*
X59472235Y-98260363D01*
X59463970Y-98283462D01*
X59453480Y-98305641D01*
X59440868Y-98326684D01*
X59426253Y-98346390D01*
X59409777Y-98364568D01*
X59391599Y-98381044D01*
X59371893Y-98395659D01*
X59350850Y-98408271D01*
X59328671Y-98418761D01*
X59305572Y-98427026D01*
X59281773Y-98432987D01*
X59257505Y-98436587D01*
X59233001Y-98437791D01*
X58582999Y-98437791D01*
X58558495Y-98436587D01*
X58534227Y-98432987D01*
X58510428Y-98427026D01*
X58487329Y-98418761D01*
X58465150Y-98408271D01*
X58444107Y-98395659D01*
X58424401Y-98381044D01*
X58406223Y-98364568D01*
X58389747Y-98346390D01*
X58375132Y-98326684D01*
X58362520Y-98305641D01*
X58352030Y-98283462D01*
X58343765Y-98260363D01*
X58337804Y-98236564D01*
X58334204Y-98212296D01*
X58333000Y-98187792D01*
X58333000Y-97287790D01*
X58334204Y-97263286D01*
X58337804Y-97239018D01*
X58343765Y-97215219D01*
X58352030Y-97192120D01*
X58362520Y-97169941D01*
X58375132Y-97148898D01*
X58389747Y-97129192D01*
X58406223Y-97111014D01*
X58424401Y-97094538D01*
X58444107Y-97079923D01*
X58465150Y-97067311D01*
X58487329Y-97056821D01*
X58510428Y-97048556D01*
X58534227Y-97042595D01*
X58558495Y-97038995D01*
X58582999Y-97037791D01*
X59233001Y-97037791D01*
X59257505Y-97038995D01*
X59257505Y-97038995D01*
G37*
D11*
X58908000Y-97737791D03*
D10*
G36*
X61307505Y-97038995D02*
X61331773Y-97042595D01*
X61355572Y-97048556D01*
X61378671Y-97056821D01*
X61400850Y-97067311D01*
X61421893Y-97079923D01*
X61441599Y-97094538D01*
X61459777Y-97111014D01*
X61476253Y-97129192D01*
X61490868Y-97148898D01*
X61503480Y-97169941D01*
X61513970Y-97192120D01*
X61522235Y-97215219D01*
X61528196Y-97239018D01*
X61531796Y-97263286D01*
X61533000Y-97287790D01*
X61533000Y-98187792D01*
X61531796Y-98212296D01*
X61528196Y-98236564D01*
X61522235Y-98260363D01*
X61513970Y-98283462D01*
X61503480Y-98305641D01*
X61490868Y-98326684D01*
X61476253Y-98346390D01*
X61459777Y-98364568D01*
X61441599Y-98381044D01*
X61421893Y-98395659D01*
X61400850Y-98408271D01*
X61378671Y-98418761D01*
X61355572Y-98427026D01*
X61331773Y-98432987D01*
X61307505Y-98436587D01*
X61283001Y-98437791D01*
X60632999Y-98437791D01*
X60608495Y-98436587D01*
X60584227Y-98432987D01*
X60560428Y-98427026D01*
X60537329Y-98418761D01*
X60515150Y-98408271D01*
X60494107Y-98395659D01*
X60474401Y-98381044D01*
X60456223Y-98364568D01*
X60439747Y-98346390D01*
X60425132Y-98326684D01*
X60412520Y-98305641D01*
X60402030Y-98283462D01*
X60393765Y-98260363D01*
X60387804Y-98236564D01*
X60384204Y-98212296D01*
X60383000Y-98187792D01*
X60383000Y-97287790D01*
X60384204Y-97263286D01*
X60387804Y-97239018D01*
X60393765Y-97215219D01*
X60402030Y-97192120D01*
X60412520Y-97169941D01*
X60425132Y-97148898D01*
X60439747Y-97129192D01*
X60456223Y-97111014D01*
X60474401Y-97094538D01*
X60494107Y-97079923D01*
X60515150Y-97067311D01*
X60537329Y-97056821D01*
X60560428Y-97048556D01*
X60584227Y-97042595D01*
X60608495Y-97038995D01*
X60632999Y-97037791D01*
X61283001Y-97037791D01*
X61307505Y-97038995D01*
X61307505Y-97038995D01*
G37*
D11*
X60958000Y-97737791D03*
G04 #@! TD*
D10*
G04 #@! TO.C,C23*
G36*
X57207505Y-99334204D02*
X57231773Y-99337804D01*
X57255572Y-99343765D01*
X57278671Y-99352030D01*
X57300850Y-99362520D01*
X57321893Y-99375132D01*
X57341599Y-99389747D01*
X57359777Y-99406223D01*
X57376253Y-99424401D01*
X57390868Y-99444107D01*
X57403480Y-99465150D01*
X57413970Y-99487329D01*
X57422235Y-99510428D01*
X57428196Y-99534227D01*
X57431796Y-99558495D01*
X57433000Y-99582999D01*
X57433000Y-100483001D01*
X57431796Y-100507505D01*
X57428196Y-100531773D01*
X57422235Y-100555572D01*
X57413970Y-100578671D01*
X57403480Y-100600850D01*
X57390868Y-100621893D01*
X57376253Y-100641599D01*
X57359777Y-100659777D01*
X57341599Y-100676253D01*
X57321893Y-100690868D01*
X57300850Y-100703480D01*
X57278671Y-100713970D01*
X57255572Y-100722235D01*
X57231773Y-100728196D01*
X57207505Y-100731796D01*
X57183001Y-100733000D01*
X56532999Y-100733000D01*
X56508495Y-100731796D01*
X56484227Y-100728196D01*
X56460428Y-100722235D01*
X56437329Y-100713970D01*
X56415150Y-100703480D01*
X56394107Y-100690868D01*
X56374401Y-100676253D01*
X56356223Y-100659777D01*
X56339747Y-100641599D01*
X56325132Y-100621893D01*
X56312520Y-100600850D01*
X56302030Y-100578671D01*
X56293765Y-100555572D01*
X56287804Y-100531773D01*
X56284204Y-100507505D01*
X56283000Y-100483001D01*
X56283000Y-99582999D01*
X56284204Y-99558495D01*
X56287804Y-99534227D01*
X56293765Y-99510428D01*
X56302030Y-99487329D01*
X56312520Y-99465150D01*
X56325132Y-99444107D01*
X56339747Y-99424401D01*
X56356223Y-99406223D01*
X56374401Y-99389747D01*
X56394107Y-99375132D01*
X56415150Y-99362520D01*
X56437329Y-99352030D01*
X56460428Y-99343765D01*
X56484227Y-99337804D01*
X56508495Y-99334204D01*
X56532999Y-99333000D01*
X57183001Y-99333000D01*
X57207505Y-99334204D01*
X57207505Y-99334204D01*
G37*
D11*
X56858000Y-100033000D03*
D10*
G36*
X59257505Y-99334204D02*
X59281773Y-99337804D01*
X59305572Y-99343765D01*
X59328671Y-99352030D01*
X59350850Y-99362520D01*
X59371893Y-99375132D01*
X59391599Y-99389747D01*
X59409777Y-99406223D01*
X59426253Y-99424401D01*
X59440868Y-99444107D01*
X59453480Y-99465150D01*
X59463970Y-99487329D01*
X59472235Y-99510428D01*
X59478196Y-99534227D01*
X59481796Y-99558495D01*
X59483000Y-99582999D01*
X59483000Y-100483001D01*
X59481796Y-100507505D01*
X59478196Y-100531773D01*
X59472235Y-100555572D01*
X59463970Y-100578671D01*
X59453480Y-100600850D01*
X59440868Y-100621893D01*
X59426253Y-100641599D01*
X59409777Y-100659777D01*
X59391599Y-100676253D01*
X59371893Y-100690868D01*
X59350850Y-100703480D01*
X59328671Y-100713970D01*
X59305572Y-100722235D01*
X59281773Y-100728196D01*
X59257505Y-100731796D01*
X59233001Y-100733000D01*
X58582999Y-100733000D01*
X58558495Y-100731796D01*
X58534227Y-100728196D01*
X58510428Y-100722235D01*
X58487329Y-100713970D01*
X58465150Y-100703480D01*
X58444107Y-100690868D01*
X58424401Y-100676253D01*
X58406223Y-100659777D01*
X58389747Y-100641599D01*
X58375132Y-100621893D01*
X58362520Y-100600850D01*
X58352030Y-100578671D01*
X58343765Y-100555572D01*
X58337804Y-100531773D01*
X58334204Y-100507505D01*
X58333000Y-100483001D01*
X58333000Y-99582999D01*
X58334204Y-99558495D01*
X58337804Y-99534227D01*
X58343765Y-99510428D01*
X58352030Y-99487329D01*
X58362520Y-99465150D01*
X58375132Y-99444107D01*
X58389747Y-99424401D01*
X58406223Y-99406223D01*
X58424401Y-99389747D01*
X58444107Y-99375132D01*
X58465150Y-99362520D01*
X58487329Y-99352030D01*
X58510428Y-99343765D01*
X58534227Y-99337804D01*
X58558495Y-99334204D01*
X58582999Y-99333000D01*
X59233001Y-99333000D01*
X59257505Y-99334204D01*
X59257505Y-99334204D01*
G37*
D11*
X58908000Y-100033000D03*
G04 #@! TD*
D10*
G04 #@! TO.C,C24*
G36*
X57388505Y-102855204D02*
X57412773Y-102858804D01*
X57436572Y-102864765D01*
X57459671Y-102873030D01*
X57481850Y-102883520D01*
X57502893Y-102896132D01*
X57522599Y-102910747D01*
X57540777Y-102927223D01*
X57557253Y-102945401D01*
X57571868Y-102965107D01*
X57584480Y-102986150D01*
X57594970Y-103008329D01*
X57603235Y-103031428D01*
X57609196Y-103055227D01*
X57612796Y-103079495D01*
X57614000Y-103103999D01*
X57614000Y-103754001D01*
X57612796Y-103778505D01*
X57609196Y-103802773D01*
X57603235Y-103826572D01*
X57594970Y-103849671D01*
X57584480Y-103871850D01*
X57571868Y-103892893D01*
X57557253Y-103912599D01*
X57540777Y-103930777D01*
X57522599Y-103947253D01*
X57502893Y-103961868D01*
X57481850Y-103974480D01*
X57459671Y-103984970D01*
X57436572Y-103993235D01*
X57412773Y-103999196D01*
X57388505Y-104002796D01*
X57364001Y-104004000D01*
X56463999Y-104004000D01*
X56439495Y-104002796D01*
X56415227Y-103999196D01*
X56391428Y-103993235D01*
X56368329Y-103984970D01*
X56346150Y-103974480D01*
X56325107Y-103961868D01*
X56305401Y-103947253D01*
X56287223Y-103930777D01*
X56270747Y-103912599D01*
X56256132Y-103892893D01*
X56243520Y-103871850D01*
X56233030Y-103849671D01*
X56224765Y-103826572D01*
X56218804Y-103802773D01*
X56215204Y-103778505D01*
X56214000Y-103754001D01*
X56214000Y-103103999D01*
X56215204Y-103079495D01*
X56218804Y-103055227D01*
X56224765Y-103031428D01*
X56233030Y-103008329D01*
X56243520Y-102986150D01*
X56256132Y-102965107D01*
X56270747Y-102945401D01*
X56287223Y-102927223D01*
X56305401Y-102910747D01*
X56325107Y-102896132D01*
X56346150Y-102883520D01*
X56368329Y-102873030D01*
X56391428Y-102864765D01*
X56415227Y-102858804D01*
X56439495Y-102855204D01*
X56463999Y-102854000D01*
X57364001Y-102854000D01*
X57388505Y-102855204D01*
X57388505Y-102855204D01*
G37*
D11*
X56914000Y-103429000D03*
D10*
G36*
X57388505Y-104905204D02*
X57412773Y-104908804D01*
X57436572Y-104914765D01*
X57459671Y-104923030D01*
X57481850Y-104933520D01*
X57502893Y-104946132D01*
X57522599Y-104960747D01*
X57540777Y-104977223D01*
X57557253Y-104995401D01*
X57571868Y-105015107D01*
X57584480Y-105036150D01*
X57594970Y-105058329D01*
X57603235Y-105081428D01*
X57609196Y-105105227D01*
X57612796Y-105129495D01*
X57614000Y-105153999D01*
X57614000Y-105804001D01*
X57612796Y-105828505D01*
X57609196Y-105852773D01*
X57603235Y-105876572D01*
X57594970Y-105899671D01*
X57584480Y-105921850D01*
X57571868Y-105942893D01*
X57557253Y-105962599D01*
X57540777Y-105980777D01*
X57522599Y-105997253D01*
X57502893Y-106011868D01*
X57481850Y-106024480D01*
X57459671Y-106034970D01*
X57436572Y-106043235D01*
X57412773Y-106049196D01*
X57388505Y-106052796D01*
X57364001Y-106054000D01*
X56463999Y-106054000D01*
X56439495Y-106052796D01*
X56415227Y-106049196D01*
X56391428Y-106043235D01*
X56368329Y-106034970D01*
X56346150Y-106024480D01*
X56325107Y-106011868D01*
X56305401Y-105997253D01*
X56287223Y-105980777D01*
X56270747Y-105962599D01*
X56256132Y-105942893D01*
X56243520Y-105921850D01*
X56233030Y-105899671D01*
X56224765Y-105876572D01*
X56218804Y-105852773D01*
X56215204Y-105828505D01*
X56214000Y-105804001D01*
X56214000Y-105153999D01*
X56215204Y-105129495D01*
X56218804Y-105105227D01*
X56224765Y-105081428D01*
X56233030Y-105058329D01*
X56243520Y-105036150D01*
X56256132Y-105015107D01*
X56270747Y-104995401D01*
X56287223Y-104977223D01*
X56305401Y-104960747D01*
X56325107Y-104946132D01*
X56346150Y-104933520D01*
X56368329Y-104923030D01*
X56391428Y-104914765D01*
X56415227Y-104908804D01*
X56439495Y-104905204D01*
X56463999Y-104904000D01*
X57364001Y-104904000D01*
X57388505Y-104905204D01*
X57388505Y-104905204D01*
G37*
D11*
X56914000Y-105479000D03*
G04 #@! TD*
D10*
G04 #@! TO.C,C25*
G36*
X55067505Y-101817704D02*
X55091773Y-101821304D01*
X55115572Y-101827265D01*
X55138671Y-101835530D01*
X55160850Y-101846020D01*
X55181893Y-101858632D01*
X55201599Y-101873247D01*
X55219777Y-101889723D01*
X55236253Y-101907901D01*
X55250868Y-101927607D01*
X55263480Y-101948650D01*
X55273970Y-101970829D01*
X55282235Y-101993928D01*
X55288196Y-102017727D01*
X55291796Y-102041995D01*
X55293000Y-102066499D01*
X55293000Y-103141501D01*
X55291796Y-103166005D01*
X55288196Y-103190273D01*
X55282235Y-103214072D01*
X55273970Y-103237171D01*
X55263480Y-103259350D01*
X55250868Y-103280393D01*
X55236253Y-103300099D01*
X55219777Y-103318277D01*
X55201599Y-103334753D01*
X55181893Y-103349368D01*
X55160850Y-103361980D01*
X55138671Y-103372470D01*
X55115572Y-103380735D01*
X55091773Y-103386696D01*
X55067505Y-103390296D01*
X55043001Y-103391500D01*
X54192999Y-103391500D01*
X54168495Y-103390296D01*
X54144227Y-103386696D01*
X54120428Y-103380735D01*
X54097329Y-103372470D01*
X54075150Y-103361980D01*
X54054107Y-103349368D01*
X54034401Y-103334753D01*
X54016223Y-103318277D01*
X53999747Y-103300099D01*
X53985132Y-103280393D01*
X53972520Y-103259350D01*
X53962030Y-103237171D01*
X53953765Y-103214072D01*
X53947804Y-103190273D01*
X53944204Y-103166005D01*
X53943000Y-103141501D01*
X53943000Y-102066499D01*
X53944204Y-102041995D01*
X53947804Y-102017727D01*
X53953765Y-101993928D01*
X53962030Y-101970829D01*
X53972520Y-101948650D01*
X53985132Y-101927607D01*
X53999747Y-101907901D01*
X54016223Y-101889723D01*
X54034401Y-101873247D01*
X54054107Y-101858632D01*
X54075150Y-101846020D01*
X54097329Y-101835530D01*
X54120428Y-101827265D01*
X54144227Y-101821304D01*
X54168495Y-101817704D01*
X54192999Y-101816500D01*
X55043001Y-101816500D01*
X55067505Y-101817704D01*
X55067505Y-101817704D01*
G37*
D12*
X54618000Y-102604000D03*
D10*
G36*
X55067505Y-104692704D02*
X55091773Y-104696304D01*
X55115572Y-104702265D01*
X55138671Y-104710530D01*
X55160850Y-104721020D01*
X55181893Y-104733632D01*
X55201599Y-104748247D01*
X55219777Y-104764723D01*
X55236253Y-104782901D01*
X55250868Y-104802607D01*
X55263480Y-104823650D01*
X55273970Y-104845829D01*
X55282235Y-104868928D01*
X55288196Y-104892727D01*
X55291796Y-104916995D01*
X55293000Y-104941499D01*
X55293000Y-106016501D01*
X55291796Y-106041005D01*
X55288196Y-106065273D01*
X55282235Y-106089072D01*
X55273970Y-106112171D01*
X55263480Y-106134350D01*
X55250868Y-106155393D01*
X55236253Y-106175099D01*
X55219777Y-106193277D01*
X55201599Y-106209753D01*
X55181893Y-106224368D01*
X55160850Y-106236980D01*
X55138671Y-106247470D01*
X55115572Y-106255735D01*
X55091773Y-106261696D01*
X55067505Y-106265296D01*
X55043001Y-106266500D01*
X54192999Y-106266500D01*
X54168495Y-106265296D01*
X54144227Y-106261696D01*
X54120428Y-106255735D01*
X54097329Y-106247470D01*
X54075150Y-106236980D01*
X54054107Y-106224368D01*
X54034401Y-106209753D01*
X54016223Y-106193277D01*
X53999747Y-106175099D01*
X53985132Y-106155393D01*
X53972520Y-106134350D01*
X53962030Y-106112171D01*
X53953765Y-106089072D01*
X53947804Y-106065273D01*
X53944204Y-106041005D01*
X53943000Y-106016501D01*
X53943000Y-104941499D01*
X53944204Y-104916995D01*
X53947804Y-104892727D01*
X53953765Y-104868928D01*
X53962030Y-104845829D01*
X53972520Y-104823650D01*
X53985132Y-104802607D01*
X53999747Y-104782901D01*
X54016223Y-104764723D01*
X54034401Y-104748247D01*
X54054107Y-104733632D01*
X54075150Y-104721020D01*
X54097329Y-104710530D01*
X54120428Y-104702265D01*
X54144227Y-104696304D01*
X54168495Y-104692704D01*
X54192999Y-104691500D01*
X55043001Y-104691500D01*
X55067505Y-104692704D01*
X55067505Y-104692704D01*
G37*
D12*
X54618000Y-105479000D03*
G04 #@! TD*
D10*
G04 #@! TO.C,L1*
G36*
X78912505Y-89345204D02*
X78936773Y-89348804D01*
X78960572Y-89354765D01*
X78983671Y-89363030D01*
X79005850Y-89373520D01*
X79026893Y-89386132D01*
X79046599Y-89400747D01*
X79064777Y-89417223D01*
X79081253Y-89435401D01*
X79095868Y-89455107D01*
X79108480Y-89476150D01*
X79118970Y-89498329D01*
X79127235Y-89521428D01*
X79133196Y-89545227D01*
X79136796Y-89569495D01*
X79138000Y-89593999D01*
X79138000Y-90494001D01*
X79136796Y-90518505D01*
X79133196Y-90542773D01*
X79127235Y-90566572D01*
X79118970Y-90589671D01*
X79108480Y-90611850D01*
X79095868Y-90632893D01*
X79081253Y-90652599D01*
X79064777Y-90670777D01*
X79046599Y-90687253D01*
X79026893Y-90701868D01*
X79005850Y-90714480D01*
X78983671Y-90724970D01*
X78960572Y-90733235D01*
X78936773Y-90739196D01*
X78912505Y-90742796D01*
X78888001Y-90744000D01*
X78237999Y-90744000D01*
X78213495Y-90742796D01*
X78189227Y-90739196D01*
X78165428Y-90733235D01*
X78142329Y-90724970D01*
X78120150Y-90714480D01*
X78099107Y-90701868D01*
X78079401Y-90687253D01*
X78061223Y-90670777D01*
X78044747Y-90652599D01*
X78030132Y-90632893D01*
X78017520Y-90611850D01*
X78007030Y-90589671D01*
X77998765Y-90566572D01*
X77992804Y-90542773D01*
X77989204Y-90518505D01*
X77988000Y-90494001D01*
X77988000Y-89593999D01*
X77989204Y-89569495D01*
X77992804Y-89545227D01*
X77998765Y-89521428D01*
X78007030Y-89498329D01*
X78017520Y-89476150D01*
X78030132Y-89455107D01*
X78044747Y-89435401D01*
X78061223Y-89417223D01*
X78079401Y-89400747D01*
X78099107Y-89386132D01*
X78120150Y-89373520D01*
X78142329Y-89363030D01*
X78165428Y-89354765D01*
X78189227Y-89348804D01*
X78213495Y-89345204D01*
X78237999Y-89344000D01*
X78888001Y-89344000D01*
X78912505Y-89345204D01*
X78912505Y-89345204D01*
G37*
D11*
X78563000Y-90044000D03*
D10*
G36*
X80962505Y-89345204D02*
X80986773Y-89348804D01*
X81010572Y-89354765D01*
X81033671Y-89363030D01*
X81055850Y-89373520D01*
X81076893Y-89386132D01*
X81096599Y-89400747D01*
X81114777Y-89417223D01*
X81131253Y-89435401D01*
X81145868Y-89455107D01*
X81158480Y-89476150D01*
X81168970Y-89498329D01*
X81177235Y-89521428D01*
X81183196Y-89545227D01*
X81186796Y-89569495D01*
X81188000Y-89593999D01*
X81188000Y-90494001D01*
X81186796Y-90518505D01*
X81183196Y-90542773D01*
X81177235Y-90566572D01*
X81168970Y-90589671D01*
X81158480Y-90611850D01*
X81145868Y-90632893D01*
X81131253Y-90652599D01*
X81114777Y-90670777D01*
X81096599Y-90687253D01*
X81076893Y-90701868D01*
X81055850Y-90714480D01*
X81033671Y-90724970D01*
X81010572Y-90733235D01*
X80986773Y-90739196D01*
X80962505Y-90742796D01*
X80938001Y-90744000D01*
X80287999Y-90744000D01*
X80263495Y-90742796D01*
X80239227Y-90739196D01*
X80215428Y-90733235D01*
X80192329Y-90724970D01*
X80170150Y-90714480D01*
X80149107Y-90701868D01*
X80129401Y-90687253D01*
X80111223Y-90670777D01*
X80094747Y-90652599D01*
X80080132Y-90632893D01*
X80067520Y-90611850D01*
X80057030Y-90589671D01*
X80048765Y-90566572D01*
X80042804Y-90542773D01*
X80039204Y-90518505D01*
X80038000Y-90494001D01*
X80038000Y-89593999D01*
X80039204Y-89569495D01*
X80042804Y-89545227D01*
X80048765Y-89521428D01*
X80057030Y-89498329D01*
X80067520Y-89476150D01*
X80080132Y-89455107D01*
X80094747Y-89435401D01*
X80111223Y-89417223D01*
X80129401Y-89400747D01*
X80149107Y-89386132D01*
X80170150Y-89373520D01*
X80192329Y-89363030D01*
X80215428Y-89354765D01*
X80239227Y-89348804D01*
X80263495Y-89345204D01*
X80287999Y-89344000D01*
X80938001Y-89344000D01*
X80962505Y-89345204D01*
X80962505Y-89345204D01*
G37*
D11*
X80613000Y-90044000D03*
G04 #@! TD*
D10*
G04 #@! TO.C,L2*
G36*
X62241505Y-89345204D02*
X62265773Y-89348804D01*
X62289572Y-89354765D01*
X62312671Y-89363030D01*
X62334850Y-89373520D01*
X62355893Y-89386132D01*
X62375599Y-89400747D01*
X62393777Y-89417223D01*
X62410253Y-89435401D01*
X62424868Y-89455107D01*
X62437480Y-89476150D01*
X62447970Y-89498329D01*
X62456235Y-89521428D01*
X62462196Y-89545227D01*
X62465796Y-89569495D01*
X62467000Y-89593999D01*
X62467000Y-90494001D01*
X62465796Y-90518505D01*
X62462196Y-90542773D01*
X62456235Y-90566572D01*
X62447970Y-90589671D01*
X62437480Y-90611850D01*
X62424868Y-90632893D01*
X62410253Y-90652599D01*
X62393777Y-90670777D01*
X62375599Y-90687253D01*
X62355893Y-90701868D01*
X62334850Y-90714480D01*
X62312671Y-90724970D01*
X62289572Y-90733235D01*
X62265773Y-90739196D01*
X62241505Y-90742796D01*
X62217001Y-90744000D01*
X61566999Y-90744000D01*
X61542495Y-90742796D01*
X61518227Y-90739196D01*
X61494428Y-90733235D01*
X61471329Y-90724970D01*
X61449150Y-90714480D01*
X61428107Y-90701868D01*
X61408401Y-90687253D01*
X61390223Y-90670777D01*
X61373747Y-90652599D01*
X61359132Y-90632893D01*
X61346520Y-90611850D01*
X61336030Y-90589671D01*
X61327765Y-90566572D01*
X61321804Y-90542773D01*
X61318204Y-90518505D01*
X61317000Y-90494001D01*
X61317000Y-89593999D01*
X61318204Y-89569495D01*
X61321804Y-89545227D01*
X61327765Y-89521428D01*
X61336030Y-89498329D01*
X61346520Y-89476150D01*
X61359132Y-89455107D01*
X61373747Y-89435401D01*
X61390223Y-89417223D01*
X61408401Y-89400747D01*
X61428107Y-89386132D01*
X61449150Y-89373520D01*
X61471329Y-89363030D01*
X61494428Y-89354765D01*
X61518227Y-89348804D01*
X61542495Y-89345204D01*
X61566999Y-89344000D01*
X62217001Y-89344000D01*
X62241505Y-89345204D01*
X62241505Y-89345204D01*
G37*
D11*
X61892000Y-90044000D03*
D10*
G36*
X64291505Y-89345204D02*
X64315773Y-89348804D01*
X64339572Y-89354765D01*
X64362671Y-89363030D01*
X64384850Y-89373520D01*
X64405893Y-89386132D01*
X64425599Y-89400747D01*
X64443777Y-89417223D01*
X64460253Y-89435401D01*
X64474868Y-89455107D01*
X64487480Y-89476150D01*
X64497970Y-89498329D01*
X64506235Y-89521428D01*
X64512196Y-89545227D01*
X64515796Y-89569495D01*
X64517000Y-89593999D01*
X64517000Y-90494001D01*
X64515796Y-90518505D01*
X64512196Y-90542773D01*
X64506235Y-90566572D01*
X64497970Y-90589671D01*
X64487480Y-90611850D01*
X64474868Y-90632893D01*
X64460253Y-90652599D01*
X64443777Y-90670777D01*
X64425599Y-90687253D01*
X64405893Y-90701868D01*
X64384850Y-90714480D01*
X64362671Y-90724970D01*
X64339572Y-90733235D01*
X64315773Y-90739196D01*
X64291505Y-90742796D01*
X64267001Y-90744000D01*
X63616999Y-90744000D01*
X63592495Y-90742796D01*
X63568227Y-90739196D01*
X63544428Y-90733235D01*
X63521329Y-90724970D01*
X63499150Y-90714480D01*
X63478107Y-90701868D01*
X63458401Y-90687253D01*
X63440223Y-90670777D01*
X63423747Y-90652599D01*
X63409132Y-90632893D01*
X63396520Y-90611850D01*
X63386030Y-90589671D01*
X63377765Y-90566572D01*
X63371804Y-90542773D01*
X63368204Y-90518505D01*
X63367000Y-90494001D01*
X63367000Y-89593999D01*
X63368204Y-89569495D01*
X63371804Y-89545227D01*
X63377765Y-89521428D01*
X63386030Y-89498329D01*
X63396520Y-89476150D01*
X63409132Y-89455107D01*
X63423747Y-89435401D01*
X63440223Y-89417223D01*
X63458401Y-89400747D01*
X63478107Y-89386132D01*
X63499150Y-89373520D01*
X63521329Y-89363030D01*
X63544428Y-89354765D01*
X63568227Y-89348804D01*
X63592495Y-89345204D01*
X63616999Y-89344000D01*
X64267001Y-89344000D01*
X64291505Y-89345204D01*
X64291505Y-89345204D01*
G37*
D11*
X63942000Y-90044000D03*
G04 #@! TD*
D10*
G04 #@! TO.C,L3*
G36*
X62402505Y-109588204D02*
X62426773Y-109591804D01*
X62450572Y-109597765D01*
X62473671Y-109606030D01*
X62495850Y-109616520D01*
X62516893Y-109629132D01*
X62536599Y-109643747D01*
X62554777Y-109660223D01*
X62571253Y-109678401D01*
X62585868Y-109698107D01*
X62598480Y-109719150D01*
X62608970Y-109741329D01*
X62617235Y-109764428D01*
X62623196Y-109788227D01*
X62626796Y-109812495D01*
X62628000Y-109836999D01*
X62628000Y-110737001D01*
X62626796Y-110761505D01*
X62623196Y-110785773D01*
X62617235Y-110809572D01*
X62608970Y-110832671D01*
X62598480Y-110854850D01*
X62585868Y-110875893D01*
X62571253Y-110895599D01*
X62554777Y-110913777D01*
X62536599Y-110930253D01*
X62516893Y-110944868D01*
X62495850Y-110957480D01*
X62473671Y-110967970D01*
X62450572Y-110976235D01*
X62426773Y-110982196D01*
X62402505Y-110985796D01*
X62378001Y-110987000D01*
X61727999Y-110987000D01*
X61703495Y-110985796D01*
X61679227Y-110982196D01*
X61655428Y-110976235D01*
X61632329Y-110967970D01*
X61610150Y-110957480D01*
X61589107Y-110944868D01*
X61569401Y-110930253D01*
X61551223Y-110913777D01*
X61534747Y-110895599D01*
X61520132Y-110875893D01*
X61507520Y-110854850D01*
X61497030Y-110832671D01*
X61488765Y-110809572D01*
X61482804Y-110785773D01*
X61479204Y-110761505D01*
X61478000Y-110737001D01*
X61478000Y-109836999D01*
X61479204Y-109812495D01*
X61482804Y-109788227D01*
X61488765Y-109764428D01*
X61497030Y-109741329D01*
X61507520Y-109719150D01*
X61520132Y-109698107D01*
X61534747Y-109678401D01*
X61551223Y-109660223D01*
X61569401Y-109643747D01*
X61589107Y-109629132D01*
X61610150Y-109616520D01*
X61632329Y-109606030D01*
X61655428Y-109597765D01*
X61679227Y-109591804D01*
X61703495Y-109588204D01*
X61727999Y-109587000D01*
X62378001Y-109587000D01*
X62402505Y-109588204D01*
X62402505Y-109588204D01*
G37*
D11*
X62053000Y-110287000D03*
D10*
G36*
X64452505Y-109588204D02*
X64476773Y-109591804D01*
X64500572Y-109597765D01*
X64523671Y-109606030D01*
X64545850Y-109616520D01*
X64566893Y-109629132D01*
X64586599Y-109643747D01*
X64604777Y-109660223D01*
X64621253Y-109678401D01*
X64635868Y-109698107D01*
X64648480Y-109719150D01*
X64658970Y-109741329D01*
X64667235Y-109764428D01*
X64673196Y-109788227D01*
X64676796Y-109812495D01*
X64678000Y-109836999D01*
X64678000Y-110737001D01*
X64676796Y-110761505D01*
X64673196Y-110785773D01*
X64667235Y-110809572D01*
X64658970Y-110832671D01*
X64648480Y-110854850D01*
X64635868Y-110875893D01*
X64621253Y-110895599D01*
X64604777Y-110913777D01*
X64586599Y-110930253D01*
X64566893Y-110944868D01*
X64545850Y-110957480D01*
X64523671Y-110967970D01*
X64500572Y-110976235D01*
X64476773Y-110982196D01*
X64452505Y-110985796D01*
X64428001Y-110987000D01*
X63777999Y-110987000D01*
X63753495Y-110985796D01*
X63729227Y-110982196D01*
X63705428Y-110976235D01*
X63682329Y-110967970D01*
X63660150Y-110957480D01*
X63639107Y-110944868D01*
X63619401Y-110930253D01*
X63601223Y-110913777D01*
X63584747Y-110895599D01*
X63570132Y-110875893D01*
X63557520Y-110854850D01*
X63547030Y-110832671D01*
X63538765Y-110809572D01*
X63532804Y-110785773D01*
X63529204Y-110761505D01*
X63528000Y-110737001D01*
X63528000Y-109836999D01*
X63529204Y-109812495D01*
X63532804Y-109788227D01*
X63538765Y-109764428D01*
X63547030Y-109741329D01*
X63557520Y-109719150D01*
X63570132Y-109698107D01*
X63584747Y-109678401D01*
X63601223Y-109660223D01*
X63619401Y-109643747D01*
X63639107Y-109629132D01*
X63660150Y-109616520D01*
X63682329Y-109606030D01*
X63705428Y-109597765D01*
X63729227Y-109591804D01*
X63753495Y-109588204D01*
X63777999Y-109587000D01*
X64428001Y-109587000D01*
X64452505Y-109588204D01*
X64452505Y-109588204D01*
G37*
D11*
X64103000Y-110287000D03*
G04 #@! TD*
D10*
G04 #@! TO.C,L4*
G36*
X78934505Y-109588204D02*
X78958773Y-109591804D01*
X78982572Y-109597765D01*
X79005671Y-109606030D01*
X79027850Y-109616520D01*
X79048893Y-109629132D01*
X79068599Y-109643747D01*
X79086777Y-109660223D01*
X79103253Y-109678401D01*
X79117868Y-109698107D01*
X79130480Y-109719150D01*
X79140970Y-109741329D01*
X79149235Y-109764428D01*
X79155196Y-109788227D01*
X79158796Y-109812495D01*
X79160000Y-109836999D01*
X79160000Y-110737001D01*
X79158796Y-110761505D01*
X79155196Y-110785773D01*
X79149235Y-110809572D01*
X79140970Y-110832671D01*
X79130480Y-110854850D01*
X79117868Y-110875893D01*
X79103253Y-110895599D01*
X79086777Y-110913777D01*
X79068599Y-110930253D01*
X79048893Y-110944868D01*
X79027850Y-110957480D01*
X79005671Y-110967970D01*
X78982572Y-110976235D01*
X78958773Y-110982196D01*
X78934505Y-110985796D01*
X78910001Y-110987000D01*
X78259999Y-110987000D01*
X78235495Y-110985796D01*
X78211227Y-110982196D01*
X78187428Y-110976235D01*
X78164329Y-110967970D01*
X78142150Y-110957480D01*
X78121107Y-110944868D01*
X78101401Y-110930253D01*
X78083223Y-110913777D01*
X78066747Y-110895599D01*
X78052132Y-110875893D01*
X78039520Y-110854850D01*
X78029030Y-110832671D01*
X78020765Y-110809572D01*
X78014804Y-110785773D01*
X78011204Y-110761505D01*
X78010000Y-110737001D01*
X78010000Y-109836999D01*
X78011204Y-109812495D01*
X78014804Y-109788227D01*
X78020765Y-109764428D01*
X78029030Y-109741329D01*
X78039520Y-109719150D01*
X78052132Y-109698107D01*
X78066747Y-109678401D01*
X78083223Y-109660223D01*
X78101401Y-109643747D01*
X78121107Y-109629132D01*
X78142150Y-109616520D01*
X78164329Y-109606030D01*
X78187428Y-109597765D01*
X78211227Y-109591804D01*
X78235495Y-109588204D01*
X78259999Y-109587000D01*
X78910001Y-109587000D01*
X78934505Y-109588204D01*
X78934505Y-109588204D01*
G37*
D11*
X78585000Y-110287000D03*
D10*
G36*
X80984505Y-109588204D02*
X81008773Y-109591804D01*
X81032572Y-109597765D01*
X81055671Y-109606030D01*
X81077850Y-109616520D01*
X81098893Y-109629132D01*
X81118599Y-109643747D01*
X81136777Y-109660223D01*
X81153253Y-109678401D01*
X81167868Y-109698107D01*
X81180480Y-109719150D01*
X81190970Y-109741329D01*
X81199235Y-109764428D01*
X81205196Y-109788227D01*
X81208796Y-109812495D01*
X81210000Y-109836999D01*
X81210000Y-110737001D01*
X81208796Y-110761505D01*
X81205196Y-110785773D01*
X81199235Y-110809572D01*
X81190970Y-110832671D01*
X81180480Y-110854850D01*
X81167868Y-110875893D01*
X81153253Y-110895599D01*
X81136777Y-110913777D01*
X81118599Y-110930253D01*
X81098893Y-110944868D01*
X81077850Y-110957480D01*
X81055671Y-110967970D01*
X81032572Y-110976235D01*
X81008773Y-110982196D01*
X80984505Y-110985796D01*
X80960001Y-110987000D01*
X80309999Y-110987000D01*
X80285495Y-110985796D01*
X80261227Y-110982196D01*
X80237428Y-110976235D01*
X80214329Y-110967970D01*
X80192150Y-110957480D01*
X80171107Y-110944868D01*
X80151401Y-110930253D01*
X80133223Y-110913777D01*
X80116747Y-110895599D01*
X80102132Y-110875893D01*
X80089520Y-110854850D01*
X80079030Y-110832671D01*
X80070765Y-110809572D01*
X80064804Y-110785773D01*
X80061204Y-110761505D01*
X80060000Y-110737001D01*
X80060000Y-109836999D01*
X80061204Y-109812495D01*
X80064804Y-109788227D01*
X80070765Y-109764428D01*
X80079030Y-109741329D01*
X80089520Y-109719150D01*
X80102132Y-109698107D01*
X80116747Y-109678401D01*
X80133223Y-109660223D01*
X80151401Y-109643747D01*
X80171107Y-109629132D01*
X80192150Y-109616520D01*
X80214329Y-109606030D01*
X80237428Y-109597765D01*
X80261227Y-109591804D01*
X80285495Y-109588204D01*
X80309999Y-109587000D01*
X80960001Y-109587000D01*
X80984505Y-109588204D01*
X80984505Y-109588204D01*
G37*
D11*
X80635000Y-110287000D03*
G04 #@! TD*
D10*
G04 #@! TO.C,R1*
G36*
X80308505Y-117849204D02*
X80332773Y-117852804D01*
X80356572Y-117858765D01*
X80379671Y-117867030D01*
X80401850Y-117877520D01*
X80422893Y-117890132D01*
X80442599Y-117904747D01*
X80460777Y-117921223D01*
X80477253Y-117939401D01*
X80491868Y-117959107D01*
X80504480Y-117980150D01*
X80514970Y-118002329D01*
X80523235Y-118025428D01*
X80529196Y-118049227D01*
X80532796Y-118073495D01*
X80534000Y-118097999D01*
X80534000Y-118998001D01*
X80532796Y-119022505D01*
X80529196Y-119046773D01*
X80523235Y-119070572D01*
X80514970Y-119093671D01*
X80504480Y-119115850D01*
X80491868Y-119136893D01*
X80477253Y-119156599D01*
X80460777Y-119174777D01*
X80442599Y-119191253D01*
X80422893Y-119205868D01*
X80401850Y-119218480D01*
X80379671Y-119228970D01*
X80356572Y-119237235D01*
X80332773Y-119243196D01*
X80308505Y-119246796D01*
X80284001Y-119248000D01*
X79633999Y-119248000D01*
X79609495Y-119246796D01*
X79585227Y-119243196D01*
X79561428Y-119237235D01*
X79538329Y-119228970D01*
X79516150Y-119218480D01*
X79495107Y-119205868D01*
X79475401Y-119191253D01*
X79457223Y-119174777D01*
X79440747Y-119156599D01*
X79426132Y-119136893D01*
X79413520Y-119115850D01*
X79403030Y-119093671D01*
X79394765Y-119070572D01*
X79388804Y-119046773D01*
X79385204Y-119022505D01*
X79384000Y-118998001D01*
X79384000Y-118097999D01*
X79385204Y-118073495D01*
X79388804Y-118049227D01*
X79394765Y-118025428D01*
X79403030Y-118002329D01*
X79413520Y-117980150D01*
X79426132Y-117959107D01*
X79440747Y-117939401D01*
X79457223Y-117921223D01*
X79475401Y-117904747D01*
X79495107Y-117890132D01*
X79516150Y-117877520D01*
X79538329Y-117867030D01*
X79561428Y-117858765D01*
X79585227Y-117852804D01*
X79609495Y-117849204D01*
X79633999Y-117848000D01*
X80284001Y-117848000D01*
X80308505Y-117849204D01*
X80308505Y-117849204D01*
G37*
D11*
X79959000Y-118548000D03*
D10*
G36*
X78258505Y-117849204D02*
X78282773Y-117852804D01*
X78306572Y-117858765D01*
X78329671Y-117867030D01*
X78351850Y-117877520D01*
X78372893Y-117890132D01*
X78392599Y-117904747D01*
X78410777Y-117921223D01*
X78427253Y-117939401D01*
X78441868Y-117959107D01*
X78454480Y-117980150D01*
X78464970Y-118002329D01*
X78473235Y-118025428D01*
X78479196Y-118049227D01*
X78482796Y-118073495D01*
X78484000Y-118097999D01*
X78484000Y-118998001D01*
X78482796Y-119022505D01*
X78479196Y-119046773D01*
X78473235Y-119070572D01*
X78464970Y-119093671D01*
X78454480Y-119115850D01*
X78441868Y-119136893D01*
X78427253Y-119156599D01*
X78410777Y-119174777D01*
X78392599Y-119191253D01*
X78372893Y-119205868D01*
X78351850Y-119218480D01*
X78329671Y-119228970D01*
X78306572Y-119237235D01*
X78282773Y-119243196D01*
X78258505Y-119246796D01*
X78234001Y-119248000D01*
X77583999Y-119248000D01*
X77559495Y-119246796D01*
X77535227Y-119243196D01*
X77511428Y-119237235D01*
X77488329Y-119228970D01*
X77466150Y-119218480D01*
X77445107Y-119205868D01*
X77425401Y-119191253D01*
X77407223Y-119174777D01*
X77390747Y-119156599D01*
X77376132Y-119136893D01*
X77363520Y-119115850D01*
X77353030Y-119093671D01*
X77344765Y-119070572D01*
X77338804Y-119046773D01*
X77335204Y-119022505D01*
X77334000Y-118998001D01*
X77334000Y-118097999D01*
X77335204Y-118073495D01*
X77338804Y-118049227D01*
X77344765Y-118025428D01*
X77353030Y-118002329D01*
X77363520Y-117980150D01*
X77376132Y-117959107D01*
X77390747Y-117939401D01*
X77407223Y-117921223D01*
X77425401Y-117904747D01*
X77445107Y-117890132D01*
X77466150Y-117877520D01*
X77488329Y-117867030D01*
X77511428Y-117858765D01*
X77535227Y-117852804D01*
X77559495Y-117849204D01*
X77583999Y-117848000D01*
X78234001Y-117848000D01*
X78258505Y-117849204D01*
X78258505Y-117849204D01*
G37*
D11*
X77909000Y-118548000D03*
G04 #@! TD*
D10*
G04 #@! TO.C,R2*
G36*
X80438505Y-115574204D02*
X80462773Y-115577804D01*
X80486572Y-115583765D01*
X80509671Y-115592030D01*
X80531850Y-115602520D01*
X80552893Y-115615132D01*
X80572599Y-115629747D01*
X80590777Y-115646223D01*
X80607253Y-115664401D01*
X80621868Y-115684107D01*
X80634480Y-115705150D01*
X80644970Y-115727329D01*
X80653235Y-115750428D01*
X80659196Y-115774227D01*
X80662796Y-115798495D01*
X80664000Y-115822999D01*
X80664000Y-116473001D01*
X80662796Y-116497505D01*
X80659196Y-116521773D01*
X80653235Y-116545572D01*
X80644970Y-116568671D01*
X80634480Y-116590850D01*
X80621868Y-116611893D01*
X80607253Y-116631599D01*
X80590777Y-116649777D01*
X80572599Y-116666253D01*
X80552893Y-116680868D01*
X80531850Y-116693480D01*
X80509671Y-116703970D01*
X80486572Y-116712235D01*
X80462773Y-116718196D01*
X80438505Y-116721796D01*
X80414001Y-116723000D01*
X79513999Y-116723000D01*
X79489495Y-116721796D01*
X79465227Y-116718196D01*
X79441428Y-116712235D01*
X79418329Y-116703970D01*
X79396150Y-116693480D01*
X79375107Y-116680868D01*
X79355401Y-116666253D01*
X79337223Y-116649777D01*
X79320747Y-116631599D01*
X79306132Y-116611893D01*
X79293520Y-116590850D01*
X79283030Y-116568671D01*
X79274765Y-116545572D01*
X79268804Y-116521773D01*
X79265204Y-116497505D01*
X79264000Y-116473001D01*
X79264000Y-115822999D01*
X79265204Y-115798495D01*
X79268804Y-115774227D01*
X79274765Y-115750428D01*
X79283030Y-115727329D01*
X79293520Y-115705150D01*
X79306132Y-115684107D01*
X79320747Y-115664401D01*
X79337223Y-115646223D01*
X79355401Y-115629747D01*
X79375107Y-115615132D01*
X79396150Y-115602520D01*
X79418329Y-115592030D01*
X79441428Y-115583765D01*
X79465227Y-115577804D01*
X79489495Y-115574204D01*
X79513999Y-115573000D01*
X80414001Y-115573000D01*
X80438505Y-115574204D01*
X80438505Y-115574204D01*
G37*
D11*
X79964000Y-116148000D03*
D10*
G36*
X80438505Y-113524204D02*
X80462773Y-113527804D01*
X80486572Y-113533765D01*
X80509671Y-113542030D01*
X80531850Y-113552520D01*
X80552893Y-113565132D01*
X80572599Y-113579747D01*
X80590777Y-113596223D01*
X80607253Y-113614401D01*
X80621868Y-113634107D01*
X80634480Y-113655150D01*
X80644970Y-113677329D01*
X80653235Y-113700428D01*
X80659196Y-113724227D01*
X80662796Y-113748495D01*
X80664000Y-113772999D01*
X80664000Y-114423001D01*
X80662796Y-114447505D01*
X80659196Y-114471773D01*
X80653235Y-114495572D01*
X80644970Y-114518671D01*
X80634480Y-114540850D01*
X80621868Y-114561893D01*
X80607253Y-114581599D01*
X80590777Y-114599777D01*
X80572599Y-114616253D01*
X80552893Y-114630868D01*
X80531850Y-114643480D01*
X80509671Y-114653970D01*
X80486572Y-114662235D01*
X80462773Y-114668196D01*
X80438505Y-114671796D01*
X80414001Y-114673000D01*
X79513999Y-114673000D01*
X79489495Y-114671796D01*
X79465227Y-114668196D01*
X79441428Y-114662235D01*
X79418329Y-114653970D01*
X79396150Y-114643480D01*
X79375107Y-114630868D01*
X79355401Y-114616253D01*
X79337223Y-114599777D01*
X79320747Y-114581599D01*
X79306132Y-114561893D01*
X79293520Y-114540850D01*
X79283030Y-114518671D01*
X79274765Y-114495572D01*
X79268804Y-114471773D01*
X79265204Y-114447505D01*
X79264000Y-114423001D01*
X79264000Y-113772999D01*
X79265204Y-113748495D01*
X79268804Y-113724227D01*
X79274765Y-113700428D01*
X79283030Y-113677329D01*
X79293520Y-113655150D01*
X79306132Y-113634107D01*
X79320747Y-113614401D01*
X79337223Y-113596223D01*
X79355401Y-113579747D01*
X79375107Y-113565132D01*
X79396150Y-113552520D01*
X79418329Y-113542030D01*
X79441428Y-113533765D01*
X79465227Y-113527804D01*
X79489495Y-113524204D01*
X79513999Y-113523000D01*
X80414001Y-113523000D01*
X80438505Y-113524204D01*
X80438505Y-113524204D01*
G37*
D11*
X79964000Y-114098000D03*
G04 #@! TD*
D10*
G04 #@! TO.C,R10*
G36*
X54974505Y-68586204D02*
X54998773Y-68589804D01*
X55022572Y-68595765D01*
X55045671Y-68604030D01*
X55067850Y-68614520D01*
X55088893Y-68627132D01*
X55108599Y-68641747D01*
X55126777Y-68658223D01*
X55143253Y-68676401D01*
X55157868Y-68696107D01*
X55170480Y-68717150D01*
X55180970Y-68739329D01*
X55189235Y-68762428D01*
X55195196Y-68786227D01*
X55198796Y-68810495D01*
X55200000Y-68834999D01*
X55200000Y-69485001D01*
X55198796Y-69509505D01*
X55195196Y-69533773D01*
X55189235Y-69557572D01*
X55180970Y-69580671D01*
X55170480Y-69602850D01*
X55157868Y-69623893D01*
X55143253Y-69643599D01*
X55126777Y-69661777D01*
X55108599Y-69678253D01*
X55088893Y-69692868D01*
X55067850Y-69705480D01*
X55045671Y-69715970D01*
X55022572Y-69724235D01*
X54998773Y-69730196D01*
X54974505Y-69733796D01*
X54950001Y-69735000D01*
X54049999Y-69735000D01*
X54025495Y-69733796D01*
X54001227Y-69730196D01*
X53977428Y-69724235D01*
X53954329Y-69715970D01*
X53932150Y-69705480D01*
X53911107Y-69692868D01*
X53891401Y-69678253D01*
X53873223Y-69661777D01*
X53856747Y-69643599D01*
X53842132Y-69623893D01*
X53829520Y-69602850D01*
X53819030Y-69580671D01*
X53810765Y-69557572D01*
X53804804Y-69533773D01*
X53801204Y-69509505D01*
X53800000Y-69485001D01*
X53800000Y-68834999D01*
X53801204Y-68810495D01*
X53804804Y-68786227D01*
X53810765Y-68762428D01*
X53819030Y-68739329D01*
X53829520Y-68717150D01*
X53842132Y-68696107D01*
X53856747Y-68676401D01*
X53873223Y-68658223D01*
X53891401Y-68641747D01*
X53911107Y-68627132D01*
X53932150Y-68614520D01*
X53954329Y-68604030D01*
X53977428Y-68595765D01*
X54001227Y-68589804D01*
X54025495Y-68586204D01*
X54049999Y-68585000D01*
X54950001Y-68585000D01*
X54974505Y-68586204D01*
X54974505Y-68586204D01*
G37*
D11*
X54500000Y-69160000D03*
D10*
G36*
X54974505Y-66536204D02*
X54998773Y-66539804D01*
X55022572Y-66545765D01*
X55045671Y-66554030D01*
X55067850Y-66564520D01*
X55088893Y-66577132D01*
X55108599Y-66591747D01*
X55126777Y-66608223D01*
X55143253Y-66626401D01*
X55157868Y-66646107D01*
X55170480Y-66667150D01*
X55180970Y-66689329D01*
X55189235Y-66712428D01*
X55195196Y-66736227D01*
X55198796Y-66760495D01*
X55200000Y-66784999D01*
X55200000Y-67435001D01*
X55198796Y-67459505D01*
X55195196Y-67483773D01*
X55189235Y-67507572D01*
X55180970Y-67530671D01*
X55170480Y-67552850D01*
X55157868Y-67573893D01*
X55143253Y-67593599D01*
X55126777Y-67611777D01*
X55108599Y-67628253D01*
X55088893Y-67642868D01*
X55067850Y-67655480D01*
X55045671Y-67665970D01*
X55022572Y-67674235D01*
X54998773Y-67680196D01*
X54974505Y-67683796D01*
X54950001Y-67685000D01*
X54049999Y-67685000D01*
X54025495Y-67683796D01*
X54001227Y-67680196D01*
X53977428Y-67674235D01*
X53954329Y-67665970D01*
X53932150Y-67655480D01*
X53911107Y-67642868D01*
X53891401Y-67628253D01*
X53873223Y-67611777D01*
X53856747Y-67593599D01*
X53842132Y-67573893D01*
X53829520Y-67552850D01*
X53819030Y-67530671D01*
X53810765Y-67507572D01*
X53804804Y-67483773D01*
X53801204Y-67459505D01*
X53800000Y-67435001D01*
X53800000Y-66784999D01*
X53801204Y-66760495D01*
X53804804Y-66736227D01*
X53810765Y-66712428D01*
X53819030Y-66689329D01*
X53829520Y-66667150D01*
X53842132Y-66646107D01*
X53856747Y-66626401D01*
X53873223Y-66608223D01*
X53891401Y-66591747D01*
X53911107Y-66577132D01*
X53932150Y-66564520D01*
X53954329Y-66554030D01*
X53977428Y-66545765D01*
X54001227Y-66539804D01*
X54025495Y-66536204D01*
X54049999Y-66535000D01*
X54950001Y-66535000D01*
X54974505Y-66536204D01*
X54974505Y-66536204D01*
G37*
D11*
X54500000Y-67110000D03*
G04 #@! TD*
D10*
G04 #@! TO.C,R14*
G36*
X56974505Y-68586204D02*
X56998773Y-68589804D01*
X57022572Y-68595765D01*
X57045671Y-68604030D01*
X57067850Y-68614520D01*
X57088893Y-68627132D01*
X57108599Y-68641747D01*
X57126777Y-68658223D01*
X57143253Y-68676401D01*
X57157868Y-68696107D01*
X57170480Y-68717150D01*
X57180970Y-68739329D01*
X57189235Y-68762428D01*
X57195196Y-68786227D01*
X57198796Y-68810495D01*
X57200000Y-68834999D01*
X57200000Y-69485001D01*
X57198796Y-69509505D01*
X57195196Y-69533773D01*
X57189235Y-69557572D01*
X57180970Y-69580671D01*
X57170480Y-69602850D01*
X57157868Y-69623893D01*
X57143253Y-69643599D01*
X57126777Y-69661777D01*
X57108599Y-69678253D01*
X57088893Y-69692868D01*
X57067850Y-69705480D01*
X57045671Y-69715970D01*
X57022572Y-69724235D01*
X56998773Y-69730196D01*
X56974505Y-69733796D01*
X56950001Y-69735000D01*
X56049999Y-69735000D01*
X56025495Y-69733796D01*
X56001227Y-69730196D01*
X55977428Y-69724235D01*
X55954329Y-69715970D01*
X55932150Y-69705480D01*
X55911107Y-69692868D01*
X55891401Y-69678253D01*
X55873223Y-69661777D01*
X55856747Y-69643599D01*
X55842132Y-69623893D01*
X55829520Y-69602850D01*
X55819030Y-69580671D01*
X55810765Y-69557572D01*
X55804804Y-69533773D01*
X55801204Y-69509505D01*
X55800000Y-69485001D01*
X55800000Y-68834999D01*
X55801204Y-68810495D01*
X55804804Y-68786227D01*
X55810765Y-68762428D01*
X55819030Y-68739329D01*
X55829520Y-68717150D01*
X55842132Y-68696107D01*
X55856747Y-68676401D01*
X55873223Y-68658223D01*
X55891401Y-68641747D01*
X55911107Y-68627132D01*
X55932150Y-68614520D01*
X55954329Y-68604030D01*
X55977428Y-68595765D01*
X56001227Y-68589804D01*
X56025495Y-68586204D01*
X56049999Y-68585000D01*
X56950001Y-68585000D01*
X56974505Y-68586204D01*
X56974505Y-68586204D01*
G37*
D11*
X56500000Y-69160000D03*
D10*
G36*
X56974505Y-66536204D02*
X56998773Y-66539804D01*
X57022572Y-66545765D01*
X57045671Y-66554030D01*
X57067850Y-66564520D01*
X57088893Y-66577132D01*
X57108599Y-66591747D01*
X57126777Y-66608223D01*
X57143253Y-66626401D01*
X57157868Y-66646107D01*
X57170480Y-66667150D01*
X57180970Y-66689329D01*
X57189235Y-66712428D01*
X57195196Y-66736227D01*
X57198796Y-66760495D01*
X57200000Y-66784999D01*
X57200000Y-67435001D01*
X57198796Y-67459505D01*
X57195196Y-67483773D01*
X57189235Y-67507572D01*
X57180970Y-67530671D01*
X57170480Y-67552850D01*
X57157868Y-67573893D01*
X57143253Y-67593599D01*
X57126777Y-67611777D01*
X57108599Y-67628253D01*
X57088893Y-67642868D01*
X57067850Y-67655480D01*
X57045671Y-67665970D01*
X57022572Y-67674235D01*
X56998773Y-67680196D01*
X56974505Y-67683796D01*
X56950001Y-67685000D01*
X56049999Y-67685000D01*
X56025495Y-67683796D01*
X56001227Y-67680196D01*
X55977428Y-67674235D01*
X55954329Y-67665970D01*
X55932150Y-67655480D01*
X55911107Y-67642868D01*
X55891401Y-67628253D01*
X55873223Y-67611777D01*
X55856747Y-67593599D01*
X55842132Y-67573893D01*
X55829520Y-67552850D01*
X55819030Y-67530671D01*
X55810765Y-67507572D01*
X55804804Y-67483773D01*
X55801204Y-67459505D01*
X55800000Y-67435001D01*
X55800000Y-66784999D01*
X55801204Y-66760495D01*
X55804804Y-66736227D01*
X55810765Y-66712428D01*
X55819030Y-66689329D01*
X55829520Y-66667150D01*
X55842132Y-66646107D01*
X55856747Y-66626401D01*
X55873223Y-66608223D01*
X55891401Y-66591747D01*
X55911107Y-66577132D01*
X55932150Y-66564520D01*
X55954329Y-66554030D01*
X55977428Y-66545765D01*
X56001227Y-66539804D01*
X56025495Y-66536204D01*
X56049999Y-66535000D01*
X56950001Y-66535000D01*
X56974505Y-66536204D01*
X56974505Y-66536204D01*
G37*
D11*
X56500000Y-67110000D03*
G04 #@! TD*
D10*
G04 #@! TO.C,R15*
G36*
X63482505Y-92725204D02*
X63506773Y-92728804D01*
X63530572Y-92734765D01*
X63553671Y-92743030D01*
X63575850Y-92753520D01*
X63596893Y-92766132D01*
X63616599Y-92780747D01*
X63634777Y-92797223D01*
X63651253Y-92815401D01*
X63665868Y-92835107D01*
X63678480Y-92856150D01*
X63688970Y-92878329D01*
X63697235Y-92901428D01*
X63703196Y-92925227D01*
X63706796Y-92949495D01*
X63708000Y-92973999D01*
X63708000Y-93624001D01*
X63706796Y-93648505D01*
X63703196Y-93672773D01*
X63697235Y-93696572D01*
X63688970Y-93719671D01*
X63678480Y-93741850D01*
X63665868Y-93762893D01*
X63651253Y-93782599D01*
X63634777Y-93800777D01*
X63616599Y-93817253D01*
X63596893Y-93831868D01*
X63575850Y-93844480D01*
X63553671Y-93854970D01*
X63530572Y-93863235D01*
X63506773Y-93869196D01*
X63482505Y-93872796D01*
X63458001Y-93874000D01*
X62557999Y-93874000D01*
X62533495Y-93872796D01*
X62509227Y-93869196D01*
X62485428Y-93863235D01*
X62462329Y-93854970D01*
X62440150Y-93844480D01*
X62419107Y-93831868D01*
X62399401Y-93817253D01*
X62381223Y-93800777D01*
X62364747Y-93782599D01*
X62350132Y-93762893D01*
X62337520Y-93741850D01*
X62327030Y-93719671D01*
X62318765Y-93696572D01*
X62312804Y-93672773D01*
X62309204Y-93648505D01*
X62308000Y-93624001D01*
X62308000Y-92973999D01*
X62309204Y-92949495D01*
X62312804Y-92925227D01*
X62318765Y-92901428D01*
X62327030Y-92878329D01*
X62337520Y-92856150D01*
X62350132Y-92835107D01*
X62364747Y-92815401D01*
X62381223Y-92797223D01*
X62399401Y-92780747D01*
X62419107Y-92766132D01*
X62440150Y-92753520D01*
X62462329Y-92743030D01*
X62485428Y-92734765D01*
X62509227Y-92728804D01*
X62533495Y-92725204D01*
X62557999Y-92724000D01*
X63458001Y-92724000D01*
X63482505Y-92725204D01*
X63482505Y-92725204D01*
G37*
D11*
X63008000Y-93299000D03*
D10*
G36*
X63482505Y-94775204D02*
X63506773Y-94778804D01*
X63530572Y-94784765D01*
X63553671Y-94793030D01*
X63575850Y-94803520D01*
X63596893Y-94816132D01*
X63616599Y-94830747D01*
X63634777Y-94847223D01*
X63651253Y-94865401D01*
X63665868Y-94885107D01*
X63678480Y-94906150D01*
X63688970Y-94928329D01*
X63697235Y-94951428D01*
X63703196Y-94975227D01*
X63706796Y-94999495D01*
X63708000Y-95023999D01*
X63708000Y-95674001D01*
X63706796Y-95698505D01*
X63703196Y-95722773D01*
X63697235Y-95746572D01*
X63688970Y-95769671D01*
X63678480Y-95791850D01*
X63665868Y-95812893D01*
X63651253Y-95832599D01*
X63634777Y-95850777D01*
X63616599Y-95867253D01*
X63596893Y-95881868D01*
X63575850Y-95894480D01*
X63553671Y-95904970D01*
X63530572Y-95913235D01*
X63506773Y-95919196D01*
X63482505Y-95922796D01*
X63458001Y-95924000D01*
X62557999Y-95924000D01*
X62533495Y-95922796D01*
X62509227Y-95919196D01*
X62485428Y-95913235D01*
X62462329Y-95904970D01*
X62440150Y-95894480D01*
X62419107Y-95881868D01*
X62399401Y-95867253D01*
X62381223Y-95850777D01*
X62364747Y-95832599D01*
X62350132Y-95812893D01*
X62337520Y-95791850D01*
X62327030Y-95769671D01*
X62318765Y-95746572D01*
X62312804Y-95722773D01*
X62309204Y-95698505D01*
X62308000Y-95674001D01*
X62308000Y-95023999D01*
X62309204Y-94999495D01*
X62312804Y-94975227D01*
X62318765Y-94951428D01*
X62327030Y-94928329D01*
X62337520Y-94906150D01*
X62350132Y-94885107D01*
X62364747Y-94865401D01*
X62381223Y-94847223D01*
X62399401Y-94830747D01*
X62419107Y-94816132D01*
X62440150Y-94803520D01*
X62462329Y-94793030D01*
X62485428Y-94784765D01*
X62509227Y-94778804D01*
X62533495Y-94775204D01*
X62557999Y-94774000D01*
X63458001Y-94774000D01*
X63482505Y-94775204D01*
X63482505Y-94775204D01*
G37*
D11*
X63008000Y-95349000D03*
G04 #@! TD*
D10*
G04 #@! TO.C,R16*
G36*
X61432505Y-92725204D02*
X61456773Y-92728804D01*
X61480572Y-92734765D01*
X61503671Y-92743030D01*
X61525850Y-92753520D01*
X61546893Y-92766132D01*
X61566599Y-92780747D01*
X61584777Y-92797223D01*
X61601253Y-92815401D01*
X61615868Y-92835107D01*
X61628480Y-92856150D01*
X61638970Y-92878329D01*
X61647235Y-92901428D01*
X61653196Y-92925227D01*
X61656796Y-92949495D01*
X61658000Y-92973999D01*
X61658000Y-93624001D01*
X61656796Y-93648505D01*
X61653196Y-93672773D01*
X61647235Y-93696572D01*
X61638970Y-93719671D01*
X61628480Y-93741850D01*
X61615868Y-93762893D01*
X61601253Y-93782599D01*
X61584777Y-93800777D01*
X61566599Y-93817253D01*
X61546893Y-93831868D01*
X61525850Y-93844480D01*
X61503671Y-93854970D01*
X61480572Y-93863235D01*
X61456773Y-93869196D01*
X61432505Y-93872796D01*
X61408001Y-93874000D01*
X60507999Y-93874000D01*
X60483495Y-93872796D01*
X60459227Y-93869196D01*
X60435428Y-93863235D01*
X60412329Y-93854970D01*
X60390150Y-93844480D01*
X60369107Y-93831868D01*
X60349401Y-93817253D01*
X60331223Y-93800777D01*
X60314747Y-93782599D01*
X60300132Y-93762893D01*
X60287520Y-93741850D01*
X60277030Y-93719671D01*
X60268765Y-93696572D01*
X60262804Y-93672773D01*
X60259204Y-93648505D01*
X60258000Y-93624001D01*
X60258000Y-92973999D01*
X60259204Y-92949495D01*
X60262804Y-92925227D01*
X60268765Y-92901428D01*
X60277030Y-92878329D01*
X60287520Y-92856150D01*
X60300132Y-92835107D01*
X60314747Y-92815401D01*
X60331223Y-92797223D01*
X60349401Y-92780747D01*
X60369107Y-92766132D01*
X60390150Y-92753520D01*
X60412329Y-92743030D01*
X60435428Y-92734765D01*
X60459227Y-92728804D01*
X60483495Y-92725204D01*
X60507999Y-92724000D01*
X61408001Y-92724000D01*
X61432505Y-92725204D01*
X61432505Y-92725204D01*
G37*
D11*
X60958000Y-93299000D03*
D10*
G36*
X61432505Y-94775204D02*
X61456773Y-94778804D01*
X61480572Y-94784765D01*
X61503671Y-94793030D01*
X61525850Y-94803520D01*
X61546893Y-94816132D01*
X61566599Y-94830747D01*
X61584777Y-94847223D01*
X61601253Y-94865401D01*
X61615868Y-94885107D01*
X61628480Y-94906150D01*
X61638970Y-94928329D01*
X61647235Y-94951428D01*
X61653196Y-94975227D01*
X61656796Y-94999495D01*
X61658000Y-95023999D01*
X61658000Y-95674001D01*
X61656796Y-95698505D01*
X61653196Y-95722773D01*
X61647235Y-95746572D01*
X61638970Y-95769671D01*
X61628480Y-95791850D01*
X61615868Y-95812893D01*
X61601253Y-95832599D01*
X61584777Y-95850777D01*
X61566599Y-95867253D01*
X61546893Y-95881868D01*
X61525850Y-95894480D01*
X61503671Y-95904970D01*
X61480572Y-95913235D01*
X61456773Y-95919196D01*
X61432505Y-95922796D01*
X61408001Y-95924000D01*
X60507999Y-95924000D01*
X60483495Y-95922796D01*
X60459227Y-95919196D01*
X60435428Y-95913235D01*
X60412329Y-95904970D01*
X60390150Y-95894480D01*
X60369107Y-95881868D01*
X60349401Y-95867253D01*
X60331223Y-95850777D01*
X60314747Y-95832599D01*
X60300132Y-95812893D01*
X60287520Y-95791850D01*
X60277030Y-95769671D01*
X60268765Y-95746572D01*
X60262804Y-95722773D01*
X60259204Y-95698505D01*
X60258000Y-95674001D01*
X60258000Y-95023999D01*
X60259204Y-94999495D01*
X60262804Y-94975227D01*
X60268765Y-94951428D01*
X60277030Y-94928329D01*
X60287520Y-94906150D01*
X60300132Y-94885107D01*
X60314747Y-94865401D01*
X60331223Y-94847223D01*
X60349401Y-94830747D01*
X60369107Y-94816132D01*
X60390150Y-94803520D01*
X60412329Y-94793030D01*
X60435428Y-94784765D01*
X60459227Y-94778804D01*
X60483495Y-94775204D01*
X60507999Y-94774000D01*
X61408001Y-94774000D01*
X61432505Y-94775204D01*
X61432505Y-94775204D01*
G37*
D11*
X60958000Y-95349000D03*
G04 #@! TD*
D10*
G04 #@! TO.C,R17*
G36*
X59382505Y-92725204D02*
X59406773Y-92728804D01*
X59430572Y-92734765D01*
X59453671Y-92743030D01*
X59475850Y-92753520D01*
X59496893Y-92766132D01*
X59516599Y-92780747D01*
X59534777Y-92797223D01*
X59551253Y-92815401D01*
X59565868Y-92835107D01*
X59578480Y-92856150D01*
X59588970Y-92878329D01*
X59597235Y-92901428D01*
X59603196Y-92925227D01*
X59606796Y-92949495D01*
X59608000Y-92973999D01*
X59608000Y-93624001D01*
X59606796Y-93648505D01*
X59603196Y-93672773D01*
X59597235Y-93696572D01*
X59588970Y-93719671D01*
X59578480Y-93741850D01*
X59565868Y-93762893D01*
X59551253Y-93782599D01*
X59534777Y-93800777D01*
X59516599Y-93817253D01*
X59496893Y-93831868D01*
X59475850Y-93844480D01*
X59453671Y-93854970D01*
X59430572Y-93863235D01*
X59406773Y-93869196D01*
X59382505Y-93872796D01*
X59358001Y-93874000D01*
X58457999Y-93874000D01*
X58433495Y-93872796D01*
X58409227Y-93869196D01*
X58385428Y-93863235D01*
X58362329Y-93854970D01*
X58340150Y-93844480D01*
X58319107Y-93831868D01*
X58299401Y-93817253D01*
X58281223Y-93800777D01*
X58264747Y-93782599D01*
X58250132Y-93762893D01*
X58237520Y-93741850D01*
X58227030Y-93719671D01*
X58218765Y-93696572D01*
X58212804Y-93672773D01*
X58209204Y-93648505D01*
X58208000Y-93624001D01*
X58208000Y-92973999D01*
X58209204Y-92949495D01*
X58212804Y-92925227D01*
X58218765Y-92901428D01*
X58227030Y-92878329D01*
X58237520Y-92856150D01*
X58250132Y-92835107D01*
X58264747Y-92815401D01*
X58281223Y-92797223D01*
X58299401Y-92780747D01*
X58319107Y-92766132D01*
X58340150Y-92753520D01*
X58362329Y-92743030D01*
X58385428Y-92734765D01*
X58409227Y-92728804D01*
X58433495Y-92725204D01*
X58457999Y-92724000D01*
X59358001Y-92724000D01*
X59382505Y-92725204D01*
X59382505Y-92725204D01*
G37*
D11*
X58908000Y-93299000D03*
D10*
G36*
X59382505Y-94775204D02*
X59406773Y-94778804D01*
X59430572Y-94784765D01*
X59453671Y-94793030D01*
X59475850Y-94803520D01*
X59496893Y-94816132D01*
X59516599Y-94830747D01*
X59534777Y-94847223D01*
X59551253Y-94865401D01*
X59565868Y-94885107D01*
X59578480Y-94906150D01*
X59588970Y-94928329D01*
X59597235Y-94951428D01*
X59603196Y-94975227D01*
X59606796Y-94999495D01*
X59608000Y-95023999D01*
X59608000Y-95674001D01*
X59606796Y-95698505D01*
X59603196Y-95722773D01*
X59597235Y-95746572D01*
X59588970Y-95769671D01*
X59578480Y-95791850D01*
X59565868Y-95812893D01*
X59551253Y-95832599D01*
X59534777Y-95850777D01*
X59516599Y-95867253D01*
X59496893Y-95881868D01*
X59475850Y-95894480D01*
X59453671Y-95904970D01*
X59430572Y-95913235D01*
X59406773Y-95919196D01*
X59382505Y-95922796D01*
X59358001Y-95924000D01*
X58457999Y-95924000D01*
X58433495Y-95922796D01*
X58409227Y-95919196D01*
X58385428Y-95913235D01*
X58362329Y-95904970D01*
X58340150Y-95894480D01*
X58319107Y-95881868D01*
X58299401Y-95867253D01*
X58281223Y-95850777D01*
X58264747Y-95832599D01*
X58250132Y-95812893D01*
X58237520Y-95791850D01*
X58227030Y-95769671D01*
X58218765Y-95746572D01*
X58212804Y-95722773D01*
X58209204Y-95698505D01*
X58208000Y-95674001D01*
X58208000Y-95023999D01*
X58209204Y-94999495D01*
X58212804Y-94975227D01*
X58218765Y-94951428D01*
X58227030Y-94928329D01*
X58237520Y-94906150D01*
X58250132Y-94885107D01*
X58264747Y-94865401D01*
X58281223Y-94847223D01*
X58299401Y-94830747D01*
X58319107Y-94816132D01*
X58340150Y-94803520D01*
X58362329Y-94793030D01*
X58385428Y-94784765D01*
X58409227Y-94778804D01*
X58433495Y-94775204D01*
X58457999Y-94774000D01*
X59358001Y-94774000D01*
X59382505Y-94775204D01*
X59382505Y-94775204D01*
G37*
D11*
X58908000Y-95349000D03*
G04 #@! TD*
D10*
G04 #@! TO.C,R18*
G36*
X85974505Y-68586204D02*
X85998773Y-68589804D01*
X86022572Y-68595765D01*
X86045671Y-68604030D01*
X86067850Y-68614520D01*
X86088893Y-68627132D01*
X86108599Y-68641747D01*
X86126777Y-68658223D01*
X86143253Y-68676401D01*
X86157868Y-68696107D01*
X86170480Y-68717150D01*
X86180970Y-68739329D01*
X86189235Y-68762428D01*
X86195196Y-68786227D01*
X86198796Y-68810495D01*
X86200000Y-68834999D01*
X86200000Y-69485001D01*
X86198796Y-69509505D01*
X86195196Y-69533773D01*
X86189235Y-69557572D01*
X86180970Y-69580671D01*
X86170480Y-69602850D01*
X86157868Y-69623893D01*
X86143253Y-69643599D01*
X86126777Y-69661777D01*
X86108599Y-69678253D01*
X86088893Y-69692868D01*
X86067850Y-69705480D01*
X86045671Y-69715970D01*
X86022572Y-69724235D01*
X85998773Y-69730196D01*
X85974505Y-69733796D01*
X85950001Y-69735000D01*
X85049999Y-69735000D01*
X85025495Y-69733796D01*
X85001227Y-69730196D01*
X84977428Y-69724235D01*
X84954329Y-69715970D01*
X84932150Y-69705480D01*
X84911107Y-69692868D01*
X84891401Y-69678253D01*
X84873223Y-69661777D01*
X84856747Y-69643599D01*
X84842132Y-69623893D01*
X84829520Y-69602850D01*
X84819030Y-69580671D01*
X84810765Y-69557572D01*
X84804804Y-69533773D01*
X84801204Y-69509505D01*
X84800000Y-69485001D01*
X84800000Y-68834999D01*
X84801204Y-68810495D01*
X84804804Y-68786227D01*
X84810765Y-68762428D01*
X84819030Y-68739329D01*
X84829520Y-68717150D01*
X84842132Y-68696107D01*
X84856747Y-68676401D01*
X84873223Y-68658223D01*
X84891401Y-68641747D01*
X84911107Y-68627132D01*
X84932150Y-68614520D01*
X84954329Y-68604030D01*
X84977428Y-68595765D01*
X85001227Y-68589804D01*
X85025495Y-68586204D01*
X85049999Y-68585000D01*
X85950001Y-68585000D01*
X85974505Y-68586204D01*
X85974505Y-68586204D01*
G37*
D11*
X85500000Y-69160000D03*
D10*
G36*
X85974505Y-66536204D02*
X85998773Y-66539804D01*
X86022572Y-66545765D01*
X86045671Y-66554030D01*
X86067850Y-66564520D01*
X86088893Y-66577132D01*
X86108599Y-66591747D01*
X86126777Y-66608223D01*
X86143253Y-66626401D01*
X86157868Y-66646107D01*
X86170480Y-66667150D01*
X86180970Y-66689329D01*
X86189235Y-66712428D01*
X86195196Y-66736227D01*
X86198796Y-66760495D01*
X86200000Y-66784999D01*
X86200000Y-67435001D01*
X86198796Y-67459505D01*
X86195196Y-67483773D01*
X86189235Y-67507572D01*
X86180970Y-67530671D01*
X86170480Y-67552850D01*
X86157868Y-67573893D01*
X86143253Y-67593599D01*
X86126777Y-67611777D01*
X86108599Y-67628253D01*
X86088893Y-67642868D01*
X86067850Y-67655480D01*
X86045671Y-67665970D01*
X86022572Y-67674235D01*
X85998773Y-67680196D01*
X85974505Y-67683796D01*
X85950001Y-67685000D01*
X85049999Y-67685000D01*
X85025495Y-67683796D01*
X85001227Y-67680196D01*
X84977428Y-67674235D01*
X84954329Y-67665970D01*
X84932150Y-67655480D01*
X84911107Y-67642868D01*
X84891401Y-67628253D01*
X84873223Y-67611777D01*
X84856747Y-67593599D01*
X84842132Y-67573893D01*
X84829520Y-67552850D01*
X84819030Y-67530671D01*
X84810765Y-67507572D01*
X84804804Y-67483773D01*
X84801204Y-67459505D01*
X84800000Y-67435001D01*
X84800000Y-66784999D01*
X84801204Y-66760495D01*
X84804804Y-66736227D01*
X84810765Y-66712428D01*
X84819030Y-66689329D01*
X84829520Y-66667150D01*
X84842132Y-66646107D01*
X84856747Y-66626401D01*
X84873223Y-66608223D01*
X84891401Y-66591747D01*
X84911107Y-66577132D01*
X84932150Y-66564520D01*
X84954329Y-66554030D01*
X84977428Y-66545765D01*
X85001227Y-66539804D01*
X85025495Y-66536204D01*
X85049999Y-66535000D01*
X85950001Y-66535000D01*
X85974505Y-66536204D01*
X85974505Y-66536204D01*
G37*
D11*
X85500000Y-67110000D03*
G04 #@! TD*
D10*
G04 #@! TO.C,R22*
G36*
X83974505Y-68586204D02*
X83998773Y-68589804D01*
X84022572Y-68595765D01*
X84045671Y-68604030D01*
X84067850Y-68614520D01*
X84088893Y-68627132D01*
X84108599Y-68641747D01*
X84126777Y-68658223D01*
X84143253Y-68676401D01*
X84157868Y-68696107D01*
X84170480Y-68717150D01*
X84180970Y-68739329D01*
X84189235Y-68762428D01*
X84195196Y-68786227D01*
X84198796Y-68810495D01*
X84200000Y-68834999D01*
X84200000Y-69485001D01*
X84198796Y-69509505D01*
X84195196Y-69533773D01*
X84189235Y-69557572D01*
X84180970Y-69580671D01*
X84170480Y-69602850D01*
X84157868Y-69623893D01*
X84143253Y-69643599D01*
X84126777Y-69661777D01*
X84108599Y-69678253D01*
X84088893Y-69692868D01*
X84067850Y-69705480D01*
X84045671Y-69715970D01*
X84022572Y-69724235D01*
X83998773Y-69730196D01*
X83974505Y-69733796D01*
X83950001Y-69735000D01*
X83049999Y-69735000D01*
X83025495Y-69733796D01*
X83001227Y-69730196D01*
X82977428Y-69724235D01*
X82954329Y-69715970D01*
X82932150Y-69705480D01*
X82911107Y-69692868D01*
X82891401Y-69678253D01*
X82873223Y-69661777D01*
X82856747Y-69643599D01*
X82842132Y-69623893D01*
X82829520Y-69602850D01*
X82819030Y-69580671D01*
X82810765Y-69557572D01*
X82804804Y-69533773D01*
X82801204Y-69509505D01*
X82800000Y-69485001D01*
X82800000Y-68834999D01*
X82801204Y-68810495D01*
X82804804Y-68786227D01*
X82810765Y-68762428D01*
X82819030Y-68739329D01*
X82829520Y-68717150D01*
X82842132Y-68696107D01*
X82856747Y-68676401D01*
X82873223Y-68658223D01*
X82891401Y-68641747D01*
X82911107Y-68627132D01*
X82932150Y-68614520D01*
X82954329Y-68604030D01*
X82977428Y-68595765D01*
X83001227Y-68589804D01*
X83025495Y-68586204D01*
X83049999Y-68585000D01*
X83950001Y-68585000D01*
X83974505Y-68586204D01*
X83974505Y-68586204D01*
G37*
D11*
X83500000Y-69160000D03*
D10*
G36*
X83974505Y-66536204D02*
X83998773Y-66539804D01*
X84022572Y-66545765D01*
X84045671Y-66554030D01*
X84067850Y-66564520D01*
X84088893Y-66577132D01*
X84108599Y-66591747D01*
X84126777Y-66608223D01*
X84143253Y-66626401D01*
X84157868Y-66646107D01*
X84170480Y-66667150D01*
X84180970Y-66689329D01*
X84189235Y-66712428D01*
X84195196Y-66736227D01*
X84198796Y-66760495D01*
X84200000Y-66784999D01*
X84200000Y-67435001D01*
X84198796Y-67459505D01*
X84195196Y-67483773D01*
X84189235Y-67507572D01*
X84180970Y-67530671D01*
X84170480Y-67552850D01*
X84157868Y-67573893D01*
X84143253Y-67593599D01*
X84126777Y-67611777D01*
X84108599Y-67628253D01*
X84088893Y-67642868D01*
X84067850Y-67655480D01*
X84045671Y-67665970D01*
X84022572Y-67674235D01*
X83998773Y-67680196D01*
X83974505Y-67683796D01*
X83950001Y-67685000D01*
X83049999Y-67685000D01*
X83025495Y-67683796D01*
X83001227Y-67680196D01*
X82977428Y-67674235D01*
X82954329Y-67665970D01*
X82932150Y-67655480D01*
X82911107Y-67642868D01*
X82891401Y-67628253D01*
X82873223Y-67611777D01*
X82856747Y-67593599D01*
X82842132Y-67573893D01*
X82829520Y-67552850D01*
X82819030Y-67530671D01*
X82810765Y-67507572D01*
X82804804Y-67483773D01*
X82801204Y-67459505D01*
X82800000Y-67435001D01*
X82800000Y-66784999D01*
X82801204Y-66760495D01*
X82804804Y-66736227D01*
X82810765Y-66712428D01*
X82819030Y-66689329D01*
X82829520Y-66667150D01*
X82842132Y-66646107D01*
X82856747Y-66626401D01*
X82873223Y-66608223D01*
X82891401Y-66591747D01*
X82911107Y-66577132D01*
X82932150Y-66564520D01*
X82954329Y-66554030D01*
X82977428Y-66545765D01*
X83001227Y-66539804D01*
X83025495Y-66536204D01*
X83049999Y-66535000D01*
X83950001Y-66535000D01*
X83974505Y-66536204D01*
X83974505Y-66536204D01*
G37*
D11*
X83500000Y-67110000D03*
G04 #@! TD*
D14*
G04 #@! TO.C,IC1*
X76014000Y-118548000D03*
X75364000Y-118548000D03*
X74714000Y-118548000D03*
X74064000Y-118548000D03*
X74064000Y-114098000D03*
X74714000Y-114098000D03*
X75364000Y-114098000D03*
X76014000Y-114098000D03*
G04 #@! TD*
G04 #@! TO.C,IC2*
X83431000Y-87029000D03*
X82781000Y-87029000D03*
X82131000Y-87029000D03*
X81481000Y-87029000D03*
X81481000Y-82579000D03*
X82131000Y-82579000D03*
X82781000Y-82579000D03*
X83431000Y-82579000D03*
G04 #@! TD*
D15*
G04 #@! TO.C,IC3*
X85331000Y-80136000D03*
X83431000Y-80136000D03*
X83431000Y-77636000D03*
X84381000Y-77636000D03*
X85331000Y-77636000D03*
G04 #@! TD*
D14*
G04 #@! TO.C,IC4*
X77431000Y-87029000D03*
X76781000Y-87029000D03*
X76131000Y-87029000D03*
X75481000Y-87029000D03*
X75481000Y-82579000D03*
X76131000Y-82579000D03*
X76781000Y-82579000D03*
X77431000Y-82579000D03*
G04 #@! TD*
G04 #@! TO.C,IC5*
X66899000Y-87029000D03*
X66249000Y-87029000D03*
X65599000Y-87029000D03*
X64949000Y-87029000D03*
X64949000Y-82579000D03*
X65599000Y-82579000D03*
X66249000Y-82579000D03*
X66899000Y-82579000D03*
G04 #@! TD*
D15*
G04 #@! TO.C,IC6*
X68799000Y-80136000D03*
X66899000Y-80136000D03*
X66899000Y-77636000D03*
X67849000Y-77636000D03*
X68799000Y-77636000D03*
G04 #@! TD*
D14*
G04 #@! TO.C,IC7*
X60899000Y-87029000D03*
X60249000Y-87029000D03*
X59599000Y-87029000D03*
X58949000Y-87029000D03*
X58949000Y-82579000D03*
X59599000Y-82579000D03*
X60249000Y-82579000D03*
X60899000Y-82579000D03*
G04 #@! TD*
G04 #@! TO.C,IC8*
X66908000Y-106952000D03*
X66258000Y-106952000D03*
X65608000Y-106952000D03*
X64958000Y-106952000D03*
X64958000Y-102502000D03*
X65608000Y-102502000D03*
X66258000Y-102502000D03*
X66908000Y-102502000D03*
G04 #@! TD*
D15*
G04 #@! TO.C,IC9*
X68808000Y-100059000D03*
X66908000Y-100059000D03*
X66908000Y-97559000D03*
X67858000Y-97559000D03*
X68808000Y-97559000D03*
G04 #@! TD*
D14*
G04 #@! TO.C,IC10*
X60908000Y-106952000D03*
X60258000Y-106952000D03*
X59608000Y-106952000D03*
X58958000Y-106952000D03*
X58958000Y-102502000D03*
X59608000Y-102502000D03*
X60258000Y-102502000D03*
X60908000Y-102502000D03*
G04 #@! TD*
G04 #@! TO.C,IC11*
X83440000Y-106952000D03*
X82790000Y-106952000D03*
X82140000Y-106952000D03*
X81490000Y-106952000D03*
X81490000Y-102502000D03*
X82140000Y-102502000D03*
X82790000Y-102502000D03*
X83440000Y-102502000D03*
G04 #@! TD*
D15*
G04 #@! TO.C,IC12*
X85340000Y-100059000D03*
X83440000Y-100059000D03*
X83440000Y-97559000D03*
X84390000Y-97559000D03*
X85340000Y-97559000D03*
G04 #@! TD*
D14*
G04 #@! TO.C,IC13*
X77440000Y-106952000D03*
X76790000Y-106952000D03*
X76140000Y-106952000D03*
X75490000Y-106952000D03*
X75490000Y-102502000D03*
X76140000Y-102502000D03*
X76790000Y-102502000D03*
X77440000Y-102502000D03*
G04 #@! TD*
D16*
G04 #@! TO.C,IC14*
X60780000Y-112738000D03*
X60780000Y-114008000D03*
X60780000Y-115278000D03*
X60780000Y-116548000D03*
X66180000Y-116548000D03*
X66180000Y-115278000D03*
X66180000Y-114008000D03*
X66180000Y-112738000D03*
G04 #@! TD*
M02*
