M48
;DRILL file {KiCad (6.0.0-rc1-dev-305-gf0b8b2136)} date 08/01/19 16:32:04
;FORMAT={-:-/ absolute / inch / decimal}
FMAT,2
INCH,TZ
T1C0.0157
T2C0.0449
T3C0.0591
T4C0.1201
%
G90
G05
M72
T1
X2.3192Y-3.6152
X2.3465Y-3.5669
X2.3547Y-3.4862
X2.3865Y-3.6168
X2.4646Y-2.8031
X2.4654Y-4.2764
X2.4739Y-3.6176
X2.4803Y-3.063
X2.4803Y-4.5866
X2.4882Y-4.0079
X2.563Y-3.063
X2.5709Y-3.9724
X2.5787Y-3.815
X2.5825Y-3.3087
X2.583Y-4.0984
X2.5953Y-4.6496
X2.6063Y-3.7047
X2.6453Y-2.9685
X2.8162Y-3.6226
X2.8386Y-4.4331
X2.8394Y-3.644
X2.8594Y-3.6746
X2.9724Y-2.7402
X3.0787Y-4.2756
X3.126Y-3.4646
X3.1299Y-3.0866
X3.1299Y-4.0079
X3.1457Y-2.7047
X3.1732Y-2.7283
X3.2008Y-3.7559
X3.2047Y-3.6299
X3.2087Y-3.9646
X3.2244Y-3.0512
X3.2339Y-3.3125
X3.2339Y-4.1028
X3.2339Y-4.4154
X3.2638Y-4.315
X3.2638Y-3.6142
X3.2886Y-4.0937
X3.337Y-4.2709
X3.3382Y-2.974
X3.3661Y-3.4693
T2
X2.4059Y-2.465
X2.4059Y-2.565
X2.5059Y-2.465
X2.5059Y-2.565
X2.6059Y-2.465
X2.6059Y-2.565
X2.7059Y-2.465
X2.7059Y-2.565
X2.8059Y-2.465
X2.8059Y-2.565
X2.9059Y-2.465
X2.9059Y-2.565
X3.0059Y-2.465
X3.0059Y-2.565
X3.1059Y-2.465
X3.1059Y-2.565
T3
X2.4429Y-4.8051
X3.0689Y-4.8051
T4
X2.264Y-4.8051
X3.2478Y-4.8051
T0
M30
