G04 #@! TF.GenerationSoftware,KiCad,Pcbnew,(6.0.0-rc1-dev-305-gf0b8b2136)*
G04 #@! TF.CreationDate,2019-08-01T16:32:06-06:00*
G04 #@! TF.ProjectId,Slush01,536C75736830312E6B696361645F7063,rev?*
G04 #@! TF.SameCoordinates,Original*
G04 #@! TF.FileFunction,Legend,Top*
G04 #@! TF.FilePolarity,Positive*
%FSLAX46Y46*%
G04 Gerber Fmt 4.6, Leading zero omitted, Abs format (unit mm)*
G04 Created by KiCad (PCBNEW (6.0.0-rc1-dev-305-gf0b8b2136)) date 08/01/19 16:32:06*
%MOMM*%
%LPD*%
G01*
G04 APERTURE LIST*
%ADD10C,0.150000*%
%ADD11C,0.300000*%
%ADD12C,0.500000*%
%ADD13C,0.100000*%
%ADD14C,0.120000*%
%ADD15C,0.050000*%
%ADD16C,0.200000*%
G04 APERTURE END LIST*
D10*
X67083809Y-94596666D02*
X67560000Y-94596666D01*
X66988571Y-94882380D02*
X67321904Y-93882380D01*
X67655238Y-94882380D01*
X68417142Y-94215714D02*
X68417142Y-94882380D01*
X67988571Y-94215714D02*
X67988571Y-94739523D01*
X68036190Y-94834761D01*
X68131428Y-94882380D01*
X68274285Y-94882380D01*
X68369523Y-94834761D01*
X68417142Y-94787142D01*
X69321904Y-94215714D02*
X69321904Y-95025238D01*
X69274285Y-95120476D01*
X69226666Y-95168095D01*
X69131428Y-95215714D01*
X68988571Y-95215714D01*
X68893333Y-95168095D01*
X69321904Y-94834761D02*
X69226666Y-94882380D01*
X69036190Y-94882380D01*
X68940952Y-94834761D01*
X68893333Y-94787142D01*
X68845714Y-94691904D01*
X68845714Y-94406190D01*
X68893333Y-94310952D01*
X68940952Y-94263333D01*
X69036190Y-94215714D01*
X69226666Y-94215714D01*
X69321904Y-94263333D01*
X71083809Y-94882380D02*
X70512380Y-94882380D01*
X70798095Y-94882380D02*
X70798095Y-93882380D01*
X70702857Y-94025238D01*
X70607619Y-94120476D01*
X70512380Y-94168095D01*
X71560000Y-94882380D02*
X71750476Y-94882380D01*
X71845714Y-94834761D01*
X71893333Y-94787142D01*
X71988571Y-94644285D01*
X72036190Y-94453809D01*
X72036190Y-94072857D01*
X71988571Y-93977619D01*
X71940952Y-93930000D01*
X71845714Y-93882380D01*
X71655238Y-93882380D01*
X71560000Y-93930000D01*
X71512380Y-93977619D01*
X71464761Y-94072857D01*
X71464761Y-94310952D01*
X71512380Y-94406190D01*
X71560000Y-94453809D01*
X71655238Y-94501428D01*
X71845714Y-94501428D01*
X71940952Y-94453809D01*
X71988571Y-94406190D01*
X72036190Y-94310952D01*
X65563333Y-93502380D02*
X65563333Y-92502380D01*
X65801428Y-92502380D01*
X65944285Y-92550000D01*
X66039523Y-92645238D01*
X66087142Y-92740476D01*
X66134761Y-92930952D01*
X66134761Y-93073809D01*
X66087142Y-93264285D01*
X66039523Y-93359523D01*
X65944285Y-93454761D01*
X65801428Y-93502380D01*
X65563333Y-93502380D01*
X66468095Y-92835714D02*
X66706190Y-93502380D01*
X66944285Y-92835714D02*
X66706190Y-93502380D01*
X66610952Y-93740476D01*
X66563333Y-93788095D01*
X66468095Y-93835714D01*
X67468095Y-93502380D02*
X67372857Y-93454761D01*
X67325238Y-93359523D01*
X67325238Y-92502380D01*
X68277619Y-93502380D02*
X68277619Y-92978571D01*
X68230000Y-92883333D01*
X68134761Y-92835714D01*
X67944285Y-92835714D01*
X67849047Y-92883333D01*
X68277619Y-93454761D02*
X68182380Y-93502380D01*
X67944285Y-93502380D01*
X67849047Y-93454761D01*
X67801428Y-93359523D01*
X67801428Y-93264285D01*
X67849047Y-93169047D01*
X67944285Y-93121428D01*
X68182380Y-93121428D01*
X68277619Y-93073809D01*
X68753809Y-92835714D02*
X68753809Y-93502380D01*
X68753809Y-92930952D02*
X68801428Y-92883333D01*
X68896666Y-92835714D01*
X69039523Y-92835714D01*
X69134761Y-92883333D01*
X69182380Y-92978571D01*
X69182380Y-93502380D01*
X70610952Y-92502380D02*
X70801428Y-92502380D01*
X70896666Y-92550000D01*
X70991904Y-92645238D01*
X71039523Y-92835714D01*
X71039523Y-93169047D01*
X70991904Y-93359523D01*
X70896666Y-93454761D01*
X70801428Y-93502380D01*
X70610952Y-93502380D01*
X70515714Y-93454761D01*
X70420476Y-93359523D01*
X70372857Y-93169047D01*
X70372857Y-92835714D01*
X70420476Y-92645238D01*
X70515714Y-92550000D01*
X70610952Y-92502380D01*
X71468095Y-93502380D02*
X71468095Y-92502380D01*
X71896666Y-93502380D02*
X71896666Y-92978571D01*
X71849047Y-92883333D01*
X71753809Y-92835714D01*
X71610952Y-92835714D01*
X71515714Y-92883333D01*
X71468095Y-92930952D01*
D11*
X64872886Y-91679523D02*
X65146696Y-91774761D01*
X65622886Y-91774761D01*
X65825267Y-91679523D01*
X65932410Y-91584285D01*
X66051458Y-91393809D01*
X66075267Y-91203333D01*
X66003839Y-91012857D01*
X65920505Y-90917619D01*
X65741934Y-90822380D01*
X65372886Y-90727142D01*
X65194315Y-90631904D01*
X65110982Y-90536666D01*
X65039553Y-90346190D01*
X65063363Y-90155714D01*
X65182410Y-89965238D01*
X65289553Y-89870000D01*
X65491934Y-89774761D01*
X65968125Y-89774761D01*
X66241934Y-89870000D01*
X67146696Y-91774761D02*
X66968125Y-91679523D01*
X66896696Y-91489047D01*
X67110982Y-89774761D01*
X68932410Y-90441428D02*
X68765744Y-91774761D01*
X68075267Y-90441428D02*
X67944315Y-91489047D01*
X68015744Y-91679523D01*
X68194315Y-91774761D01*
X68480029Y-91774761D01*
X68682410Y-91679523D01*
X68789553Y-91584285D01*
X69634791Y-91679523D02*
X69813363Y-91774761D01*
X70194315Y-91774761D01*
X70396696Y-91679523D01*
X70515744Y-91489047D01*
X70527648Y-91393809D01*
X70456220Y-91203333D01*
X70277648Y-91108095D01*
X69991934Y-91108095D01*
X69813363Y-91012857D01*
X69741934Y-90822380D01*
X69753839Y-90727142D01*
X69872886Y-90536666D01*
X70075267Y-90441428D01*
X70360982Y-90441428D01*
X70539553Y-90536666D01*
X71337172Y-91774761D02*
X71587172Y-89774761D01*
X72194315Y-91774761D02*
X72325267Y-90727142D01*
X72253839Y-90536666D01*
X72075267Y-90441428D01*
X71789553Y-90441428D01*
X71587172Y-90536666D01*
X71480029Y-90631904D01*
X73777648Y-89774761D02*
X73968125Y-89774761D01*
X74146696Y-89870000D01*
X74230029Y-89965238D01*
X74301458Y-90155714D01*
X74349077Y-90536666D01*
X74289553Y-91012857D01*
X74146696Y-91393809D01*
X74027648Y-91584285D01*
X73920505Y-91679523D01*
X73718125Y-91774761D01*
X73527648Y-91774761D01*
X73349077Y-91679523D01*
X73265744Y-91584285D01*
X73194315Y-91393809D01*
X73146696Y-91012857D01*
X73206220Y-90536666D01*
X73349077Y-90155714D01*
X73468125Y-89965238D01*
X73575267Y-89870000D01*
X73777648Y-89774761D01*
X76099077Y-91774761D02*
X74956220Y-91774761D01*
X75527648Y-91774761D02*
X75777648Y-89774761D01*
X75551458Y-90060476D01*
X75337172Y-90250952D01*
X75134791Y-90346190D01*
D10*
X80966666Y-64602380D02*
X81300000Y-65602380D01*
X81633333Y-64602380D01*
X81300000Y-63062380D02*
X81300000Y-62062380D01*
X59840000Y-65160000D02*
X59840000Y-70540000D01*
X80180000Y-65150000D02*
X80180000Y-70530000D01*
X64920000Y-65140000D02*
X64920000Y-70520000D01*
X70010000Y-65160000D02*
X70010000Y-70540000D01*
X75080000Y-65150000D02*
X75080000Y-70530000D01*
D12*
X87000000Y-70500000D02*
X53000000Y-70500000D01*
D10*
X76531919Y-69477142D02*
X76478348Y-69524761D01*
X76329538Y-69572380D01*
X76234300Y-69572380D01*
X76097395Y-69524761D01*
X76014062Y-69429523D01*
X75978348Y-69334285D01*
X75954538Y-69143809D01*
X75972395Y-69000952D01*
X76043824Y-68810476D01*
X76103348Y-68715238D01*
X76210491Y-68620000D01*
X76359300Y-68572380D01*
X76454538Y-68572380D01*
X76591443Y-68620000D01*
X76633110Y-68667619D01*
X76948586Y-69572380D02*
X77073586Y-68572380D01*
X77377157Y-69572380D02*
X77442633Y-69048571D01*
X77406919Y-68953333D01*
X77317633Y-68905714D01*
X77174776Y-68905714D01*
X77073586Y-68953333D01*
X77020014Y-69000952D01*
X78930729Y-68572380D02*
X79025967Y-68572380D01*
X79115252Y-68620000D01*
X79156919Y-68667619D01*
X79192633Y-68762857D01*
X79216443Y-68953333D01*
X79186681Y-69191428D01*
X79115252Y-69381904D01*
X79055729Y-69477142D01*
X79002157Y-69524761D01*
X78900967Y-69572380D01*
X78805729Y-69572380D01*
X78716443Y-69524761D01*
X78674776Y-69477142D01*
X78639062Y-69381904D01*
X78615252Y-69191428D01*
X78645014Y-68953333D01*
X78716443Y-68762857D01*
X78775967Y-68667619D01*
X78829538Y-68620000D01*
X78930729Y-68572380D01*
X71451919Y-69477142D02*
X71398348Y-69524761D01*
X71249538Y-69572380D01*
X71154300Y-69572380D01*
X71017395Y-69524761D01*
X70934062Y-69429523D01*
X70898348Y-69334285D01*
X70874538Y-69143809D01*
X70892395Y-69000952D01*
X70963824Y-68810476D01*
X71023348Y-68715238D01*
X71130491Y-68620000D01*
X71279300Y-68572380D01*
X71374538Y-68572380D01*
X71511443Y-68620000D01*
X71553110Y-68667619D01*
X71868586Y-69572380D02*
X71993586Y-68572380D01*
X72297157Y-69572380D02*
X72362633Y-69048571D01*
X72326919Y-68953333D01*
X72237633Y-68905714D01*
X72094776Y-68905714D01*
X71993586Y-68953333D01*
X71940014Y-69000952D01*
X74059062Y-69572380D02*
X73487633Y-69572380D01*
X73773348Y-69572380D02*
X73898348Y-68572380D01*
X73785252Y-68715238D01*
X73678110Y-68810476D01*
X73576919Y-68858095D01*
X66371919Y-69477142D02*
X66318348Y-69524761D01*
X66169538Y-69572380D01*
X66074300Y-69572380D01*
X65937395Y-69524761D01*
X65854062Y-69429523D01*
X65818348Y-69334285D01*
X65794538Y-69143809D01*
X65812395Y-69000952D01*
X65883824Y-68810476D01*
X65943348Y-68715238D01*
X66050491Y-68620000D01*
X66199300Y-68572380D01*
X66294538Y-68572380D01*
X66431443Y-68620000D01*
X66473110Y-68667619D01*
X66788586Y-69572380D02*
X66913586Y-68572380D01*
X67217157Y-69572380D02*
X67282633Y-69048571D01*
X67246919Y-68953333D01*
X67157633Y-68905714D01*
X67014776Y-68905714D01*
X66913586Y-68953333D01*
X66860014Y-69000952D01*
X68520729Y-68667619D02*
X68574300Y-68620000D01*
X68675491Y-68572380D01*
X68913586Y-68572380D01*
X69002872Y-68620000D01*
X69044538Y-68667619D01*
X69080252Y-68762857D01*
X69068348Y-68858095D01*
X69002872Y-69000952D01*
X68360014Y-69572380D01*
X68979062Y-69572380D01*
X61291919Y-69477142D02*
X61238348Y-69524761D01*
X61089538Y-69572380D01*
X60994300Y-69572380D01*
X60857395Y-69524761D01*
X60774062Y-69429523D01*
X60738348Y-69334285D01*
X60714538Y-69143809D01*
X60732395Y-69000952D01*
X60803824Y-68810476D01*
X60863348Y-68715238D01*
X60970491Y-68620000D01*
X61119300Y-68572380D01*
X61214538Y-68572380D01*
X61351443Y-68620000D01*
X61393110Y-68667619D01*
X61708586Y-69572380D02*
X61833586Y-68572380D01*
X62137157Y-69572380D02*
X62202633Y-69048571D01*
X62166919Y-68953333D01*
X62077633Y-68905714D01*
X61934776Y-68905714D01*
X61833586Y-68953333D01*
X61780014Y-69000952D01*
X63405014Y-68572380D02*
X64024062Y-68572380D01*
X63643110Y-68953333D01*
X63785967Y-68953333D01*
X63875252Y-69000952D01*
X63916919Y-69048571D01*
X63952633Y-69143809D01*
X63922872Y-69381904D01*
X63863348Y-69477142D01*
X63809776Y-69524761D01*
X63708586Y-69572380D01*
X63422872Y-69572380D01*
X63333586Y-69524761D01*
X63291919Y-69477142D01*
D13*
X78636031Y-67267619D02*
X79143968Y-67267619D01*
X78890000Y-67521587D02*
X78890000Y-67013650D01*
X73556031Y-67267619D02*
X74063968Y-67267619D01*
X73810000Y-67521587D02*
X73810000Y-67013650D01*
X68476031Y-67267619D02*
X68983968Y-67267619D01*
X68730000Y-67521587D02*
X68730000Y-67013650D01*
X76096031Y-67267619D02*
X76603968Y-67267619D01*
X71016031Y-67267619D02*
X71523968Y-67267619D01*
X65936031Y-67267619D02*
X66443968Y-67267619D01*
X60856031Y-67267619D02*
X61363968Y-67267619D01*
X63396031Y-67267619D02*
X63903968Y-67267619D01*
X63650000Y-67521587D02*
X63650000Y-67013650D01*
D14*
G04 #@! TO.C,R13*
X59609000Y-74662252D02*
X59609000Y-74139748D01*
X58189000Y-74662252D02*
X58189000Y-74139748D01*
G04 #@! TO.C,R12*
X61659000Y-74662252D02*
X61659000Y-74139748D01*
X60239000Y-74662252D02*
X60239000Y-74139748D01*
G04 #@! TO.C,C17*
X57615000Y-84792252D02*
X57615000Y-84269748D01*
X56195000Y-84792252D02*
X56195000Y-84269748D01*
G04 #@! TO.C,R11*
X63709000Y-74662252D02*
X63709000Y-74139748D01*
X62289000Y-74662252D02*
X62289000Y-74139748D01*
G04 #@! TO.C,C18*
X55544000Y-86603500D02*
X55544000Y-82518500D01*
X53674000Y-86603500D02*
X55544000Y-86603500D01*
X53674000Y-82518500D02*
X53674000Y-86603500D01*
G04 #@! TO.C,R7*
X80241000Y-74662252D02*
X80241000Y-74139748D01*
X78821000Y-74662252D02*
X78821000Y-74139748D01*
G04 #@! TO.C,C11*
X72076000Y-86603500D02*
X72076000Y-82518500D01*
X70206000Y-86603500D02*
X72076000Y-86603500D01*
X70206000Y-82518500D02*
X70206000Y-86603500D01*
G04 #@! TO.C,R8*
X78191000Y-74662252D02*
X78191000Y-74139748D01*
X76771000Y-74662252D02*
X76771000Y-74139748D01*
G04 #@! TO.C,C7*
X78767252Y-79400000D02*
X78244748Y-79400000D01*
X78767252Y-80820000D02*
X78244748Y-80820000D01*
G04 #@! TO.C,C8*
X76717252Y-77104791D02*
X76194748Y-77104791D01*
X76717252Y-78524791D02*
X76194748Y-78524791D01*
G04 #@! TO.C,R9*
X76141000Y-74662252D02*
X76141000Y-74139748D01*
X74721000Y-74662252D02*
X74721000Y-74139748D01*
G04 #@! TO.C,C10*
X74147000Y-84792252D02*
X74147000Y-84269748D01*
X72727000Y-84792252D02*
X72727000Y-84269748D01*
G04 #@! TO.C,C5*
X80166000Y-84792252D02*
X80166000Y-84269748D01*
X78746000Y-84792252D02*
X78746000Y-84269748D01*
G04 #@! TO.C,C6*
X86166000Y-84792252D02*
X86166000Y-84269748D01*
X84746000Y-84792252D02*
X84746000Y-84269748D01*
G04 #@! TO.C,C9*
X74667252Y-79400000D02*
X74144748Y-79400000D01*
X74667252Y-80820000D02*
X74144748Y-80820000D01*
G04 #@! TO.C,C13*
X69634000Y-84792252D02*
X69634000Y-84269748D01*
X68214000Y-84792252D02*
X68214000Y-84269748D01*
G04 #@! TO.C,C12*
X63634000Y-84792252D02*
X63634000Y-84269748D01*
X62214000Y-84792252D02*
X62214000Y-84269748D01*
G04 #@! TO.C,C16*
X58135252Y-79400000D02*
X57612748Y-79400000D01*
X58135252Y-80820000D02*
X57612748Y-80820000D01*
G04 #@! TO.C,C15*
X60185252Y-77104791D02*
X59662748Y-77104791D01*
X60185252Y-78524791D02*
X59662748Y-78524791D01*
G04 #@! TO.C,C14*
X62235252Y-79400000D02*
X61712748Y-79400000D01*
X62235252Y-80820000D02*
X61712748Y-80820000D01*
G04 #@! TO.C,C28*
X78776252Y-99323000D02*
X78253748Y-99323000D01*
X78776252Y-100743000D02*
X78253748Y-100743000D01*
G04 #@! TO.C,R21*
X76150000Y-94585252D02*
X76150000Y-94062748D01*
X74730000Y-94585252D02*
X74730000Y-94062748D01*
G04 #@! TO.C,R20*
X78200000Y-94585252D02*
X78200000Y-94062748D01*
X76780000Y-94585252D02*
X76780000Y-94062748D01*
G04 #@! TO.C,C31*
X74156000Y-104715252D02*
X74156000Y-104192748D01*
X72736000Y-104715252D02*
X72736000Y-104192748D01*
G04 #@! TO.C,R19*
X80250000Y-94585252D02*
X80250000Y-94062748D01*
X78830000Y-94585252D02*
X78830000Y-94062748D01*
G04 #@! TO.C,C32*
X72085000Y-106526500D02*
X72085000Y-102441500D01*
X70215000Y-106526500D02*
X72085000Y-106526500D01*
X70215000Y-102441500D02*
X70215000Y-106526500D01*
G04 #@! TO.C,C27*
X86175000Y-104715252D02*
X86175000Y-104192748D01*
X84755000Y-104715252D02*
X84755000Y-104192748D01*
G04 #@! TO.C,C26*
X80175000Y-104715252D02*
X80175000Y-104192748D01*
X78755000Y-104715252D02*
X78755000Y-104192748D01*
G04 #@! TO.C,C30*
X74676252Y-99323000D02*
X74153748Y-99323000D01*
X74676252Y-100743000D02*
X74153748Y-100743000D01*
G04 #@! TO.C,C29*
X76726252Y-97027791D02*
X76203748Y-97027791D01*
X76726252Y-98447791D02*
X76203748Y-98447791D01*
D15*
G04 #@! TO.C,J1*
X54589252Y-125054380D02*
X54589252Y-121155081D01*
X74555000Y-122753150D02*
X75140000Y-122753150D01*
X73170000Y-122753156D02*
X73755000Y-122753156D01*
X69015000Y-122753156D02*
X69600000Y-122753156D01*
X67630000Y-122753156D02*
X68215000Y-122753156D01*
X76323040Y-125054380D02*
X76323040Y-122753150D01*
X63666305Y-125054380D02*
X63666305Y-122753150D01*
X78911918Y-125054380D02*
X78911918Y-122753150D01*
X63005768Y-125054380D02*
X63005768Y-122753150D01*
X70985000Y-122753150D02*
X70400000Y-122753150D01*
X72370000Y-122753150D02*
X71785000Y-122753150D01*
X61088081Y-125054380D02*
X61088081Y-122753150D01*
X76994231Y-125054380D02*
X76994231Y-122753150D01*
X66830000Y-122753150D02*
X66245000Y-122753150D01*
X65445000Y-122753150D02*
X64860000Y-122753150D01*
X85410748Y-125054380D02*
X85410748Y-121155079D01*
X54589252Y-125054380D02*
X85410747Y-125054380D01*
X54589252Y-121155073D02*
X85410748Y-121155073D01*
X63005768Y-122753150D02*
X64060000Y-122753150D01*
X75940000Y-122753150D02*
X76994231Y-122753150D01*
D14*
G04 #@! TO.C,C1*
X67470000Y-113501748D02*
X67470000Y-114024252D01*
X68890000Y-113501748D02*
X68890000Y-114024252D01*
G04 #@! TO.C,C2*
X58070000Y-113501748D02*
X58070000Y-114024252D01*
X59490000Y-113501748D02*
X59490000Y-114024252D01*
G04 #@! TO.C,C3*
X77214000Y-114861748D02*
X77214000Y-115384252D01*
X78634000Y-114861748D02*
X78634000Y-115384252D01*
G04 #@! TO.C,C4*
X72807000Y-115384252D02*
X72807000Y-114861748D01*
X71387000Y-115384252D02*
X71387000Y-114861748D01*
G04 #@! TO.C,C19*
X63643000Y-104715252D02*
X63643000Y-104192748D01*
X62223000Y-104715252D02*
X62223000Y-104192748D01*
G04 #@! TO.C,C20*
X69643000Y-104715252D02*
X69643000Y-104192748D01*
X68223000Y-104715252D02*
X68223000Y-104192748D01*
G04 #@! TO.C,C21*
X62244252Y-99323000D02*
X61721748Y-99323000D01*
X62244252Y-100743000D02*
X61721748Y-100743000D01*
G04 #@! TO.C,C22*
X60194252Y-97027791D02*
X59671748Y-97027791D01*
X60194252Y-98447791D02*
X59671748Y-98447791D01*
G04 #@! TO.C,C23*
X58144252Y-99323000D02*
X57621748Y-99323000D01*
X58144252Y-100743000D02*
X57621748Y-100743000D01*
G04 #@! TO.C,C24*
X57624000Y-104715252D02*
X57624000Y-104192748D01*
X56204000Y-104715252D02*
X56204000Y-104192748D01*
G04 #@! TO.C,C25*
X55553000Y-106526500D02*
X55553000Y-102441500D01*
X53683000Y-106526500D02*
X55553000Y-106526500D01*
X53683000Y-102441500D02*
X53683000Y-106526500D01*
G04 #@! TO.C,L1*
X79849252Y-89334000D02*
X79326748Y-89334000D01*
X79849252Y-90754000D02*
X79326748Y-90754000D01*
G04 #@! TO.C,L2*
X63178252Y-89334000D02*
X62655748Y-89334000D01*
X63178252Y-90754000D02*
X62655748Y-90754000D01*
G04 #@! TO.C,L3*
X63339252Y-109577000D02*
X62816748Y-109577000D01*
X63339252Y-110997000D02*
X62816748Y-110997000D01*
G04 #@! TO.C,L4*
X79871252Y-109577000D02*
X79348748Y-109577000D01*
X79871252Y-110997000D02*
X79348748Y-110997000D01*
G04 #@! TO.C,R1*
X78672748Y-119258000D02*
X79195252Y-119258000D01*
X78672748Y-117838000D02*
X79195252Y-117838000D01*
G04 #@! TO.C,R2*
X79254000Y-114861748D02*
X79254000Y-115384252D01*
X80674000Y-114861748D02*
X80674000Y-115384252D01*
G04 #@! TO.C,R10*
X53790000Y-67873748D02*
X53790000Y-68396252D01*
X55210000Y-67873748D02*
X55210000Y-68396252D01*
G04 #@! TO.C,R14*
X55790000Y-67873748D02*
X55790000Y-68396252D01*
X57210000Y-67873748D02*
X57210000Y-68396252D01*
G04 #@! TO.C,R15*
X63718000Y-94585252D02*
X63718000Y-94062748D01*
X62298000Y-94585252D02*
X62298000Y-94062748D01*
G04 #@! TO.C,R16*
X61668000Y-94585252D02*
X61668000Y-94062748D01*
X60248000Y-94585252D02*
X60248000Y-94062748D01*
G04 #@! TO.C,R17*
X59618000Y-94585252D02*
X59618000Y-94062748D01*
X58198000Y-94585252D02*
X58198000Y-94062748D01*
G04 #@! TO.C,R18*
X84790000Y-67873748D02*
X84790000Y-68396252D01*
X86210000Y-67873748D02*
X86210000Y-68396252D01*
G04 #@! TO.C,R22*
X82790000Y-67873748D02*
X82790000Y-68396252D01*
X84210000Y-67873748D02*
X84210000Y-68396252D01*
D15*
G04 #@! TO.C,J2*
X80033000Y-58038000D02*
X59967000Y-58038000D01*
X69047706Y-59689037D02*
X69047706Y-65150000D01*
X68391544Y-65150000D02*
X68391544Y-59689037D01*
X69873201Y-59054042D02*
X59966799Y-59054042D01*
X61872256Y-59689037D02*
X60348267Y-59689037D01*
X63332746Y-65150000D02*
X63967741Y-65150000D01*
X59967270Y-59054042D02*
X60348267Y-59689037D01*
X69471037Y-59689037D02*
X69873201Y-59054042D01*
X59966799Y-58038049D02*
X59966799Y-59054042D01*
X65872728Y-59689037D02*
X65872728Y-65150000D01*
X65047234Y-59054042D02*
X65428231Y-59689037D01*
X60792764Y-59689037D02*
X60792764Y-65150000D01*
X70148366Y-59054042D02*
X69873201Y-59054042D01*
X80033201Y-59054042D02*
X70126799Y-59054042D01*
X76667724Y-65150000D02*
X76667724Y-59689037D01*
X78128214Y-59689037D02*
X79631037Y-59689037D01*
X80033201Y-58038049D02*
X80033201Y-59054042D01*
X72667252Y-59054042D02*
X73027082Y-59689037D01*
X77091054Y-59689037D02*
X75588231Y-59689037D01*
X74572238Y-59689037D02*
X73027082Y-59689037D01*
X72392087Y-59054042D02*
X72032256Y-59689037D01*
X77472052Y-59054042D02*
X77091054Y-59689037D01*
X77747216Y-59054042D02*
X78128214Y-59689037D01*
X71587759Y-65150000D02*
X71587759Y-59689037D01*
X78551544Y-65150000D02*
X78551544Y-59689037D01*
X67968214Y-59689037D02*
X69471037Y-59689037D01*
X65872728Y-65150000D02*
X66507724Y-65150000D01*
X66931054Y-59689037D02*
X65428231Y-59689037D01*
X76032728Y-59689037D02*
X76032728Y-65150000D01*
X64412238Y-59689037D02*
X62867082Y-59689037D01*
X61427759Y-65150000D02*
X61427759Y-59689037D01*
X75207234Y-59054042D02*
X75588231Y-59689037D01*
X62232087Y-59054042D02*
X61872256Y-59689037D01*
X60792764Y-65150000D02*
X61427759Y-65150000D01*
X67587216Y-59054042D02*
X67968214Y-59689037D01*
X70952764Y-65150000D02*
X71587759Y-65150000D01*
X73492746Y-65150000D02*
X74127741Y-65150000D01*
X74932069Y-59054042D02*
X74572238Y-59689037D01*
X63967741Y-65150000D02*
X63967741Y-59689037D01*
X62507252Y-59054042D02*
X62867082Y-59689037D01*
X66507724Y-65150000D02*
X66507724Y-59689037D01*
X63332746Y-59689037D02*
X63332746Y-65150000D01*
X68391544Y-65150000D02*
X69047706Y-65150000D01*
X67312052Y-59054042D02*
X66931054Y-59689037D01*
X72032256Y-59689037D02*
X70508267Y-59689037D01*
X64772069Y-59054042D02*
X64412238Y-59689037D01*
X79207706Y-59689037D02*
X79207706Y-65150000D01*
X76032728Y-65150000D02*
X76667724Y-65150000D01*
X78551544Y-65150000D02*
X79207706Y-65150000D01*
X73492746Y-59689037D02*
X73492746Y-65150000D01*
X79631037Y-59689037D02*
X80033201Y-59054042D01*
X70952764Y-59689037D02*
X70952764Y-65150000D01*
X74127741Y-65150000D02*
X74127741Y-59689037D01*
X70127270Y-59054042D02*
X70508267Y-59689037D01*
D16*
G04 #@! TO.C,IC1*
X76589000Y-113373000D02*
X76589000Y-114823000D01*
X73539000Y-115173000D02*
X76539000Y-115173000D01*
X73539000Y-117473000D02*
X73539000Y-115173000D01*
X76539000Y-117473000D02*
X73539000Y-117473000D01*
X76539000Y-115173000D02*
X76539000Y-117473000D01*
G04 #@! TO.C,IC2*
X84006000Y-81854000D02*
X84006000Y-83304000D01*
X80956000Y-83654000D02*
X83956000Y-83654000D01*
X80956000Y-85954000D02*
X80956000Y-83654000D01*
X83956000Y-85954000D02*
X80956000Y-85954000D01*
X83956000Y-83654000D02*
X83956000Y-85954000D01*
G04 #@! TO.C,IC3*
X85881000Y-77061000D02*
X85881000Y-78211000D01*
X82931000Y-78561000D02*
X85831000Y-78561000D01*
X82931000Y-79211000D02*
X82931000Y-78561000D01*
X85831000Y-79211000D02*
X82931000Y-79211000D01*
X85831000Y-78561000D02*
X85831000Y-79211000D01*
G04 #@! TO.C,IC4*
X78006000Y-81854000D02*
X78006000Y-83304000D01*
X74956000Y-83654000D02*
X77956000Y-83654000D01*
X74956000Y-85954000D02*
X74956000Y-83654000D01*
X77956000Y-85954000D02*
X74956000Y-85954000D01*
X77956000Y-83654000D02*
X77956000Y-85954000D01*
G04 #@! TO.C,IC5*
X67474000Y-81854000D02*
X67474000Y-83304000D01*
X64424000Y-83654000D02*
X67424000Y-83654000D01*
X64424000Y-85954000D02*
X64424000Y-83654000D01*
X67424000Y-85954000D02*
X64424000Y-85954000D01*
X67424000Y-83654000D02*
X67424000Y-85954000D01*
G04 #@! TO.C,IC6*
X69349000Y-77061000D02*
X69349000Y-78211000D01*
X66399000Y-78561000D02*
X69299000Y-78561000D01*
X66399000Y-79211000D02*
X66399000Y-78561000D01*
X69299000Y-79211000D02*
X66399000Y-79211000D01*
X69299000Y-78561000D02*
X69299000Y-79211000D01*
G04 #@! TO.C,IC7*
X61474000Y-81854000D02*
X61474000Y-83304000D01*
X58424000Y-83654000D02*
X61424000Y-83654000D01*
X58424000Y-85954000D02*
X58424000Y-83654000D01*
X61424000Y-85954000D02*
X58424000Y-85954000D01*
X61424000Y-83654000D02*
X61424000Y-85954000D01*
G04 #@! TO.C,IC8*
X67483000Y-101777000D02*
X67483000Y-103227000D01*
X64433000Y-103577000D02*
X67433000Y-103577000D01*
X64433000Y-105877000D02*
X64433000Y-103577000D01*
X67433000Y-105877000D02*
X64433000Y-105877000D01*
X67433000Y-103577000D02*
X67433000Y-105877000D01*
G04 #@! TO.C,IC9*
X69358000Y-96984000D02*
X69358000Y-98134000D01*
X66408000Y-98484000D02*
X69308000Y-98484000D01*
X66408000Y-99134000D02*
X66408000Y-98484000D01*
X69308000Y-99134000D02*
X66408000Y-99134000D01*
X69308000Y-98484000D02*
X69308000Y-99134000D01*
G04 #@! TO.C,IC10*
X61483000Y-101777000D02*
X61483000Y-103227000D01*
X58433000Y-103577000D02*
X61433000Y-103577000D01*
X58433000Y-105877000D02*
X58433000Y-103577000D01*
X61433000Y-105877000D02*
X58433000Y-105877000D01*
X61433000Y-103577000D02*
X61433000Y-105877000D01*
G04 #@! TO.C,IC11*
X84015000Y-101777000D02*
X84015000Y-103227000D01*
X80965000Y-103577000D02*
X83965000Y-103577000D01*
X80965000Y-105877000D02*
X80965000Y-103577000D01*
X83965000Y-105877000D02*
X80965000Y-105877000D01*
X83965000Y-103577000D02*
X83965000Y-105877000D01*
G04 #@! TO.C,IC12*
X85890000Y-96984000D02*
X85890000Y-98134000D01*
X82940000Y-98484000D02*
X85840000Y-98484000D01*
X82940000Y-99134000D02*
X82940000Y-98484000D01*
X85840000Y-99134000D02*
X82940000Y-99134000D01*
X85840000Y-98484000D02*
X85840000Y-99134000D01*
G04 #@! TO.C,IC13*
X78015000Y-101777000D02*
X78015000Y-103227000D01*
X74965000Y-103577000D02*
X77965000Y-103577000D01*
X74965000Y-105877000D02*
X74965000Y-103577000D01*
X77965000Y-105877000D02*
X74965000Y-105877000D01*
X77965000Y-103577000D02*
X77965000Y-105877000D01*
D10*
G04 #@! TO.C,IC14*
X61405000Y-112068000D02*
X61405000Y-112118000D01*
X65555000Y-112068000D02*
X65555000Y-112213000D01*
X65555000Y-117218000D02*
X65555000Y-117073000D01*
X61405000Y-117218000D02*
X61405000Y-117073000D01*
X61405000Y-112068000D02*
X65555000Y-112068000D01*
X61405000Y-117218000D02*
X65555000Y-117218000D01*
X61405000Y-112118000D02*
X60005000Y-112118000D01*
G04 #@! TO.C,R13*
D13*
X57799285Y-74872142D02*
X57442142Y-75122142D01*
X57799285Y-75300714D02*
X57049285Y-75300714D01*
X57049285Y-75015000D01*
X57085000Y-74943571D01*
X57120714Y-74907857D01*
X57192142Y-74872142D01*
X57299285Y-74872142D01*
X57370714Y-74907857D01*
X57406428Y-74943571D01*
X57442142Y-75015000D01*
X57442142Y-75300714D01*
X57799285Y-74157857D02*
X57799285Y-74586428D01*
X57799285Y-74372142D02*
X57049285Y-74372142D01*
X57156428Y-74443571D01*
X57227857Y-74515000D01*
X57263571Y-74586428D01*
X57049285Y-73907857D02*
X57049285Y-73443571D01*
X57335000Y-73693571D01*
X57335000Y-73586428D01*
X57370714Y-73515000D01*
X57406428Y-73479285D01*
X57477857Y-73443571D01*
X57656428Y-73443571D01*
X57727857Y-73479285D01*
X57763571Y-73515000D01*
X57799285Y-73586428D01*
X57799285Y-73800714D01*
X57763571Y-73872142D01*
X57727857Y-73907857D01*
G04 #@! TO.C,R12*
X60487857Y-72349285D02*
X60237857Y-71992142D01*
X60059285Y-72349285D02*
X60059285Y-71599285D01*
X60345000Y-71599285D01*
X60416428Y-71635000D01*
X60452142Y-71670714D01*
X60487857Y-71742142D01*
X60487857Y-71849285D01*
X60452142Y-71920714D01*
X60416428Y-71956428D01*
X60345000Y-71992142D01*
X60059285Y-71992142D01*
X61202142Y-72349285D02*
X60773571Y-72349285D01*
X60987857Y-72349285D02*
X60987857Y-71599285D01*
X60916428Y-71706428D01*
X60845000Y-71777857D01*
X60773571Y-71813571D01*
X61487857Y-71670714D02*
X61523571Y-71635000D01*
X61595000Y-71599285D01*
X61773571Y-71599285D01*
X61845000Y-71635000D01*
X61880714Y-71670714D01*
X61916428Y-71742142D01*
X61916428Y-71813571D01*
X61880714Y-71920714D01*
X61452142Y-72349285D01*
X61916428Y-72349285D01*
G04 #@! TO.C,C17*
X57187857Y-87932142D02*
X57223571Y-87967857D01*
X57259285Y-88075000D01*
X57259285Y-88146428D01*
X57223571Y-88253571D01*
X57152142Y-88325000D01*
X57080714Y-88360714D01*
X56937857Y-88396428D01*
X56830714Y-88396428D01*
X56687857Y-88360714D01*
X56616428Y-88325000D01*
X56545000Y-88253571D01*
X56509285Y-88146428D01*
X56509285Y-88075000D01*
X56545000Y-87967857D01*
X56580714Y-87932142D01*
X57259285Y-87217857D02*
X57259285Y-87646428D01*
X57259285Y-87432142D02*
X56509285Y-87432142D01*
X56616428Y-87503571D01*
X56687857Y-87575000D01*
X56723571Y-87646428D01*
X56509285Y-86967857D02*
X56509285Y-86467857D01*
X57259285Y-86789285D01*
G04 #@! TO.C,R11*
X64839285Y-74872142D02*
X64482142Y-75122142D01*
X64839285Y-75300714D02*
X64089285Y-75300714D01*
X64089285Y-75015000D01*
X64125000Y-74943571D01*
X64160714Y-74907857D01*
X64232142Y-74872142D01*
X64339285Y-74872142D01*
X64410714Y-74907857D01*
X64446428Y-74943571D01*
X64482142Y-75015000D01*
X64482142Y-75300714D01*
X64839285Y-74157857D02*
X64839285Y-74586428D01*
X64839285Y-74372142D02*
X64089285Y-74372142D01*
X64196428Y-74443571D01*
X64267857Y-74515000D01*
X64303571Y-74586428D01*
X64839285Y-73443571D02*
X64839285Y-73872142D01*
X64839285Y-73657857D02*
X64089285Y-73657857D01*
X64196428Y-73729285D01*
X64267857Y-73800714D01*
X64303571Y-73872142D01*
G04 #@! TO.C,C18*
X54867857Y-88292142D02*
X54903571Y-88327857D01*
X54939285Y-88435000D01*
X54939285Y-88506428D01*
X54903571Y-88613571D01*
X54832142Y-88685000D01*
X54760714Y-88720714D01*
X54617857Y-88756428D01*
X54510714Y-88756428D01*
X54367857Y-88720714D01*
X54296428Y-88685000D01*
X54225000Y-88613571D01*
X54189285Y-88506428D01*
X54189285Y-88435000D01*
X54225000Y-88327857D01*
X54260714Y-88292142D01*
X54939285Y-87577857D02*
X54939285Y-88006428D01*
X54939285Y-87792142D02*
X54189285Y-87792142D01*
X54296428Y-87863571D01*
X54367857Y-87935000D01*
X54403571Y-88006428D01*
X54510714Y-87149285D02*
X54475000Y-87220714D01*
X54439285Y-87256428D01*
X54367857Y-87292142D01*
X54332142Y-87292142D01*
X54260714Y-87256428D01*
X54225000Y-87220714D01*
X54189285Y-87149285D01*
X54189285Y-87006428D01*
X54225000Y-86935000D01*
X54260714Y-86899285D01*
X54332142Y-86863571D01*
X54367857Y-86863571D01*
X54439285Y-86899285D01*
X54475000Y-86935000D01*
X54510714Y-87006428D01*
X54510714Y-87149285D01*
X54546428Y-87220714D01*
X54582142Y-87256428D01*
X54653571Y-87292142D01*
X54796428Y-87292142D01*
X54867857Y-87256428D01*
X54903571Y-87220714D01*
X54939285Y-87149285D01*
X54939285Y-87006428D01*
X54903571Y-86935000D01*
X54867857Y-86899285D01*
X54796428Y-86863571D01*
X54653571Y-86863571D01*
X54582142Y-86899285D01*
X54546428Y-86935000D01*
X54510714Y-87006428D01*
G04 #@! TO.C,R7*
X81389285Y-74525000D02*
X81032142Y-74775000D01*
X81389285Y-74953571D02*
X80639285Y-74953571D01*
X80639285Y-74667857D01*
X80675000Y-74596428D01*
X80710714Y-74560714D01*
X80782142Y-74525000D01*
X80889285Y-74525000D01*
X80960714Y-74560714D01*
X80996428Y-74596428D01*
X81032142Y-74667857D01*
X81032142Y-74953571D01*
X80639285Y-74275000D02*
X80639285Y-73775000D01*
X81389285Y-74096428D01*
G04 #@! TO.C,C11*
X71357857Y-88202142D02*
X71393571Y-88237857D01*
X71429285Y-88345000D01*
X71429285Y-88416428D01*
X71393571Y-88523571D01*
X71322142Y-88595000D01*
X71250714Y-88630714D01*
X71107857Y-88666428D01*
X71000714Y-88666428D01*
X70857857Y-88630714D01*
X70786428Y-88595000D01*
X70715000Y-88523571D01*
X70679285Y-88416428D01*
X70679285Y-88345000D01*
X70715000Y-88237857D01*
X70750714Y-88202142D01*
X71429285Y-87487857D02*
X71429285Y-87916428D01*
X71429285Y-87702142D02*
X70679285Y-87702142D01*
X70786428Y-87773571D01*
X70857857Y-87845000D01*
X70893571Y-87916428D01*
X71429285Y-86773571D02*
X71429285Y-87202142D01*
X71429285Y-86987857D02*
X70679285Y-86987857D01*
X70786428Y-87059285D01*
X70857857Y-87130714D01*
X70893571Y-87202142D01*
G04 #@! TO.C,R8*
X77375000Y-72359285D02*
X77125000Y-72002142D01*
X76946428Y-72359285D02*
X76946428Y-71609285D01*
X77232142Y-71609285D01*
X77303571Y-71645000D01*
X77339285Y-71680714D01*
X77375000Y-71752142D01*
X77375000Y-71859285D01*
X77339285Y-71930714D01*
X77303571Y-71966428D01*
X77232142Y-72002142D01*
X76946428Y-72002142D01*
X77803571Y-71930714D02*
X77732142Y-71895000D01*
X77696428Y-71859285D01*
X77660714Y-71787857D01*
X77660714Y-71752142D01*
X77696428Y-71680714D01*
X77732142Y-71645000D01*
X77803571Y-71609285D01*
X77946428Y-71609285D01*
X78017857Y-71645000D01*
X78053571Y-71680714D01*
X78089285Y-71752142D01*
X78089285Y-71787857D01*
X78053571Y-71859285D01*
X78017857Y-71895000D01*
X77946428Y-71930714D01*
X77803571Y-71930714D01*
X77732142Y-71966428D01*
X77696428Y-72002142D01*
X77660714Y-72073571D01*
X77660714Y-72216428D01*
X77696428Y-72287857D01*
X77732142Y-72323571D01*
X77803571Y-72359285D01*
X77946428Y-72359285D01*
X78017857Y-72323571D01*
X78053571Y-72287857D01*
X78089285Y-72216428D01*
X78089285Y-72073571D01*
X78053571Y-72002142D01*
X78017857Y-71966428D01*
X77946428Y-71930714D01*
G04 #@! TO.C,C7*
X80915000Y-80397857D02*
X80879285Y-80433571D01*
X80772142Y-80469285D01*
X80700714Y-80469285D01*
X80593571Y-80433571D01*
X80522142Y-80362142D01*
X80486428Y-80290714D01*
X80450714Y-80147857D01*
X80450714Y-80040714D01*
X80486428Y-79897857D01*
X80522142Y-79826428D01*
X80593571Y-79755000D01*
X80700714Y-79719285D01*
X80772142Y-79719285D01*
X80879285Y-79755000D01*
X80915000Y-79790714D01*
X81165000Y-79719285D02*
X81665000Y-79719285D01*
X81343571Y-80469285D01*
G04 #@! TO.C,C8*
X73725000Y-78107857D02*
X73689285Y-78143571D01*
X73582142Y-78179285D01*
X73510714Y-78179285D01*
X73403571Y-78143571D01*
X73332142Y-78072142D01*
X73296428Y-78000714D01*
X73260714Y-77857857D01*
X73260714Y-77750714D01*
X73296428Y-77607857D01*
X73332142Y-77536428D01*
X73403571Y-77465000D01*
X73510714Y-77429285D01*
X73582142Y-77429285D01*
X73689285Y-77465000D01*
X73725000Y-77500714D01*
X74153571Y-77750714D02*
X74082142Y-77715000D01*
X74046428Y-77679285D01*
X74010714Y-77607857D01*
X74010714Y-77572142D01*
X74046428Y-77500714D01*
X74082142Y-77465000D01*
X74153571Y-77429285D01*
X74296428Y-77429285D01*
X74367857Y-77465000D01*
X74403571Y-77500714D01*
X74439285Y-77572142D01*
X74439285Y-77607857D01*
X74403571Y-77679285D01*
X74367857Y-77715000D01*
X74296428Y-77750714D01*
X74153571Y-77750714D01*
X74082142Y-77786428D01*
X74046428Y-77822142D01*
X74010714Y-77893571D01*
X74010714Y-78036428D01*
X74046428Y-78107857D01*
X74082142Y-78143571D01*
X74153571Y-78179285D01*
X74296428Y-78179285D01*
X74367857Y-78143571D01*
X74403571Y-78107857D01*
X74439285Y-78036428D01*
X74439285Y-77893571D01*
X74403571Y-77822142D01*
X74367857Y-77786428D01*
X74296428Y-77750714D01*
G04 #@! TO.C,R9*
X74399285Y-74515000D02*
X74042142Y-74765000D01*
X74399285Y-74943571D02*
X73649285Y-74943571D01*
X73649285Y-74657857D01*
X73685000Y-74586428D01*
X73720714Y-74550714D01*
X73792142Y-74515000D01*
X73899285Y-74515000D01*
X73970714Y-74550714D01*
X74006428Y-74586428D01*
X74042142Y-74657857D01*
X74042142Y-74943571D01*
X74399285Y-74157857D02*
X74399285Y-74015000D01*
X74363571Y-73943571D01*
X74327857Y-73907857D01*
X74220714Y-73836428D01*
X74077857Y-73800714D01*
X73792142Y-73800714D01*
X73720714Y-73836428D01*
X73685000Y-73872142D01*
X73649285Y-73943571D01*
X73649285Y-74086428D01*
X73685000Y-74157857D01*
X73720714Y-74193571D01*
X73792142Y-74229285D01*
X73970714Y-74229285D01*
X74042142Y-74193571D01*
X74077857Y-74157857D01*
X74113571Y-74086428D01*
X74113571Y-73943571D01*
X74077857Y-73872142D01*
X74042142Y-73836428D01*
X73970714Y-73800714D01*
G04 #@! TO.C,C10*
X73697857Y-87942142D02*
X73733571Y-87977857D01*
X73769285Y-88085000D01*
X73769285Y-88156428D01*
X73733571Y-88263571D01*
X73662142Y-88335000D01*
X73590714Y-88370714D01*
X73447857Y-88406428D01*
X73340714Y-88406428D01*
X73197857Y-88370714D01*
X73126428Y-88335000D01*
X73055000Y-88263571D01*
X73019285Y-88156428D01*
X73019285Y-88085000D01*
X73055000Y-87977857D01*
X73090714Y-87942142D01*
X73769285Y-87227857D02*
X73769285Y-87656428D01*
X73769285Y-87442142D02*
X73019285Y-87442142D01*
X73126428Y-87513571D01*
X73197857Y-87585000D01*
X73233571Y-87656428D01*
X73019285Y-86763571D02*
X73019285Y-86692142D01*
X73055000Y-86620714D01*
X73090714Y-86585000D01*
X73162142Y-86549285D01*
X73305000Y-86513571D01*
X73483571Y-86513571D01*
X73626428Y-86549285D01*
X73697857Y-86585000D01*
X73733571Y-86620714D01*
X73769285Y-86692142D01*
X73769285Y-86763571D01*
X73733571Y-86835000D01*
X73697857Y-86870714D01*
X73626428Y-86906428D01*
X73483571Y-86942142D01*
X73305000Y-86942142D01*
X73162142Y-86906428D01*
X73090714Y-86870714D01*
X73055000Y-86835000D01*
X73019285Y-86763571D01*
G04 #@! TO.C,C5*
X79703857Y-87175000D02*
X79739571Y-87210714D01*
X79775285Y-87317857D01*
X79775285Y-87389285D01*
X79739571Y-87496428D01*
X79668142Y-87567857D01*
X79596714Y-87603571D01*
X79453857Y-87639285D01*
X79346714Y-87639285D01*
X79203857Y-87603571D01*
X79132428Y-87567857D01*
X79061000Y-87496428D01*
X79025285Y-87389285D01*
X79025285Y-87317857D01*
X79061000Y-87210714D01*
X79096714Y-87175000D01*
X79025285Y-86496428D02*
X79025285Y-86853571D01*
X79382428Y-86889285D01*
X79346714Y-86853571D01*
X79311000Y-86782142D01*
X79311000Y-86603571D01*
X79346714Y-86532142D01*
X79382428Y-86496428D01*
X79453857Y-86460714D01*
X79632428Y-86460714D01*
X79703857Y-86496428D01*
X79739571Y-86532142D01*
X79775285Y-86603571D01*
X79775285Y-86782142D01*
X79739571Y-86853571D01*
X79703857Y-86889285D01*
G04 #@! TO.C,C6*
X85757857Y-87225000D02*
X85793571Y-87260714D01*
X85829285Y-87367857D01*
X85829285Y-87439285D01*
X85793571Y-87546428D01*
X85722142Y-87617857D01*
X85650714Y-87653571D01*
X85507857Y-87689285D01*
X85400714Y-87689285D01*
X85257857Y-87653571D01*
X85186428Y-87617857D01*
X85115000Y-87546428D01*
X85079285Y-87439285D01*
X85079285Y-87367857D01*
X85115000Y-87260714D01*
X85150714Y-87225000D01*
X85079285Y-86582142D02*
X85079285Y-86725000D01*
X85115000Y-86796428D01*
X85150714Y-86832142D01*
X85257857Y-86903571D01*
X85400714Y-86939285D01*
X85686428Y-86939285D01*
X85757857Y-86903571D01*
X85793571Y-86867857D01*
X85829285Y-86796428D01*
X85829285Y-86653571D01*
X85793571Y-86582142D01*
X85757857Y-86546428D01*
X85686428Y-86510714D01*
X85507857Y-86510714D01*
X85436428Y-86546428D01*
X85400714Y-86582142D01*
X85365000Y-86653571D01*
X85365000Y-86796428D01*
X85400714Y-86867857D01*
X85436428Y-86903571D01*
X85507857Y-86939285D01*
G04 #@! TO.C,C9*
X71655000Y-80387857D02*
X71619285Y-80423571D01*
X71512142Y-80459285D01*
X71440714Y-80459285D01*
X71333571Y-80423571D01*
X71262142Y-80352142D01*
X71226428Y-80280714D01*
X71190714Y-80137857D01*
X71190714Y-80030714D01*
X71226428Y-79887857D01*
X71262142Y-79816428D01*
X71333571Y-79745000D01*
X71440714Y-79709285D01*
X71512142Y-79709285D01*
X71619285Y-79745000D01*
X71655000Y-79780714D01*
X72012142Y-80459285D02*
X72155000Y-80459285D01*
X72226428Y-80423571D01*
X72262142Y-80387857D01*
X72333571Y-80280714D01*
X72369285Y-80137857D01*
X72369285Y-79852142D01*
X72333571Y-79780714D01*
X72297857Y-79745000D01*
X72226428Y-79709285D01*
X72083571Y-79709285D01*
X72012142Y-79745000D01*
X71976428Y-79780714D01*
X71940714Y-79852142D01*
X71940714Y-80030714D01*
X71976428Y-80102142D01*
X72012142Y-80137857D01*
X72083571Y-80173571D01*
X72226428Y-80173571D01*
X72297857Y-80137857D01*
X72333571Y-80102142D01*
X72369285Y-80030714D01*
G04 #@! TO.C,C13*
X69207857Y-87952142D02*
X69243571Y-87987857D01*
X69279285Y-88095000D01*
X69279285Y-88166428D01*
X69243571Y-88273571D01*
X69172142Y-88345000D01*
X69100714Y-88380714D01*
X68957857Y-88416428D01*
X68850714Y-88416428D01*
X68707857Y-88380714D01*
X68636428Y-88345000D01*
X68565000Y-88273571D01*
X68529285Y-88166428D01*
X68529285Y-88095000D01*
X68565000Y-87987857D01*
X68600714Y-87952142D01*
X69279285Y-87237857D02*
X69279285Y-87666428D01*
X69279285Y-87452142D02*
X68529285Y-87452142D01*
X68636428Y-87523571D01*
X68707857Y-87595000D01*
X68743571Y-87666428D01*
X68529285Y-86987857D02*
X68529285Y-86523571D01*
X68815000Y-86773571D01*
X68815000Y-86666428D01*
X68850714Y-86595000D01*
X68886428Y-86559285D01*
X68957857Y-86523571D01*
X69136428Y-86523571D01*
X69207857Y-86559285D01*
X69243571Y-86595000D01*
X69279285Y-86666428D01*
X69279285Y-86880714D01*
X69243571Y-86952142D01*
X69207857Y-86987857D01*
G04 #@! TO.C,C12*
X63197857Y-87892142D02*
X63233571Y-87927857D01*
X63269285Y-88035000D01*
X63269285Y-88106428D01*
X63233571Y-88213571D01*
X63162142Y-88285000D01*
X63090714Y-88320714D01*
X62947857Y-88356428D01*
X62840714Y-88356428D01*
X62697857Y-88320714D01*
X62626428Y-88285000D01*
X62555000Y-88213571D01*
X62519285Y-88106428D01*
X62519285Y-88035000D01*
X62555000Y-87927857D01*
X62590714Y-87892142D01*
X63269285Y-87177857D02*
X63269285Y-87606428D01*
X63269285Y-87392142D02*
X62519285Y-87392142D01*
X62626428Y-87463571D01*
X62697857Y-87535000D01*
X62733571Y-87606428D01*
X62590714Y-86892142D02*
X62555000Y-86856428D01*
X62519285Y-86785000D01*
X62519285Y-86606428D01*
X62555000Y-86535000D01*
X62590714Y-86499285D01*
X62662142Y-86463571D01*
X62733571Y-86463571D01*
X62840714Y-86499285D01*
X63269285Y-86927857D01*
X63269285Y-86463571D01*
G04 #@! TO.C,C16*
X54437857Y-80367857D02*
X54402142Y-80403571D01*
X54295000Y-80439285D01*
X54223571Y-80439285D01*
X54116428Y-80403571D01*
X54045000Y-80332142D01*
X54009285Y-80260714D01*
X53973571Y-80117857D01*
X53973571Y-80010714D01*
X54009285Y-79867857D01*
X54045000Y-79796428D01*
X54116428Y-79725000D01*
X54223571Y-79689285D01*
X54295000Y-79689285D01*
X54402142Y-79725000D01*
X54437857Y-79760714D01*
X55152142Y-80439285D02*
X54723571Y-80439285D01*
X54937857Y-80439285D02*
X54937857Y-79689285D01*
X54866428Y-79796428D01*
X54795000Y-79867857D01*
X54723571Y-79903571D01*
X55795000Y-79689285D02*
X55652142Y-79689285D01*
X55580714Y-79725000D01*
X55545000Y-79760714D01*
X55473571Y-79867857D01*
X55437857Y-80010714D01*
X55437857Y-80296428D01*
X55473571Y-80367857D01*
X55509285Y-80403571D01*
X55580714Y-80439285D01*
X55723571Y-80439285D01*
X55795000Y-80403571D01*
X55830714Y-80367857D01*
X55866428Y-80296428D01*
X55866428Y-80117857D01*
X55830714Y-80046428D01*
X55795000Y-80010714D01*
X55723571Y-79975000D01*
X55580714Y-79975000D01*
X55509285Y-80010714D01*
X55473571Y-80046428D01*
X55437857Y-80117857D01*
G04 #@! TO.C,C15*
X56457857Y-78107857D02*
X56422142Y-78143571D01*
X56315000Y-78179285D01*
X56243571Y-78179285D01*
X56136428Y-78143571D01*
X56065000Y-78072142D01*
X56029285Y-78000714D01*
X55993571Y-77857857D01*
X55993571Y-77750714D01*
X56029285Y-77607857D01*
X56065000Y-77536428D01*
X56136428Y-77465000D01*
X56243571Y-77429285D01*
X56315000Y-77429285D01*
X56422142Y-77465000D01*
X56457857Y-77500714D01*
X57172142Y-78179285D02*
X56743571Y-78179285D01*
X56957857Y-78179285D02*
X56957857Y-77429285D01*
X56886428Y-77536428D01*
X56815000Y-77607857D01*
X56743571Y-77643571D01*
X57850714Y-77429285D02*
X57493571Y-77429285D01*
X57457857Y-77786428D01*
X57493571Y-77750714D01*
X57565000Y-77715000D01*
X57743571Y-77715000D01*
X57815000Y-77750714D01*
X57850714Y-77786428D01*
X57886428Y-77857857D01*
X57886428Y-78036428D01*
X57850714Y-78107857D01*
X57815000Y-78143571D01*
X57743571Y-78179285D01*
X57565000Y-78179285D01*
X57493571Y-78143571D01*
X57457857Y-78107857D01*
G04 #@! TO.C,C14*
X64427857Y-80347857D02*
X64392142Y-80383571D01*
X64285000Y-80419285D01*
X64213571Y-80419285D01*
X64106428Y-80383571D01*
X64035000Y-80312142D01*
X63999285Y-80240714D01*
X63963571Y-80097857D01*
X63963571Y-79990714D01*
X63999285Y-79847857D01*
X64035000Y-79776428D01*
X64106428Y-79705000D01*
X64213571Y-79669285D01*
X64285000Y-79669285D01*
X64392142Y-79705000D01*
X64427857Y-79740714D01*
X65142142Y-80419285D02*
X64713571Y-80419285D01*
X64927857Y-80419285D02*
X64927857Y-79669285D01*
X64856428Y-79776428D01*
X64785000Y-79847857D01*
X64713571Y-79883571D01*
X65785000Y-79919285D02*
X65785000Y-80419285D01*
X65606428Y-79633571D02*
X65427857Y-80169285D01*
X65892142Y-80169285D01*
G04 #@! TO.C,C28*
X80947857Y-100277857D02*
X80912142Y-100313571D01*
X80805000Y-100349285D01*
X80733571Y-100349285D01*
X80626428Y-100313571D01*
X80555000Y-100242142D01*
X80519285Y-100170714D01*
X80483571Y-100027857D01*
X80483571Y-99920714D01*
X80519285Y-99777857D01*
X80555000Y-99706428D01*
X80626428Y-99635000D01*
X80733571Y-99599285D01*
X80805000Y-99599285D01*
X80912142Y-99635000D01*
X80947857Y-99670714D01*
X81233571Y-99670714D02*
X81269285Y-99635000D01*
X81340714Y-99599285D01*
X81519285Y-99599285D01*
X81590714Y-99635000D01*
X81626428Y-99670714D01*
X81662142Y-99742142D01*
X81662142Y-99813571D01*
X81626428Y-99920714D01*
X81197857Y-100349285D01*
X81662142Y-100349285D01*
X82090714Y-99920714D02*
X82019285Y-99885000D01*
X81983571Y-99849285D01*
X81947857Y-99777857D01*
X81947857Y-99742142D01*
X81983571Y-99670714D01*
X82019285Y-99635000D01*
X82090714Y-99599285D01*
X82233571Y-99599285D01*
X82305000Y-99635000D01*
X82340714Y-99670714D01*
X82376428Y-99742142D01*
X82376428Y-99777857D01*
X82340714Y-99849285D01*
X82305000Y-99885000D01*
X82233571Y-99920714D01*
X82090714Y-99920714D01*
X82019285Y-99956428D01*
X81983571Y-99992142D01*
X81947857Y-100063571D01*
X81947857Y-100206428D01*
X81983571Y-100277857D01*
X82019285Y-100313571D01*
X82090714Y-100349285D01*
X82233571Y-100349285D01*
X82305000Y-100313571D01*
X82340714Y-100277857D01*
X82376428Y-100206428D01*
X82376428Y-100063571D01*
X82340714Y-99992142D01*
X82305000Y-99956428D01*
X82233571Y-99920714D01*
G04 #@! TO.C,R21*
X74329285Y-94802142D02*
X73972142Y-95052142D01*
X74329285Y-95230714D02*
X73579285Y-95230714D01*
X73579285Y-94945000D01*
X73615000Y-94873571D01*
X73650714Y-94837857D01*
X73722142Y-94802142D01*
X73829285Y-94802142D01*
X73900714Y-94837857D01*
X73936428Y-94873571D01*
X73972142Y-94945000D01*
X73972142Y-95230714D01*
X73650714Y-94516428D02*
X73615000Y-94480714D01*
X73579285Y-94409285D01*
X73579285Y-94230714D01*
X73615000Y-94159285D01*
X73650714Y-94123571D01*
X73722142Y-94087857D01*
X73793571Y-94087857D01*
X73900714Y-94123571D01*
X74329285Y-94552142D01*
X74329285Y-94087857D01*
X74329285Y-93373571D02*
X74329285Y-93802142D01*
X74329285Y-93587857D02*
X73579285Y-93587857D01*
X73686428Y-93659285D01*
X73757857Y-93730714D01*
X73793571Y-93802142D01*
G04 #@! TO.C,R20*
X76997857Y-92329285D02*
X76747857Y-91972142D01*
X76569285Y-92329285D02*
X76569285Y-91579285D01*
X76855000Y-91579285D01*
X76926428Y-91615000D01*
X76962142Y-91650714D01*
X76997857Y-91722142D01*
X76997857Y-91829285D01*
X76962142Y-91900714D01*
X76926428Y-91936428D01*
X76855000Y-91972142D01*
X76569285Y-91972142D01*
X77283571Y-91650714D02*
X77319285Y-91615000D01*
X77390714Y-91579285D01*
X77569285Y-91579285D01*
X77640714Y-91615000D01*
X77676428Y-91650714D01*
X77712142Y-91722142D01*
X77712142Y-91793571D01*
X77676428Y-91900714D01*
X77247857Y-92329285D01*
X77712142Y-92329285D01*
X78176428Y-91579285D02*
X78247857Y-91579285D01*
X78319285Y-91615000D01*
X78355000Y-91650714D01*
X78390714Y-91722142D01*
X78426428Y-91865000D01*
X78426428Y-92043571D01*
X78390714Y-92186428D01*
X78355000Y-92257857D01*
X78319285Y-92293571D01*
X78247857Y-92329285D01*
X78176428Y-92329285D01*
X78105000Y-92293571D01*
X78069285Y-92257857D01*
X78033571Y-92186428D01*
X77997857Y-92043571D01*
X77997857Y-91865000D01*
X78033571Y-91722142D01*
X78069285Y-91650714D01*
X78105000Y-91615000D01*
X78176428Y-91579285D01*
G04 #@! TO.C,C31*
X73727857Y-107682142D02*
X73763571Y-107717857D01*
X73799285Y-107825000D01*
X73799285Y-107896428D01*
X73763571Y-108003571D01*
X73692142Y-108075000D01*
X73620714Y-108110714D01*
X73477857Y-108146428D01*
X73370714Y-108146428D01*
X73227857Y-108110714D01*
X73156428Y-108075000D01*
X73085000Y-108003571D01*
X73049285Y-107896428D01*
X73049285Y-107825000D01*
X73085000Y-107717857D01*
X73120714Y-107682142D01*
X73049285Y-107432142D02*
X73049285Y-106967857D01*
X73335000Y-107217857D01*
X73335000Y-107110714D01*
X73370714Y-107039285D01*
X73406428Y-107003571D01*
X73477857Y-106967857D01*
X73656428Y-106967857D01*
X73727857Y-107003571D01*
X73763571Y-107039285D01*
X73799285Y-107110714D01*
X73799285Y-107325000D01*
X73763571Y-107396428D01*
X73727857Y-107432142D01*
X73799285Y-106253571D02*
X73799285Y-106682142D01*
X73799285Y-106467857D02*
X73049285Y-106467857D01*
X73156428Y-106539285D01*
X73227857Y-106610714D01*
X73263571Y-106682142D01*
G04 #@! TO.C,R19*
X81319285Y-94831142D02*
X80962142Y-95081142D01*
X81319285Y-95259714D02*
X80569285Y-95259714D01*
X80569285Y-94974000D01*
X80605000Y-94902571D01*
X80640714Y-94866857D01*
X80712142Y-94831142D01*
X80819285Y-94831142D01*
X80890714Y-94866857D01*
X80926428Y-94902571D01*
X80962142Y-94974000D01*
X80962142Y-95259714D01*
X81319285Y-94116857D02*
X81319285Y-94545428D01*
X81319285Y-94331142D02*
X80569285Y-94331142D01*
X80676428Y-94402571D01*
X80747857Y-94474000D01*
X80783571Y-94545428D01*
X81319285Y-93759714D02*
X81319285Y-93616857D01*
X81283571Y-93545428D01*
X81247857Y-93509714D01*
X81140714Y-93438285D01*
X80997857Y-93402571D01*
X80712142Y-93402571D01*
X80640714Y-93438285D01*
X80605000Y-93474000D01*
X80569285Y-93545428D01*
X80569285Y-93688285D01*
X80605000Y-93759714D01*
X80640714Y-93795428D01*
X80712142Y-93831142D01*
X80890714Y-93831142D01*
X80962142Y-93795428D01*
X80997857Y-93759714D01*
X81033571Y-93688285D01*
X81033571Y-93545428D01*
X80997857Y-93474000D01*
X80962142Y-93438285D01*
X80890714Y-93402571D01*
G04 #@! TO.C,C32*
X71437857Y-108172142D02*
X71473571Y-108207857D01*
X71509285Y-108315000D01*
X71509285Y-108386428D01*
X71473571Y-108493571D01*
X71402142Y-108565000D01*
X71330714Y-108600714D01*
X71187857Y-108636428D01*
X71080714Y-108636428D01*
X70937857Y-108600714D01*
X70866428Y-108565000D01*
X70795000Y-108493571D01*
X70759285Y-108386428D01*
X70759285Y-108315000D01*
X70795000Y-108207857D01*
X70830714Y-108172142D01*
X70759285Y-107922142D02*
X70759285Y-107457857D01*
X71045000Y-107707857D01*
X71045000Y-107600714D01*
X71080714Y-107529285D01*
X71116428Y-107493571D01*
X71187857Y-107457857D01*
X71366428Y-107457857D01*
X71437857Y-107493571D01*
X71473571Y-107529285D01*
X71509285Y-107600714D01*
X71509285Y-107815000D01*
X71473571Y-107886428D01*
X71437857Y-107922142D01*
X70830714Y-107172142D02*
X70795000Y-107136428D01*
X70759285Y-107065000D01*
X70759285Y-106886428D01*
X70795000Y-106815000D01*
X70830714Y-106779285D01*
X70902142Y-106743571D01*
X70973571Y-106743571D01*
X71080714Y-106779285D01*
X71509285Y-107207857D01*
X71509285Y-106743571D01*
G04 #@! TO.C,C27*
X85737857Y-107832142D02*
X85773571Y-107867857D01*
X85809285Y-107975000D01*
X85809285Y-108046428D01*
X85773571Y-108153571D01*
X85702142Y-108225000D01*
X85630714Y-108260714D01*
X85487857Y-108296428D01*
X85380714Y-108296428D01*
X85237857Y-108260714D01*
X85166428Y-108225000D01*
X85095000Y-108153571D01*
X85059285Y-108046428D01*
X85059285Y-107975000D01*
X85095000Y-107867857D01*
X85130714Y-107832142D01*
X85130714Y-107546428D02*
X85095000Y-107510714D01*
X85059285Y-107439285D01*
X85059285Y-107260714D01*
X85095000Y-107189285D01*
X85130714Y-107153571D01*
X85202142Y-107117857D01*
X85273571Y-107117857D01*
X85380714Y-107153571D01*
X85809285Y-107582142D01*
X85809285Y-107117857D01*
X85059285Y-106867857D02*
X85059285Y-106367857D01*
X85809285Y-106689285D01*
G04 #@! TO.C,C26*
X79717857Y-107852142D02*
X79753571Y-107887857D01*
X79789285Y-107995000D01*
X79789285Y-108066428D01*
X79753571Y-108173571D01*
X79682142Y-108245000D01*
X79610714Y-108280714D01*
X79467857Y-108316428D01*
X79360714Y-108316428D01*
X79217857Y-108280714D01*
X79146428Y-108245000D01*
X79075000Y-108173571D01*
X79039285Y-108066428D01*
X79039285Y-107995000D01*
X79075000Y-107887857D01*
X79110714Y-107852142D01*
X79110714Y-107566428D02*
X79075000Y-107530714D01*
X79039285Y-107459285D01*
X79039285Y-107280714D01*
X79075000Y-107209285D01*
X79110714Y-107173571D01*
X79182142Y-107137857D01*
X79253571Y-107137857D01*
X79360714Y-107173571D01*
X79789285Y-107602142D01*
X79789285Y-107137857D01*
X79039285Y-106495000D02*
X79039285Y-106637857D01*
X79075000Y-106709285D01*
X79110714Y-106745000D01*
X79217857Y-106816428D01*
X79360714Y-106852142D01*
X79646428Y-106852142D01*
X79717857Y-106816428D01*
X79753571Y-106780714D01*
X79789285Y-106709285D01*
X79789285Y-106566428D01*
X79753571Y-106495000D01*
X79717857Y-106459285D01*
X79646428Y-106423571D01*
X79467857Y-106423571D01*
X79396428Y-106459285D01*
X79360714Y-106495000D01*
X79325000Y-106566428D01*
X79325000Y-106709285D01*
X79360714Y-106780714D01*
X79396428Y-106816428D01*
X79467857Y-106852142D01*
G04 #@! TO.C,C30*
X71007857Y-100287857D02*
X70972142Y-100323571D01*
X70865000Y-100359285D01*
X70793571Y-100359285D01*
X70686428Y-100323571D01*
X70615000Y-100252142D01*
X70579285Y-100180714D01*
X70543571Y-100037857D01*
X70543571Y-99930714D01*
X70579285Y-99787857D01*
X70615000Y-99716428D01*
X70686428Y-99645000D01*
X70793571Y-99609285D01*
X70865000Y-99609285D01*
X70972142Y-99645000D01*
X71007857Y-99680714D01*
X71257857Y-99609285D02*
X71722142Y-99609285D01*
X71472142Y-99895000D01*
X71579285Y-99895000D01*
X71650714Y-99930714D01*
X71686428Y-99966428D01*
X71722142Y-100037857D01*
X71722142Y-100216428D01*
X71686428Y-100287857D01*
X71650714Y-100323571D01*
X71579285Y-100359285D01*
X71365000Y-100359285D01*
X71293571Y-100323571D01*
X71257857Y-100287857D01*
X72186428Y-99609285D02*
X72257857Y-99609285D01*
X72329285Y-99645000D01*
X72365000Y-99680714D01*
X72400714Y-99752142D01*
X72436428Y-99895000D01*
X72436428Y-100073571D01*
X72400714Y-100216428D01*
X72365000Y-100287857D01*
X72329285Y-100323571D01*
X72257857Y-100359285D01*
X72186428Y-100359285D01*
X72115000Y-100323571D01*
X72079285Y-100287857D01*
X72043571Y-100216428D01*
X72007857Y-100073571D01*
X72007857Y-99895000D01*
X72043571Y-99752142D01*
X72079285Y-99680714D01*
X72115000Y-99645000D01*
X72186428Y-99609285D01*
G04 #@! TO.C,C29*
X73017857Y-97987857D02*
X72982142Y-98023571D01*
X72875000Y-98059285D01*
X72803571Y-98059285D01*
X72696428Y-98023571D01*
X72625000Y-97952142D01*
X72589285Y-97880714D01*
X72553571Y-97737857D01*
X72553571Y-97630714D01*
X72589285Y-97487857D01*
X72625000Y-97416428D01*
X72696428Y-97345000D01*
X72803571Y-97309285D01*
X72875000Y-97309285D01*
X72982142Y-97345000D01*
X73017857Y-97380714D01*
X73303571Y-97380714D02*
X73339285Y-97345000D01*
X73410714Y-97309285D01*
X73589285Y-97309285D01*
X73660714Y-97345000D01*
X73696428Y-97380714D01*
X73732142Y-97452142D01*
X73732142Y-97523571D01*
X73696428Y-97630714D01*
X73267857Y-98059285D01*
X73732142Y-98059285D01*
X74089285Y-98059285D02*
X74232142Y-98059285D01*
X74303571Y-98023571D01*
X74339285Y-97987857D01*
X74410714Y-97880714D01*
X74446428Y-97737857D01*
X74446428Y-97452142D01*
X74410714Y-97380714D01*
X74375000Y-97345000D01*
X74303571Y-97309285D01*
X74160714Y-97309285D01*
X74089285Y-97345000D01*
X74053571Y-97380714D01*
X74017857Y-97452142D01*
X74017857Y-97630714D01*
X74053571Y-97702142D01*
X74089285Y-97737857D01*
X74160714Y-97773571D01*
X74303571Y-97773571D01*
X74375000Y-97737857D01*
X74410714Y-97702142D01*
X74446428Y-97630714D01*
G04 #@! TO.C,C1*
X68025000Y-111657857D02*
X67989285Y-111693571D01*
X67882142Y-111729285D01*
X67810714Y-111729285D01*
X67703571Y-111693571D01*
X67632142Y-111622142D01*
X67596428Y-111550714D01*
X67560714Y-111407857D01*
X67560714Y-111300714D01*
X67596428Y-111157857D01*
X67632142Y-111086428D01*
X67703571Y-111015000D01*
X67810714Y-110979285D01*
X67882142Y-110979285D01*
X67989285Y-111015000D01*
X68025000Y-111050714D01*
X68739285Y-111729285D02*
X68310714Y-111729285D01*
X68525000Y-111729285D02*
X68525000Y-110979285D01*
X68453571Y-111086428D01*
X68382142Y-111157857D01*
X68310714Y-111193571D01*
G04 #@! TO.C,C2*
X58625000Y-111737857D02*
X58589285Y-111773571D01*
X58482142Y-111809285D01*
X58410714Y-111809285D01*
X58303571Y-111773571D01*
X58232142Y-111702142D01*
X58196428Y-111630714D01*
X58160714Y-111487857D01*
X58160714Y-111380714D01*
X58196428Y-111237857D01*
X58232142Y-111166428D01*
X58303571Y-111095000D01*
X58410714Y-111059285D01*
X58482142Y-111059285D01*
X58589285Y-111095000D01*
X58625000Y-111130714D01*
X58910714Y-111130714D02*
X58946428Y-111095000D01*
X59017857Y-111059285D01*
X59196428Y-111059285D01*
X59267857Y-111095000D01*
X59303571Y-111130714D01*
X59339285Y-111202142D01*
X59339285Y-111273571D01*
X59303571Y-111380714D01*
X58875000Y-111809285D01*
X59339285Y-111809285D01*
G04 #@! TO.C,C3*
X77765000Y-113067857D02*
X77729285Y-113103571D01*
X77622142Y-113139285D01*
X77550714Y-113139285D01*
X77443571Y-113103571D01*
X77372142Y-113032142D01*
X77336428Y-112960714D01*
X77300714Y-112817857D01*
X77300714Y-112710714D01*
X77336428Y-112567857D01*
X77372142Y-112496428D01*
X77443571Y-112425000D01*
X77550714Y-112389285D01*
X77622142Y-112389285D01*
X77729285Y-112425000D01*
X77765000Y-112460714D01*
X78015000Y-112389285D02*
X78479285Y-112389285D01*
X78229285Y-112675000D01*
X78336428Y-112675000D01*
X78407857Y-112710714D01*
X78443571Y-112746428D01*
X78479285Y-112817857D01*
X78479285Y-112996428D01*
X78443571Y-113067857D01*
X78407857Y-113103571D01*
X78336428Y-113139285D01*
X78122142Y-113139285D01*
X78050714Y-113103571D01*
X78015000Y-113067857D01*
G04 #@! TO.C,C4*
X72377857Y-117795000D02*
X72413571Y-117830714D01*
X72449285Y-117937857D01*
X72449285Y-118009285D01*
X72413571Y-118116428D01*
X72342142Y-118187857D01*
X72270714Y-118223571D01*
X72127857Y-118259285D01*
X72020714Y-118259285D01*
X71877857Y-118223571D01*
X71806428Y-118187857D01*
X71735000Y-118116428D01*
X71699285Y-118009285D01*
X71699285Y-117937857D01*
X71735000Y-117830714D01*
X71770714Y-117795000D01*
X71949285Y-117152142D02*
X72449285Y-117152142D01*
X71663571Y-117330714D02*
X72199285Y-117509285D01*
X72199285Y-117045000D01*
G04 #@! TO.C,C19*
X63197857Y-107822142D02*
X63233571Y-107857857D01*
X63269285Y-107965000D01*
X63269285Y-108036428D01*
X63233571Y-108143571D01*
X63162142Y-108215000D01*
X63090714Y-108250714D01*
X62947857Y-108286428D01*
X62840714Y-108286428D01*
X62697857Y-108250714D01*
X62626428Y-108215000D01*
X62555000Y-108143571D01*
X62519285Y-108036428D01*
X62519285Y-107965000D01*
X62555000Y-107857857D01*
X62590714Y-107822142D01*
X63269285Y-107107857D02*
X63269285Y-107536428D01*
X63269285Y-107322142D02*
X62519285Y-107322142D01*
X62626428Y-107393571D01*
X62697857Y-107465000D01*
X62733571Y-107536428D01*
X63269285Y-106750714D02*
X63269285Y-106607857D01*
X63233571Y-106536428D01*
X63197857Y-106500714D01*
X63090714Y-106429285D01*
X62947857Y-106393571D01*
X62662142Y-106393571D01*
X62590714Y-106429285D01*
X62555000Y-106465000D01*
X62519285Y-106536428D01*
X62519285Y-106679285D01*
X62555000Y-106750714D01*
X62590714Y-106786428D01*
X62662142Y-106822142D01*
X62840714Y-106822142D01*
X62912142Y-106786428D01*
X62947857Y-106750714D01*
X62983571Y-106679285D01*
X62983571Y-106536428D01*
X62947857Y-106465000D01*
X62912142Y-106429285D01*
X62840714Y-106393571D01*
G04 #@! TO.C,C20*
X69237857Y-107842142D02*
X69273571Y-107877857D01*
X69309285Y-107985000D01*
X69309285Y-108056428D01*
X69273571Y-108163571D01*
X69202142Y-108235000D01*
X69130714Y-108270714D01*
X68987857Y-108306428D01*
X68880714Y-108306428D01*
X68737857Y-108270714D01*
X68666428Y-108235000D01*
X68595000Y-108163571D01*
X68559285Y-108056428D01*
X68559285Y-107985000D01*
X68595000Y-107877857D01*
X68630714Y-107842142D01*
X68630714Y-107556428D02*
X68595000Y-107520714D01*
X68559285Y-107449285D01*
X68559285Y-107270714D01*
X68595000Y-107199285D01*
X68630714Y-107163571D01*
X68702142Y-107127857D01*
X68773571Y-107127857D01*
X68880714Y-107163571D01*
X69309285Y-107592142D01*
X69309285Y-107127857D01*
X68559285Y-106663571D02*
X68559285Y-106592142D01*
X68595000Y-106520714D01*
X68630714Y-106485000D01*
X68702142Y-106449285D01*
X68845000Y-106413571D01*
X69023571Y-106413571D01*
X69166428Y-106449285D01*
X69237857Y-106485000D01*
X69273571Y-106520714D01*
X69309285Y-106592142D01*
X69309285Y-106663571D01*
X69273571Y-106735000D01*
X69237857Y-106770714D01*
X69166428Y-106806428D01*
X69023571Y-106842142D01*
X68845000Y-106842142D01*
X68702142Y-106806428D01*
X68630714Y-106770714D01*
X68595000Y-106735000D01*
X68559285Y-106663571D01*
G04 #@! TO.C,C21*
X64367857Y-100317857D02*
X64332142Y-100353571D01*
X64225000Y-100389285D01*
X64153571Y-100389285D01*
X64046428Y-100353571D01*
X63975000Y-100282142D01*
X63939285Y-100210714D01*
X63903571Y-100067857D01*
X63903571Y-99960714D01*
X63939285Y-99817857D01*
X63975000Y-99746428D01*
X64046428Y-99675000D01*
X64153571Y-99639285D01*
X64225000Y-99639285D01*
X64332142Y-99675000D01*
X64367857Y-99710714D01*
X64653571Y-99710714D02*
X64689285Y-99675000D01*
X64760714Y-99639285D01*
X64939285Y-99639285D01*
X65010714Y-99675000D01*
X65046428Y-99710714D01*
X65082142Y-99782142D01*
X65082142Y-99853571D01*
X65046428Y-99960714D01*
X64617857Y-100389285D01*
X65082142Y-100389285D01*
X65796428Y-100389285D02*
X65367857Y-100389285D01*
X65582142Y-100389285D02*
X65582142Y-99639285D01*
X65510714Y-99746428D01*
X65439285Y-99817857D01*
X65367857Y-99853571D01*
G04 #@! TO.C,C22*
X56517857Y-98037857D02*
X56482142Y-98073571D01*
X56375000Y-98109285D01*
X56303571Y-98109285D01*
X56196428Y-98073571D01*
X56125000Y-98002142D01*
X56089285Y-97930714D01*
X56053571Y-97787857D01*
X56053571Y-97680714D01*
X56089285Y-97537857D01*
X56125000Y-97466428D01*
X56196428Y-97395000D01*
X56303571Y-97359285D01*
X56375000Y-97359285D01*
X56482142Y-97395000D01*
X56517857Y-97430714D01*
X56803571Y-97430714D02*
X56839285Y-97395000D01*
X56910714Y-97359285D01*
X57089285Y-97359285D01*
X57160714Y-97395000D01*
X57196428Y-97430714D01*
X57232142Y-97502142D01*
X57232142Y-97573571D01*
X57196428Y-97680714D01*
X56767857Y-98109285D01*
X57232142Y-98109285D01*
X57517857Y-97430714D02*
X57553571Y-97395000D01*
X57625000Y-97359285D01*
X57803571Y-97359285D01*
X57875000Y-97395000D01*
X57910714Y-97430714D01*
X57946428Y-97502142D01*
X57946428Y-97573571D01*
X57910714Y-97680714D01*
X57482142Y-98109285D01*
X57946428Y-98109285D01*
G04 #@! TO.C,C23*
X54477857Y-100287857D02*
X54442142Y-100323571D01*
X54335000Y-100359285D01*
X54263571Y-100359285D01*
X54156428Y-100323571D01*
X54085000Y-100252142D01*
X54049285Y-100180714D01*
X54013571Y-100037857D01*
X54013571Y-99930714D01*
X54049285Y-99787857D01*
X54085000Y-99716428D01*
X54156428Y-99645000D01*
X54263571Y-99609285D01*
X54335000Y-99609285D01*
X54442142Y-99645000D01*
X54477857Y-99680714D01*
X54763571Y-99680714D02*
X54799285Y-99645000D01*
X54870714Y-99609285D01*
X55049285Y-99609285D01*
X55120714Y-99645000D01*
X55156428Y-99680714D01*
X55192142Y-99752142D01*
X55192142Y-99823571D01*
X55156428Y-99930714D01*
X54727857Y-100359285D01*
X55192142Y-100359285D01*
X55442142Y-99609285D02*
X55906428Y-99609285D01*
X55656428Y-99895000D01*
X55763571Y-99895000D01*
X55835000Y-99930714D01*
X55870714Y-99966428D01*
X55906428Y-100037857D01*
X55906428Y-100216428D01*
X55870714Y-100287857D01*
X55835000Y-100323571D01*
X55763571Y-100359285D01*
X55549285Y-100359285D01*
X55477857Y-100323571D01*
X55442142Y-100287857D01*
G04 #@! TO.C,C24*
X57197857Y-107922142D02*
X57233571Y-107957857D01*
X57269285Y-108065000D01*
X57269285Y-108136428D01*
X57233571Y-108243571D01*
X57162142Y-108315000D01*
X57090714Y-108350714D01*
X56947857Y-108386428D01*
X56840714Y-108386428D01*
X56697857Y-108350714D01*
X56626428Y-108315000D01*
X56555000Y-108243571D01*
X56519285Y-108136428D01*
X56519285Y-108065000D01*
X56555000Y-107957857D01*
X56590714Y-107922142D01*
X56590714Y-107636428D02*
X56555000Y-107600714D01*
X56519285Y-107529285D01*
X56519285Y-107350714D01*
X56555000Y-107279285D01*
X56590714Y-107243571D01*
X56662142Y-107207857D01*
X56733571Y-107207857D01*
X56840714Y-107243571D01*
X57269285Y-107672142D01*
X57269285Y-107207857D01*
X56769285Y-106565000D02*
X57269285Y-106565000D01*
X56483571Y-106743571D02*
X57019285Y-106922142D01*
X57019285Y-106457857D01*
G04 #@! TO.C,C25*
X54907857Y-108242142D02*
X54943571Y-108277857D01*
X54979285Y-108385000D01*
X54979285Y-108456428D01*
X54943571Y-108563571D01*
X54872142Y-108635000D01*
X54800714Y-108670714D01*
X54657857Y-108706428D01*
X54550714Y-108706428D01*
X54407857Y-108670714D01*
X54336428Y-108635000D01*
X54265000Y-108563571D01*
X54229285Y-108456428D01*
X54229285Y-108385000D01*
X54265000Y-108277857D01*
X54300714Y-108242142D01*
X54300714Y-107956428D02*
X54265000Y-107920714D01*
X54229285Y-107849285D01*
X54229285Y-107670714D01*
X54265000Y-107599285D01*
X54300714Y-107563571D01*
X54372142Y-107527857D01*
X54443571Y-107527857D01*
X54550714Y-107563571D01*
X54979285Y-107992142D01*
X54979285Y-107527857D01*
X54229285Y-106849285D02*
X54229285Y-107206428D01*
X54586428Y-107242142D01*
X54550714Y-107206428D01*
X54515000Y-107135000D01*
X54515000Y-106956428D01*
X54550714Y-106885000D01*
X54586428Y-106849285D01*
X54657857Y-106813571D01*
X54836428Y-106813571D01*
X54907857Y-106849285D01*
X54943571Y-106885000D01*
X54979285Y-106956428D01*
X54979285Y-107135000D01*
X54943571Y-107206428D01*
X54907857Y-107242142D01*
G04 #@! TO.C,L1*
X76985000Y-90419285D02*
X76627857Y-90419285D01*
X76627857Y-89669285D01*
X77627857Y-90419285D02*
X77199285Y-90419285D01*
X77413571Y-90419285D02*
X77413571Y-89669285D01*
X77342142Y-89776428D01*
X77270714Y-89847857D01*
X77199285Y-89883571D01*
G04 #@! TO.C,L2*
X60365000Y-90399285D02*
X60007857Y-90399285D01*
X60007857Y-89649285D01*
X60579285Y-89720714D02*
X60615000Y-89685000D01*
X60686428Y-89649285D01*
X60865000Y-89649285D01*
X60936428Y-89685000D01*
X60972142Y-89720714D01*
X61007857Y-89792142D01*
X61007857Y-89863571D01*
X60972142Y-89970714D01*
X60543571Y-90399285D01*
X61007857Y-90399285D01*
G04 #@! TO.C,L3*
X60485000Y-110639285D02*
X60127857Y-110639285D01*
X60127857Y-109889285D01*
X60663571Y-109889285D02*
X61127857Y-109889285D01*
X60877857Y-110175000D01*
X60985000Y-110175000D01*
X61056428Y-110210714D01*
X61092142Y-110246428D01*
X61127857Y-110317857D01*
X61127857Y-110496428D01*
X61092142Y-110567857D01*
X61056428Y-110603571D01*
X60985000Y-110639285D01*
X60770714Y-110639285D01*
X60699285Y-110603571D01*
X60663571Y-110567857D01*
G04 #@! TO.C,L4*
X77015000Y-110649285D02*
X76657857Y-110649285D01*
X76657857Y-109899285D01*
X77586428Y-110149285D02*
X77586428Y-110649285D01*
X77407857Y-109863571D02*
X77229285Y-110399285D01*
X77693571Y-110399285D01*
G04 #@! TO.C,R1*
X81345000Y-118909285D02*
X81095000Y-118552142D01*
X80916428Y-118909285D02*
X80916428Y-118159285D01*
X81202142Y-118159285D01*
X81273571Y-118195000D01*
X81309285Y-118230714D01*
X81345000Y-118302142D01*
X81345000Y-118409285D01*
X81309285Y-118480714D01*
X81273571Y-118516428D01*
X81202142Y-118552142D01*
X80916428Y-118552142D01*
X82059285Y-118909285D02*
X81630714Y-118909285D01*
X81845000Y-118909285D02*
X81845000Y-118159285D01*
X81773571Y-118266428D01*
X81702142Y-118337857D01*
X81630714Y-118373571D01*
G04 #@! TO.C,R2*
X79815000Y-113129285D02*
X79565000Y-112772142D01*
X79386428Y-113129285D02*
X79386428Y-112379285D01*
X79672142Y-112379285D01*
X79743571Y-112415000D01*
X79779285Y-112450714D01*
X79815000Y-112522142D01*
X79815000Y-112629285D01*
X79779285Y-112700714D01*
X79743571Y-112736428D01*
X79672142Y-112772142D01*
X79386428Y-112772142D01*
X80100714Y-112450714D02*
X80136428Y-112415000D01*
X80207857Y-112379285D01*
X80386428Y-112379285D01*
X80457857Y-112415000D01*
X80493571Y-112450714D01*
X80529285Y-112522142D01*
X80529285Y-112593571D01*
X80493571Y-112700714D01*
X80065000Y-113129285D01*
X80529285Y-113129285D01*
G04 #@! TO.C,R10*
X54849285Y-65682142D02*
X54492142Y-65932142D01*
X54849285Y-66110714D02*
X54099285Y-66110714D01*
X54099285Y-65825000D01*
X54135000Y-65753571D01*
X54170714Y-65717857D01*
X54242142Y-65682142D01*
X54349285Y-65682142D01*
X54420714Y-65717857D01*
X54456428Y-65753571D01*
X54492142Y-65825000D01*
X54492142Y-66110714D01*
X54849285Y-64967857D02*
X54849285Y-65396428D01*
X54849285Y-65182142D02*
X54099285Y-65182142D01*
X54206428Y-65253571D01*
X54277857Y-65325000D01*
X54313571Y-65396428D01*
X54099285Y-64503571D02*
X54099285Y-64432142D01*
X54135000Y-64360714D01*
X54170714Y-64325000D01*
X54242142Y-64289285D01*
X54385000Y-64253571D01*
X54563571Y-64253571D01*
X54706428Y-64289285D01*
X54777857Y-64325000D01*
X54813571Y-64360714D01*
X54849285Y-64432142D01*
X54849285Y-64503571D01*
X54813571Y-64575000D01*
X54777857Y-64610714D01*
X54706428Y-64646428D01*
X54563571Y-64682142D01*
X54385000Y-64682142D01*
X54242142Y-64646428D01*
X54170714Y-64610714D01*
X54135000Y-64575000D01*
X54099285Y-64503571D01*
G04 #@! TO.C,R14*
X56839285Y-65662142D02*
X56482142Y-65912142D01*
X56839285Y-66090714D02*
X56089285Y-66090714D01*
X56089285Y-65805000D01*
X56125000Y-65733571D01*
X56160714Y-65697857D01*
X56232142Y-65662142D01*
X56339285Y-65662142D01*
X56410714Y-65697857D01*
X56446428Y-65733571D01*
X56482142Y-65805000D01*
X56482142Y-66090714D01*
X56839285Y-64947857D02*
X56839285Y-65376428D01*
X56839285Y-65162142D02*
X56089285Y-65162142D01*
X56196428Y-65233571D01*
X56267857Y-65305000D01*
X56303571Y-65376428D01*
X56339285Y-64305000D02*
X56839285Y-64305000D01*
X56053571Y-64483571D02*
X56589285Y-64662142D01*
X56589285Y-64197857D01*
G04 #@! TO.C,R15*
X64859285Y-94842142D02*
X64502142Y-95092142D01*
X64859285Y-95270714D02*
X64109285Y-95270714D01*
X64109285Y-94985000D01*
X64145000Y-94913571D01*
X64180714Y-94877857D01*
X64252142Y-94842142D01*
X64359285Y-94842142D01*
X64430714Y-94877857D01*
X64466428Y-94913571D01*
X64502142Y-94985000D01*
X64502142Y-95270714D01*
X64859285Y-94127857D02*
X64859285Y-94556428D01*
X64859285Y-94342142D02*
X64109285Y-94342142D01*
X64216428Y-94413571D01*
X64287857Y-94485000D01*
X64323571Y-94556428D01*
X64109285Y-93449285D02*
X64109285Y-93806428D01*
X64466428Y-93842142D01*
X64430714Y-93806428D01*
X64395000Y-93735000D01*
X64395000Y-93556428D01*
X64430714Y-93485000D01*
X64466428Y-93449285D01*
X64537857Y-93413571D01*
X64716428Y-93413571D01*
X64787857Y-93449285D01*
X64823571Y-93485000D01*
X64859285Y-93556428D01*
X64859285Y-93735000D01*
X64823571Y-93806428D01*
X64787857Y-93842142D01*
G04 #@! TO.C,R16*
X60483857Y-92319285D02*
X60233857Y-91962142D01*
X60055285Y-92319285D02*
X60055285Y-91569285D01*
X60341000Y-91569285D01*
X60412428Y-91605000D01*
X60448142Y-91640714D01*
X60483857Y-91712142D01*
X60483857Y-91819285D01*
X60448142Y-91890714D01*
X60412428Y-91926428D01*
X60341000Y-91962142D01*
X60055285Y-91962142D01*
X61198142Y-92319285D02*
X60769571Y-92319285D01*
X60983857Y-92319285D02*
X60983857Y-91569285D01*
X60912428Y-91676428D01*
X60841000Y-91747857D01*
X60769571Y-91783571D01*
X61841000Y-91569285D02*
X61698142Y-91569285D01*
X61626714Y-91605000D01*
X61591000Y-91640714D01*
X61519571Y-91747857D01*
X61483857Y-91890714D01*
X61483857Y-92176428D01*
X61519571Y-92247857D01*
X61555285Y-92283571D01*
X61626714Y-92319285D01*
X61769571Y-92319285D01*
X61841000Y-92283571D01*
X61876714Y-92247857D01*
X61912428Y-92176428D01*
X61912428Y-91997857D01*
X61876714Y-91926428D01*
X61841000Y-91890714D01*
X61769571Y-91855000D01*
X61626714Y-91855000D01*
X61555285Y-91890714D01*
X61519571Y-91926428D01*
X61483857Y-91997857D01*
G04 #@! TO.C,R17*
X57849285Y-94832142D02*
X57492142Y-95082142D01*
X57849285Y-95260714D02*
X57099285Y-95260714D01*
X57099285Y-94975000D01*
X57135000Y-94903571D01*
X57170714Y-94867857D01*
X57242142Y-94832142D01*
X57349285Y-94832142D01*
X57420714Y-94867857D01*
X57456428Y-94903571D01*
X57492142Y-94975000D01*
X57492142Y-95260714D01*
X57849285Y-94117857D02*
X57849285Y-94546428D01*
X57849285Y-94332142D02*
X57099285Y-94332142D01*
X57206428Y-94403571D01*
X57277857Y-94475000D01*
X57313571Y-94546428D01*
X57099285Y-93867857D02*
X57099285Y-93367857D01*
X57849285Y-93689285D01*
G04 #@! TO.C,R18*
X85829285Y-65622142D02*
X85472142Y-65872142D01*
X85829285Y-66050714D02*
X85079285Y-66050714D01*
X85079285Y-65765000D01*
X85115000Y-65693571D01*
X85150714Y-65657857D01*
X85222142Y-65622142D01*
X85329285Y-65622142D01*
X85400714Y-65657857D01*
X85436428Y-65693571D01*
X85472142Y-65765000D01*
X85472142Y-66050714D01*
X85829285Y-64907857D02*
X85829285Y-65336428D01*
X85829285Y-65122142D02*
X85079285Y-65122142D01*
X85186428Y-65193571D01*
X85257857Y-65265000D01*
X85293571Y-65336428D01*
X85400714Y-64479285D02*
X85365000Y-64550714D01*
X85329285Y-64586428D01*
X85257857Y-64622142D01*
X85222142Y-64622142D01*
X85150714Y-64586428D01*
X85115000Y-64550714D01*
X85079285Y-64479285D01*
X85079285Y-64336428D01*
X85115000Y-64265000D01*
X85150714Y-64229285D01*
X85222142Y-64193571D01*
X85257857Y-64193571D01*
X85329285Y-64229285D01*
X85365000Y-64265000D01*
X85400714Y-64336428D01*
X85400714Y-64479285D01*
X85436428Y-64550714D01*
X85472142Y-64586428D01*
X85543571Y-64622142D01*
X85686428Y-64622142D01*
X85757857Y-64586428D01*
X85793571Y-64550714D01*
X85829285Y-64479285D01*
X85829285Y-64336428D01*
X85793571Y-64265000D01*
X85757857Y-64229285D01*
X85686428Y-64193571D01*
X85543571Y-64193571D01*
X85472142Y-64229285D01*
X85436428Y-64265000D01*
X85400714Y-64336428D01*
G04 #@! TO.C,R22*
X83849285Y-65612142D02*
X83492142Y-65862142D01*
X83849285Y-66040714D02*
X83099285Y-66040714D01*
X83099285Y-65755000D01*
X83135000Y-65683571D01*
X83170714Y-65647857D01*
X83242142Y-65612142D01*
X83349285Y-65612142D01*
X83420714Y-65647857D01*
X83456428Y-65683571D01*
X83492142Y-65755000D01*
X83492142Y-66040714D01*
X83170714Y-65326428D02*
X83135000Y-65290714D01*
X83099285Y-65219285D01*
X83099285Y-65040714D01*
X83135000Y-64969285D01*
X83170714Y-64933571D01*
X83242142Y-64897857D01*
X83313571Y-64897857D01*
X83420714Y-64933571D01*
X83849285Y-65362142D01*
X83849285Y-64897857D01*
X83170714Y-64612142D02*
X83135000Y-64576428D01*
X83099285Y-64505000D01*
X83099285Y-64326428D01*
X83135000Y-64255000D01*
X83170714Y-64219285D01*
X83242142Y-64183571D01*
X83313571Y-64183571D01*
X83420714Y-64219285D01*
X83849285Y-64647857D01*
X83849285Y-64183571D01*
G04 #@! TO.C,IC1*
X74347857Y-112899285D02*
X74347857Y-112149285D01*
X75133571Y-112827857D02*
X75097857Y-112863571D01*
X74990714Y-112899285D01*
X74919285Y-112899285D01*
X74812142Y-112863571D01*
X74740714Y-112792142D01*
X74705000Y-112720714D01*
X74669285Y-112577857D01*
X74669285Y-112470714D01*
X74705000Y-112327857D01*
X74740714Y-112256428D01*
X74812142Y-112185000D01*
X74919285Y-112149285D01*
X74990714Y-112149285D01*
X75097857Y-112185000D01*
X75133571Y-112220714D01*
X75847857Y-112899285D02*
X75419285Y-112899285D01*
X75633571Y-112899285D02*
X75633571Y-112149285D01*
X75562142Y-112256428D01*
X75490714Y-112327857D01*
X75419285Y-112363571D01*
G04 #@! TO.C,IC2*
X81787857Y-88999285D02*
X81787857Y-88249285D01*
X82573571Y-88927857D02*
X82537857Y-88963571D01*
X82430714Y-88999285D01*
X82359285Y-88999285D01*
X82252142Y-88963571D01*
X82180714Y-88892142D01*
X82145000Y-88820714D01*
X82109285Y-88677857D01*
X82109285Y-88570714D01*
X82145000Y-88427857D01*
X82180714Y-88356428D01*
X82252142Y-88285000D01*
X82359285Y-88249285D01*
X82430714Y-88249285D01*
X82537857Y-88285000D01*
X82573571Y-88320714D01*
X82859285Y-88320714D02*
X82895000Y-88285000D01*
X82966428Y-88249285D01*
X83145000Y-88249285D01*
X83216428Y-88285000D01*
X83252142Y-88320714D01*
X83287857Y-88392142D01*
X83287857Y-88463571D01*
X83252142Y-88570714D01*
X82823571Y-88999285D01*
X83287857Y-88999285D01*
G04 #@! TO.C,IC3*
X83677857Y-76699285D02*
X83677857Y-75949285D01*
X84463571Y-76627857D02*
X84427857Y-76663571D01*
X84320714Y-76699285D01*
X84249285Y-76699285D01*
X84142142Y-76663571D01*
X84070714Y-76592142D01*
X84035000Y-76520714D01*
X83999285Y-76377857D01*
X83999285Y-76270714D01*
X84035000Y-76127857D01*
X84070714Y-76056428D01*
X84142142Y-75985000D01*
X84249285Y-75949285D01*
X84320714Y-75949285D01*
X84427857Y-75985000D01*
X84463571Y-76020714D01*
X84713571Y-75949285D02*
X85177857Y-75949285D01*
X84927857Y-76235000D01*
X85035000Y-76235000D01*
X85106428Y-76270714D01*
X85142142Y-76306428D01*
X85177857Y-76377857D01*
X85177857Y-76556428D01*
X85142142Y-76627857D01*
X85106428Y-76663571D01*
X85035000Y-76699285D01*
X84820714Y-76699285D01*
X84749285Y-76663571D01*
X84713571Y-76627857D01*
G04 #@! TO.C,IC4*
X75707857Y-88959285D02*
X75707857Y-88209285D01*
X76493571Y-88887857D02*
X76457857Y-88923571D01*
X76350714Y-88959285D01*
X76279285Y-88959285D01*
X76172142Y-88923571D01*
X76100714Y-88852142D01*
X76065000Y-88780714D01*
X76029285Y-88637857D01*
X76029285Y-88530714D01*
X76065000Y-88387857D01*
X76100714Y-88316428D01*
X76172142Y-88245000D01*
X76279285Y-88209285D01*
X76350714Y-88209285D01*
X76457857Y-88245000D01*
X76493571Y-88280714D01*
X77136428Y-88459285D02*
X77136428Y-88959285D01*
X76957857Y-88173571D02*
X76779285Y-88709285D01*
X77243571Y-88709285D01*
G04 #@! TO.C,IC5*
X65242848Y-88979285D02*
X65242848Y-88229285D01*
X66028562Y-88907857D02*
X65992848Y-88943571D01*
X65885705Y-88979285D01*
X65814276Y-88979285D01*
X65707133Y-88943571D01*
X65635705Y-88872142D01*
X65599991Y-88800714D01*
X65564276Y-88657857D01*
X65564276Y-88550714D01*
X65599991Y-88407857D01*
X65635705Y-88336428D01*
X65707133Y-88265000D01*
X65814276Y-88229285D01*
X65885705Y-88229285D01*
X65992848Y-88265000D01*
X66028562Y-88300714D01*
X66707133Y-88229285D02*
X66349991Y-88229285D01*
X66314276Y-88586428D01*
X66349991Y-88550714D01*
X66421419Y-88515000D01*
X66599991Y-88515000D01*
X66671419Y-88550714D01*
X66707133Y-88586428D01*
X66742848Y-88657857D01*
X66742848Y-88836428D01*
X66707133Y-88907857D01*
X66671419Y-88943571D01*
X66599991Y-88979285D01*
X66421419Y-88979285D01*
X66349991Y-88943571D01*
X66314276Y-88907857D01*
G04 #@! TO.C,IC6*
X67147857Y-76599285D02*
X67147857Y-75849285D01*
X67933571Y-76527857D02*
X67897857Y-76563571D01*
X67790714Y-76599285D01*
X67719285Y-76599285D01*
X67612142Y-76563571D01*
X67540714Y-76492142D01*
X67505000Y-76420714D01*
X67469285Y-76277857D01*
X67469285Y-76170714D01*
X67505000Y-76027857D01*
X67540714Y-75956428D01*
X67612142Y-75885000D01*
X67719285Y-75849285D01*
X67790714Y-75849285D01*
X67897857Y-75885000D01*
X67933571Y-75920714D01*
X68576428Y-75849285D02*
X68433571Y-75849285D01*
X68362142Y-75885000D01*
X68326428Y-75920714D01*
X68255000Y-76027857D01*
X68219285Y-76170714D01*
X68219285Y-76456428D01*
X68255000Y-76527857D01*
X68290714Y-76563571D01*
X68362142Y-76599285D01*
X68505000Y-76599285D01*
X68576428Y-76563571D01*
X68612142Y-76527857D01*
X68647857Y-76456428D01*
X68647857Y-76277857D01*
X68612142Y-76206428D01*
X68576428Y-76170714D01*
X68505000Y-76135000D01*
X68362142Y-76135000D01*
X68290714Y-76170714D01*
X68255000Y-76206428D01*
X68219285Y-76277857D01*
G04 #@! TO.C,IC7*
X59117857Y-88929285D02*
X59117857Y-88179285D01*
X59903571Y-88857857D02*
X59867857Y-88893571D01*
X59760714Y-88929285D01*
X59689285Y-88929285D01*
X59582142Y-88893571D01*
X59510714Y-88822142D01*
X59475000Y-88750714D01*
X59439285Y-88607857D01*
X59439285Y-88500714D01*
X59475000Y-88357857D01*
X59510714Y-88286428D01*
X59582142Y-88215000D01*
X59689285Y-88179285D01*
X59760714Y-88179285D01*
X59867857Y-88215000D01*
X59903571Y-88250714D01*
X60153571Y-88179285D02*
X60653571Y-88179285D01*
X60332142Y-88929285D01*
G04 #@! TO.C,IC8*
X65257857Y-108869285D02*
X65257857Y-108119285D01*
X66043571Y-108797857D02*
X66007857Y-108833571D01*
X65900714Y-108869285D01*
X65829285Y-108869285D01*
X65722142Y-108833571D01*
X65650714Y-108762142D01*
X65615000Y-108690714D01*
X65579285Y-108547857D01*
X65579285Y-108440714D01*
X65615000Y-108297857D01*
X65650714Y-108226428D01*
X65722142Y-108155000D01*
X65829285Y-108119285D01*
X65900714Y-108119285D01*
X66007857Y-108155000D01*
X66043571Y-108190714D01*
X66472142Y-108440714D02*
X66400714Y-108405000D01*
X66365000Y-108369285D01*
X66329285Y-108297857D01*
X66329285Y-108262142D01*
X66365000Y-108190714D01*
X66400714Y-108155000D01*
X66472142Y-108119285D01*
X66615000Y-108119285D01*
X66686428Y-108155000D01*
X66722142Y-108190714D01*
X66757857Y-108262142D01*
X66757857Y-108297857D01*
X66722142Y-108369285D01*
X66686428Y-108405000D01*
X66615000Y-108440714D01*
X66472142Y-108440714D01*
X66400714Y-108476428D01*
X66365000Y-108512142D01*
X66329285Y-108583571D01*
X66329285Y-108726428D01*
X66365000Y-108797857D01*
X66400714Y-108833571D01*
X66472142Y-108869285D01*
X66615000Y-108869285D01*
X66686428Y-108833571D01*
X66722142Y-108797857D01*
X66757857Y-108726428D01*
X66757857Y-108583571D01*
X66722142Y-108512142D01*
X66686428Y-108476428D01*
X66615000Y-108440714D01*
G04 #@! TO.C,IC9*
X67177857Y-96549285D02*
X67177857Y-95799285D01*
X67963571Y-96477857D02*
X67927857Y-96513571D01*
X67820714Y-96549285D01*
X67749285Y-96549285D01*
X67642142Y-96513571D01*
X67570714Y-96442142D01*
X67535000Y-96370714D01*
X67499285Y-96227857D01*
X67499285Y-96120714D01*
X67535000Y-95977857D01*
X67570714Y-95906428D01*
X67642142Y-95835000D01*
X67749285Y-95799285D01*
X67820714Y-95799285D01*
X67927857Y-95835000D01*
X67963571Y-95870714D01*
X68320714Y-96549285D02*
X68463571Y-96549285D01*
X68535000Y-96513571D01*
X68570714Y-96477857D01*
X68642142Y-96370714D01*
X68677857Y-96227857D01*
X68677857Y-95942142D01*
X68642142Y-95870714D01*
X68606428Y-95835000D01*
X68535000Y-95799285D01*
X68392142Y-95799285D01*
X68320714Y-95835000D01*
X68285000Y-95870714D01*
X68249285Y-95942142D01*
X68249285Y-96120714D01*
X68285000Y-96192142D01*
X68320714Y-96227857D01*
X68392142Y-96263571D01*
X68535000Y-96263571D01*
X68606428Y-96227857D01*
X68642142Y-96192142D01*
X68677857Y-96120714D01*
G04 #@! TO.C,IC10*
X58800714Y-108879285D02*
X58800714Y-108129285D01*
X59586428Y-108807857D02*
X59550714Y-108843571D01*
X59443571Y-108879285D01*
X59372142Y-108879285D01*
X59265000Y-108843571D01*
X59193571Y-108772142D01*
X59157857Y-108700714D01*
X59122142Y-108557857D01*
X59122142Y-108450714D01*
X59157857Y-108307857D01*
X59193571Y-108236428D01*
X59265000Y-108165000D01*
X59372142Y-108129285D01*
X59443571Y-108129285D01*
X59550714Y-108165000D01*
X59586428Y-108200714D01*
X60300714Y-108879285D02*
X59872142Y-108879285D01*
X60086428Y-108879285D02*
X60086428Y-108129285D01*
X60015000Y-108236428D01*
X59943571Y-108307857D01*
X59872142Y-108343571D01*
X60765000Y-108129285D02*
X60836428Y-108129285D01*
X60907857Y-108165000D01*
X60943571Y-108200714D01*
X60979285Y-108272142D01*
X61015000Y-108415000D01*
X61015000Y-108593571D01*
X60979285Y-108736428D01*
X60943571Y-108807857D01*
X60907857Y-108843571D01*
X60836428Y-108879285D01*
X60765000Y-108879285D01*
X60693571Y-108843571D01*
X60657857Y-108807857D01*
X60622142Y-108736428D01*
X60586428Y-108593571D01*
X60586428Y-108415000D01*
X60622142Y-108272142D01*
X60657857Y-108200714D01*
X60693571Y-108165000D01*
X60765000Y-108129285D01*
G04 #@! TO.C,IC11*
X81426705Y-108909285D02*
X81426705Y-108159285D01*
X82212419Y-108837857D02*
X82176705Y-108873571D01*
X82069562Y-108909285D01*
X81998133Y-108909285D01*
X81890991Y-108873571D01*
X81819562Y-108802142D01*
X81783848Y-108730714D01*
X81748133Y-108587857D01*
X81748133Y-108480714D01*
X81783848Y-108337857D01*
X81819562Y-108266428D01*
X81890991Y-108195000D01*
X81998133Y-108159285D01*
X82069562Y-108159285D01*
X82176705Y-108195000D01*
X82212419Y-108230714D01*
X82926705Y-108909285D02*
X82498133Y-108909285D01*
X82712419Y-108909285D02*
X82712419Y-108159285D01*
X82640991Y-108266428D01*
X82569562Y-108337857D01*
X82498133Y-108373571D01*
X83640991Y-108909285D02*
X83212419Y-108909285D01*
X83426705Y-108909285D02*
X83426705Y-108159285D01*
X83355276Y-108266428D01*
X83283848Y-108337857D01*
X83212419Y-108373571D01*
G04 #@! TO.C,IC12*
X83351705Y-96549285D02*
X83351705Y-95799285D01*
X84137419Y-96477857D02*
X84101705Y-96513571D01*
X83994562Y-96549285D01*
X83923133Y-96549285D01*
X83815991Y-96513571D01*
X83744562Y-96442142D01*
X83708848Y-96370714D01*
X83673133Y-96227857D01*
X83673133Y-96120714D01*
X83708848Y-95977857D01*
X83744562Y-95906428D01*
X83815991Y-95835000D01*
X83923133Y-95799285D01*
X83994562Y-95799285D01*
X84101705Y-95835000D01*
X84137419Y-95870714D01*
X84851705Y-96549285D02*
X84423133Y-96549285D01*
X84637419Y-96549285D02*
X84637419Y-95799285D01*
X84565991Y-95906428D01*
X84494562Y-95977857D01*
X84423133Y-96013571D01*
X85137419Y-95870714D02*
X85173133Y-95835000D01*
X85244562Y-95799285D01*
X85423133Y-95799285D01*
X85494562Y-95835000D01*
X85530276Y-95870714D01*
X85565991Y-95942142D01*
X85565991Y-96013571D01*
X85530276Y-96120714D01*
X85101705Y-96549285D01*
X85565991Y-96549285D01*
G04 #@! TO.C,IC13*
X75430714Y-108909285D02*
X75430714Y-108159285D01*
X76216428Y-108837857D02*
X76180714Y-108873571D01*
X76073571Y-108909285D01*
X76002142Y-108909285D01*
X75895000Y-108873571D01*
X75823571Y-108802142D01*
X75787857Y-108730714D01*
X75752142Y-108587857D01*
X75752142Y-108480714D01*
X75787857Y-108337857D01*
X75823571Y-108266428D01*
X75895000Y-108195000D01*
X76002142Y-108159285D01*
X76073571Y-108159285D01*
X76180714Y-108195000D01*
X76216428Y-108230714D01*
X76930714Y-108909285D02*
X76502142Y-108909285D01*
X76716428Y-108909285D02*
X76716428Y-108159285D01*
X76645000Y-108266428D01*
X76573571Y-108337857D01*
X76502142Y-108373571D01*
X77180714Y-108159285D02*
X77645000Y-108159285D01*
X77395000Y-108445000D01*
X77502142Y-108445000D01*
X77573571Y-108480714D01*
X77609285Y-108516428D01*
X77645000Y-108587857D01*
X77645000Y-108766428D01*
X77609285Y-108837857D01*
X77573571Y-108873571D01*
X77502142Y-108909285D01*
X77287857Y-108909285D01*
X77216428Y-108873571D01*
X77180714Y-108837857D01*
G04 #@! TO.C,IC14*
X62400714Y-118269285D02*
X62400714Y-117519285D01*
X63186428Y-118197857D02*
X63150714Y-118233571D01*
X63043571Y-118269285D01*
X62972142Y-118269285D01*
X62865000Y-118233571D01*
X62793571Y-118162142D01*
X62757857Y-118090714D01*
X62722142Y-117947857D01*
X62722142Y-117840714D01*
X62757857Y-117697857D01*
X62793571Y-117626428D01*
X62865000Y-117555000D01*
X62972142Y-117519285D01*
X63043571Y-117519285D01*
X63150714Y-117555000D01*
X63186428Y-117590714D01*
X63900714Y-118269285D02*
X63472142Y-118269285D01*
X63686428Y-118269285D02*
X63686428Y-117519285D01*
X63615000Y-117626428D01*
X63543571Y-117697857D01*
X63472142Y-117733571D01*
X64543571Y-117769285D02*
X64543571Y-118269285D01*
X64365000Y-117483571D02*
X64186428Y-118019285D01*
X64650714Y-118019285D01*
G04 #@! TD*
M02*
