G04 #@! TF.GenerationSoftware,KiCad,Pcbnew,(5.1.5)-3*
G04 #@! TF.CreationDate,2020-01-15T16:09:59-07:00*
G04 #@! TF.ProjectId,Station06,53746174-696f-46e3-9036-2e6b69636164,rev?*
G04 #@! TF.SameCoordinates,Original*
G04 #@! TF.FileFunction,Legend,Bot*
G04 #@! TF.FilePolarity,Positive*
%FSLAX46Y46*%
G04 Gerber Fmt 4.6, Leading zero omitted, Abs format (unit mm)*
G04 Created by KiCad (PCBNEW (5.1.5)-3) date 2020-01-15 16:09:59*
%MOMM*%
%LPD*%
G04 APERTURE LIST*
%ADD10C,0.150000*%
%ADD11C,0.120000*%
G04 APERTURE END LIST*
D10*
X103690476Y-89902380D02*
X104261904Y-89902380D01*
X103976190Y-89902380D02*
X103976190Y-88902380D01*
X104071428Y-89045238D01*
X104166666Y-89140476D01*
X104261904Y-89188095D01*
X103071428Y-88902380D02*
X102976190Y-88902380D01*
X102880952Y-88950000D01*
X102833333Y-88997619D01*
X102785714Y-89092857D01*
X102738095Y-89283333D01*
X102738095Y-89521428D01*
X102785714Y-89711904D01*
X102833333Y-89807142D01*
X102880952Y-89854761D01*
X102976190Y-89902380D01*
X103071428Y-89902380D01*
X103166666Y-89854761D01*
X103214285Y-89807142D01*
X103261904Y-89711904D01*
X103309523Y-89521428D01*
X103309523Y-89283333D01*
X103261904Y-89092857D01*
X103214285Y-88997619D01*
X103166666Y-88950000D01*
X103071428Y-88902380D01*
X105830476Y-77402380D02*
X105640000Y-77402380D01*
X105544761Y-77354761D01*
X105497142Y-77307142D01*
X105401904Y-77164285D01*
X105354285Y-76973809D01*
X105354285Y-76592857D01*
X105401904Y-76497619D01*
X105449523Y-76450000D01*
X105544761Y-76402380D01*
X105735238Y-76402380D01*
X105830476Y-76450000D01*
X105878095Y-76497619D01*
X105925714Y-76592857D01*
X105925714Y-76830952D01*
X105878095Y-76926190D01*
X105830476Y-76973809D01*
X105735238Y-77021428D01*
X105544761Y-77021428D01*
X105449523Y-76973809D01*
X105401904Y-76926190D01*
X105354285Y-76830952D01*
X112055238Y-65830952D02*
X112150476Y-65783333D01*
X112198095Y-65735714D01*
X112245714Y-65640476D01*
X112245714Y-65592857D01*
X112198095Y-65497619D01*
X112150476Y-65450000D01*
X112055238Y-65402380D01*
X111864761Y-65402380D01*
X111769523Y-65450000D01*
X111721904Y-65497619D01*
X111674285Y-65592857D01*
X111674285Y-65640476D01*
X111721904Y-65735714D01*
X111769523Y-65783333D01*
X111864761Y-65830952D01*
X112055238Y-65830952D01*
X112150476Y-65878571D01*
X112198095Y-65926190D01*
X112245714Y-66021428D01*
X112245714Y-66211904D01*
X112198095Y-66307142D01*
X112150476Y-66354761D01*
X112055238Y-66402380D01*
X111864761Y-66402380D01*
X111769523Y-66354761D01*
X111721904Y-66307142D01*
X111674285Y-66211904D01*
X111674285Y-66021428D01*
X111721904Y-65926190D01*
X111769523Y-65878571D01*
X111864761Y-65830952D01*
X122033333Y-57232380D02*
X121366666Y-57232380D01*
X121795238Y-58232380D01*
X133489523Y-52932380D02*
X133680000Y-52932380D01*
X133775238Y-52980000D01*
X133822857Y-53027619D01*
X133918095Y-53170476D01*
X133965714Y-53360952D01*
X133965714Y-53741904D01*
X133918095Y-53837142D01*
X133870476Y-53884761D01*
X133775238Y-53932380D01*
X133584761Y-53932380D01*
X133489523Y-53884761D01*
X133441904Y-53837142D01*
X133394285Y-53741904D01*
X133394285Y-53503809D01*
X133441904Y-53408571D01*
X133489523Y-53360952D01*
X133584761Y-53313333D01*
X133775238Y-53313333D01*
X133870476Y-53360952D01*
X133918095Y-53408571D01*
X133965714Y-53503809D01*
X146131904Y-52892380D02*
X146608095Y-52892380D01*
X146655714Y-53368571D01*
X146608095Y-53320952D01*
X146512857Y-53273333D01*
X146274761Y-53273333D01*
X146179523Y-53320952D01*
X146131904Y-53368571D01*
X146084285Y-53463809D01*
X146084285Y-53701904D01*
X146131904Y-53797142D01*
X146179523Y-53844761D01*
X146274761Y-53892380D01*
X146512857Y-53892380D01*
X146608095Y-53844761D01*
X146655714Y-53797142D01*
X158119523Y-57605714D02*
X158119523Y-58272380D01*
X158357619Y-57224761D02*
X158595714Y-57939047D01*
X157976666Y-57939047D01*
X168263333Y-65452380D02*
X167644285Y-65452380D01*
X167977619Y-65833333D01*
X167834761Y-65833333D01*
X167739523Y-65880952D01*
X167691904Y-65928571D01*
X167644285Y-66023809D01*
X167644285Y-66261904D01*
X167691904Y-66357142D01*
X167739523Y-66404761D01*
X167834761Y-66452380D01*
X168120476Y-66452380D01*
X168215714Y-66404761D01*
X168263333Y-66357142D01*
X174635714Y-76487619D02*
X174588095Y-76440000D01*
X174492857Y-76392380D01*
X174254761Y-76392380D01*
X174159523Y-76440000D01*
X174111904Y-76487619D01*
X174064285Y-76582857D01*
X174064285Y-76678095D01*
X174111904Y-76820952D01*
X174683333Y-77392380D01*
X174064285Y-77392380D01*
X176294285Y-89912380D02*
X176865714Y-89912380D01*
X176580000Y-89912380D02*
X176580000Y-88912380D01*
X176675238Y-89055238D01*
X176770476Y-89150476D01*
X176865714Y-89198095D01*
D11*
X132360000Y-97890000D02*
G75*
G02X132810000Y-97440000I450000J0D01*
G01*
X148190000Y-97440000D02*
G75*
G02X148640000Y-97890000I0J-450000D01*
G01*
X132810000Y-102560000D02*
G75*
G02X132360000Y-102110000I0J450000D01*
G01*
X148640000Y-102110000D02*
G75*
G02X148190000Y-102560000I-450000J0D01*
G01*
X148190000Y-102560000D02*
X132810000Y-102560000D01*
X148190000Y-97440000D02*
X132810000Y-97440000D01*
X132360000Y-102110000D02*
X132360000Y-97890000D01*
X148640000Y-97890000D02*
X148640000Y-102110000D01*
X148960000Y-100370000D02*
X148960000Y-101170000D01*
X148960000Y-101170000D02*
X148640000Y-101370000D01*
X132040000Y-101170000D02*
X132360000Y-101370000D01*
X132040000Y-100370000D02*
X132040000Y-101170000D01*
X132040000Y-100370000D02*
X132360000Y-100170000D01*
X148960000Y-100370000D02*
X148640000Y-100170000D01*
M02*
