M48
; DRILL file {KiCad (5.1.5)-3} date 1/15/2020 4:09:57 PM
; FORMAT={-:-/ absolute / inch / decimal}
; #@! TF.CreationDate,2020-01-15T16:09:57-07:00
; #@! TF.GenerationSoftware,Kicad,Pcbnew,(5.1.5)-3
; #@! TF.FileFunction,Plated,1,4,PTH
FMAT,2
INCH
T1C0.0130
T2C0.0394
T3C0.0400
T4C0.0571
%
G90
G05
T1
X4.1379Y-3.7422
X4.2181Y-3.2728
X4.2467Y-3.7765
X4.2487Y-3.7136
X4.3365Y-3.2876
X4.3564Y-3.78
X4.3583Y-3.717
X4.4181Y-3.39
X4.4424Y-3.3319
X4.4661Y-3.7834
X4.468Y-3.7205
X4.476Y-2.8264
X4.5241Y-3.4343
X4.5483Y-3.3762
X4.5757Y-3.7869
X4.5777Y-3.7239
X4.5845Y-2.8885
X4.6263Y-3.0182
X4.63Y-3.4786
X4.6543Y-3.4205
X4.6706Y-2.9734
X4.6854Y-3.7903
X4.6874Y-3.7274
X4.7124Y-3.1031
X4.736Y-3.523
X4.7567Y-3.0583
X4.7603Y-3.4648
X4.7951Y-3.7938
X4.7971Y-3.7308
X4.7985Y-3.188
X4.8221Y-2.55
X4.8419Y-3.5673
X4.8428Y-3.1432
X4.8523Y-2.6744
X4.8662Y-3.5092
X4.8846Y-3.2729
X4.9048Y-3.7972
X4.9068Y-3.7343
X4.9105Y-2.7845
X4.9288Y-3.2281
X4.9479Y-3.6116
X4.9662Y-2.755
X4.9688Y-2.8945
X4.9707Y-3.3578
X4.9722Y-3.5535
X5.0144Y-3.8007
X5.0149Y-3.313
X5.0164Y-3.7377
X5.0244Y-2.865
X5.027Y-3.0045
X5.0538Y-3.6559
X5.0568Y-3.4427
X5.0781Y-3.5978
X5.0827Y-2.975
X5.0853Y-3.1145
X5.101Y-3.3978
X5.1241Y-3.8041
X5.1261Y-3.7411
X5.1409Y-3.085
X5.1429Y-3.5276
X5.1435Y-3.2245
X5.1598Y-3.7002
X5.1841Y-3.6421
X5.1871Y-3.4828
X5.1992Y-3.195
X5.2018Y-3.3345
X5.2289Y-3.6125
X5.2338Y-3.8076
X5.2574Y-3.305
X5.26Y-3.4445
X5.2617Y-2.5151
X5.2657Y-3.7446
X5.2724Y-2.3846
X5.2732Y-3.5676
X5.2826Y-2.6401
X5.3036Y-2.765
X5.315Y-3.6974
X5.3157Y-3.4151
X5.3183Y-3.5546
X5.3239Y-2.5047
X5.3245Y-2.89
X5.3445Y-3.7799
X5.3448Y-2.6296
X5.3454Y-3.015
X5.3657Y-2.7546
X5.3663Y-3.14
X5.3732Y-3.6642
X5.3739Y-3.5251
X5.3839Y-3.7598
X5.3866Y-2.8796
X5.3872Y-3.265
X5.4075Y-3.0046
X5.4081Y-3.39
X5.4232Y-3.7598
X5.4285Y-3.1296
X5.4291Y-3.515
X5.4429Y-3.6417
X5.4494Y-3.2546
X5.4626Y-3.7598
X5.4703Y-3.3796
X5.4912Y-3.5046
X5.502Y-3.7598
X5.522Y-3.6295
X5.5413Y-3.7598
X5.5485Y-3.5049
X5.5676Y-3.3798
X5.5807Y-3.7598
X5.5868Y-3.2547
X5.6035Y-3.6331
X5.6059Y-3.1296
X5.6107Y-3.5144
X5.6201Y-3.7598
X5.6251Y-3.0045
X5.6299Y-3.3893
X5.6442Y-2.8794
X5.6491Y-3.2642
X5.6594Y-3.7598
X5.6633Y-2.7543
X5.666Y-3.525
X5.6682Y-3.1391
X5.6823Y-3.652
X5.6825Y-2.6292
X5.6828Y-3.6523
X5.6873Y-3.014
X5.6988Y-3.7795
X5.7017Y-2.5041
X5.7065Y-2.8889
X5.722Y-3.5538
X5.7226Y-3.4148
X5.7256Y-2.7638
X5.7448Y-2.6387
X5.75Y-3.6866
X5.7525Y-2.384
X5.7639Y-2.5136
X5.7678Y-3.567
X5.7786Y-3.4436
X5.7793Y-3.3046
X5.7988Y-3.7417
X5.8069Y-3.8076
X5.8124Y-3.6115
X5.8353Y-3.3334
X5.8359Y-3.1944
X5.8527Y-3.4818
X5.8556Y-3.6424
X5.8802Y-3.7004
X5.8919Y-3.2232
X5.8925Y-3.0842
X5.8974Y-3.5262
X5.9149Y-3.7413
X5.9149Y-3.8043
X5.9377Y-3.3965
X5.9485Y-3.113
X5.9492Y-2.974
X5.9598Y-3.5981
X5.9823Y-3.4409
X5.9844Y-3.6561
X6.0052Y-3.0028
X6.0058Y-2.8638
X6.0227Y-3.3112
X6.0229Y-3.7379
X6.023Y-3.8009
X6.0618Y-2.8926
X6.0624Y-2.7536
X6.064Y-3.5539
X6.0673Y-3.3557
X6.0886Y-3.6119
X6.1077Y-3.2259
X6.1185Y-2.7824
X6.131Y-3.7345
X6.131Y-3.7975
X6.1523Y-3.2704
X6.1682Y-3.5097
X6.176Y-2.6669
X6.1927Y-3.1406
X6.1928Y-3.5677
X6.2038Y-2.5476
X6.2373Y-3.1851
X6.239Y-3.7311
X6.2391Y-3.7941
X6.2724Y-3.4654
X6.2777Y-3.0553
X6.297Y-3.5234
X6.3223Y-3.0998
X6.347Y-3.7278
X6.3471Y-3.7907
X6.3626Y-2.97
X6.3766Y-3.4212
X6.4012Y-3.4792
X6.4073Y-3.0145
X6.4476Y-2.8848
X6.4551Y-3.7244
X6.4552Y-3.7874
X6.4808Y-3.377
X6.5054Y-3.435
X6.5543Y-2.8213
X6.5631Y-3.721
X6.5632Y-3.784
X6.585Y-3.3328
X6.6096Y-3.3907
X6.6712Y-3.7176
X6.6712Y-3.7806
X6.6892Y-3.2885
X6.7793Y-3.7143
X6.7793Y-3.7772
X6.8056Y-3.2727
X6.8873Y-3.7424
T2
X5.2404Y-3.8874
X5.8226Y-3.8874
T3
X3.9674Y-3.6354
X3.9674Y-3.8449
X4.0542Y-3.143
X4.0542Y-3.3525
X4.1769Y-3.6354
X4.1769Y-3.8449
X4.2637Y-3.143
X4.2637Y-3.3525
X4.3042Y-2.71
X4.3042Y-2.9194
X4.5137Y-2.71
X4.5137Y-2.9194
X4.6872Y-2.3886
X4.6872Y-2.5981
X4.8967Y-2.3886
X4.8967Y-2.5981
X5.1571Y-2.2176
X5.1571Y-2.427
X5.3665Y-2.2176
X5.3665Y-2.427
X5.6571Y-2.2176
X5.6571Y-2.427
X5.8665Y-2.2176
X5.8665Y-2.427
X6.1269Y-2.3886
X6.1269Y-2.5981
X6.3364Y-2.3886
X6.3364Y-2.5981
X6.51Y-2.71
X6.51Y-2.9194
X6.7194Y-2.71
X6.7194Y-2.9194
X6.76Y-3.143
X6.76Y-3.3525
X6.8468Y-3.6354
X6.8468Y-3.8449
X6.9694Y-3.143
X6.9694Y-3.3525
X7.0562Y-3.6354
X7.0562Y-3.8449
T4
X5.2984Y-3.9661
X5.7646Y-3.9661
T0
M30
