G04 #@! TF.GenerationSoftware,KiCad,Pcbnew,(5.1.5)-3*
G04 #@! TF.CreationDate,2020-01-16T14:49:26-07:00*
G04 #@! TF.ProjectId,Station06,53746174-696f-46e3-9036-2e6b69636164,rev?*
G04 #@! TF.SameCoordinates,Original*
G04 #@! TF.FileFunction,Soldermask,Top*
G04 #@! TF.FilePolarity,Negative*
%FSLAX46Y46*%
G04 Gerber Fmt 4.6, Leading zero omitted, Abs format (unit mm)*
G04 Created by KiCad (PCBNEW (5.1.5)-3) date 2020-01-16 14:49:26*
%MOMM*%
%LPD*%
G04 APERTURE LIST*
%ADD10C,0.225000*%
%ADD11C,0.500000*%
%ADD12C,0.152400*%
%ADD13C,0.100000*%
G04 APERTURE END LIST*
D10*
X100670000Y-60531071D02*
X100670000Y-59031071D01*
X101027142Y-59031071D01*
X101241428Y-59102500D01*
X101384285Y-59245357D01*
X101455714Y-59388214D01*
X101527142Y-59673928D01*
X101527142Y-59888214D01*
X101455714Y-60173928D01*
X101384285Y-60316785D01*
X101241428Y-60459642D01*
X101027142Y-60531071D01*
X100670000Y-60531071D01*
X102027142Y-59531071D02*
X102384285Y-60531071D01*
X102741428Y-59531071D02*
X102384285Y-60531071D01*
X102241428Y-60888214D01*
X102170000Y-60959642D01*
X102027142Y-61031071D01*
X103527142Y-60531071D02*
X103384285Y-60459642D01*
X103312857Y-60316785D01*
X103312857Y-59031071D01*
X104741428Y-60531071D02*
X104741428Y-59745357D01*
X104670000Y-59602500D01*
X104527142Y-59531071D01*
X104241428Y-59531071D01*
X104098571Y-59602500D01*
X104741428Y-60459642D02*
X104598571Y-60531071D01*
X104241428Y-60531071D01*
X104098571Y-60459642D01*
X104027142Y-60316785D01*
X104027142Y-60173928D01*
X104098571Y-60031071D01*
X104241428Y-59959642D01*
X104598571Y-59959642D01*
X104741428Y-59888214D01*
X105455714Y-59531071D02*
X105455714Y-60531071D01*
X105455714Y-59673928D02*
X105527142Y-59602500D01*
X105670000Y-59531071D01*
X105884285Y-59531071D01*
X106027142Y-59602500D01*
X106098571Y-59745357D01*
X106098571Y-60531071D01*
X108241428Y-59031071D02*
X108527142Y-59031071D01*
X108670000Y-59102500D01*
X108812857Y-59245357D01*
X108884285Y-59531071D01*
X108884285Y-60031071D01*
X108812857Y-60316785D01*
X108670000Y-60459642D01*
X108527142Y-60531071D01*
X108241428Y-60531071D01*
X108098571Y-60459642D01*
X107955714Y-60316785D01*
X107884285Y-60031071D01*
X107884285Y-59531071D01*
X107955714Y-59245357D01*
X108098571Y-59102500D01*
X108241428Y-59031071D01*
X109527142Y-60531071D02*
X109527142Y-59031071D01*
X110170000Y-60531071D02*
X110170000Y-59745357D01*
X110098571Y-59602500D01*
X109955714Y-59531071D01*
X109741428Y-59531071D01*
X109598571Y-59602500D01*
X109527142Y-59673928D01*
X100848571Y-61506071D02*
X100848571Y-62577500D01*
X100777142Y-62791785D01*
X100634285Y-62934642D01*
X100420000Y-63006071D01*
X100277142Y-63006071D01*
X102205714Y-63006071D02*
X102205714Y-62220357D01*
X102134285Y-62077500D01*
X101991428Y-62006071D01*
X101705714Y-62006071D01*
X101562857Y-62077500D01*
X102205714Y-62934642D02*
X102062857Y-63006071D01*
X101705714Y-63006071D01*
X101562857Y-62934642D01*
X101491428Y-62791785D01*
X101491428Y-62648928D01*
X101562857Y-62506071D01*
X101705714Y-62434642D01*
X102062857Y-62434642D01*
X102205714Y-62363214D01*
X102920000Y-62006071D02*
X102920000Y-63006071D01*
X102920000Y-62148928D02*
X102991428Y-62077500D01*
X103134285Y-62006071D01*
X103348571Y-62006071D01*
X103491428Y-62077500D01*
X103562857Y-62220357D01*
X103562857Y-63006071D01*
X105348571Y-61648928D02*
X105420000Y-61577500D01*
X105562857Y-61506071D01*
X105920000Y-61506071D01*
X106062857Y-61577500D01*
X106134285Y-61648928D01*
X106205714Y-61791785D01*
X106205714Y-61934642D01*
X106134285Y-62148928D01*
X105277142Y-63006071D01*
X106205714Y-63006071D01*
X107134285Y-61506071D02*
X107277142Y-61506071D01*
X107420000Y-61577500D01*
X107491428Y-61648928D01*
X107562857Y-61791785D01*
X107634285Y-62077500D01*
X107634285Y-62434642D01*
X107562857Y-62720357D01*
X107491428Y-62863214D01*
X107420000Y-62934642D01*
X107277142Y-63006071D01*
X107134285Y-63006071D01*
X106991428Y-62934642D01*
X106920000Y-62863214D01*
X106848571Y-62720357D01*
X106777142Y-62434642D01*
X106777142Y-62077500D01*
X106848571Y-61791785D01*
X106920000Y-61648928D01*
X106991428Y-61577500D01*
X107134285Y-61506071D01*
X108205714Y-61648928D02*
X108277142Y-61577500D01*
X108420000Y-61506071D01*
X108777142Y-61506071D01*
X108920000Y-61577500D01*
X108991428Y-61648928D01*
X109062857Y-61791785D01*
X109062857Y-61934642D01*
X108991428Y-62148928D01*
X108134285Y-63006071D01*
X109062857Y-63006071D01*
X109991428Y-61506071D02*
X110134285Y-61506071D01*
X110277142Y-61577500D01*
X110348571Y-61648928D01*
X110420000Y-61791785D01*
X110491428Y-62077500D01*
X110491428Y-62434642D01*
X110420000Y-62720357D01*
X110348571Y-62863214D01*
X110277142Y-62934642D01*
X110134285Y-63006071D01*
X109991428Y-63006071D01*
X109848571Y-62934642D01*
X109777142Y-62863214D01*
X109705714Y-62720357D01*
X109634285Y-62434642D01*
X109634285Y-62077500D01*
X109705714Y-61791785D01*
X109777142Y-61648928D01*
X109848571Y-61577500D01*
X109991428Y-61506071D01*
D11*
X100381547Y-57693095D02*
X100758035Y-57824047D01*
X101412797Y-57824047D01*
X101691071Y-57693095D01*
X101838392Y-57562142D01*
X102002083Y-57300238D01*
X102034821Y-57038333D01*
X101936607Y-56776428D01*
X101822023Y-56645476D01*
X101576488Y-56514523D01*
X101069047Y-56383571D01*
X100823511Y-56252619D01*
X100708928Y-56121666D01*
X100610714Y-55859761D01*
X100643452Y-55597857D01*
X100807142Y-55335952D01*
X100954464Y-55205000D01*
X101232738Y-55074047D01*
X101887500Y-55074047D01*
X102263988Y-55205000D01*
X102951488Y-55990714D02*
X103999107Y-55990714D01*
X103458928Y-55074047D02*
X103164285Y-57431190D01*
X103262500Y-57693095D01*
X103508035Y-57824047D01*
X103769940Y-57824047D01*
X105865178Y-57824047D02*
X106045238Y-56383571D01*
X105947023Y-56121666D01*
X105701488Y-55990714D01*
X105177678Y-55990714D01*
X104899404Y-56121666D01*
X105881547Y-57693095D02*
X105603273Y-57824047D01*
X104948511Y-57824047D01*
X104702976Y-57693095D01*
X104604761Y-57431190D01*
X104637500Y-57169285D01*
X104801190Y-56907380D01*
X105079464Y-56776428D01*
X105734226Y-56776428D01*
X106012500Y-56645476D01*
X107011011Y-55990714D02*
X108058630Y-55990714D01*
X107518452Y-55074047D02*
X107223809Y-57431190D01*
X107322023Y-57693095D01*
X107567559Y-57824047D01*
X107829464Y-57824047D01*
X108746130Y-57824047D02*
X108975297Y-55990714D01*
X109089880Y-55074047D02*
X108942559Y-55205000D01*
X109057142Y-55335952D01*
X109204464Y-55205000D01*
X109089880Y-55074047D01*
X109057142Y-55335952D01*
X110448511Y-57824047D02*
X110202976Y-57693095D01*
X110088392Y-57562142D01*
X109990178Y-57300238D01*
X110088392Y-56514523D01*
X110252083Y-56252619D01*
X110399404Y-56121666D01*
X110677678Y-55990714D01*
X111070535Y-55990714D01*
X111316071Y-56121666D01*
X111430654Y-56252619D01*
X111528869Y-56514523D01*
X111430654Y-57300238D01*
X111266964Y-57562142D01*
X111119642Y-57693095D01*
X110841369Y-57824047D01*
X110448511Y-57824047D01*
X112772916Y-55990714D02*
X112543750Y-57824047D01*
X112740178Y-56252619D02*
X112887500Y-56121666D01*
X113165773Y-55990714D01*
X113558630Y-55990714D01*
X113804166Y-56121666D01*
X113902380Y-56383571D01*
X113722321Y-57824047D01*
X115899404Y-55074047D02*
X116161309Y-55074047D01*
X116406845Y-55205000D01*
X116521428Y-55335952D01*
X116619642Y-55597857D01*
X116685119Y-56121666D01*
X116603273Y-56776428D01*
X116406845Y-57300238D01*
X116243154Y-57562142D01*
X116095833Y-57693095D01*
X115817559Y-57824047D01*
X115555654Y-57824047D01*
X115310119Y-57693095D01*
X115195535Y-57562142D01*
X115097321Y-57300238D01*
X115031845Y-56776428D01*
X115113690Y-56121666D01*
X115310119Y-55597857D01*
X115473809Y-55335952D01*
X115621130Y-55205000D01*
X115899404Y-55074047D01*
X119173214Y-55074047D02*
X118649404Y-55074047D01*
X118371130Y-55205000D01*
X118223809Y-55335952D01*
X117912797Y-55728809D01*
X117716369Y-56252619D01*
X117585416Y-57300238D01*
X117683630Y-57562142D01*
X117798214Y-57693095D01*
X118043750Y-57824047D01*
X118567559Y-57824047D01*
X118845833Y-57693095D01*
X118993154Y-57562142D01*
X119156845Y-57300238D01*
X119238690Y-56645476D01*
X119140476Y-56383571D01*
X119025892Y-56252619D01*
X118780357Y-56121666D01*
X118256547Y-56121666D01*
X117978273Y-56252619D01*
X117830952Y-56383571D01*
X117667261Y-56645476D01*
D12*
X144991300Y-96000000D02*
G75*
G03X144991300Y-96000000I-241300J0D01*
G01*
X143991300Y-95500000D02*
G75*
G03X143991300Y-95500000I-241300J0D01*
G01*
X142991300Y-95500000D02*
G75*
G03X142991300Y-95500000I-241300J0D01*
G01*
X141991300Y-95500000D02*
G75*
G03X141991300Y-95500000I-241300J0D01*
G01*
X140991300Y-95500000D02*
G75*
G03X140991300Y-95500000I-241300J0D01*
G01*
X139991300Y-95500000D02*
G75*
G03X139991300Y-95500000I-241300J0D01*
G01*
X138991300Y-95500000D02*
G75*
G03X138991300Y-95500000I-241300J0D01*
G01*
X137991300Y-95500000D02*
G75*
G03X137991300Y-95500000I-241300J0D01*
G01*
X136991300Y-95500000D02*
G75*
G03X136991300Y-95500000I-241300J0D01*
G01*
X135991300Y-96000000D02*
G75*
G03X135991300Y-96000000I-241300J0D01*
G01*
D13*
G36*
X146646348Y-99993820D02*
G01*
X146646350Y-99993821D01*
X146646351Y-99993821D01*
X146787574Y-100052317D01*
X146787577Y-100052319D01*
X146914669Y-100137239D01*
X147022761Y-100245331D01*
X147107681Y-100372423D01*
X147107683Y-100372426D01*
X147166179Y-100513649D01*
X147196000Y-100663571D01*
X147196000Y-100816429D01*
X147166179Y-100966351D01*
X147107683Y-101107574D01*
X147107681Y-101107577D01*
X147022761Y-101234669D01*
X146914669Y-101342761D01*
X146787577Y-101427681D01*
X146787574Y-101427683D01*
X146646351Y-101486179D01*
X146646350Y-101486179D01*
X146646348Y-101486180D01*
X146496431Y-101516000D01*
X146343569Y-101516000D01*
X146193652Y-101486180D01*
X146193650Y-101486179D01*
X146193649Y-101486179D01*
X146052426Y-101427683D01*
X146052423Y-101427681D01*
X145925331Y-101342761D01*
X145817239Y-101234669D01*
X145732319Y-101107577D01*
X145732317Y-101107574D01*
X145673821Y-100966351D01*
X145644000Y-100816429D01*
X145644000Y-100663571D01*
X145673821Y-100513649D01*
X145732317Y-100372426D01*
X145732319Y-100372423D01*
X145817239Y-100245331D01*
X145925331Y-100137239D01*
X146052423Y-100052319D01*
X146052426Y-100052317D01*
X146193649Y-99993821D01*
X146193650Y-99993821D01*
X146193652Y-99993820D01*
X146343569Y-99964000D01*
X146496431Y-99964000D01*
X146646348Y-99993820D01*
G37*
G36*
X134806348Y-99993820D02*
G01*
X134806350Y-99993821D01*
X134806351Y-99993821D01*
X134947574Y-100052317D01*
X134947577Y-100052319D01*
X135074669Y-100137239D01*
X135182761Y-100245331D01*
X135267681Y-100372423D01*
X135267683Y-100372426D01*
X135326179Y-100513649D01*
X135356000Y-100663571D01*
X135356000Y-100816429D01*
X135326179Y-100966351D01*
X135267683Y-101107574D01*
X135267681Y-101107577D01*
X135182761Y-101234669D01*
X135074669Y-101342761D01*
X134947577Y-101427681D01*
X134947574Y-101427683D01*
X134806351Y-101486179D01*
X134806350Y-101486179D01*
X134806348Y-101486180D01*
X134656431Y-101516000D01*
X134503569Y-101516000D01*
X134353652Y-101486180D01*
X134353650Y-101486179D01*
X134353649Y-101486179D01*
X134212426Y-101427683D01*
X134212423Y-101427681D01*
X134085331Y-101342761D01*
X133977239Y-101234669D01*
X133892319Y-101107577D01*
X133892317Y-101107574D01*
X133833821Y-100966351D01*
X133804000Y-100816429D01*
X133804000Y-100663571D01*
X133833821Y-100513649D01*
X133892317Y-100372426D01*
X133892319Y-100372423D01*
X133977239Y-100245331D01*
X134085331Y-100137239D01*
X134212423Y-100052319D01*
X134212426Y-100052317D01*
X134353649Y-99993821D01*
X134353650Y-99993821D01*
X134353652Y-99993820D01*
X134503569Y-99964000D01*
X134656431Y-99964000D01*
X134806348Y-99993820D01*
G37*
G36*
X148143228Y-97921703D02*
G01*
X148298100Y-97985853D01*
X148437481Y-98078985D01*
X148556015Y-98197519D01*
X148649147Y-98336900D01*
X148713297Y-98491772D01*
X148746000Y-98656184D01*
X148746000Y-98823816D01*
X148713297Y-98988228D01*
X148649147Y-99143100D01*
X148556015Y-99282481D01*
X148437481Y-99401015D01*
X148298100Y-99494147D01*
X148143228Y-99558297D01*
X147978816Y-99591000D01*
X147811184Y-99591000D01*
X147646772Y-99558297D01*
X147491900Y-99494147D01*
X147352519Y-99401015D01*
X147233985Y-99282481D01*
X147140853Y-99143100D01*
X147076703Y-98988228D01*
X147044000Y-98823816D01*
X147044000Y-98656184D01*
X147076703Y-98491772D01*
X147140853Y-98336900D01*
X147233985Y-98197519D01*
X147352519Y-98078985D01*
X147491900Y-97985853D01*
X147646772Y-97921703D01*
X147811184Y-97889000D01*
X147978816Y-97889000D01*
X148143228Y-97921703D01*
G37*
G36*
X133353228Y-97921703D02*
G01*
X133508100Y-97985853D01*
X133647481Y-98078985D01*
X133766015Y-98197519D01*
X133859147Y-98336900D01*
X133923297Y-98491772D01*
X133956000Y-98656184D01*
X133956000Y-98823816D01*
X133923297Y-98988228D01*
X133859147Y-99143100D01*
X133766015Y-99282481D01*
X133647481Y-99401015D01*
X133508100Y-99494147D01*
X133353228Y-99558297D01*
X133188816Y-99591000D01*
X133021184Y-99591000D01*
X132856772Y-99558297D01*
X132701900Y-99494147D01*
X132562519Y-99401015D01*
X132443985Y-99282481D01*
X132350853Y-99143100D01*
X132286703Y-98988228D01*
X132254000Y-98823816D01*
X132254000Y-98656184D01*
X132286703Y-98491772D01*
X132350853Y-98336900D01*
X132443985Y-98197519D01*
X132562519Y-98078985D01*
X132701900Y-97985853D01*
X132856772Y-97921703D01*
X133021184Y-97889000D01*
X133188816Y-97889000D01*
X133353228Y-97921703D01*
G37*
G36*
X107363000Y-98931000D02*
G01*
X104821000Y-98931000D01*
X104821000Y-96389000D01*
X107363000Y-96389000D01*
X107363000Y-98931000D01*
G37*
G36*
X102043000Y-98931000D02*
G01*
X99501000Y-98931000D01*
X99501000Y-96389000D01*
X102043000Y-96389000D01*
X102043000Y-98931000D01*
G37*
G36*
X175179000Y-98931000D02*
G01*
X172637000Y-98931000D01*
X172637000Y-96389000D01*
X175179000Y-96389000D01*
X175179000Y-98931000D01*
G37*
G36*
X180499000Y-98931000D02*
G01*
X177957000Y-98931000D01*
X177957000Y-96389000D01*
X180499000Y-96389000D01*
X180499000Y-98931000D01*
G37*
G36*
X103607271Y-93937783D02*
G01*
X103745858Y-93965350D01*
X103941677Y-94046461D01*
X104117910Y-94164216D01*
X104267784Y-94314090D01*
X104385539Y-94490323D01*
X104466650Y-94686142D01*
X104508000Y-94894023D01*
X104508000Y-95105977D01*
X104466650Y-95313858D01*
X104385539Y-95509677D01*
X104267784Y-95685910D01*
X104117910Y-95835784D01*
X103941677Y-95953539D01*
X103745858Y-96034650D01*
X103607271Y-96062217D01*
X103537978Y-96076000D01*
X103326022Y-96076000D01*
X103256729Y-96062217D01*
X103118142Y-96034650D01*
X102922323Y-95953539D01*
X102746090Y-95835784D01*
X102596216Y-95685910D01*
X102478461Y-95509677D01*
X102397350Y-95313858D01*
X102356000Y-95105977D01*
X102356000Y-94894023D01*
X102397350Y-94686142D01*
X102478461Y-94490323D01*
X102596216Y-94314090D01*
X102746090Y-94164216D01*
X102922323Y-94046461D01*
X103118142Y-93965350D01*
X103256729Y-93937783D01*
X103326022Y-93924000D01*
X103537978Y-93924000D01*
X103607271Y-93937783D01*
G37*
G36*
X176743271Y-93937783D02*
G01*
X176881858Y-93965350D01*
X177077677Y-94046461D01*
X177253910Y-94164216D01*
X177403784Y-94314090D01*
X177521539Y-94490323D01*
X177602650Y-94686142D01*
X177644000Y-94894023D01*
X177644000Y-95105977D01*
X177602650Y-95313858D01*
X177521539Y-95509677D01*
X177403784Y-95685910D01*
X177253910Y-95835784D01*
X177077677Y-95953539D01*
X176881858Y-96034650D01*
X176743271Y-96062217D01*
X176673978Y-96076000D01*
X176462022Y-96076000D01*
X176392729Y-96062217D01*
X176254142Y-96034650D01*
X176058323Y-95953539D01*
X175882090Y-95835784D01*
X175732216Y-95685910D01*
X175614461Y-95509677D01*
X175533350Y-95313858D01*
X175492000Y-95105977D01*
X175492000Y-94894023D01*
X175533350Y-94686142D01*
X175614461Y-94490323D01*
X175732216Y-94314090D01*
X175882090Y-94164216D01*
X176058323Y-94046461D01*
X176254142Y-93965350D01*
X176392729Y-93937783D01*
X176462022Y-93924000D01*
X176673978Y-93924000D01*
X176743271Y-93937783D01*
G37*
G36*
X175179000Y-93611000D02*
G01*
X172637000Y-93611000D01*
X172637000Y-91069000D01*
X175179000Y-91069000D01*
X175179000Y-93611000D01*
G37*
G36*
X102043000Y-93611000D02*
G01*
X99501000Y-93611000D01*
X99501000Y-91069000D01*
X102043000Y-91069000D01*
X102043000Y-93611000D01*
G37*
G36*
X107363000Y-93611000D02*
G01*
X104821000Y-93611000D01*
X104821000Y-91069000D01*
X107363000Y-91069000D01*
X107363000Y-93611000D01*
G37*
G36*
X180499000Y-93611000D02*
G01*
X177957000Y-93611000D01*
X177957000Y-91069000D01*
X180499000Y-91069000D01*
X180499000Y-93611000D01*
G37*
G36*
X178294000Y-86424000D02*
G01*
X175752000Y-86424000D01*
X175752000Y-83882000D01*
X178294000Y-83882000D01*
X178294000Y-86424000D01*
G37*
G36*
X172974000Y-86424000D02*
G01*
X170432000Y-86424000D01*
X170432000Y-83882000D01*
X172974000Y-83882000D01*
X172974000Y-86424000D01*
G37*
G36*
X109568000Y-86424000D02*
G01*
X107026000Y-86424000D01*
X107026000Y-83882000D01*
X109568000Y-83882000D01*
X109568000Y-86424000D01*
G37*
G36*
X104248000Y-86424000D02*
G01*
X101706000Y-86424000D01*
X101706000Y-83882000D01*
X104248000Y-83882000D01*
X104248000Y-86424000D01*
G37*
G36*
X174538271Y-81430783D02*
G01*
X174676858Y-81458350D01*
X174872677Y-81539461D01*
X175048910Y-81657216D01*
X175198784Y-81807090D01*
X175316539Y-81983323D01*
X175397650Y-82179142D01*
X175439000Y-82387023D01*
X175439000Y-82598977D01*
X175397650Y-82806858D01*
X175316539Y-83002677D01*
X175198784Y-83178910D01*
X175048910Y-83328784D01*
X174872677Y-83446539D01*
X174676858Y-83527650D01*
X174538271Y-83555217D01*
X174468978Y-83569000D01*
X174257022Y-83569000D01*
X174187729Y-83555217D01*
X174049142Y-83527650D01*
X173853323Y-83446539D01*
X173677090Y-83328784D01*
X173527216Y-83178910D01*
X173409461Y-83002677D01*
X173328350Y-82806858D01*
X173287000Y-82598977D01*
X173287000Y-82387023D01*
X173328350Y-82179142D01*
X173409461Y-81983323D01*
X173527216Y-81807090D01*
X173677090Y-81657216D01*
X173853323Y-81539461D01*
X174049142Y-81458350D01*
X174187729Y-81430783D01*
X174257022Y-81417000D01*
X174468978Y-81417000D01*
X174538271Y-81430783D01*
G37*
G36*
X105812271Y-81430783D02*
G01*
X105950858Y-81458350D01*
X106146677Y-81539461D01*
X106322910Y-81657216D01*
X106472784Y-81807090D01*
X106590539Y-81983323D01*
X106671650Y-82179142D01*
X106713000Y-82387023D01*
X106713000Y-82598977D01*
X106671650Y-82806858D01*
X106590539Y-83002677D01*
X106472784Y-83178910D01*
X106322910Y-83328784D01*
X106146677Y-83446539D01*
X105950858Y-83527650D01*
X105812271Y-83555217D01*
X105742978Y-83569000D01*
X105531022Y-83569000D01*
X105461729Y-83555217D01*
X105323142Y-83527650D01*
X105127323Y-83446539D01*
X104951090Y-83328784D01*
X104801216Y-83178910D01*
X104683461Y-83002677D01*
X104602350Y-82806858D01*
X104561000Y-82598977D01*
X104561000Y-82387023D01*
X104602350Y-82179142D01*
X104683461Y-81983323D01*
X104801216Y-81807090D01*
X104951090Y-81657216D01*
X105127323Y-81539461D01*
X105323142Y-81458350D01*
X105461729Y-81430783D01*
X105531022Y-81417000D01*
X105742978Y-81417000D01*
X105812271Y-81430783D01*
G37*
G36*
X104248000Y-81104000D02*
G01*
X101706000Y-81104000D01*
X101706000Y-78562000D01*
X104248000Y-78562000D01*
X104248000Y-81104000D01*
G37*
G36*
X109568000Y-81104000D02*
G01*
X107026000Y-81104000D01*
X107026000Y-78562000D01*
X109568000Y-78562000D01*
X109568000Y-81104000D01*
G37*
G36*
X172974000Y-81104000D02*
G01*
X170432000Y-81104000D01*
X170432000Y-78562000D01*
X172974000Y-78562000D01*
X172974000Y-81104000D01*
G37*
G36*
X178294000Y-81104000D02*
G01*
X175752000Y-81104000D01*
X175752000Y-78562000D01*
X178294000Y-78562000D01*
X178294000Y-81104000D01*
G37*
G36*
X171944000Y-75425000D02*
G01*
X169402000Y-75425000D01*
X169402000Y-72883000D01*
X171944000Y-72883000D01*
X171944000Y-75425000D01*
G37*
G36*
X166624000Y-75425000D02*
G01*
X164082000Y-75425000D01*
X164082000Y-72883000D01*
X166624000Y-72883000D01*
X166624000Y-75425000D01*
G37*
G36*
X110598000Y-75425000D02*
G01*
X108056000Y-75425000D01*
X108056000Y-72883000D01*
X110598000Y-72883000D01*
X110598000Y-75425000D01*
G37*
G36*
X115918000Y-75425000D02*
G01*
X113376000Y-75425000D01*
X113376000Y-72883000D01*
X115918000Y-72883000D01*
X115918000Y-75425000D01*
G37*
G36*
X168188271Y-70431783D02*
G01*
X168326858Y-70459350D01*
X168522677Y-70540461D01*
X168698910Y-70658216D01*
X168848784Y-70808090D01*
X168966539Y-70984323D01*
X169047650Y-71180142D01*
X169089000Y-71388023D01*
X169089000Y-71599977D01*
X169047650Y-71807858D01*
X168966539Y-72003677D01*
X168848784Y-72179910D01*
X168698910Y-72329784D01*
X168522677Y-72447539D01*
X168326858Y-72528650D01*
X168188271Y-72556217D01*
X168118978Y-72570000D01*
X167907022Y-72570000D01*
X167837729Y-72556217D01*
X167699142Y-72528650D01*
X167503323Y-72447539D01*
X167327090Y-72329784D01*
X167177216Y-72179910D01*
X167059461Y-72003677D01*
X166978350Y-71807858D01*
X166937000Y-71599977D01*
X166937000Y-71388023D01*
X166978350Y-71180142D01*
X167059461Y-70984323D01*
X167177216Y-70808090D01*
X167327090Y-70658216D01*
X167503323Y-70540461D01*
X167699142Y-70459350D01*
X167837729Y-70431783D01*
X167907022Y-70418000D01*
X168118978Y-70418000D01*
X168188271Y-70431783D01*
G37*
G36*
X112162271Y-70431783D02*
G01*
X112300858Y-70459350D01*
X112496677Y-70540461D01*
X112672910Y-70658216D01*
X112822784Y-70808090D01*
X112940539Y-70984323D01*
X113021650Y-71180142D01*
X113063000Y-71388023D01*
X113063000Y-71599977D01*
X113021650Y-71807858D01*
X112940539Y-72003677D01*
X112822784Y-72179910D01*
X112672910Y-72329784D01*
X112496677Y-72447539D01*
X112300858Y-72528650D01*
X112162271Y-72556217D01*
X112092978Y-72570000D01*
X111881022Y-72570000D01*
X111811729Y-72556217D01*
X111673142Y-72528650D01*
X111477323Y-72447539D01*
X111301090Y-72329784D01*
X111151216Y-72179910D01*
X111033461Y-72003677D01*
X110952350Y-71807858D01*
X110911000Y-71599977D01*
X110911000Y-71388023D01*
X110952350Y-71180142D01*
X111033461Y-70984323D01*
X111151216Y-70808090D01*
X111301090Y-70658216D01*
X111477323Y-70540461D01*
X111673142Y-70459350D01*
X111811729Y-70431783D01*
X111881022Y-70418000D01*
X112092978Y-70418000D01*
X112162271Y-70431783D01*
G37*
G36*
X110598000Y-70105000D02*
G01*
X108056000Y-70105000D01*
X108056000Y-67563000D01*
X110598000Y-67563000D01*
X110598000Y-70105000D01*
G37*
G36*
X115918000Y-70105000D02*
G01*
X113376000Y-70105000D01*
X113376000Y-67563000D01*
X115918000Y-67563000D01*
X115918000Y-70105000D01*
G37*
G36*
X171944000Y-70105000D02*
G01*
X169402000Y-70105000D01*
X169402000Y-67563000D01*
X171944000Y-67563000D01*
X171944000Y-70105000D01*
G37*
G36*
X166624000Y-70105000D02*
G01*
X164082000Y-70105000D01*
X164082000Y-67563000D01*
X166624000Y-67563000D01*
X166624000Y-70105000D01*
G37*
G36*
X120327000Y-67262000D02*
G01*
X117785000Y-67262000D01*
X117785000Y-64720000D01*
X120327000Y-64720000D01*
X120327000Y-67262000D01*
G37*
G36*
X156895000Y-67262000D02*
G01*
X154353000Y-67262000D01*
X154353000Y-64720000D01*
X156895000Y-64720000D01*
X156895000Y-67262000D01*
G37*
G36*
X125647000Y-67262000D02*
G01*
X123105000Y-67262000D01*
X123105000Y-64720000D01*
X125647000Y-64720000D01*
X125647000Y-67262000D01*
G37*
G36*
X162215000Y-67262000D02*
G01*
X159673000Y-67262000D01*
X159673000Y-64720000D01*
X162215000Y-64720000D01*
X162215000Y-67262000D01*
G37*
G36*
X158459271Y-62268783D02*
G01*
X158597858Y-62296350D01*
X158793677Y-62377461D01*
X158969910Y-62495216D01*
X159119784Y-62645090D01*
X159237539Y-62821323D01*
X159318650Y-63017142D01*
X159360000Y-63225023D01*
X159360000Y-63436977D01*
X159318650Y-63644858D01*
X159237539Y-63840677D01*
X159119784Y-64016910D01*
X158969910Y-64166784D01*
X158793677Y-64284539D01*
X158597858Y-64365650D01*
X158459271Y-64393217D01*
X158389978Y-64407000D01*
X158178022Y-64407000D01*
X158108729Y-64393217D01*
X157970142Y-64365650D01*
X157774323Y-64284539D01*
X157598090Y-64166784D01*
X157448216Y-64016910D01*
X157330461Y-63840677D01*
X157249350Y-63644858D01*
X157208000Y-63436977D01*
X157208000Y-63225023D01*
X157249350Y-63017142D01*
X157330461Y-62821323D01*
X157448216Y-62645090D01*
X157598090Y-62495216D01*
X157774323Y-62377461D01*
X157970142Y-62296350D01*
X158108729Y-62268783D01*
X158178022Y-62255000D01*
X158389978Y-62255000D01*
X158459271Y-62268783D01*
G37*
G36*
X121891271Y-62268783D02*
G01*
X122029858Y-62296350D01*
X122225677Y-62377461D01*
X122401910Y-62495216D01*
X122551784Y-62645090D01*
X122669539Y-62821323D01*
X122750650Y-63017142D01*
X122792000Y-63225023D01*
X122792000Y-63436977D01*
X122750650Y-63644858D01*
X122669539Y-63840677D01*
X122551784Y-64016910D01*
X122401910Y-64166784D01*
X122225677Y-64284539D01*
X122029858Y-64365650D01*
X121891271Y-64393217D01*
X121821978Y-64407000D01*
X121610022Y-64407000D01*
X121540729Y-64393217D01*
X121402142Y-64365650D01*
X121206323Y-64284539D01*
X121030090Y-64166784D01*
X120880216Y-64016910D01*
X120762461Y-63840677D01*
X120681350Y-63644858D01*
X120640000Y-63436977D01*
X120640000Y-63225023D01*
X120681350Y-63017142D01*
X120762461Y-62821323D01*
X120880216Y-62645090D01*
X121030090Y-62495216D01*
X121206323Y-62377461D01*
X121402142Y-62296350D01*
X121540729Y-62268783D01*
X121610022Y-62255000D01*
X121821978Y-62255000D01*
X121891271Y-62268783D01*
G37*
G36*
X132261000Y-62918000D02*
G01*
X129719000Y-62918000D01*
X129719000Y-60376000D01*
X132261000Y-60376000D01*
X132261000Y-62918000D01*
G37*
G36*
X144961000Y-62918000D02*
G01*
X142419000Y-62918000D01*
X142419000Y-60376000D01*
X144961000Y-60376000D01*
X144961000Y-62918000D01*
G37*
G36*
X150281000Y-62918000D02*
G01*
X147739000Y-62918000D01*
X147739000Y-60376000D01*
X150281000Y-60376000D01*
X150281000Y-62918000D01*
G37*
G36*
X137581000Y-62918000D02*
G01*
X135039000Y-62918000D01*
X135039000Y-60376000D01*
X137581000Y-60376000D01*
X137581000Y-62918000D01*
G37*
G36*
X120327000Y-61942000D02*
G01*
X117785000Y-61942000D01*
X117785000Y-59400000D01*
X120327000Y-59400000D01*
X120327000Y-61942000D01*
G37*
G36*
X125647000Y-61942000D02*
G01*
X123105000Y-61942000D01*
X123105000Y-59400000D01*
X125647000Y-59400000D01*
X125647000Y-61942000D01*
G37*
G36*
X156895000Y-61942000D02*
G01*
X154353000Y-61942000D01*
X154353000Y-59400000D01*
X156895000Y-59400000D01*
X156895000Y-61942000D01*
G37*
G36*
X162215000Y-61942000D02*
G01*
X159673000Y-61942000D01*
X159673000Y-59400000D01*
X162215000Y-59400000D01*
X162215000Y-61942000D01*
G37*
G36*
X133825271Y-57924783D02*
G01*
X133963858Y-57952350D01*
X134159677Y-58033461D01*
X134335910Y-58151216D01*
X134485784Y-58301090D01*
X134603539Y-58477323D01*
X134684650Y-58673142D01*
X134726000Y-58881023D01*
X134726000Y-59092977D01*
X134684650Y-59300858D01*
X134603539Y-59496677D01*
X134485784Y-59672910D01*
X134335910Y-59822784D01*
X134159677Y-59940539D01*
X133963858Y-60021650D01*
X133825271Y-60049217D01*
X133755978Y-60063000D01*
X133544022Y-60063000D01*
X133474729Y-60049217D01*
X133336142Y-60021650D01*
X133140323Y-59940539D01*
X132964090Y-59822784D01*
X132814216Y-59672910D01*
X132696461Y-59496677D01*
X132615350Y-59300858D01*
X132574000Y-59092977D01*
X132574000Y-58881023D01*
X132615350Y-58673142D01*
X132696461Y-58477323D01*
X132814216Y-58301090D01*
X132964090Y-58151216D01*
X133140323Y-58033461D01*
X133336142Y-57952350D01*
X133474729Y-57924783D01*
X133544022Y-57911000D01*
X133755978Y-57911000D01*
X133825271Y-57924783D01*
G37*
G36*
X146525271Y-57924783D02*
G01*
X146663858Y-57952350D01*
X146859677Y-58033461D01*
X147035910Y-58151216D01*
X147185784Y-58301090D01*
X147303539Y-58477323D01*
X147384650Y-58673142D01*
X147426000Y-58881023D01*
X147426000Y-59092977D01*
X147384650Y-59300858D01*
X147303539Y-59496677D01*
X147185784Y-59672910D01*
X147035910Y-59822784D01*
X146859677Y-59940539D01*
X146663858Y-60021650D01*
X146525271Y-60049217D01*
X146455978Y-60063000D01*
X146244022Y-60063000D01*
X146174729Y-60049217D01*
X146036142Y-60021650D01*
X145840323Y-59940539D01*
X145664090Y-59822784D01*
X145514216Y-59672910D01*
X145396461Y-59496677D01*
X145315350Y-59300858D01*
X145274000Y-59092977D01*
X145274000Y-58881023D01*
X145315350Y-58673142D01*
X145396461Y-58477323D01*
X145514216Y-58301090D01*
X145664090Y-58151216D01*
X145840323Y-58033461D01*
X146036142Y-57952350D01*
X146174729Y-57924783D01*
X146244022Y-57911000D01*
X146455978Y-57911000D01*
X146525271Y-57924783D01*
G37*
G36*
X144961000Y-57598000D02*
G01*
X142419000Y-57598000D01*
X142419000Y-55056000D01*
X144961000Y-55056000D01*
X144961000Y-57598000D01*
G37*
G36*
X137581000Y-57598000D02*
G01*
X135039000Y-57598000D01*
X135039000Y-55056000D01*
X137581000Y-55056000D01*
X137581000Y-57598000D01*
G37*
G36*
X150281000Y-57598000D02*
G01*
X147739000Y-57598000D01*
X147739000Y-55056000D01*
X150281000Y-55056000D01*
X150281000Y-57598000D01*
G37*
G36*
X132261000Y-57598000D02*
G01*
X129719000Y-57598000D01*
X129719000Y-55056000D01*
X132261000Y-55056000D01*
X132261000Y-57598000D01*
G37*
M02*
