G04 #@! TF.GenerationSoftware,KiCad,Pcbnew,(5.1.5)-3*
G04 #@! TF.CreationDate,2020-01-15T16:09:59-07:00*
G04 #@! TF.ProjectId,Station06,53746174-696f-46e3-9036-2e6b69636164,rev?*
G04 #@! TF.SameCoordinates,Original*
G04 #@! TF.FileFunction,Soldermask,Top*
G04 #@! TF.FilePolarity,Negative*
%FSLAX46Y46*%
G04 Gerber Fmt 4.6, Leading zero omitted, Abs format (unit mm)*
G04 Created by KiCad (PCBNEW (5.1.5)-3) date 2020-01-15 16:09:59*
%MOMM*%
%LPD*%
G04 APERTURE LIST*
%ADD10C,0.225000*%
%ADD11C,0.500000*%
%ADD12C,0.152400*%
%ADD13C,0.100000*%
G04 APERTURE END LIST*
D10*
X99580000Y-59401071D02*
X99580000Y-57901071D01*
X99937142Y-57901071D01*
X100151428Y-57972500D01*
X100294285Y-58115357D01*
X100365714Y-58258214D01*
X100437142Y-58543928D01*
X100437142Y-58758214D01*
X100365714Y-59043928D01*
X100294285Y-59186785D01*
X100151428Y-59329642D01*
X99937142Y-59401071D01*
X99580000Y-59401071D01*
X100937142Y-58401071D02*
X101294285Y-59401071D01*
X101651428Y-58401071D02*
X101294285Y-59401071D01*
X101151428Y-59758214D01*
X101080000Y-59829642D01*
X100937142Y-59901071D01*
X102437142Y-59401071D02*
X102294285Y-59329642D01*
X102222857Y-59186785D01*
X102222857Y-57901071D01*
X103651428Y-59401071D02*
X103651428Y-58615357D01*
X103580000Y-58472500D01*
X103437142Y-58401071D01*
X103151428Y-58401071D01*
X103008571Y-58472500D01*
X103651428Y-59329642D02*
X103508571Y-59401071D01*
X103151428Y-59401071D01*
X103008571Y-59329642D01*
X102937142Y-59186785D01*
X102937142Y-59043928D01*
X103008571Y-58901071D01*
X103151428Y-58829642D01*
X103508571Y-58829642D01*
X103651428Y-58758214D01*
X104365714Y-58401071D02*
X104365714Y-59401071D01*
X104365714Y-58543928D02*
X104437142Y-58472500D01*
X104580000Y-58401071D01*
X104794285Y-58401071D01*
X104937142Y-58472500D01*
X105008571Y-58615357D01*
X105008571Y-59401071D01*
X107151428Y-57901071D02*
X107437142Y-57901071D01*
X107580000Y-57972500D01*
X107722857Y-58115357D01*
X107794285Y-58401071D01*
X107794285Y-58901071D01*
X107722857Y-59186785D01*
X107580000Y-59329642D01*
X107437142Y-59401071D01*
X107151428Y-59401071D01*
X107008571Y-59329642D01*
X106865714Y-59186785D01*
X106794285Y-58901071D01*
X106794285Y-58401071D01*
X106865714Y-58115357D01*
X107008571Y-57972500D01*
X107151428Y-57901071D01*
X108437142Y-59401071D02*
X108437142Y-57901071D01*
X109080000Y-59401071D02*
X109080000Y-58615357D01*
X109008571Y-58472500D01*
X108865714Y-58401071D01*
X108651428Y-58401071D01*
X108508571Y-58472500D01*
X108437142Y-58543928D01*
X99758571Y-60376071D02*
X99758571Y-61447500D01*
X99687142Y-61661785D01*
X99544285Y-61804642D01*
X99330000Y-61876071D01*
X99187142Y-61876071D01*
X101115714Y-61876071D02*
X101115714Y-61090357D01*
X101044285Y-60947500D01*
X100901428Y-60876071D01*
X100615714Y-60876071D01*
X100472857Y-60947500D01*
X101115714Y-61804642D02*
X100972857Y-61876071D01*
X100615714Y-61876071D01*
X100472857Y-61804642D01*
X100401428Y-61661785D01*
X100401428Y-61518928D01*
X100472857Y-61376071D01*
X100615714Y-61304642D01*
X100972857Y-61304642D01*
X101115714Y-61233214D01*
X101830000Y-60876071D02*
X101830000Y-61876071D01*
X101830000Y-61018928D02*
X101901428Y-60947500D01*
X102044285Y-60876071D01*
X102258571Y-60876071D01*
X102401428Y-60947500D01*
X102472857Y-61090357D01*
X102472857Y-61876071D01*
X104258571Y-60518928D02*
X104330000Y-60447500D01*
X104472857Y-60376071D01*
X104830000Y-60376071D01*
X104972857Y-60447500D01*
X105044285Y-60518928D01*
X105115714Y-60661785D01*
X105115714Y-60804642D01*
X105044285Y-61018928D01*
X104187142Y-61876071D01*
X105115714Y-61876071D01*
X106044285Y-60376071D02*
X106187142Y-60376071D01*
X106330000Y-60447500D01*
X106401428Y-60518928D01*
X106472857Y-60661785D01*
X106544285Y-60947500D01*
X106544285Y-61304642D01*
X106472857Y-61590357D01*
X106401428Y-61733214D01*
X106330000Y-61804642D01*
X106187142Y-61876071D01*
X106044285Y-61876071D01*
X105901428Y-61804642D01*
X105830000Y-61733214D01*
X105758571Y-61590357D01*
X105687142Y-61304642D01*
X105687142Y-60947500D01*
X105758571Y-60661785D01*
X105830000Y-60518928D01*
X105901428Y-60447500D01*
X106044285Y-60376071D01*
X107115714Y-60518928D02*
X107187142Y-60447500D01*
X107330000Y-60376071D01*
X107687142Y-60376071D01*
X107830000Y-60447500D01*
X107901428Y-60518928D01*
X107972857Y-60661785D01*
X107972857Y-60804642D01*
X107901428Y-61018928D01*
X107044285Y-61876071D01*
X107972857Y-61876071D01*
X108901428Y-60376071D02*
X109044285Y-60376071D01*
X109187142Y-60447500D01*
X109258571Y-60518928D01*
X109330000Y-60661785D01*
X109401428Y-60947500D01*
X109401428Y-61304642D01*
X109330000Y-61590357D01*
X109258571Y-61733214D01*
X109187142Y-61804642D01*
X109044285Y-61876071D01*
X108901428Y-61876071D01*
X108758571Y-61804642D01*
X108687142Y-61733214D01*
X108615714Y-61590357D01*
X108544285Y-61304642D01*
X108544285Y-60947500D01*
X108615714Y-60661785D01*
X108687142Y-60518928D01*
X108758571Y-60447500D01*
X108901428Y-60376071D01*
D11*
X99342142Y-56664285D02*
X99752857Y-56807142D01*
X100467142Y-56807142D01*
X100770714Y-56664285D01*
X100931428Y-56521428D01*
X101110000Y-56235714D01*
X101145714Y-55950000D01*
X101038571Y-55664285D01*
X100913571Y-55521428D01*
X100645714Y-55378571D01*
X100092142Y-55235714D01*
X99824285Y-55092857D01*
X99699285Y-54950000D01*
X99592142Y-54664285D01*
X99627857Y-54378571D01*
X99806428Y-54092857D01*
X99967142Y-53950000D01*
X100270714Y-53807142D01*
X100985000Y-53807142D01*
X101395714Y-53950000D01*
X102145714Y-54807142D02*
X103288571Y-54807142D01*
X102699285Y-53807142D02*
X102377857Y-56378571D01*
X102485000Y-56664285D01*
X102752857Y-56807142D01*
X103038571Y-56807142D01*
X105324285Y-56807142D02*
X105520714Y-55235714D01*
X105413571Y-54950000D01*
X105145714Y-54807142D01*
X104574285Y-54807142D01*
X104270714Y-54950000D01*
X105342142Y-56664285D02*
X105038571Y-56807142D01*
X104324285Y-56807142D01*
X104056428Y-56664285D01*
X103949285Y-56378571D01*
X103985000Y-56092857D01*
X104163571Y-55807142D01*
X104467142Y-55664285D01*
X105181428Y-55664285D01*
X105485000Y-55521428D01*
X106574285Y-54807142D02*
X107717142Y-54807142D01*
X107127857Y-53807142D02*
X106806428Y-56378571D01*
X106913571Y-56664285D01*
X107181428Y-56807142D01*
X107467142Y-56807142D01*
X108467142Y-56807142D02*
X108717142Y-54807142D01*
X108842142Y-53807142D02*
X108681428Y-53950000D01*
X108806428Y-54092857D01*
X108967142Y-53950000D01*
X108842142Y-53807142D01*
X108806428Y-54092857D01*
X110324285Y-56807142D02*
X110056428Y-56664285D01*
X109931428Y-56521428D01*
X109824285Y-56235714D01*
X109931428Y-55378571D01*
X110110000Y-55092857D01*
X110270714Y-54950000D01*
X110574285Y-54807142D01*
X111002857Y-54807142D01*
X111270714Y-54950000D01*
X111395714Y-55092857D01*
X111502857Y-55378571D01*
X111395714Y-56235714D01*
X111217142Y-56521428D01*
X111056428Y-56664285D01*
X110752857Y-56807142D01*
X110324285Y-56807142D01*
X112860000Y-54807142D02*
X112610000Y-56807142D01*
X112824285Y-55092857D02*
X112985000Y-54950000D01*
X113288571Y-54807142D01*
X113717142Y-54807142D01*
X113985000Y-54950000D01*
X114092142Y-55235714D01*
X113895714Y-56807142D01*
X116270714Y-53807142D02*
X116556428Y-53807142D01*
X116824285Y-53950000D01*
X116949285Y-54092857D01*
X117056428Y-54378571D01*
X117127857Y-54950000D01*
X117038571Y-55664285D01*
X116824285Y-56235714D01*
X116645714Y-56521428D01*
X116485000Y-56664285D01*
X116181428Y-56807142D01*
X115895714Y-56807142D01*
X115627857Y-56664285D01*
X115502857Y-56521428D01*
X115395714Y-56235714D01*
X115324285Y-55664285D01*
X115413571Y-54950000D01*
X115627857Y-54378571D01*
X115806428Y-54092857D01*
X115967142Y-53950000D01*
X116270714Y-53807142D01*
X119842142Y-53807142D02*
X119270714Y-53807142D01*
X118967142Y-53950000D01*
X118806428Y-54092857D01*
X118467142Y-54521428D01*
X118252857Y-55092857D01*
X118110000Y-56235714D01*
X118217142Y-56521428D01*
X118342142Y-56664285D01*
X118610000Y-56807142D01*
X119181428Y-56807142D01*
X119485000Y-56664285D01*
X119645714Y-56521428D01*
X119824285Y-56235714D01*
X119913571Y-55521428D01*
X119806428Y-55235714D01*
X119681428Y-55092857D01*
X119413571Y-54950000D01*
X118842142Y-54950000D01*
X118538571Y-55092857D01*
X118377857Y-55235714D01*
X118199285Y-55521428D01*
D12*
X144991300Y-96000000D02*
G75*
G03X144991300Y-96000000I-241300J0D01*
G01*
X143991300Y-95500000D02*
G75*
G03X143991300Y-95500000I-241300J0D01*
G01*
X142991300Y-95500000D02*
G75*
G03X142991300Y-95500000I-241300J0D01*
G01*
X141991300Y-95500000D02*
G75*
G03X141991300Y-95500000I-241300J0D01*
G01*
X140991300Y-95500000D02*
G75*
G03X140991300Y-95500000I-241300J0D01*
G01*
X139991300Y-95500000D02*
G75*
G03X139991300Y-95500000I-241300J0D01*
G01*
X138991300Y-95500000D02*
G75*
G03X138991300Y-95500000I-241300J0D01*
G01*
X137991300Y-95500000D02*
G75*
G03X137991300Y-95500000I-241300J0D01*
G01*
X136991300Y-95500000D02*
G75*
G03X136991300Y-95500000I-241300J0D01*
G01*
X135991300Y-96000000D02*
G75*
G03X135991300Y-96000000I-241300J0D01*
G01*
D13*
G36*
X146646348Y-99993820D02*
G01*
X146646350Y-99993821D01*
X146646351Y-99993821D01*
X146787574Y-100052317D01*
X146787577Y-100052319D01*
X146914669Y-100137239D01*
X147022761Y-100245331D01*
X147107681Y-100372423D01*
X147107683Y-100372426D01*
X147166179Y-100513649D01*
X147196000Y-100663571D01*
X147196000Y-100816429D01*
X147166179Y-100966351D01*
X147107683Y-101107574D01*
X147107681Y-101107577D01*
X147022761Y-101234669D01*
X146914669Y-101342761D01*
X146787577Y-101427681D01*
X146787574Y-101427683D01*
X146646351Y-101486179D01*
X146646350Y-101486179D01*
X146646348Y-101486180D01*
X146496431Y-101516000D01*
X146343569Y-101516000D01*
X146193652Y-101486180D01*
X146193650Y-101486179D01*
X146193649Y-101486179D01*
X146052426Y-101427683D01*
X146052423Y-101427681D01*
X145925331Y-101342761D01*
X145817239Y-101234669D01*
X145732319Y-101107577D01*
X145732317Y-101107574D01*
X145673821Y-100966351D01*
X145644000Y-100816429D01*
X145644000Y-100663571D01*
X145673821Y-100513649D01*
X145732317Y-100372426D01*
X145732319Y-100372423D01*
X145817239Y-100245331D01*
X145925331Y-100137239D01*
X146052423Y-100052319D01*
X146052426Y-100052317D01*
X146193649Y-99993821D01*
X146193650Y-99993821D01*
X146193652Y-99993820D01*
X146343569Y-99964000D01*
X146496431Y-99964000D01*
X146646348Y-99993820D01*
G37*
G36*
X134806348Y-99993820D02*
G01*
X134806350Y-99993821D01*
X134806351Y-99993821D01*
X134947574Y-100052317D01*
X134947577Y-100052319D01*
X135074669Y-100137239D01*
X135182761Y-100245331D01*
X135267681Y-100372423D01*
X135267683Y-100372426D01*
X135326179Y-100513649D01*
X135356000Y-100663571D01*
X135356000Y-100816429D01*
X135326179Y-100966351D01*
X135267683Y-101107574D01*
X135267681Y-101107577D01*
X135182761Y-101234669D01*
X135074669Y-101342761D01*
X134947577Y-101427681D01*
X134947574Y-101427683D01*
X134806351Y-101486179D01*
X134806350Y-101486179D01*
X134806348Y-101486180D01*
X134656431Y-101516000D01*
X134503569Y-101516000D01*
X134353652Y-101486180D01*
X134353650Y-101486179D01*
X134353649Y-101486179D01*
X134212426Y-101427683D01*
X134212423Y-101427681D01*
X134085331Y-101342761D01*
X133977239Y-101234669D01*
X133892319Y-101107577D01*
X133892317Y-101107574D01*
X133833821Y-100966351D01*
X133804000Y-100816429D01*
X133804000Y-100663571D01*
X133833821Y-100513649D01*
X133892317Y-100372426D01*
X133892319Y-100372423D01*
X133977239Y-100245331D01*
X134085331Y-100137239D01*
X134212423Y-100052319D01*
X134212426Y-100052317D01*
X134353649Y-99993821D01*
X134353650Y-99993821D01*
X134353652Y-99993820D01*
X134503569Y-99964000D01*
X134656431Y-99964000D01*
X134806348Y-99993820D01*
G37*
G36*
X148143228Y-97921703D02*
G01*
X148298100Y-97985853D01*
X148437481Y-98078985D01*
X148556015Y-98197519D01*
X148649147Y-98336900D01*
X148713297Y-98491772D01*
X148746000Y-98656184D01*
X148746000Y-98823816D01*
X148713297Y-98988228D01*
X148649147Y-99143100D01*
X148556015Y-99282481D01*
X148437481Y-99401015D01*
X148298100Y-99494147D01*
X148143228Y-99558297D01*
X147978816Y-99591000D01*
X147811184Y-99591000D01*
X147646772Y-99558297D01*
X147491900Y-99494147D01*
X147352519Y-99401015D01*
X147233985Y-99282481D01*
X147140853Y-99143100D01*
X147076703Y-98988228D01*
X147044000Y-98823816D01*
X147044000Y-98656184D01*
X147076703Y-98491772D01*
X147140853Y-98336900D01*
X147233985Y-98197519D01*
X147352519Y-98078985D01*
X147491900Y-97985853D01*
X147646772Y-97921703D01*
X147811184Y-97889000D01*
X147978816Y-97889000D01*
X148143228Y-97921703D01*
G37*
G36*
X133353228Y-97921703D02*
G01*
X133508100Y-97985853D01*
X133647481Y-98078985D01*
X133766015Y-98197519D01*
X133859147Y-98336900D01*
X133923297Y-98491772D01*
X133956000Y-98656184D01*
X133956000Y-98823816D01*
X133923297Y-98988228D01*
X133859147Y-99143100D01*
X133766015Y-99282481D01*
X133647481Y-99401015D01*
X133508100Y-99494147D01*
X133353228Y-99558297D01*
X133188816Y-99591000D01*
X133021184Y-99591000D01*
X132856772Y-99558297D01*
X132701900Y-99494147D01*
X132562519Y-99401015D01*
X132443985Y-99282481D01*
X132350853Y-99143100D01*
X132286703Y-98988228D01*
X132254000Y-98823816D01*
X132254000Y-98656184D01*
X132286703Y-98491772D01*
X132350853Y-98336900D01*
X132443985Y-98197519D01*
X132562519Y-98078985D01*
X132701900Y-97985853D01*
X132856772Y-97921703D01*
X133021184Y-97889000D01*
X133188816Y-97889000D01*
X133353228Y-97921703D01*
G37*
G36*
X107363000Y-98931000D02*
G01*
X104821000Y-98931000D01*
X104821000Y-96389000D01*
X107363000Y-96389000D01*
X107363000Y-98931000D01*
G37*
G36*
X102043000Y-98931000D02*
G01*
X99501000Y-98931000D01*
X99501000Y-96389000D01*
X102043000Y-96389000D01*
X102043000Y-98931000D01*
G37*
G36*
X175179000Y-98931000D02*
G01*
X172637000Y-98931000D01*
X172637000Y-96389000D01*
X175179000Y-96389000D01*
X175179000Y-98931000D01*
G37*
G36*
X180499000Y-98931000D02*
G01*
X177957000Y-98931000D01*
X177957000Y-96389000D01*
X180499000Y-96389000D01*
X180499000Y-98931000D01*
G37*
G36*
X103607271Y-93937783D02*
G01*
X103745858Y-93965350D01*
X103941677Y-94046461D01*
X104117910Y-94164216D01*
X104267784Y-94314090D01*
X104385539Y-94490323D01*
X104466650Y-94686142D01*
X104508000Y-94894023D01*
X104508000Y-95105977D01*
X104466650Y-95313858D01*
X104385539Y-95509677D01*
X104267784Y-95685910D01*
X104117910Y-95835784D01*
X103941677Y-95953539D01*
X103745858Y-96034650D01*
X103607271Y-96062217D01*
X103537978Y-96076000D01*
X103326022Y-96076000D01*
X103256729Y-96062217D01*
X103118142Y-96034650D01*
X102922323Y-95953539D01*
X102746090Y-95835784D01*
X102596216Y-95685910D01*
X102478461Y-95509677D01*
X102397350Y-95313858D01*
X102356000Y-95105977D01*
X102356000Y-94894023D01*
X102397350Y-94686142D01*
X102478461Y-94490323D01*
X102596216Y-94314090D01*
X102746090Y-94164216D01*
X102922323Y-94046461D01*
X103118142Y-93965350D01*
X103256729Y-93937783D01*
X103326022Y-93924000D01*
X103537978Y-93924000D01*
X103607271Y-93937783D01*
G37*
G36*
X176743271Y-93937783D02*
G01*
X176881858Y-93965350D01*
X177077677Y-94046461D01*
X177253910Y-94164216D01*
X177403784Y-94314090D01*
X177521539Y-94490323D01*
X177602650Y-94686142D01*
X177644000Y-94894023D01*
X177644000Y-95105977D01*
X177602650Y-95313858D01*
X177521539Y-95509677D01*
X177403784Y-95685910D01*
X177253910Y-95835784D01*
X177077677Y-95953539D01*
X176881858Y-96034650D01*
X176743271Y-96062217D01*
X176673978Y-96076000D01*
X176462022Y-96076000D01*
X176392729Y-96062217D01*
X176254142Y-96034650D01*
X176058323Y-95953539D01*
X175882090Y-95835784D01*
X175732216Y-95685910D01*
X175614461Y-95509677D01*
X175533350Y-95313858D01*
X175492000Y-95105977D01*
X175492000Y-94894023D01*
X175533350Y-94686142D01*
X175614461Y-94490323D01*
X175732216Y-94314090D01*
X175882090Y-94164216D01*
X176058323Y-94046461D01*
X176254142Y-93965350D01*
X176392729Y-93937783D01*
X176462022Y-93924000D01*
X176673978Y-93924000D01*
X176743271Y-93937783D01*
G37*
G36*
X175179000Y-93611000D02*
G01*
X172637000Y-93611000D01*
X172637000Y-91069000D01*
X175179000Y-91069000D01*
X175179000Y-93611000D01*
G37*
G36*
X102043000Y-93611000D02*
G01*
X99501000Y-93611000D01*
X99501000Y-91069000D01*
X102043000Y-91069000D01*
X102043000Y-93611000D01*
G37*
G36*
X107363000Y-93611000D02*
G01*
X104821000Y-93611000D01*
X104821000Y-91069000D01*
X107363000Y-91069000D01*
X107363000Y-93611000D01*
G37*
G36*
X180499000Y-93611000D02*
G01*
X177957000Y-93611000D01*
X177957000Y-91069000D01*
X180499000Y-91069000D01*
X180499000Y-93611000D01*
G37*
G36*
X178294000Y-86424000D02*
G01*
X175752000Y-86424000D01*
X175752000Y-83882000D01*
X178294000Y-83882000D01*
X178294000Y-86424000D01*
G37*
G36*
X172974000Y-86424000D02*
G01*
X170432000Y-86424000D01*
X170432000Y-83882000D01*
X172974000Y-83882000D01*
X172974000Y-86424000D01*
G37*
G36*
X109568000Y-86424000D02*
G01*
X107026000Y-86424000D01*
X107026000Y-83882000D01*
X109568000Y-83882000D01*
X109568000Y-86424000D01*
G37*
G36*
X104248000Y-86424000D02*
G01*
X101706000Y-86424000D01*
X101706000Y-83882000D01*
X104248000Y-83882000D01*
X104248000Y-86424000D01*
G37*
G36*
X174538271Y-81430783D02*
G01*
X174676858Y-81458350D01*
X174872677Y-81539461D01*
X175048910Y-81657216D01*
X175198784Y-81807090D01*
X175316539Y-81983323D01*
X175397650Y-82179142D01*
X175439000Y-82387023D01*
X175439000Y-82598977D01*
X175397650Y-82806858D01*
X175316539Y-83002677D01*
X175198784Y-83178910D01*
X175048910Y-83328784D01*
X174872677Y-83446539D01*
X174676858Y-83527650D01*
X174538271Y-83555217D01*
X174468978Y-83569000D01*
X174257022Y-83569000D01*
X174187729Y-83555217D01*
X174049142Y-83527650D01*
X173853323Y-83446539D01*
X173677090Y-83328784D01*
X173527216Y-83178910D01*
X173409461Y-83002677D01*
X173328350Y-82806858D01*
X173287000Y-82598977D01*
X173287000Y-82387023D01*
X173328350Y-82179142D01*
X173409461Y-81983323D01*
X173527216Y-81807090D01*
X173677090Y-81657216D01*
X173853323Y-81539461D01*
X174049142Y-81458350D01*
X174187729Y-81430783D01*
X174257022Y-81417000D01*
X174468978Y-81417000D01*
X174538271Y-81430783D01*
G37*
G36*
X105812271Y-81430783D02*
G01*
X105950858Y-81458350D01*
X106146677Y-81539461D01*
X106322910Y-81657216D01*
X106472784Y-81807090D01*
X106590539Y-81983323D01*
X106671650Y-82179142D01*
X106713000Y-82387023D01*
X106713000Y-82598977D01*
X106671650Y-82806858D01*
X106590539Y-83002677D01*
X106472784Y-83178910D01*
X106322910Y-83328784D01*
X106146677Y-83446539D01*
X105950858Y-83527650D01*
X105812271Y-83555217D01*
X105742978Y-83569000D01*
X105531022Y-83569000D01*
X105461729Y-83555217D01*
X105323142Y-83527650D01*
X105127323Y-83446539D01*
X104951090Y-83328784D01*
X104801216Y-83178910D01*
X104683461Y-83002677D01*
X104602350Y-82806858D01*
X104561000Y-82598977D01*
X104561000Y-82387023D01*
X104602350Y-82179142D01*
X104683461Y-81983323D01*
X104801216Y-81807090D01*
X104951090Y-81657216D01*
X105127323Y-81539461D01*
X105323142Y-81458350D01*
X105461729Y-81430783D01*
X105531022Y-81417000D01*
X105742978Y-81417000D01*
X105812271Y-81430783D01*
G37*
G36*
X104248000Y-81104000D02*
G01*
X101706000Y-81104000D01*
X101706000Y-78562000D01*
X104248000Y-78562000D01*
X104248000Y-81104000D01*
G37*
G36*
X109568000Y-81104000D02*
G01*
X107026000Y-81104000D01*
X107026000Y-78562000D01*
X109568000Y-78562000D01*
X109568000Y-81104000D01*
G37*
G36*
X172974000Y-81104000D02*
G01*
X170432000Y-81104000D01*
X170432000Y-78562000D01*
X172974000Y-78562000D01*
X172974000Y-81104000D01*
G37*
G36*
X178294000Y-81104000D02*
G01*
X175752000Y-81104000D01*
X175752000Y-78562000D01*
X178294000Y-78562000D01*
X178294000Y-81104000D01*
G37*
G36*
X171944000Y-75425000D02*
G01*
X169402000Y-75425000D01*
X169402000Y-72883000D01*
X171944000Y-72883000D01*
X171944000Y-75425000D01*
G37*
G36*
X166624000Y-75425000D02*
G01*
X164082000Y-75425000D01*
X164082000Y-72883000D01*
X166624000Y-72883000D01*
X166624000Y-75425000D01*
G37*
G36*
X110598000Y-75425000D02*
G01*
X108056000Y-75425000D01*
X108056000Y-72883000D01*
X110598000Y-72883000D01*
X110598000Y-75425000D01*
G37*
G36*
X115918000Y-75425000D02*
G01*
X113376000Y-75425000D01*
X113376000Y-72883000D01*
X115918000Y-72883000D01*
X115918000Y-75425000D01*
G37*
G36*
X168188271Y-70431783D02*
G01*
X168326858Y-70459350D01*
X168522677Y-70540461D01*
X168698910Y-70658216D01*
X168848784Y-70808090D01*
X168966539Y-70984323D01*
X169047650Y-71180142D01*
X169089000Y-71388023D01*
X169089000Y-71599977D01*
X169047650Y-71807858D01*
X168966539Y-72003677D01*
X168848784Y-72179910D01*
X168698910Y-72329784D01*
X168522677Y-72447539D01*
X168326858Y-72528650D01*
X168188271Y-72556217D01*
X168118978Y-72570000D01*
X167907022Y-72570000D01*
X167837729Y-72556217D01*
X167699142Y-72528650D01*
X167503323Y-72447539D01*
X167327090Y-72329784D01*
X167177216Y-72179910D01*
X167059461Y-72003677D01*
X166978350Y-71807858D01*
X166937000Y-71599977D01*
X166937000Y-71388023D01*
X166978350Y-71180142D01*
X167059461Y-70984323D01*
X167177216Y-70808090D01*
X167327090Y-70658216D01*
X167503323Y-70540461D01*
X167699142Y-70459350D01*
X167837729Y-70431783D01*
X167907022Y-70418000D01*
X168118978Y-70418000D01*
X168188271Y-70431783D01*
G37*
G36*
X112162271Y-70431783D02*
G01*
X112300858Y-70459350D01*
X112496677Y-70540461D01*
X112672910Y-70658216D01*
X112822784Y-70808090D01*
X112940539Y-70984323D01*
X113021650Y-71180142D01*
X113063000Y-71388023D01*
X113063000Y-71599977D01*
X113021650Y-71807858D01*
X112940539Y-72003677D01*
X112822784Y-72179910D01*
X112672910Y-72329784D01*
X112496677Y-72447539D01*
X112300858Y-72528650D01*
X112162271Y-72556217D01*
X112092978Y-72570000D01*
X111881022Y-72570000D01*
X111811729Y-72556217D01*
X111673142Y-72528650D01*
X111477323Y-72447539D01*
X111301090Y-72329784D01*
X111151216Y-72179910D01*
X111033461Y-72003677D01*
X110952350Y-71807858D01*
X110911000Y-71599977D01*
X110911000Y-71388023D01*
X110952350Y-71180142D01*
X111033461Y-70984323D01*
X111151216Y-70808090D01*
X111301090Y-70658216D01*
X111477323Y-70540461D01*
X111673142Y-70459350D01*
X111811729Y-70431783D01*
X111881022Y-70418000D01*
X112092978Y-70418000D01*
X112162271Y-70431783D01*
G37*
G36*
X110598000Y-70105000D02*
G01*
X108056000Y-70105000D01*
X108056000Y-67563000D01*
X110598000Y-67563000D01*
X110598000Y-70105000D01*
G37*
G36*
X115918000Y-70105000D02*
G01*
X113376000Y-70105000D01*
X113376000Y-67563000D01*
X115918000Y-67563000D01*
X115918000Y-70105000D01*
G37*
G36*
X171944000Y-70105000D02*
G01*
X169402000Y-70105000D01*
X169402000Y-67563000D01*
X171944000Y-67563000D01*
X171944000Y-70105000D01*
G37*
G36*
X166624000Y-70105000D02*
G01*
X164082000Y-70105000D01*
X164082000Y-67563000D01*
X166624000Y-67563000D01*
X166624000Y-70105000D01*
G37*
G36*
X120327000Y-67262000D02*
G01*
X117785000Y-67262000D01*
X117785000Y-64720000D01*
X120327000Y-64720000D01*
X120327000Y-67262000D01*
G37*
G36*
X156895000Y-67262000D02*
G01*
X154353000Y-67262000D01*
X154353000Y-64720000D01*
X156895000Y-64720000D01*
X156895000Y-67262000D01*
G37*
G36*
X125647000Y-67262000D02*
G01*
X123105000Y-67262000D01*
X123105000Y-64720000D01*
X125647000Y-64720000D01*
X125647000Y-67262000D01*
G37*
G36*
X162215000Y-67262000D02*
G01*
X159673000Y-67262000D01*
X159673000Y-64720000D01*
X162215000Y-64720000D01*
X162215000Y-67262000D01*
G37*
G36*
X158459271Y-62268783D02*
G01*
X158597858Y-62296350D01*
X158793677Y-62377461D01*
X158969910Y-62495216D01*
X159119784Y-62645090D01*
X159237539Y-62821323D01*
X159318650Y-63017142D01*
X159360000Y-63225023D01*
X159360000Y-63436977D01*
X159318650Y-63644858D01*
X159237539Y-63840677D01*
X159119784Y-64016910D01*
X158969910Y-64166784D01*
X158793677Y-64284539D01*
X158597858Y-64365650D01*
X158459271Y-64393217D01*
X158389978Y-64407000D01*
X158178022Y-64407000D01*
X158108729Y-64393217D01*
X157970142Y-64365650D01*
X157774323Y-64284539D01*
X157598090Y-64166784D01*
X157448216Y-64016910D01*
X157330461Y-63840677D01*
X157249350Y-63644858D01*
X157208000Y-63436977D01*
X157208000Y-63225023D01*
X157249350Y-63017142D01*
X157330461Y-62821323D01*
X157448216Y-62645090D01*
X157598090Y-62495216D01*
X157774323Y-62377461D01*
X157970142Y-62296350D01*
X158108729Y-62268783D01*
X158178022Y-62255000D01*
X158389978Y-62255000D01*
X158459271Y-62268783D01*
G37*
G36*
X121891271Y-62268783D02*
G01*
X122029858Y-62296350D01*
X122225677Y-62377461D01*
X122401910Y-62495216D01*
X122551784Y-62645090D01*
X122669539Y-62821323D01*
X122750650Y-63017142D01*
X122792000Y-63225023D01*
X122792000Y-63436977D01*
X122750650Y-63644858D01*
X122669539Y-63840677D01*
X122551784Y-64016910D01*
X122401910Y-64166784D01*
X122225677Y-64284539D01*
X122029858Y-64365650D01*
X121891271Y-64393217D01*
X121821978Y-64407000D01*
X121610022Y-64407000D01*
X121540729Y-64393217D01*
X121402142Y-64365650D01*
X121206323Y-64284539D01*
X121030090Y-64166784D01*
X120880216Y-64016910D01*
X120762461Y-63840677D01*
X120681350Y-63644858D01*
X120640000Y-63436977D01*
X120640000Y-63225023D01*
X120681350Y-63017142D01*
X120762461Y-62821323D01*
X120880216Y-62645090D01*
X121030090Y-62495216D01*
X121206323Y-62377461D01*
X121402142Y-62296350D01*
X121540729Y-62268783D01*
X121610022Y-62255000D01*
X121821978Y-62255000D01*
X121891271Y-62268783D01*
G37*
G36*
X132261000Y-62918000D02*
G01*
X129719000Y-62918000D01*
X129719000Y-60376000D01*
X132261000Y-60376000D01*
X132261000Y-62918000D01*
G37*
G36*
X144961000Y-62918000D02*
G01*
X142419000Y-62918000D01*
X142419000Y-60376000D01*
X144961000Y-60376000D01*
X144961000Y-62918000D01*
G37*
G36*
X150281000Y-62918000D02*
G01*
X147739000Y-62918000D01*
X147739000Y-60376000D01*
X150281000Y-60376000D01*
X150281000Y-62918000D01*
G37*
G36*
X137581000Y-62918000D02*
G01*
X135039000Y-62918000D01*
X135039000Y-60376000D01*
X137581000Y-60376000D01*
X137581000Y-62918000D01*
G37*
G36*
X120327000Y-61942000D02*
G01*
X117785000Y-61942000D01*
X117785000Y-59400000D01*
X120327000Y-59400000D01*
X120327000Y-61942000D01*
G37*
G36*
X125647000Y-61942000D02*
G01*
X123105000Y-61942000D01*
X123105000Y-59400000D01*
X125647000Y-59400000D01*
X125647000Y-61942000D01*
G37*
G36*
X156895000Y-61942000D02*
G01*
X154353000Y-61942000D01*
X154353000Y-59400000D01*
X156895000Y-59400000D01*
X156895000Y-61942000D01*
G37*
G36*
X162215000Y-61942000D02*
G01*
X159673000Y-61942000D01*
X159673000Y-59400000D01*
X162215000Y-59400000D01*
X162215000Y-61942000D01*
G37*
G36*
X133825271Y-57924783D02*
G01*
X133963858Y-57952350D01*
X134159677Y-58033461D01*
X134335910Y-58151216D01*
X134485784Y-58301090D01*
X134603539Y-58477323D01*
X134684650Y-58673142D01*
X134726000Y-58881023D01*
X134726000Y-59092977D01*
X134684650Y-59300858D01*
X134603539Y-59496677D01*
X134485784Y-59672910D01*
X134335910Y-59822784D01*
X134159677Y-59940539D01*
X133963858Y-60021650D01*
X133825271Y-60049217D01*
X133755978Y-60063000D01*
X133544022Y-60063000D01*
X133474729Y-60049217D01*
X133336142Y-60021650D01*
X133140323Y-59940539D01*
X132964090Y-59822784D01*
X132814216Y-59672910D01*
X132696461Y-59496677D01*
X132615350Y-59300858D01*
X132574000Y-59092977D01*
X132574000Y-58881023D01*
X132615350Y-58673142D01*
X132696461Y-58477323D01*
X132814216Y-58301090D01*
X132964090Y-58151216D01*
X133140323Y-58033461D01*
X133336142Y-57952350D01*
X133474729Y-57924783D01*
X133544022Y-57911000D01*
X133755978Y-57911000D01*
X133825271Y-57924783D01*
G37*
G36*
X146525271Y-57924783D02*
G01*
X146663858Y-57952350D01*
X146859677Y-58033461D01*
X147035910Y-58151216D01*
X147185784Y-58301090D01*
X147303539Y-58477323D01*
X147384650Y-58673142D01*
X147426000Y-58881023D01*
X147426000Y-59092977D01*
X147384650Y-59300858D01*
X147303539Y-59496677D01*
X147185784Y-59672910D01*
X147035910Y-59822784D01*
X146859677Y-59940539D01*
X146663858Y-60021650D01*
X146525271Y-60049217D01*
X146455978Y-60063000D01*
X146244022Y-60063000D01*
X146174729Y-60049217D01*
X146036142Y-60021650D01*
X145840323Y-59940539D01*
X145664090Y-59822784D01*
X145514216Y-59672910D01*
X145396461Y-59496677D01*
X145315350Y-59300858D01*
X145274000Y-59092977D01*
X145274000Y-58881023D01*
X145315350Y-58673142D01*
X145396461Y-58477323D01*
X145514216Y-58301090D01*
X145664090Y-58151216D01*
X145840323Y-58033461D01*
X146036142Y-57952350D01*
X146174729Y-57924783D01*
X146244022Y-57911000D01*
X146455978Y-57911000D01*
X146525271Y-57924783D01*
G37*
G36*
X144961000Y-57598000D02*
G01*
X142419000Y-57598000D01*
X142419000Y-55056000D01*
X144961000Y-55056000D01*
X144961000Y-57598000D01*
G37*
G36*
X137581000Y-57598000D02*
G01*
X135039000Y-57598000D01*
X135039000Y-55056000D01*
X137581000Y-55056000D01*
X137581000Y-57598000D01*
G37*
G36*
X150281000Y-57598000D02*
G01*
X147739000Y-57598000D01*
X147739000Y-55056000D01*
X150281000Y-55056000D01*
X150281000Y-57598000D01*
G37*
G36*
X132261000Y-57598000D02*
G01*
X129719000Y-57598000D01*
X129719000Y-55056000D01*
X132261000Y-55056000D01*
X132261000Y-57598000D01*
G37*
M02*
