G04 #@! TF.GenerationSoftware,KiCad,Pcbnew,(5.1.5)-3*
G04 #@! TF.CreationDate,2020-01-15T16:09:59-07:00*
G04 #@! TF.ProjectId,Station06,53746174-696f-46e3-9036-2e6b69636164,rev?*
G04 #@! TF.SameCoordinates,Original*
G04 #@! TF.FileFunction,Soldermask,Bot*
G04 #@! TF.FilePolarity,Negative*
%FSLAX46Y46*%
G04 Gerber Fmt 4.6, Leading zero omitted, Abs format (unit mm)*
G04 Created by KiCad (PCBNEW (5.1.5)-3) date 2020-01-15 16:09:59*
%MOMM*%
%LPD*%
G04 APERTURE LIST*
%ADD10C,0.152400*%
%ADD11C,0.100000*%
G04 APERTURE END LIST*
D10*
X166721300Y-71660000D02*
G75*
G03X166721300Y-71660000I-241300J0D01*
G01*
X113931300Y-71790000D02*
G75*
G03X113931300Y-71790000I-241300J0D01*
G01*
X175178720Y-95056960D02*
G75*
G03X175178720Y-95056960I-241300J0D01*
G01*
X173103540Y-83126580D02*
G75*
G03X173103540Y-83126580I-241300J0D01*
G01*
X157817820Y-64709040D02*
G75*
G03X157817820Y-64709040I-241300J0D01*
G01*
X146354800Y-60553600D02*
G75*
G03X146354800Y-60553600I-241300J0D01*
G01*
X134160260Y-60568840D02*
G75*
G03X134160260Y-60568840I-241300J0D01*
G01*
X122722640Y-64770000D02*
G75*
G03X122722640Y-64770000I-241300J0D01*
G01*
X107381040Y-83129120D02*
G75*
G03X107381040Y-83129120I-241300J0D01*
G01*
X105343960Y-95051880D02*
G75*
G03X105343960Y-95051880I-241300J0D01*
G01*
X144991300Y-96000000D02*
G75*
G03X144991300Y-96000000I-241300J0D01*
G01*
X143991300Y-95500000D02*
G75*
G03X143991300Y-95500000I-241300J0D01*
G01*
X142991300Y-95500000D02*
G75*
G03X142991300Y-95500000I-241300J0D01*
G01*
X141991300Y-95500000D02*
G75*
G03X141991300Y-95500000I-241300J0D01*
G01*
X140991300Y-95500000D02*
G75*
G03X140991300Y-95500000I-241300J0D01*
G01*
X139991300Y-95500000D02*
G75*
G03X139991300Y-95500000I-241300J0D01*
G01*
X138991300Y-95500000D02*
G75*
G03X138991300Y-95500000I-241300J0D01*
G01*
X137991300Y-95500000D02*
G75*
G03X137991300Y-95500000I-241300J0D01*
G01*
X136991300Y-95500000D02*
G75*
G03X136991300Y-95500000I-241300J0D01*
G01*
X135991300Y-96000000D02*
G75*
G03X135991300Y-96000000I-241300J0D01*
G01*
D11*
G36*
X145505553Y-100950481D02*
G01*
X145486611Y-100966026D01*
X145471066Y-100984968D01*
X145459515Y-101006579D01*
X145452402Y-101030028D01*
X145450000Y-101054413D01*
X145450000Y-103250000D01*
X135550000Y-103250000D01*
X135550000Y-101054413D01*
X135547598Y-101030027D01*
X135540485Y-101006578D01*
X135528934Y-100984967D01*
X135513389Y-100966025D01*
X135494447Y-100950480D01*
X135493549Y-100950000D01*
X145506453Y-100950000D01*
X145505553Y-100950481D01*
G37*
G36*
X146646348Y-99993820D02*
G01*
X146646350Y-99993821D01*
X146646351Y-99993821D01*
X146787574Y-100052317D01*
X146787577Y-100052319D01*
X146914669Y-100137239D01*
X147022761Y-100245331D01*
X147107681Y-100372423D01*
X147107683Y-100372426D01*
X147166179Y-100513649D01*
X147166180Y-100513652D01*
X147196000Y-100663569D01*
X147196000Y-100816431D01*
X147169432Y-100950000D01*
X147166179Y-100966351D01*
X147107683Y-101107574D01*
X147107681Y-101107577D01*
X147022761Y-101234669D01*
X146914669Y-101342761D01*
X146787577Y-101427681D01*
X146787574Y-101427683D01*
X146646351Y-101486179D01*
X146646350Y-101486179D01*
X146646348Y-101486180D01*
X146496431Y-101516000D01*
X146343569Y-101516000D01*
X146193652Y-101486180D01*
X146193650Y-101486179D01*
X146193649Y-101486179D01*
X146052426Y-101427683D01*
X146052423Y-101427681D01*
X145925331Y-101342761D01*
X145817239Y-101234669D01*
X145732319Y-101107577D01*
X145732317Y-101107574D01*
X145690483Y-101006577D01*
X145678931Y-100984967D01*
X145663386Y-100966025D01*
X145644444Y-100950480D01*
X145622833Y-100938929D01*
X145599384Y-100931816D01*
X145585596Y-100930458D01*
X145588447Y-100928934D01*
X145607389Y-100913389D01*
X145622934Y-100894447D01*
X145634485Y-100872836D01*
X145641598Y-100849387D01*
X145644000Y-100825001D01*
X145644000Y-100663569D01*
X145673820Y-100513652D01*
X145673821Y-100513649D01*
X145732317Y-100372426D01*
X145732319Y-100372423D01*
X145817239Y-100245331D01*
X145925331Y-100137239D01*
X146052423Y-100052319D01*
X146052426Y-100052317D01*
X146193649Y-99993821D01*
X146193650Y-99993821D01*
X146193652Y-99993820D01*
X146343569Y-99964000D01*
X146496431Y-99964000D01*
X146646348Y-99993820D01*
G37*
G36*
X134806348Y-99993820D02*
G01*
X134806350Y-99993821D01*
X134806351Y-99993821D01*
X134947574Y-100052317D01*
X134947577Y-100052319D01*
X135074669Y-100137239D01*
X135182761Y-100245331D01*
X135267681Y-100372423D01*
X135267683Y-100372426D01*
X135326179Y-100513649D01*
X135326180Y-100513652D01*
X135356000Y-100663569D01*
X135356000Y-100825001D01*
X135358402Y-100849387D01*
X135365515Y-100872836D01*
X135377066Y-100894447D01*
X135392611Y-100913389D01*
X135411553Y-100928934D01*
X135414404Y-100930458D01*
X135400615Y-100931816D01*
X135377166Y-100938929D01*
X135355555Y-100950480D01*
X135336613Y-100966025D01*
X135321068Y-100984967D01*
X135309517Y-101006577D01*
X135267683Y-101107574D01*
X135267681Y-101107577D01*
X135182761Y-101234669D01*
X135074669Y-101342761D01*
X134947577Y-101427681D01*
X134947574Y-101427683D01*
X134806351Y-101486179D01*
X134806350Y-101486179D01*
X134806348Y-101486180D01*
X134656431Y-101516000D01*
X134503569Y-101516000D01*
X134353652Y-101486180D01*
X134353650Y-101486179D01*
X134353649Y-101486179D01*
X134212426Y-101427683D01*
X134212423Y-101427681D01*
X134085331Y-101342761D01*
X133977239Y-101234669D01*
X133892319Y-101107577D01*
X133892317Y-101107574D01*
X133833821Y-100966351D01*
X133830569Y-100950000D01*
X133804000Y-100816431D01*
X133804000Y-100663569D01*
X133833820Y-100513652D01*
X133833821Y-100513649D01*
X133892317Y-100372426D01*
X133892319Y-100372423D01*
X133977239Y-100245331D01*
X134085331Y-100137239D01*
X134212423Y-100052319D01*
X134212426Y-100052317D01*
X134353649Y-99993821D01*
X134353650Y-99993821D01*
X134353652Y-99993820D01*
X134503569Y-99964000D01*
X134656431Y-99964000D01*
X134806348Y-99993820D01*
G37*
G36*
X148143228Y-97921703D02*
G01*
X148298100Y-97985853D01*
X148437481Y-98078985D01*
X148556015Y-98197519D01*
X148649147Y-98336900D01*
X148713297Y-98491772D01*
X148746000Y-98656184D01*
X148746000Y-98823816D01*
X148713297Y-98988228D01*
X148649147Y-99143100D01*
X148556015Y-99282481D01*
X148437481Y-99401015D01*
X148298100Y-99494147D01*
X148143228Y-99558297D01*
X147978816Y-99591000D01*
X147811184Y-99591000D01*
X147646772Y-99558297D01*
X147491900Y-99494147D01*
X147352519Y-99401015D01*
X147233985Y-99282481D01*
X147140853Y-99143100D01*
X147076703Y-98988228D01*
X147044000Y-98823816D01*
X147044000Y-98656184D01*
X147076703Y-98491772D01*
X147140853Y-98336900D01*
X147233985Y-98197519D01*
X147352519Y-98078985D01*
X147491900Y-97985853D01*
X147646772Y-97921703D01*
X147811184Y-97889000D01*
X147978816Y-97889000D01*
X148143228Y-97921703D01*
G37*
G36*
X133353228Y-97921703D02*
G01*
X133508100Y-97985853D01*
X133647481Y-98078985D01*
X133766015Y-98197519D01*
X133859147Y-98336900D01*
X133923297Y-98491772D01*
X133956000Y-98656184D01*
X133956000Y-98823816D01*
X133923297Y-98988228D01*
X133859147Y-99143100D01*
X133766015Y-99282481D01*
X133647481Y-99401015D01*
X133508100Y-99494147D01*
X133353228Y-99558297D01*
X133188816Y-99591000D01*
X133021184Y-99591000D01*
X132856772Y-99558297D01*
X132701900Y-99494147D01*
X132562519Y-99401015D01*
X132443985Y-99282481D01*
X132350853Y-99143100D01*
X132286703Y-98988228D01*
X132254000Y-98823816D01*
X132254000Y-98656184D01*
X132286703Y-98491772D01*
X132350853Y-98336900D01*
X132443985Y-98197519D01*
X132562519Y-98078985D01*
X132701900Y-97985853D01*
X132856772Y-97921703D01*
X133021184Y-97889000D01*
X133188816Y-97889000D01*
X133353228Y-97921703D01*
G37*
G36*
X145450000Y-99050000D02*
G01*
X135550000Y-99050000D01*
X135550000Y-96750000D01*
X145450000Y-96750000D01*
X145450000Y-99050000D01*
G37*
M02*
