G04 #@! TF.GenerationSoftware,KiCad,Pcbnew,(6.0.0-rc1-dev-305-gf0b8b2136)*
G04 #@! TF.CreationDate,2019-07-12T16:48:16-06:00*
G04 #@! TF.ProjectId,Gateway01,4761746577617930312E6B696361645F,rev?*
G04 #@! TF.SameCoordinates,Original*
G04 #@! TF.FileFunction,Legend,Bot*
G04 #@! TF.FilePolarity,Positive*
%FSLAX46Y46*%
G04 Gerber Fmt 4.6, Leading zero omitted, Abs format (unit mm)*
G04 Created by KiCad (PCBNEW (6.0.0-rc1-dev-305-gf0b8b2136)) date 07/12/19 16:48:16*
%MOMM*%
%LPD*%
G01*
G04 APERTURE LIST*
%ADD10C,0.120000*%
%ADD11C,0.225000*%
%ADD12C,0.300000*%
G04 APERTURE END LIST*
D10*
X90537000Y-115170000D02*
X90437000Y-114400000D01*
X90437000Y-114400000D02*
X90337000Y-115170000D01*
X90337000Y-115170000D02*
X90537000Y-115170000D01*
X90437000Y-114400000D02*
X90437000Y-115170000D01*
X91622000Y-79850000D02*
G75*
G03X91622000Y-79850000I-60000J0D01*
G01*
X94122000Y-96350000D02*
G75*
G03X94122000Y-96350000I-60000J0D01*
G01*
D11*
X78912000Y-98000000D02*
X83572000Y-98000000D01*
D10*
X93122000Y-79850000D02*
G75*
G03X93122000Y-79850000I-60000J0D01*
G01*
X92622000Y-96350000D02*
G75*
G03X92622000Y-96350000I-60000J0D01*
G01*
D11*
X78912000Y-82000000D02*
X83572000Y-82000000D01*
D10*
X94622000Y-79850000D02*
G75*
G03X94622000Y-79850000I-60000J0D01*
G01*
X108122000Y-88350000D02*
G75*
G03X108122000Y-88350000I-60000J0D01*
G01*
X104122000Y-88350000D02*
G75*
G03X104122000Y-88350000I-60000J0D01*
G01*
X95122000Y-79850000D02*
G75*
G03X95122000Y-79850000I-60000J0D01*
G01*
X92622000Y-79850000D02*
G75*
G03X92622000Y-79850000I-60000J0D01*
G01*
X81122000Y-88350000D02*
G75*
G03X81122000Y-88350000I-60000J0D01*
G01*
X108622000Y-88350000D02*
G75*
G03X108622000Y-88350000I-60000J0D01*
G01*
X107122000Y-88350000D02*
G75*
G03X107122000Y-88350000I-60000J0D01*
G01*
X82622000Y-88350000D02*
G75*
G03X82622000Y-88350000I-60000J0D01*
G01*
X95122000Y-96350000D02*
G75*
G03X95122000Y-96350000I-60000J0D01*
G01*
X92122000Y-79850000D02*
G75*
G03X92122000Y-79850000I-60000J0D01*
G01*
X83122000Y-88350000D02*
G75*
G03X83122000Y-88350000I-60000J0D01*
G01*
X105622000Y-88350000D02*
G75*
G03X105622000Y-88350000I-60000J0D01*
G01*
X93622000Y-96350000D02*
G75*
G03X93622000Y-96350000I-60000J0D01*
G01*
X94622000Y-96350000D02*
G75*
G03X94622000Y-96350000I-60000J0D01*
G01*
X104122000Y-104350000D02*
G75*
G03X104122000Y-104350000I-60000J0D01*
G01*
X93122000Y-96350000D02*
G75*
G03X93122000Y-96350000I-60000J0D01*
G01*
X80622000Y-88350000D02*
G75*
G03X80622000Y-88350000I-60000J0D01*
G01*
X79622000Y-88350000D02*
G75*
G03X79622000Y-88350000I-60000J0D01*
G01*
X79122000Y-104350000D02*
G75*
G03X79122000Y-104350000I-60000J0D01*
G01*
X83622000Y-88350000D02*
G75*
G03X83622000Y-88350000I-60000J0D01*
G01*
X96122000Y-79850000D02*
G75*
G03X96122000Y-79850000I-60000J0D01*
G01*
X95622000Y-79850000D02*
G75*
G03X95622000Y-79850000I-60000J0D01*
G01*
X105122000Y-88350000D02*
G75*
G03X105122000Y-88350000I-60000J0D01*
G01*
X79122000Y-88350000D02*
G75*
G03X79122000Y-88350000I-60000J0D01*
G01*
X94122000Y-79850000D02*
G75*
G03X94122000Y-79850000I-60000J0D01*
G01*
X106122000Y-88350000D02*
G75*
G03X106122000Y-88350000I-60000J0D01*
G01*
X104622000Y-88350000D02*
G75*
G03X104622000Y-88350000I-60000J0D01*
G01*
X92122000Y-96350000D02*
G75*
G03X92122000Y-96350000I-60000J0D01*
G01*
D11*
X91412000Y-90040000D02*
X96072000Y-90040000D01*
D10*
X96122000Y-96350000D02*
G75*
G03X96122000Y-96350000I-60000J0D01*
G01*
D11*
X91412000Y-73500000D02*
X96072000Y-73500000D01*
X103912000Y-82000000D02*
X108572000Y-82000000D01*
X103912000Y-98000000D02*
X108572000Y-98000000D01*
D10*
X93622000Y-79850000D02*
G75*
G03X93622000Y-79850000I-60000J0D01*
G01*
X91622000Y-96350000D02*
G75*
G03X91622000Y-96350000I-60000J0D01*
G01*
X107622000Y-88350000D02*
G75*
G03X107622000Y-88350000I-60000J0D01*
G01*
X106622000Y-88350000D02*
G75*
G03X106622000Y-88350000I-60000J0D01*
G01*
X81622000Y-88350000D02*
G75*
G03X81622000Y-88350000I-60000J0D01*
G01*
X80122000Y-88350000D02*
G75*
G03X80122000Y-88350000I-60000J0D01*
G01*
X82122000Y-88350000D02*
G75*
G03X82122000Y-88350000I-60000J0D01*
G01*
X95622000Y-96350000D02*
G75*
G03X95622000Y-96350000I-60000J0D01*
G01*
X91622000Y-112850000D02*
G75*
G03X91622000Y-112850000I-60000J0D01*
G01*
X93122000Y-112850000D02*
G75*
G03X93122000Y-112850000I-60000J0D01*
G01*
X92622000Y-112850000D02*
G75*
G03X92622000Y-112850000I-60000J0D01*
G01*
X92122000Y-112850000D02*
G75*
G03X92122000Y-112850000I-60000J0D01*
G01*
X94122000Y-112850000D02*
G75*
G03X94122000Y-112850000I-60000J0D01*
G01*
X93622000Y-112850000D02*
G75*
G03X93622000Y-112850000I-60000J0D01*
G01*
X108122000Y-104350000D02*
G75*
G03X108122000Y-104350000I-60000J0D01*
G01*
X107622000Y-104350000D02*
G75*
G03X107622000Y-104350000I-60000J0D01*
G01*
X108622000Y-104350000D02*
G75*
G03X108622000Y-104350000I-60000J0D01*
G01*
X78037000Y-106670000D02*
X77937000Y-105900000D01*
X90437000Y-97900000D02*
X90437000Y-98670000D01*
X90337000Y-98670000D02*
X90537000Y-98670000D01*
X78037000Y-90670000D02*
X77937000Y-89900000D01*
X77837000Y-90670000D02*
X78037000Y-90670000D01*
X103037000Y-90670000D02*
X102937000Y-89900000D01*
X77837000Y-106670000D02*
X78037000Y-106670000D01*
X77937000Y-105900000D02*
X77937000Y-106670000D01*
X102937000Y-89900000D02*
X102937000Y-90670000D01*
X90337000Y-82170000D02*
X90537000Y-82170000D01*
X77937000Y-105900000D02*
X77837000Y-106670000D01*
X102937000Y-105900000D02*
X102837000Y-106670000D01*
X77937000Y-89900000D02*
X77837000Y-90670000D01*
X77937000Y-89900000D02*
X77937000Y-90670000D01*
X102937000Y-89900000D02*
X102837000Y-90670000D01*
X90437000Y-81400000D02*
X90337000Y-82170000D01*
X90537000Y-98670000D02*
X90437000Y-97900000D01*
X103037000Y-106670000D02*
X102937000Y-105900000D01*
X90437000Y-81400000D02*
X90437000Y-82170000D01*
X90537000Y-82170000D02*
X90437000Y-81400000D01*
X90437000Y-97900000D02*
X90337000Y-98670000D01*
X102937000Y-105900000D02*
X102937000Y-106670000D01*
X102837000Y-106670000D02*
X103037000Y-106670000D01*
X102837000Y-90670000D02*
X103037000Y-90670000D01*
X83622000Y-104350000D02*
G75*
G03X83622000Y-104350000I-60000J0D01*
G01*
X106122000Y-104350000D02*
G75*
G03X106122000Y-104350000I-60000J0D01*
G01*
X83122000Y-104350000D02*
G75*
G03X83122000Y-104350000I-60000J0D01*
G01*
X82622000Y-104350000D02*
G75*
G03X82622000Y-104350000I-60000J0D01*
G01*
X107122000Y-104350000D02*
G75*
G03X107122000Y-104350000I-60000J0D01*
G01*
X105622000Y-104350000D02*
G75*
G03X105622000Y-104350000I-60000J0D01*
G01*
X106622000Y-104350000D02*
G75*
G03X106622000Y-104350000I-60000J0D01*
G01*
X105122000Y-104350000D02*
G75*
G03X105122000Y-104350000I-60000J0D01*
G01*
X104622000Y-104350000D02*
G75*
G03X104622000Y-104350000I-60000J0D01*
G01*
X82122000Y-104350000D02*
G75*
G03X82122000Y-104350000I-60000J0D01*
G01*
X95622000Y-112850000D02*
G75*
G03X95622000Y-112850000I-60000J0D01*
G01*
X96122000Y-112850000D02*
G75*
G03X96122000Y-112850000I-60000J0D01*
G01*
D11*
X91452000Y-106500000D02*
X96112000Y-106500000D01*
D10*
X95122000Y-112850000D02*
G75*
G03X95122000Y-112850000I-60000J0D01*
G01*
X94622000Y-112850000D02*
G75*
G03X94622000Y-112850000I-60000J0D01*
G01*
X81122000Y-104350000D02*
G75*
G03X81122000Y-104350000I-60000J0D01*
G01*
X80122000Y-104350000D02*
G75*
G03X80122000Y-104350000I-60000J0D01*
G01*
X79622000Y-104350000D02*
G75*
G03X79622000Y-104350000I-60000J0D01*
G01*
X81622000Y-104350000D02*
G75*
G03X81622000Y-104350000I-60000J0D01*
G01*
X80622000Y-104350000D02*
G75*
G03X80622000Y-104350000I-60000J0D01*
G01*
D12*
X115740000Y-102770446D02*
X115835238Y-102949017D01*
X115835238Y-103234732D01*
X115740000Y-103532351D01*
X115549523Y-103746636D01*
X115359047Y-103865684D01*
X114978095Y-104008541D01*
X114692380Y-104044255D01*
X114311428Y-103996636D01*
X114120952Y-103925208D01*
X113930476Y-103758541D01*
X113835238Y-103484732D01*
X113835238Y-103294255D01*
X113930476Y-102996636D01*
X114025714Y-102889494D01*
X114692380Y-102806160D01*
X114692380Y-103187113D01*
X113835238Y-101199017D02*
X114882857Y-101068065D01*
X115073333Y-101139494D01*
X115168571Y-101318065D01*
X115168571Y-101699017D01*
X115073333Y-101901398D01*
X113930476Y-101187113D02*
X113835238Y-101389494D01*
X113835238Y-101865684D01*
X113930476Y-102044255D01*
X114120952Y-102115684D01*
X114311428Y-102091875D01*
X114501904Y-101972827D01*
X114597142Y-101770446D01*
X114597142Y-101294255D01*
X114692380Y-101091875D01*
X115168571Y-100365684D02*
X115168571Y-99603779D01*
X115835238Y-99996636D02*
X114120952Y-100210922D01*
X113930476Y-100139494D01*
X113835238Y-99960922D01*
X113835238Y-99770446D01*
X113930476Y-98329970D02*
X113835238Y-98532351D01*
X113835238Y-98913303D01*
X113930476Y-99091875D01*
X114120952Y-99163303D01*
X114882857Y-99068065D01*
X115073333Y-98949017D01*
X115168571Y-98746636D01*
X115168571Y-98365684D01*
X115073333Y-98187113D01*
X114882857Y-98115684D01*
X114692380Y-98139494D01*
X114501904Y-99115684D01*
X115168571Y-97413303D02*
X113835238Y-97199017D01*
X114787619Y-96699017D01*
X113835238Y-96437113D01*
X115168571Y-95889494D01*
X113835238Y-94437113D02*
X114882857Y-94306160D01*
X115073333Y-94377589D01*
X115168571Y-94556160D01*
X115168571Y-94937113D01*
X115073333Y-95139494D01*
X113930476Y-94425208D02*
X113835238Y-94627589D01*
X113835238Y-95103779D01*
X113930476Y-95282351D01*
X114120952Y-95353779D01*
X114311428Y-95329970D01*
X114501904Y-95210922D01*
X114597142Y-95008541D01*
X114597142Y-94532351D01*
X114692380Y-94329970D01*
X115168571Y-93508541D02*
X113835238Y-93199017D01*
X115168571Y-92556160D02*
X113835238Y-93199017D01*
X113359047Y-93449017D01*
X113263809Y-93556160D01*
X113168571Y-93758541D01*
X115835238Y-91329970D02*
X115835238Y-91139494D01*
X115740000Y-90960922D01*
X115644761Y-90877589D01*
X115454285Y-90806160D01*
X115073333Y-90758541D01*
X114597142Y-90818065D01*
X114216190Y-90960922D01*
X114025714Y-91079970D01*
X113930476Y-91187113D01*
X113835238Y-91389494D01*
X113835238Y-91579970D01*
X113930476Y-91758541D01*
X114025714Y-91841875D01*
X114216190Y-91913303D01*
X114597142Y-91960922D01*
X115073333Y-91901398D01*
X115454285Y-91758541D01*
X115644761Y-91639494D01*
X115740000Y-91532351D01*
X115835238Y-91329970D01*
X113835238Y-89008541D02*
X113835238Y-90151398D01*
X113835238Y-89579970D02*
X115835238Y-89329970D01*
X115549523Y-89556160D01*
X115359047Y-89770446D01*
X115263809Y-89972827D01*
D11*
X74028571Y-90740000D02*
X72528571Y-90740000D01*
X73028571Y-91454285D02*
X74028571Y-91454285D01*
X73171428Y-91454285D02*
X73100000Y-91525714D01*
X73028571Y-91668571D01*
X73028571Y-91882857D01*
X73100000Y-92025714D01*
X73242857Y-92097142D01*
X74028571Y-92097142D01*
X73028571Y-92811428D02*
X74028571Y-92811428D01*
X73171428Y-92811428D02*
X73100000Y-92882857D01*
X73028571Y-93025714D01*
X73028571Y-93240000D01*
X73100000Y-93382857D01*
X73242857Y-93454285D01*
X74028571Y-93454285D01*
X73957142Y-94740000D02*
X74028571Y-94597142D01*
X74028571Y-94311428D01*
X73957142Y-94168571D01*
X73814285Y-94097142D01*
X73242857Y-94097142D01*
X73100000Y-94168571D01*
X73028571Y-94311428D01*
X73028571Y-94597142D01*
X73100000Y-94740000D01*
X73242857Y-94811428D01*
X73385714Y-94811428D01*
X73528571Y-94097142D01*
X74028571Y-95454285D02*
X73028571Y-95454285D01*
X73314285Y-95454285D02*
X73171428Y-95525714D01*
X73100000Y-95597142D01*
X73028571Y-95740000D01*
X73028571Y-95882857D01*
X74028571Y-98240000D02*
X74028571Y-97525714D01*
X72528571Y-97525714D01*
X74028571Y-99382857D02*
X73242857Y-99382857D01*
X73100000Y-99311428D01*
X73028571Y-99168571D01*
X73028571Y-98882857D01*
X73100000Y-98740000D01*
X73957142Y-99382857D02*
X74028571Y-99240000D01*
X74028571Y-98882857D01*
X73957142Y-98740000D01*
X73814285Y-98668571D01*
X73671428Y-98668571D01*
X73528571Y-98740000D01*
X73457142Y-98882857D01*
X73457142Y-99240000D01*
X73385714Y-99382857D01*
X73028571Y-99954285D02*
X74028571Y-100311428D01*
X73028571Y-100668571D02*
X74028571Y-100311428D01*
X74385714Y-100168571D01*
X74457142Y-100097142D01*
X74528571Y-99954285D01*
X73957142Y-101811428D02*
X74028571Y-101668571D01*
X74028571Y-101382857D01*
X73957142Y-101240000D01*
X73814285Y-101168571D01*
X73242857Y-101168571D01*
X73100000Y-101240000D01*
X73028571Y-101382857D01*
X73028571Y-101668571D01*
X73100000Y-101811428D01*
X73242857Y-101882857D01*
X73385714Y-101882857D01*
X73528571Y-101168571D01*
X74028571Y-102525714D02*
X73028571Y-102525714D01*
X73314285Y-102525714D02*
X73171428Y-102597142D01*
X73100000Y-102668571D01*
X73028571Y-102811428D01*
X73028571Y-102954285D01*
X94314477Y-117178571D02*
X93314477Y-117178571D01*
X94144834Y-118678571D01*
X106028763Y-108678571D02*
X106314477Y-108678571D01*
X106466263Y-108750000D01*
X106546620Y-108821428D01*
X106716263Y-109035714D01*
X106823406Y-109321428D01*
X106894834Y-109892857D01*
X106841263Y-110035714D01*
X106778763Y-110107142D01*
X106644834Y-110178571D01*
X106359120Y-110178571D01*
X106207334Y-110107142D01*
X106126977Y-110035714D01*
X106037691Y-109892857D01*
X105993049Y-109535714D01*
X106046620Y-109392857D01*
X106109120Y-109321428D01*
X106243049Y-109250000D01*
X106528763Y-109250000D01*
X106680549Y-109321428D01*
X106760906Y-109392857D01*
X106850191Y-109535714D01*
X80957334Y-108678571D02*
X81671620Y-108678571D01*
X81832334Y-109392857D01*
X81751977Y-109321428D01*
X81600191Y-109250000D01*
X81243049Y-109250000D01*
X81109120Y-109321428D01*
X81046620Y-109392857D01*
X80993049Y-109535714D01*
X81037691Y-109892857D01*
X81126977Y-110035714D01*
X81207334Y-110107142D01*
X81359120Y-110178571D01*
X81716263Y-110178571D01*
X81850191Y-110107142D01*
X81912691Y-110035714D01*
X93591263Y-101178571D02*
X93716263Y-102178571D01*
X93876977Y-100607142D02*
X94368049Y-101678571D01*
X93439477Y-101678571D01*
X81760906Y-92821428D02*
X81680549Y-92750000D01*
X81528763Y-92678571D01*
X81171620Y-92678571D01*
X81037691Y-92750000D01*
X80975191Y-92821428D01*
X80921620Y-92964285D01*
X80939477Y-93107142D01*
X81037691Y-93321428D01*
X82001977Y-94178571D01*
X81073406Y-94178571D01*
X106814477Y-92678571D02*
X105885906Y-92678571D01*
X106457334Y-93250000D01*
X106243049Y-93250000D01*
X106109120Y-93321428D01*
X106046620Y-93392857D01*
X105993049Y-93535714D01*
X106037691Y-93892857D01*
X106126977Y-94035714D01*
X106207334Y-94107142D01*
X106359120Y-94178571D01*
X106787691Y-94178571D01*
X106921620Y-94107142D01*
X106984120Y-94035714D01*
X93573406Y-85678571D02*
X94430549Y-85678571D01*
X94001977Y-85678571D02*
X93814477Y-84178571D01*
X93984120Y-84392857D01*
X94144834Y-84535714D01*
X94296620Y-84607142D01*
D10*
X76285000Y-113750000D02*
X87602000Y-113750000D01*
X100102000Y-113750000D02*
X111425000Y-113750000D01*
X100102000Y-105250000D02*
X87602000Y-105250000D01*
X100102000Y-97250000D02*
X112584000Y-97250000D01*
X75118000Y-97250000D02*
X87600000Y-97250000D01*
X87602000Y-89000000D02*
X100102000Y-89000000D01*
X75120000Y-82080000D02*
X75120000Y-112410000D01*
X87602000Y-80750000D02*
X76285000Y-80750000D01*
X112584000Y-112410000D02*
X112584000Y-82080000D01*
X100102000Y-120515000D02*
X100102000Y-74000000D01*
X87602000Y-120515000D02*
X87602000Y-74000000D01*
X111425000Y-80750000D02*
X100102000Y-80750000D01*
G04 #@! TO.C,U7*
X99532000Y-95110000D02*
G75*
G02X99082000Y-95560000I-450000J0D01*
G01*
X88622000Y-95560000D02*
G75*
G02X88172000Y-95110000I0J450000D01*
G01*
X99082000Y-90440000D02*
G75*
G02X99532000Y-90890000I0J-450000D01*
G01*
X88172000Y-90890000D02*
G75*
G02X88622000Y-90440000I450000J0D01*
G01*
X88622000Y-90440000D02*
X99082000Y-90440000D01*
X88622000Y-95560000D02*
X99082000Y-95560000D01*
X99532000Y-90890000D02*
X99532000Y-95110000D01*
X88172000Y-95110000D02*
X88172000Y-90890000D01*
X87852000Y-92630000D02*
X87852000Y-91830000D01*
X87852000Y-91830000D02*
X88172000Y-91630000D01*
X99852000Y-91830000D02*
X99532000Y-91630000D01*
X99852000Y-92630000D02*
X99852000Y-91830000D01*
X99852000Y-92630000D02*
X99532000Y-92830000D01*
X87852000Y-92630000D02*
X88172000Y-92830000D01*
G04 #@! TO.C,U1*
X99532000Y-78610000D02*
G75*
G02X99082000Y-79060000I-450000J0D01*
G01*
X88622000Y-79060000D02*
G75*
G02X88172000Y-78610000I0J450000D01*
G01*
X99082000Y-73940000D02*
G75*
G02X99532000Y-74390000I0J-450000D01*
G01*
X88172000Y-74390000D02*
G75*
G02X88622000Y-73940000I450000J0D01*
G01*
X88622000Y-73940000D02*
X99082000Y-73940000D01*
X88622000Y-79060000D02*
X99082000Y-79060000D01*
X99532000Y-74390000D02*
X99532000Y-78610000D01*
X88172000Y-78610000D02*
X88172000Y-74390000D01*
X87852000Y-76130000D02*
X87852000Y-75330000D01*
X87852000Y-75330000D02*
X88172000Y-75130000D01*
X99852000Y-75330000D02*
X99532000Y-75130000D01*
X99852000Y-76130000D02*
X99852000Y-75330000D01*
X99852000Y-76130000D02*
X99532000Y-76330000D01*
X87852000Y-76130000D02*
X88172000Y-76330000D01*
G04 #@! TO.C,U3*
X87032000Y-87110000D02*
G75*
G02X86582000Y-87560000I-450000J0D01*
G01*
X76122000Y-87560000D02*
G75*
G02X75672000Y-87110000I0J450000D01*
G01*
X86582000Y-82440000D02*
G75*
G02X87032000Y-82890000I0J-450000D01*
G01*
X75672000Y-82890000D02*
G75*
G02X76122000Y-82440000I450000J0D01*
G01*
X76122000Y-82440000D02*
X86582000Y-82440000D01*
X76122000Y-87560000D02*
X86582000Y-87560000D01*
X87032000Y-82890000D02*
X87032000Y-87110000D01*
X75672000Y-87110000D02*
X75672000Y-82890000D01*
X75352000Y-84630000D02*
X75352000Y-83830000D01*
X75352000Y-83830000D02*
X75672000Y-83630000D01*
X87352000Y-83830000D02*
X87032000Y-83630000D01*
X87352000Y-84630000D02*
X87352000Y-83830000D01*
X87352000Y-84630000D02*
X87032000Y-84830000D01*
X75352000Y-84630000D02*
X75672000Y-84830000D01*
G04 #@! TO.C,U5*
X112032000Y-87110000D02*
G75*
G02X111582000Y-87560000I-450000J0D01*
G01*
X101122000Y-87560000D02*
G75*
G02X100672000Y-87110000I0J450000D01*
G01*
X111582000Y-82440000D02*
G75*
G02X112032000Y-82890000I0J-450000D01*
G01*
X100672000Y-82890000D02*
G75*
G02X101122000Y-82440000I450000J0D01*
G01*
X101122000Y-82440000D02*
X111582000Y-82440000D01*
X101122000Y-87560000D02*
X111582000Y-87560000D01*
X112032000Y-82890000D02*
X112032000Y-87110000D01*
X100672000Y-87110000D02*
X100672000Y-82890000D01*
X100352000Y-84630000D02*
X100352000Y-83830000D01*
X100352000Y-83830000D02*
X100672000Y-83630000D01*
X112352000Y-83830000D02*
X112032000Y-83630000D01*
X112352000Y-84630000D02*
X112352000Y-83830000D01*
X112352000Y-84630000D02*
X112032000Y-84830000D01*
X100352000Y-84630000D02*
X100672000Y-84830000D01*
G04 #@! TO.C,U9*
X87032000Y-103110000D02*
G75*
G02X86582000Y-103560000I-450000J0D01*
G01*
X76122000Y-103560000D02*
G75*
G02X75672000Y-103110000I0J450000D01*
G01*
X86582000Y-98440000D02*
G75*
G02X87032000Y-98890000I0J-450000D01*
G01*
X75672000Y-98890000D02*
G75*
G02X76122000Y-98440000I450000J0D01*
G01*
X76122000Y-98440000D02*
X86582000Y-98440000D01*
X76122000Y-103560000D02*
X86582000Y-103560000D01*
X87032000Y-98890000D02*
X87032000Y-103110000D01*
X75672000Y-103110000D02*
X75672000Y-98890000D01*
X75352000Y-100630000D02*
X75352000Y-99830000D01*
X75352000Y-99830000D02*
X75672000Y-99630000D01*
X87352000Y-99830000D02*
X87032000Y-99630000D01*
X87352000Y-100630000D02*
X87352000Y-99830000D01*
X87352000Y-100630000D02*
X87032000Y-100830000D01*
X75352000Y-100630000D02*
X75672000Y-100830000D01*
G04 #@! TO.C,U13*
X99532000Y-111610000D02*
G75*
G02X99082000Y-112060000I-450000J0D01*
G01*
X88622000Y-112060000D02*
G75*
G02X88172000Y-111610000I0J450000D01*
G01*
X99082000Y-106940000D02*
G75*
G02X99532000Y-107390000I0J-450000D01*
G01*
X88172000Y-107390000D02*
G75*
G02X88622000Y-106940000I450000J0D01*
G01*
X88622000Y-106940000D02*
X99082000Y-106940000D01*
X88622000Y-112060000D02*
X99082000Y-112060000D01*
X99532000Y-107390000D02*
X99532000Y-111610000D01*
X88172000Y-111610000D02*
X88172000Y-107390000D01*
X87852000Y-109130000D02*
X87852000Y-108330000D01*
X87852000Y-108330000D02*
X88172000Y-108130000D01*
X99852000Y-108330000D02*
X99532000Y-108130000D01*
X99852000Y-109130000D02*
X99852000Y-108330000D01*
X99852000Y-109130000D02*
X99532000Y-109330000D01*
X87852000Y-109130000D02*
X88172000Y-109330000D01*
G04 #@! TO.C,U11*
X112032000Y-103110000D02*
G75*
G02X111582000Y-103560000I-450000J0D01*
G01*
X101122000Y-103560000D02*
G75*
G02X100672000Y-103110000I0J450000D01*
G01*
X111582000Y-98440000D02*
G75*
G02X112032000Y-98890000I0J-450000D01*
G01*
X100672000Y-98890000D02*
G75*
G02X101122000Y-98440000I450000J0D01*
G01*
X101122000Y-98440000D02*
X111582000Y-98440000D01*
X101122000Y-103560000D02*
X111582000Y-103560000D01*
X112032000Y-98890000D02*
X112032000Y-103110000D01*
X100672000Y-103110000D02*
X100672000Y-98890000D01*
X100352000Y-100630000D02*
X100352000Y-99830000D01*
X100352000Y-99830000D02*
X100672000Y-99630000D01*
X112352000Y-99830000D02*
X112032000Y-99630000D01*
X112352000Y-100630000D02*
X112352000Y-99830000D01*
X112352000Y-100630000D02*
X112032000Y-100830000D01*
X100352000Y-100630000D02*
X100672000Y-100830000D01*
G04 #@! TD*
M02*
