G04 #@! TF.GenerationSoftware,KiCad,Pcbnew,(6.0.0-rc1-dev-305-gf0b8b2136)*
G04 #@! TF.CreationDate,2019-07-12T16:48:16-06:00*
G04 #@! TF.ProjectId,Gateway01,4761746577617930312E6B696361645F,rev?*
G04 #@! TF.SameCoordinates,Original*
G04 #@! TF.FileFunction,Soldermask,Top*
G04 #@! TF.FilePolarity,Negative*
%FSLAX46Y46*%
G04 Gerber Fmt 4.6, Leading zero omitted, Abs format (unit mm)*
G04 Created by KiCad (PCBNEW (6.0.0-rc1-dev-305-gf0b8b2136)) date 07/12/19 16:48:16*
%MOMM*%
%LPD*%
G01*
G04 APERTURE LIST*
%ADD10C,13.400000*%
%ADD11C,0.100000*%
G04 APERTURE END LIST*
D10*
X124652000Y-97250000D02*
G75*
G03X124652000Y-97250000I-30800000J0D01*
G01*
D11*
G36*
X96263000Y-120551000D02*
X91361000Y-120551000D01*
X91361000Y-119056832D01*
X91358598Y-119032446D01*
X91351485Y-119008997D01*
X91339934Y-118987386D01*
X91324388Y-118968444D01*
X91305446Y-118952898D01*
X91298153Y-118949000D01*
X96263000Y-118949000D01*
X96263000Y-120551000D01*
X96263000Y-120551000D01*
G37*
G36*
X97538349Y-117993820D02*
X97538352Y-117993821D01*
X97538351Y-117993821D01*
X97679574Y-118052317D01*
X97679575Y-118052318D01*
X97806674Y-118137243D01*
X97914757Y-118245326D01*
X97914759Y-118245329D01*
X97999683Y-118372426D01*
X98044927Y-118481657D01*
X98058180Y-118513651D01*
X98088000Y-118663569D01*
X98088000Y-118816431D01*
X98058180Y-118966349D01*
X98058179Y-118966351D01*
X97999683Y-119107574D01*
X97999682Y-119107575D01*
X97914757Y-119234674D01*
X97806674Y-119342757D01*
X97806671Y-119342759D01*
X97679574Y-119427683D01*
X97570343Y-119472927D01*
X97538349Y-119486180D01*
X97388431Y-119516000D01*
X97235569Y-119516000D01*
X97085651Y-119486180D01*
X97053657Y-119472927D01*
X96944426Y-119427683D01*
X96817329Y-119342759D01*
X96817326Y-119342757D01*
X96709243Y-119234674D01*
X96624318Y-119107575D01*
X96624317Y-119107574D01*
X96565821Y-118966351D01*
X96565820Y-118966349D01*
X96536000Y-118816431D01*
X96536000Y-118663569D01*
X96565820Y-118513651D01*
X96579073Y-118481657D01*
X96624317Y-118372426D01*
X96709241Y-118245329D01*
X96709243Y-118245326D01*
X96817326Y-118137243D01*
X96944425Y-118052318D01*
X96944426Y-118052317D01*
X97085649Y-117993821D01*
X97085648Y-117993821D01*
X97085651Y-117993820D01*
X97235569Y-117964000D01*
X97388431Y-117964000D01*
X97538349Y-117993820D01*
X97538349Y-117993820D01*
G37*
G36*
X90618349Y-117993820D02*
X90618352Y-117993821D01*
X90618351Y-117993821D01*
X90759574Y-118052317D01*
X90759575Y-118052318D01*
X90886674Y-118137243D01*
X90994757Y-118245326D01*
X90994759Y-118245329D01*
X91079683Y-118372426D01*
X91124927Y-118481657D01*
X91138180Y-118513651D01*
X91168000Y-118663569D01*
X91168000Y-118824000D01*
X91170402Y-118848386D01*
X91177515Y-118871835D01*
X91189066Y-118893446D01*
X91204612Y-118912388D01*
X91223554Y-118927934D01*
X91231649Y-118932261D01*
X91211614Y-118934234D01*
X91188165Y-118941347D01*
X91166554Y-118952898D01*
X91147612Y-118968444D01*
X91132066Y-118987386D01*
X91120515Y-119008996D01*
X91079683Y-119107574D01*
X91079682Y-119107575D01*
X90994757Y-119234674D01*
X90886674Y-119342757D01*
X90886671Y-119342759D01*
X90759574Y-119427683D01*
X90650343Y-119472927D01*
X90618349Y-119486180D01*
X90468431Y-119516000D01*
X90315569Y-119516000D01*
X90165651Y-119486180D01*
X90133657Y-119472927D01*
X90024426Y-119427683D01*
X89897329Y-119342759D01*
X89897326Y-119342757D01*
X89789243Y-119234674D01*
X89704318Y-119107575D01*
X89704317Y-119107574D01*
X89645821Y-118966351D01*
X89645820Y-118966349D01*
X89616000Y-118816431D01*
X89616000Y-118663569D01*
X89645820Y-118513651D01*
X89659073Y-118481657D01*
X89704317Y-118372426D01*
X89789241Y-118245329D01*
X89789243Y-118245326D01*
X89897326Y-118137243D01*
X90024425Y-118052318D01*
X90024426Y-118052317D01*
X90165649Y-117993821D01*
X90165648Y-117993821D01*
X90165651Y-117993820D01*
X90315569Y-117964000D01*
X90468431Y-117964000D01*
X90618349Y-117993820D01*
X90618349Y-117993820D01*
G37*
G36*
X89077721Y-116210174D02*
X89177995Y-116251709D01*
X89268245Y-116312012D01*
X89344988Y-116388755D01*
X89405291Y-116479005D01*
X89446826Y-116579279D01*
X89468000Y-116685730D01*
X89468000Y-116794270D01*
X89446826Y-116900721D01*
X89405291Y-117000995D01*
X89344988Y-117091245D01*
X89268245Y-117167988D01*
X89177995Y-117228291D01*
X89077721Y-117269826D01*
X88971270Y-117291000D01*
X88862730Y-117291000D01*
X88756279Y-117269826D01*
X88656005Y-117228291D01*
X88565755Y-117167988D01*
X88489012Y-117091245D01*
X88428709Y-117000995D01*
X88387174Y-116900721D01*
X88366000Y-116794270D01*
X88366000Y-116685730D01*
X88387174Y-116579279D01*
X88428709Y-116479005D01*
X88489012Y-116388755D01*
X88565755Y-116312012D01*
X88656005Y-116251709D01*
X88756279Y-116210174D01*
X88862730Y-116189000D01*
X88971270Y-116189000D01*
X89077721Y-116210174D01*
X89077721Y-116210174D01*
G37*
G36*
X98947721Y-116210174D02*
X99047995Y-116251709D01*
X99138245Y-116312012D01*
X99214988Y-116388755D01*
X99275291Y-116479005D01*
X99316826Y-116579279D01*
X99338000Y-116685730D01*
X99338000Y-116794270D01*
X99316826Y-116900721D01*
X99275291Y-117000995D01*
X99214988Y-117091245D01*
X99138245Y-117167988D01*
X99047995Y-117228291D01*
X98947721Y-117269826D01*
X98841270Y-117291000D01*
X98732730Y-117291000D01*
X98626279Y-117269826D01*
X98526005Y-117228291D01*
X98435755Y-117167988D01*
X98359012Y-117091245D01*
X98298709Y-117000995D01*
X98257174Y-116900721D01*
X98236000Y-116794270D01*
X98236000Y-116685730D01*
X98257174Y-116579279D01*
X98298709Y-116479005D01*
X98359012Y-116388755D01*
X98435755Y-116312012D01*
X98526005Y-116251709D01*
X98626279Y-116210174D01*
X98732730Y-116189000D01*
X98841270Y-116189000D01*
X98947721Y-116210174D01*
X98947721Y-116210174D01*
G37*
G36*
X96263000Y-117051000D02*
X91361000Y-117051000D01*
X91361000Y-115449000D01*
X96263000Y-115449000D01*
X96263000Y-117051000D01*
X96263000Y-117051000D01*
G37*
G36*
X83763000Y-112051000D02*
X78861000Y-112051000D01*
X78861000Y-110556832D01*
X78858598Y-110532446D01*
X78851485Y-110508997D01*
X78839934Y-110487386D01*
X78824388Y-110468444D01*
X78805446Y-110452898D01*
X78798153Y-110449000D01*
X83763000Y-110449000D01*
X83763000Y-112051000D01*
X83763000Y-112051000D01*
G37*
G36*
X108763000Y-112051000D02*
X103861000Y-112051000D01*
X103861000Y-110556832D01*
X103858598Y-110532446D01*
X103851485Y-110508997D01*
X103839934Y-110487386D01*
X103824388Y-110468444D01*
X103805446Y-110452898D01*
X103798153Y-110449000D01*
X108763000Y-110449000D01*
X108763000Y-112051000D01*
X108763000Y-112051000D01*
G37*
G36*
X98947721Y-110230174D02*
X99047995Y-110271709D01*
X99138245Y-110332012D01*
X99214988Y-110408755D01*
X99275291Y-110499005D01*
X99316826Y-110599279D01*
X99338000Y-110705730D01*
X99338000Y-110814270D01*
X99316826Y-110920721D01*
X99275291Y-111020995D01*
X99214988Y-111111245D01*
X99138245Y-111187988D01*
X99047995Y-111248291D01*
X98947721Y-111289826D01*
X98841270Y-111311000D01*
X98732730Y-111311000D01*
X98626279Y-111289826D01*
X98526005Y-111248291D01*
X98435755Y-111187988D01*
X98359012Y-111111245D01*
X98298709Y-111020995D01*
X98257174Y-110920721D01*
X98236000Y-110814270D01*
X98236000Y-110705730D01*
X98257174Y-110599279D01*
X98298709Y-110499005D01*
X98359012Y-110408755D01*
X98435755Y-110332012D01*
X98526005Y-110271709D01*
X98626279Y-110230174D01*
X98732730Y-110209000D01*
X98841270Y-110209000D01*
X98947721Y-110230174D01*
X98947721Y-110230174D01*
G37*
G36*
X89077721Y-110230174D02*
X89177995Y-110271709D01*
X89268245Y-110332012D01*
X89344988Y-110408755D01*
X89405291Y-110499005D01*
X89446826Y-110599279D01*
X89468000Y-110705730D01*
X89468000Y-110814270D01*
X89446826Y-110920721D01*
X89405291Y-111020995D01*
X89344988Y-111111245D01*
X89268245Y-111187988D01*
X89177995Y-111248291D01*
X89077721Y-111289826D01*
X88971270Y-111311000D01*
X88862730Y-111311000D01*
X88756279Y-111289826D01*
X88656005Y-111248291D01*
X88565755Y-111187988D01*
X88489012Y-111111245D01*
X88428709Y-111020995D01*
X88387174Y-110920721D01*
X88366000Y-110814270D01*
X88366000Y-110705730D01*
X88387174Y-110599279D01*
X88428709Y-110499005D01*
X88489012Y-110408755D01*
X88565755Y-110332012D01*
X88656005Y-110271709D01*
X88756279Y-110230174D01*
X88862730Y-110209000D01*
X88971270Y-110209000D01*
X89077721Y-110230174D01*
X89077721Y-110230174D01*
G37*
G36*
X110038349Y-109493820D02*
X110038352Y-109493821D01*
X110038351Y-109493821D01*
X110179574Y-109552317D01*
X110179575Y-109552318D01*
X110306674Y-109637243D01*
X110414757Y-109745326D01*
X110414759Y-109745329D01*
X110499683Y-109872426D01*
X110544927Y-109981657D01*
X110558180Y-110013651D01*
X110588000Y-110163569D01*
X110588000Y-110316431D01*
X110558180Y-110466349D01*
X110558179Y-110466351D01*
X110499683Y-110607574D01*
X110499682Y-110607575D01*
X110414757Y-110734674D01*
X110306674Y-110842757D01*
X110306671Y-110842759D01*
X110179574Y-110927683D01*
X110070343Y-110972927D01*
X110038349Y-110986180D01*
X109888431Y-111016000D01*
X109735569Y-111016000D01*
X109585651Y-110986180D01*
X109553657Y-110972927D01*
X109444426Y-110927683D01*
X109317329Y-110842759D01*
X109317326Y-110842757D01*
X109209243Y-110734674D01*
X109124318Y-110607575D01*
X109124317Y-110607574D01*
X109065821Y-110466351D01*
X109065820Y-110466349D01*
X109036000Y-110316431D01*
X109036000Y-110163569D01*
X109065820Y-110013651D01*
X109079073Y-109981657D01*
X109124317Y-109872426D01*
X109209241Y-109745329D01*
X109209243Y-109745326D01*
X109317326Y-109637243D01*
X109444425Y-109552318D01*
X109444426Y-109552317D01*
X109585649Y-109493821D01*
X109585648Y-109493821D01*
X109585651Y-109493820D01*
X109735569Y-109464000D01*
X109888431Y-109464000D01*
X110038349Y-109493820D01*
X110038349Y-109493820D01*
G37*
G36*
X78118349Y-109493820D02*
X78118352Y-109493821D01*
X78118351Y-109493821D01*
X78259574Y-109552317D01*
X78259575Y-109552318D01*
X78386674Y-109637243D01*
X78494757Y-109745326D01*
X78494759Y-109745329D01*
X78579683Y-109872426D01*
X78624927Y-109981657D01*
X78638180Y-110013651D01*
X78668000Y-110163569D01*
X78668000Y-110324000D01*
X78670402Y-110348386D01*
X78677515Y-110371835D01*
X78689066Y-110393446D01*
X78704612Y-110412388D01*
X78723554Y-110427934D01*
X78731649Y-110432261D01*
X78711614Y-110434234D01*
X78688165Y-110441347D01*
X78666554Y-110452898D01*
X78647612Y-110468444D01*
X78632066Y-110487386D01*
X78620515Y-110508996D01*
X78579683Y-110607574D01*
X78579682Y-110607575D01*
X78494757Y-110734674D01*
X78386674Y-110842757D01*
X78386671Y-110842759D01*
X78259574Y-110927683D01*
X78150343Y-110972927D01*
X78118349Y-110986180D01*
X77968431Y-111016000D01*
X77815569Y-111016000D01*
X77665651Y-110986180D01*
X77633657Y-110972927D01*
X77524426Y-110927683D01*
X77397329Y-110842759D01*
X77397326Y-110842757D01*
X77289243Y-110734674D01*
X77204318Y-110607575D01*
X77204317Y-110607574D01*
X77145821Y-110466351D01*
X77145820Y-110466349D01*
X77116000Y-110316431D01*
X77116000Y-110163569D01*
X77145820Y-110013651D01*
X77159073Y-109981657D01*
X77204317Y-109872426D01*
X77289241Y-109745329D01*
X77289243Y-109745326D01*
X77397326Y-109637243D01*
X77524425Y-109552318D01*
X77524426Y-109552317D01*
X77665649Y-109493821D01*
X77665648Y-109493821D01*
X77665651Y-109493820D01*
X77815569Y-109464000D01*
X77968431Y-109464000D01*
X78118349Y-109493820D01*
X78118349Y-109493820D01*
G37*
G36*
X85038349Y-109493820D02*
X85038352Y-109493821D01*
X85038351Y-109493821D01*
X85179574Y-109552317D01*
X85179575Y-109552318D01*
X85306674Y-109637243D01*
X85414757Y-109745326D01*
X85414759Y-109745329D01*
X85499683Y-109872426D01*
X85544927Y-109981657D01*
X85558180Y-110013651D01*
X85588000Y-110163569D01*
X85588000Y-110316431D01*
X85558180Y-110466349D01*
X85558179Y-110466351D01*
X85499683Y-110607574D01*
X85499682Y-110607575D01*
X85414757Y-110734674D01*
X85306674Y-110842757D01*
X85306671Y-110842759D01*
X85179574Y-110927683D01*
X85070343Y-110972927D01*
X85038349Y-110986180D01*
X84888431Y-111016000D01*
X84735569Y-111016000D01*
X84585651Y-110986180D01*
X84553657Y-110972927D01*
X84444426Y-110927683D01*
X84317329Y-110842759D01*
X84317326Y-110842757D01*
X84209243Y-110734674D01*
X84124318Y-110607575D01*
X84124317Y-110607574D01*
X84065821Y-110466351D01*
X84065820Y-110466349D01*
X84036000Y-110316431D01*
X84036000Y-110163569D01*
X84065820Y-110013651D01*
X84079073Y-109981657D01*
X84124317Y-109872426D01*
X84209241Y-109745329D01*
X84209243Y-109745326D01*
X84317326Y-109637243D01*
X84444425Y-109552318D01*
X84444426Y-109552317D01*
X84585649Y-109493821D01*
X84585648Y-109493821D01*
X84585651Y-109493820D01*
X84735569Y-109464000D01*
X84888431Y-109464000D01*
X85038349Y-109493820D01*
X85038349Y-109493820D01*
G37*
G36*
X103118349Y-109493820D02*
X103118352Y-109493821D01*
X103118351Y-109493821D01*
X103259574Y-109552317D01*
X103259575Y-109552318D01*
X103386674Y-109637243D01*
X103494757Y-109745326D01*
X103494759Y-109745329D01*
X103579683Y-109872426D01*
X103624927Y-109981657D01*
X103638180Y-110013651D01*
X103668000Y-110163569D01*
X103668000Y-110324000D01*
X103670402Y-110348386D01*
X103677515Y-110371835D01*
X103689066Y-110393446D01*
X103704612Y-110412388D01*
X103723554Y-110427934D01*
X103731649Y-110432261D01*
X103711614Y-110434234D01*
X103688165Y-110441347D01*
X103666554Y-110452898D01*
X103647612Y-110468444D01*
X103632066Y-110487386D01*
X103620515Y-110508996D01*
X103579683Y-110607574D01*
X103579682Y-110607575D01*
X103494757Y-110734674D01*
X103386674Y-110842757D01*
X103386671Y-110842759D01*
X103259574Y-110927683D01*
X103150343Y-110972927D01*
X103118349Y-110986180D01*
X102968431Y-111016000D01*
X102815569Y-111016000D01*
X102665651Y-110986180D01*
X102633657Y-110972927D01*
X102524426Y-110927683D01*
X102397329Y-110842759D01*
X102397326Y-110842757D01*
X102289243Y-110734674D01*
X102204318Y-110607575D01*
X102204317Y-110607574D01*
X102145821Y-110466351D01*
X102145820Y-110466349D01*
X102116000Y-110316431D01*
X102116000Y-110163569D01*
X102145820Y-110013651D01*
X102159073Y-109981657D01*
X102204317Y-109872426D01*
X102289241Y-109745329D01*
X102289243Y-109745326D01*
X102397326Y-109637243D01*
X102524425Y-109552318D01*
X102524426Y-109552317D01*
X102665649Y-109493821D01*
X102665648Y-109493821D01*
X102665651Y-109493820D01*
X102815569Y-109464000D01*
X102968431Y-109464000D01*
X103118349Y-109493820D01*
X103118349Y-109493820D01*
G37*
G36*
X97538349Y-108013820D02*
X97538352Y-108013821D01*
X97538351Y-108013821D01*
X97679574Y-108072317D01*
X97679575Y-108072318D01*
X97806674Y-108157243D01*
X97914757Y-108265326D01*
X97914759Y-108265329D01*
X97999683Y-108392426D01*
X98044653Y-108500995D01*
X98058180Y-108533651D01*
X98088000Y-108683569D01*
X98088000Y-108836431D01*
X98058180Y-108986349D01*
X98058179Y-108986351D01*
X97999683Y-109127574D01*
X97999682Y-109127575D01*
X97914757Y-109254674D01*
X97806674Y-109362757D01*
X97806671Y-109362759D01*
X97679574Y-109447683D01*
X97570343Y-109492927D01*
X97538349Y-109506180D01*
X97388431Y-109536000D01*
X97235569Y-109536000D01*
X97085651Y-109506180D01*
X97053657Y-109492927D01*
X96944426Y-109447683D01*
X96817329Y-109362759D01*
X96817326Y-109362757D01*
X96709243Y-109254674D01*
X96624318Y-109127575D01*
X96624317Y-109127574D01*
X96565821Y-108986351D01*
X96565820Y-108986349D01*
X96536000Y-108836431D01*
X96536000Y-108683569D01*
X96565820Y-108533651D01*
X96579347Y-108500995D01*
X96624317Y-108392426D01*
X96709241Y-108265329D01*
X96709243Y-108265326D01*
X96817326Y-108157243D01*
X96944425Y-108072318D01*
X96944426Y-108072317D01*
X97085649Y-108013821D01*
X97085648Y-108013821D01*
X97085651Y-108013820D01*
X97235569Y-107984000D01*
X97388431Y-107984000D01*
X97538349Y-108013820D01*
X97538349Y-108013820D01*
G37*
G36*
X90618349Y-108013820D02*
X90618352Y-108013821D01*
X90618351Y-108013821D01*
X90759574Y-108072317D01*
X90759575Y-108072318D01*
X90886674Y-108157243D01*
X90994757Y-108265326D01*
X90994759Y-108265329D01*
X91079683Y-108392426D01*
X91124653Y-108500995D01*
X91138180Y-108533651D01*
X91168000Y-108683569D01*
X91168000Y-108836431D01*
X91138180Y-108986349D01*
X91138179Y-108986351D01*
X91079683Y-109127574D01*
X91079682Y-109127575D01*
X90994757Y-109254674D01*
X90886674Y-109362757D01*
X90886671Y-109362759D01*
X90759574Y-109447683D01*
X90650343Y-109492927D01*
X90618349Y-109506180D01*
X90468431Y-109536000D01*
X90315569Y-109536000D01*
X90165651Y-109506180D01*
X90133657Y-109492927D01*
X90024426Y-109447683D01*
X89897329Y-109362759D01*
X89897326Y-109362757D01*
X89789243Y-109254674D01*
X89704318Y-109127575D01*
X89704317Y-109127574D01*
X89645821Y-108986351D01*
X89645820Y-108986349D01*
X89616000Y-108836431D01*
X89616000Y-108683569D01*
X89645820Y-108533651D01*
X89659347Y-108500995D01*
X89704317Y-108392426D01*
X89789241Y-108265329D01*
X89789243Y-108265326D01*
X89897326Y-108157243D01*
X90024425Y-108072318D01*
X90024426Y-108072317D01*
X90165649Y-108013821D01*
X90165648Y-108013821D01*
X90165651Y-108013820D01*
X90315569Y-107984000D01*
X90468431Y-107984000D01*
X90618349Y-108013820D01*
X90618349Y-108013820D01*
G37*
G36*
X101577721Y-107710174D02*
X101677995Y-107751709D01*
X101768245Y-107812012D01*
X101844988Y-107888755D01*
X101905291Y-107979005D01*
X101946826Y-108079279D01*
X101968000Y-108185730D01*
X101968000Y-108294270D01*
X101946826Y-108400721D01*
X101905291Y-108500995D01*
X101844988Y-108591245D01*
X101768245Y-108667988D01*
X101677995Y-108728291D01*
X101577721Y-108769826D01*
X101471270Y-108791000D01*
X101362730Y-108791000D01*
X101256279Y-108769826D01*
X101156005Y-108728291D01*
X101065755Y-108667988D01*
X100989012Y-108591245D01*
X100928709Y-108500995D01*
X100887174Y-108400721D01*
X100866000Y-108294270D01*
X100866000Y-108185730D01*
X100887174Y-108079279D01*
X100928709Y-107979005D01*
X100989012Y-107888755D01*
X101065755Y-107812012D01*
X101156005Y-107751709D01*
X101256279Y-107710174D01*
X101362730Y-107689000D01*
X101471270Y-107689000D01*
X101577721Y-107710174D01*
X101577721Y-107710174D01*
G37*
G36*
X86447721Y-107710174D02*
X86547995Y-107751709D01*
X86638245Y-107812012D01*
X86714988Y-107888755D01*
X86775291Y-107979005D01*
X86816826Y-108079279D01*
X86838000Y-108185730D01*
X86838000Y-108294270D01*
X86816826Y-108400721D01*
X86775291Y-108500995D01*
X86714988Y-108591245D01*
X86638245Y-108667988D01*
X86547995Y-108728291D01*
X86447721Y-108769826D01*
X86341270Y-108791000D01*
X86232730Y-108791000D01*
X86126279Y-108769826D01*
X86026005Y-108728291D01*
X85935755Y-108667988D01*
X85859012Y-108591245D01*
X85798709Y-108500995D01*
X85757174Y-108400721D01*
X85736000Y-108294270D01*
X85736000Y-108185730D01*
X85757174Y-108079279D01*
X85798709Y-107979005D01*
X85859012Y-107888755D01*
X85935755Y-107812012D01*
X86026005Y-107751709D01*
X86126279Y-107710174D01*
X86232730Y-107689000D01*
X86341270Y-107689000D01*
X86447721Y-107710174D01*
X86447721Y-107710174D01*
G37*
G36*
X111447721Y-107710174D02*
X111547995Y-107751709D01*
X111638245Y-107812012D01*
X111714988Y-107888755D01*
X111775291Y-107979005D01*
X111816826Y-108079279D01*
X111838000Y-108185730D01*
X111838000Y-108294270D01*
X111816826Y-108400721D01*
X111775291Y-108500995D01*
X111714988Y-108591245D01*
X111638245Y-108667988D01*
X111547995Y-108728291D01*
X111447721Y-108769826D01*
X111341270Y-108791000D01*
X111232730Y-108791000D01*
X111126279Y-108769826D01*
X111026005Y-108728291D01*
X110935755Y-108667988D01*
X110859012Y-108591245D01*
X110798709Y-108500995D01*
X110757174Y-108400721D01*
X110736000Y-108294270D01*
X110736000Y-108185730D01*
X110757174Y-108079279D01*
X110798709Y-107979005D01*
X110859012Y-107888755D01*
X110935755Y-107812012D01*
X111026005Y-107751709D01*
X111126279Y-107710174D01*
X111232730Y-107689000D01*
X111341270Y-107689000D01*
X111447721Y-107710174D01*
X111447721Y-107710174D01*
G37*
G36*
X76577721Y-107710174D02*
X76677995Y-107751709D01*
X76768245Y-107812012D01*
X76844988Y-107888755D01*
X76905291Y-107979005D01*
X76946826Y-108079279D01*
X76968000Y-108185730D01*
X76968000Y-108294270D01*
X76946826Y-108400721D01*
X76905291Y-108500995D01*
X76844988Y-108591245D01*
X76768245Y-108667988D01*
X76677995Y-108728291D01*
X76577721Y-108769826D01*
X76471270Y-108791000D01*
X76362730Y-108791000D01*
X76256279Y-108769826D01*
X76156005Y-108728291D01*
X76065755Y-108667988D01*
X75989012Y-108591245D01*
X75928709Y-108500995D01*
X75887174Y-108400721D01*
X75866000Y-108294270D01*
X75866000Y-108185730D01*
X75887174Y-108079279D01*
X75928709Y-107979005D01*
X75989012Y-107888755D01*
X76065755Y-107812012D01*
X76156005Y-107751709D01*
X76256279Y-107710174D01*
X76362730Y-107689000D01*
X76471270Y-107689000D01*
X76577721Y-107710174D01*
X76577721Y-107710174D01*
G37*
G36*
X108763000Y-108551000D02*
X103861000Y-108551000D01*
X103861000Y-106949000D01*
X108763000Y-106949000D01*
X108763000Y-108551000D01*
X108763000Y-108551000D01*
G37*
G36*
X83763000Y-108551000D02*
X78861000Y-108551000D01*
X78861000Y-106949000D01*
X83763000Y-106949000D01*
X83763000Y-108551000D01*
X83763000Y-108551000D01*
G37*
G36*
X96263000Y-104051000D02*
X91361000Y-104051000D01*
X91361000Y-102556832D01*
X91358598Y-102532446D01*
X91351485Y-102508997D01*
X91339934Y-102487386D01*
X91324388Y-102468444D01*
X91305446Y-102452898D01*
X91298153Y-102449000D01*
X96263000Y-102449000D01*
X96263000Y-104051000D01*
X96263000Y-104051000D01*
G37*
G36*
X97538349Y-101493820D02*
X97538352Y-101493821D01*
X97538351Y-101493821D01*
X97679574Y-101552317D01*
X97679575Y-101552318D01*
X97806674Y-101637243D01*
X97914757Y-101745326D01*
X97914759Y-101745329D01*
X97999683Y-101872426D01*
X98014732Y-101908758D01*
X98058180Y-102013651D01*
X98088000Y-102163569D01*
X98088000Y-102316431D01*
X98058180Y-102466349D01*
X98058179Y-102466351D01*
X97999683Y-102607574D01*
X97999682Y-102607575D01*
X97914757Y-102734674D01*
X97806674Y-102842757D01*
X97806671Y-102842759D01*
X97679574Y-102927683D01*
X97570343Y-102972927D01*
X97538349Y-102986180D01*
X97388431Y-103016000D01*
X97235569Y-103016000D01*
X97085651Y-102986180D01*
X97053657Y-102972927D01*
X96944426Y-102927683D01*
X96817329Y-102842759D01*
X96817326Y-102842757D01*
X96709243Y-102734674D01*
X96624318Y-102607575D01*
X96624317Y-102607574D01*
X96565821Y-102466351D01*
X96565820Y-102466349D01*
X96536000Y-102316431D01*
X96536000Y-102163569D01*
X96565820Y-102013651D01*
X96609268Y-101908758D01*
X96624317Y-101872426D01*
X96709241Y-101745329D01*
X96709243Y-101745326D01*
X96817326Y-101637243D01*
X96944425Y-101552318D01*
X96944426Y-101552317D01*
X97085649Y-101493821D01*
X97085648Y-101493821D01*
X97085651Y-101493820D01*
X97235569Y-101464000D01*
X97388431Y-101464000D01*
X97538349Y-101493820D01*
X97538349Y-101493820D01*
G37*
G36*
X90618349Y-101493820D02*
X90618352Y-101493821D01*
X90618351Y-101493821D01*
X90759574Y-101552317D01*
X90759575Y-101552318D01*
X90886674Y-101637243D01*
X90994757Y-101745326D01*
X90994759Y-101745329D01*
X91079683Y-101872426D01*
X91094732Y-101908758D01*
X91138180Y-102013651D01*
X91168000Y-102163569D01*
X91168000Y-102324000D01*
X91170402Y-102348386D01*
X91177515Y-102371835D01*
X91189066Y-102393446D01*
X91204612Y-102412388D01*
X91223554Y-102427934D01*
X91231649Y-102432261D01*
X91211614Y-102434234D01*
X91188165Y-102441347D01*
X91166554Y-102452898D01*
X91147612Y-102468444D01*
X91132066Y-102487386D01*
X91120515Y-102508996D01*
X91079683Y-102607574D01*
X91079682Y-102607575D01*
X90994757Y-102734674D01*
X90886674Y-102842757D01*
X90886671Y-102842759D01*
X90759574Y-102927683D01*
X90650343Y-102972927D01*
X90618349Y-102986180D01*
X90468431Y-103016000D01*
X90315569Y-103016000D01*
X90165651Y-102986180D01*
X90133657Y-102972927D01*
X90024426Y-102927683D01*
X89897329Y-102842759D01*
X89897326Y-102842757D01*
X89789243Y-102734674D01*
X89704318Y-102607575D01*
X89704317Y-102607574D01*
X89645821Y-102466351D01*
X89645820Y-102466349D01*
X89616000Y-102316431D01*
X89616000Y-102163569D01*
X89645820Y-102013651D01*
X89689268Y-101908758D01*
X89704317Y-101872426D01*
X89789241Y-101745329D01*
X89789243Y-101745326D01*
X89897326Y-101637243D01*
X90024425Y-101552318D01*
X90024426Y-101552317D01*
X90165649Y-101493821D01*
X90165648Y-101493821D01*
X90165651Y-101493820D01*
X90315569Y-101464000D01*
X90468431Y-101464000D01*
X90618349Y-101493820D01*
X90618349Y-101493820D01*
G37*
G36*
X86447721Y-101730174D02*
X86547995Y-101771709D01*
X86638245Y-101832012D01*
X86714988Y-101908755D01*
X86775291Y-101999005D01*
X86816826Y-102099279D01*
X86838000Y-102205730D01*
X86838000Y-102314270D01*
X86816826Y-102420721D01*
X86775291Y-102520995D01*
X86714988Y-102611245D01*
X86638245Y-102687988D01*
X86547995Y-102748291D01*
X86447721Y-102789826D01*
X86341270Y-102811000D01*
X86232730Y-102811000D01*
X86126279Y-102789826D01*
X86026005Y-102748291D01*
X85935755Y-102687988D01*
X85859012Y-102611245D01*
X85798709Y-102520995D01*
X85757174Y-102420721D01*
X85736000Y-102314270D01*
X85736000Y-102205730D01*
X85757174Y-102099279D01*
X85798709Y-101999005D01*
X85859012Y-101908755D01*
X85935755Y-101832012D01*
X86026005Y-101771709D01*
X86126279Y-101730174D01*
X86232730Y-101709000D01*
X86341270Y-101709000D01*
X86447721Y-101730174D01*
X86447721Y-101730174D01*
G37*
G36*
X76577721Y-101730174D02*
X76677995Y-101771709D01*
X76768245Y-101832012D01*
X76844988Y-101908755D01*
X76905291Y-101999005D01*
X76946826Y-102099279D01*
X76968000Y-102205730D01*
X76968000Y-102314270D01*
X76946826Y-102420721D01*
X76905291Y-102520995D01*
X76844988Y-102611245D01*
X76768245Y-102687988D01*
X76677995Y-102748291D01*
X76577721Y-102789826D01*
X76471270Y-102811000D01*
X76362730Y-102811000D01*
X76256279Y-102789826D01*
X76156005Y-102748291D01*
X76065755Y-102687988D01*
X75989012Y-102611245D01*
X75928709Y-102520995D01*
X75887174Y-102420721D01*
X75866000Y-102314270D01*
X75866000Y-102205730D01*
X75887174Y-102099279D01*
X75928709Y-101999005D01*
X75989012Y-101908755D01*
X76065755Y-101832012D01*
X76156005Y-101771709D01*
X76256279Y-101730174D01*
X76362730Y-101709000D01*
X76471270Y-101709000D01*
X76577721Y-101730174D01*
X76577721Y-101730174D01*
G37*
G36*
X111447721Y-101730174D02*
X111547995Y-101771709D01*
X111638245Y-101832012D01*
X111714988Y-101908755D01*
X111775291Y-101999005D01*
X111816826Y-102099279D01*
X111838000Y-102205730D01*
X111838000Y-102314270D01*
X111816826Y-102420721D01*
X111775291Y-102520995D01*
X111714988Y-102611245D01*
X111638245Y-102687988D01*
X111547995Y-102748291D01*
X111447721Y-102789826D01*
X111341270Y-102811000D01*
X111232730Y-102811000D01*
X111126279Y-102789826D01*
X111026005Y-102748291D01*
X110935755Y-102687988D01*
X110859012Y-102611245D01*
X110798709Y-102520995D01*
X110757174Y-102420721D01*
X110736000Y-102314270D01*
X110736000Y-102205730D01*
X110757174Y-102099279D01*
X110798709Y-101999005D01*
X110859012Y-101908755D01*
X110935755Y-101832012D01*
X111026005Y-101771709D01*
X111126279Y-101730174D01*
X111232730Y-101709000D01*
X111341270Y-101709000D01*
X111447721Y-101730174D01*
X111447721Y-101730174D01*
G37*
G36*
X101577721Y-101730174D02*
X101677995Y-101771709D01*
X101768245Y-101832012D01*
X101844988Y-101908755D01*
X101905291Y-101999005D01*
X101946826Y-102099279D01*
X101968000Y-102205730D01*
X101968000Y-102314270D01*
X101946826Y-102420721D01*
X101905291Y-102520995D01*
X101844988Y-102611245D01*
X101768245Y-102687988D01*
X101677995Y-102748291D01*
X101577721Y-102789826D01*
X101471270Y-102811000D01*
X101362730Y-102811000D01*
X101256279Y-102789826D01*
X101156005Y-102748291D01*
X101065755Y-102687988D01*
X100989012Y-102611245D01*
X100928709Y-102520995D01*
X100887174Y-102420721D01*
X100866000Y-102314270D01*
X100866000Y-102205730D01*
X100887174Y-102099279D01*
X100928709Y-101999005D01*
X100989012Y-101908755D01*
X101065755Y-101832012D01*
X101156005Y-101771709D01*
X101256279Y-101730174D01*
X101362730Y-101709000D01*
X101471270Y-101709000D01*
X101577721Y-101730174D01*
X101577721Y-101730174D01*
G37*
G36*
X103118349Y-99513820D02*
X103118352Y-99513821D01*
X103118351Y-99513821D01*
X103259574Y-99572317D01*
X103259575Y-99572318D01*
X103386674Y-99657243D01*
X103494757Y-99765326D01*
X103494759Y-99765329D01*
X103579683Y-99892426D01*
X103615544Y-99979004D01*
X103638180Y-100033651D01*
X103668000Y-100183569D01*
X103668000Y-100336431D01*
X103638180Y-100486349D01*
X103638179Y-100486351D01*
X103579683Y-100627574D01*
X103579682Y-100627575D01*
X103494757Y-100754674D01*
X103386674Y-100862757D01*
X103386671Y-100862759D01*
X103259574Y-100947683D01*
X103150343Y-100992927D01*
X103118349Y-101006180D01*
X102968431Y-101036000D01*
X102815569Y-101036000D01*
X102665651Y-101006180D01*
X102633657Y-100992927D01*
X102524426Y-100947683D01*
X102397329Y-100862759D01*
X102397326Y-100862757D01*
X102289243Y-100754674D01*
X102204318Y-100627575D01*
X102204317Y-100627574D01*
X102145821Y-100486351D01*
X102145820Y-100486349D01*
X102116000Y-100336431D01*
X102116000Y-100183569D01*
X102145820Y-100033651D01*
X102168456Y-99979004D01*
X102204317Y-99892426D01*
X102289241Y-99765329D01*
X102289243Y-99765326D01*
X102397326Y-99657243D01*
X102524425Y-99572318D01*
X102524426Y-99572317D01*
X102665649Y-99513821D01*
X102665648Y-99513821D01*
X102665651Y-99513820D01*
X102815569Y-99484000D01*
X102968431Y-99484000D01*
X103118349Y-99513820D01*
X103118349Y-99513820D01*
G37*
G36*
X85038349Y-99513820D02*
X85038352Y-99513821D01*
X85038351Y-99513821D01*
X85179574Y-99572317D01*
X85179575Y-99572318D01*
X85306674Y-99657243D01*
X85414757Y-99765326D01*
X85414759Y-99765329D01*
X85499683Y-99892426D01*
X85535544Y-99979004D01*
X85558180Y-100033651D01*
X85588000Y-100183569D01*
X85588000Y-100336431D01*
X85558180Y-100486349D01*
X85558179Y-100486351D01*
X85499683Y-100627574D01*
X85499682Y-100627575D01*
X85414757Y-100754674D01*
X85306674Y-100862757D01*
X85306671Y-100862759D01*
X85179574Y-100947683D01*
X85070343Y-100992927D01*
X85038349Y-101006180D01*
X84888431Y-101036000D01*
X84735569Y-101036000D01*
X84585651Y-101006180D01*
X84553657Y-100992927D01*
X84444426Y-100947683D01*
X84317329Y-100862759D01*
X84317326Y-100862757D01*
X84209243Y-100754674D01*
X84124318Y-100627575D01*
X84124317Y-100627574D01*
X84065821Y-100486351D01*
X84065820Y-100486349D01*
X84036000Y-100336431D01*
X84036000Y-100183569D01*
X84065820Y-100033651D01*
X84088456Y-99979004D01*
X84124317Y-99892426D01*
X84209241Y-99765329D01*
X84209243Y-99765326D01*
X84317326Y-99657243D01*
X84444425Y-99572318D01*
X84444426Y-99572317D01*
X84585649Y-99513821D01*
X84585648Y-99513821D01*
X84585651Y-99513820D01*
X84735569Y-99484000D01*
X84888431Y-99484000D01*
X85038349Y-99513820D01*
X85038349Y-99513820D01*
G37*
G36*
X78118349Y-99513820D02*
X78118352Y-99513821D01*
X78118351Y-99513821D01*
X78259574Y-99572317D01*
X78259575Y-99572318D01*
X78386674Y-99657243D01*
X78494757Y-99765326D01*
X78494759Y-99765329D01*
X78579683Y-99892426D01*
X78615544Y-99979004D01*
X78638180Y-100033651D01*
X78668000Y-100183569D01*
X78668000Y-100336431D01*
X78638180Y-100486349D01*
X78638179Y-100486351D01*
X78579683Y-100627574D01*
X78579682Y-100627575D01*
X78494757Y-100754674D01*
X78386674Y-100862757D01*
X78386671Y-100862759D01*
X78259574Y-100947683D01*
X78150343Y-100992927D01*
X78118349Y-101006180D01*
X77968431Y-101036000D01*
X77815569Y-101036000D01*
X77665651Y-101006180D01*
X77633657Y-100992927D01*
X77524426Y-100947683D01*
X77397329Y-100862759D01*
X77397326Y-100862757D01*
X77289243Y-100754674D01*
X77204318Y-100627575D01*
X77204317Y-100627574D01*
X77145821Y-100486351D01*
X77145820Y-100486349D01*
X77116000Y-100336431D01*
X77116000Y-100183569D01*
X77145820Y-100033651D01*
X77168456Y-99979004D01*
X77204317Y-99892426D01*
X77289241Y-99765329D01*
X77289243Y-99765326D01*
X77397326Y-99657243D01*
X77524425Y-99572318D01*
X77524426Y-99572317D01*
X77665649Y-99513821D01*
X77665648Y-99513821D01*
X77665651Y-99513820D01*
X77815569Y-99484000D01*
X77968431Y-99484000D01*
X78118349Y-99513820D01*
X78118349Y-99513820D01*
G37*
G36*
X110038349Y-99513820D02*
X110038352Y-99513821D01*
X110038351Y-99513821D01*
X110179574Y-99572317D01*
X110179575Y-99572318D01*
X110306674Y-99657243D01*
X110414757Y-99765326D01*
X110414759Y-99765329D01*
X110499683Y-99892426D01*
X110535544Y-99979004D01*
X110558180Y-100033651D01*
X110588000Y-100183569D01*
X110588000Y-100336431D01*
X110558180Y-100486349D01*
X110558179Y-100486351D01*
X110499683Y-100627574D01*
X110499682Y-100627575D01*
X110414757Y-100754674D01*
X110306674Y-100862757D01*
X110306671Y-100862759D01*
X110179574Y-100947683D01*
X110070343Y-100992927D01*
X110038349Y-101006180D01*
X109888431Y-101036000D01*
X109735569Y-101036000D01*
X109585651Y-101006180D01*
X109553657Y-100992927D01*
X109444426Y-100947683D01*
X109317329Y-100862759D01*
X109317326Y-100862757D01*
X109209243Y-100754674D01*
X109124318Y-100627575D01*
X109124317Y-100627574D01*
X109065821Y-100486351D01*
X109065820Y-100486349D01*
X109036000Y-100336431D01*
X109036000Y-100183569D01*
X109065820Y-100033651D01*
X109088456Y-99979004D01*
X109124317Y-99892426D01*
X109209241Y-99765329D01*
X109209243Y-99765326D01*
X109317326Y-99657243D01*
X109444425Y-99572318D01*
X109444426Y-99572317D01*
X109585649Y-99513821D01*
X109585648Y-99513821D01*
X109585651Y-99513820D01*
X109735569Y-99484000D01*
X109888431Y-99484000D01*
X110038349Y-99513820D01*
X110038349Y-99513820D01*
G37*
G36*
X89077721Y-99710174D02*
X89177995Y-99751709D01*
X89268245Y-99812012D01*
X89344988Y-99888755D01*
X89405291Y-99979005D01*
X89446826Y-100079279D01*
X89468000Y-100185730D01*
X89468000Y-100294270D01*
X89446826Y-100400721D01*
X89405291Y-100500995D01*
X89344988Y-100591245D01*
X89268245Y-100667988D01*
X89177995Y-100728291D01*
X89077721Y-100769826D01*
X88971270Y-100791000D01*
X88862730Y-100791000D01*
X88756279Y-100769826D01*
X88656005Y-100728291D01*
X88565755Y-100667988D01*
X88489012Y-100591245D01*
X88428709Y-100500995D01*
X88387174Y-100400721D01*
X88366000Y-100294270D01*
X88366000Y-100185730D01*
X88387174Y-100079279D01*
X88428709Y-99979005D01*
X88489012Y-99888755D01*
X88565755Y-99812012D01*
X88656005Y-99751709D01*
X88756279Y-99710174D01*
X88862730Y-99689000D01*
X88971270Y-99689000D01*
X89077721Y-99710174D01*
X89077721Y-99710174D01*
G37*
G36*
X98947721Y-99710174D02*
X99047995Y-99751709D01*
X99138245Y-99812012D01*
X99214988Y-99888755D01*
X99275291Y-99979005D01*
X99316826Y-100079279D01*
X99338000Y-100185730D01*
X99338000Y-100294270D01*
X99316826Y-100400721D01*
X99275291Y-100500995D01*
X99214988Y-100591245D01*
X99138245Y-100667988D01*
X99047995Y-100728291D01*
X98947721Y-100769826D01*
X98841270Y-100791000D01*
X98732730Y-100791000D01*
X98626279Y-100769826D01*
X98526005Y-100728291D01*
X98435755Y-100667988D01*
X98359012Y-100591245D01*
X98298709Y-100500995D01*
X98257174Y-100400721D01*
X98236000Y-100294270D01*
X98236000Y-100185730D01*
X98257174Y-100079279D01*
X98298709Y-99979005D01*
X98359012Y-99888755D01*
X98435755Y-99812012D01*
X98526005Y-99751709D01*
X98626279Y-99710174D01*
X98732730Y-99689000D01*
X98841270Y-99689000D01*
X98947721Y-99710174D01*
X98947721Y-99710174D01*
G37*
G36*
X96263000Y-100551000D02*
X91361000Y-100551000D01*
X91361000Y-98949000D01*
X96263000Y-98949000D01*
X96263000Y-100551000D01*
X96263000Y-100551000D01*
G37*
G36*
X83763000Y-96051000D02*
X78861000Y-96051000D01*
X78861000Y-94556832D01*
X78858598Y-94532446D01*
X78851485Y-94508997D01*
X78839934Y-94487386D01*
X78824388Y-94468444D01*
X78805446Y-94452898D01*
X78798153Y-94449000D01*
X83763000Y-94449000D01*
X83763000Y-96051000D01*
X83763000Y-96051000D01*
G37*
G36*
X108763000Y-96051000D02*
X103861000Y-96051000D01*
X103861000Y-94556832D01*
X103858598Y-94532446D01*
X103851485Y-94508997D01*
X103839934Y-94487386D01*
X103824388Y-94468444D01*
X103805446Y-94452898D01*
X103798153Y-94449000D01*
X108763000Y-94449000D01*
X108763000Y-96051000D01*
X108763000Y-96051000D01*
G37*
G36*
X78118349Y-93493820D02*
X78118352Y-93493821D01*
X78118351Y-93493821D01*
X78259574Y-93552317D01*
X78259575Y-93552318D01*
X78386674Y-93637243D01*
X78494757Y-93745326D01*
X78494759Y-93745329D01*
X78579683Y-93872426D01*
X78594732Y-93908758D01*
X78638180Y-94013651D01*
X78668000Y-94163569D01*
X78668000Y-94324000D01*
X78670402Y-94348386D01*
X78677515Y-94371835D01*
X78689066Y-94393446D01*
X78704612Y-94412388D01*
X78723554Y-94427934D01*
X78731649Y-94432261D01*
X78711614Y-94434234D01*
X78688165Y-94441347D01*
X78666554Y-94452898D01*
X78647612Y-94468444D01*
X78632066Y-94487386D01*
X78620515Y-94508996D01*
X78579683Y-94607574D01*
X78579682Y-94607575D01*
X78494757Y-94734674D01*
X78386674Y-94842757D01*
X78386671Y-94842759D01*
X78259574Y-94927683D01*
X78150343Y-94972927D01*
X78118349Y-94986180D01*
X77968431Y-95016000D01*
X77815569Y-95016000D01*
X77665651Y-94986180D01*
X77633657Y-94972927D01*
X77524426Y-94927683D01*
X77397329Y-94842759D01*
X77397326Y-94842757D01*
X77289243Y-94734674D01*
X77204318Y-94607575D01*
X77204317Y-94607574D01*
X77145821Y-94466351D01*
X77145820Y-94466349D01*
X77116000Y-94316431D01*
X77116000Y-94163569D01*
X77145820Y-94013651D01*
X77189268Y-93908758D01*
X77204317Y-93872426D01*
X77289241Y-93745329D01*
X77289243Y-93745326D01*
X77397326Y-93637243D01*
X77524425Y-93552318D01*
X77524426Y-93552317D01*
X77665649Y-93493821D01*
X77665648Y-93493821D01*
X77665651Y-93493820D01*
X77815569Y-93464000D01*
X77968431Y-93464000D01*
X78118349Y-93493820D01*
X78118349Y-93493820D01*
G37*
G36*
X85038349Y-93493820D02*
X85038352Y-93493821D01*
X85038351Y-93493821D01*
X85179574Y-93552317D01*
X85179575Y-93552318D01*
X85306674Y-93637243D01*
X85414757Y-93745326D01*
X85414759Y-93745329D01*
X85499683Y-93872426D01*
X85514732Y-93908758D01*
X85558180Y-94013651D01*
X85588000Y-94163569D01*
X85588000Y-94316431D01*
X85558180Y-94466349D01*
X85558179Y-94466351D01*
X85499683Y-94607574D01*
X85499682Y-94607575D01*
X85414757Y-94734674D01*
X85306674Y-94842757D01*
X85306671Y-94842759D01*
X85179574Y-94927683D01*
X85070343Y-94972927D01*
X85038349Y-94986180D01*
X84888431Y-95016000D01*
X84735569Y-95016000D01*
X84585651Y-94986180D01*
X84553657Y-94972927D01*
X84444426Y-94927683D01*
X84317329Y-94842759D01*
X84317326Y-94842757D01*
X84209243Y-94734674D01*
X84124318Y-94607575D01*
X84124317Y-94607574D01*
X84065821Y-94466351D01*
X84065820Y-94466349D01*
X84036000Y-94316431D01*
X84036000Y-94163569D01*
X84065820Y-94013651D01*
X84109268Y-93908758D01*
X84124317Y-93872426D01*
X84209241Y-93745329D01*
X84209243Y-93745326D01*
X84317326Y-93637243D01*
X84444425Y-93552318D01*
X84444426Y-93552317D01*
X84585649Y-93493821D01*
X84585648Y-93493821D01*
X84585651Y-93493820D01*
X84735569Y-93464000D01*
X84888431Y-93464000D01*
X85038349Y-93493820D01*
X85038349Y-93493820D01*
G37*
G36*
X103118349Y-93493820D02*
X103118352Y-93493821D01*
X103118351Y-93493821D01*
X103259574Y-93552317D01*
X103259575Y-93552318D01*
X103386674Y-93637243D01*
X103494757Y-93745326D01*
X103494759Y-93745329D01*
X103579683Y-93872426D01*
X103594732Y-93908758D01*
X103638180Y-94013651D01*
X103668000Y-94163569D01*
X103668000Y-94324000D01*
X103670402Y-94348386D01*
X103677515Y-94371835D01*
X103689066Y-94393446D01*
X103704612Y-94412388D01*
X103723554Y-94427934D01*
X103731649Y-94432261D01*
X103711614Y-94434234D01*
X103688165Y-94441347D01*
X103666554Y-94452898D01*
X103647612Y-94468444D01*
X103632066Y-94487386D01*
X103620515Y-94508996D01*
X103579683Y-94607574D01*
X103579682Y-94607575D01*
X103494757Y-94734674D01*
X103386674Y-94842757D01*
X103386671Y-94842759D01*
X103259574Y-94927683D01*
X103150343Y-94972927D01*
X103118349Y-94986180D01*
X102968431Y-95016000D01*
X102815569Y-95016000D01*
X102665651Y-94986180D01*
X102633657Y-94972927D01*
X102524426Y-94927683D01*
X102397329Y-94842759D01*
X102397326Y-94842757D01*
X102289243Y-94734674D01*
X102204318Y-94607575D01*
X102204317Y-94607574D01*
X102145821Y-94466351D01*
X102145820Y-94466349D01*
X102116000Y-94316431D01*
X102116000Y-94163569D01*
X102145820Y-94013651D01*
X102189268Y-93908758D01*
X102204317Y-93872426D01*
X102289241Y-93745329D01*
X102289243Y-93745326D01*
X102397326Y-93637243D01*
X102524425Y-93552318D01*
X102524426Y-93552317D01*
X102665649Y-93493821D01*
X102665648Y-93493821D01*
X102665651Y-93493820D01*
X102815569Y-93464000D01*
X102968431Y-93464000D01*
X103118349Y-93493820D01*
X103118349Y-93493820D01*
G37*
G36*
X110038349Y-93493820D02*
X110038352Y-93493821D01*
X110038351Y-93493821D01*
X110179574Y-93552317D01*
X110179575Y-93552318D01*
X110306674Y-93637243D01*
X110414757Y-93745326D01*
X110414759Y-93745329D01*
X110499683Y-93872426D01*
X110514732Y-93908758D01*
X110558180Y-94013651D01*
X110588000Y-94163569D01*
X110588000Y-94316431D01*
X110558180Y-94466349D01*
X110558179Y-94466351D01*
X110499683Y-94607574D01*
X110499682Y-94607575D01*
X110414757Y-94734674D01*
X110306674Y-94842757D01*
X110306671Y-94842759D01*
X110179574Y-94927683D01*
X110070343Y-94972927D01*
X110038349Y-94986180D01*
X109888431Y-95016000D01*
X109735569Y-95016000D01*
X109585651Y-94986180D01*
X109553657Y-94972927D01*
X109444426Y-94927683D01*
X109317329Y-94842759D01*
X109317326Y-94842757D01*
X109209243Y-94734674D01*
X109124318Y-94607575D01*
X109124317Y-94607574D01*
X109065821Y-94466351D01*
X109065820Y-94466349D01*
X109036000Y-94316431D01*
X109036000Y-94163569D01*
X109065820Y-94013651D01*
X109109268Y-93908758D01*
X109124317Y-93872426D01*
X109209241Y-93745329D01*
X109209243Y-93745326D01*
X109317326Y-93637243D01*
X109444425Y-93552318D01*
X109444426Y-93552317D01*
X109585649Y-93493821D01*
X109585648Y-93493821D01*
X109585651Y-93493820D01*
X109735569Y-93464000D01*
X109888431Y-93464000D01*
X110038349Y-93493820D01*
X110038349Y-93493820D01*
G37*
G36*
X98947721Y-93730174D02*
X99047995Y-93771709D01*
X99138245Y-93832012D01*
X99214988Y-93908755D01*
X99275291Y-93999005D01*
X99316826Y-94099279D01*
X99338000Y-94205730D01*
X99338000Y-94314270D01*
X99316826Y-94420721D01*
X99275291Y-94520995D01*
X99214988Y-94611245D01*
X99138245Y-94687988D01*
X99047995Y-94748291D01*
X98947721Y-94789826D01*
X98841270Y-94811000D01*
X98732730Y-94811000D01*
X98626279Y-94789826D01*
X98526005Y-94748291D01*
X98435755Y-94687988D01*
X98359012Y-94611245D01*
X98298709Y-94520995D01*
X98257174Y-94420721D01*
X98236000Y-94314270D01*
X98236000Y-94205730D01*
X98257174Y-94099279D01*
X98298709Y-93999005D01*
X98359012Y-93908755D01*
X98435755Y-93832012D01*
X98526005Y-93771709D01*
X98626279Y-93730174D01*
X98732730Y-93709000D01*
X98841270Y-93709000D01*
X98947721Y-93730174D01*
X98947721Y-93730174D01*
G37*
G36*
X89077721Y-93730174D02*
X89177995Y-93771709D01*
X89268245Y-93832012D01*
X89344988Y-93908755D01*
X89405291Y-93999005D01*
X89446826Y-94099279D01*
X89468000Y-94205730D01*
X89468000Y-94314270D01*
X89446826Y-94420721D01*
X89405291Y-94520995D01*
X89344988Y-94611245D01*
X89268245Y-94687988D01*
X89177995Y-94748291D01*
X89077721Y-94789826D01*
X88971270Y-94811000D01*
X88862730Y-94811000D01*
X88756279Y-94789826D01*
X88656005Y-94748291D01*
X88565755Y-94687988D01*
X88489012Y-94611245D01*
X88428709Y-94520995D01*
X88387174Y-94420721D01*
X88366000Y-94314270D01*
X88366000Y-94205730D01*
X88387174Y-94099279D01*
X88428709Y-93999005D01*
X88489012Y-93908755D01*
X88565755Y-93832012D01*
X88656005Y-93771709D01*
X88756279Y-93730174D01*
X88862730Y-93709000D01*
X88971270Y-93709000D01*
X89077721Y-93730174D01*
X89077721Y-93730174D01*
G37*
G36*
X90618349Y-91513820D02*
X90618352Y-91513821D01*
X90618351Y-91513821D01*
X90759574Y-91572317D01*
X90759575Y-91572318D01*
X90886674Y-91657243D01*
X90994757Y-91765326D01*
X90994759Y-91765329D01*
X91079683Y-91892426D01*
X91115544Y-91979004D01*
X91138180Y-92033651D01*
X91168000Y-92183569D01*
X91168000Y-92336431D01*
X91138180Y-92486349D01*
X91138179Y-92486351D01*
X91079683Y-92627574D01*
X91079682Y-92627575D01*
X90994757Y-92754674D01*
X90886674Y-92862757D01*
X90886671Y-92862759D01*
X90759574Y-92947683D01*
X90650343Y-92992927D01*
X90618349Y-93006180D01*
X90468431Y-93036000D01*
X90315569Y-93036000D01*
X90165651Y-93006180D01*
X90133657Y-92992927D01*
X90024426Y-92947683D01*
X89897329Y-92862759D01*
X89897326Y-92862757D01*
X89789243Y-92754674D01*
X89704318Y-92627575D01*
X89704317Y-92627574D01*
X89645821Y-92486351D01*
X89645820Y-92486349D01*
X89616000Y-92336431D01*
X89616000Y-92183569D01*
X89645820Y-92033651D01*
X89668456Y-91979004D01*
X89704317Y-91892426D01*
X89789241Y-91765329D01*
X89789243Y-91765326D01*
X89897326Y-91657243D01*
X90024425Y-91572318D01*
X90024426Y-91572317D01*
X90165649Y-91513821D01*
X90165648Y-91513821D01*
X90165651Y-91513820D01*
X90315569Y-91484000D01*
X90468431Y-91484000D01*
X90618349Y-91513820D01*
X90618349Y-91513820D01*
G37*
G36*
X97538349Y-91513820D02*
X97538352Y-91513821D01*
X97538351Y-91513821D01*
X97679574Y-91572317D01*
X97679575Y-91572318D01*
X97806674Y-91657243D01*
X97914757Y-91765326D01*
X97914759Y-91765329D01*
X97999683Y-91892426D01*
X98035544Y-91979004D01*
X98058180Y-92033651D01*
X98088000Y-92183569D01*
X98088000Y-92336431D01*
X98058180Y-92486349D01*
X98058179Y-92486351D01*
X97999683Y-92627574D01*
X97999682Y-92627575D01*
X97914757Y-92754674D01*
X97806674Y-92862757D01*
X97806671Y-92862759D01*
X97679574Y-92947683D01*
X97570343Y-92992927D01*
X97538349Y-93006180D01*
X97388431Y-93036000D01*
X97235569Y-93036000D01*
X97085651Y-93006180D01*
X97053657Y-92992927D01*
X96944426Y-92947683D01*
X96817329Y-92862759D01*
X96817326Y-92862757D01*
X96709243Y-92754674D01*
X96624318Y-92627575D01*
X96624317Y-92627574D01*
X96565821Y-92486351D01*
X96565820Y-92486349D01*
X96536000Y-92336431D01*
X96536000Y-92183569D01*
X96565820Y-92033651D01*
X96588456Y-91979004D01*
X96624317Y-91892426D01*
X96709241Y-91765329D01*
X96709243Y-91765326D01*
X96817326Y-91657243D01*
X96944425Y-91572318D01*
X96944426Y-91572317D01*
X97085649Y-91513821D01*
X97085648Y-91513821D01*
X97085651Y-91513820D01*
X97235569Y-91484000D01*
X97388431Y-91484000D01*
X97538349Y-91513820D01*
X97538349Y-91513820D01*
G37*
G36*
X101577721Y-91710174D02*
X101677995Y-91751709D01*
X101768245Y-91812012D01*
X101844988Y-91888755D01*
X101905291Y-91979005D01*
X101946826Y-92079279D01*
X101968000Y-92185730D01*
X101968000Y-92294270D01*
X101946826Y-92400721D01*
X101905291Y-92500995D01*
X101844988Y-92591245D01*
X101768245Y-92667988D01*
X101677995Y-92728291D01*
X101577721Y-92769826D01*
X101471270Y-92791000D01*
X101362730Y-92791000D01*
X101256279Y-92769826D01*
X101156005Y-92728291D01*
X101065755Y-92667988D01*
X100989012Y-92591245D01*
X100928709Y-92500995D01*
X100887174Y-92400721D01*
X100866000Y-92294270D01*
X100866000Y-92185730D01*
X100887174Y-92079279D01*
X100928709Y-91979005D01*
X100989012Y-91888755D01*
X101065755Y-91812012D01*
X101156005Y-91751709D01*
X101256279Y-91710174D01*
X101362730Y-91689000D01*
X101471270Y-91689000D01*
X101577721Y-91710174D01*
X101577721Y-91710174D01*
G37*
G36*
X76577721Y-91710174D02*
X76677995Y-91751709D01*
X76768245Y-91812012D01*
X76844988Y-91888755D01*
X76905291Y-91979005D01*
X76946826Y-92079279D01*
X76968000Y-92185730D01*
X76968000Y-92294270D01*
X76946826Y-92400721D01*
X76905291Y-92500995D01*
X76844988Y-92591245D01*
X76768245Y-92667988D01*
X76677995Y-92728291D01*
X76577721Y-92769826D01*
X76471270Y-92791000D01*
X76362730Y-92791000D01*
X76256279Y-92769826D01*
X76156005Y-92728291D01*
X76065755Y-92667988D01*
X75989012Y-92591245D01*
X75928709Y-92500995D01*
X75887174Y-92400721D01*
X75866000Y-92294270D01*
X75866000Y-92185730D01*
X75887174Y-92079279D01*
X75928709Y-91979005D01*
X75989012Y-91888755D01*
X76065755Y-91812012D01*
X76156005Y-91751709D01*
X76256279Y-91710174D01*
X76362730Y-91689000D01*
X76471270Y-91689000D01*
X76577721Y-91710174D01*
X76577721Y-91710174D01*
G37*
G36*
X86447721Y-91710174D02*
X86547995Y-91751709D01*
X86638245Y-91812012D01*
X86714988Y-91888755D01*
X86775291Y-91979005D01*
X86816826Y-92079279D01*
X86838000Y-92185730D01*
X86838000Y-92294270D01*
X86816826Y-92400721D01*
X86775291Y-92500995D01*
X86714988Y-92591245D01*
X86638245Y-92667988D01*
X86547995Y-92728291D01*
X86447721Y-92769826D01*
X86341270Y-92791000D01*
X86232730Y-92791000D01*
X86126279Y-92769826D01*
X86026005Y-92728291D01*
X85935755Y-92667988D01*
X85859012Y-92591245D01*
X85798709Y-92500995D01*
X85757174Y-92400721D01*
X85736000Y-92294270D01*
X85736000Y-92185730D01*
X85757174Y-92079279D01*
X85798709Y-91979005D01*
X85859012Y-91888755D01*
X85935755Y-91812012D01*
X86026005Y-91751709D01*
X86126279Y-91710174D01*
X86232730Y-91689000D01*
X86341270Y-91689000D01*
X86447721Y-91710174D01*
X86447721Y-91710174D01*
G37*
G36*
X111447721Y-91710174D02*
X111547995Y-91751709D01*
X111638245Y-91812012D01*
X111714988Y-91888755D01*
X111775291Y-91979005D01*
X111816826Y-92079279D01*
X111838000Y-92185730D01*
X111838000Y-92294270D01*
X111816826Y-92400721D01*
X111775291Y-92500995D01*
X111714988Y-92591245D01*
X111638245Y-92667988D01*
X111547995Y-92728291D01*
X111447721Y-92769826D01*
X111341270Y-92791000D01*
X111232730Y-92791000D01*
X111126279Y-92769826D01*
X111026005Y-92728291D01*
X110935755Y-92667988D01*
X110859012Y-92591245D01*
X110798709Y-92500995D01*
X110757174Y-92400721D01*
X110736000Y-92294270D01*
X110736000Y-92185730D01*
X110757174Y-92079279D01*
X110798709Y-91979005D01*
X110859012Y-91888755D01*
X110935755Y-91812012D01*
X111026005Y-91751709D01*
X111126279Y-91710174D01*
X111232730Y-91689000D01*
X111341270Y-91689000D01*
X111447721Y-91710174D01*
X111447721Y-91710174D01*
G37*
G36*
X83763000Y-92551000D02*
X78861000Y-92551000D01*
X78861000Y-90949000D01*
X83763000Y-90949000D01*
X83763000Y-92551000D01*
X83763000Y-92551000D01*
G37*
G36*
X108763000Y-92551000D02*
X103861000Y-92551000D01*
X103861000Y-90949000D01*
X108763000Y-90949000D01*
X108763000Y-92551000D01*
X108763000Y-92551000D01*
G37*
G36*
X96263000Y-87551000D02*
X91361000Y-87551000D01*
X91361000Y-86056832D01*
X91358598Y-86032446D01*
X91351485Y-86008997D01*
X91339934Y-85987386D01*
X91324388Y-85968444D01*
X91305446Y-85952898D01*
X91298153Y-85949000D01*
X96263000Y-85949000D01*
X96263000Y-87551000D01*
X96263000Y-87551000D01*
G37*
G36*
X111447721Y-85730174D02*
X111547995Y-85771709D01*
X111638245Y-85832012D01*
X111714988Y-85908755D01*
X111775291Y-85999005D01*
X111816826Y-86099279D01*
X111838000Y-86205730D01*
X111838000Y-86314270D01*
X111816826Y-86420721D01*
X111775291Y-86520995D01*
X111714988Y-86611245D01*
X111638245Y-86687988D01*
X111547995Y-86748291D01*
X111447721Y-86789826D01*
X111341270Y-86811000D01*
X111232730Y-86811000D01*
X111126279Y-86789826D01*
X111026005Y-86748291D01*
X110935755Y-86687988D01*
X110859012Y-86611245D01*
X110798709Y-86520995D01*
X110757174Y-86420721D01*
X110736000Y-86314270D01*
X110736000Y-86205730D01*
X110757174Y-86099279D01*
X110798709Y-85999005D01*
X110859012Y-85908755D01*
X110935755Y-85832012D01*
X111026005Y-85771709D01*
X111126279Y-85730174D01*
X111232730Y-85709000D01*
X111341270Y-85709000D01*
X111447721Y-85730174D01*
X111447721Y-85730174D01*
G37*
G36*
X86447721Y-85730174D02*
X86547995Y-85771709D01*
X86638245Y-85832012D01*
X86714988Y-85908755D01*
X86775291Y-85999005D01*
X86816826Y-86099279D01*
X86838000Y-86205730D01*
X86838000Y-86314270D01*
X86816826Y-86420721D01*
X86775291Y-86520995D01*
X86714988Y-86611245D01*
X86638245Y-86687988D01*
X86547995Y-86748291D01*
X86447721Y-86789826D01*
X86341270Y-86811000D01*
X86232730Y-86811000D01*
X86126279Y-86789826D01*
X86026005Y-86748291D01*
X85935755Y-86687988D01*
X85859012Y-86611245D01*
X85798709Y-86520995D01*
X85757174Y-86420721D01*
X85736000Y-86314270D01*
X85736000Y-86205730D01*
X85757174Y-86099279D01*
X85798709Y-85999005D01*
X85859012Y-85908755D01*
X85935755Y-85832012D01*
X86026005Y-85771709D01*
X86126279Y-85730174D01*
X86232730Y-85709000D01*
X86341270Y-85709000D01*
X86447721Y-85730174D01*
X86447721Y-85730174D01*
G37*
G36*
X76577721Y-85730174D02*
X76677995Y-85771709D01*
X76768245Y-85832012D01*
X76844988Y-85908755D01*
X76905291Y-85999005D01*
X76946826Y-86099279D01*
X76968000Y-86205730D01*
X76968000Y-86314270D01*
X76946826Y-86420721D01*
X76905291Y-86520995D01*
X76844988Y-86611245D01*
X76768245Y-86687988D01*
X76677995Y-86748291D01*
X76577721Y-86789826D01*
X76471270Y-86811000D01*
X76362730Y-86811000D01*
X76256279Y-86789826D01*
X76156005Y-86748291D01*
X76065755Y-86687988D01*
X75989012Y-86611245D01*
X75928709Y-86520995D01*
X75887174Y-86420721D01*
X75866000Y-86314270D01*
X75866000Y-86205730D01*
X75887174Y-86099279D01*
X75928709Y-85999005D01*
X75989012Y-85908755D01*
X76065755Y-85832012D01*
X76156005Y-85771709D01*
X76256279Y-85730174D01*
X76362730Y-85709000D01*
X76471270Y-85709000D01*
X76577721Y-85730174D01*
X76577721Y-85730174D01*
G37*
G36*
X101577721Y-85730174D02*
X101677995Y-85771709D01*
X101768245Y-85832012D01*
X101844988Y-85908755D01*
X101905291Y-85999005D01*
X101946826Y-86099279D01*
X101968000Y-86205730D01*
X101968000Y-86314270D01*
X101946826Y-86420721D01*
X101905291Y-86520995D01*
X101844988Y-86611245D01*
X101768245Y-86687988D01*
X101677995Y-86748291D01*
X101577721Y-86789826D01*
X101471270Y-86811000D01*
X101362730Y-86811000D01*
X101256279Y-86789826D01*
X101156005Y-86748291D01*
X101065755Y-86687988D01*
X100989012Y-86611245D01*
X100928709Y-86520995D01*
X100887174Y-86420721D01*
X100866000Y-86314270D01*
X100866000Y-86205730D01*
X100887174Y-86099279D01*
X100928709Y-85999005D01*
X100989012Y-85908755D01*
X101065755Y-85832012D01*
X101156005Y-85771709D01*
X101256279Y-85730174D01*
X101362730Y-85709000D01*
X101471270Y-85709000D01*
X101577721Y-85730174D01*
X101577721Y-85730174D01*
G37*
G36*
X97538349Y-84993820D02*
X97538352Y-84993821D01*
X97538351Y-84993821D01*
X97679574Y-85052317D01*
X97679575Y-85052318D01*
X97806674Y-85137243D01*
X97914757Y-85245326D01*
X97914759Y-85245329D01*
X97999683Y-85372426D01*
X98044927Y-85481657D01*
X98058180Y-85513651D01*
X98088000Y-85663569D01*
X98088000Y-85816431D01*
X98058180Y-85966349D01*
X98058179Y-85966351D01*
X97999683Y-86107574D01*
X97999682Y-86107575D01*
X97914757Y-86234674D01*
X97806674Y-86342757D01*
X97806671Y-86342759D01*
X97679574Y-86427683D01*
X97570343Y-86472927D01*
X97538349Y-86486180D01*
X97388431Y-86516000D01*
X97235569Y-86516000D01*
X97085651Y-86486180D01*
X97053657Y-86472927D01*
X96944426Y-86427683D01*
X96817329Y-86342759D01*
X96817326Y-86342757D01*
X96709243Y-86234674D01*
X96624318Y-86107575D01*
X96624317Y-86107574D01*
X96565821Y-85966351D01*
X96565820Y-85966349D01*
X96536000Y-85816431D01*
X96536000Y-85663569D01*
X96565820Y-85513651D01*
X96579073Y-85481657D01*
X96624317Y-85372426D01*
X96709241Y-85245329D01*
X96709243Y-85245326D01*
X96817326Y-85137243D01*
X96944425Y-85052318D01*
X96944426Y-85052317D01*
X97085649Y-84993821D01*
X97085648Y-84993821D01*
X97085651Y-84993820D01*
X97235569Y-84964000D01*
X97388431Y-84964000D01*
X97538349Y-84993820D01*
X97538349Y-84993820D01*
G37*
G36*
X90618349Y-84993820D02*
X90618352Y-84993821D01*
X90618351Y-84993821D01*
X90759574Y-85052317D01*
X90759575Y-85052318D01*
X90886674Y-85137243D01*
X90994757Y-85245326D01*
X90994759Y-85245329D01*
X91079683Y-85372426D01*
X91124927Y-85481657D01*
X91138180Y-85513651D01*
X91168000Y-85663569D01*
X91168000Y-85824000D01*
X91170402Y-85848386D01*
X91177515Y-85871835D01*
X91189066Y-85893446D01*
X91204612Y-85912388D01*
X91223554Y-85927934D01*
X91231649Y-85932261D01*
X91211614Y-85934234D01*
X91188165Y-85941347D01*
X91166554Y-85952898D01*
X91147612Y-85968444D01*
X91132066Y-85987386D01*
X91120515Y-86008996D01*
X91079683Y-86107574D01*
X91079682Y-86107575D01*
X90994757Y-86234674D01*
X90886674Y-86342757D01*
X90886671Y-86342759D01*
X90759574Y-86427683D01*
X90650343Y-86472927D01*
X90618349Y-86486180D01*
X90468431Y-86516000D01*
X90315569Y-86516000D01*
X90165651Y-86486180D01*
X90133657Y-86472927D01*
X90024426Y-86427683D01*
X89897329Y-86342759D01*
X89897326Y-86342757D01*
X89789243Y-86234674D01*
X89704318Y-86107575D01*
X89704317Y-86107574D01*
X89645821Y-85966351D01*
X89645820Y-85966349D01*
X89616000Y-85816431D01*
X89616000Y-85663569D01*
X89645820Y-85513651D01*
X89659073Y-85481657D01*
X89704317Y-85372426D01*
X89789241Y-85245329D01*
X89789243Y-85245326D01*
X89897326Y-85137243D01*
X90024425Y-85052318D01*
X90024426Y-85052317D01*
X90165649Y-84993821D01*
X90165648Y-84993821D01*
X90165651Y-84993820D01*
X90315569Y-84964000D01*
X90468431Y-84964000D01*
X90618349Y-84993820D01*
X90618349Y-84993820D01*
G37*
G36*
X103118349Y-83513820D02*
X103118352Y-83513821D01*
X103118351Y-83513821D01*
X103259574Y-83572317D01*
X103259575Y-83572318D01*
X103386674Y-83657243D01*
X103494757Y-83765326D01*
X103494759Y-83765329D01*
X103579683Y-83892426D01*
X103624653Y-84000995D01*
X103638180Y-84033651D01*
X103668000Y-84183569D01*
X103668000Y-84336431D01*
X103638180Y-84486349D01*
X103638179Y-84486351D01*
X103579683Y-84627574D01*
X103579682Y-84627575D01*
X103494757Y-84754674D01*
X103386674Y-84862757D01*
X103386671Y-84862759D01*
X103259574Y-84947683D01*
X103150343Y-84992927D01*
X103118349Y-85006180D01*
X102968431Y-85036000D01*
X102815569Y-85036000D01*
X102665651Y-85006180D01*
X102633657Y-84992927D01*
X102524426Y-84947683D01*
X102397329Y-84862759D01*
X102397326Y-84862757D01*
X102289243Y-84754674D01*
X102204318Y-84627575D01*
X102204317Y-84627574D01*
X102145821Y-84486351D01*
X102145820Y-84486349D01*
X102116000Y-84336431D01*
X102116000Y-84183569D01*
X102145820Y-84033651D01*
X102159347Y-84000995D01*
X102204317Y-83892426D01*
X102289241Y-83765329D01*
X102289243Y-83765326D01*
X102397326Y-83657243D01*
X102524425Y-83572318D01*
X102524426Y-83572317D01*
X102665649Y-83513821D01*
X102665648Y-83513821D01*
X102665651Y-83513820D01*
X102815569Y-83484000D01*
X102968431Y-83484000D01*
X103118349Y-83513820D01*
X103118349Y-83513820D01*
G37*
G36*
X78118349Y-83513820D02*
X78118352Y-83513821D01*
X78118351Y-83513821D01*
X78259574Y-83572317D01*
X78259575Y-83572318D01*
X78386674Y-83657243D01*
X78494757Y-83765326D01*
X78494759Y-83765329D01*
X78579683Y-83892426D01*
X78624653Y-84000995D01*
X78638180Y-84033651D01*
X78668000Y-84183569D01*
X78668000Y-84336431D01*
X78638180Y-84486349D01*
X78638179Y-84486351D01*
X78579683Y-84627574D01*
X78579682Y-84627575D01*
X78494757Y-84754674D01*
X78386674Y-84862757D01*
X78386671Y-84862759D01*
X78259574Y-84947683D01*
X78150343Y-84992927D01*
X78118349Y-85006180D01*
X77968431Y-85036000D01*
X77815569Y-85036000D01*
X77665651Y-85006180D01*
X77633657Y-84992927D01*
X77524426Y-84947683D01*
X77397329Y-84862759D01*
X77397326Y-84862757D01*
X77289243Y-84754674D01*
X77204318Y-84627575D01*
X77204317Y-84627574D01*
X77145821Y-84486351D01*
X77145820Y-84486349D01*
X77116000Y-84336431D01*
X77116000Y-84183569D01*
X77145820Y-84033651D01*
X77159347Y-84000995D01*
X77204317Y-83892426D01*
X77289241Y-83765329D01*
X77289243Y-83765326D01*
X77397326Y-83657243D01*
X77524425Y-83572318D01*
X77524426Y-83572317D01*
X77665649Y-83513821D01*
X77665648Y-83513821D01*
X77665651Y-83513820D01*
X77815569Y-83484000D01*
X77968431Y-83484000D01*
X78118349Y-83513820D01*
X78118349Y-83513820D01*
G37*
G36*
X85038349Y-83513820D02*
X85038352Y-83513821D01*
X85038351Y-83513821D01*
X85179574Y-83572317D01*
X85179575Y-83572318D01*
X85306674Y-83657243D01*
X85414757Y-83765326D01*
X85414759Y-83765329D01*
X85499683Y-83892426D01*
X85544653Y-84000995D01*
X85558180Y-84033651D01*
X85588000Y-84183569D01*
X85588000Y-84336431D01*
X85558180Y-84486349D01*
X85558179Y-84486351D01*
X85499683Y-84627574D01*
X85499682Y-84627575D01*
X85414757Y-84754674D01*
X85306674Y-84862757D01*
X85306671Y-84862759D01*
X85179574Y-84947683D01*
X85070343Y-84992927D01*
X85038349Y-85006180D01*
X84888431Y-85036000D01*
X84735569Y-85036000D01*
X84585651Y-85006180D01*
X84553657Y-84992927D01*
X84444426Y-84947683D01*
X84317329Y-84862759D01*
X84317326Y-84862757D01*
X84209243Y-84754674D01*
X84124318Y-84627575D01*
X84124317Y-84627574D01*
X84065821Y-84486351D01*
X84065820Y-84486349D01*
X84036000Y-84336431D01*
X84036000Y-84183569D01*
X84065820Y-84033651D01*
X84079347Y-84000995D01*
X84124317Y-83892426D01*
X84209241Y-83765329D01*
X84209243Y-83765326D01*
X84317326Y-83657243D01*
X84444425Y-83572318D01*
X84444426Y-83572317D01*
X84585649Y-83513821D01*
X84585648Y-83513821D01*
X84585651Y-83513820D01*
X84735569Y-83484000D01*
X84888431Y-83484000D01*
X85038349Y-83513820D01*
X85038349Y-83513820D01*
G37*
G36*
X110038349Y-83513820D02*
X110038352Y-83513821D01*
X110038351Y-83513821D01*
X110179574Y-83572317D01*
X110179575Y-83572318D01*
X110306674Y-83657243D01*
X110414757Y-83765326D01*
X110414759Y-83765329D01*
X110499683Y-83892426D01*
X110544653Y-84000995D01*
X110558180Y-84033651D01*
X110588000Y-84183569D01*
X110588000Y-84336431D01*
X110558180Y-84486349D01*
X110558179Y-84486351D01*
X110499683Y-84627574D01*
X110499682Y-84627575D01*
X110414757Y-84754674D01*
X110306674Y-84862757D01*
X110306671Y-84862759D01*
X110179574Y-84947683D01*
X110070343Y-84992927D01*
X110038349Y-85006180D01*
X109888431Y-85036000D01*
X109735569Y-85036000D01*
X109585651Y-85006180D01*
X109553657Y-84992927D01*
X109444426Y-84947683D01*
X109317329Y-84862759D01*
X109317326Y-84862757D01*
X109209243Y-84754674D01*
X109124318Y-84627575D01*
X109124317Y-84627574D01*
X109065821Y-84486351D01*
X109065820Y-84486349D01*
X109036000Y-84336431D01*
X109036000Y-84183569D01*
X109065820Y-84033651D01*
X109079347Y-84000995D01*
X109124317Y-83892426D01*
X109209241Y-83765329D01*
X109209243Y-83765326D01*
X109317326Y-83657243D01*
X109444425Y-83572318D01*
X109444426Y-83572317D01*
X109585649Y-83513821D01*
X109585648Y-83513821D01*
X109585651Y-83513820D01*
X109735569Y-83484000D01*
X109888431Y-83484000D01*
X110038349Y-83513820D01*
X110038349Y-83513820D01*
G37*
G36*
X89077721Y-83210174D02*
X89177995Y-83251709D01*
X89268245Y-83312012D01*
X89344988Y-83388755D01*
X89405291Y-83479005D01*
X89446826Y-83579279D01*
X89468000Y-83685730D01*
X89468000Y-83794270D01*
X89446826Y-83900721D01*
X89405291Y-84000995D01*
X89344988Y-84091245D01*
X89268245Y-84167988D01*
X89177995Y-84228291D01*
X89077721Y-84269826D01*
X88971270Y-84291000D01*
X88862730Y-84291000D01*
X88756279Y-84269826D01*
X88656005Y-84228291D01*
X88565755Y-84167988D01*
X88489012Y-84091245D01*
X88428709Y-84000995D01*
X88387174Y-83900721D01*
X88366000Y-83794270D01*
X88366000Y-83685730D01*
X88387174Y-83579279D01*
X88428709Y-83479005D01*
X88489012Y-83388755D01*
X88565755Y-83312012D01*
X88656005Y-83251709D01*
X88756279Y-83210174D01*
X88862730Y-83189000D01*
X88971270Y-83189000D01*
X89077721Y-83210174D01*
X89077721Y-83210174D01*
G37*
G36*
X98947721Y-83210174D02*
X99047995Y-83251709D01*
X99138245Y-83312012D01*
X99214988Y-83388755D01*
X99275291Y-83479005D01*
X99316826Y-83579279D01*
X99338000Y-83685730D01*
X99338000Y-83794270D01*
X99316826Y-83900721D01*
X99275291Y-84000995D01*
X99214988Y-84091245D01*
X99138245Y-84167988D01*
X99047995Y-84228291D01*
X98947721Y-84269826D01*
X98841270Y-84291000D01*
X98732730Y-84291000D01*
X98626279Y-84269826D01*
X98526005Y-84228291D01*
X98435755Y-84167988D01*
X98359012Y-84091245D01*
X98298709Y-84000995D01*
X98257174Y-83900721D01*
X98236000Y-83794270D01*
X98236000Y-83685730D01*
X98257174Y-83579279D01*
X98298709Y-83479005D01*
X98359012Y-83388755D01*
X98435755Y-83312012D01*
X98526005Y-83251709D01*
X98626279Y-83210174D01*
X98732730Y-83189000D01*
X98841270Y-83189000D01*
X98947721Y-83210174D01*
X98947721Y-83210174D01*
G37*
G36*
X96263000Y-84051000D02*
X91361000Y-84051000D01*
X91361000Y-82449000D01*
X96263000Y-82449000D01*
X96263000Y-84051000D01*
X96263000Y-84051000D01*
G37*
G36*
X98947721Y-77230174D02*
X99047995Y-77271709D01*
X99138245Y-77332012D01*
X99214988Y-77408755D01*
X99275291Y-77499005D01*
X99316826Y-77599279D01*
X99338000Y-77705730D01*
X99338000Y-77814270D01*
X99316826Y-77920721D01*
X99275291Y-78020995D01*
X99214988Y-78111245D01*
X99138245Y-78187988D01*
X99047995Y-78248291D01*
X98947721Y-78289826D01*
X98841270Y-78311000D01*
X98732730Y-78311000D01*
X98626279Y-78289826D01*
X98526005Y-78248291D01*
X98435755Y-78187988D01*
X98359012Y-78111245D01*
X98298709Y-78020995D01*
X98257174Y-77920721D01*
X98236000Y-77814270D01*
X98236000Y-77705730D01*
X98257174Y-77599279D01*
X98298709Y-77499005D01*
X98359012Y-77408755D01*
X98435755Y-77332012D01*
X98526005Y-77271709D01*
X98626279Y-77230174D01*
X98732730Y-77209000D01*
X98841270Y-77209000D01*
X98947721Y-77230174D01*
X98947721Y-77230174D01*
G37*
G36*
X89077721Y-77230174D02*
X89177995Y-77271709D01*
X89268245Y-77332012D01*
X89344988Y-77408755D01*
X89405291Y-77499005D01*
X89446826Y-77599279D01*
X89468000Y-77705730D01*
X89468000Y-77814270D01*
X89446826Y-77920721D01*
X89405291Y-78020995D01*
X89344988Y-78111245D01*
X89268245Y-78187988D01*
X89177995Y-78248291D01*
X89077721Y-78289826D01*
X88971270Y-78311000D01*
X88862730Y-78311000D01*
X88756279Y-78289826D01*
X88656005Y-78248291D01*
X88565755Y-78187988D01*
X88489012Y-78111245D01*
X88428709Y-78020995D01*
X88387174Y-77920721D01*
X88366000Y-77814270D01*
X88366000Y-77705730D01*
X88387174Y-77599279D01*
X88428709Y-77499005D01*
X88489012Y-77408755D01*
X88565755Y-77332012D01*
X88656005Y-77271709D01*
X88756279Y-77230174D01*
X88862730Y-77209000D01*
X88971270Y-77209000D01*
X89077721Y-77230174D01*
X89077721Y-77230174D01*
G37*
G36*
X97538349Y-75013820D02*
X97538352Y-75013821D01*
X97538351Y-75013821D01*
X97679574Y-75072317D01*
X97679575Y-75072318D01*
X97806674Y-75157243D01*
X97914757Y-75265326D01*
X97914759Y-75265329D01*
X97999683Y-75392426D01*
X98044927Y-75501657D01*
X98058180Y-75533651D01*
X98088000Y-75683569D01*
X98088000Y-75836431D01*
X98058180Y-75986349D01*
X98058179Y-75986351D01*
X97999683Y-76127574D01*
X97999682Y-76127575D01*
X97914757Y-76254674D01*
X97806674Y-76362757D01*
X97806671Y-76362759D01*
X97679574Y-76447683D01*
X97570343Y-76492927D01*
X97538349Y-76506180D01*
X97388431Y-76536000D01*
X97235569Y-76536000D01*
X97085651Y-76506180D01*
X97053657Y-76492927D01*
X96944426Y-76447683D01*
X96817329Y-76362759D01*
X96817326Y-76362757D01*
X96709243Y-76254674D01*
X96624318Y-76127575D01*
X96624317Y-76127574D01*
X96565821Y-75986351D01*
X96565820Y-75986349D01*
X96536000Y-75836431D01*
X96536000Y-75683569D01*
X96565820Y-75533651D01*
X96579073Y-75501657D01*
X96624317Y-75392426D01*
X96709241Y-75265329D01*
X96709243Y-75265326D01*
X96817326Y-75157243D01*
X96944425Y-75072318D01*
X96944426Y-75072317D01*
X97085649Y-75013821D01*
X97085648Y-75013821D01*
X97085651Y-75013820D01*
X97235569Y-74984000D01*
X97388431Y-74984000D01*
X97538349Y-75013820D01*
X97538349Y-75013820D01*
G37*
G36*
X90618349Y-75013820D02*
X90618352Y-75013821D01*
X90618351Y-75013821D01*
X90759574Y-75072317D01*
X90759575Y-75072318D01*
X90886674Y-75157243D01*
X90994757Y-75265326D01*
X90994759Y-75265329D01*
X91079683Y-75392426D01*
X91124927Y-75501657D01*
X91138180Y-75533651D01*
X91168000Y-75683569D01*
X91168000Y-75836431D01*
X91138180Y-75986349D01*
X91138179Y-75986351D01*
X91079683Y-76127574D01*
X91079682Y-76127575D01*
X90994757Y-76254674D01*
X90886674Y-76362757D01*
X90886671Y-76362759D01*
X90759574Y-76447683D01*
X90650343Y-76492927D01*
X90618349Y-76506180D01*
X90468431Y-76536000D01*
X90315569Y-76536000D01*
X90165651Y-76506180D01*
X90133657Y-76492927D01*
X90024426Y-76447683D01*
X89897329Y-76362759D01*
X89897326Y-76362757D01*
X89789243Y-76254674D01*
X89704318Y-76127575D01*
X89704317Y-76127574D01*
X89645821Y-75986351D01*
X89645820Y-75986349D01*
X89616000Y-75836431D01*
X89616000Y-75683569D01*
X89645820Y-75533651D01*
X89659073Y-75501657D01*
X89704317Y-75392426D01*
X89789241Y-75265329D01*
X89789243Y-75265326D01*
X89897326Y-75157243D01*
X90024425Y-75072318D01*
X90024426Y-75072317D01*
X90165649Y-75013821D01*
X90165648Y-75013821D01*
X90165651Y-75013820D01*
X90315569Y-74984000D01*
X90468431Y-74984000D01*
X90618349Y-75013820D01*
X90618349Y-75013820D01*
G37*
M02*
