M48
;DRILL file {KiCad (6.0.0-rc1-dev-305-gf0b8b2136)} date 07/12/19 16:48:03
;FORMAT={-:-/ absolute / inch / decimal}
FMAT,2
INCH,TZ
T1C0.0118
T2C0.0394
T3C0.0571
%
G90
G05
M72
T1
X3.0688Y-3.5138
X3.0688Y-4.1437
X3.0983Y-3.5138
X3.0983Y-4.1437
X3.1278Y-3.5138
X3.1278Y-4.1437
X3.1574Y-3.5138
X3.1574Y-4.1437
X3.1869Y-3.5138
X3.1869Y-4.1437
X3.216Y-3.5138
X3.216Y-4.1437
X3.2456Y-3.5138
X3.2456Y-4.1437
X3.2751Y-3.5138
X3.2751Y-4.1437
X3.3046Y-3.5138
X3.3046Y-4.1437
X3.3341Y-3.5138
X3.3341Y-4.1437
X3.5609Y-3.1791
X3.5609Y-3.8287
X3.5609Y-4.4783
X3.5904Y-3.1791
X3.5904Y-3.8287
X3.5904Y-4.4783
X3.62Y-3.1791
X3.62Y-3.8287
X3.62Y-4.4783
X3.6495Y-3.1791
X3.6495Y-3.8287
X3.6495Y-4.4783
X3.679Y-3.1791
X3.679Y-3.8287
X3.679Y-4.4783
X3.7081Y-3.1791
X3.7081Y-3.8287
X3.7081Y-4.4783
X3.7377Y-3.1791
X3.7377Y-3.8287
X3.7377Y-4.4783
X3.7672Y-3.1791
X3.7672Y-3.8287
X3.7672Y-4.4783
X3.7967Y-3.1791
X3.7967Y-3.8287
X3.7967Y-4.4783
X3.8263Y-3.1791
X3.8263Y-3.8287
X3.8263Y-4.4783
X4.053Y-3.5138
X4.053Y-4.1437
X4.0826Y-3.5138
X4.0826Y-4.1437
X4.1121Y-3.5138
X4.1121Y-4.1437
X4.1416Y-3.5138
X4.1416Y-4.1437
X4.1711Y-3.5138
X4.1711Y-4.1437
X4.2003Y-3.5138
X4.2003Y-4.1437
X4.2298Y-3.5138
X4.2298Y-4.1437
X4.2593Y-3.5138
X4.2593Y-4.1437
X4.2889Y-3.5138
X4.2889Y-4.1437
X4.3184Y-3.5138
X4.3184Y-4.1437
T2
X3.5007Y-3.0614
X3.8893Y-3.0614
X3.0085Y-3.6315
X3.3971Y-3.6315
X3.9928Y-3.6315
X4.3814Y-3.6315
X3.5007Y-3.711
X3.8893Y-3.711
X3.9928Y-4.026
X4.3814Y-4.026
X3.5007Y-4.5961
X3.8893Y-4.5961
X3.5007Y-3.2969
X3.8893Y-3.2969
X3.9928Y-4.2614
X4.3814Y-4.2614
X3.0085Y-4.2614
X3.3971Y-4.2614
X3.0085Y-4.026
X3.3971Y-4.026
X3.5007Y-3.9465
X3.8893Y-3.9465
X3.5007Y-4.3606
X3.8893Y-4.3606
X3.0085Y-3.3961
X3.3971Y-3.3961
X3.9928Y-3.3961
X4.3814Y-3.3961
T3
X4.0509Y-4.3402
X4.3233Y-4.3402
X3.0666Y-4.3402
X3.3391Y-4.3402
X3.0666Y-3.9472
X3.3391Y-3.9472
X3.5587Y-4.0252
X3.8312Y-4.0252
X3.5587Y-4.2819
X3.8312Y-4.2819
X3.0666Y-3.3173
X3.3391Y-3.3173
X4.0509Y-3.3173
X4.3233Y-3.3173
X3.5587Y-2.9827
X3.8312Y-2.9827
X3.0666Y-3.7102
X3.3391Y-3.7102
X4.0509Y-3.7102
X4.3233Y-3.7102
X3.5587Y-3.6323
X3.8312Y-3.6323
X4.0509Y-3.9472
X4.3233Y-3.9472
X3.5587Y-4.6748
X3.8312Y-4.6748
X3.5587Y-3.3756
X3.8312Y-3.3756
T0
M30
