G04 #@! TF.GenerationSoftware,KiCad,Pcbnew,(6.0.0-rc1-dev-305-gf0b8b2136)*
G04 #@! TF.CreationDate,2019-08-02T16:00:19-06:00*
G04 #@! TF.ProjectId,Gateway01,4761746577617930312E6B696361645F,rev?*
G04 #@! TF.SameCoordinates,Original*
G04 #@! TF.FileFunction,Paste,Top*
G04 #@! TF.FilePolarity,Positive*
%FSLAX46Y46*%
G04 Gerber Fmt 4.6, Leading zero omitted, Abs format (unit mm)*
G04 Created by KiCad (PCBNEW (6.0.0-rc1-dev-305-gf0b8b2136)) date 08/02/19 16:00:19*
%MOMM*%
%LPD*%
G01*
G04 APERTURE LIST*
%ADD10R,0.300000X1.500000*%
G04 APERTURE END LIST*
D10*
G04 #@! TO.C,U8*
X91562000Y-99750000D03*
X91562000Y-103250000D03*
X92062000Y-99750000D03*
X92062000Y-103250000D03*
X92562000Y-99750000D03*
X92562000Y-103250000D03*
X93062000Y-99750000D03*
X93062000Y-103250000D03*
X93562000Y-99750000D03*
X93562000Y-103250000D03*
X94062000Y-99750000D03*
X94062000Y-103250000D03*
X94562000Y-99750000D03*
X94562000Y-103250000D03*
X95062000Y-99750000D03*
X95062000Y-103250000D03*
X95562000Y-99750000D03*
X95562000Y-103250000D03*
X96062000Y-99750000D03*
X96062000Y-103250000D03*
G04 #@! TD*
G04 #@! TO.C,U2*
X91562000Y-83250000D03*
X91562000Y-86750000D03*
X92062000Y-83250000D03*
X92062000Y-86750000D03*
X92562000Y-83250000D03*
X92562000Y-86750000D03*
X93062000Y-83250000D03*
X93062000Y-86750000D03*
X93562000Y-83250000D03*
X93562000Y-86750000D03*
X94062000Y-83250000D03*
X94062000Y-86750000D03*
X94562000Y-83250000D03*
X94562000Y-86750000D03*
X95062000Y-83250000D03*
X95062000Y-86750000D03*
X95562000Y-83250000D03*
X95562000Y-86750000D03*
X96062000Y-83250000D03*
X96062000Y-86750000D03*
G04 #@! TD*
G04 #@! TO.C,U4*
X79062000Y-91750000D03*
X79062000Y-95250000D03*
X79562000Y-91750000D03*
X79562000Y-95250000D03*
X80062000Y-91750000D03*
X80062000Y-95250000D03*
X80562000Y-91750000D03*
X80562000Y-95250000D03*
X81062000Y-91750000D03*
X81062000Y-95250000D03*
X81562000Y-91750000D03*
X81562000Y-95250000D03*
X82062000Y-91750000D03*
X82062000Y-95250000D03*
X82562000Y-91750000D03*
X82562000Y-95250000D03*
X83062000Y-91750000D03*
X83062000Y-95250000D03*
X83562000Y-91750000D03*
X83562000Y-95250000D03*
G04 #@! TD*
G04 #@! TO.C,U6*
X104062000Y-91750000D03*
X104062000Y-95250000D03*
X104562000Y-91750000D03*
X104562000Y-95250000D03*
X105062000Y-91750000D03*
X105062000Y-95250000D03*
X105562000Y-91750000D03*
X105562000Y-95250000D03*
X106062000Y-91750000D03*
X106062000Y-95250000D03*
X106562000Y-91750000D03*
X106562000Y-95250000D03*
X107062000Y-91750000D03*
X107062000Y-95250000D03*
X107562000Y-91750000D03*
X107562000Y-95250000D03*
X108062000Y-91750000D03*
X108062000Y-95250000D03*
X108562000Y-91750000D03*
X108562000Y-95250000D03*
G04 #@! TD*
G04 #@! TO.C,U10*
X79062000Y-107750000D03*
X79062000Y-111250000D03*
X79562000Y-107750000D03*
X79562000Y-111250000D03*
X80062000Y-107750000D03*
X80062000Y-111250000D03*
X80562000Y-107750000D03*
X80562000Y-111250000D03*
X81062000Y-107750000D03*
X81062000Y-111250000D03*
X81562000Y-107750000D03*
X81562000Y-111250000D03*
X82062000Y-107750000D03*
X82062000Y-111250000D03*
X82562000Y-107750000D03*
X82562000Y-111250000D03*
X83062000Y-107750000D03*
X83062000Y-111250000D03*
X83562000Y-107750000D03*
X83562000Y-111250000D03*
G04 #@! TD*
G04 #@! TO.C,U14*
X91562000Y-116250000D03*
X91562000Y-119750000D03*
X92062000Y-116250000D03*
X92062000Y-119750000D03*
X92562000Y-116250000D03*
X92562000Y-119750000D03*
X93062000Y-116250000D03*
X93062000Y-119750000D03*
X93562000Y-116250000D03*
X93562000Y-119750000D03*
X94062000Y-116250000D03*
X94062000Y-119750000D03*
X94562000Y-116250000D03*
X94562000Y-119750000D03*
X95062000Y-116250000D03*
X95062000Y-119750000D03*
X95562000Y-116250000D03*
X95562000Y-119750000D03*
X96062000Y-116250000D03*
X96062000Y-119750000D03*
G04 #@! TD*
G04 #@! TO.C,U12*
X104062000Y-107750000D03*
X104062000Y-111250000D03*
X104562000Y-107750000D03*
X104562000Y-111250000D03*
X105062000Y-107750000D03*
X105062000Y-111250000D03*
X105562000Y-107750000D03*
X105562000Y-111250000D03*
X106062000Y-107750000D03*
X106062000Y-111250000D03*
X106562000Y-107750000D03*
X106562000Y-111250000D03*
X107062000Y-107750000D03*
X107062000Y-111250000D03*
X107562000Y-107750000D03*
X107562000Y-111250000D03*
X108062000Y-107750000D03*
X108062000Y-111250000D03*
X108562000Y-107750000D03*
X108562000Y-111250000D03*
G04 #@! TD*
M02*
