G04 #@! TF.GenerationSoftware,KiCad,Pcbnew,(6.0.0-rc1-dev-305-gf0b8b2136)*
G04 #@! TF.CreationDate,2019-06-24T15:23:41-06:00*
G04 #@! TF.ProjectId,Station05,53746174696F6E30352E6B696361645F,rev?*
G04 #@! TF.SameCoordinates,Original*
G04 #@! TF.FileFunction,Copper,L4,Bot,Signal*
G04 #@! TF.FilePolarity,Positive*
%FSLAX46Y46*%
G04 Gerber Fmt 4.6, Leading zero omitted, Abs format (unit mm)*
G04 Created by KiCad (PCBNEW (6.0.0-rc1-dev-305-gf0b8b2136)) date 06/24/19 15:23:41*
%MOMM*%
%LPD*%
G01*
G04 APERTURE LIST*
G04 #@! TA.AperFunction,SMDPad,CuDef*
%ADD10R,0.300000X1.500000*%
G04 #@! TD*
G04 #@! TA.AperFunction,ComponentPad*
%ADD11C,1.000000*%
G04 #@! TD*
G04 #@! TA.AperFunction,ComponentPad*
%ADD12C,1.450000*%
G04 #@! TD*
G04 #@! TA.AperFunction,ViaPad*
%ADD13C,0.800000*%
G04 #@! TD*
G04 #@! TA.AperFunction,ViaPad*
%ADD14C,1.200000*%
G04 #@! TD*
G04 #@! TA.AperFunction,ViaPad*
%ADD15C,0.711200*%
G04 #@! TD*
G04 #@! TA.AperFunction,Conductor*
%ADD16C,0.250000*%
G04 #@! TD*
G04 #@! TA.AperFunction,Conductor*
%ADD17C,0.254000*%
G04 #@! TD*
G04 APERTURE END LIST*
D10*
G04 #@! TO.P,U11,1*
G04 #@! TO.N,GND*
X137750000Y-103500000D03*
G04 #@! TO.P,U11,2*
G04 #@! TO.N,Net-(U1-Pad1)*
X137750000Y-100000000D03*
G04 #@! TO.P,U11,3*
G04 #@! TO.N,GND*
X138250000Y-103500000D03*
G04 #@! TO.P,U11,4*
G04 #@! TO.N,Net-(U11-Pad4)*
X138250000Y-100000000D03*
G04 #@! TO.P,U11,5*
G04 #@! TO.N,GND*
X138750000Y-103500000D03*
G04 #@! TO.P,U11,6*
G04 #@! TO.N,Net-(U11-Pad6)*
X138750000Y-100000000D03*
G04 #@! TO.P,U11,7*
G04 #@! TO.N,GND*
X139250000Y-103500000D03*
G04 #@! TO.P,U11,8*
G04 #@! TO.N,Net-(U11-Pad8)*
X139250000Y-100000000D03*
G04 #@! TO.P,U11,9*
G04 #@! TO.N,GND*
X139750000Y-103500000D03*
G04 #@! TO.P,U11,10*
G04 #@! TO.N,Net-(U11-Pad10)*
X139750000Y-100000000D03*
G04 #@! TO.P,U11,11*
G04 #@! TO.N,GND*
X140250000Y-103500000D03*
G04 #@! TO.P,U11,12*
G04 #@! TO.N,Net-(U11-Pad12)*
X140250000Y-100000000D03*
G04 #@! TO.P,U11,13*
G04 #@! TO.N,GND*
X140750000Y-103500000D03*
G04 #@! TO.P,U11,14*
G04 #@! TO.N,Net-(U11-Pad14)*
X140750000Y-100000000D03*
G04 #@! TO.P,U11,15*
G04 #@! TO.N,GND*
X141250000Y-103500000D03*
G04 #@! TO.P,U11,16*
G04 #@! TO.N,Net-(U11-Pad16)*
X141250000Y-100000000D03*
G04 #@! TO.P,U11,17*
G04 #@! TO.N,GND*
X141750000Y-103500000D03*
G04 #@! TO.P,U11,18*
G04 #@! TO.N,Net-(U11-Pad18)*
X141750000Y-100000000D03*
G04 #@! TO.P,U11,19*
G04 #@! TO.N,GND*
X142250000Y-103500000D03*
G04 #@! TO.P,U11,20*
G04 #@! TO.N,Net-(U10-Pad1)*
X142250000Y-100000000D03*
D11*
G04 #@! TO.P,U11,21*
G04 #@! TO.N,GND*
X144895000Y-100490000D03*
X135025000Y-100490000D03*
D12*
X143420000Y-102490000D03*
X136500000Y-102490000D03*
G04 #@! TD*
D13*
G04 #@! TO.N,GND*
X132371500Y-97873160D03*
X133591500Y-95383160D03*
X135261500Y-93293160D03*
X123571500Y-73253160D03*
X137441500Y-91763160D03*
X147301500Y-97873160D03*
X146461500Y-95363160D03*
X144191500Y-96613160D03*
X135431500Y-68763160D03*
X135844376Y-71023160D03*
X136260906Y-73303160D03*
X136666475Y-75523160D03*
X137061082Y-77683160D03*
X137457516Y-79853160D03*
X137852123Y-82013160D03*
X138257692Y-84233160D03*
X139991500Y-91223160D03*
X138672395Y-86503160D03*
X139098059Y-88833160D03*
X139987751Y-93703160D03*
X143776351Y-73303160D03*
X143365920Y-75513160D03*
X144191639Y-71023160D03*
X144619500Y-68763160D03*
X140892186Y-88833160D03*
X141324904Y-86503160D03*
X141746479Y-84233160D03*
X142158767Y-82013160D03*
X142559913Y-79853160D03*
X142962916Y-77683160D03*
X146291500Y-69053160D03*
X145874287Y-71323160D03*
X145449721Y-73633160D03*
X145045373Y-75833160D03*
X144653890Y-77963160D03*
X144251380Y-80153160D03*
X143859898Y-82283160D03*
X143440847Y-84563160D03*
X143032824Y-86783160D03*
X142595394Y-89163160D03*
X141761500Y-94033160D03*
X144339420Y-89883160D03*
X145606899Y-87783160D03*
X146795915Y-85813160D03*
X148045287Y-83743160D03*
X149155840Y-81903160D03*
X150296571Y-80013160D03*
X151437302Y-78123160D03*
X152632354Y-76143160D03*
X153700658Y-74373160D03*
X142611500Y-91783160D03*
X155171500Y-75223160D03*
X154097144Y-77013160D03*
X152908750Y-78993160D03*
X151750365Y-80923160D03*
X150627992Y-82793160D03*
X149505619Y-84663160D03*
X148281212Y-86703160D03*
X147062807Y-88733160D03*
X145772378Y-90883160D03*
X147041500Y-92048506D03*
X149021500Y-90410498D03*
X150841500Y-88904854D03*
X152651500Y-87407482D03*
X154411500Y-85951473D03*
X156121500Y-84536828D03*
X157871500Y-83033160D03*
X159681500Y-81513160D03*
X161491500Y-80053160D03*
X163201500Y-78643160D03*
X144711500Y-93413160D03*
X143161500Y-95163160D03*
X156281500Y-73433160D03*
D14*
X124375937Y-70991070D03*
X106091874Y-102660000D03*
X100771874Y-102660000D03*
X106091874Y-97340000D03*
X100771874Y-97340000D03*
X102977200Y-90152960D03*
X108297200Y-90152960D03*
X108297200Y-84832960D03*
X102977200Y-84832960D03*
X114647190Y-79154460D03*
X119055937Y-70991070D03*
X124375937Y-65671070D03*
X119055937Y-65671070D03*
X109327190Y-79154460D03*
X114647190Y-73834460D03*
X109327190Y-73834460D03*
X130990010Y-66647430D03*
X136310010Y-66647430D03*
X136310010Y-61327430D03*
X130990010Y-61327430D03*
X143689990Y-66647430D03*
X149009990Y-66647430D03*
X149009990Y-61327430D03*
X143689990Y-61327430D03*
X155624063Y-70991070D03*
X160944063Y-70991070D03*
X160944063Y-65671070D03*
X155624063Y-65671070D03*
X165352810Y-79154460D03*
X170672810Y-79154460D03*
X170672810Y-73834460D03*
X165352810Y-73834460D03*
X171702800Y-90152960D03*
X177022800Y-90152960D03*
X177022800Y-84832960D03*
X171702800Y-84832960D03*
X173908126Y-102660000D03*
X179228126Y-102660000D03*
X173908126Y-97340000D03*
X179228126Y-97340000D03*
D13*
X162551500Y-81293160D03*
X160771500Y-82766914D03*
X158961500Y-84265505D03*
X157191500Y-85730978D03*
X155481500Y-87146774D03*
X153721500Y-88603969D03*
X151941500Y-90077722D03*
X150111500Y-91592874D03*
X148081500Y-93273616D03*
X149111500Y-95104947D03*
X151781500Y-94209291D03*
X154041500Y-93451170D03*
X156381500Y-92666213D03*
X158641500Y-91908091D03*
X160851500Y-91166742D03*
X162971500Y-90455583D03*
X165181500Y-89714234D03*
X167341500Y-88989657D03*
X169411500Y-88295271D03*
X171481500Y-87600885D03*
X167831500Y-90483160D03*
X165651500Y-91206511D03*
X163421500Y-91946452D03*
X161321500Y-92643259D03*
X159111500Y-93393160D03*
X156881500Y-94163160D03*
X154531500Y-94943160D03*
X152261500Y-95683160D03*
X149591500Y-96603160D03*
X144691500Y-98273160D03*
X149691500Y-98442859D03*
X152621500Y-98526724D03*
X155041500Y-98595992D03*
X157391500Y-98663256D03*
X159751500Y-98730807D03*
X162131500Y-98798930D03*
X164461500Y-98865622D03*
X166901500Y-98935463D03*
X169291500Y-99003873D03*
X171681500Y-99072283D03*
X171641500Y-100683160D03*
X169221500Y-100608813D03*
X166861500Y-100536309D03*
X164431500Y-100461654D03*
X162111500Y-100390380D03*
X159711500Y-100316648D03*
X157371500Y-100244759D03*
X155001500Y-100171947D03*
X152561500Y-100096985D03*
X149661500Y-100027277D03*
X147481500Y-99960303D03*
X133681500Y-69103160D03*
X134519466Y-73643160D03*
X134931066Y-75873160D03*
X134096792Y-71353160D03*
X135326055Y-78013160D03*
X135726580Y-80183160D03*
X136128951Y-82363160D03*
X136538706Y-84583160D03*
X136955843Y-86843160D03*
X137384056Y-89163160D03*
X138221500Y-94003160D03*
X135726467Y-89793160D03*
X134506542Y-87793160D03*
X133311015Y-85833160D03*
X132109389Y-83863160D03*
X130968759Y-81993160D03*
X129809829Y-80093160D03*
X128650899Y-78193160D03*
X127485871Y-76283160D03*
X126290345Y-74323160D03*
X124761500Y-75263160D03*
X125959150Y-77233160D03*
X127102084Y-79113160D03*
X128251098Y-81003160D03*
X129418350Y-82923160D03*
X130555205Y-84793160D03*
X131758934Y-86773160D03*
X132950505Y-88733160D03*
X134166392Y-90733160D03*
X136811500Y-95123160D03*
X132861500Y-91852187D03*
X131021500Y-90328493D03*
X129221500Y-88837923D03*
X127421500Y-87347353D03*
X125691500Y-85914750D03*
X123921500Y-84449023D03*
X122201500Y-83024701D03*
X120471500Y-81592098D03*
X118701500Y-80126372D03*
X116861500Y-78602679D03*
X117611500Y-81463160D03*
X119361500Y-82916350D03*
X121081500Y-84344627D03*
X122821500Y-85789512D03*
X124571500Y-87242703D03*
X126281500Y-88662677D03*
X128091500Y-90165691D03*
X129871500Y-91643792D03*
X131751500Y-93204934D03*
X135791500Y-96559727D03*
X130741500Y-94886066D03*
X128381500Y-94103920D03*
X126101500Y-93348286D03*
X123911500Y-92622480D03*
X121771500Y-91913244D03*
X119591500Y-91190752D03*
X115141500Y-89715941D03*
X112831500Y-88950366D03*
X110581500Y-88204675D03*
X108341500Y-87462298D03*
X117381500Y-90458318D03*
X112271500Y-90643160D03*
X114571500Y-91411417D03*
X116781500Y-92149612D03*
X118991500Y-92887807D03*
X121231500Y-93636022D03*
X123401500Y-94360856D03*
X125531500Y-95072330D03*
X127851500Y-95847267D03*
X130191500Y-96628885D03*
X108711500Y-99008860D03*
X135011500Y-98238885D03*
X117971500Y-98737759D03*
X113281500Y-98875066D03*
X115611500Y-98806852D03*
X110951500Y-98943280D03*
X120321500Y-98668960D03*
X122681500Y-98599867D03*
X124991500Y-98532238D03*
X127411500Y-98461389D03*
X129931500Y-98387611D03*
X108771500Y-100693160D03*
X111001500Y-100626891D03*
X113311500Y-100558245D03*
X115661500Y-100488410D03*
X118021500Y-100418278D03*
X120391500Y-100347849D03*
X125021500Y-100210258D03*
X127441500Y-100138343D03*
X129941500Y-100064050D03*
X132391500Y-99991243D03*
X122731500Y-100278310D03*
D15*
G04 #@! TO.N,Net-(U1-Pad1)*
X137000000Y-99000000D03*
X105081500Y-99950857D03*
G04 #@! TO.N,Net-(U11-Pad4)*
X137642600Y-98216720D03*
X107201500Y-88017095D03*
G04 #@! TO.N,Net-(U11-Pad6)*
X138100000Y-97300000D03*
X113421500Y-77327554D03*
G04 #@! TO.N,Net-(U11-Pad8)*
X138700000Y-96500000D03*
X122529321Y-69753160D03*
G04 #@! TO.N,Net-(U11-Pad10)*
X139500000Y-95864680D03*
X133944687Y-65593160D03*
G04 #@! TO.N,Net-(U11-Pad12)*
X140500000Y-95851980D03*
X146053360Y-65603160D03*
G04 #@! TO.N,Net-(U11-Pad14)*
X141300000Y-96500000D03*
X157458830Y-69753160D03*
G04 #@! TO.N,Net-(U11-Pad16)*
X141900000Y-97300000D03*
X166591500Y-77317344D03*
G04 #@! TO.N,Net-(U11-Pad18)*
X142346680Y-98183700D03*
X172801500Y-88014305D03*
G04 #@! TO.N,Net-(U10-Pad1)*
X143000000Y-99000000D03*
X174941500Y-99954737D03*
G04 #@! TD*
D16*
G04 #@! TO.N,GND*
X146291500Y-69053160D02*
X146291500Y-69053160D01*
X155171500Y-75223160D02*
X155171500Y-75223160D01*
X163221500Y-78663160D02*
X163221500Y-78663160D01*
X162551500Y-81293160D02*
X162551500Y-81293160D01*
G04 #@! TO.N,Net-(U1-Pad1)*
X137750000Y-100000000D02*
X137750000Y-99131840D01*
X137618160Y-99000000D02*
X137000000Y-99000000D01*
X137750000Y-99131840D02*
X137618160Y-99000000D01*
G04 #@! TO.N,Net-(U11-Pad4)*
X138250000Y-98824120D02*
X137642600Y-98216720D01*
X138250000Y-100000000D02*
X138250000Y-98824120D01*
G04 #@! TO.N,Net-(U11-Pad6)*
X138750000Y-100000000D02*
X138751500Y-98833160D01*
X138751500Y-98833160D02*
X138100000Y-97300000D01*
G04 #@! TO.N,Net-(U11-Pad8)*
X139250000Y-100000000D02*
X139251500Y-98733160D01*
X139251500Y-98733160D02*
X138700000Y-96500000D01*
G04 #@! TO.N,Net-(U11-Pad10)*
X139750000Y-100000000D02*
X139751500Y-98883160D01*
X139751500Y-98883160D02*
X139500000Y-95864680D01*
G04 #@! TO.N,Net-(U11-Pad12)*
X140250000Y-100000000D02*
X140251500Y-98883160D01*
X140251500Y-98883160D02*
X140500000Y-95851980D01*
G04 #@! TO.N,Net-(U11-Pad14)*
X140750000Y-100000000D02*
X140751500Y-98603160D01*
X140751500Y-98603160D02*
X141300000Y-96500000D01*
G04 #@! TO.N,Net-(U11-Pad16)*
X141250000Y-100000000D02*
X141251500Y-98813160D01*
X141251500Y-98813160D02*
X141251500Y-98663160D01*
X141251500Y-98663160D02*
X141900000Y-97300000D01*
G04 #@! TO.N,Net-(U11-Pad18)*
X141750000Y-98780380D02*
X142346680Y-98183700D01*
X141750000Y-100000000D02*
X141750000Y-98780380D01*
G04 #@! TO.N,Net-(U10-Pad1)*
X142250000Y-100000000D02*
X142250000Y-99113500D01*
X142363500Y-99000000D02*
X143000000Y-99000000D01*
X142250000Y-99113500D02*
X142363500Y-99000000D01*
G04 #@! TD*
D17*
G04 #@! TO.N,GND*
G36*
X183340000Y-105343160D02*
X96660000Y-105343160D01*
X96660000Y-103429133D01*
X135740472Y-103429133D01*
X135802965Y-103665450D01*
X136045678Y-103778850D01*
X136305849Y-103842719D01*
X136573482Y-103854604D01*
X136838291Y-103814048D01*
X137090100Y-103722609D01*
X137197035Y-103665450D01*
X137259528Y-103429133D01*
X142660472Y-103429133D01*
X142722965Y-103665450D01*
X142965678Y-103778850D01*
X143225849Y-103842719D01*
X143493482Y-103854604D01*
X143758291Y-103814048D01*
X144010100Y-103722609D01*
X144117035Y-103665450D01*
X144179528Y-103429133D01*
X143420000Y-102669605D01*
X142660472Y-103429133D01*
X137259528Y-103429133D01*
X136500000Y-102669605D01*
X135740472Y-103429133D01*
X96660000Y-103429133D01*
X96660000Y-102563482D01*
X135135396Y-102563482D01*
X135175952Y-102828291D01*
X135267391Y-103080100D01*
X135324550Y-103187035D01*
X135560867Y-103249528D01*
X136320395Y-102490000D01*
X136679605Y-102490000D01*
X137439133Y-103249528D01*
X137675450Y-103187035D01*
X137788850Y-102944322D01*
X137852719Y-102684151D01*
X137858077Y-102563482D01*
X142055396Y-102563482D01*
X142095952Y-102828291D01*
X142187391Y-103080100D01*
X142244550Y-103187035D01*
X142480867Y-103249528D01*
X143240395Y-102490000D01*
X143599605Y-102490000D01*
X144359133Y-103249528D01*
X144595450Y-103187035D01*
X144708850Y-102944322D01*
X144772719Y-102684151D01*
X144784604Y-102416518D01*
X144744048Y-102151709D01*
X144652609Y-101899900D01*
X144595450Y-101792965D01*
X144359133Y-101730472D01*
X143599605Y-102490000D01*
X143240395Y-102490000D01*
X142480867Y-101730472D01*
X142244550Y-101792965D01*
X142131150Y-102035678D01*
X142067281Y-102295849D01*
X142055396Y-102563482D01*
X137858077Y-102563482D01*
X137864604Y-102416518D01*
X137824048Y-102151709D01*
X137732609Y-101899900D01*
X137675450Y-101792965D01*
X137439133Y-101730472D01*
X136679605Y-102490000D01*
X136320395Y-102490000D01*
X135560867Y-101730472D01*
X135324550Y-101792965D01*
X135211150Y-102035678D01*
X135147281Y-102295849D01*
X135135396Y-102563482D01*
X96660000Y-102563482D01*
X96660000Y-101268166D01*
X134426439Y-101268166D01*
X134461550Y-101481588D01*
X134665826Y-101572458D01*
X134883905Y-101621731D01*
X135107406Y-101627511D01*
X135327740Y-101589577D01*
X135428485Y-101550867D01*
X135740472Y-101550867D01*
X136500000Y-102310395D01*
X137259528Y-101550867D01*
X142660472Y-101550867D01*
X143420000Y-102310395D01*
X144179528Y-101550867D01*
X144117035Y-101314550D01*
X144017759Y-101268166D01*
X144296439Y-101268166D01*
X144331550Y-101481588D01*
X144535826Y-101572458D01*
X144753905Y-101621731D01*
X144977406Y-101627511D01*
X145197740Y-101589577D01*
X145406440Y-101509387D01*
X145458450Y-101481588D01*
X145493561Y-101268166D01*
X144895000Y-100669605D01*
X144296439Y-101268166D01*
X144017759Y-101268166D01*
X143874322Y-101201150D01*
X143614151Y-101137281D01*
X143346518Y-101125396D01*
X143081709Y-101165952D01*
X142829900Y-101257391D01*
X142722965Y-101314550D01*
X142660472Y-101550867D01*
X137259528Y-101550867D01*
X137197035Y-101314550D01*
X136954322Y-101201150D01*
X136694151Y-101137281D01*
X136426518Y-101125396D01*
X136161709Y-101165952D01*
X135909900Y-101257391D01*
X135802965Y-101314550D01*
X135740472Y-101550867D01*
X135428485Y-101550867D01*
X135536440Y-101509387D01*
X135588450Y-101481588D01*
X135623561Y-101268166D01*
X135025000Y-100669605D01*
X134426439Y-101268166D01*
X96660000Y-101268166D01*
X96660000Y-99853291D01*
X104090900Y-99853291D01*
X104090900Y-100048423D01*
X104128968Y-100239804D01*
X104203642Y-100420082D01*
X104312051Y-100582328D01*
X104450029Y-100720306D01*
X104612275Y-100828715D01*
X104792553Y-100903389D01*
X104983934Y-100941457D01*
X105179066Y-100941457D01*
X105370447Y-100903389D01*
X105550725Y-100828715D01*
X105712971Y-100720306D01*
X105850949Y-100582328D01*
X105857578Y-100572406D01*
X133887489Y-100572406D01*
X133925423Y-100792740D01*
X134005613Y-101001440D01*
X134033412Y-101053450D01*
X134246834Y-101088561D01*
X134845395Y-100490000D01*
X135204605Y-100490000D01*
X135803166Y-101088561D01*
X136016588Y-101053450D01*
X136107458Y-100849174D01*
X136156731Y-100631095D01*
X136162511Y-100407594D01*
X136124577Y-100187260D01*
X136044387Y-99978560D01*
X136016588Y-99926550D01*
X135803166Y-99891439D01*
X135204605Y-100490000D01*
X134845395Y-100490000D01*
X134246834Y-99891439D01*
X134033412Y-99926550D01*
X133942542Y-100130826D01*
X133893269Y-100348905D01*
X133887489Y-100572406D01*
X105857578Y-100572406D01*
X105959358Y-100420082D01*
X106034032Y-100239804D01*
X106072100Y-100048423D01*
X106072100Y-99853291D01*
X106043963Y-99711834D01*
X134426439Y-99711834D01*
X135025000Y-100310395D01*
X135623561Y-99711834D01*
X135588450Y-99498412D01*
X135384174Y-99407542D01*
X135166095Y-99358269D01*
X134942594Y-99352489D01*
X134722260Y-99390423D01*
X134513560Y-99470613D01*
X134461550Y-99498412D01*
X134426439Y-99711834D01*
X106043963Y-99711834D01*
X106034032Y-99661910D01*
X105959358Y-99481632D01*
X105850949Y-99319386D01*
X105712971Y-99181408D01*
X105550725Y-99072999D01*
X105370447Y-98998325D01*
X105179066Y-98960257D01*
X104983934Y-98960257D01*
X104792553Y-98998325D01*
X104612275Y-99072999D01*
X104450029Y-99181408D01*
X104312051Y-99319386D01*
X104203642Y-99481632D01*
X104128968Y-99661910D01*
X104090900Y-99853291D01*
X96660000Y-99853291D01*
X96660000Y-98902434D01*
X136009400Y-98902434D01*
X136009400Y-99097566D01*
X136047468Y-99288947D01*
X136122142Y-99469225D01*
X136230551Y-99631471D01*
X136368529Y-99769449D01*
X136530775Y-99877858D01*
X136711053Y-99952532D01*
X136902434Y-99990600D01*
X136961928Y-99990600D01*
X136961928Y-100750000D01*
X136974188Y-100874482D01*
X137010498Y-100994180D01*
X137069463Y-101104494D01*
X137148815Y-101201185D01*
X137245506Y-101280537D01*
X137355820Y-101339502D01*
X137475518Y-101375812D01*
X137600000Y-101388072D01*
X137900000Y-101388072D01*
X138000000Y-101378223D01*
X138100000Y-101388072D01*
X138400000Y-101388072D01*
X138500000Y-101378223D01*
X138600000Y-101388072D01*
X138900000Y-101388072D01*
X139000000Y-101378223D01*
X139100000Y-101388072D01*
X139400000Y-101388072D01*
X139500000Y-101378223D01*
X139600000Y-101388072D01*
X139900000Y-101388072D01*
X140000000Y-101378223D01*
X140100000Y-101388072D01*
X140400000Y-101388072D01*
X140500000Y-101378223D01*
X140600000Y-101388072D01*
X140900000Y-101388072D01*
X141000000Y-101378223D01*
X141100000Y-101388072D01*
X141400000Y-101388072D01*
X141500000Y-101378223D01*
X141600000Y-101388072D01*
X141900000Y-101388072D01*
X142000000Y-101378223D01*
X142100000Y-101388072D01*
X142400000Y-101388072D01*
X142524482Y-101375812D01*
X142644180Y-101339502D01*
X142754494Y-101280537D01*
X142851185Y-101201185D01*
X142930537Y-101104494D01*
X142989502Y-100994180D01*
X143025812Y-100874482D01*
X143038072Y-100750000D01*
X143038072Y-100572406D01*
X143757489Y-100572406D01*
X143795423Y-100792740D01*
X143875613Y-101001440D01*
X143903412Y-101053450D01*
X144116834Y-101088561D01*
X144715395Y-100490000D01*
X145074605Y-100490000D01*
X145673166Y-101088561D01*
X145886588Y-101053450D01*
X145977458Y-100849174D01*
X146026731Y-100631095D01*
X146032511Y-100407594D01*
X145994577Y-100187260D01*
X145914387Y-99978560D01*
X145886588Y-99926550D01*
X145673166Y-99891439D01*
X145074605Y-100490000D01*
X144715395Y-100490000D01*
X144116834Y-99891439D01*
X143903412Y-99926550D01*
X143812542Y-100130826D01*
X143763269Y-100348905D01*
X143757489Y-100572406D01*
X143038072Y-100572406D01*
X143038072Y-99990600D01*
X143097566Y-99990600D01*
X143288947Y-99952532D01*
X143469225Y-99877858D01*
X143631471Y-99769449D01*
X143689086Y-99711834D01*
X144296439Y-99711834D01*
X144895000Y-100310395D01*
X145348224Y-99857171D01*
X173950900Y-99857171D01*
X173950900Y-100052303D01*
X173988968Y-100243684D01*
X174063642Y-100423962D01*
X174172051Y-100586208D01*
X174310029Y-100724186D01*
X174472275Y-100832595D01*
X174652553Y-100907269D01*
X174843934Y-100945337D01*
X175039066Y-100945337D01*
X175230447Y-100907269D01*
X175410725Y-100832595D01*
X175572971Y-100724186D01*
X175710949Y-100586208D01*
X175819358Y-100423962D01*
X175894032Y-100243684D01*
X175932100Y-100052303D01*
X175932100Y-99857171D01*
X175894032Y-99665790D01*
X175819358Y-99485512D01*
X175710949Y-99323266D01*
X175572971Y-99185288D01*
X175410725Y-99076879D01*
X175230447Y-99002205D01*
X175039066Y-98964137D01*
X174843934Y-98964137D01*
X174652553Y-99002205D01*
X174472275Y-99076879D01*
X174310029Y-99185288D01*
X174172051Y-99323266D01*
X174063642Y-99485512D01*
X173988968Y-99665790D01*
X173950900Y-99857171D01*
X145348224Y-99857171D01*
X145493561Y-99711834D01*
X145458450Y-99498412D01*
X145254174Y-99407542D01*
X145036095Y-99358269D01*
X144812594Y-99352489D01*
X144592260Y-99390423D01*
X144383560Y-99470613D01*
X144331550Y-99498412D01*
X144296439Y-99711834D01*
X143689086Y-99711834D01*
X143769449Y-99631471D01*
X143877858Y-99469225D01*
X143952532Y-99288947D01*
X143990600Y-99097566D01*
X143990600Y-98902434D01*
X143952532Y-98711053D01*
X143877858Y-98530775D01*
X143769449Y-98368529D01*
X143631471Y-98230551D01*
X143469225Y-98122142D01*
X143333238Y-98065814D01*
X143299212Y-97894753D01*
X143224538Y-97714475D01*
X143116129Y-97552229D01*
X142978151Y-97414251D01*
X142890600Y-97355751D01*
X142890600Y-97202434D01*
X142852532Y-97011053D01*
X142777858Y-96830775D01*
X142669449Y-96668529D01*
X142531471Y-96530551D01*
X142369225Y-96422142D01*
X142287812Y-96388420D01*
X142252532Y-96211053D01*
X142177858Y-96030775D01*
X142069449Y-95868529D01*
X141931471Y-95730551D01*
X141769225Y-95622142D01*
X141588947Y-95547468D01*
X141433257Y-95516499D01*
X141377858Y-95382755D01*
X141269449Y-95220509D01*
X141131471Y-95082531D01*
X140969225Y-94974122D01*
X140788947Y-94899448D01*
X140597566Y-94861380D01*
X140402434Y-94861380D01*
X140211053Y-94899448D01*
X140030775Y-94974122D01*
X139990497Y-95001035D01*
X139969225Y-94986822D01*
X139788947Y-94912148D01*
X139597566Y-94874080D01*
X139402434Y-94874080D01*
X139211053Y-94912148D01*
X139030775Y-94986822D01*
X138868529Y-95095231D01*
X138730551Y-95233209D01*
X138622142Y-95395455D01*
X138572476Y-95515359D01*
X138411053Y-95547468D01*
X138230775Y-95622142D01*
X138068529Y-95730551D01*
X137930551Y-95868529D01*
X137822142Y-96030775D01*
X137747468Y-96211053D01*
X137712188Y-96388420D01*
X137630775Y-96422142D01*
X137468529Y-96530551D01*
X137330551Y-96668529D01*
X137222142Y-96830775D01*
X137147468Y-97011053D01*
X137109400Y-97202434D01*
X137109400Y-97381609D01*
X137011129Y-97447271D01*
X136873151Y-97585249D01*
X136764742Y-97747495D01*
X136690068Y-97927773D01*
X136662237Y-98067688D01*
X136530775Y-98122142D01*
X136368529Y-98230551D01*
X136230551Y-98368529D01*
X136122142Y-98530775D01*
X136047468Y-98711053D01*
X136009400Y-98902434D01*
X96660000Y-98902434D01*
X96660000Y-87919529D01*
X106210900Y-87919529D01*
X106210900Y-88114661D01*
X106248968Y-88306042D01*
X106323642Y-88486320D01*
X106432051Y-88648566D01*
X106570029Y-88786544D01*
X106732275Y-88894953D01*
X106912553Y-88969627D01*
X107103934Y-89007695D01*
X107299066Y-89007695D01*
X107490447Y-88969627D01*
X107670725Y-88894953D01*
X107832971Y-88786544D01*
X107970949Y-88648566D01*
X108079358Y-88486320D01*
X108154032Y-88306042D01*
X108192100Y-88114661D01*
X108192100Y-87919529D01*
X108191546Y-87916739D01*
X171810900Y-87916739D01*
X171810900Y-88111871D01*
X171848968Y-88303252D01*
X171923642Y-88483530D01*
X172032051Y-88645776D01*
X172170029Y-88783754D01*
X172332275Y-88892163D01*
X172512553Y-88966837D01*
X172703934Y-89004905D01*
X172899066Y-89004905D01*
X173090447Y-88966837D01*
X173270725Y-88892163D01*
X173432971Y-88783754D01*
X173570949Y-88645776D01*
X173679358Y-88483530D01*
X173754032Y-88303252D01*
X173792100Y-88111871D01*
X173792100Y-87916739D01*
X173754032Y-87725358D01*
X173679358Y-87545080D01*
X173570949Y-87382834D01*
X173432971Y-87244856D01*
X173270725Y-87136447D01*
X173090447Y-87061773D01*
X172899066Y-87023705D01*
X172703934Y-87023705D01*
X172512553Y-87061773D01*
X172332275Y-87136447D01*
X172170029Y-87244856D01*
X172032051Y-87382834D01*
X171923642Y-87545080D01*
X171848968Y-87725358D01*
X171810900Y-87916739D01*
X108191546Y-87916739D01*
X108154032Y-87728148D01*
X108079358Y-87547870D01*
X107970949Y-87385624D01*
X107832971Y-87247646D01*
X107670725Y-87139237D01*
X107490447Y-87064563D01*
X107299066Y-87026495D01*
X107103934Y-87026495D01*
X106912553Y-87064563D01*
X106732275Y-87139237D01*
X106570029Y-87247646D01*
X106432051Y-87385624D01*
X106323642Y-87547870D01*
X106248968Y-87728148D01*
X106210900Y-87919529D01*
X96660000Y-87919529D01*
X96660000Y-77229988D01*
X112430900Y-77229988D01*
X112430900Y-77425120D01*
X112468968Y-77616501D01*
X112543642Y-77796779D01*
X112652051Y-77959025D01*
X112790029Y-78097003D01*
X112952275Y-78205412D01*
X113132553Y-78280086D01*
X113323934Y-78318154D01*
X113519066Y-78318154D01*
X113710447Y-78280086D01*
X113890725Y-78205412D01*
X114052971Y-78097003D01*
X114190949Y-77959025D01*
X114299358Y-77796779D01*
X114374032Y-77616501D01*
X114412100Y-77425120D01*
X114412100Y-77229988D01*
X114410070Y-77219778D01*
X165600900Y-77219778D01*
X165600900Y-77414910D01*
X165638968Y-77606291D01*
X165713642Y-77786569D01*
X165822051Y-77948815D01*
X165960029Y-78086793D01*
X166122275Y-78195202D01*
X166302553Y-78269876D01*
X166493934Y-78307944D01*
X166689066Y-78307944D01*
X166880447Y-78269876D01*
X167060725Y-78195202D01*
X167222971Y-78086793D01*
X167360949Y-77948815D01*
X167469358Y-77786569D01*
X167544032Y-77606291D01*
X167582100Y-77414910D01*
X167582100Y-77219778D01*
X167544032Y-77028397D01*
X167469358Y-76848119D01*
X167360949Y-76685873D01*
X167222971Y-76547895D01*
X167060725Y-76439486D01*
X166880447Y-76364812D01*
X166689066Y-76326744D01*
X166493934Y-76326744D01*
X166302553Y-76364812D01*
X166122275Y-76439486D01*
X165960029Y-76547895D01*
X165822051Y-76685873D01*
X165713642Y-76848119D01*
X165638968Y-77028397D01*
X165600900Y-77219778D01*
X114410070Y-77219778D01*
X114374032Y-77038607D01*
X114299358Y-76858329D01*
X114190949Y-76696083D01*
X114052971Y-76558105D01*
X113890725Y-76449696D01*
X113710447Y-76375022D01*
X113519066Y-76336954D01*
X113323934Y-76336954D01*
X113132553Y-76375022D01*
X112952275Y-76449696D01*
X112790029Y-76558105D01*
X112652051Y-76696083D01*
X112543642Y-76858329D01*
X112468968Y-77038607D01*
X112430900Y-77229988D01*
X96660000Y-77229988D01*
X96660000Y-69655594D01*
X121538721Y-69655594D01*
X121538721Y-69850726D01*
X121576789Y-70042107D01*
X121651463Y-70222385D01*
X121759872Y-70384631D01*
X121897850Y-70522609D01*
X122060096Y-70631018D01*
X122240374Y-70705692D01*
X122431755Y-70743760D01*
X122626887Y-70743760D01*
X122818268Y-70705692D01*
X122998546Y-70631018D01*
X123160792Y-70522609D01*
X123298770Y-70384631D01*
X123407179Y-70222385D01*
X123481853Y-70042107D01*
X123519921Y-69850726D01*
X123519921Y-69655594D01*
X156468230Y-69655594D01*
X156468230Y-69850726D01*
X156506298Y-70042107D01*
X156580972Y-70222385D01*
X156689381Y-70384631D01*
X156827359Y-70522609D01*
X156989605Y-70631018D01*
X157169883Y-70705692D01*
X157361264Y-70743760D01*
X157556396Y-70743760D01*
X157747777Y-70705692D01*
X157928055Y-70631018D01*
X158090301Y-70522609D01*
X158228279Y-70384631D01*
X158336688Y-70222385D01*
X158411362Y-70042107D01*
X158449430Y-69850726D01*
X158449430Y-69655594D01*
X158411362Y-69464213D01*
X158336688Y-69283935D01*
X158228279Y-69121689D01*
X158090301Y-68983711D01*
X157928055Y-68875302D01*
X157747777Y-68800628D01*
X157556396Y-68762560D01*
X157361264Y-68762560D01*
X157169883Y-68800628D01*
X156989605Y-68875302D01*
X156827359Y-68983711D01*
X156689381Y-69121689D01*
X156580972Y-69283935D01*
X156506298Y-69464213D01*
X156468230Y-69655594D01*
X123519921Y-69655594D01*
X123481853Y-69464213D01*
X123407179Y-69283935D01*
X123298770Y-69121689D01*
X123160792Y-68983711D01*
X122998546Y-68875302D01*
X122818268Y-68800628D01*
X122626887Y-68762560D01*
X122431755Y-68762560D01*
X122240374Y-68800628D01*
X122060096Y-68875302D01*
X121897850Y-68983711D01*
X121759872Y-69121689D01*
X121651463Y-69283935D01*
X121576789Y-69464213D01*
X121538721Y-69655594D01*
X96660000Y-69655594D01*
X96660000Y-65495594D01*
X132954087Y-65495594D01*
X132954087Y-65690726D01*
X132992155Y-65882107D01*
X133066829Y-66062385D01*
X133175238Y-66224631D01*
X133313216Y-66362609D01*
X133475462Y-66471018D01*
X133655740Y-66545692D01*
X133847121Y-66583760D01*
X134042253Y-66583760D01*
X134233634Y-66545692D01*
X134413912Y-66471018D01*
X134576158Y-66362609D01*
X134714136Y-66224631D01*
X134822545Y-66062385D01*
X134897219Y-65882107D01*
X134935287Y-65690726D01*
X134935287Y-65505594D01*
X145062760Y-65505594D01*
X145062760Y-65700726D01*
X145100828Y-65892107D01*
X145175502Y-66072385D01*
X145283911Y-66234631D01*
X145421889Y-66372609D01*
X145584135Y-66481018D01*
X145764413Y-66555692D01*
X145955794Y-66593760D01*
X146150926Y-66593760D01*
X146342307Y-66555692D01*
X146522585Y-66481018D01*
X146684831Y-66372609D01*
X146822809Y-66234631D01*
X146931218Y-66072385D01*
X147005892Y-65892107D01*
X147043960Y-65700726D01*
X147043960Y-65505594D01*
X147005892Y-65314213D01*
X146931218Y-65133935D01*
X146822809Y-64971689D01*
X146684831Y-64833711D01*
X146522585Y-64725302D01*
X146342307Y-64650628D01*
X146150926Y-64612560D01*
X145955794Y-64612560D01*
X145764413Y-64650628D01*
X145584135Y-64725302D01*
X145421889Y-64833711D01*
X145283911Y-64971689D01*
X145175502Y-65133935D01*
X145100828Y-65314213D01*
X145062760Y-65505594D01*
X134935287Y-65505594D01*
X134935287Y-65495594D01*
X134897219Y-65304213D01*
X134822545Y-65123935D01*
X134714136Y-64961689D01*
X134576158Y-64823711D01*
X134413912Y-64715302D01*
X134233634Y-64640628D01*
X134042253Y-64602560D01*
X133847121Y-64602560D01*
X133655740Y-64640628D01*
X133475462Y-64715302D01*
X133313216Y-64823711D01*
X133175238Y-64961689D01*
X133066829Y-65123935D01*
X132992155Y-65304213D01*
X132954087Y-65495594D01*
X96660000Y-65495594D01*
X96660000Y-57663160D01*
X183340001Y-57663160D01*
X183340000Y-105343160D01*
X183340000Y-105343160D01*
G37*
X183340000Y-105343160D02*
X96660000Y-105343160D01*
X96660000Y-103429133D01*
X135740472Y-103429133D01*
X135802965Y-103665450D01*
X136045678Y-103778850D01*
X136305849Y-103842719D01*
X136573482Y-103854604D01*
X136838291Y-103814048D01*
X137090100Y-103722609D01*
X137197035Y-103665450D01*
X137259528Y-103429133D01*
X142660472Y-103429133D01*
X142722965Y-103665450D01*
X142965678Y-103778850D01*
X143225849Y-103842719D01*
X143493482Y-103854604D01*
X143758291Y-103814048D01*
X144010100Y-103722609D01*
X144117035Y-103665450D01*
X144179528Y-103429133D01*
X143420000Y-102669605D01*
X142660472Y-103429133D01*
X137259528Y-103429133D01*
X136500000Y-102669605D01*
X135740472Y-103429133D01*
X96660000Y-103429133D01*
X96660000Y-102563482D01*
X135135396Y-102563482D01*
X135175952Y-102828291D01*
X135267391Y-103080100D01*
X135324550Y-103187035D01*
X135560867Y-103249528D01*
X136320395Y-102490000D01*
X136679605Y-102490000D01*
X137439133Y-103249528D01*
X137675450Y-103187035D01*
X137788850Y-102944322D01*
X137852719Y-102684151D01*
X137858077Y-102563482D01*
X142055396Y-102563482D01*
X142095952Y-102828291D01*
X142187391Y-103080100D01*
X142244550Y-103187035D01*
X142480867Y-103249528D01*
X143240395Y-102490000D01*
X143599605Y-102490000D01*
X144359133Y-103249528D01*
X144595450Y-103187035D01*
X144708850Y-102944322D01*
X144772719Y-102684151D01*
X144784604Y-102416518D01*
X144744048Y-102151709D01*
X144652609Y-101899900D01*
X144595450Y-101792965D01*
X144359133Y-101730472D01*
X143599605Y-102490000D01*
X143240395Y-102490000D01*
X142480867Y-101730472D01*
X142244550Y-101792965D01*
X142131150Y-102035678D01*
X142067281Y-102295849D01*
X142055396Y-102563482D01*
X137858077Y-102563482D01*
X137864604Y-102416518D01*
X137824048Y-102151709D01*
X137732609Y-101899900D01*
X137675450Y-101792965D01*
X137439133Y-101730472D01*
X136679605Y-102490000D01*
X136320395Y-102490000D01*
X135560867Y-101730472D01*
X135324550Y-101792965D01*
X135211150Y-102035678D01*
X135147281Y-102295849D01*
X135135396Y-102563482D01*
X96660000Y-102563482D01*
X96660000Y-101268166D01*
X134426439Y-101268166D01*
X134461550Y-101481588D01*
X134665826Y-101572458D01*
X134883905Y-101621731D01*
X135107406Y-101627511D01*
X135327740Y-101589577D01*
X135428485Y-101550867D01*
X135740472Y-101550867D01*
X136500000Y-102310395D01*
X137259528Y-101550867D01*
X142660472Y-101550867D01*
X143420000Y-102310395D01*
X144179528Y-101550867D01*
X144117035Y-101314550D01*
X144017759Y-101268166D01*
X144296439Y-101268166D01*
X144331550Y-101481588D01*
X144535826Y-101572458D01*
X144753905Y-101621731D01*
X144977406Y-101627511D01*
X145197740Y-101589577D01*
X145406440Y-101509387D01*
X145458450Y-101481588D01*
X145493561Y-101268166D01*
X144895000Y-100669605D01*
X144296439Y-101268166D01*
X144017759Y-101268166D01*
X143874322Y-101201150D01*
X143614151Y-101137281D01*
X143346518Y-101125396D01*
X143081709Y-101165952D01*
X142829900Y-101257391D01*
X142722965Y-101314550D01*
X142660472Y-101550867D01*
X137259528Y-101550867D01*
X137197035Y-101314550D01*
X136954322Y-101201150D01*
X136694151Y-101137281D01*
X136426518Y-101125396D01*
X136161709Y-101165952D01*
X135909900Y-101257391D01*
X135802965Y-101314550D01*
X135740472Y-101550867D01*
X135428485Y-101550867D01*
X135536440Y-101509387D01*
X135588450Y-101481588D01*
X135623561Y-101268166D01*
X135025000Y-100669605D01*
X134426439Y-101268166D01*
X96660000Y-101268166D01*
X96660000Y-99853291D01*
X104090900Y-99853291D01*
X104090900Y-100048423D01*
X104128968Y-100239804D01*
X104203642Y-100420082D01*
X104312051Y-100582328D01*
X104450029Y-100720306D01*
X104612275Y-100828715D01*
X104792553Y-100903389D01*
X104983934Y-100941457D01*
X105179066Y-100941457D01*
X105370447Y-100903389D01*
X105550725Y-100828715D01*
X105712971Y-100720306D01*
X105850949Y-100582328D01*
X105857578Y-100572406D01*
X133887489Y-100572406D01*
X133925423Y-100792740D01*
X134005613Y-101001440D01*
X134033412Y-101053450D01*
X134246834Y-101088561D01*
X134845395Y-100490000D01*
X135204605Y-100490000D01*
X135803166Y-101088561D01*
X136016588Y-101053450D01*
X136107458Y-100849174D01*
X136156731Y-100631095D01*
X136162511Y-100407594D01*
X136124577Y-100187260D01*
X136044387Y-99978560D01*
X136016588Y-99926550D01*
X135803166Y-99891439D01*
X135204605Y-100490000D01*
X134845395Y-100490000D01*
X134246834Y-99891439D01*
X134033412Y-99926550D01*
X133942542Y-100130826D01*
X133893269Y-100348905D01*
X133887489Y-100572406D01*
X105857578Y-100572406D01*
X105959358Y-100420082D01*
X106034032Y-100239804D01*
X106072100Y-100048423D01*
X106072100Y-99853291D01*
X106043963Y-99711834D01*
X134426439Y-99711834D01*
X135025000Y-100310395D01*
X135623561Y-99711834D01*
X135588450Y-99498412D01*
X135384174Y-99407542D01*
X135166095Y-99358269D01*
X134942594Y-99352489D01*
X134722260Y-99390423D01*
X134513560Y-99470613D01*
X134461550Y-99498412D01*
X134426439Y-99711834D01*
X106043963Y-99711834D01*
X106034032Y-99661910D01*
X105959358Y-99481632D01*
X105850949Y-99319386D01*
X105712971Y-99181408D01*
X105550725Y-99072999D01*
X105370447Y-98998325D01*
X105179066Y-98960257D01*
X104983934Y-98960257D01*
X104792553Y-98998325D01*
X104612275Y-99072999D01*
X104450029Y-99181408D01*
X104312051Y-99319386D01*
X104203642Y-99481632D01*
X104128968Y-99661910D01*
X104090900Y-99853291D01*
X96660000Y-99853291D01*
X96660000Y-98902434D01*
X136009400Y-98902434D01*
X136009400Y-99097566D01*
X136047468Y-99288947D01*
X136122142Y-99469225D01*
X136230551Y-99631471D01*
X136368529Y-99769449D01*
X136530775Y-99877858D01*
X136711053Y-99952532D01*
X136902434Y-99990600D01*
X136961928Y-99990600D01*
X136961928Y-100750000D01*
X136974188Y-100874482D01*
X137010498Y-100994180D01*
X137069463Y-101104494D01*
X137148815Y-101201185D01*
X137245506Y-101280537D01*
X137355820Y-101339502D01*
X137475518Y-101375812D01*
X137600000Y-101388072D01*
X137900000Y-101388072D01*
X138000000Y-101378223D01*
X138100000Y-101388072D01*
X138400000Y-101388072D01*
X138500000Y-101378223D01*
X138600000Y-101388072D01*
X138900000Y-101388072D01*
X139000000Y-101378223D01*
X139100000Y-101388072D01*
X139400000Y-101388072D01*
X139500000Y-101378223D01*
X139600000Y-101388072D01*
X139900000Y-101388072D01*
X140000000Y-101378223D01*
X140100000Y-101388072D01*
X140400000Y-101388072D01*
X140500000Y-101378223D01*
X140600000Y-101388072D01*
X140900000Y-101388072D01*
X141000000Y-101378223D01*
X141100000Y-101388072D01*
X141400000Y-101388072D01*
X141500000Y-101378223D01*
X141600000Y-101388072D01*
X141900000Y-101388072D01*
X142000000Y-101378223D01*
X142100000Y-101388072D01*
X142400000Y-101388072D01*
X142524482Y-101375812D01*
X142644180Y-101339502D01*
X142754494Y-101280537D01*
X142851185Y-101201185D01*
X142930537Y-101104494D01*
X142989502Y-100994180D01*
X143025812Y-100874482D01*
X143038072Y-100750000D01*
X143038072Y-100572406D01*
X143757489Y-100572406D01*
X143795423Y-100792740D01*
X143875613Y-101001440D01*
X143903412Y-101053450D01*
X144116834Y-101088561D01*
X144715395Y-100490000D01*
X145074605Y-100490000D01*
X145673166Y-101088561D01*
X145886588Y-101053450D01*
X145977458Y-100849174D01*
X146026731Y-100631095D01*
X146032511Y-100407594D01*
X145994577Y-100187260D01*
X145914387Y-99978560D01*
X145886588Y-99926550D01*
X145673166Y-99891439D01*
X145074605Y-100490000D01*
X144715395Y-100490000D01*
X144116834Y-99891439D01*
X143903412Y-99926550D01*
X143812542Y-100130826D01*
X143763269Y-100348905D01*
X143757489Y-100572406D01*
X143038072Y-100572406D01*
X143038072Y-99990600D01*
X143097566Y-99990600D01*
X143288947Y-99952532D01*
X143469225Y-99877858D01*
X143631471Y-99769449D01*
X143689086Y-99711834D01*
X144296439Y-99711834D01*
X144895000Y-100310395D01*
X145348224Y-99857171D01*
X173950900Y-99857171D01*
X173950900Y-100052303D01*
X173988968Y-100243684D01*
X174063642Y-100423962D01*
X174172051Y-100586208D01*
X174310029Y-100724186D01*
X174472275Y-100832595D01*
X174652553Y-100907269D01*
X174843934Y-100945337D01*
X175039066Y-100945337D01*
X175230447Y-100907269D01*
X175410725Y-100832595D01*
X175572971Y-100724186D01*
X175710949Y-100586208D01*
X175819358Y-100423962D01*
X175894032Y-100243684D01*
X175932100Y-100052303D01*
X175932100Y-99857171D01*
X175894032Y-99665790D01*
X175819358Y-99485512D01*
X175710949Y-99323266D01*
X175572971Y-99185288D01*
X175410725Y-99076879D01*
X175230447Y-99002205D01*
X175039066Y-98964137D01*
X174843934Y-98964137D01*
X174652553Y-99002205D01*
X174472275Y-99076879D01*
X174310029Y-99185288D01*
X174172051Y-99323266D01*
X174063642Y-99485512D01*
X173988968Y-99665790D01*
X173950900Y-99857171D01*
X145348224Y-99857171D01*
X145493561Y-99711834D01*
X145458450Y-99498412D01*
X145254174Y-99407542D01*
X145036095Y-99358269D01*
X144812594Y-99352489D01*
X144592260Y-99390423D01*
X144383560Y-99470613D01*
X144331550Y-99498412D01*
X144296439Y-99711834D01*
X143689086Y-99711834D01*
X143769449Y-99631471D01*
X143877858Y-99469225D01*
X143952532Y-99288947D01*
X143990600Y-99097566D01*
X143990600Y-98902434D01*
X143952532Y-98711053D01*
X143877858Y-98530775D01*
X143769449Y-98368529D01*
X143631471Y-98230551D01*
X143469225Y-98122142D01*
X143333238Y-98065814D01*
X143299212Y-97894753D01*
X143224538Y-97714475D01*
X143116129Y-97552229D01*
X142978151Y-97414251D01*
X142890600Y-97355751D01*
X142890600Y-97202434D01*
X142852532Y-97011053D01*
X142777858Y-96830775D01*
X142669449Y-96668529D01*
X142531471Y-96530551D01*
X142369225Y-96422142D01*
X142287812Y-96388420D01*
X142252532Y-96211053D01*
X142177858Y-96030775D01*
X142069449Y-95868529D01*
X141931471Y-95730551D01*
X141769225Y-95622142D01*
X141588947Y-95547468D01*
X141433257Y-95516499D01*
X141377858Y-95382755D01*
X141269449Y-95220509D01*
X141131471Y-95082531D01*
X140969225Y-94974122D01*
X140788947Y-94899448D01*
X140597566Y-94861380D01*
X140402434Y-94861380D01*
X140211053Y-94899448D01*
X140030775Y-94974122D01*
X139990497Y-95001035D01*
X139969225Y-94986822D01*
X139788947Y-94912148D01*
X139597566Y-94874080D01*
X139402434Y-94874080D01*
X139211053Y-94912148D01*
X139030775Y-94986822D01*
X138868529Y-95095231D01*
X138730551Y-95233209D01*
X138622142Y-95395455D01*
X138572476Y-95515359D01*
X138411053Y-95547468D01*
X138230775Y-95622142D01*
X138068529Y-95730551D01*
X137930551Y-95868529D01*
X137822142Y-96030775D01*
X137747468Y-96211053D01*
X137712188Y-96388420D01*
X137630775Y-96422142D01*
X137468529Y-96530551D01*
X137330551Y-96668529D01*
X137222142Y-96830775D01*
X137147468Y-97011053D01*
X137109400Y-97202434D01*
X137109400Y-97381609D01*
X137011129Y-97447271D01*
X136873151Y-97585249D01*
X136764742Y-97747495D01*
X136690068Y-97927773D01*
X136662237Y-98067688D01*
X136530775Y-98122142D01*
X136368529Y-98230551D01*
X136230551Y-98368529D01*
X136122142Y-98530775D01*
X136047468Y-98711053D01*
X136009400Y-98902434D01*
X96660000Y-98902434D01*
X96660000Y-87919529D01*
X106210900Y-87919529D01*
X106210900Y-88114661D01*
X106248968Y-88306042D01*
X106323642Y-88486320D01*
X106432051Y-88648566D01*
X106570029Y-88786544D01*
X106732275Y-88894953D01*
X106912553Y-88969627D01*
X107103934Y-89007695D01*
X107299066Y-89007695D01*
X107490447Y-88969627D01*
X107670725Y-88894953D01*
X107832971Y-88786544D01*
X107970949Y-88648566D01*
X108079358Y-88486320D01*
X108154032Y-88306042D01*
X108192100Y-88114661D01*
X108192100Y-87919529D01*
X108191546Y-87916739D01*
X171810900Y-87916739D01*
X171810900Y-88111871D01*
X171848968Y-88303252D01*
X171923642Y-88483530D01*
X172032051Y-88645776D01*
X172170029Y-88783754D01*
X172332275Y-88892163D01*
X172512553Y-88966837D01*
X172703934Y-89004905D01*
X172899066Y-89004905D01*
X173090447Y-88966837D01*
X173270725Y-88892163D01*
X173432971Y-88783754D01*
X173570949Y-88645776D01*
X173679358Y-88483530D01*
X173754032Y-88303252D01*
X173792100Y-88111871D01*
X173792100Y-87916739D01*
X173754032Y-87725358D01*
X173679358Y-87545080D01*
X173570949Y-87382834D01*
X173432971Y-87244856D01*
X173270725Y-87136447D01*
X173090447Y-87061773D01*
X172899066Y-87023705D01*
X172703934Y-87023705D01*
X172512553Y-87061773D01*
X172332275Y-87136447D01*
X172170029Y-87244856D01*
X172032051Y-87382834D01*
X171923642Y-87545080D01*
X171848968Y-87725358D01*
X171810900Y-87916739D01*
X108191546Y-87916739D01*
X108154032Y-87728148D01*
X108079358Y-87547870D01*
X107970949Y-87385624D01*
X107832971Y-87247646D01*
X107670725Y-87139237D01*
X107490447Y-87064563D01*
X107299066Y-87026495D01*
X107103934Y-87026495D01*
X106912553Y-87064563D01*
X106732275Y-87139237D01*
X106570029Y-87247646D01*
X106432051Y-87385624D01*
X106323642Y-87547870D01*
X106248968Y-87728148D01*
X106210900Y-87919529D01*
X96660000Y-87919529D01*
X96660000Y-77229988D01*
X112430900Y-77229988D01*
X112430900Y-77425120D01*
X112468968Y-77616501D01*
X112543642Y-77796779D01*
X112652051Y-77959025D01*
X112790029Y-78097003D01*
X112952275Y-78205412D01*
X113132553Y-78280086D01*
X113323934Y-78318154D01*
X113519066Y-78318154D01*
X113710447Y-78280086D01*
X113890725Y-78205412D01*
X114052971Y-78097003D01*
X114190949Y-77959025D01*
X114299358Y-77796779D01*
X114374032Y-77616501D01*
X114412100Y-77425120D01*
X114412100Y-77229988D01*
X114410070Y-77219778D01*
X165600900Y-77219778D01*
X165600900Y-77414910D01*
X165638968Y-77606291D01*
X165713642Y-77786569D01*
X165822051Y-77948815D01*
X165960029Y-78086793D01*
X166122275Y-78195202D01*
X166302553Y-78269876D01*
X166493934Y-78307944D01*
X166689066Y-78307944D01*
X166880447Y-78269876D01*
X167060725Y-78195202D01*
X167222971Y-78086793D01*
X167360949Y-77948815D01*
X167469358Y-77786569D01*
X167544032Y-77606291D01*
X167582100Y-77414910D01*
X167582100Y-77219778D01*
X167544032Y-77028397D01*
X167469358Y-76848119D01*
X167360949Y-76685873D01*
X167222971Y-76547895D01*
X167060725Y-76439486D01*
X166880447Y-76364812D01*
X166689066Y-76326744D01*
X166493934Y-76326744D01*
X166302553Y-76364812D01*
X166122275Y-76439486D01*
X165960029Y-76547895D01*
X165822051Y-76685873D01*
X165713642Y-76848119D01*
X165638968Y-77028397D01*
X165600900Y-77219778D01*
X114410070Y-77219778D01*
X114374032Y-77038607D01*
X114299358Y-76858329D01*
X114190949Y-76696083D01*
X114052971Y-76558105D01*
X113890725Y-76449696D01*
X113710447Y-76375022D01*
X113519066Y-76336954D01*
X113323934Y-76336954D01*
X113132553Y-76375022D01*
X112952275Y-76449696D01*
X112790029Y-76558105D01*
X112652051Y-76696083D01*
X112543642Y-76858329D01*
X112468968Y-77038607D01*
X112430900Y-77229988D01*
X96660000Y-77229988D01*
X96660000Y-69655594D01*
X121538721Y-69655594D01*
X121538721Y-69850726D01*
X121576789Y-70042107D01*
X121651463Y-70222385D01*
X121759872Y-70384631D01*
X121897850Y-70522609D01*
X122060096Y-70631018D01*
X122240374Y-70705692D01*
X122431755Y-70743760D01*
X122626887Y-70743760D01*
X122818268Y-70705692D01*
X122998546Y-70631018D01*
X123160792Y-70522609D01*
X123298770Y-70384631D01*
X123407179Y-70222385D01*
X123481853Y-70042107D01*
X123519921Y-69850726D01*
X123519921Y-69655594D01*
X156468230Y-69655594D01*
X156468230Y-69850726D01*
X156506298Y-70042107D01*
X156580972Y-70222385D01*
X156689381Y-70384631D01*
X156827359Y-70522609D01*
X156989605Y-70631018D01*
X157169883Y-70705692D01*
X157361264Y-70743760D01*
X157556396Y-70743760D01*
X157747777Y-70705692D01*
X157928055Y-70631018D01*
X158090301Y-70522609D01*
X158228279Y-70384631D01*
X158336688Y-70222385D01*
X158411362Y-70042107D01*
X158449430Y-69850726D01*
X158449430Y-69655594D01*
X158411362Y-69464213D01*
X158336688Y-69283935D01*
X158228279Y-69121689D01*
X158090301Y-68983711D01*
X157928055Y-68875302D01*
X157747777Y-68800628D01*
X157556396Y-68762560D01*
X157361264Y-68762560D01*
X157169883Y-68800628D01*
X156989605Y-68875302D01*
X156827359Y-68983711D01*
X156689381Y-69121689D01*
X156580972Y-69283935D01*
X156506298Y-69464213D01*
X156468230Y-69655594D01*
X123519921Y-69655594D01*
X123481853Y-69464213D01*
X123407179Y-69283935D01*
X123298770Y-69121689D01*
X123160792Y-68983711D01*
X122998546Y-68875302D01*
X122818268Y-68800628D01*
X122626887Y-68762560D01*
X122431755Y-68762560D01*
X122240374Y-68800628D01*
X122060096Y-68875302D01*
X121897850Y-68983711D01*
X121759872Y-69121689D01*
X121651463Y-69283935D01*
X121576789Y-69464213D01*
X121538721Y-69655594D01*
X96660000Y-69655594D01*
X96660000Y-65495594D01*
X132954087Y-65495594D01*
X132954087Y-65690726D01*
X132992155Y-65882107D01*
X133066829Y-66062385D01*
X133175238Y-66224631D01*
X133313216Y-66362609D01*
X133475462Y-66471018D01*
X133655740Y-66545692D01*
X133847121Y-66583760D01*
X134042253Y-66583760D01*
X134233634Y-66545692D01*
X134413912Y-66471018D01*
X134576158Y-66362609D01*
X134714136Y-66224631D01*
X134822545Y-66062385D01*
X134897219Y-65882107D01*
X134935287Y-65690726D01*
X134935287Y-65505594D01*
X145062760Y-65505594D01*
X145062760Y-65700726D01*
X145100828Y-65892107D01*
X145175502Y-66072385D01*
X145283911Y-66234631D01*
X145421889Y-66372609D01*
X145584135Y-66481018D01*
X145764413Y-66555692D01*
X145955794Y-66593760D01*
X146150926Y-66593760D01*
X146342307Y-66555692D01*
X146522585Y-66481018D01*
X146684831Y-66372609D01*
X146822809Y-66234631D01*
X146931218Y-66072385D01*
X147005892Y-65892107D01*
X147043960Y-65700726D01*
X147043960Y-65505594D01*
X147005892Y-65314213D01*
X146931218Y-65133935D01*
X146822809Y-64971689D01*
X146684831Y-64833711D01*
X146522585Y-64725302D01*
X146342307Y-64650628D01*
X146150926Y-64612560D01*
X145955794Y-64612560D01*
X145764413Y-64650628D01*
X145584135Y-64725302D01*
X145421889Y-64833711D01*
X145283911Y-64971689D01*
X145175502Y-65133935D01*
X145100828Y-65314213D01*
X145062760Y-65505594D01*
X134935287Y-65505594D01*
X134935287Y-65495594D01*
X134897219Y-65304213D01*
X134822545Y-65123935D01*
X134714136Y-64961689D01*
X134576158Y-64823711D01*
X134413912Y-64715302D01*
X134233634Y-64640628D01*
X134042253Y-64602560D01*
X133847121Y-64602560D01*
X133655740Y-64640628D01*
X133475462Y-64715302D01*
X133313216Y-64823711D01*
X133175238Y-64961689D01*
X133066829Y-65123935D01*
X132992155Y-65304213D01*
X132954087Y-65495594D01*
X96660000Y-65495594D01*
X96660000Y-57663160D01*
X183340001Y-57663160D01*
X183340000Y-105343160D01*
G04 #@! TD*
M02*
