G04 #@! TF.GenerationSoftware,KiCad,Pcbnew,(6.0.0-rc1-dev-305-gf0b8b2136)*
G04 #@! TF.CreationDate,2019-08-12T13:44:36-06:00*
G04 #@! TF.ProjectId,Station05,53746174696F6E30352E6B696361645F,rev?*
G04 #@! TF.SameCoordinates,Original*
G04 #@! TF.FileFunction,Soldermask,Top*
G04 #@! TF.FilePolarity,Negative*
%FSLAX46Y46*%
G04 Gerber Fmt 4.6, Leading zero omitted, Abs format (unit mm)*
G04 Created by KiCad (PCBNEW (6.0.0-rc1-dev-305-gf0b8b2136)) date 08/12/19 13:44:36*
%MOMM*%
%LPD*%
G01*
G04 APERTURE LIST*
%ADD10C,0.355600*%
%ADD11C,0.100000*%
G04 APERTURE END LIST*
D10*
X143177800Y-99000000D02*
G75*
G03X143177800Y-99000000I-177800J0D01*
G01*
X142524480Y-98183700D02*
G75*
G03X142524480Y-98183700I-177800J0D01*
G01*
X142077800Y-97300000D02*
G75*
G03X142077800Y-97300000I-177800J0D01*
G01*
X141477800Y-96500000D02*
G75*
G03X141477800Y-96500000I-177800J0D01*
G01*
X140677800Y-95851980D02*
G75*
G03X140677800Y-95851980I-177800J0D01*
G01*
X139677800Y-95864680D02*
G75*
G03X139677800Y-95864680I-177800J0D01*
G01*
X138877800Y-96500000D02*
G75*
G03X138877800Y-96500000I-177800J0D01*
G01*
X138277800Y-97300000D02*
G75*
G03X138277800Y-97300000I-177800J0D01*
G01*
X137820400Y-98216720D02*
G75*
G03X137820400Y-98216720I-177800J0D01*
G01*
X137177800Y-99000000D02*
G75*
G03X137177800Y-99000000I-177800J0D01*
G01*
D11*
G36*
X102042874Y-103931000D02*
X99500874Y-103931000D01*
X99500874Y-101389000D01*
X102042874Y-101389000D01*
X102042874Y-103931000D01*
X102042874Y-103931000D01*
G37*
G36*
X107362874Y-103931000D02*
X104820874Y-103931000D01*
X104820874Y-101389000D01*
X107362874Y-101389000D01*
X107362874Y-103931000D01*
X107362874Y-103931000D01*
G37*
G36*
X180499126Y-103931000D02*
X177957126Y-103931000D01*
X177957126Y-101389000D01*
X180499126Y-101389000D01*
X180499126Y-103931000D01*
X180499126Y-103931000D01*
G37*
G36*
X175179126Y-103931000D02*
X172637126Y-103931000D01*
X172637126Y-101389000D01*
X175179126Y-101389000D01*
X175179126Y-103931000D01*
X175179126Y-103931000D01*
G37*
G36*
X136726349Y-101743820D02*
X136726352Y-101743821D01*
X136726351Y-101743821D01*
X136867574Y-101802317D01*
X136867575Y-101802318D01*
X136994674Y-101887243D01*
X137102757Y-101995326D01*
X137102759Y-101995329D01*
X137187683Y-102122426D01*
X137232927Y-102231657D01*
X137246180Y-102263651D01*
X137276000Y-102413569D01*
X137276000Y-102566431D01*
X137246180Y-102716349D01*
X137246179Y-102716351D01*
X137187683Y-102857574D01*
X137187682Y-102857575D01*
X137102757Y-102984674D01*
X136994674Y-103092757D01*
X136994671Y-103092759D01*
X136867574Y-103177683D01*
X136758343Y-103222927D01*
X136726349Y-103236180D01*
X136576431Y-103266000D01*
X136423569Y-103266000D01*
X136273651Y-103236180D01*
X136241657Y-103222927D01*
X136132426Y-103177683D01*
X136005329Y-103092759D01*
X136005326Y-103092757D01*
X135897243Y-102984674D01*
X135812318Y-102857575D01*
X135812317Y-102857574D01*
X135753821Y-102716351D01*
X135753820Y-102716349D01*
X135724000Y-102566431D01*
X135724000Y-102413569D01*
X135753820Y-102263651D01*
X135767073Y-102231657D01*
X135812317Y-102122426D01*
X135897241Y-101995329D01*
X135897243Y-101995326D01*
X136005326Y-101887243D01*
X136132425Y-101802318D01*
X136132426Y-101802317D01*
X136273649Y-101743821D01*
X136273648Y-101743821D01*
X136273651Y-101743820D01*
X136423569Y-101714000D01*
X136576431Y-101714000D01*
X136726349Y-101743820D01*
X136726349Y-101743820D01*
G37*
G36*
X143646349Y-101743820D02*
X143646352Y-101743821D01*
X143646351Y-101743821D01*
X143787574Y-101802317D01*
X143787575Y-101802318D01*
X143914674Y-101887243D01*
X144022757Y-101995326D01*
X144022759Y-101995329D01*
X144107683Y-102122426D01*
X144152927Y-102231657D01*
X144166180Y-102263651D01*
X144196000Y-102413569D01*
X144196000Y-102566431D01*
X144166180Y-102716349D01*
X144166179Y-102716351D01*
X144107683Y-102857574D01*
X144107682Y-102857575D01*
X144022757Y-102984674D01*
X143914674Y-103092757D01*
X143914671Y-103092759D01*
X143787574Y-103177683D01*
X143678343Y-103222927D01*
X143646349Y-103236180D01*
X143496431Y-103266000D01*
X143343569Y-103266000D01*
X143193651Y-103236180D01*
X143161657Y-103222927D01*
X143052426Y-103177683D01*
X142925329Y-103092759D01*
X142925326Y-103092757D01*
X142817243Y-102984674D01*
X142732318Y-102857575D01*
X142732317Y-102857574D01*
X142673821Y-102716351D01*
X142673820Y-102716349D01*
X142644000Y-102566431D01*
X142644000Y-102413569D01*
X142673820Y-102263651D01*
X142687073Y-102231657D01*
X142732317Y-102122426D01*
X142817241Y-101995329D01*
X142817243Y-101995326D01*
X142925326Y-101887243D01*
X143052425Y-101802318D01*
X143052426Y-101802317D01*
X143193649Y-101743821D01*
X143193648Y-101743821D01*
X143193651Y-101743820D01*
X143343569Y-101714000D01*
X143496431Y-101714000D01*
X143646349Y-101743820D01*
X143646349Y-101743820D01*
G37*
G36*
X176726073Y-98934338D02*
X176881984Y-98965350D01*
X177077803Y-99046461D01*
X177077804Y-99046462D01*
X177254039Y-99164218D01*
X177403908Y-99314087D01*
X177403910Y-99314090D01*
X177521665Y-99490323D01*
X177602776Y-99686142D01*
X177633789Y-99842053D01*
X177644126Y-99894022D01*
X177644126Y-100105978D01*
X177633788Y-100157947D01*
X177602776Y-100313858D01*
X177521665Y-100509677D01*
X177405495Y-100683538D01*
X177403908Y-100685913D01*
X177254039Y-100835782D01*
X177254036Y-100835784D01*
X177077803Y-100953539D01*
X176881984Y-101034650D01*
X176726073Y-101065663D01*
X176674104Y-101076000D01*
X176462148Y-101076000D01*
X176410179Y-101065663D01*
X176254268Y-101034650D01*
X176058449Y-100953539D01*
X175882216Y-100835784D01*
X175882213Y-100835782D01*
X175732344Y-100685913D01*
X175730757Y-100683538D01*
X175614587Y-100509677D01*
X175533476Y-100313858D01*
X175502464Y-100157947D01*
X175492126Y-100105978D01*
X175492126Y-99894022D01*
X175502463Y-99842053D01*
X175533476Y-99686142D01*
X175614587Y-99490323D01*
X175732342Y-99314090D01*
X175732344Y-99314087D01*
X175882213Y-99164218D01*
X176058448Y-99046462D01*
X176058449Y-99046461D01*
X176254268Y-98965350D01*
X176410179Y-98934337D01*
X176462148Y-98924000D01*
X176674104Y-98924000D01*
X176726073Y-98934338D01*
X176726073Y-98934338D01*
G37*
G36*
X103589821Y-98934338D02*
X103745732Y-98965350D01*
X103941551Y-99046461D01*
X103941552Y-99046462D01*
X104117787Y-99164218D01*
X104267656Y-99314087D01*
X104267658Y-99314090D01*
X104385413Y-99490323D01*
X104466524Y-99686142D01*
X104497536Y-99842053D01*
X104507874Y-99894022D01*
X104507874Y-100105978D01*
X104497537Y-100157947D01*
X104466524Y-100313858D01*
X104385413Y-100509677D01*
X104269243Y-100683538D01*
X104267656Y-100685913D01*
X104117787Y-100835782D01*
X104117784Y-100835784D01*
X103941551Y-100953539D01*
X103745732Y-101034650D01*
X103589821Y-101065663D01*
X103537852Y-101076000D01*
X103325896Y-101076000D01*
X103273927Y-101065663D01*
X103118016Y-101034650D01*
X102922197Y-100953539D01*
X102745964Y-100835784D01*
X102745961Y-100835782D01*
X102596092Y-100685913D01*
X102594505Y-100683538D01*
X102478335Y-100509677D01*
X102397224Y-100313858D01*
X102366211Y-100157947D01*
X102355874Y-100105978D01*
X102355874Y-99894022D01*
X102366212Y-99842053D01*
X102397224Y-99686142D01*
X102478335Y-99490323D01*
X102596090Y-99314090D01*
X102596092Y-99314087D01*
X102745961Y-99164218D01*
X102922196Y-99046462D01*
X102922197Y-99046461D01*
X103118016Y-98965350D01*
X103273927Y-98934337D01*
X103325896Y-98924000D01*
X103537852Y-98924000D01*
X103589821Y-98934338D01*
X103589821Y-98934338D01*
G37*
G36*
X145055721Y-99960174D02*
X145155995Y-100001709D01*
X145246245Y-100062012D01*
X145322988Y-100138755D01*
X145383291Y-100229005D01*
X145424826Y-100329279D01*
X145446000Y-100435730D01*
X145446000Y-100544270D01*
X145424826Y-100650721D01*
X145383291Y-100750995D01*
X145322988Y-100841245D01*
X145246245Y-100917988D01*
X145155995Y-100978291D01*
X145055721Y-101019826D01*
X144949270Y-101041000D01*
X144840730Y-101041000D01*
X144734279Y-101019826D01*
X144634005Y-100978291D01*
X144543755Y-100917988D01*
X144467012Y-100841245D01*
X144406709Y-100750995D01*
X144365174Y-100650721D01*
X144344000Y-100544270D01*
X144344000Y-100435730D01*
X144365174Y-100329279D01*
X144406709Y-100229005D01*
X144467012Y-100138755D01*
X144543755Y-100062012D01*
X144634005Y-100001709D01*
X144734279Y-99960174D01*
X144840730Y-99939000D01*
X144949270Y-99939000D01*
X145055721Y-99960174D01*
X145055721Y-99960174D01*
G37*
G36*
X135185721Y-99960174D02*
X135285995Y-100001709D01*
X135376245Y-100062012D01*
X135452988Y-100138755D01*
X135513291Y-100229005D01*
X135554826Y-100329279D01*
X135576000Y-100435730D01*
X135576000Y-100544270D01*
X135554826Y-100650721D01*
X135513291Y-100750995D01*
X135452988Y-100841245D01*
X135376245Y-100917988D01*
X135285995Y-100978291D01*
X135185721Y-101019826D01*
X135079270Y-101041000D01*
X134970730Y-101041000D01*
X134864279Y-101019826D01*
X134764005Y-100978291D01*
X134673755Y-100917988D01*
X134597012Y-100841245D01*
X134536709Y-100750995D01*
X134495174Y-100650721D01*
X134474000Y-100544270D01*
X134474000Y-100435730D01*
X134495174Y-100329279D01*
X134536709Y-100229005D01*
X134597012Y-100138755D01*
X134673755Y-100062012D01*
X134764005Y-100001709D01*
X134864279Y-99960174D01*
X134970730Y-99939000D01*
X135079270Y-99939000D01*
X135185721Y-99960174D01*
X135185721Y-99960174D01*
G37*
G36*
X102042874Y-98611000D02*
X99500874Y-98611000D01*
X99500874Y-96069000D01*
X102042874Y-96069000D01*
X102042874Y-98611000D01*
X102042874Y-98611000D01*
G37*
G36*
X107362874Y-98611000D02*
X104820874Y-98611000D01*
X104820874Y-96069000D01*
X107362874Y-96069000D01*
X107362874Y-98611000D01*
X107362874Y-98611000D01*
G37*
G36*
X175179126Y-98611000D02*
X172637126Y-98611000D01*
X172637126Y-96069000D01*
X175179126Y-96069000D01*
X175179126Y-98611000D01*
X175179126Y-98611000D01*
G37*
G36*
X180499126Y-98611000D02*
X177957126Y-98611000D01*
X177957126Y-96069000D01*
X180499126Y-96069000D01*
X180499126Y-98611000D01*
X180499126Y-98611000D01*
G37*
G36*
X104248200Y-91423960D02*
X101706200Y-91423960D01*
X101706200Y-88881960D01*
X104248200Y-88881960D01*
X104248200Y-91423960D01*
X104248200Y-91423960D01*
G37*
G36*
X109568200Y-91423960D02*
X107026200Y-91423960D01*
X107026200Y-88881960D01*
X109568200Y-88881960D01*
X109568200Y-91423960D01*
X109568200Y-91423960D01*
G37*
G36*
X172973800Y-91423960D02*
X170431800Y-91423960D01*
X170431800Y-88881960D01*
X172973800Y-88881960D01*
X172973800Y-91423960D01*
X172973800Y-91423960D01*
G37*
G36*
X178293800Y-91423960D02*
X175751800Y-91423960D01*
X175751800Y-88881960D01*
X178293800Y-88881960D01*
X178293800Y-91423960D01*
X178293800Y-91423960D01*
G37*
G36*
X174520747Y-86427298D02*
X174676658Y-86458310D01*
X174872477Y-86539421D01*
X174872478Y-86539422D01*
X175048713Y-86657178D01*
X175198582Y-86807047D01*
X175198584Y-86807050D01*
X175316339Y-86983283D01*
X175397450Y-87179102D01*
X175438800Y-87386983D01*
X175438800Y-87598937D01*
X175397450Y-87806818D01*
X175316339Y-88002637D01*
X175316338Y-88002638D01*
X175198582Y-88178873D01*
X175048713Y-88328742D01*
X175048710Y-88328744D01*
X174872477Y-88446499D01*
X174676658Y-88527610D01*
X174520747Y-88558622D01*
X174468778Y-88568960D01*
X174256822Y-88568960D01*
X174204853Y-88558622D01*
X174048942Y-88527610D01*
X173853123Y-88446499D01*
X173676890Y-88328744D01*
X173676887Y-88328742D01*
X173527018Y-88178873D01*
X173409262Y-88002638D01*
X173409261Y-88002637D01*
X173328150Y-87806818D01*
X173286800Y-87598937D01*
X173286800Y-87386983D01*
X173328150Y-87179102D01*
X173409261Y-86983283D01*
X173527016Y-86807050D01*
X173527018Y-86807047D01*
X173676887Y-86657178D01*
X173853122Y-86539422D01*
X173853123Y-86539421D01*
X174048942Y-86458310D01*
X174204853Y-86427298D01*
X174256822Y-86416960D01*
X174468778Y-86416960D01*
X174520747Y-86427298D01*
X174520747Y-86427298D01*
G37*
G36*
X105795147Y-86427298D02*
X105951058Y-86458310D01*
X106146877Y-86539421D01*
X106146878Y-86539422D01*
X106323113Y-86657178D01*
X106472982Y-86807047D01*
X106472984Y-86807050D01*
X106590739Y-86983283D01*
X106671850Y-87179102D01*
X106713200Y-87386983D01*
X106713200Y-87598937D01*
X106671850Y-87806818D01*
X106590739Y-88002637D01*
X106590738Y-88002638D01*
X106472982Y-88178873D01*
X106323113Y-88328742D01*
X106323110Y-88328744D01*
X106146877Y-88446499D01*
X105951058Y-88527610D01*
X105795147Y-88558622D01*
X105743178Y-88568960D01*
X105531222Y-88568960D01*
X105479253Y-88558622D01*
X105323342Y-88527610D01*
X105127523Y-88446499D01*
X104951290Y-88328744D01*
X104951287Y-88328742D01*
X104801418Y-88178873D01*
X104683662Y-88002638D01*
X104683661Y-88002637D01*
X104602550Y-87806818D01*
X104561200Y-87598937D01*
X104561200Y-87386983D01*
X104602550Y-87179102D01*
X104683661Y-86983283D01*
X104801416Y-86807050D01*
X104801418Y-86807047D01*
X104951287Y-86657178D01*
X105127522Y-86539422D01*
X105127523Y-86539421D01*
X105323342Y-86458310D01*
X105479253Y-86427298D01*
X105531222Y-86416960D01*
X105743178Y-86416960D01*
X105795147Y-86427298D01*
X105795147Y-86427298D01*
G37*
G36*
X178293800Y-86103960D02*
X175751800Y-86103960D01*
X175751800Y-83561960D01*
X178293800Y-83561960D01*
X178293800Y-86103960D01*
X178293800Y-86103960D01*
G37*
G36*
X172973800Y-86103960D02*
X170431800Y-86103960D01*
X170431800Y-83561960D01*
X172973800Y-83561960D01*
X172973800Y-86103960D01*
X172973800Y-86103960D01*
G37*
G36*
X109568200Y-86103960D02*
X107026200Y-86103960D01*
X107026200Y-83561960D01*
X109568200Y-83561960D01*
X109568200Y-86103960D01*
X109568200Y-86103960D01*
G37*
G36*
X104248200Y-86103960D02*
X101706200Y-86103960D01*
X101706200Y-83561960D01*
X104248200Y-83561960D01*
X104248200Y-86103960D01*
X104248200Y-86103960D01*
G37*
G36*
X115918190Y-80425460D02*
X113376190Y-80425460D01*
X113376190Y-77883460D01*
X115918190Y-77883460D01*
X115918190Y-80425460D01*
X115918190Y-80425460D01*
G37*
G36*
X171943810Y-80425460D02*
X169401810Y-80425460D01*
X169401810Y-77883460D01*
X171943810Y-77883460D01*
X171943810Y-80425460D01*
X171943810Y-80425460D01*
G37*
G36*
X110598190Y-80425460D02*
X108056190Y-80425460D01*
X108056190Y-77883460D01*
X110598190Y-77883460D01*
X110598190Y-80425460D01*
X110598190Y-80425460D01*
G37*
G36*
X166623810Y-80425460D02*
X164081810Y-80425460D01*
X164081810Y-77883460D01*
X166623810Y-77883460D01*
X166623810Y-80425460D01*
X166623810Y-80425460D01*
G37*
G36*
X112145137Y-75428798D02*
X112301048Y-75459810D01*
X112496867Y-75540921D01*
X112496868Y-75540922D01*
X112673103Y-75658678D01*
X112822972Y-75808547D01*
X112822974Y-75808550D01*
X112940729Y-75984783D01*
X113021840Y-76180602D01*
X113063190Y-76388483D01*
X113063190Y-76600437D01*
X113021840Y-76808318D01*
X112940729Y-77004137D01*
X112940728Y-77004138D01*
X112822972Y-77180373D01*
X112673103Y-77330242D01*
X112673100Y-77330244D01*
X112496867Y-77447999D01*
X112301048Y-77529110D01*
X112145137Y-77560123D01*
X112093168Y-77570460D01*
X111881212Y-77570460D01*
X111829243Y-77560123D01*
X111673332Y-77529110D01*
X111477513Y-77447999D01*
X111301280Y-77330244D01*
X111301277Y-77330242D01*
X111151408Y-77180373D01*
X111033652Y-77004138D01*
X111033651Y-77004137D01*
X110952540Y-76808318D01*
X110911190Y-76600437D01*
X110911190Y-76388483D01*
X110952540Y-76180602D01*
X111033651Y-75984783D01*
X111151406Y-75808550D01*
X111151408Y-75808547D01*
X111301277Y-75658678D01*
X111477512Y-75540922D01*
X111477513Y-75540921D01*
X111673332Y-75459810D01*
X111829243Y-75428798D01*
X111881212Y-75418460D01*
X112093168Y-75418460D01*
X112145137Y-75428798D01*
X112145137Y-75428798D01*
G37*
G36*
X168170757Y-75428798D02*
X168326668Y-75459810D01*
X168522487Y-75540921D01*
X168522488Y-75540922D01*
X168698723Y-75658678D01*
X168848592Y-75808547D01*
X168848594Y-75808550D01*
X168966349Y-75984783D01*
X169047460Y-76180602D01*
X169088810Y-76388483D01*
X169088810Y-76600437D01*
X169047460Y-76808318D01*
X168966349Y-77004137D01*
X168966348Y-77004138D01*
X168848592Y-77180373D01*
X168698723Y-77330242D01*
X168698720Y-77330244D01*
X168522487Y-77447999D01*
X168326668Y-77529110D01*
X168170757Y-77560122D01*
X168118788Y-77570460D01*
X167906832Y-77570460D01*
X167854863Y-77560123D01*
X167698952Y-77529110D01*
X167503133Y-77447999D01*
X167326900Y-77330244D01*
X167326897Y-77330242D01*
X167177028Y-77180373D01*
X167059272Y-77004138D01*
X167059271Y-77004137D01*
X166978160Y-76808318D01*
X166936810Y-76600437D01*
X166936810Y-76388483D01*
X166978160Y-76180602D01*
X167059271Y-75984783D01*
X167177026Y-75808550D01*
X167177028Y-75808547D01*
X167326897Y-75658678D01*
X167503132Y-75540922D01*
X167503133Y-75540921D01*
X167698952Y-75459810D01*
X167854863Y-75428798D01*
X167906832Y-75418460D01*
X168118788Y-75418460D01*
X168170757Y-75428798D01*
X168170757Y-75428798D01*
G37*
G36*
X171943810Y-75105460D02*
X169401810Y-75105460D01*
X169401810Y-72563460D01*
X171943810Y-72563460D01*
X171943810Y-75105460D01*
X171943810Y-75105460D01*
G37*
G36*
X110598190Y-75105460D02*
X108056190Y-75105460D01*
X108056190Y-72563460D01*
X110598190Y-72563460D01*
X110598190Y-75105460D01*
X110598190Y-75105460D01*
G37*
G36*
X166623810Y-75105460D02*
X164081810Y-75105460D01*
X164081810Y-72563460D01*
X166623810Y-72563460D01*
X166623810Y-75105460D01*
X166623810Y-75105460D01*
G37*
G36*
X115918190Y-75105460D02*
X113376190Y-75105460D01*
X113376190Y-72563460D01*
X115918190Y-72563460D01*
X115918190Y-75105460D01*
X115918190Y-75105460D01*
G37*
G36*
X156895063Y-72262070D02*
X154353063Y-72262070D01*
X154353063Y-69720070D01*
X156895063Y-69720070D01*
X156895063Y-72262070D01*
X156895063Y-72262070D01*
G37*
G36*
X120326937Y-72262070D02*
X117784937Y-72262070D01*
X117784937Y-69720070D01*
X120326937Y-69720070D01*
X120326937Y-72262070D01*
X120326937Y-72262070D01*
G37*
G36*
X125646937Y-72262070D02*
X123104937Y-72262070D01*
X123104937Y-69720070D01*
X125646937Y-69720070D01*
X125646937Y-72262070D01*
X125646937Y-72262070D01*
G37*
G36*
X162215063Y-72262070D02*
X159673063Y-72262070D01*
X159673063Y-69720070D01*
X162215063Y-69720070D01*
X162215063Y-72262070D01*
X162215063Y-72262070D01*
G37*
G36*
X121873884Y-67265408D02*
X122029795Y-67296420D01*
X122225614Y-67377531D01*
X122225615Y-67377532D01*
X122401850Y-67495288D01*
X122551719Y-67645157D01*
X122551721Y-67645160D01*
X122669476Y-67821393D01*
X122750587Y-68017212D01*
X122791937Y-68225093D01*
X122791937Y-68437047D01*
X122750587Y-68644928D01*
X122669476Y-68840747D01*
X122669475Y-68840748D01*
X122551719Y-69016983D01*
X122401850Y-69166852D01*
X122401847Y-69166854D01*
X122225614Y-69284609D01*
X122029795Y-69365720D01*
X121873884Y-69396733D01*
X121821915Y-69407070D01*
X121609959Y-69407070D01*
X121557990Y-69396733D01*
X121402079Y-69365720D01*
X121206260Y-69284609D01*
X121030027Y-69166854D01*
X121030024Y-69166852D01*
X120880155Y-69016983D01*
X120762399Y-68840748D01*
X120762398Y-68840747D01*
X120681287Y-68644928D01*
X120639937Y-68437047D01*
X120639937Y-68225093D01*
X120681287Y-68017212D01*
X120762398Y-67821393D01*
X120880153Y-67645160D01*
X120880155Y-67645157D01*
X121030024Y-67495288D01*
X121206259Y-67377532D01*
X121206260Y-67377531D01*
X121402079Y-67296420D01*
X121557990Y-67265408D01*
X121609959Y-67255070D01*
X121821915Y-67255070D01*
X121873884Y-67265408D01*
X121873884Y-67265408D01*
G37*
G36*
X158442010Y-67265408D02*
X158597921Y-67296420D01*
X158793740Y-67377531D01*
X158793741Y-67377532D01*
X158969976Y-67495288D01*
X159119845Y-67645157D01*
X159119847Y-67645160D01*
X159237602Y-67821393D01*
X159318713Y-68017212D01*
X159360063Y-68225093D01*
X159360063Y-68437047D01*
X159318713Y-68644928D01*
X159237602Y-68840747D01*
X159237601Y-68840748D01*
X159119845Y-69016983D01*
X158969976Y-69166852D01*
X158969973Y-69166854D01*
X158793740Y-69284609D01*
X158597921Y-69365720D01*
X158442010Y-69396733D01*
X158390041Y-69407070D01*
X158178085Y-69407070D01*
X158126116Y-69396733D01*
X157970205Y-69365720D01*
X157774386Y-69284609D01*
X157598153Y-69166854D01*
X157598150Y-69166852D01*
X157448281Y-69016983D01*
X157330525Y-68840748D01*
X157330524Y-68840747D01*
X157249413Y-68644928D01*
X157208063Y-68437047D01*
X157208063Y-68225093D01*
X157249413Y-68017212D01*
X157330524Y-67821393D01*
X157448279Y-67645160D01*
X157448281Y-67645157D01*
X157598150Y-67495288D01*
X157774385Y-67377532D01*
X157774386Y-67377531D01*
X157970205Y-67296420D01*
X158126116Y-67265408D01*
X158178085Y-67255070D01*
X158390041Y-67255070D01*
X158442010Y-67265408D01*
X158442010Y-67265408D01*
G37*
G36*
X150280990Y-67918430D02*
X147738990Y-67918430D01*
X147738990Y-65376430D01*
X150280990Y-65376430D01*
X150280990Y-67918430D01*
X150280990Y-67918430D01*
G37*
G36*
X132261010Y-67918430D02*
X129719010Y-67918430D01*
X129719010Y-65376430D01*
X132261010Y-65376430D01*
X132261010Y-67918430D01*
X132261010Y-67918430D01*
G37*
G36*
X137581010Y-67918430D02*
X135039010Y-67918430D01*
X135039010Y-65376430D01*
X137581010Y-65376430D01*
X137581010Y-67918430D01*
X137581010Y-67918430D01*
G37*
G36*
X144960990Y-67918430D02*
X142418990Y-67918430D01*
X142418990Y-65376430D01*
X144960990Y-65376430D01*
X144960990Y-67918430D01*
X144960990Y-67918430D01*
G37*
G36*
X120326937Y-66942070D02*
X117784937Y-66942070D01*
X117784937Y-64400070D01*
X120326937Y-64400070D01*
X120326937Y-66942070D01*
X120326937Y-66942070D01*
G37*
G36*
X125646937Y-66942070D02*
X123104937Y-66942070D01*
X123104937Y-64400070D01*
X125646937Y-64400070D01*
X125646937Y-66942070D01*
X125646937Y-66942070D01*
G37*
G36*
X162215063Y-66942070D02*
X159673063Y-66942070D01*
X159673063Y-64400070D01*
X162215063Y-64400070D01*
X162215063Y-66942070D01*
X162215063Y-66942070D01*
G37*
G36*
X156895063Y-66942070D02*
X154353063Y-66942070D01*
X154353063Y-64400070D01*
X156895063Y-64400070D01*
X156895063Y-66942070D01*
X156895063Y-66942070D01*
G37*
G36*
X146507937Y-62921767D02*
X146663848Y-62952780D01*
X146859667Y-63033891D01*
X146859668Y-63033892D01*
X147035903Y-63151648D01*
X147185772Y-63301517D01*
X147185774Y-63301520D01*
X147303529Y-63477753D01*
X147384640Y-63673572D01*
X147425990Y-63881453D01*
X147425990Y-64093407D01*
X147384640Y-64301288D01*
X147303529Y-64497107D01*
X147303528Y-64497108D01*
X147185772Y-64673343D01*
X147035903Y-64823212D01*
X147035900Y-64823214D01*
X146859667Y-64940969D01*
X146663848Y-65022080D01*
X146507937Y-65053092D01*
X146455968Y-65063430D01*
X146244012Y-65063430D01*
X146192043Y-65053092D01*
X146036132Y-65022080D01*
X145840313Y-64940969D01*
X145664080Y-64823214D01*
X145664077Y-64823212D01*
X145514208Y-64673343D01*
X145396452Y-64497108D01*
X145396451Y-64497107D01*
X145315340Y-64301288D01*
X145273990Y-64093407D01*
X145273990Y-63881453D01*
X145315340Y-63673572D01*
X145396451Y-63477753D01*
X145514206Y-63301520D01*
X145514208Y-63301517D01*
X145664077Y-63151648D01*
X145840312Y-63033892D01*
X145840313Y-63033891D01*
X146036132Y-62952780D01*
X146192043Y-62921767D01*
X146244012Y-62911430D01*
X146455968Y-62911430D01*
X146507937Y-62921767D01*
X146507937Y-62921767D01*
G37*
G36*
X133807957Y-62921767D02*
X133963868Y-62952780D01*
X134159687Y-63033891D01*
X134159688Y-63033892D01*
X134335923Y-63151648D01*
X134485792Y-63301517D01*
X134485794Y-63301520D01*
X134603549Y-63477753D01*
X134684660Y-63673572D01*
X134726010Y-63881453D01*
X134726010Y-64093407D01*
X134684660Y-64301288D01*
X134603549Y-64497107D01*
X134603548Y-64497108D01*
X134485792Y-64673343D01*
X134335923Y-64823212D01*
X134335920Y-64823214D01*
X134159687Y-64940969D01*
X133963868Y-65022080D01*
X133807957Y-65053092D01*
X133755988Y-65063430D01*
X133544032Y-65063430D01*
X133492063Y-65053092D01*
X133336152Y-65022080D01*
X133140333Y-64940969D01*
X132964100Y-64823214D01*
X132964097Y-64823212D01*
X132814228Y-64673343D01*
X132696472Y-64497108D01*
X132696471Y-64497107D01*
X132615360Y-64301288D01*
X132574010Y-64093407D01*
X132574010Y-63881453D01*
X132615360Y-63673572D01*
X132696471Y-63477753D01*
X132814226Y-63301520D01*
X132814228Y-63301517D01*
X132964097Y-63151648D01*
X133140332Y-63033892D01*
X133140333Y-63033891D01*
X133336152Y-62952780D01*
X133492063Y-62921767D01*
X133544032Y-62911430D01*
X133755988Y-62911430D01*
X133807957Y-62921767D01*
X133807957Y-62921767D01*
G37*
G36*
X150280990Y-62598430D02*
X147738990Y-62598430D01*
X147738990Y-60056430D01*
X150280990Y-60056430D01*
X150280990Y-62598430D01*
X150280990Y-62598430D01*
G37*
G36*
X144960990Y-62598430D02*
X142418990Y-62598430D01*
X142418990Y-60056430D01*
X144960990Y-60056430D01*
X144960990Y-62598430D01*
X144960990Y-62598430D01*
G37*
G36*
X137581010Y-62598430D02*
X135039010Y-62598430D01*
X135039010Y-60056430D01*
X137581010Y-60056430D01*
X137581010Y-62598430D01*
X137581010Y-62598430D01*
G37*
G36*
X132261010Y-62598430D02*
X129719010Y-62598430D01*
X129719010Y-60056430D01*
X132261010Y-60056430D01*
X132261010Y-62598430D01*
X132261010Y-62598430D01*
G37*
M02*
