G04 #@! TF.GenerationSoftware,KiCad,Pcbnew,(6.0.0-rc1-dev-305-gf0b8b2136)*
G04 #@! TF.CreationDate,2019-06-24T15:23:41-06:00*
G04 #@! TF.ProjectId,Station05,53746174696F6E30352E6B696361645F,rev?*
G04 #@! TF.SameCoordinates,Original*
G04 #@! TF.FileFunction,Soldermask,Bot*
G04 #@! TF.FilePolarity,Negative*
%FSLAX46Y46*%
G04 Gerber Fmt 4.6, Leading zero omitted, Abs format (unit mm)*
G04 Created by KiCad (PCBNEW (6.0.0-rc1-dev-305-gf0b8b2136)) date 06/24/19 15:23:41*
%MOMM*%
%LPD*%
G01*
G04 APERTURE LIST*
%ADD10C,0.100000*%
G04 APERTURE END LIST*
D10*
G36*
X142506553Y-102702899D02*
X142487611Y-102718444D01*
X142472066Y-102737386D01*
X142460515Y-102758997D01*
X142453402Y-102782446D01*
X142451000Y-102806832D01*
X142451000Y-104301000D01*
X137549000Y-104301000D01*
X137549000Y-102699000D01*
X142513847Y-102699000D01*
X142506553Y-102702899D01*
X142506553Y-102702899D01*
G37*
G36*
X143646349Y-101743820D02*
X143646352Y-101743821D01*
X143646351Y-101743821D01*
X143787574Y-101802317D01*
X143787575Y-101802318D01*
X143914674Y-101887243D01*
X144022757Y-101995326D01*
X144022759Y-101995329D01*
X144107683Y-102122426D01*
X144152927Y-102231657D01*
X144166180Y-102263651D01*
X144196000Y-102413569D01*
X144196000Y-102566431D01*
X144166180Y-102716349D01*
X144165312Y-102718444D01*
X144107683Y-102857574D01*
X144107682Y-102857575D01*
X144022757Y-102984674D01*
X143914674Y-103092757D01*
X143914671Y-103092759D01*
X143787574Y-103177683D01*
X143678343Y-103222927D01*
X143646349Y-103236180D01*
X143496431Y-103266000D01*
X143343569Y-103266000D01*
X143193651Y-103236180D01*
X143161657Y-103222927D01*
X143052426Y-103177683D01*
X142925329Y-103092759D01*
X142925326Y-103092757D01*
X142817243Y-102984674D01*
X142732318Y-102857575D01*
X142732317Y-102857574D01*
X142691485Y-102758996D01*
X142679933Y-102737385D01*
X142664388Y-102718443D01*
X142645446Y-102702898D01*
X142623835Y-102691347D01*
X142600386Y-102684234D01*
X142580351Y-102682261D01*
X142588446Y-102677934D01*
X142607388Y-102662388D01*
X142622934Y-102643446D01*
X142634485Y-102621835D01*
X142641598Y-102598386D01*
X142644000Y-102574000D01*
X142644000Y-102413569D01*
X142673820Y-102263651D01*
X142687073Y-102231657D01*
X142732317Y-102122426D01*
X142817241Y-101995329D01*
X142817243Y-101995326D01*
X142925326Y-101887243D01*
X143052425Y-101802318D01*
X143052426Y-101802317D01*
X143193649Y-101743821D01*
X143193648Y-101743821D01*
X143193651Y-101743820D01*
X143343569Y-101714000D01*
X143496431Y-101714000D01*
X143646349Y-101743820D01*
X143646349Y-101743820D01*
G37*
G36*
X136726349Y-101743820D02*
X136726352Y-101743821D01*
X136726351Y-101743821D01*
X136867574Y-101802317D01*
X136867575Y-101802318D01*
X136994674Y-101887243D01*
X137102757Y-101995326D01*
X137102759Y-101995329D01*
X137187683Y-102122426D01*
X137232927Y-102231657D01*
X137246180Y-102263651D01*
X137276000Y-102413569D01*
X137276000Y-102566431D01*
X137246180Y-102716349D01*
X137245312Y-102718444D01*
X137187683Y-102857574D01*
X137187682Y-102857575D01*
X137102757Y-102984674D01*
X136994674Y-103092757D01*
X136994671Y-103092759D01*
X136867574Y-103177683D01*
X136758343Y-103222927D01*
X136726349Y-103236180D01*
X136576431Y-103266000D01*
X136423569Y-103266000D01*
X136273651Y-103236180D01*
X136241657Y-103222927D01*
X136132426Y-103177683D01*
X136005329Y-103092759D01*
X136005326Y-103092757D01*
X135897243Y-102984674D01*
X135812318Y-102857575D01*
X135812317Y-102857574D01*
X135754688Y-102718444D01*
X135753820Y-102716349D01*
X135724000Y-102566431D01*
X135724000Y-102413569D01*
X135753820Y-102263651D01*
X135767073Y-102231657D01*
X135812317Y-102122426D01*
X135897241Y-101995329D01*
X135897243Y-101995326D01*
X136005326Y-101887243D01*
X136132425Y-101802318D01*
X136132426Y-101802317D01*
X136273649Y-101743821D01*
X136273648Y-101743821D01*
X136273651Y-101743820D01*
X136423569Y-101714000D01*
X136576431Y-101714000D01*
X136726349Y-101743820D01*
X136726349Y-101743820D01*
G37*
G36*
X135185721Y-99960174D02*
X135285995Y-100001709D01*
X135376245Y-100062012D01*
X135452988Y-100138755D01*
X135513291Y-100229005D01*
X135554826Y-100329279D01*
X135576000Y-100435730D01*
X135576000Y-100544270D01*
X135554826Y-100650721D01*
X135513291Y-100750995D01*
X135452988Y-100841245D01*
X135376245Y-100917988D01*
X135285995Y-100978291D01*
X135185721Y-101019826D01*
X135079270Y-101041000D01*
X134970730Y-101041000D01*
X134864279Y-101019826D01*
X134764005Y-100978291D01*
X134673755Y-100917988D01*
X134597012Y-100841245D01*
X134536709Y-100750995D01*
X134495174Y-100650721D01*
X134474000Y-100544270D01*
X134474000Y-100435730D01*
X134495174Y-100329279D01*
X134536709Y-100229005D01*
X134597012Y-100138755D01*
X134673755Y-100062012D01*
X134764005Y-100001709D01*
X134864279Y-99960174D01*
X134970730Y-99939000D01*
X135079270Y-99939000D01*
X135185721Y-99960174D01*
X135185721Y-99960174D01*
G37*
G36*
X145055721Y-99960174D02*
X145155995Y-100001709D01*
X145246245Y-100062012D01*
X145322988Y-100138755D01*
X145383291Y-100229005D01*
X145424826Y-100329279D01*
X145446000Y-100435730D01*
X145446000Y-100544270D01*
X145424826Y-100650721D01*
X145383291Y-100750995D01*
X145322988Y-100841245D01*
X145246245Y-100917988D01*
X145155995Y-100978291D01*
X145055721Y-101019826D01*
X144949270Y-101041000D01*
X144840730Y-101041000D01*
X144734279Y-101019826D01*
X144634005Y-100978291D01*
X144543755Y-100917988D01*
X144467012Y-100841245D01*
X144406709Y-100750995D01*
X144365174Y-100650721D01*
X144344000Y-100544270D01*
X144344000Y-100435730D01*
X144365174Y-100329279D01*
X144406709Y-100229005D01*
X144467012Y-100138755D01*
X144543755Y-100062012D01*
X144634005Y-100001709D01*
X144734279Y-99960174D01*
X144840730Y-99939000D01*
X144949270Y-99939000D01*
X145055721Y-99960174D01*
X145055721Y-99960174D01*
G37*
G36*
X142451000Y-100801000D02*
X137549000Y-100801000D01*
X137549000Y-99199000D01*
X142451000Y-99199000D01*
X142451000Y-100801000D01*
X142451000Y-100801000D01*
G37*
M02*
