G04 #@! TF.GenerationSoftware,KiCad,Pcbnew,(6.0.0-rc1-dev-305-gf0b8b2136)*
G04 #@! TF.CreationDate,2019-06-24T15:23:41-06:00*
G04 #@! TF.ProjectId,Station05,53746174696F6E30352E6B696361645F,rev?*
G04 #@! TF.SameCoordinates,Original*
G04 #@! TF.FileFunction,Copper,L1,Top,Signal*
G04 #@! TF.FilePolarity,Positive*
%FSLAX46Y46*%
G04 Gerber Fmt 4.6, Leading zero omitted, Abs format (unit mm)*
G04 Created by KiCad (PCBNEW (6.0.0-rc1-dev-305-gf0b8b2136)) date 06/24/19 15:23:41*
%MOMM*%
%LPD*%
G01*
G04 APERTURE LIST*
G04 #@! TA.AperFunction,SMDPad,CuDef*
%ADD10R,2.440000X2.440000*%
G04 #@! TD*
G04 #@! TA.AperFunction,BGAPad,CuDef*
%ADD11C,2.050000*%
G04 #@! TD*
G04 #@! TA.AperFunction,ComponentPad*
%ADD12C,1.000000*%
G04 #@! TD*
G04 #@! TA.AperFunction,ComponentPad*
%ADD13C,1.450000*%
G04 #@! TD*
G04 #@! TA.AperFunction,ViaPad*
%ADD14C,0.800000*%
G04 #@! TD*
G04 #@! TA.AperFunction,ViaPad*
%ADD15C,1.200000*%
G04 #@! TD*
G04 #@! TA.AperFunction,ViaPad*
%ADD16C,0.711200*%
G04 #@! TD*
G04 #@! TA.AperFunction,Conductor*
%ADD17C,0.250000*%
G04 #@! TD*
G04 #@! TA.AperFunction,Conductor*
%ADD18C,0.304800*%
G04 #@! TD*
G04 #@! TA.AperFunction,Conductor*
%ADD19C,0.254000*%
G04 #@! TD*
G04 APERTURE END LIST*
D10*
G04 #@! TO.P,U10,2*
G04 #@! TO.N,GND*
X179228126Y-102660000D03*
X179228126Y-97340000D03*
X173908126Y-97340000D03*
X173908126Y-102660000D03*
D11*
G04 #@! TO.P,U10,1*
G04 #@! TO.N,Net-(U10-Pad1)*
X176568126Y-100000000D03*
G04 #@! TD*
G04 #@! TO.P,U9,1*
G04 #@! TO.N,Net-(U11-Pad18)*
X174362800Y-87492960D03*
D10*
G04 #@! TO.P,U9,2*
G04 #@! TO.N,GND*
X171702800Y-90152960D03*
X171702800Y-84832960D03*
X177022800Y-84832960D03*
X177022800Y-90152960D03*
G04 #@! TD*
G04 #@! TO.P,U8,2*
G04 #@! TO.N,GND*
X170672810Y-79154460D03*
X170672810Y-73834460D03*
X165352810Y-73834460D03*
X165352810Y-79154460D03*
D11*
G04 #@! TO.P,U8,1*
G04 #@! TO.N,Net-(U11-Pad16)*
X168012810Y-76494460D03*
G04 #@! TD*
G04 #@! TO.P,U7,1*
G04 #@! TO.N,Net-(U11-Pad14)*
X158284063Y-68331070D03*
D10*
G04 #@! TO.P,U7,2*
G04 #@! TO.N,GND*
X155624063Y-70991070D03*
X155624063Y-65671070D03*
X160944063Y-65671070D03*
X160944063Y-70991070D03*
G04 #@! TD*
G04 #@! TO.P,U6,2*
G04 #@! TO.N,GND*
X149009990Y-66647430D03*
X149009990Y-61327430D03*
X143689990Y-61327430D03*
X143689990Y-66647430D03*
D11*
G04 #@! TO.P,U6,1*
G04 #@! TO.N,Net-(U11-Pad12)*
X146349990Y-63987430D03*
G04 #@! TD*
G04 #@! TO.P,U5,1*
G04 #@! TO.N,Net-(U11-Pad10)*
X133650010Y-63987430D03*
D10*
G04 #@! TO.P,U5,2*
G04 #@! TO.N,GND*
X130990010Y-66647430D03*
X130990010Y-61327430D03*
X136310010Y-61327430D03*
X136310010Y-66647430D03*
G04 #@! TD*
G04 #@! TO.P,U4,2*
G04 #@! TO.N,GND*
X124375937Y-70991070D03*
X124375937Y-65671070D03*
X119055937Y-65671070D03*
X119055937Y-70991070D03*
D11*
G04 #@! TO.P,U4,1*
G04 #@! TO.N,Net-(U11-Pad8)*
X121715937Y-68331070D03*
G04 #@! TD*
G04 #@! TO.P,U3,1*
G04 #@! TO.N,Net-(U11-Pad6)*
X111987190Y-76494460D03*
D10*
G04 #@! TO.P,U3,2*
G04 #@! TO.N,GND*
X109327190Y-79154460D03*
X109327190Y-73834460D03*
X114647190Y-73834460D03*
X114647190Y-79154460D03*
G04 #@! TD*
G04 #@! TO.P,U2,2*
G04 #@! TO.N,GND*
X108297200Y-90152960D03*
X108297200Y-84832960D03*
X102977200Y-84832960D03*
X102977200Y-90152960D03*
D11*
G04 #@! TO.P,U2,1*
G04 #@! TO.N,Net-(U11-Pad4)*
X105637200Y-87492960D03*
G04 #@! TD*
G04 #@! TO.P,U1,1*
G04 #@! TO.N,Net-(U1-Pad1)*
X103431874Y-100000000D03*
D10*
G04 #@! TO.P,U1,2*
G04 #@! TO.N,GND*
X100771874Y-102660000D03*
X100771874Y-97340000D03*
X106091874Y-97340000D03*
X106091874Y-102660000D03*
G04 #@! TD*
D12*
G04 #@! TO.P,U11,21*
G04 #@! TO.N,GND*
X144895000Y-100490000D03*
X135025000Y-100490000D03*
D13*
X143420000Y-102490000D03*
X136500000Y-102490000D03*
G04 #@! TD*
D14*
G04 #@! TO.N,GND*
X132371500Y-97873160D03*
X133591500Y-95383160D03*
X135261500Y-93293160D03*
X123571500Y-73253160D03*
X137441500Y-91763160D03*
X147301500Y-97873160D03*
X146461500Y-95363160D03*
X144191500Y-96613160D03*
X135431500Y-68763160D03*
X135844376Y-71023160D03*
X136260906Y-73303160D03*
X136666475Y-75523160D03*
X137061082Y-77683160D03*
X137457516Y-79853160D03*
X137852123Y-82013160D03*
X138257692Y-84233160D03*
X139991500Y-91223160D03*
X138672395Y-86503160D03*
X139098059Y-88833160D03*
X139987751Y-93703160D03*
X143776351Y-73303160D03*
X143365920Y-75513160D03*
X144191639Y-71023160D03*
X144619500Y-68763160D03*
X140892186Y-88833160D03*
X141324904Y-86503160D03*
X141746479Y-84233160D03*
X142158767Y-82013160D03*
X142559913Y-79853160D03*
X142962916Y-77683160D03*
X146291500Y-69053160D03*
X145874287Y-71323160D03*
X145449721Y-73633160D03*
X145045373Y-75833160D03*
X144653890Y-77963160D03*
X144251380Y-80153160D03*
X143859898Y-82283160D03*
X143440847Y-84563160D03*
X143032824Y-86783160D03*
X142595394Y-89163160D03*
X141761500Y-94033160D03*
X144339420Y-89883160D03*
X145606899Y-87783160D03*
X146795915Y-85813160D03*
X148045287Y-83743160D03*
X149155840Y-81903160D03*
X150296571Y-80013160D03*
X151437302Y-78123160D03*
X152632354Y-76143160D03*
X153700658Y-74373160D03*
X142611500Y-91783160D03*
X155171500Y-75223160D03*
X154097144Y-77013160D03*
X152908750Y-78993160D03*
X151750365Y-80923160D03*
X150627992Y-82793160D03*
X149505619Y-84663160D03*
X148281212Y-86703160D03*
X147062807Y-88733160D03*
X145772378Y-90883160D03*
X147041500Y-92048506D03*
X149021500Y-90410498D03*
X150841500Y-88904854D03*
X152651500Y-87407482D03*
X154411500Y-85951473D03*
X156121500Y-84536828D03*
X157871500Y-83033160D03*
X159681500Y-81513160D03*
X161491500Y-80053160D03*
X163201500Y-78643160D03*
X144711500Y-93413160D03*
X143161500Y-95163160D03*
X156281500Y-73433160D03*
D15*
X124375937Y-70991070D03*
X106091874Y-102660000D03*
X100771874Y-102660000D03*
X106091874Y-97340000D03*
X100771874Y-97340000D03*
X102977200Y-90152960D03*
X108297200Y-90152960D03*
X108297200Y-84832960D03*
X102977200Y-84832960D03*
X114647190Y-79154460D03*
X119055937Y-70991070D03*
X124375937Y-65671070D03*
X119055937Y-65671070D03*
X109327190Y-79154460D03*
X114647190Y-73834460D03*
X109327190Y-73834460D03*
X130990010Y-66647430D03*
X136310010Y-66647430D03*
X136310010Y-61327430D03*
X130990010Y-61327430D03*
X143689990Y-66647430D03*
X149009990Y-66647430D03*
X149009990Y-61327430D03*
X143689990Y-61327430D03*
X155624063Y-70991070D03*
X160944063Y-70991070D03*
X160944063Y-65671070D03*
X155624063Y-65671070D03*
X165352810Y-79154460D03*
X170672810Y-79154460D03*
X170672810Y-73834460D03*
X165352810Y-73834460D03*
X171702800Y-90152960D03*
X177022800Y-90152960D03*
X177022800Y-84832960D03*
X171702800Y-84832960D03*
X173908126Y-102660000D03*
X179228126Y-102660000D03*
X173908126Y-97340000D03*
X179228126Y-97340000D03*
D14*
X162551500Y-81293160D03*
X160771500Y-82766914D03*
X158961500Y-84265505D03*
X157191500Y-85730978D03*
X155481500Y-87146774D03*
X153721500Y-88603969D03*
X151941500Y-90077722D03*
X150111500Y-91592874D03*
X148081500Y-93273616D03*
X149111500Y-95104947D03*
X151781500Y-94209291D03*
X154041500Y-93451170D03*
X156381500Y-92666213D03*
X158641500Y-91908091D03*
X160851500Y-91166742D03*
X162971500Y-90455583D03*
X165181500Y-89714234D03*
X167341500Y-88989657D03*
X169411500Y-88295271D03*
X171481500Y-87600885D03*
X167831500Y-90483160D03*
X165651500Y-91206511D03*
X163421500Y-91946452D03*
X161321500Y-92643259D03*
X159111500Y-93393160D03*
X156881500Y-94163160D03*
X154531500Y-94943160D03*
X152261500Y-95683160D03*
X149591500Y-96603160D03*
X144691500Y-98273160D03*
X149691500Y-98442859D03*
X152621500Y-98526724D03*
X155041500Y-98595992D03*
X157391500Y-98663256D03*
X159751500Y-98730807D03*
X162131500Y-98798930D03*
X164461500Y-98865622D03*
X166901500Y-98935463D03*
X169291500Y-99003873D03*
X171681500Y-99072283D03*
X171641500Y-100683160D03*
X169221500Y-100608813D03*
X166861500Y-100536309D03*
X164431500Y-100461654D03*
X162111500Y-100390380D03*
X159711500Y-100316648D03*
X157371500Y-100244759D03*
X155001500Y-100171947D03*
X152561500Y-100096985D03*
X149661500Y-100027277D03*
X147481500Y-99960303D03*
X133681500Y-69103160D03*
X134519466Y-73643160D03*
X134931066Y-75873160D03*
X134096792Y-71353160D03*
X135326055Y-78013160D03*
X135726580Y-80183160D03*
X136128951Y-82363160D03*
X136538706Y-84583160D03*
X136955843Y-86843160D03*
X137384056Y-89163160D03*
X138221500Y-94003160D03*
X135726467Y-89793160D03*
X134506542Y-87793160D03*
X133311015Y-85833160D03*
X132109389Y-83863160D03*
X130968759Y-81993160D03*
X129809829Y-80093160D03*
X128650899Y-78193160D03*
X127485871Y-76283160D03*
X126290345Y-74323160D03*
X124761500Y-75263160D03*
X125959150Y-77233160D03*
X127102084Y-79113160D03*
X128251098Y-81003160D03*
X129418350Y-82923160D03*
X130555205Y-84793160D03*
X131758934Y-86773160D03*
X132950505Y-88733160D03*
X134166392Y-90733160D03*
X136811500Y-95123160D03*
X132861500Y-91852187D03*
X131021500Y-90328493D03*
X129221500Y-88837923D03*
X127421500Y-87347353D03*
X125691500Y-85914750D03*
X123921500Y-84449023D03*
X122201500Y-83024701D03*
X120471500Y-81592098D03*
X118701500Y-80126372D03*
X116861500Y-78602679D03*
X117611500Y-81463160D03*
X119361500Y-82916350D03*
X121081500Y-84344627D03*
X122821500Y-85789512D03*
X124571500Y-87242703D03*
X126281500Y-88662677D03*
X128091500Y-90165691D03*
X129871500Y-91643792D03*
X131751500Y-93204934D03*
X135791500Y-96559727D03*
X130741500Y-94886066D03*
X128381500Y-94103920D03*
X126101500Y-93348286D03*
X123911500Y-92622480D03*
X121771500Y-91913244D03*
X119591500Y-91190752D03*
X115141500Y-89715941D03*
X112831500Y-88950366D03*
X110581500Y-88204675D03*
X108341500Y-87462298D03*
X117381500Y-90458318D03*
X112271500Y-90643160D03*
X114571500Y-91411417D03*
X116781500Y-92149612D03*
X118991500Y-92887807D03*
X121231500Y-93636022D03*
X123401500Y-94360856D03*
X125531500Y-95072330D03*
X127851500Y-95847267D03*
X130191500Y-96628885D03*
X108711500Y-99008860D03*
X135011500Y-98238885D03*
X117971500Y-98737759D03*
X113281500Y-98875066D03*
X115611500Y-98806852D03*
X110951500Y-98943280D03*
X120321500Y-98668960D03*
X122681500Y-98599867D03*
X124991500Y-98532238D03*
X127411500Y-98461389D03*
X129931500Y-98387611D03*
X108771500Y-100693160D03*
X111001500Y-100626891D03*
X113311500Y-100558245D03*
X115661500Y-100488410D03*
X118021500Y-100418278D03*
X120391500Y-100347849D03*
X125021500Y-100210258D03*
X127441500Y-100138343D03*
X129941500Y-100064050D03*
X132391500Y-99991243D03*
X122731500Y-100278310D03*
D16*
G04 #@! TO.N,Net-(U1-Pad1)*
X137000000Y-99000000D03*
X105081500Y-99950857D03*
G04 #@! TO.N,Net-(U11-Pad4)*
X137642600Y-98216720D03*
X107201500Y-88017095D03*
G04 #@! TO.N,Net-(U11-Pad6)*
X138100000Y-97300000D03*
X113421500Y-77327554D03*
G04 #@! TO.N,Net-(U11-Pad8)*
X138700000Y-96500000D03*
X122529321Y-69753160D03*
G04 #@! TO.N,Net-(U11-Pad10)*
X139500000Y-95864680D03*
X133944687Y-65593160D03*
G04 #@! TO.N,Net-(U11-Pad12)*
X140500000Y-95851980D03*
X146053360Y-65603160D03*
G04 #@! TO.N,Net-(U11-Pad14)*
X141300000Y-96500000D03*
X157458830Y-69753160D03*
G04 #@! TO.N,Net-(U11-Pad16)*
X141900000Y-97300000D03*
X166591500Y-77317344D03*
G04 #@! TO.N,Net-(U11-Pad18)*
X142346680Y-98183700D03*
X172801500Y-88014305D03*
G04 #@! TO.N,Net-(U10-Pad1)*
X143000000Y-99000000D03*
X174941500Y-99954737D03*
G04 #@! TD*
D17*
G04 #@! TO.N,GND*
X167831500Y-90483160D02*
X167831500Y-90483160D01*
X171641500Y-100683160D02*
X171641500Y-100683160D01*
X133681500Y-69103160D02*
X133681500Y-69103160D01*
X134096792Y-71353160D02*
X134104175Y-71393160D01*
X117611500Y-81463160D02*
X117611500Y-81463160D01*
X112271500Y-90643160D02*
X112271500Y-90643160D01*
X108771500Y-100693160D02*
X108771500Y-100693160D01*
D18*
G04 #@! TO.N,Net-(U1-Pad1)*
X103431874Y-100000000D02*
X105081500Y-99950857D01*
G04 #@! TO.N,Net-(U11-Pad4)*
X105637200Y-87492960D02*
X107201500Y-88017095D01*
G04 #@! TO.N,Net-(U11-Pad6)*
X111987190Y-76494460D02*
X113421500Y-77327554D01*
G04 #@! TO.N,Net-(U11-Pad8)*
X121715937Y-68331070D02*
X122529321Y-69753160D01*
G04 #@! TO.N,Net-(U11-Pad10)*
X133650010Y-63987430D02*
X133944687Y-65593160D01*
G04 #@! TO.N,Net-(U11-Pad12)*
X146349990Y-63987430D02*
X146053360Y-65603160D01*
G04 #@! TO.N,Net-(U11-Pad14)*
X158284063Y-68331070D02*
X157458830Y-69753160D01*
G04 #@! TO.N,Net-(U11-Pad16)*
X168012810Y-76494460D02*
X166591500Y-77317344D01*
G04 #@! TO.N,Net-(U11-Pad18)*
X174362800Y-87492960D02*
X172801500Y-88014305D01*
G04 #@! TO.N,Net-(U10-Pad1)*
X176568126Y-100000000D02*
X174941500Y-99954737D01*
G04 #@! TD*
D19*
G04 #@! TO.N,GND*
G36*
X183340000Y-105343160D02*
X96660000Y-105343160D01*
X96660000Y-102945750D01*
X98916874Y-102945750D01*
X98916874Y-103942542D01*
X98941277Y-104065223D01*
X98989144Y-104180785D01*
X99058637Y-104284789D01*
X99147085Y-104373237D01*
X99251089Y-104442730D01*
X99366651Y-104490597D01*
X99489332Y-104515000D01*
X100486124Y-104515000D01*
X100644874Y-104356250D01*
X100644874Y-102787000D01*
X100898874Y-102787000D01*
X100898874Y-104356250D01*
X101057624Y-104515000D01*
X102054416Y-104515000D01*
X102177097Y-104490597D01*
X102292659Y-104442730D01*
X102396663Y-104373237D01*
X102485111Y-104284789D01*
X102554604Y-104180785D01*
X102602471Y-104065223D01*
X102626874Y-103942542D01*
X102626874Y-102945750D01*
X104236874Y-102945750D01*
X104236874Y-103942542D01*
X104261277Y-104065223D01*
X104309144Y-104180785D01*
X104378637Y-104284789D01*
X104467085Y-104373237D01*
X104571089Y-104442730D01*
X104686651Y-104490597D01*
X104809332Y-104515000D01*
X105806124Y-104515000D01*
X105964874Y-104356250D01*
X105964874Y-102787000D01*
X106218874Y-102787000D01*
X106218874Y-104356250D01*
X106377624Y-104515000D01*
X107374416Y-104515000D01*
X107497097Y-104490597D01*
X107612659Y-104442730D01*
X107716663Y-104373237D01*
X107805111Y-104284789D01*
X107874604Y-104180785D01*
X107922471Y-104065223D01*
X107946874Y-103942542D01*
X107946874Y-103429133D01*
X135740472Y-103429133D01*
X135802965Y-103665450D01*
X136045678Y-103778850D01*
X136305849Y-103842719D01*
X136573482Y-103854604D01*
X136838291Y-103814048D01*
X137090100Y-103722609D01*
X137197035Y-103665450D01*
X137259528Y-103429133D01*
X142660472Y-103429133D01*
X142722965Y-103665450D01*
X142965678Y-103778850D01*
X143225849Y-103842719D01*
X143493482Y-103854604D01*
X143758291Y-103814048D01*
X144010100Y-103722609D01*
X144117035Y-103665450D01*
X144179528Y-103429133D01*
X143420000Y-102669605D01*
X142660472Y-103429133D01*
X137259528Y-103429133D01*
X136500000Y-102669605D01*
X135740472Y-103429133D01*
X107946874Y-103429133D01*
X107946874Y-102945750D01*
X107788124Y-102787000D01*
X106218874Y-102787000D01*
X105964874Y-102787000D01*
X104395624Y-102787000D01*
X104236874Y-102945750D01*
X102626874Y-102945750D01*
X102468124Y-102787000D01*
X100898874Y-102787000D01*
X100644874Y-102787000D01*
X99075624Y-102787000D01*
X98916874Y-102945750D01*
X96660000Y-102945750D01*
X96660000Y-102563482D01*
X135135396Y-102563482D01*
X135175952Y-102828291D01*
X135267391Y-103080100D01*
X135324550Y-103187035D01*
X135560867Y-103249528D01*
X136320395Y-102490000D01*
X136679605Y-102490000D01*
X137439133Y-103249528D01*
X137675450Y-103187035D01*
X137788850Y-102944322D01*
X137852719Y-102684151D01*
X137858077Y-102563482D01*
X142055396Y-102563482D01*
X142095952Y-102828291D01*
X142187391Y-103080100D01*
X142244550Y-103187035D01*
X142480867Y-103249528D01*
X143240395Y-102490000D01*
X143599605Y-102490000D01*
X144359133Y-103249528D01*
X144595450Y-103187035D01*
X144708182Y-102945750D01*
X172053126Y-102945750D01*
X172053126Y-103942542D01*
X172077529Y-104065223D01*
X172125396Y-104180785D01*
X172194889Y-104284789D01*
X172283337Y-104373237D01*
X172387341Y-104442730D01*
X172502903Y-104490597D01*
X172625584Y-104515000D01*
X173622376Y-104515000D01*
X173781126Y-104356250D01*
X173781126Y-102787000D01*
X174035126Y-102787000D01*
X174035126Y-104356250D01*
X174193876Y-104515000D01*
X175190668Y-104515000D01*
X175313349Y-104490597D01*
X175428911Y-104442730D01*
X175532915Y-104373237D01*
X175621363Y-104284789D01*
X175690856Y-104180785D01*
X175738723Y-104065223D01*
X175763126Y-103942542D01*
X175763126Y-102945750D01*
X177373126Y-102945750D01*
X177373126Y-103942542D01*
X177397529Y-104065223D01*
X177445396Y-104180785D01*
X177514889Y-104284789D01*
X177603337Y-104373237D01*
X177707341Y-104442730D01*
X177822903Y-104490597D01*
X177945584Y-104515000D01*
X178942376Y-104515000D01*
X179101126Y-104356250D01*
X179101126Y-102787000D01*
X179355126Y-102787000D01*
X179355126Y-104356250D01*
X179513876Y-104515000D01*
X180510668Y-104515000D01*
X180633349Y-104490597D01*
X180748911Y-104442730D01*
X180852915Y-104373237D01*
X180941363Y-104284789D01*
X181010856Y-104180785D01*
X181058723Y-104065223D01*
X181083126Y-103942542D01*
X181083126Y-102945750D01*
X180924376Y-102787000D01*
X179355126Y-102787000D01*
X179101126Y-102787000D01*
X177531876Y-102787000D01*
X177373126Y-102945750D01*
X175763126Y-102945750D01*
X175604376Y-102787000D01*
X174035126Y-102787000D01*
X173781126Y-102787000D01*
X172211876Y-102787000D01*
X172053126Y-102945750D01*
X144708182Y-102945750D01*
X144708850Y-102944322D01*
X144772719Y-102684151D01*
X144784604Y-102416518D01*
X144744048Y-102151709D01*
X144652609Y-101899900D01*
X144595450Y-101792965D01*
X144359133Y-101730472D01*
X143599605Y-102490000D01*
X143240395Y-102490000D01*
X142480867Y-101730472D01*
X142244550Y-101792965D01*
X142131150Y-102035678D01*
X142067281Y-102295849D01*
X142055396Y-102563482D01*
X137858077Y-102563482D01*
X137864604Y-102416518D01*
X137824048Y-102151709D01*
X137732609Y-101899900D01*
X137675450Y-101792965D01*
X137439133Y-101730472D01*
X136679605Y-102490000D01*
X136320395Y-102490000D01*
X135560867Y-101730472D01*
X135324550Y-101792965D01*
X135211150Y-102035678D01*
X135147281Y-102295849D01*
X135135396Y-102563482D01*
X96660000Y-102563482D01*
X96660000Y-101377458D01*
X98916874Y-101377458D01*
X98916874Y-102374250D01*
X99075624Y-102533000D01*
X100644874Y-102533000D01*
X100644874Y-100963750D01*
X100486124Y-100805000D01*
X99489332Y-100805000D01*
X99366651Y-100829403D01*
X99251089Y-100877270D01*
X99147085Y-100946763D01*
X99058637Y-101035211D01*
X98989144Y-101139215D01*
X98941277Y-101254777D01*
X98916874Y-101377458D01*
X96660000Y-101377458D01*
X96660000Y-97625750D01*
X98916874Y-97625750D01*
X98916874Y-98622542D01*
X98941277Y-98745223D01*
X98989144Y-98860785D01*
X99058637Y-98964789D01*
X99147085Y-99053237D01*
X99251089Y-99122730D01*
X99366651Y-99170597D01*
X99489332Y-99195000D01*
X100486124Y-99195000D01*
X100644874Y-99036250D01*
X100644874Y-97467000D01*
X100898874Y-97467000D01*
X100898874Y-99036250D01*
X101057624Y-99195000D01*
X101973293Y-99195000D01*
X101960801Y-99213695D01*
X101835667Y-99515796D01*
X101771874Y-99836504D01*
X101771874Y-100163496D01*
X101835667Y-100484204D01*
X101960801Y-100786305D01*
X101973293Y-100805000D01*
X101057624Y-100805000D01*
X100898874Y-100963750D01*
X100898874Y-102533000D01*
X102468124Y-102533000D01*
X102626874Y-102374250D01*
X102626874Y-101458581D01*
X102645569Y-101471073D01*
X102947670Y-101596207D01*
X103268378Y-101660000D01*
X103595370Y-101660000D01*
X103916078Y-101596207D01*
X104218179Y-101471073D01*
X104236874Y-101458581D01*
X104236874Y-102374250D01*
X104395624Y-102533000D01*
X105964874Y-102533000D01*
X105964874Y-100963750D01*
X106218874Y-100963750D01*
X106218874Y-102533000D01*
X107788124Y-102533000D01*
X107946874Y-102374250D01*
X107946874Y-101377458D01*
X107925135Y-101268166D01*
X134426439Y-101268166D01*
X134461550Y-101481588D01*
X134665826Y-101572458D01*
X134883905Y-101621731D01*
X135107406Y-101627511D01*
X135327740Y-101589577D01*
X135428485Y-101550867D01*
X135740472Y-101550867D01*
X136500000Y-102310395D01*
X137259528Y-101550867D01*
X142660472Y-101550867D01*
X143420000Y-102310395D01*
X144179528Y-101550867D01*
X144117035Y-101314550D01*
X144017759Y-101268166D01*
X144296439Y-101268166D01*
X144331550Y-101481588D01*
X144535826Y-101572458D01*
X144753905Y-101621731D01*
X144977406Y-101627511D01*
X145197740Y-101589577D01*
X145406440Y-101509387D01*
X145458450Y-101481588D01*
X145475580Y-101377458D01*
X172053126Y-101377458D01*
X172053126Y-102374250D01*
X172211876Y-102533000D01*
X173781126Y-102533000D01*
X173781126Y-100963750D01*
X173622376Y-100805000D01*
X172625584Y-100805000D01*
X172502903Y-100829403D01*
X172387341Y-100877270D01*
X172283337Y-100946763D01*
X172194889Y-101035211D01*
X172125396Y-101139215D01*
X172077529Y-101254777D01*
X172053126Y-101377458D01*
X145475580Y-101377458D01*
X145493561Y-101268166D01*
X144895000Y-100669605D01*
X144296439Y-101268166D01*
X144017759Y-101268166D01*
X143874322Y-101201150D01*
X143614151Y-101137281D01*
X143346518Y-101125396D01*
X143081709Y-101165952D01*
X142829900Y-101257391D01*
X142722965Y-101314550D01*
X142660472Y-101550867D01*
X137259528Y-101550867D01*
X137197035Y-101314550D01*
X136954322Y-101201150D01*
X136694151Y-101137281D01*
X136426518Y-101125396D01*
X136161709Y-101165952D01*
X135909900Y-101257391D01*
X135802965Y-101314550D01*
X135740472Y-101550867D01*
X135428485Y-101550867D01*
X135536440Y-101509387D01*
X135588450Y-101481588D01*
X135623561Y-101268166D01*
X135025000Y-100669605D01*
X134426439Y-101268166D01*
X107925135Y-101268166D01*
X107922471Y-101254777D01*
X107874604Y-101139215D01*
X107805111Y-101035211D01*
X107716663Y-100946763D01*
X107612659Y-100877270D01*
X107497097Y-100829403D01*
X107374416Y-100805000D01*
X106377624Y-100805000D01*
X106218874Y-100963750D01*
X105964874Y-100963750D01*
X105806124Y-100805000D01*
X105586217Y-100805000D01*
X105712971Y-100720306D01*
X105850949Y-100582328D01*
X105857578Y-100572406D01*
X133887489Y-100572406D01*
X133925423Y-100792740D01*
X134005613Y-101001440D01*
X134033412Y-101053450D01*
X134246834Y-101088561D01*
X134845395Y-100490000D01*
X135204605Y-100490000D01*
X135803166Y-101088561D01*
X136016588Y-101053450D01*
X136107458Y-100849174D01*
X136156731Y-100631095D01*
X136158248Y-100572406D01*
X143757489Y-100572406D01*
X143795423Y-100792740D01*
X143875613Y-101001440D01*
X143903412Y-101053450D01*
X144116834Y-101088561D01*
X144715395Y-100490000D01*
X145074605Y-100490000D01*
X145673166Y-101088561D01*
X145886588Y-101053450D01*
X145977458Y-100849174D01*
X146026731Y-100631095D01*
X146032511Y-100407594D01*
X145994577Y-100187260D01*
X145914387Y-99978560D01*
X145886588Y-99926550D01*
X145673166Y-99891439D01*
X145074605Y-100490000D01*
X144715395Y-100490000D01*
X144116834Y-99891439D01*
X143903412Y-99926550D01*
X143812542Y-100130826D01*
X143763269Y-100348905D01*
X143757489Y-100572406D01*
X136158248Y-100572406D01*
X136162511Y-100407594D01*
X136124577Y-100187260D01*
X136044387Y-99978560D01*
X136016588Y-99926550D01*
X135803166Y-99891439D01*
X135204605Y-100490000D01*
X134845395Y-100490000D01*
X134246834Y-99891439D01*
X134033412Y-99926550D01*
X133942542Y-100130826D01*
X133893269Y-100348905D01*
X133887489Y-100572406D01*
X105857578Y-100572406D01*
X105959358Y-100420082D01*
X106034032Y-100239804D01*
X106072100Y-100048423D01*
X106072100Y-99853291D01*
X106043963Y-99711834D01*
X134426439Y-99711834D01*
X135025000Y-100310395D01*
X135623561Y-99711834D01*
X135588450Y-99498412D01*
X135384174Y-99407542D01*
X135166095Y-99358269D01*
X134942594Y-99352489D01*
X134722260Y-99390423D01*
X134513560Y-99470613D01*
X134461550Y-99498412D01*
X134426439Y-99711834D01*
X106043963Y-99711834D01*
X106034032Y-99661910D01*
X105959358Y-99481632D01*
X105850949Y-99319386D01*
X105726563Y-99195000D01*
X105806124Y-99195000D01*
X105964874Y-99036250D01*
X105964874Y-97467000D01*
X106218874Y-97467000D01*
X106218874Y-99036250D01*
X106377624Y-99195000D01*
X107374416Y-99195000D01*
X107497097Y-99170597D01*
X107612659Y-99122730D01*
X107716663Y-99053237D01*
X107805111Y-98964789D01*
X107846775Y-98902434D01*
X136009400Y-98902434D01*
X136009400Y-99097566D01*
X136047468Y-99288947D01*
X136122142Y-99469225D01*
X136230551Y-99631471D01*
X136368529Y-99769449D01*
X136530775Y-99877858D01*
X136711053Y-99952532D01*
X136902434Y-99990600D01*
X137097566Y-99990600D01*
X137288947Y-99952532D01*
X137469225Y-99877858D01*
X137631471Y-99769449D01*
X137769449Y-99631471D01*
X137877858Y-99469225D01*
X137952532Y-99288947D01*
X137980363Y-99149032D01*
X138111825Y-99094578D01*
X138274071Y-98986169D01*
X138412049Y-98848191D01*
X138520458Y-98685945D01*
X138595132Y-98505667D01*
X138633200Y-98314286D01*
X138633200Y-98135111D01*
X138731471Y-98069449D01*
X138869449Y-97931471D01*
X138977858Y-97769225D01*
X139052532Y-97588947D01*
X139087812Y-97411580D01*
X139169225Y-97377858D01*
X139331471Y-97269449D01*
X139469449Y-97131471D01*
X139577858Y-96969225D01*
X139627524Y-96849321D01*
X139788947Y-96817212D01*
X139969225Y-96742538D01*
X140009503Y-96715625D01*
X140030775Y-96729838D01*
X140211053Y-96804512D01*
X140366743Y-96835481D01*
X140422142Y-96969225D01*
X140530551Y-97131471D01*
X140668529Y-97269449D01*
X140830775Y-97377858D01*
X140912188Y-97411580D01*
X140947468Y-97588947D01*
X141022142Y-97769225D01*
X141130551Y-97931471D01*
X141268529Y-98069449D01*
X141356080Y-98127949D01*
X141356080Y-98281266D01*
X141394148Y-98472647D01*
X141468822Y-98652925D01*
X141577231Y-98815171D01*
X141715209Y-98953149D01*
X141877455Y-99061558D01*
X142013442Y-99117886D01*
X142047468Y-99288947D01*
X142122142Y-99469225D01*
X142230551Y-99631471D01*
X142368529Y-99769449D01*
X142530775Y-99877858D01*
X142711053Y-99952532D01*
X142902434Y-99990600D01*
X143097566Y-99990600D01*
X143288947Y-99952532D01*
X143469225Y-99877858D01*
X143631471Y-99769449D01*
X143689086Y-99711834D01*
X144296439Y-99711834D01*
X144895000Y-100310395D01*
X145348224Y-99857171D01*
X173950900Y-99857171D01*
X173950900Y-100052303D01*
X173988968Y-100243684D01*
X174063642Y-100423962D01*
X174172051Y-100586208D01*
X174310029Y-100724186D01*
X174430976Y-100805000D01*
X174193876Y-100805000D01*
X174035126Y-100963750D01*
X174035126Y-102533000D01*
X175604376Y-102533000D01*
X175763126Y-102374250D01*
X175763126Y-101458581D01*
X175781821Y-101471073D01*
X176083922Y-101596207D01*
X176404630Y-101660000D01*
X176731622Y-101660000D01*
X177052330Y-101596207D01*
X177354431Y-101471073D01*
X177373126Y-101458581D01*
X177373126Y-102374250D01*
X177531876Y-102533000D01*
X179101126Y-102533000D01*
X179101126Y-100963750D01*
X179355126Y-100963750D01*
X179355126Y-102533000D01*
X180924376Y-102533000D01*
X181083126Y-102374250D01*
X181083126Y-101377458D01*
X181058723Y-101254777D01*
X181010856Y-101139215D01*
X180941363Y-101035211D01*
X180852915Y-100946763D01*
X180748911Y-100877270D01*
X180633349Y-100829403D01*
X180510668Y-100805000D01*
X179513876Y-100805000D01*
X179355126Y-100963750D01*
X179101126Y-100963750D01*
X178942376Y-100805000D01*
X178026707Y-100805000D01*
X178039199Y-100786305D01*
X178164333Y-100484204D01*
X178228126Y-100163496D01*
X178228126Y-99836504D01*
X178164333Y-99515796D01*
X178039199Y-99213695D01*
X178026707Y-99195000D01*
X178942376Y-99195000D01*
X179101126Y-99036250D01*
X179101126Y-97467000D01*
X179355126Y-97467000D01*
X179355126Y-99036250D01*
X179513876Y-99195000D01*
X180510668Y-99195000D01*
X180633349Y-99170597D01*
X180748911Y-99122730D01*
X180852915Y-99053237D01*
X180941363Y-98964789D01*
X181010856Y-98860785D01*
X181058723Y-98745223D01*
X181083126Y-98622542D01*
X181083126Y-97625750D01*
X180924376Y-97467000D01*
X179355126Y-97467000D01*
X179101126Y-97467000D01*
X177531876Y-97467000D01*
X177373126Y-97625750D01*
X177373126Y-98541419D01*
X177354431Y-98528927D01*
X177052330Y-98403793D01*
X176731622Y-98340000D01*
X176404630Y-98340000D01*
X176083922Y-98403793D01*
X175781821Y-98528927D01*
X175763126Y-98541419D01*
X175763126Y-97625750D01*
X175604376Y-97467000D01*
X174035126Y-97467000D01*
X174035126Y-99036250D01*
X174193876Y-99195000D01*
X174300317Y-99195000D01*
X174172051Y-99323266D01*
X174063642Y-99485512D01*
X173988968Y-99665790D01*
X173950900Y-99857171D01*
X145348224Y-99857171D01*
X145493561Y-99711834D01*
X145458450Y-99498412D01*
X145254174Y-99407542D01*
X145036095Y-99358269D01*
X144812594Y-99352489D01*
X144592260Y-99390423D01*
X144383560Y-99470613D01*
X144331550Y-99498412D01*
X144296439Y-99711834D01*
X143689086Y-99711834D01*
X143769449Y-99631471D01*
X143877858Y-99469225D01*
X143952532Y-99288947D01*
X143990600Y-99097566D01*
X143990600Y-98902434D01*
X143952532Y-98711053D01*
X143877858Y-98530775D01*
X143769449Y-98368529D01*
X143631471Y-98230551D01*
X143469225Y-98122142D01*
X143333238Y-98065814D01*
X143299212Y-97894753D01*
X143224538Y-97714475D01*
X143165255Y-97625750D01*
X172053126Y-97625750D01*
X172053126Y-98622542D01*
X172077529Y-98745223D01*
X172125396Y-98860785D01*
X172194889Y-98964789D01*
X172283337Y-99053237D01*
X172387341Y-99122730D01*
X172502903Y-99170597D01*
X172625584Y-99195000D01*
X173622376Y-99195000D01*
X173781126Y-99036250D01*
X173781126Y-97467000D01*
X172211876Y-97467000D01*
X172053126Y-97625750D01*
X143165255Y-97625750D01*
X143116129Y-97552229D01*
X142978151Y-97414251D01*
X142890600Y-97355751D01*
X142890600Y-97202434D01*
X142852532Y-97011053D01*
X142777858Y-96830775D01*
X142669449Y-96668529D01*
X142531471Y-96530551D01*
X142369225Y-96422142D01*
X142287812Y-96388420D01*
X142252532Y-96211053D01*
X142188911Y-96057458D01*
X172053126Y-96057458D01*
X172053126Y-97054250D01*
X172211876Y-97213000D01*
X173781126Y-97213000D01*
X173781126Y-95643750D01*
X174035126Y-95643750D01*
X174035126Y-97213000D01*
X175604376Y-97213000D01*
X175763126Y-97054250D01*
X175763126Y-96057458D01*
X177373126Y-96057458D01*
X177373126Y-97054250D01*
X177531876Y-97213000D01*
X179101126Y-97213000D01*
X179101126Y-95643750D01*
X179355126Y-95643750D01*
X179355126Y-97213000D01*
X180924376Y-97213000D01*
X181083126Y-97054250D01*
X181083126Y-96057458D01*
X181058723Y-95934777D01*
X181010856Y-95819215D01*
X180941363Y-95715211D01*
X180852915Y-95626763D01*
X180748911Y-95557270D01*
X180633349Y-95509403D01*
X180510668Y-95485000D01*
X179513876Y-95485000D01*
X179355126Y-95643750D01*
X179101126Y-95643750D01*
X178942376Y-95485000D01*
X177945584Y-95485000D01*
X177822903Y-95509403D01*
X177707341Y-95557270D01*
X177603337Y-95626763D01*
X177514889Y-95715211D01*
X177445396Y-95819215D01*
X177397529Y-95934777D01*
X177373126Y-96057458D01*
X175763126Y-96057458D01*
X175738723Y-95934777D01*
X175690856Y-95819215D01*
X175621363Y-95715211D01*
X175532915Y-95626763D01*
X175428911Y-95557270D01*
X175313349Y-95509403D01*
X175190668Y-95485000D01*
X174193876Y-95485000D01*
X174035126Y-95643750D01*
X173781126Y-95643750D01*
X173622376Y-95485000D01*
X172625584Y-95485000D01*
X172502903Y-95509403D01*
X172387341Y-95557270D01*
X172283337Y-95626763D01*
X172194889Y-95715211D01*
X172125396Y-95819215D01*
X172077529Y-95934777D01*
X172053126Y-96057458D01*
X142188911Y-96057458D01*
X142177858Y-96030775D01*
X142069449Y-95868529D01*
X141931471Y-95730551D01*
X141769225Y-95622142D01*
X141588947Y-95547468D01*
X141433257Y-95516499D01*
X141377858Y-95382755D01*
X141269449Y-95220509D01*
X141131471Y-95082531D01*
X140969225Y-94974122D01*
X140788947Y-94899448D01*
X140597566Y-94861380D01*
X140402434Y-94861380D01*
X140211053Y-94899448D01*
X140030775Y-94974122D01*
X139990497Y-95001035D01*
X139969225Y-94986822D01*
X139788947Y-94912148D01*
X139597566Y-94874080D01*
X139402434Y-94874080D01*
X139211053Y-94912148D01*
X139030775Y-94986822D01*
X138868529Y-95095231D01*
X138730551Y-95233209D01*
X138622142Y-95395455D01*
X138572476Y-95515359D01*
X138411053Y-95547468D01*
X138230775Y-95622142D01*
X138068529Y-95730551D01*
X137930551Y-95868529D01*
X137822142Y-96030775D01*
X137747468Y-96211053D01*
X137712188Y-96388420D01*
X137630775Y-96422142D01*
X137468529Y-96530551D01*
X137330551Y-96668529D01*
X137222142Y-96830775D01*
X137147468Y-97011053D01*
X137109400Y-97202434D01*
X137109400Y-97381609D01*
X137011129Y-97447271D01*
X136873151Y-97585249D01*
X136764742Y-97747495D01*
X136690068Y-97927773D01*
X136662237Y-98067688D01*
X136530775Y-98122142D01*
X136368529Y-98230551D01*
X136230551Y-98368529D01*
X136122142Y-98530775D01*
X136047468Y-98711053D01*
X136009400Y-98902434D01*
X107846775Y-98902434D01*
X107874604Y-98860785D01*
X107922471Y-98745223D01*
X107946874Y-98622542D01*
X107946874Y-97625750D01*
X107788124Y-97467000D01*
X106218874Y-97467000D01*
X105964874Y-97467000D01*
X104395624Y-97467000D01*
X104236874Y-97625750D01*
X104236874Y-98541419D01*
X104218179Y-98528927D01*
X103916078Y-98403793D01*
X103595370Y-98340000D01*
X103268378Y-98340000D01*
X102947670Y-98403793D01*
X102645569Y-98528927D01*
X102626874Y-98541419D01*
X102626874Y-97625750D01*
X102468124Y-97467000D01*
X100898874Y-97467000D01*
X100644874Y-97467000D01*
X99075624Y-97467000D01*
X98916874Y-97625750D01*
X96660000Y-97625750D01*
X96660000Y-96057458D01*
X98916874Y-96057458D01*
X98916874Y-97054250D01*
X99075624Y-97213000D01*
X100644874Y-97213000D01*
X100644874Y-95643750D01*
X100898874Y-95643750D01*
X100898874Y-97213000D01*
X102468124Y-97213000D01*
X102626874Y-97054250D01*
X102626874Y-96057458D01*
X104236874Y-96057458D01*
X104236874Y-97054250D01*
X104395624Y-97213000D01*
X105964874Y-97213000D01*
X105964874Y-95643750D01*
X106218874Y-95643750D01*
X106218874Y-97213000D01*
X107788124Y-97213000D01*
X107946874Y-97054250D01*
X107946874Y-96057458D01*
X107922471Y-95934777D01*
X107874604Y-95819215D01*
X107805111Y-95715211D01*
X107716663Y-95626763D01*
X107612659Y-95557270D01*
X107497097Y-95509403D01*
X107374416Y-95485000D01*
X106377624Y-95485000D01*
X106218874Y-95643750D01*
X105964874Y-95643750D01*
X105806124Y-95485000D01*
X104809332Y-95485000D01*
X104686651Y-95509403D01*
X104571089Y-95557270D01*
X104467085Y-95626763D01*
X104378637Y-95715211D01*
X104309144Y-95819215D01*
X104261277Y-95934777D01*
X104236874Y-96057458D01*
X102626874Y-96057458D01*
X102602471Y-95934777D01*
X102554604Y-95819215D01*
X102485111Y-95715211D01*
X102396663Y-95626763D01*
X102292659Y-95557270D01*
X102177097Y-95509403D01*
X102054416Y-95485000D01*
X101057624Y-95485000D01*
X100898874Y-95643750D01*
X100644874Y-95643750D01*
X100486124Y-95485000D01*
X99489332Y-95485000D01*
X99366651Y-95509403D01*
X99251089Y-95557270D01*
X99147085Y-95626763D01*
X99058637Y-95715211D01*
X98989144Y-95819215D01*
X98941277Y-95934777D01*
X98916874Y-96057458D01*
X96660000Y-96057458D01*
X96660000Y-90438710D01*
X101122200Y-90438710D01*
X101122200Y-91435502D01*
X101146603Y-91558183D01*
X101194470Y-91673745D01*
X101263963Y-91777749D01*
X101352411Y-91866197D01*
X101456415Y-91935690D01*
X101571977Y-91983557D01*
X101694658Y-92007960D01*
X102691450Y-92007960D01*
X102850200Y-91849210D01*
X102850200Y-90279960D01*
X103104200Y-90279960D01*
X103104200Y-91849210D01*
X103262950Y-92007960D01*
X104259742Y-92007960D01*
X104382423Y-91983557D01*
X104497985Y-91935690D01*
X104601989Y-91866197D01*
X104690437Y-91777749D01*
X104759930Y-91673745D01*
X104807797Y-91558183D01*
X104832200Y-91435502D01*
X104832200Y-90438710D01*
X106442200Y-90438710D01*
X106442200Y-91435502D01*
X106466603Y-91558183D01*
X106514470Y-91673745D01*
X106583963Y-91777749D01*
X106672411Y-91866197D01*
X106776415Y-91935690D01*
X106891977Y-91983557D01*
X107014658Y-92007960D01*
X108011450Y-92007960D01*
X108170200Y-91849210D01*
X108170200Y-90279960D01*
X108424200Y-90279960D01*
X108424200Y-91849210D01*
X108582950Y-92007960D01*
X109579742Y-92007960D01*
X109702423Y-91983557D01*
X109817985Y-91935690D01*
X109921989Y-91866197D01*
X110010437Y-91777749D01*
X110079930Y-91673745D01*
X110127797Y-91558183D01*
X110152200Y-91435502D01*
X110152200Y-90438710D01*
X169847800Y-90438710D01*
X169847800Y-91435502D01*
X169872203Y-91558183D01*
X169920070Y-91673745D01*
X169989563Y-91777749D01*
X170078011Y-91866197D01*
X170182015Y-91935690D01*
X170297577Y-91983557D01*
X170420258Y-92007960D01*
X171417050Y-92007960D01*
X171575800Y-91849210D01*
X171575800Y-90279960D01*
X171829800Y-90279960D01*
X171829800Y-91849210D01*
X171988550Y-92007960D01*
X172985342Y-92007960D01*
X173108023Y-91983557D01*
X173223585Y-91935690D01*
X173327589Y-91866197D01*
X173416037Y-91777749D01*
X173485530Y-91673745D01*
X173533397Y-91558183D01*
X173557800Y-91435502D01*
X173557800Y-90438710D01*
X175167800Y-90438710D01*
X175167800Y-91435502D01*
X175192203Y-91558183D01*
X175240070Y-91673745D01*
X175309563Y-91777749D01*
X175398011Y-91866197D01*
X175502015Y-91935690D01*
X175617577Y-91983557D01*
X175740258Y-92007960D01*
X176737050Y-92007960D01*
X176895800Y-91849210D01*
X176895800Y-90279960D01*
X177149800Y-90279960D01*
X177149800Y-91849210D01*
X177308550Y-92007960D01*
X178305342Y-92007960D01*
X178428023Y-91983557D01*
X178543585Y-91935690D01*
X178647589Y-91866197D01*
X178736037Y-91777749D01*
X178805530Y-91673745D01*
X178853397Y-91558183D01*
X178877800Y-91435502D01*
X178877800Y-90438710D01*
X178719050Y-90279960D01*
X177149800Y-90279960D01*
X176895800Y-90279960D01*
X175326550Y-90279960D01*
X175167800Y-90438710D01*
X173557800Y-90438710D01*
X173399050Y-90279960D01*
X171829800Y-90279960D01*
X171575800Y-90279960D01*
X170006550Y-90279960D01*
X169847800Y-90438710D01*
X110152200Y-90438710D01*
X109993450Y-90279960D01*
X108424200Y-90279960D01*
X108170200Y-90279960D01*
X106600950Y-90279960D01*
X106442200Y-90438710D01*
X104832200Y-90438710D01*
X104673450Y-90279960D01*
X103104200Y-90279960D01*
X102850200Y-90279960D01*
X101280950Y-90279960D01*
X101122200Y-90438710D01*
X96660000Y-90438710D01*
X96660000Y-88870418D01*
X101122200Y-88870418D01*
X101122200Y-89867210D01*
X101280950Y-90025960D01*
X102850200Y-90025960D01*
X102850200Y-88456710D01*
X102691450Y-88297960D01*
X101694658Y-88297960D01*
X101571977Y-88322363D01*
X101456415Y-88370230D01*
X101352411Y-88439723D01*
X101263963Y-88528171D01*
X101194470Y-88632175D01*
X101146603Y-88747737D01*
X101122200Y-88870418D01*
X96660000Y-88870418D01*
X96660000Y-85118710D01*
X101122200Y-85118710D01*
X101122200Y-86115502D01*
X101146603Y-86238183D01*
X101194470Y-86353745D01*
X101263963Y-86457749D01*
X101352411Y-86546197D01*
X101456415Y-86615690D01*
X101571977Y-86663557D01*
X101694658Y-86687960D01*
X102691450Y-86687960D01*
X102850200Y-86529210D01*
X102850200Y-84959960D01*
X103104200Y-84959960D01*
X103104200Y-86529210D01*
X103262950Y-86687960D01*
X104178619Y-86687960D01*
X104166127Y-86706655D01*
X104040993Y-87008756D01*
X103977200Y-87329464D01*
X103977200Y-87656456D01*
X104040993Y-87977164D01*
X104166127Y-88279265D01*
X104178619Y-88297960D01*
X103262950Y-88297960D01*
X103104200Y-88456710D01*
X103104200Y-90025960D01*
X104673450Y-90025960D01*
X104832200Y-89867210D01*
X104832200Y-88951541D01*
X104850895Y-88964033D01*
X105152996Y-89089167D01*
X105473704Y-89152960D01*
X105800696Y-89152960D01*
X106121404Y-89089167D01*
X106423505Y-88964033D01*
X106442200Y-88951541D01*
X106442200Y-89867210D01*
X106600950Y-90025960D01*
X108170200Y-90025960D01*
X108170200Y-88456710D01*
X108424200Y-88456710D01*
X108424200Y-90025960D01*
X109993450Y-90025960D01*
X110152200Y-89867210D01*
X110152200Y-88870418D01*
X169847800Y-88870418D01*
X169847800Y-89867210D01*
X170006550Y-90025960D01*
X171575800Y-90025960D01*
X171575800Y-88456710D01*
X171417050Y-88297960D01*
X170420258Y-88297960D01*
X170297577Y-88322363D01*
X170182015Y-88370230D01*
X170078011Y-88439723D01*
X169989563Y-88528171D01*
X169920070Y-88632175D01*
X169872203Y-88747737D01*
X169847800Y-88870418D01*
X110152200Y-88870418D01*
X110127797Y-88747737D01*
X110079930Y-88632175D01*
X110010437Y-88528171D01*
X109921989Y-88439723D01*
X109817985Y-88370230D01*
X109702423Y-88322363D01*
X109579742Y-88297960D01*
X108582950Y-88297960D01*
X108424200Y-88456710D01*
X108170200Y-88456710D01*
X108114638Y-88401148D01*
X108154032Y-88306042D01*
X108192100Y-88114661D01*
X108192100Y-87919529D01*
X108191546Y-87916739D01*
X171810900Y-87916739D01*
X171810900Y-88111871D01*
X171848968Y-88303252D01*
X171888301Y-88398209D01*
X171829800Y-88456710D01*
X171829800Y-90025960D01*
X173399050Y-90025960D01*
X173557800Y-89867210D01*
X173557800Y-88951541D01*
X173576495Y-88964033D01*
X173878596Y-89089167D01*
X174199304Y-89152960D01*
X174526296Y-89152960D01*
X174847004Y-89089167D01*
X175149105Y-88964033D01*
X175167800Y-88951541D01*
X175167800Y-89867210D01*
X175326550Y-90025960D01*
X176895800Y-90025960D01*
X176895800Y-88456710D01*
X177149800Y-88456710D01*
X177149800Y-90025960D01*
X178719050Y-90025960D01*
X178877800Y-89867210D01*
X178877800Y-88870418D01*
X178853397Y-88747737D01*
X178805530Y-88632175D01*
X178736037Y-88528171D01*
X178647589Y-88439723D01*
X178543585Y-88370230D01*
X178428023Y-88322363D01*
X178305342Y-88297960D01*
X177308550Y-88297960D01*
X177149800Y-88456710D01*
X176895800Y-88456710D01*
X176737050Y-88297960D01*
X175821381Y-88297960D01*
X175833873Y-88279265D01*
X175959007Y-87977164D01*
X176022800Y-87656456D01*
X176022800Y-87329464D01*
X175959007Y-87008756D01*
X175833873Y-86706655D01*
X175821381Y-86687960D01*
X176737050Y-86687960D01*
X176895800Y-86529210D01*
X176895800Y-84959960D01*
X177149800Y-84959960D01*
X177149800Y-86529210D01*
X177308550Y-86687960D01*
X178305342Y-86687960D01*
X178428023Y-86663557D01*
X178543585Y-86615690D01*
X178647589Y-86546197D01*
X178736037Y-86457749D01*
X178805530Y-86353745D01*
X178853397Y-86238183D01*
X178877800Y-86115502D01*
X178877800Y-85118710D01*
X178719050Y-84959960D01*
X177149800Y-84959960D01*
X176895800Y-84959960D01*
X175326550Y-84959960D01*
X175167800Y-85118710D01*
X175167800Y-86034379D01*
X175149105Y-86021887D01*
X174847004Y-85896753D01*
X174526296Y-85832960D01*
X174199304Y-85832960D01*
X173878596Y-85896753D01*
X173576495Y-86021887D01*
X173557800Y-86034379D01*
X173557800Y-85118710D01*
X173399050Y-84959960D01*
X171829800Y-84959960D01*
X171829800Y-86529210D01*
X171988550Y-86687960D01*
X172904219Y-86687960D01*
X172891727Y-86706655D01*
X172766593Y-87008756D01*
X172763619Y-87023705D01*
X172703934Y-87023705D01*
X172512553Y-87061773D01*
X172332275Y-87136447D01*
X172170029Y-87244856D01*
X172032051Y-87382834D01*
X171923642Y-87545080D01*
X171848968Y-87725358D01*
X171810900Y-87916739D01*
X108191546Y-87916739D01*
X108154032Y-87728148D01*
X108079358Y-87547870D01*
X107970949Y-87385624D01*
X107832971Y-87247646D01*
X107670725Y-87139237D01*
X107490447Y-87064563D01*
X107299066Y-87026495D01*
X107236936Y-87026495D01*
X107233407Y-87008756D01*
X107108273Y-86706655D01*
X107095781Y-86687960D01*
X108011450Y-86687960D01*
X108170200Y-86529210D01*
X108170200Y-84959960D01*
X108424200Y-84959960D01*
X108424200Y-86529210D01*
X108582950Y-86687960D01*
X109579742Y-86687960D01*
X109702423Y-86663557D01*
X109817985Y-86615690D01*
X109921989Y-86546197D01*
X110010437Y-86457749D01*
X110079930Y-86353745D01*
X110127797Y-86238183D01*
X110152200Y-86115502D01*
X110152200Y-85118710D01*
X169847800Y-85118710D01*
X169847800Y-86115502D01*
X169872203Y-86238183D01*
X169920070Y-86353745D01*
X169989563Y-86457749D01*
X170078011Y-86546197D01*
X170182015Y-86615690D01*
X170297577Y-86663557D01*
X170420258Y-86687960D01*
X171417050Y-86687960D01*
X171575800Y-86529210D01*
X171575800Y-84959960D01*
X170006550Y-84959960D01*
X169847800Y-85118710D01*
X110152200Y-85118710D01*
X109993450Y-84959960D01*
X108424200Y-84959960D01*
X108170200Y-84959960D01*
X106600950Y-84959960D01*
X106442200Y-85118710D01*
X106442200Y-86034379D01*
X106423505Y-86021887D01*
X106121404Y-85896753D01*
X105800696Y-85832960D01*
X105473704Y-85832960D01*
X105152996Y-85896753D01*
X104850895Y-86021887D01*
X104832200Y-86034379D01*
X104832200Y-85118710D01*
X104673450Y-84959960D01*
X103104200Y-84959960D01*
X102850200Y-84959960D01*
X101280950Y-84959960D01*
X101122200Y-85118710D01*
X96660000Y-85118710D01*
X96660000Y-83550418D01*
X101122200Y-83550418D01*
X101122200Y-84547210D01*
X101280950Y-84705960D01*
X102850200Y-84705960D01*
X102850200Y-83136710D01*
X103104200Y-83136710D01*
X103104200Y-84705960D01*
X104673450Y-84705960D01*
X104832200Y-84547210D01*
X104832200Y-83550418D01*
X106442200Y-83550418D01*
X106442200Y-84547210D01*
X106600950Y-84705960D01*
X108170200Y-84705960D01*
X108170200Y-83136710D01*
X108424200Y-83136710D01*
X108424200Y-84705960D01*
X109993450Y-84705960D01*
X110152200Y-84547210D01*
X110152200Y-83550418D01*
X169847800Y-83550418D01*
X169847800Y-84547210D01*
X170006550Y-84705960D01*
X171575800Y-84705960D01*
X171575800Y-83136710D01*
X171829800Y-83136710D01*
X171829800Y-84705960D01*
X173399050Y-84705960D01*
X173557800Y-84547210D01*
X173557800Y-83550418D01*
X175167800Y-83550418D01*
X175167800Y-84547210D01*
X175326550Y-84705960D01*
X176895800Y-84705960D01*
X176895800Y-83136710D01*
X177149800Y-83136710D01*
X177149800Y-84705960D01*
X178719050Y-84705960D01*
X178877800Y-84547210D01*
X178877800Y-83550418D01*
X178853397Y-83427737D01*
X178805530Y-83312175D01*
X178736037Y-83208171D01*
X178647589Y-83119723D01*
X178543585Y-83050230D01*
X178428023Y-83002363D01*
X178305342Y-82977960D01*
X177308550Y-82977960D01*
X177149800Y-83136710D01*
X176895800Y-83136710D01*
X176737050Y-82977960D01*
X175740258Y-82977960D01*
X175617577Y-83002363D01*
X175502015Y-83050230D01*
X175398011Y-83119723D01*
X175309563Y-83208171D01*
X175240070Y-83312175D01*
X175192203Y-83427737D01*
X175167800Y-83550418D01*
X173557800Y-83550418D01*
X173533397Y-83427737D01*
X173485530Y-83312175D01*
X173416037Y-83208171D01*
X173327589Y-83119723D01*
X173223585Y-83050230D01*
X173108023Y-83002363D01*
X172985342Y-82977960D01*
X171988550Y-82977960D01*
X171829800Y-83136710D01*
X171575800Y-83136710D01*
X171417050Y-82977960D01*
X170420258Y-82977960D01*
X170297577Y-83002363D01*
X170182015Y-83050230D01*
X170078011Y-83119723D01*
X169989563Y-83208171D01*
X169920070Y-83312175D01*
X169872203Y-83427737D01*
X169847800Y-83550418D01*
X110152200Y-83550418D01*
X110127797Y-83427737D01*
X110079930Y-83312175D01*
X110010437Y-83208171D01*
X109921989Y-83119723D01*
X109817985Y-83050230D01*
X109702423Y-83002363D01*
X109579742Y-82977960D01*
X108582950Y-82977960D01*
X108424200Y-83136710D01*
X108170200Y-83136710D01*
X108011450Y-82977960D01*
X107014658Y-82977960D01*
X106891977Y-83002363D01*
X106776415Y-83050230D01*
X106672411Y-83119723D01*
X106583963Y-83208171D01*
X106514470Y-83312175D01*
X106466603Y-83427737D01*
X106442200Y-83550418D01*
X104832200Y-83550418D01*
X104807797Y-83427737D01*
X104759930Y-83312175D01*
X104690437Y-83208171D01*
X104601989Y-83119723D01*
X104497985Y-83050230D01*
X104382423Y-83002363D01*
X104259742Y-82977960D01*
X103262950Y-82977960D01*
X103104200Y-83136710D01*
X102850200Y-83136710D01*
X102691450Y-82977960D01*
X101694658Y-82977960D01*
X101571977Y-83002363D01*
X101456415Y-83050230D01*
X101352411Y-83119723D01*
X101263963Y-83208171D01*
X101194470Y-83312175D01*
X101146603Y-83427737D01*
X101122200Y-83550418D01*
X96660000Y-83550418D01*
X96660000Y-79440210D01*
X107472190Y-79440210D01*
X107472190Y-80437002D01*
X107496593Y-80559683D01*
X107544460Y-80675245D01*
X107613953Y-80779249D01*
X107702401Y-80867697D01*
X107806405Y-80937190D01*
X107921967Y-80985057D01*
X108044648Y-81009460D01*
X109041440Y-81009460D01*
X109200190Y-80850710D01*
X109200190Y-79281460D01*
X109454190Y-79281460D01*
X109454190Y-80850710D01*
X109612940Y-81009460D01*
X110609732Y-81009460D01*
X110732413Y-80985057D01*
X110847975Y-80937190D01*
X110951979Y-80867697D01*
X111040427Y-80779249D01*
X111109920Y-80675245D01*
X111157787Y-80559683D01*
X111182190Y-80437002D01*
X111182190Y-79440210D01*
X112792190Y-79440210D01*
X112792190Y-80437002D01*
X112816593Y-80559683D01*
X112864460Y-80675245D01*
X112933953Y-80779249D01*
X113022401Y-80867697D01*
X113126405Y-80937190D01*
X113241967Y-80985057D01*
X113364648Y-81009460D01*
X114361440Y-81009460D01*
X114520190Y-80850710D01*
X114520190Y-79281460D01*
X114774190Y-79281460D01*
X114774190Y-80850710D01*
X114932940Y-81009460D01*
X115929732Y-81009460D01*
X116052413Y-80985057D01*
X116167975Y-80937190D01*
X116271979Y-80867697D01*
X116360427Y-80779249D01*
X116429920Y-80675245D01*
X116477787Y-80559683D01*
X116502190Y-80437002D01*
X116502190Y-79440210D01*
X163497810Y-79440210D01*
X163497810Y-80437002D01*
X163522213Y-80559683D01*
X163570080Y-80675245D01*
X163639573Y-80779249D01*
X163728021Y-80867697D01*
X163832025Y-80937190D01*
X163947587Y-80985057D01*
X164070268Y-81009460D01*
X165067060Y-81009460D01*
X165225810Y-80850710D01*
X165225810Y-79281460D01*
X165479810Y-79281460D01*
X165479810Y-80850710D01*
X165638560Y-81009460D01*
X166635352Y-81009460D01*
X166758033Y-80985057D01*
X166873595Y-80937190D01*
X166977599Y-80867697D01*
X167066047Y-80779249D01*
X167135540Y-80675245D01*
X167183407Y-80559683D01*
X167207810Y-80437002D01*
X167207810Y-79440210D01*
X168817810Y-79440210D01*
X168817810Y-80437002D01*
X168842213Y-80559683D01*
X168890080Y-80675245D01*
X168959573Y-80779249D01*
X169048021Y-80867697D01*
X169152025Y-80937190D01*
X169267587Y-80985057D01*
X169390268Y-81009460D01*
X170387060Y-81009460D01*
X170545810Y-80850710D01*
X170545810Y-79281460D01*
X170799810Y-79281460D01*
X170799810Y-80850710D01*
X170958560Y-81009460D01*
X171955352Y-81009460D01*
X172078033Y-80985057D01*
X172193595Y-80937190D01*
X172297599Y-80867697D01*
X172386047Y-80779249D01*
X172455540Y-80675245D01*
X172503407Y-80559683D01*
X172527810Y-80437002D01*
X172527810Y-79440210D01*
X172369060Y-79281460D01*
X170799810Y-79281460D01*
X170545810Y-79281460D01*
X168976560Y-79281460D01*
X168817810Y-79440210D01*
X167207810Y-79440210D01*
X167049060Y-79281460D01*
X165479810Y-79281460D01*
X165225810Y-79281460D01*
X163656560Y-79281460D01*
X163497810Y-79440210D01*
X116502190Y-79440210D01*
X116343440Y-79281460D01*
X114774190Y-79281460D01*
X114520190Y-79281460D01*
X112950940Y-79281460D01*
X112792190Y-79440210D01*
X111182190Y-79440210D01*
X111023440Y-79281460D01*
X109454190Y-79281460D01*
X109200190Y-79281460D01*
X107630940Y-79281460D01*
X107472190Y-79440210D01*
X96660000Y-79440210D01*
X96660000Y-77871918D01*
X107472190Y-77871918D01*
X107472190Y-78868710D01*
X107630940Y-79027460D01*
X109200190Y-79027460D01*
X109200190Y-77458210D01*
X109041440Y-77299460D01*
X108044648Y-77299460D01*
X107921967Y-77323863D01*
X107806405Y-77371730D01*
X107702401Y-77441223D01*
X107613953Y-77529671D01*
X107544460Y-77633675D01*
X107496593Y-77749237D01*
X107472190Y-77871918D01*
X96660000Y-77871918D01*
X96660000Y-74120210D01*
X107472190Y-74120210D01*
X107472190Y-75117002D01*
X107496593Y-75239683D01*
X107544460Y-75355245D01*
X107613953Y-75459249D01*
X107702401Y-75547697D01*
X107806405Y-75617190D01*
X107921967Y-75665057D01*
X108044648Y-75689460D01*
X109041440Y-75689460D01*
X109200190Y-75530710D01*
X109200190Y-73961460D01*
X109454190Y-73961460D01*
X109454190Y-75530710D01*
X109612940Y-75689460D01*
X110528609Y-75689460D01*
X110516117Y-75708155D01*
X110390983Y-76010256D01*
X110327190Y-76330964D01*
X110327190Y-76657956D01*
X110390983Y-76978664D01*
X110516117Y-77280765D01*
X110528609Y-77299460D01*
X109612940Y-77299460D01*
X109454190Y-77458210D01*
X109454190Y-79027460D01*
X111023440Y-79027460D01*
X111182190Y-78868710D01*
X111182190Y-77953041D01*
X111200885Y-77965533D01*
X111502986Y-78090667D01*
X111823694Y-78154460D01*
X112150686Y-78154460D01*
X112471394Y-78090667D01*
X112692223Y-77999197D01*
X112790029Y-78097003D01*
X112792190Y-78098447D01*
X112792190Y-78868710D01*
X112950940Y-79027460D01*
X114520190Y-79027460D01*
X114520190Y-77458210D01*
X114774190Y-77458210D01*
X114774190Y-79027460D01*
X116343440Y-79027460D01*
X116502190Y-78868710D01*
X116502190Y-77871918D01*
X163497810Y-77871918D01*
X163497810Y-78868710D01*
X163656560Y-79027460D01*
X165225810Y-79027460D01*
X165225810Y-77458210D01*
X165067060Y-77299460D01*
X164070268Y-77299460D01*
X163947587Y-77323863D01*
X163832025Y-77371730D01*
X163728021Y-77441223D01*
X163639573Y-77529671D01*
X163570080Y-77633675D01*
X163522213Y-77749237D01*
X163497810Y-77871918D01*
X116502190Y-77871918D01*
X116477787Y-77749237D01*
X116429920Y-77633675D01*
X116360427Y-77529671D01*
X116271979Y-77441223D01*
X116167975Y-77371730D01*
X116052413Y-77323863D01*
X115929732Y-77299460D01*
X114932940Y-77299460D01*
X114774190Y-77458210D01*
X114520190Y-77458210D01*
X114412100Y-77350120D01*
X114412100Y-77229988D01*
X114374032Y-77038607D01*
X114299358Y-76858329D01*
X114190949Y-76696083D01*
X114052971Y-76558105D01*
X113890725Y-76449696D01*
X113710447Y-76375022D01*
X113647190Y-76362439D01*
X113647190Y-76330964D01*
X113583397Y-76010256D01*
X113458263Y-75708155D01*
X113445771Y-75689460D01*
X114361440Y-75689460D01*
X114520190Y-75530710D01*
X114520190Y-73961460D01*
X114774190Y-73961460D01*
X114774190Y-75530710D01*
X114932940Y-75689460D01*
X115929732Y-75689460D01*
X116052413Y-75665057D01*
X116167975Y-75617190D01*
X116271979Y-75547697D01*
X116360427Y-75459249D01*
X116429920Y-75355245D01*
X116477787Y-75239683D01*
X116502190Y-75117002D01*
X116502190Y-74120210D01*
X163497810Y-74120210D01*
X163497810Y-75117002D01*
X163522213Y-75239683D01*
X163570080Y-75355245D01*
X163639573Y-75459249D01*
X163728021Y-75547697D01*
X163832025Y-75617190D01*
X163947587Y-75665057D01*
X164070268Y-75689460D01*
X165067060Y-75689460D01*
X165225810Y-75530710D01*
X165225810Y-73961460D01*
X165479810Y-73961460D01*
X165479810Y-75530710D01*
X165638560Y-75689460D01*
X166554229Y-75689460D01*
X166541737Y-75708155D01*
X166416603Y-76010256D01*
X166352810Y-76330964D01*
X166352810Y-76354815D01*
X166302553Y-76364812D01*
X166122275Y-76439486D01*
X165960029Y-76547895D01*
X165822051Y-76685873D01*
X165713642Y-76848119D01*
X165638968Y-77028397D01*
X165600900Y-77219778D01*
X165600900Y-77337120D01*
X165479810Y-77458210D01*
X165479810Y-79027460D01*
X167049060Y-79027460D01*
X167207810Y-78868710D01*
X167207810Y-78096923D01*
X167222971Y-78086793D01*
X167309750Y-78000014D01*
X167528606Y-78090667D01*
X167849314Y-78154460D01*
X168176306Y-78154460D01*
X168497014Y-78090667D01*
X168799115Y-77965533D01*
X168817810Y-77953041D01*
X168817810Y-78868710D01*
X168976560Y-79027460D01*
X170545810Y-79027460D01*
X170545810Y-77458210D01*
X170799810Y-77458210D01*
X170799810Y-79027460D01*
X172369060Y-79027460D01*
X172527810Y-78868710D01*
X172527810Y-77871918D01*
X172503407Y-77749237D01*
X172455540Y-77633675D01*
X172386047Y-77529671D01*
X172297599Y-77441223D01*
X172193595Y-77371730D01*
X172078033Y-77323863D01*
X171955352Y-77299460D01*
X170958560Y-77299460D01*
X170799810Y-77458210D01*
X170545810Y-77458210D01*
X170387060Y-77299460D01*
X169471391Y-77299460D01*
X169483883Y-77280765D01*
X169609017Y-76978664D01*
X169672810Y-76657956D01*
X169672810Y-76330964D01*
X169609017Y-76010256D01*
X169483883Y-75708155D01*
X169471391Y-75689460D01*
X170387060Y-75689460D01*
X170545810Y-75530710D01*
X170545810Y-73961460D01*
X170799810Y-73961460D01*
X170799810Y-75530710D01*
X170958560Y-75689460D01*
X171955352Y-75689460D01*
X172078033Y-75665057D01*
X172193595Y-75617190D01*
X172297599Y-75547697D01*
X172386047Y-75459249D01*
X172455540Y-75355245D01*
X172503407Y-75239683D01*
X172527810Y-75117002D01*
X172527810Y-74120210D01*
X172369060Y-73961460D01*
X170799810Y-73961460D01*
X170545810Y-73961460D01*
X168976560Y-73961460D01*
X168817810Y-74120210D01*
X168817810Y-75035879D01*
X168799115Y-75023387D01*
X168497014Y-74898253D01*
X168176306Y-74834460D01*
X167849314Y-74834460D01*
X167528606Y-74898253D01*
X167226505Y-75023387D01*
X167207810Y-75035879D01*
X167207810Y-74120210D01*
X167049060Y-73961460D01*
X165479810Y-73961460D01*
X165225810Y-73961460D01*
X163656560Y-73961460D01*
X163497810Y-74120210D01*
X116502190Y-74120210D01*
X116343440Y-73961460D01*
X114774190Y-73961460D01*
X114520190Y-73961460D01*
X112950940Y-73961460D01*
X112792190Y-74120210D01*
X112792190Y-75035879D01*
X112773495Y-75023387D01*
X112471394Y-74898253D01*
X112150686Y-74834460D01*
X111823694Y-74834460D01*
X111502986Y-74898253D01*
X111200885Y-75023387D01*
X111182190Y-75035879D01*
X111182190Y-74120210D01*
X111023440Y-73961460D01*
X109454190Y-73961460D01*
X109200190Y-73961460D01*
X107630940Y-73961460D01*
X107472190Y-74120210D01*
X96660000Y-74120210D01*
X96660000Y-72551918D01*
X107472190Y-72551918D01*
X107472190Y-73548710D01*
X107630940Y-73707460D01*
X109200190Y-73707460D01*
X109200190Y-72138210D01*
X109454190Y-72138210D01*
X109454190Y-73707460D01*
X111023440Y-73707460D01*
X111182190Y-73548710D01*
X111182190Y-72551918D01*
X112792190Y-72551918D01*
X112792190Y-73548710D01*
X112950940Y-73707460D01*
X114520190Y-73707460D01*
X114520190Y-72138210D01*
X114774190Y-72138210D01*
X114774190Y-73707460D01*
X116343440Y-73707460D01*
X116502190Y-73548710D01*
X116502190Y-72551918D01*
X116477787Y-72429237D01*
X116429920Y-72313675D01*
X116360427Y-72209671D01*
X116271979Y-72121223D01*
X116167975Y-72051730D01*
X116052413Y-72003863D01*
X115929732Y-71979460D01*
X114932940Y-71979460D01*
X114774190Y-72138210D01*
X114520190Y-72138210D01*
X114361440Y-71979460D01*
X113364648Y-71979460D01*
X113241967Y-72003863D01*
X113126405Y-72051730D01*
X113022401Y-72121223D01*
X112933953Y-72209671D01*
X112864460Y-72313675D01*
X112816593Y-72429237D01*
X112792190Y-72551918D01*
X111182190Y-72551918D01*
X111157787Y-72429237D01*
X111109920Y-72313675D01*
X111040427Y-72209671D01*
X110951979Y-72121223D01*
X110847975Y-72051730D01*
X110732413Y-72003863D01*
X110609732Y-71979460D01*
X109612940Y-71979460D01*
X109454190Y-72138210D01*
X109200190Y-72138210D01*
X109041440Y-71979460D01*
X108044648Y-71979460D01*
X107921967Y-72003863D01*
X107806405Y-72051730D01*
X107702401Y-72121223D01*
X107613953Y-72209671D01*
X107544460Y-72313675D01*
X107496593Y-72429237D01*
X107472190Y-72551918D01*
X96660000Y-72551918D01*
X96660000Y-71276820D01*
X117200937Y-71276820D01*
X117200937Y-72273612D01*
X117225340Y-72396293D01*
X117273207Y-72511855D01*
X117342700Y-72615859D01*
X117431148Y-72704307D01*
X117535152Y-72773800D01*
X117650714Y-72821667D01*
X117773395Y-72846070D01*
X118770187Y-72846070D01*
X118928937Y-72687320D01*
X118928937Y-71118070D01*
X119182937Y-71118070D01*
X119182937Y-72687320D01*
X119341687Y-72846070D01*
X120338479Y-72846070D01*
X120461160Y-72821667D01*
X120576722Y-72773800D01*
X120680726Y-72704307D01*
X120769174Y-72615859D01*
X120838667Y-72511855D01*
X120886534Y-72396293D01*
X120910937Y-72273612D01*
X120910937Y-71276820D01*
X122520937Y-71276820D01*
X122520937Y-72273612D01*
X122545340Y-72396293D01*
X122593207Y-72511855D01*
X122662700Y-72615859D01*
X122751148Y-72704307D01*
X122855152Y-72773800D01*
X122970714Y-72821667D01*
X123093395Y-72846070D01*
X124090187Y-72846070D01*
X124248937Y-72687320D01*
X124248937Y-71118070D01*
X124502937Y-71118070D01*
X124502937Y-72687320D01*
X124661687Y-72846070D01*
X125658479Y-72846070D01*
X125781160Y-72821667D01*
X125896722Y-72773800D01*
X126000726Y-72704307D01*
X126089174Y-72615859D01*
X126158667Y-72511855D01*
X126206534Y-72396293D01*
X126230937Y-72273612D01*
X126230937Y-71276820D01*
X153769063Y-71276820D01*
X153769063Y-72273612D01*
X153793466Y-72396293D01*
X153841333Y-72511855D01*
X153910826Y-72615859D01*
X153999274Y-72704307D01*
X154103278Y-72773800D01*
X154218840Y-72821667D01*
X154341521Y-72846070D01*
X155338313Y-72846070D01*
X155497063Y-72687320D01*
X155497063Y-71118070D01*
X155751063Y-71118070D01*
X155751063Y-72687320D01*
X155909813Y-72846070D01*
X156906605Y-72846070D01*
X157029286Y-72821667D01*
X157144848Y-72773800D01*
X157248852Y-72704307D01*
X157337300Y-72615859D01*
X157406793Y-72511855D01*
X157454660Y-72396293D01*
X157479063Y-72273612D01*
X157479063Y-71276820D01*
X159089063Y-71276820D01*
X159089063Y-72273612D01*
X159113466Y-72396293D01*
X159161333Y-72511855D01*
X159230826Y-72615859D01*
X159319274Y-72704307D01*
X159423278Y-72773800D01*
X159538840Y-72821667D01*
X159661521Y-72846070D01*
X160658313Y-72846070D01*
X160817063Y-72687320D01*
X160817063Y-71118070D01*
X161071063Y-71118070D01*
X161071063Y-72687320D01*
X161229813Y-72846070D01*
X162226605Y-72846070D01*
X162349286Y-72821667D01*
X162464848Y-72773800D01*
X162568852Y-72704307D01*
X162657300Y-72615859D01*
X162700023Y-72551918D01*
X163497810Y-72551918D01*
X163497810Y-73548710D01*
X163656560Y-73707460D01*
X165225810Y-73707460D01*
X165225810Y-72138210D01*
X165479810Y-72138210D01*
X165479810Y-73707460D01*
X167049060Y-73707460D01*
X167207810Y-73548710D01*
X167207810Y-72551918D01*
X168817810Y-72551918D01*
X168817810Y-73548710D01*
X168976560Y-73707460D01*
X170545810Y-73707460D01*
X170545810Y-72138210D01*
X170799810Y-72138210D01*
X170799810Y-73707460D01*
X172369060Y-73707460D01*
X172527810Y-73548710D01*
X172527810Y-72551918D01*
X172503407Y-72429237D01*
X172455540Y-72313675D01*
X172386047Y-72209671D01*
X172297599Y-72121223D01*
X172193595Y-72051730D01*
X172078033Y-72003863D01*
X171955352Y-71979460D01*
X170958560Y-71979460D01*
X170799810Y-72138210D01*
X170545810Y-72138210D01*
X170387060Y-71979460D01*
X169390268Y-71979460D01*
X169267587Y-72003863D01*
X169152025Y-72051730D01*
X169048021Y-72121223D01*
X168959573Y-72209671D01*
X168890080Y-72313675D01*
X168842213Y-72429237D01*
X168817810Y-72551918D01*
X167207810Y-72551918D01*
X167183407Y-72429237D01*
X167135540Y-72313675D01*
X167066047Y-72209671D01*
X166977599Y-72121223D01*
X166873595Y-72051730D01*
X166758033Y-72003863D01*
X166635352Y-71979460D01*
X165638560Y-71979460D01*
X165479810Y-72138210D01*
X165225810Y-72138210D01*
X165067060Y-71979460D01*
X164070268Y-71979460D01*
X163947587Y-72003863D01*
X163832025Y-72051730D01*
X163728021Y-72121223D01*
X163639573Y-72209671D01*
X163570080Y-72313675D01*
X163522213Y-72429237D01*
X163497810Y-72551918D01*
X162700023Y-72551918D01*
X162726793Y-72511855D01*
X162774660Y-72396293D01*
X162799063Y-72273612D01*
X162799063Y-71276820D01*
X162640313Y-71118070D01*
X161071063Y-71118070D01*
X160817063Y-71118070D01*
X159247813Y-71118070D01*
X159089063Y-71276820D01*
X157479063Y-71276820D01*
X157320313Y-71118070D01*
X155751063Y-71118070D01*
X155497063Y-71118070D01*
X153927813Y-71118070D01*
X153769063Y-71276820D01*
X126230937Y-71276820D01*
X126072187Y-71118070D01*
X124502937Y-71118070D01*
X124248937Y-71118070D01*
X122679687Y-71118070D01*
X122520937Y-71276820D01*
X120910937Y-71276820D01*
X120752187Y-71118070D01*
X119182937Y-71118070D01*
X118928937Y-71118070D01*
X117359687Y-71118070D01*
X117200937Y-71276820D01*
X96660000Y-71276820D01*
X96660000Y-69708528D01*
X117200937Y-69708528D01*
X117200937Y-70705320D01*
X117359687Y-70864070D01*
X118928937Y-70864070D01*
X118928937Y-69294820D01*
X118770187Y-69136070D01*
X117773395Y-69136070D01*
X117650714Y-69160473D01*
X117535152Y-69208340D01*
X117431148Y-69277833D01*
X117342700Y-69366281D01*
X117273207Y-69470285D01*
X117225340Y-69585847D01*
X117200937Y-69708528D01*
X96660000Y-69708528D01*
X96660000Y-65956820D01*
X117200937Y-65956820D01*
X117200937Y-66953612D01*
X117225340Y-67076293D01*
X117273207Y-67191855D01*
X117342700Y-67295859D01*
X117431148Y-67384307D01*
X117535152Y-67453800D01*
X117650714Y-67501667D01*
X117773395Y-67526070D01*
X118770187Y-67526070D01*
X118928937Y-67367320D01*
X118928937Y-65798070D01*
X119182937Y-65798070D01*
X119182937Y-67367320D01*
X119341687Y-67526070D01*
X120257356Y-67526070D01*
X120244864Y-67544765D01*
X120119730Y-67846866D01*
X120055937Y-68167574D01*
X120055937Y-68494566D01*
X120119730Y-68815274D01*
X120244864Y-69117375D01*
X120257356Y-69136070D01*
X119341687Y-69136070D01*
X119182937Y-69294820D01*
X119182937Y-70864070D01*
X120752187Y-70864070D01*
X120910937Y-70705320D01*
X120910937Y-69789651D01*
X120929632Y-69802143D01*
X121231733Y-69927277D01*
X121552441Y-69991070D01*
X121566637Y-69991070D01*
X121576789Y-70042107D01*
X121651463Y-70222385D01*
X121759872Y-70384631D01*
X121897850Y-70522609D01*
X122060096Y-70631018D01*
X122240374Y-70705692D01*
X122431755Y-70743760D01*
X122559377Y-70743760D01*
X122679687Y-70864070D01*
X124248937Y-70864070D01*
X124248937Y-69294820D01*
X124502937Y-69294820D01*
X124502937Y-70864070D01*
X126072187Y-70864070D01*
X126230937Y-70705320D01*
X126230937Y-69708528D01*
X153769063Y-69708528D01*
X153769063Y-70705320D01*
X153927813Y-70864070D01*
X155497063Y-70864070D01*
X155497063Y-69294820D01*
X155338313Y-69136070D01*
X154341521Y-69136070D01*
X154218840Y-69160473D01*
X154103278Y-69208340D01*
X153999274Y-69277833D01*
X153910826Y-69366281D01*
X153841333Y-69470285D01*
X153793466Y-69585847D01*
X153769063Y-69708528D01*
X126230937Y-69708528D01*
X126206534Y-69585847D01*
X126158667Y-69470285D01*
X126089174Y-69366281D01*
X126000726Y-69277833D01*
X125896722Y-69208340D01*
X125781160Y-69160473D01*
X125658479Y-69136070D01*
X124661687Y-69136070D01*
X124502937Y-69294820D01*
X124248937Y-69294820D01*
X124090187Y-69136070D01*
X123308379Y-69136070D01*
X123298770Y-69121689D01*
X123218480Y-69041399D01*
X123312144Y-68815274D01*
X123375937Y-68494566D01*
X123375937Y-68167574D01*
X123312144Y-67846866D01*
X123187010Y-67544765D01*
X123174518Y-67526070D01*
X124090187Y-67526070D01*
X124248937Y-67367320D01*
X124248937Y-65798070D01*
X124502937Y-65798070D01*
X124502937Y-67367320D01*
X124661687Y-67526070D01*
X125658479Y-67526070D01*
X125781160Y-67501667D01*
X125896722Y-67453800D01*
X126000726Y-67384307D01*
X126089174Y-67295859D01*
X126158667Y-67191855D01*
X126206534Y-67076293D01*
X126230937Y-66953612D01*
X126230937Y-66933180D01*
X129135010Y-66933180D01*
X129135010Y-67929972D01*
X129159413Y-68052653D01*
X129207280Y-68168215D01*
X129276773Y-68272219D01*
X129365221Y-68360667D01*
X129469225Y-68430160D01*
X129584787Y-68478027D01*
X129707468Y-68502430D01*
X130704260Y-68502430D01*
X130863010Y-68343680D01*
X130863010Y-66774430D01*
X131117010Y-66774430D01*
X131117010Y-68343680D01*
X131275760Y-68502430D01*
X132272552Y-68502430D01*
X132395233Y-68478027D01*
X132510795Y-68430160D01*
X132614799Y-68360667D01*
X132703247Y-68272219D01*
X132772740Y-68168215D01*
X132820607Y-68052653D01*
X132845010Y-67929972D01*
X132845010Y-66933180D01*
X134455010Y-66933180D01*
X134455010Y-67929972D01*
X134479413Y-68052653D01*
X134527280Y-68168215D01*
X134596773Y-68272219D01*
X134685221Y-68360667D01*
X134789225Y-68430160D01*
X134904787Y-68478027D01*
X135027468Y-68502430D01*
X136024260Y-68502430D01*
X136183010Y-68343680D01*
X136183010Y-66774430D01*
X136437010Y-66774430D01*
X136437010Y-68343680D01*
X136595760Y-68502430D01*
X137592552Y-68502430D01*
X137715233Y-68478027D01*
X137830795Y-68430160D01*
X137934799Y-68360667D01*
X138023247Y-68272219D01*
X138092740Y-68168215D01*
X138140607Y-68052653D01*
X138165010Y-67929972D01*
X138165010Y-66933180D01*
X141834990Y-66933180D01*
X141834990Y-67929972D01*
X141859393Y-68052653D01*
X141907260Y-68168215D01*
X141976753Y-68272219D01*
X142065201Y-68360667D01*
X142169205Y-68430160D01*
X142284767Y-68478027D01*
X142407448Y-68502430D01*
X143404240Y-68502430D01*
X143562990Y-68343680D01*
X143562990Y-66774430D01*
X143816990Y-66774430D01*
X143816990Y-68343680D01*
X143975740Y-68502430D01*
X144972532Y-68502430D01*
X145095213Y-68478027D01*
X145210775Y-68430160D01*
X145314779Y-68360667D01*
X145403227Y-68272219D01*
X145472720Y-68168215D01*
X145520587Y-68052653D01*
X145544990Y-67929972D01*
X145544990Y-66933180D01*
X147154990Y-66933180D01*
X147154990Y-67929972D01*
X147179393Y-68052653D01*
X147227260Y-68168215D01*
X147296753Y-68272219D01*
X147385201Y-68360667D01*
X147489205Y-68430160D01*
X147604767Y-68478027D01*
X147727448Y-68502430D01*
X148724240Y-68502430D01*
X148882990Y-68343680D01*
X148882990Y-66774430D01*
X149136990Y-66774430D01*
X149136990Y-68343680D01*
X149295740Y-68502430D01*
X150292532Y-68502430D01*
X150415213Y-68478027D01*
X150530775Y-68430160D01*
X150634779Y-68360667D01*
X150723227Y-68272219D01*
X150792720Y-68168215D01*
X150840587Y-68052653D01*
X150864990Y-67929972D01*
X150864990Y-66933180D01*
X150706240Y-66774430D01*
X149136990Y-66774430D01*
X148882990Y-66774430D01*
X147313740Y-66774430D01*
X147154990Y-66933180D01*
X145544990Y-66933180D01*
X145386240Y-66774430D01*
X143816990Y-66774430D01*
X143562990Y-66774430D01*
X141993740Y-66774430D01*
X141834990Y-66933180D01*
X138165010Y-66933180D01*
X138006260Y-66774430D01*
X136437010Y-66774430D01*
X136183010Y-66774430D01*
X134613760Y-66774430D01*
X134455010Y-66933180D01*
X132845010Y-66933180D01*
X132686260Y-66774430D01*
X131117010Y-66774430D01*
X130863010Y-66774430D01*
X129293760Y-66774430D01*
X129135010Y-66933180D01*
X126230937Y-66933180D01*
X126230937Y-65956820D01*
X126072187Y-65798070D01*
X124502937Y-65798070D01*
X124248937Y-65798070D01*
X122679687Y-65798070D01*
X122520937Y-65956820D01*
X122520937Y-66872489D01*
X122502242Y-66859997D01*
X122200141Y-66734863D01*
X121879433Y-66671070D01*
X121552441Y-66671070D01*
X121231733Y-66734863D01*
X120929632Y-66859997D01*
X120910937Y-66872489D01*
X120910937Y-65956820D01*
X120752187Y-65798070D01*
X119182937Y-65798070D01*
X118928937Y-65798070D01*
X117359687Y-65798070D01*
X117200937Y-65956820D01*
X96660000Y-65956820D01*
X96660000Y-64388528D01*
X117200937Y-64388528D01*
X117200937Y-65385320D01*
X117359687Y-65544070D01*
X118928937Y-65544070D01*
X118928937Y-63974820D01*
X119182937Y-63974820D01*
X119182937Y-65544070D01*
X120752187Y-65544070D01*
X120910937Y-65385320D01*
X120910937Y-64388528D01*
X122520937Y-64388528D01*
X122520937Y-65385320D01*
X122679687Y-65544070D01*
X124248937Y-65544070D01*
X124248937Y-63974820D01*
X124502937Y-63974820D01*
X124502937Y-65544070D01*
X126072187Y-65544070D01*
X126230937Y-65385320D01*
X126230937Y-65364888D01*
X129135010Y-65364888D01*
X129135010Y-66361680D01*
X129293760Y-66520430D01*
X130863010Y-66520430D01*
X130863010Y-64951180D01*
X130704260Y-64792430D01*
X129707468Y-64792430D01*
X129584787Y-64816833D01*
X129469225Y-64864700D01*
X129365221Y-64934193D01*
X129276773Y-65022641D01*
X129207280Y-65126645D01*
X129159413Y-65242207D01*
X129135010Y-65364888D01*
X126230937Y-65364888D01*
X126230937Y-64388528D01*
X126206534Y-64265847D01*
X126158667Y-64150285D01*
X126089174Y-64046281D01*
X126000726Y-63957833D01*
X125896722Y-63888340D01*
X125781160Y-63840473D01*
X125658479Y-63816070D01*
X124661687Y-63816070D01*
X124502937Y-63974820D01*
X124248937Y-63974820D01*
X124090187Y-63816070D01*
X123093395Y-63816070D01*
X122970714Y-63840473D01*
X122855152Y-63888340D01*
X122751148Y-63957833D01*
X122662700Y-64046281D01*
X122593207Y-64150285D01*
X122545340Y-64265847D01*
X122520937Y-64388528D01*
X120910937Y-64388528D01*
X120886534Y-64265847D01*
X120838667Y-64150285D01*
X120769174Y-64046281D01*
X120680726Y-63957833D01*
X120576722Y-63888340D01*
X120461160Y-63840473D01*
X120338479Y-63816070D01*
X119341687Y-63816070D01*
X119182937Y-63974820D01*
X118928937Y-63974820D01*
X118770187Y-63816070D01*
X117773395Y-63816070D01*
X117650714Y-63840473D01*
X117535152Y-63888340D01*
X117431148Y-63957833D01*
X117342700Y-64046281D01*
X117273207Y-64150285D01*
X117225340Y-64265847D01*
X117200937Y-64388528D01*
X96660000Y-64388528D01*
X96660000Y-61613180D01*
X129135010Y-61613180D01*
X129135010Y-62609972D01*
X129159413Y-62732653D01*
X129207280Y-62848215D01*
X129276773Y-62952219D01*
X129365221Y-63040667D01*
X129469225Y-63110160D01*
X129584787Y-63158027D01*
X129707468Y-63182430D01*
X130704260Y-63182430D01*
X130863010Y-63023680D01*
X130863010Y-61454430D01*
X131117010Y-61454430D01*
X131117010Y-63023680D01*
X131275760Y-63182430D01*
X132191429Y-63182430D01*
X132178937Y-63201125D01*
X132053803Y-63503226D01*
X131990010Y-63823934D01*
X131990010Y-64150926D01*
X132053803Y-64471634D01*
X132178937Y-64773735D01*
X132191429Y-64792430D01*
X131275760Y-64792430D01*
X131117010Y-64951180D01*
X131117010Y-66520430D01*
X132686260Y-66520430D01*
X132845010Y-66361680D01*
X132845010Y-65446011D01*
X132863705Y-65458503D01*
X132954087Y-65495940D01*
X132954087Y-65690726D01*
X132992155Y-65882107D01*
X133066829Y-66062385D01*
X133175238Y-66224631D01*
X133313216Y-66362609D01*
X133475462Y-66471018D01*
X133655740Y-66545692D01*
X133847121Y-66583760D01*
X134042253Y-66583760D01*
X134233634Y-66545692D01*
X134413912Y-66471018D01*
X134504092Y-66410762D01*
X134613760Y-66520430D01*
X136183010Y-66520430D01*
X136183010Y-64951180D01*
X136437010Y-64951180D01*
X136437010Y-66520430D01*
X138006260Y-66520430D01*
X138165010Y-66361680D01*
X138165010Y-65364888D01*
X141834990Y-65364888D01*
X141834990Y-66361680D01*
X141993740Y-66520430D01*
X143562990Y-66520430D01*
X143562990Y-64951180D01*
X143404240Y-64792430D01*
X142407448Y-64792430D01*
X142284767Y-64816833D01*
X142169205Y-64864700D01*
X142065201Y-64934193D01*
X141976753Y-65022641D01*
X141907260Y-65126645D01*
X141859393Y-65242207D01*
X141834990Y-65364888D01*
X138165010Y-65364888D01*
X138140607Y-65242207D01*
X138092740Y-65126645D01*
X138023247Y-65022641D01*
X137934799Y-64934193D01*
X137830795Y-64864700D01*
X137715233Y-64816833D01*
X137592552Y-64792430D01*
X136595760Y-64792430D01*
X136437010Y-64951180D01*
X136183010Y-64951180D01*
X136024260Y-64792430D01*
X135108591Y-64792430D01*
X135121083Y-64773735D01*
X135246217Y-64471634D01*
X135310010Y-64150926D01*
X135310010Y-63823934D01*
X135246217Y-63503226D01*
X135121083Y-63201125D01*
X135108591Y-63182430D01*
X136024260Y-63182430D01*
X136183010Y-63023680D01*
X136183010Y-61454430D01*
X136437010Y-61454430D01*
X136437010Y-63023680D01*
X136595760Y-63182430D01*
X137592552Y-63182430D01*
X137715233Y-63158027D01*
X137830795Y-63110160D01*
X137934799Y-63040667D01*
X138023247Y-62952219D01*
X138092740Y-62848215D01*
X138140607Y-62732653D01*
X138165010Y-62609972D01*
X138165010Y-61613180D01*
X141834990Y-61613180D01*
X141834990Y-62609972D01*
X141859393Y-62732653D01*
X141907260Y-62848215D01*
X141976753Y-62952219D01*
X142065201Y-63040667D01*
X142169205Y-63110160D01*
X142284767Y-63158027D01*
X142407448Y-63182430D01*
X143404240Y-63182430D01*
X143562990Y-63023680D01*
X143562990Y-61454430D01*
X143816990Y-61454430D01*
X143816990Y-63023680D01*
X143975740Y-63182430D01*
X144891409Y-63182430D01*
X144878917Y-63201125D01*
X144753783Y-63503226D01*
X144689990Y-63823934D01*
X144689990Y-64150926D01*
X144753783Y-64471634D01*
X144878917Y-64773735D01*
X144891409Y-64792430D01*
X143975740Y-64792430D01*
X143816990Y-64951180D01*
X143816990Y-66520430D01*
X145386240Y-66520430D01*
X145489131Y-66417539D01*
X145584135Y-66481018D01*
X145764413Y-66555692D01*
X145955794Y-66593760D01*
X146150926Y-66593760D01*
X146342307Y-66555692D01*
X146522585Y-66481018D01*
X146684831Y-66372609D01*
X146822809Y-66234631D01*
X146931218Y-66072385D01*
X147005892Y-65892107D01*
X147043960Y-65700726D01*
X147043960Y-65505594D01*
X147042335Y-65497423D01*
X147136295Y-65458503D01*
X147154990Y-65446011D01*
X147154990Y-66361680D01*
X147313740Y-66520430D01*
X148882990Y-66520430D01*
X148882990Y-64951180D01*
X149136990Y-64951180D01*
X149136990Y-66520430D01*
X150706240Y-66520430D01*
X150864990Y-66361680D01*
X150864990Y-65956820D01*
X153769063Y-65956820D01*
X153769063Y-66953612D01*
X153793466Y-67076293D01*
X153841333Y-67191855D01*
X153910826Y-67295859D01*
X153999274Y-67384307D01*
X154103278Y-67453800D01*
X154218840Y-67501667D01*
X154341521Y-67526070D01*
X155338313Y-67526070D01*
X155497063Y-67367320D01*
X155497063Y-65798070D01*
X155751063Y-65798070D01*
X155751063Y-67367320D01*
X155909813Y-67526070D01*
X156825482Y-67526070D01*
X156812990Y-67544765D01*
X156687856Y-67846866D01*
X156624063Y-68167574D01*
X156624063Y-68494566D01*
X156687856Y-68815274D01*
X156778049Y-69033021D01*
X156689381Y-69121689D01*
X156679772Y-69136070D01*
X155909813Y-69136070D01*
X155751063Y-69294820D01*
X155751063Y-70864070D01*
X157320313Y-70864070D01*
X157440623Y-70743760D01*
X157556396Y-70743760D01*
X157747777Y-70705692D01*
X157928055Y-70631018D01*
X158090301Y-70522609D01*
X158228279Y-70384631D01*
X158336688Y-70222385D01*
X158411362Y-70042107D01*
X158421514Y-69991070D01*
X158447559Y-69991070D01*
X158768267Y-69927277D01*
X159070368Y-69802143D01*
X159089063Y-69789651D01*
X159089063Y-70705320D01*
X159247813Y-70864070D01*
X160817063Y-70864070D01*
X160817063Y-69294820D01*
X161071063Y-69294820D01*
X161071063Y-70864070D01*
X162640313Y-70864070D01*
X162799063Y-70705320D01*
X162799063Y-69708528D01*
X162774660Y-69585847D01*
X162726793Y-69470285D01*
X162657300Y-69366281D01*
X162568852Y-69277833D01*
X162464848Y-69208340D01*
X162349286Y-69160473D01*
X162226605Y-69136070D01*
X161229813Y-69136070D01*
X161071063Y-69294820D01*
X160817063Y-69294820D01*
X160658313Y-69136070D01*
X159742644Y-69136070D01*
X159755136Y-69117375D01*
X159880270Y-68815274D01*
X159944063Y-68494566D01*
X159944063Y-68167574D01*
X159880270Y-67846866D01*
X159755136Y-67544765D01*
X159742644Y-67526070D01*
X160658313Y-67526070D01*
X160817063Y-67367320D01*
X160817063Y-65798070D01*
X161071063Y-65798070D01*
X161071063Y-67367320D01*
X161229813Y-67526070D01*
X162226605Y-67526070D01*
X162349286Y-67501667D01*
X162464848Y-67453800D01*
X162568852Y-67384307D01*
X162657300Y-67295859D01*
X162726793Y-67191855D01*
X162774660Y-67076293D01*
X162799063Y-66953612D01*
X162799063Y-65956820D01*
X162640313Y-65798070D01*
X161071063Y-65798070D01*
X160817063Y-65798070D01*
X159247813Y-65798070D01*
X159089063Y-65956820D01*
X159089063Y-66872489D01*
X159070368Y-66859997D01*
X158768267Y-66734863D01*
X158447559Y-66671070D01*
X158120567Y-66671070D01*
X157799859Y-66734863D01*
X157497758Y-66859997D01*
X157479063Y-66872489D01*
X157479063Y-65956820D01*
X157320313Y-65798070D01*
X155751063Y-65798070D01*
X155497063Y-65798070D01*
X153927813Y-65798070D01*
X153769063Y-65956820D01*
X150864990Y-65956820D01*
X150864990Y-65364888D01*
X150840587Y-65242207D01*
X150792720Y-65126645D01*
X150723227Y-65022641D01*
X150634779Y-64934193D01*
X150530775Y-64864700D01*
X150415213Y-64816833D01*
X150292532Y-64792430D01*
X149295740Y-64792430D01*
X149136990Y-64951180D01*
X148882990Y-64951180D01*
X148724240Y-64792430D01*
X147808571Y-64792430D01*
X147821063Y-64773735D01*
X147946197Y-64471634D01*
X147962727Y-64388528D01*
X153769063Y-64388528D01*
X153769063Y-65385320D01*
X153927813Y-65544070D01*
X155497063Y-65544070D01*
X155497063Y-63974820D01*
X155751063Y-63974820D01*
X155751063Y-65544070D01*
X157320313Y-65544070D01*
X157479063Y-65385320D01*
X157479063Y-64388528D01*
X159089063Y-64388528D01*
X159089063Y-65385320D01*
X159247813Y-65544070D01*
X160817063Y-65544070D01*
X160817063Y-63974820D01*
X161071063Y-63974820D01*
X161071063Y-65544070D01*
X162640313Y-65544070D01*
X162799063Y-65385320D01*
X162799063Y-64388528D01*
X162774660Y-64265847D01*
X162726793Y-64150285D01*
X162657300Y-64046281D01*
X162568852Y-63957833D01*
X162464848Y-63888340D01*
X162349286Y-63840473D01*
X162226605Y-63816070D01*
X161229813Y-63816070D01*
X161071063Y-63974820D01*
X160817063Y-63974820D01*
X160658313Y-63816070D01*
X159661521Y-63816070D01*
X159538840Y-63840473D01*
X159423278Y-63888340D01*
X159319274Y-63957833D01*
X159230826Y-64046281D01*
X159161333Y-64150285D01*
X159113466Y-64265847D01*
X159089063Y-64388528D01*
X157479063Y-64388528D01*
X157454660Y-64265847D01*
X157406793Y-64150285D01*
X157337300Y-64046281D01*
X157248852Y-63957833D01*
X157144848Y-63888340D01*
X157029286Y-63840473D01*
X156906605Y-63816070D01*
X155909813Y-63816070D01*
X155751063Y-63974820D01*
X155497063Y-63974820D01*
X155338313Y-63816070D01*
X154341521Y-63816070D01*
X154218840Y-63840473D01*
X154103278Y-63888340D01*
X153999274Y-63957833D01*
X153910826Y-64046281D01*
X153841333Y-64150285D01*
X153793466Y-64265847D01*
X153769063Y-64388528D01*
X147962727Y-64388528D01*
X148009990Y-64150926D01*
X148009990Y-63823934D01*
X147946197Y-63503226D01*
X147821063Y-63201125D01*
X147808571Y-63182430D01*
X148724240Y-63182430D01*
X148882990Y-63023680D01*
X148882990Y-61454430D01*
X149136990Y-61454430D01*
X149136990Y-63023680D01*
X149295740Y-63182430D01*
X150292532Y-63182430D01*
X150415213Y-63158027D01*
X150530775Y-63110160D01*
X150634779Y-63040667D01*
X150723227Y-62952219D01*
X150792720Y-62848215D01*
X150840587Y-62732653D01*
X150864990Y-62609972D01*
X150864990Y-61613180D01*
X150706240Y-61454430D01*
X149136990Y-61454430D01*
X148882990Y-61454430D01*
X147313740Y-61454430D01*
X147154990Y-61613180D01*
X147154990Y-62528849D01*
X147136295Y-62516357D01*
X146834194Y-62391223D01*
X146513486Y-62327430D01*
X146186494Y-62327430D01*
X145865786Y-62391223D01*
X145563685Y-62516357D01*
X145544990Y-62528849D01*
X145544990Y-61613180D01*
X145386240Y-61454430D01*
X143816990Y-61454430D01*
X143562990Y-61454430D01*
X141993740Y-61454430D01*
X141834990Y-61613180D01*
X138165010Y-61613180D01*
X138006260Y-61454430D01*
X136437010Y-61454430D01*
X136183010Y-61454430D01*
X134613760Y-61454430D01*
X134455010Y-61613180D01*
X134455010Y-62528849D01*
X134436315Y-62516357D01*
X134134214Y-62391223D01*
X133813506Y-62327430D01*
X133486514Y-62327430D01*
X133165806Y-62391223D01*
X132863705Y-62516357D01*
X132845010Y-62528849D01*
X132845010Y-61613180D01*
X132686260Y-61454430D01*
X131117010Y-61454430D01*
X130863010Y-61454430D01*
X129293760Y-61454430D01*
X129135010Y-61613180D01*
X96660000Y-61613180D01*
X96660000Y-60044888D01*
X129135010Y-60044888D01*
X129135010Y-61041680D01*
X129293760Y-61200430D01*
X130863010Y-61200430D01*
X130863010Y-59631180D01*
X131117010Y-59631180D01*
X131117010Y-61200430D01*
X132686260Y-61200430D01*
X132845010Y-61041680D01*
X132845010Y-60044888D01*
X134455010Y-60044888D01*
X134455010Y-61041680D01*
X134613760Y-61200430D01*
X136183010Y-61200430D01*
X136183010Y-59631180D01*
X136437010Y-59631180D01*
X136437010Y-61200430D01*
X138006260Y-61200430D01*
X138165010Y-61041680D01*
X138165010Y-60044888D01*
X141834990Y-60044888D01*
X141834990Y-61041680D01*
X141993740Y-61200430D01*
X143562990Y-61200430D01*
X143562990Y-59631180D01*
X143816990Y-59631180D01*
X143816990Y-61200430D01*
X145386240Y-61200430D01*
X145544990Y-61041680D01*
X145544990Y-60044888D01*
X147154990Y-60044888D01*
X147154990Y-61041680D01*
X147313740Y-61200430D01*
X148882990Y-61200430D01*
X148882990Y-59631180D01*
X149136990Y-59631180D01*
X149136990Y-61200430D01*
X150706240Y-61200430D01*
X150864990Y-61041680D01*
X150864990Y-60044888D01*
X150840587Y-59922207D01*
X150792720Y-59806645D01*
X150723227Y-59702641D01*
X150634779Y-59614193D01*
X150530775Y-59544700D01*
X150415213Y-59496833D01*
X150292532Y-59472430D01*
X149295740Y-59472430D01*
X149136990Y-59631180D01*
X148882990Y-59631180D01*
X148724240Y-59472430D01*
X147727448Y-59472430D01*
X147604767Y-59496833D01*
X147489205Y-59544700D01*
X147385201Y-59614193D01*
X147296753Y-59702641D01*
X147227260Y-59806645D01*
X147179393Y-59922207D01*
X147154990Y-60044888D01*
X145544990Y-60044888D01*
X145520587Y-59922207D01*
X145472720Y-59806645D01*
X145403227Y-59702641D01*
X145314779Y-59614193D01*
X145210775Y-59544700D01*
X145095213Y-59496833D01*
X144972532Y-59472430D01*
X143975740Y-59472430D01*
X143816990Y-59631180D01*
X143562990Y-59631180D01*
X143404240Y-59472430D01*
X142407448Y-59472430D01*
X142284767Y-59496833D01*
X142169205Y-59544700D01*
X142065201Y-59614193D01*
X141976753Y-59702641D01*
X141907260Y-59806645D01*
X141859393Y-59922207D01*
X141834990Y-60044888D01*
X138165010Y-60044888D01*
X138140607Y-59922207D01*
X138092740Y-59806645D01*
X138023247Y-59702641D01*
X137934799Y-59614193D01*
X137830795Y-59544700D01*
X137715233Y-59496833D01*
X137592552Y-59472430D01*
X136595760Y-59472430D01*
X136437010Y-59631180D01*
X136183010Y-59631180D01*
X136024260Y-59472430D01*
X135027468Y-59472430D01*
X134904787Y-59496833D01*
X134789225Y-59544700D01*
X134685221Y-59614193D01*
X134596773Y-59702641D01*
X134527280Y-59806645D01*
X134479413Y-59922207D01*
X134455010Y-60044888D01*
X132845010Y-60044888D01*
X132820607Y-59922207D01*
X132772740Y-59806645D01*
X132703247Y-59702641D01*
X132614799Y-59614193D01*
X132510795Y-59544700D01*
X132395233Y-59496833D01*
X132272552Y-59472430D01*
X131275760Y-59472430D01*
X131117010Y-59631180D01*
X130863010Y-59631180D01*
X130704260Y-59472430D01*
X129707468Y-59472430D01*
X129584787Y-59496833D01*
X129469225Y-59544700D01*
X129365221Y-59614193D01*
X129276773Y-59702641D01*
X129207280Y-59806645D01*
X129159413Y-59922207D01*
X129135010Y-60044888D01*
X96660000Y-60044888D01*
X96660000Y-57663160D01*
X183340001Y-57663160D01*
X183340000Y-105343160D01*
X183340000Y-105343160D01*
G37*
X183340000Y-105343160D02*
X96660000Y-105343160D01*
X96660000Y-102945750D01*
X98916874Y-102945750D01*
X98916874Y-103942542D01*
X98941277Y-104065223D01*
X98989144Y-104180785D01*
X99058637Y-104284789D01*
X99147085Y-104373237D01*
X99251089Y-104442730D01*
X99366651Y-104490597D01*
X99489332Y-104515000D01*
X100486124Y-104515000D01*
X100644874Y-104356250D01*
X100644874Y-102787000D01*
X100898874Y-102787000D01*
X100898874Y-104356250D01*
X101057624Y-104515000D01*
X102054416Y-104515000D01*
X102177097Y-104490597D01*
X102292659Y-104442730D01*
X102396663Y-104373237D01*
X102485111Y-104284789D01*
X102554604Y-104180785D01*
X102602471Y-104065223D01*
X102626874Y-103942542D01*
X102626874Y-102945750D01*
X104236874Y-102945750D01*
X104236874Y-103942542D01*
X104261277Y-104065223D01*
X104309144Y-104180785D01*
X104378637Y-104284789D01*
X104467085Y-104373237D01*
X104571089Y-104442730D01*
X104686651Y-104490597D01*
X104809332Y-104515000D01*
X105806124Y-104515000D01*
X105964874Y-104356250D01*
X105964874Y-102787000D01*
X106218874Y-102787000D01*
X106218874Y-104356250D01*
X106377624Y-104515000D01*
X107374416Y-104515000D01*
X107497097Y-104490597D01*
X107612659Y-104442730D01*
X107716663Y-104373237D01*
X107805111Y-104284789D01*
X107874604Y-104180785D01*
X107922471Y-104065223D01*
X107946874Y-103942542D01*
X107946874Y-103429133D01*
X135740472Y-103429133D01*
X135802965Y-103665450D01*
X136045678Y-103778850D01*
X136305849Y-103842719D01*
X136573482Y-103854604D01*
X136838291Y-103814048D01*
X137090100Y-103722609D01*
X137197035Y-103665450D01*
X137259528Y-103429133D01*
X142660472Y-103429133D01*
X142722965Y-103665450D01*
X142965678Y-103778850D01*
X143225849Y-103842719D01*
X143493482Y-103854604D01*
X143758291Y-103814048D01*
X144010100Y-103722609D01*
X144117035Y-103665450D01*
X144179528Y-103429133D01*
X143420000Y-102669605D01*
X142660472Y-103429133D01*
X137259528Y-103429133D01*
X136500000Y-102669605D01*
X135740472Y-103429133D01*
X107946874Y-103429133D01*
X107946874Y-102945750D01*
X107788124Y-102787000D01*
X106218874Y-102787000D01*
X105964874Y-102787000D01*
X104395624Y-102787000D01*
X104236874Y-102945750D01*
X102626874Y-102945750D01*
X102468124Y-102787000D01*
X100898874Y-102787000D01*
X100644874Y-102787000D01*
X99075624Y-102787000D01*
X98916874Y-102945750D01*
X96660000Y-102945750D01*
X96660000Y-102563482D01*
X135135396Y-102563482D01*
X135175952Y-102828291D01*
X135267391Y-103080100D01*
X135324550Y-103187035D01*
X135560867Y-103249528D01*
X136320395Y-102490000D01*
X136679605Y-102490000D01*
X137439133Y-103249528D01*
X137675450Y-103187035D01*
X137788850Y-102944322D01*
X137852719Y-102684151D01*
X137858077Y-102563482D01*
X142055396Y-102563482D01*
X142095952Y-102828291D01*
X142187391Y-103080100D01*
X142244550Y-103187035D01*
X142480867Y-103249528D01*
X143240395Y-102490000D01*
X143599605Y-102490000D01*
X144359133Y-103249528D01*
X144595450Y-103187035D01*
X144708182Y-102945750D01*
X172053126Y-102945750D01*
X172053126Y-103942542D01*
X172077529Y-104065223D01*
X172125396Y-104180785D01*
X172194889Y-104284789D01*
X172283337Y-104373237D01*
X172387341Y-104442730D01*
X172502903Y-104490597D01*
X172625584Y-104515000D01*
X173622376Y-104515000D01*
X173781126Y-104356250D01*
X173781126Y-102787000D01*
X174035126Y-102787000D01*
X174035126Y-104356250D01*
X174193876Y-104515000D01*
X175190668Y-104515000D01*
X175313349Y-104490597D01*
X175428911Y-104442730D01*
X175532915Y-104373237D01*
X175621363Y-104284789D01*
X175690856Y-104180785D01*
X175738723Y-104065223D01*
X175763126Y-103942542D01*
X175763126Y-102945750D01*
X177373126Y-102945750D01*
X177373126Y-103942542D01*
X177397529Y-104065223D01*
X177445396Y-104180785D01*
X177514889Y-104284789D01*
X177603337Y-104373237D01*
X177707341Y-104442730D01*
X177822903Y-104490597D01*
X177945584Y-104515000D01*
X178942376Y-104515000D01*
X179101126Y-104356250D01*
X179101126Y-102787000D01*
X179355126Y-102787000D01*
X179355126Y-104356250D01*
X179513876Y-104515000D01*
X180510668Y-104515000D01*
X180633349Y-104490597D01*
X180748911Y-104442730D01*
X180852915Y-104373237D01*
X180941363Y-104284789D01*
X181010856Y-104180785D01*
X181058723Y-104065223D01*
X181083126Y-103942542D01*
X181083126Y-102945750D01*
X180924376Y-102787000D01*
X179355126Y-102787000D01*
X179101126Y-102787000D01*
X177531876Y-102787000D01*
X177373126Y-102945750D01*
X175763126Y-102945750D01*
X175604376Y-102787000D01*
X174035126Y-102787000D01*
X173781126Y-102787000D01*
X172211876Y-102787000D01*
X172053126Y-102945750D01*
X144708182Y-102945750D01*
X144708850Y-102944322D01*
X144772719Y-102684151D01*
X144784604Y-102416518D01*
X144744048Y-102151709D01*
X144652609Y-101899900D01*
X144595450Y-101792965D01*
X144359133Y-101730472D01*
X143599605Y-102490000D01*
X143240395Y-102490000D01*
X142480867Y-101730472D01*
X142244550Y-101792965D01*
X142131150Y-102035678D01*
X142067281Y-102295849D01*
X142055396Y-102563482D01*
X137858077Y-102563482D01*
X137864604Y-102416518D01*
X137824048Y-102151709D01*
X137732609Y-101899900D01*
X137675450Y-101792965D01*
X137439133Y-101730472D01*
X136679605Y-102490000D01*
X136320395Y-102490000D01*
X135560867Y-101730472D01*
X135324550Y-101792965D01*
X135211150Y-102035678D01*
X135147281Y-102295849D01*
X135135396Y-102563482D01*
X96660000Y-102563482D01*
X96660000Y-101377458D01*
X98916874Y-101377458D01*
X98916874Y-102374250D01*
X99075624Y-102533000D01*
X100644874Y-102533000D01*
X100644874Y-100963750D01*
X100486124Y-100805000D01*
X99489332Y-100805000D01*
X99366651Y-100829403D01*
X99251089Y-100877270D01*
X99147085Y-100946763D01*
X99058637Y-101035211D01*
X98989144Y-101139215D01*
X98941277Y-101254777D01*
X98916874Y-101377458D01*
X96660000Y-101377458D01*
X96660000Y-97625750D01*
X98916874Y-97625750D01*
X98916874Y-98622542D01*
X98941277Y-98745223D01*
X98989144Y-98860785D01*
X99058637Y-98964789D01*
X99147085Y-99053237D01*
X99251089Y-99122730D01*
X99366651Y-99170597D01*
X99489332Y-99195000D01*
X100486124Y-99195000D01*
X100644874Y-99036250D01*
X100644874Y-97467000D01*
X100898874Y-97467000D01*
X100898874Y-99036250D01*
X101057624Y-99195000D01*
X101973293Y-99195000D01*
X101960801Y-99213695D01*
X101835667Y-99515796D01*
X101771874Y-99836504D01*
X101771874Y-100163496D01*
X101835667Y-100484204D01*
X101960801Y-100786305D01*
X101973293Y-100805000D01*
X101057624Y-100805000D01*
X100898874Y-100963750D01*
X100898874Y-102533000D01*
X102468124Y-102533000D01*
X102626874Y-102374250D01*
X102626874Y-101458581D01*
X102645569Y-101471073D01*
X102947670Y-101596207D01*
X103268378Y-101660000D01*
X103595370Y-101660000D01*
X103916078Y-101596207D01*
X104218179Y-101471073D01*
X104236874Y-101458581D01*
X104236874Y-102374250D01*
X104395624Y-102533000D01*
X105964874Y-102533000D01*
X105964874Y-100963750D01*
X106218874Y-100963750D01*
X106218874Y-102533000D01*
X107788124Y-102533000D01*
X107946874Y-102374250D01*
X107946874Y-101377458D01*
X107925135Y-101268166D01*
X134426439Y-101268166D01*
X134461550Y-101481588D01*
X134665826Y-101572458D01*
X134883905Y-101621731D01*
X135107406Y-101627511D01*
X135327740Y-101589577D01*
X135428485Y-101550867D01*
X135740472Y-101550867D01*
X136500000Y-102310395D01*
X137259528Y-101550867D01*
X142660472Y-101550867D01*
X143420000Y-102310395D01*
X144179528Y-101550867D01*
X144117035Y-101314550D01*
X144017759Y-101268166D01*
X144296439Y-101268166D01*
X144331550Y-101481588D01*
X144535826Y-101572458D01*
X144753905Y-101621731D01*
X144977406Y-101627511D01*
X145197740Y-101589577D01*
X145406440Y-101509387D01*
X145458450Y-101481588D01*
X145475580Y-101377458D01*
X172053126Y-101377458D01*
X172053126Y-102374250D01*
X172211876Y-102533000D01*
X173781126Y-102533000D01*
X173781126Y-100963750D01*
X173622376Y-100805000D01*
X172625584Y-100805000D01*
X172502903Y-100829403D01*
X172387341Y-100877270D01*
X172283337Y-100946763D01*
X172194889Y-101035211D01*
X172125396Y-101139215D01*
X172077529Y-101254777D01*
X172053126Y-101377458D01*
X145475580Y-101377458D01*
X145493561Y-101268166D01*
X144895000Y-100669605D01*
X144296439Y-101268166D01*
X144017759Y-101268166D01*
X143874322Y-101201150D01*
X143614151Y-101137281D01*
X143346518Y-101125396D01*
X143081709Y-101165952D01*
X142829900Y-101257391D01*
X142722965Y-101314550D01*
X142660472Y-101550867D01*
X137259528Y-101550867D01*
X137197035Y-101314550D01*
X136954322Y-101201150D01*
X136694151Y-101137281D01*
X136426518Y-101125396D01*
X136161709Y-101165952D01*
X135909900Y-101257391D01*
X135802965Y-101314550D01*
X135740472Y-101550867D01*
X135428485Y-101550867D01*
X135536440Y-101509387D01*
X135588450Y-101481588D01*
X135623561Y-101268166D01*
X135025000Y-100669605D01*
X134426439Y-101268166D01*
X107925135Y-101268166D01*
X107922471Y-101254777D01*
X107874604Y-101139215D01*
X107805111Y-101035211D01*
X107716663Y-100946763D01*
X107612659Y-100877270D01*
X107497097Y-100829403D01*
X107374416Y-100805000D01*
X106377624Y-100805000D01*
X106218874Y-100963750D01*
X105964874Y-100963750D01*
X105806124Y-100805000D01*
X105586217Y-100805000D01*
X105712971Y-100720306D01*
X105850949Y-100582328D01*
X105857578Y-100572406D01*
X133887489Y-100572406D01*
X133925423Y-100792740D01*
X134005613Y-101001440D01*
X134033412Y-101053450D01*
X134246834Y-101088561D01*
X134845395Y-100490000D01*
X135204605Y-100490000D01*
X135803166Y-101088561D01*
X136016588Y-101053450D01*
X136107458Y-100849174D01*
X136156731Y-100631095D01*
X136158248Y-100572406D01*
X143757489Y-100572406D01*
X143795423Y-100792740D01*
X143875613Y-101001440D01*
X143903412Y-101053450D01*
X144116834Y-101088561D01*
X144715395Y-100490000D01*
X145074605Y-100490000D01*
X145673166Y-101088561D01*
X145886588Y-101053450D01*
X145977458Y-100849174D01*
X146026731Y-100631095D01*
X146032511Y-100407594D01*
X145994577Y-100187260D01*
X145914387Y-99978560D01*
X145886588Y-99926550D01*
X145673166Y-99891439D01*
X145074605Y-100490000D01*
X144715395Y-100490000D01*
X144116834Y-99891439D01*
X143903412Y-99926550D01*
X143812542Y-100130826D01*
X143763269Y-100348905D01*
X143757489Y-100572406D01*
X136158248Y-100572406D01*
X136162511Y-100407594D01*
X136124577Y-100187260D01*
X136044387Y-99978560D01*
X136016588Y-99926550D01*
X135803166Y-99891439D01*
X135204605Y-100490000D01*
X134845395Y-100490000D01*
X134246834Y-99891439D01*
X134033412Y-99926550D01*
X133942542Y-100130826D01*
X133893269Y-100348905D01*
X133887489Y-100572406D01*
X105857578Y-100572406D01*
X105959358Y-100420082D01*
X106034032Y-100239804D01*
X106072100Y-100048423D01*
X106072100Y-99853291D01*
X106043963Y-99711834D01*
X134426439Y-99711834D01*
X135025000Y-100310395D01*
X135623561Y-99711834D01*
X135588450Y-99498412D01*
X135384174Y-99407542D01*
X135166095Y-99358269D01*
X134942594Y-99352489D01*
X134722260Y-99390423D01*
X134513560Y-99470613D01*
X134461550Y-99498412D01*
X134426439Y-99711834D01*
X106043963Y-99711834D01*
X106034032Y-99661910D01*
X105959358Y-99481632D01*
X105850949Y-99319386D01*
X105726563Y-99195000D01*
X105806124Y-99195000D01*
X105964874Y-99036250D01*
X105964874Y-97467000D01*
X106218874Y-97467000D01*
X106218874Y-99036250D01*
X106377624Y-99195000D01*
X107374416Y-99195000D01*
X107497097Y-99170597D01*
X107612659Y-99122730D01*
X107716663Y-99053237D01*
X107805111Y-98964789D01*
X107846775Y-98902434D01*
X136009400Y-98902434D01*
X136009400Y-99097566D01*
X136047468Y-99288947D01*
X136122142Y-99469225D01*
X136230551Y-99631471D01*
X136368529Y-99769449D01*
X136530775Y-99877858D01*
X136711053Y-99952532D01*
X136902434Y-99990600D01*
X137097566Y-99990600D01*
X137288947Y-99952532D01*
X137469225Y-99877858D01*
X137631471Y-99769449D01*
X137769449Y-99631471D01*
X137877858Y-99469225D01*
X137952532Y-99288947D01*
X137980363Y-99149032D01*
X138111825Y-99094578D01*
X138274071Y-98986169D01*
X138412049Y-98848191D01*
X138520458Y-98685945D01*
X138595132Y-98505667D01*
X138633200Y-98314286D01*
X138633200Y-98135111D01*
X138731471Y-98069449D01*
X138869449Y-97931471D01*
X138977858Y-97769225D01*
X139052532Y-97588947D01*
X139087812Y-97411580D01*
X139169225Y-97377858D01*
X139331471Y-97269449D01*
X139469449Y-97131471D01*
X139577858Y-96969225D01*
X139627524Y-96849321D01*
X139788947Y-96817212D01*
X139969225Y-96742538D01*
X140009503Y-96715625D01*
X140030775Y-96729838D01*
X140211053Y-96804512D01*
X140366743Y-96835481D01*
X140422142Y-96969225D01*
X140530551Y-97131471D01*
X140668529Y-97269449D01*
X140830775Y-97377858D01*
X140912188Y-97411580D01*
X140947468Y-97588947D01*
X141022142Y-97769225D01*
X141130551Y-97931471D01*
X141268529Y-98069449D01*
X141356080Y-98127949D01*
X141356080Y-98281266D01*
X141394148Y-98472647D01*
X141468822Y-98652925D01*
X141577231Y-98815171D01*
X141715209Y-98953149D01*
X141877455Y-99061558D01*
X142013442Y-99117886D01*
X142047468Y-99288947D01*
X142122142Y-99469225D01*
X142230551Y-99631471D01*
X142368529Y-99769449D01*
X142530775Y-99877858D01*
X142711053Y-99952532D01*
X142902434Y-99990600D01*
X143097566Y-99990600D01*
X143288947Y-99952532D01*
X143469225Y-99877858D01*
X143631471Y-99769449D01*
X143689086Y-99711834D01*
X144296439Y-99711834D01*
X144895000Y-100310395D01*
X145348224Y-99857171D01*
X173950900Y-99857171D01*
X173950900Y-100052303D01*
X173988968Y-100243684D01*
X174063642Y-100423962D01*
X174172051Y-100586208D01*
X174310029Y-100724186D01*
X174430976Y-100805000D01*
X174193876Y-100805000D01*
X174035126Y-100963750D01*
X174035126Y-102533000D01*
X175604376Y-102533000D01*
X175763126Y-102374250D01*
X175763126Y-101458581D01*
X175781821Y-101471073D01*
X176083922Y-101596207D01*
X176404630Y-101660000D01*
X176731622Y-101660000D01*
X177052330Y-101596207D01*
X177354431Y-101471073D01*
X177373126Y-101458581D01*
X177373126Y-102374250D01*
X177531876Y-102533000D01*
X179101126Y-102533000D01*
X179101126Y-100963750D01*
X179355126Y-100963750D01*
X179355126Y-102533000D01*
X180924376Y-102533000D01*
X181083126Y-102374250D01*
X181083126Y-101377458D01*
X181058723Y-101254777D01*
X181010856Y-101139215D01*
X180941363Y-101035211D01*
X180852915Y-100946763D01*
X180748911Y-100877270D01*
X180633349Y-100829403D01*
X180510668Y-100805000D01*
X179513876Y-100805000D01*
X179355126Y-100963750D01*
X179101126Y-100963750D01*
X178942376Y-100805000D01*
X178026707Y-100805000D01*
X178039199Y-100786305D01*
X178164333Y-100484204D01*
X178228126Y-100163496D01*
X178228126Y-99836504D01*
X178164333Y-99515796D01*
X178039199Y-99213695D01*
X178026707Y-99195000D01*
X178942376Y-99195000D01*
X179101126Y-99036250D01*
X179101126Y-97467000D01*
X179355126Y-97467000D01*
X179355126Y-99036250D01*
X179513876Y-99195000D01*
X180510668Y-99195000D01*
X180633349Y-99170597D01*
X180748911Y-99122730D01*
X180852915Y-99053237D01*
X180941363Y-98964789D01*
X181010856Y-98860785D01*
X181058723Y-98745223D01*
X181083126Y-98622542D01*
X181083126Y-97625750D01*
X180924376Y-97467000D01*
X179355126Y-97467000D01*
X179101126Y-97467000D01*
X177531876Y-97467000D01*
X177373126Y-97625750D01*
X177373126Y-98541419D01*
X177354431Y-98528927D01*
X177052330Y-98403793D01*
X176731622Y-98340000D01*
X176404630Y-98340000D01*
X176083922Y-98403793D01*
X175781821Y-98528927D01*
X175763126Y-98541419D01*
X175763126Y-97625750D01*
X175604376Y-97467000D01*
X174035126Y-97467000D01*
X174035126Y-99036250D01*
X174193876Y-99195000D01*
X174300317Y-99195000D01*
X174172051Y-99323266D01*
X174063642Y-99485512D01*
X173988968Y-99665790D01*
X173950900Y-99857171D01*
X145348224Y-99857171D01*
X145493561Y-99711834D01*
X145458450Y-99498412D01*
X145254174Y-99407542D01*
X145036095Y-99358269D01*
X144812594Y-99352489D01*
X144592260Y-99390423D01*
X144383560Y-99470613D01*
X144331550Y-99498412D01*
X144296439Y-99711834D01*
X143689086Y-99711834D01*
X143769449Y-99631471D01*
X143877858Y-99469225D01*
X143952532Y-99288947D01*
X143990600Y-99097566D01*
X143990600Y-98902434D01*
X143952532Y-98711053D01*
X143877858Y-98530775D01*
X143769449Y-98368529D01*
X143631471Y-98230551D01*
X143469225Y-98122142D01*
X143333238Y-98065814D01*
X143299212Y-97894753D01*
X143224538Y-97714475D01*
X143165255Y-97625750D01*
X172053126Y-97625750D01*
X172053126Y-98622542D01*
X172077529Y-98745223D01*
X172125396Y-98860785D01*
X172194889Y-98964789D01*
X172283337Y-99053237D01*
X172387341Y-99122730D01*
X172502903Y-99170597D01*
X172625584Y-99195000D01*
X173622376Y-99195000D01*
X173781126Y-99036250D01*
X173781126Y-97467000D01*
X172211876Y-97467000D01*
X172053126Y-97625750D01*
X143165255Y-97625750D01*
X143116129Y-97552229D01*
X142978151Y-97414251D01*
X142890600Y-97355751D01*
X142890600Y-97202434D01*
X142852532Y-97011053D01*
X142777858Y-96830775D01*
X142669449Y-96668529D01*
X142531471Y-96530551D01*
X142369225Y-96422142D01*
X142287812Y-96388420D01*
X142252532Y-96211053D01*
X142188911Y-96057458D01*
X172053126Y-96057458D01*
X172053126Y-97054250D01*
X172211876Y-97213000D01*
X173781126Y-97213000D01*
X173781126Y-95643750D01*
X174035126Y-95643750D01*
X174035126Y-97213000D01*
X175604376Y-97213000D01*
X175763126Y-97054250D01*
X175763126Y-96057458D01*
X177373126Y-96057458D01*
X177373126Y-97054250D01*
X177531876Y-97213000D01*
X179101126Y-97213000D01*
X179101126Y-95643750D01*
X179355126Y-95643750D01*
X179355126Y-97213000D01*
X180924376Y-97213000D01*
X181083126Y-97054250D01*
X181083126Y-96057458D01*
X181058723Y-95934777D01*
X181010856Y-95819215D01*
X180941363Y-95715211D01*
X180852915Y-95626763D01*
X180748911Y-95557270D01*
X180633349Y-95509403D01*
X180510668Y-95485000D01*
X179513876Y-95485000D01*
X179355126Y-95643750D01*
X179101126Y-95643750D01*
X178942376Y-95485000D01*
X177945584Y-95485000D01*
X177822903Y-95509403D01*
X177707341Y-95557270D01*
X177603337Y-95626763D01*
X177514889Y-95715211D01*
X177445396Y-95819215D01*
X177397529Y-95934777D01*
X177373126Y-96057458D01*
X175763126Y-96057458D01*
X175738723Y-95934777D01*
X175690856Y-95819215D01*
X175621363Y-95715211D01*
X175532915Y-95626763D01*
X175428911Y-95557270D01*
X175313349Y-95509403D01*
X175190668Y-95485000D01*
X174193876Y-95485000D01*
X174035126Y-95643750D01*
X173781126Y-95643750D01*
X173622376Y-95485000D01*
X172625584Y-95485000D01*
X172502903Y-95509403D01*
X172387341Y-95557270D01*
X172283337Y-95626763D01*
X172194889Y-95715211D01*
X172125396Y-95819215D01*
X172077529Y-95934777D01*
X172053126Y-96057458D01*
X142188911Y-96057458D01*
X142177858Y-96030775D01*
X142069449Y-95868529D01*
X141931471Y-95730551D01*
X141769225Y-95622142D01*
X141588947Y-95547468D01*
X141433257Y-95516499D01*
X141377858Y-95382755D01*
X141269449Y-95220509D01*
X141131471Y-95082531D01*
X140969225Y-94974122D01*
X140788947Y-94899448D01*
X140597566Y-94861380D01*
X140402434Y-94861380D01*
X140211053Y-94899448D01*
X140030775Y-94974122D01*
X139990497Y-95001035D01*
X139969225Y-94986822D01*
X139788947Y-94912148D01*
X139597566Y-94874080D01*
X139402434Y-94874080D01*
X139211053Y-94912148D01*
X139030775Y-94986822D01*
X138868529Y-95095231D01*
X138730551Y-95233209D01*
X138622142Y-95395455D01*
X138572476Y-95515359D01*
X138411053Y-95547468D01*
X138230775Y-95622142D01*
X138068529Y-95730551D01*
X137930551Y-95868529D01*
X137822142Y-96030775D01*
X137747468Y-96211053D01*
X137712188Y-96388420D01*
X137630775Y-96422142D01*
X137468529Y-96530551D01*
X137330551Y-96668529D01*
X137222142Y-96830775D01*
X137147468Y-97011053D01*
X137109400Y-97202434D01*
X137109400Y-97381609D01*
X137011129Y-97447271D01*
X136873151Y-97585249D01*
X136764742Y-97747495D01*
X136690068Y-97927773D01*
X136662237Y-98067688D01*
X136530775Y-98122142D01*
X136368529Y-98230551D01*
X136230551Y-98368529D01*
X136122142Y-98530775D01*
X136047468Y-98711053D01*
X136009400Y-98902434D01*
X107846775Y-98902434D01*
X107874604Y-98860785D01*
X107922471Y-98745223D01*
X107946874Y-98622542D01*
X107946874Y-97625750D01*
X107788124Y-97467000D01*
X106218874Y-97467000D01*
X105964874Y-97467000D01*
X104395624Y-97467000D01*
X104236874Y-97625750D01*
X104236874Y-98541419D01*
X104218179Y-98528927D01*
X103916078Y-98403793D01*
X103595370Y-98340000D01*
X103268378Y-98340000D01*
X102947670Y-98403793D01*
X102645569Y-98528927D01*
X102626874Y-98541419D01*
X102626874Y-97625750D01*
X102468124Y-97467000D01*
X100898874Y-97467000D01*
X100644874Y-97467000D01*
X99075624Y-97467000D01*
X98916874Y-97625750D01*
X96660000Y-97625750D01*
X96660000Y-96057458D01*
X98916874Y-96057458D01*
X98916874Y-97054250D01*
X99075624Y-97213000D01*
X100644874Y-97213000D01*
X100644874Y-95643750D01*
X100898874Y-95643750D01*
X100898874Y-97213000D01*
X102468124Y-97213000D01*
X102626874Y-97054250D01*
X102626874Y-96057458D01*
X104236874Y-96057458D01*
X104236874Y-97054250D01*
X104395624Y-97213000D01*
X105964874Y-97213000D01*
X105964874Y-95643750D01*
X106218874Y-95643750D01*
X106218874Y-97213000D01*
X107788124Y-97213000D01*
X107946874Y-97054250D01*
X107946874Y-96057458D01*
X107922471Y-95934777D01*
X107874604Y-95819215D01*
X107805111Y-95715211D01*
X107716663Y-95626763D01*
X107612659Y-95557270D01*
X107497097Y-95509403D01*
X107374416Y-95485000D01*
X106377624Y-95485000D01*
X106218874Y-95643750D01*
X105964874Y-95643750D01*
X105806124Y-95485000D01*
X104809332Y-95485000D01*
X104686651Y-95509403D01*
X104571089Y-95557270D01*
X104467085Y-95626763D01*
X104378637Y-95715211D01*
X104309144Y-95819215D01*
X104261277Y-95934777D01*
X104236874Y-96057458D01*
X102626874Y-96057458D01*
X102602471Y-95934777D01*
X102554604Y-95819215D01*
X102485111Y-95715211D01*
X102396663Y-95626763D01*
X102292659Y-95557270D01*
X102177097Y-95509403D01*
X102054416Y-95485000D01*
X101057624Y-95485000D01*
X100898874Y-95643750D01*
X100644874Y-95643750D01*
X100486124Y-95485000D01*
X99489332Y-95485000D01*
X99366651Y-95509403D01*
X99251089Y-95557270D01*
X99147085Y-95626763D01*
X99058637Y-95715211D01*
X98989144Y-95819215D01*
X98941277Y-95934777D01*
X98916874Y-96057458D01*
X96660000Y-96057458D01*
X96660000Y-90438710D01*
X101122200Y-90438710D01*
X101122200Y-91435502D01*
X101146603Y-91558183D01*
X101194470Y-91673745D01*
X101263963Y-91777749D01*
X101352411Y-91866197D01*
X101456415Y-91935690D01*
X101571977Y-91983557D01*
X101694658Y-92007960D01*
X102691450Y-92007960D01*
X102850200Y-91849210D01*
X102850200Y-90279960D01*
X103104200Y-90279960D01*
X103104200Y-91849210D01*
X103262950Y-92007960D01*
X104259742Y-92007960D01*
X104382423Y-91983557D01*
X104497985Y-91935690D01*
X104601989Y-91866197D01*
X104690437Y-91777749D01*
X104759930Y-91673745D01*
X104807797Y-91558183D01*
X104832200Y-91435502D01*
X104832200Y-90438710D01*
X106442200Y-90438710D01*
X106442200Y-91435502D01*
X106466603Y-91558183D01*
X106514470Y-91673745D01*
X106583963Y-91777749D01*
X106672411Y-91866197D01*
X106776415Y-91935690D01*
X106891977Y-91983557D01*
X107014658Y-92007960D01*
X108011450Y-92007960D01*
X108170200Y-91849210D01*
X108170200Y-90279960D01*
X108424200Y-90279960D01*
X108424200Y-91849210D01*
X108582950Y-92007960D01*
X109579742Y-92007960D01*
X109702423Y-91983557D01*
X109817985Y-91935690D01*
X109921989Y-91866197D01*
X110010437Y-91777749D01*
X110079930Y-91673745D01*
X110127797Y-91558183D01*
X110152200Y-91435502D01*
X110152200Y-90438710D01*
X169847800Y-90438710D01*
X169847800Y-91435502D01*
X169872203Y-91558183D01*
X169920070Y-91673745D01*
X169989563Y-91777749D01*
X170078011Y-91866197D01*
X170182015Y-91935690D01*
X170297577Y-91983557D01*
X170420258Y-92007960D01*
X171417050Y-92007960D01*
X171575800Y-91849210D01*
X171575800Y-90279960D01*
X171829800Y-90279960D01*
X171829800Y-91849210D01*
X171988550Y-92007960D01*
X172985342Y-92007960D01*
X173108023Y-91983557D01*
X173223585Y-91935690D01*
X173327589Y-91866197D01*
X173416037Y-91777749D01*
X173485530Y-91673745D01*
X173533397Y-91558183D01*
X173557800Y-91435502D01*
X173557800Y-90438710D01*
X175167800Y-90438710D01*
X175167800Y-91435502D01*
X175192203Y-91558183D01*
X175240070Y-91673745D01*
X175309563Y-91777749D01*
X175398011Y-91866197D01*
X175502015Y-91935690D01*
X175617577Y-91983557D01*
X175740258Y-92007960D01*
X176737050Y-92007960D01*
X176895800Y-91849210D01*
X176895800Y-90279960D01*
X177149800Y-90279960D01*
X177149800Y-91849210D01*
X177308550Y-92007960D01*
X178305342Y-92007960D01*
X178428023Y-91983557D01*
X178543585Y-91935690D01*
X178647589Y-91866197D01*
X178736037Y-91777749D01*
X178805530Y-91673745D01*
X178853397Y-91558183D01*
X178877800Y-91435502D01*
X178877800Y-90438710D01*
X178719050Y-90279960D01*
X177149800Y-90279960D01*
X176895800Y-90279960D01*
X175326550Y-90279960D01*
X175167800Y-90438710D01*
X173557800Y-90438710D01*
X173399050Y-90279960D01*
X171829800Y-90279960D01*
X171575800Y-90279960D01*
X170006550Y-90279960D01*
X169847800Y-90438710D01*
X110152200Y-90438710D01*
X109993450Y-90279960D01*
X108424200Y-90279960D01*
X108170200Y-90279960D01*
X106600950Y-90279960D01*
X106442200Y-90438710D01*
X104832200Y-90438710D01*
X104673450Y-90279960D01*
X103104200Y-90279960D01*
X102850200Y-90279960D01*
X101280950Y-90279960D01*
X101122200Y-90438710D01*
X96660000Y-90438710D01*
X96660000Y-88870418D01*
X101122200Y-88870418D01*
X101122200Y-89867210D01*
X101280950Y-90025960D01*
X102850200Y-90025960D01*
X102850200Y-88456710D01*
X102691450Y-88297960D01*
X101694658Y-88297960D01*
X101571977Y-88322363D01*
X101456415Y-88370230D01*
X101352411Y-88439723D01*
X101263963Y-88528171D01*
X101194470Y-88632175D01*
X101146603Y-88747737D01*
X101122200Y-88870418D01*
X96660000Y-88870418D01*
X96660000Y-85118710D01*
X101122200Y-85118710D01*
X101122200Y-86115502D01*
X101146603Y-86238183D01*
X101194470Y-86353745D01*
X101263963Y-86457749D01*
X101352411Y-86546197D01*
X101456415Y-86615690D01*
X101571977Y-86663557D01*
X101694658Y-86687960D01*
X102691450Y-86687960D01*
X102850200Y-86529210D01*
X102850200Y-84959960D01*
X103104200Y-84959960D01*
X103104200Y-86529210D01*
X103262950Y-86687960D01*
X104178619Y-86687960D01*
X104166127Y-86706655D01*
X104040993Y-87008756D01*
X103977200Y-87329464D01*
X103977200Y-87656456D01*
X104040993Y-87977164D01*
X104166127Y-88279265D01*
X104178619Y-88297960D01*
X103262950Y-88297960D01*
X103104200Y-88456710D01*
X103104200Y-90025960D01*
X104673450Y-90025960D01*
X104832200Y-89867210D01*
X104832200Y-88951541D01*
X104850895Y-88964033D01*
X105152996Y-89089167D01*
X105473704Y-89152960D01*
X105800696Y-89152960D01*
X106121404Y-89089167D01*
X106423505Y-88964033D01*
X106442200Y-88951541D01*
X106442200Y-89867210D01*
X106600950Y-90025960D01*
X108170200Y-90025960D01*
X108170200Y-88456710D01*
X108424200Y-88456710D01*
X108424200Y-90025960D01*
X109993450Y-90025960D01*
X110152200Y-89867210D01*
X110152200Y-88870418D01*
X169847800Y-88870418D01*
X169847800Y-89867210D01*
X170006550Y-90025960D01*
X171575800Y-90025960D01*
X171575800Y-88456710D01*
X171417050Y-88297960D01*
X170420258Y-88297960D01*
X170297577Y-88322363D01*
X170182015Y-88370230D01*
X170078011Y-88439723D01*
X169989563Y-88528171D01*
X169920070Y-88632175D01*
X169872203Y-88747737D01*
X169847800Y-88870418D01*
X110152200Y-88870418D01*
X110127797Y-88747737D01*
X110079930Y-88632175D01*
X110010437Y-88528171D01*
X109921989Y-88439723D01*
X109817985Y-88370230D01*
X109702423Y-88322363D01*
X109579742Y-88297960D01*
X108582950Y-88297960D01*
X108424200Y-88456710D01*
X108170200Y-88456710D01*
X108114638Y-88401148D01*
X108154032Y-88306042D01*
X108192100Y-88114661D01*
X108192100Y-87919529D01*
X108191546Y-87916739D01*
X171810900Y-87916739D01*
X171810900Y-88111871D01*
X171848968Y-88303252D01*
X171888301Y-88398209D01*
X171829800Y-88456710D01*
X171829800Y-90025960D01*
X173399050Y-90025960D01*
X173557800Y-89867210D01*
X173557800Y-88951541D01*
X173576495Y-88964033D01*
X173878596Y-89089167D01*
X174199304Y-89152960D01*
X174526296Y-89152960D01*
X174847004Y-89089167D01*
X175149105Y-88964033D01*
X175167800Y-88951541D01*
X175167800Y-89867210D01*
X175326550Y-90025960D01*
X176895800Y-90025960D01*
X176895800Y-88456710D01*
X177149800Y-88456710D01*
X177149800Y-90025960D01*
X178719050Y-90025960D01*
X178877800Y-89867210D01*
X178877800Y-88870418D01*
X178853397Y-88747737D01*
X178805530Y-88632175D01*
X178736037Y-88528171D01*
X178647589Y-88439723D01*
X178543585Y-88370230D01*
X178428023Y-88322363D01*
X178305342Y-88297960D01*
X177308550Y-88297960D01*
X177149800Y-88456710D01*
X176895800Y-88456710D01*
X176737050Y-88297960D01*
X175821381Y-88297960D01*
X175833873Y-88279265D01*
X175959007Y-87977164D01*
X176022800Y-87656456D01*
X176022800Y-87329464D01*
X175959007Y-87008756D01*
X175833873Y-86706655D01*
X175821381Y-86687960D01*
X176737050Y-86687960D01*
X176895800Y-86529210D01*
X176895800Y-84959960D01*
X177149800Y-84959960D01*
X177149800Y-86529210D01*
X177308550Y-86687960D01*
X178305342Y-86687960D01*
X178428023Y-86663557D01*
X178543585Y-86615690D01*
X178647589Y-86546197D01*
X178736037Y-86457749D01*
X178805530Y-86353745D01*
X178853397Y-86238183D01*
X178877800Y-86115502D01*
X178877800Y-85118710D01*
X178719050Y-84959960D01*
X177149800Y-84959960D01*
X176895800Y-84959960D01*
X175326550Y-84959960D01*
X175167800Y-85118710D01*
X175167800Y-86034379D01*
X175149105Y-86021887D01*
X174847004Y-85896753D01*
X174526296Y-85832960D01*
X174199304Y-85832960D01*
X173878596Y-85896753D01*
X173576495Y-86021887D01*
X173557800Y-86034379D01*
X173557800Y-85118710D01*
X173399050Y-84959960D01*
X171829800Y-84959960D01*
X171829800Y-86529210D01*
X171988550Y-86687960D01*
X172904219Y-86687960D01*
X172891727Y-86706655D01*
X172766593Y-87008756D01*
X172763619Y-87023705D01*
X172703934Y-87023705D01*
X172512553Y-87061773D01*
X172332275Y-87136447D01*
X172170029Y-87244856D01*
X172032051Y-87382834D01*
X171923642Y-87545080D01*
X171848968Y-87725358D01*
X171810900Y-87916739D01*
X108191546Y-87916739D01*
X108154032Y-87728148D01*
X108079358Y-87547870D01*
X107970949Y-87385624D01*
X107832971Y-87247646D01*
X107670725Y-87139237D01*
X107490447Y-87064563D01*
X107299066Y-87026495D01*
X107236936Y-87026495D01*
X107233407Y-87008756D01*
X107108273Y-86706655D01*
X107095781Y-86687960D01*
X108011450Y-86687960D01*
X108170200Y-86529210D01*
X108170200Y-84959960D01*
X108424200Y-84959960D01*
X108424200Y-86529210D01*
X108582950Y-86687960D01*
X109579742Y-86687960D01*
X109702423Y-86663557D01*
X109817985Y-86615690D01*
X109921989Y-86546197D01*
X110010437Y-86457749D01*
X110079930Y-86353745D01*
X110127797Y-86238183D01*
X110152200Y-86115502D01*
X110152200Y-85118710D01*
X169847800Y-85118710D01*
X169847800Y-86115502D01*
X169872203Y-86238183D01*
X169920070Y-86353745D01*
X169989563Y-86457749D01*
X170078011Y-86546197D01*
X170182015Y-86615690D01*
X170297577Y-86663557D01*
X170420258Y-86687960D01*
X171417050Y-86687960D01*
X171575800Y-86529210D01*
X171575800Y-84959960D01*
X170006550Y-84959960D01*
X169847800Y-85118710D01*
X110152200Y-85118710D01*
X109993450Y-84959960D01*
X108424200Y-84959960D01*
X108170200Y-84959960D01*
X106600950Y-84959960D01*
X106442200Y-85118710D01*
X106442200Y-86034379D01*
X106423505Y-86021887D01*
X106121404Y-85896753D01*
X105800696Y-85832960D01*
X105473704Y-85832960D01*
X105152996Y-85896753D01*
X104850895Y-86021887D01*
X104832200Y-86034379D01*
X104832200Y-85118710D01*
X104673450Y-84959960D01*
X103104200Y-84959960D01*
X102850200Y-84959960D01*
X101280950Y-84959960D01*
X101122200Y-85118710D01*
X96660000Y-85118710D01*
X96660000Y-83550418D01*
X101122200Y-83550418D01*
X101122200Y-84547210D01*
X101280950Y-84705960D01*
X102850200Y-84705960D01*
X102850200Y-83136710D01*
X103104200Y-83136710D01*
X103104200Y-84705960D01*
X104673450Y-84705960D01*
X104832200Y-84547210D01*
X104832200Y-83550418D01*
X106442200Y-83550418D01*
X106442200Y-84547210D01*
X106600950Y-84705960D01*
X108170200Y-84705960D01*
X108170200Y-83136710D01*
X108424200Y-83136710D01*
X108424200Y-84705960D01*
X109993450Y-84705960D01*
X110152200Y-84547210D01*
X110152200Y-83550418D01*
X169847800Y-83550418D01*
X169847800Y-84547210D01*
X170006550Y-84705960D01*
X171575800Y-84705960D01*
X171575800Y-83136710D01*
X171829800Y-83136710D01*
X171829800Y-84705960D01*
X173399050Y-84705960D01*
X173557800Y-84547210D01*
X173557800Y-83550418D01*
X175167800Y-83550418D01*
X175167800Y-84547210D01*
X175326550Y-84705960D01*
X176895800Y-84705960D01*
X176895800Y-83136710D01*
X177149800Y-83136710D01*
X177149800Y-84705960D01*
X178719050Y-84705960D01*
X178877800Y-84547210D01*
X178877800Y-83550418D01*
X178853397Y-83427737D01*
X178805530Y-83312175D01*
X178736037Y-83208171D01*
X178647589Y-83119723D01*
X178543585Y-83050230D01*
X178428023Y-83002363D01*
X178305342Y-82977960D01*
X177308550Y-82977960D01*
X177149800Y-83136710D01*
X176895800Y-83136710D01*
X176737050Y-82977960D01*
X175740258Y-82977960D01*
X175617577Y-83002363D01*
X175502015Y-83050230D01*
X175398011Y-83119723D01*
X175309563Y-83208171D01*
X175240070Y-83312175D01*
X175192203Y-83427737D01*
X175167800Y-83550418D01*
X173557800Y-83550418D01*
X173533397Y-83427737D01*
X173485530Y-83312175D01*
X173416037Y-83208171D01*
X173327589Y-83119723D01*
X173223585Y-83050230D01*
X173108023Y-83002363D01*
X172985342Y-82977960D01*
X171988550Y-82977960D01*
X171829800Y-83136710D01*
X171575800Y-83136710D01*
X171417050Y-82977960D01*
X170420258Y-82977960D01*
X170297577Y-83002363D01*
X170182015Y-83050230D01*
X170078011Y-83119723D01*
X169989563Y-83208171D01*
X169920070Y-83312175D01*
X169872203Y-83427737D01*
X169847800Y-83550418D01*
X110152200Y-83550418D01*
X110127797Y-83427737D01*
X110079930Y-83312175D01*
X110010437Y-83208171D01*
X109921989Y-83119723D01*
X109817985Y-83050230D01*
X109702423Y-83002363D01*
X109579742Y-82977960D01*
X108582950Y-82977960D01*
X108424200Y-83136710D01*
X108170200Y-83136710D01*
X108011450Y-82977960D01*
X107014658Y-82977960D01*
X106891977Y-83002363D01*
X106776415Y-83050230D01*
X106672411Y-83119723D01*
X106583963Y-83208171D01*
X106514470Y-83312175D01*
X106466603Y-83427737D01*
X106442200Y-83550418D01*
X104832200Y-83550418D01*
X104807797Y-83427737D01*
X104759930Y-83312175D01*
X104690437Y-83208171D01*
X104601989Y-83119723D01*
X104497985Y-83050230D01*
X104382423Y-83002363D01*
X104259742Y-82977960D01*
X103262950Y-82977960D01*
X103104200Y-83136710D01*
X102850200Y-83136710D01*
X102691450Y-82977960D01*
X101694658Y-82977960D01*
X101571977Y-83002363D01*
X101456415Y-83050230D01*
X101352411Y-83119723D01*
X101263963Y-83208171D01*
X101194470Y-83312175D01*
X101146603Y-83427737D01*
X101122200Y-83550418D01*
X96660000Y-83550418D01*
X96660000Y-79440210D01*
X107472190Y-79440210D01*
X107472190Y-80437002D01*
X107496593Y-80559683D01*
X107544460Y-80675245D01*
X107613953Y-80779249D01*
X107702401Y-80867697D01*
X107806405Y-80937190D01*
X107921967Y-80985057D01*
X108044648Y-81009460D01*
X109041440Y-81009460D01*
X109200190Y-80850710D01*
X109200190Y-79281460D01*
X109454190Y-79281460D01*
X109454190Y-80850710D01*
X109612940Y-81009460D01*
X110609732Y-81009460D01*
X110732413Y-80985057D01*
X110847975Y-80937190D01*
X110951979Y-80867697D01*
X111040427Y-80779249D01*
X111109920Y-80675245D01*
X111157787Y-80559683D01*
X111182190Y-80437002D01*
X111182190Y-79440210D01*
X112792190Y-79440210D01*
X112792190Y-80437002D01*
X112816593Y-80559683D01*
X112864460Y-80675245D01*
X112933953Y-80779249D01*
X113022401Y-80867697D01*
X113126405Y-80937190D01*
X113241967Y-80985057D01*
X113364648Y-81009460D01*
X114361440Y-81009460D01*
X114520190Y-80850710D01*
X114520190Y-79281460D01*
X114774190Y-79281460D01*
X114774190Y-80850710D01*
X114932940Y-81009460D01*
X115929732Y-81009460D01*
X116052413Y-80985057D01*
X116167975Y-80937190D01*
X116271979Y-80867697D01*
X116360427Y-80779249D01*
X116429920Y-80675245D01*
X116477787Y-80559683D01*
X116502190Y-80437002D01*
X116502190Y-79440210D01*
X163497810Y-79440210D01*
X163497810Y-80437002D01*
X163522213Y-80559683D01*
X163570080Y-80675245D01*
X163639573Y-80779249D01*
X163728021Y-80867697D01*
X163832025Y-80937190D01*
X163947587Y-80985057D01*
X164070268Y-81009460D01*
X165067060Y-81009460D01*
X165225810Y-80850710D01*
X165225810Y-79281460D01*
X165479810Y-79281460D01*
X165479810Y-80850710D01*
X165638560Y-81009460D01*
X166635352Y-81009460D01*
X166758033Y-80985057D01*
X166873595Y-80937190D01*
X166977599Y-80867697D01*
X167066047Y-80779249D01*
X167135540Y-80675245D01*
X167183407Y-80559683D01*
X167207810Y-80437002D01*
X167207810Y-79440210D01*
X168817810Y-79440210D01*
X168817810Y-80437002D01*
X168842213Y-80559683D01*
X168890080Y-80675245D01*
X168959573Y-80779249D01*
X169048021Y-80867697D01*
X169152025Y-80937190D01*
X169267587Y-80985057D01*
X169390268Y-81009460D01*
X170387060Y-81009460D01*
X170545810Y-80850710D01*
X170545810Y-79281460D01*
X170799810Y-79281460D01*
X170799810Y-80850710D01*
X170958560Y-81009460D01*
X171955352Y-81009460D01*
X172078033Y-80985057D01*
X172193595Y-80937190D01*
X172297599Y-80867697D01*
X172386047Y-80779249D01*
X172455540Y-80675245D01*
X172503407Y-80559683D01*
X172527810Y-80437002D01*
X172527810Y-79440210D01*
X172369060Y-79281460D01*
X170799810Y-79281460D01*
X170545810Y-79281460D01*
X168976560Y-79281460D01*
X168817810Y-79440210D01*
X167207810Y-79440210D01*
X167049060Y-79281460D01*
X165479810Y-79281460D01*
X165225810Y-79281460D01*
X163656560Y-79281460D01*
X163497810Y-79440210D01*
X116502190Y-79440210D01*
X116343440Y-79281460D01*
X114774190Y-79281460D01*
X114520190Y-79281460D01*
X112950940Y-79281460D01*
X112792190Y-79440210D01*
X111182190Y-79440210D01*
X111023440Y-79281460D01*
X109454190Y-79281460D01*
X109200190Y-79281460D01*
X107630940Y-79281460D01*
X107472190Y-79440210D01*
X96660000Y-79440210D01*
X96660000Y-77871918D01*
X107472190Y-77871918D01*
X107472190Y-78868710D01*
X107630940Y-79027460D01*
X109200190Y-79027460D01*
X109200190Y-77458210D01*
X109041440Y-77299460D01*
X108044648Y-77299460D01*
X107921967Y-77323863D01*
X107806405Y-77371730D01*
X107702401Y-77441223D01*
X107613953Y-77529671D01*
X107544460Y-77633675D01*
X107496593Y-77749237D01*
X107472190Y-77871918D01*
X96660000Y-77871918D01*
X96660000Y-74120210D01*
X107472190Y-74120210D01*
X107472190Y-75117002D01*
X107496593Y-75239683D01*
X107544460Y-75355245D01*
X107613953Y-75459249D01*
X107702401Y-75547697D01*
X107806405Y-75617190D01*
X107921967Y-75665057D01*
X108044648Y-75689460D01*
X109041440Y-75689460D01*
X109200190Y-75530710D01*
X109200190Y-73961460D01*
X109454190Y-73961460D01*
X109454190Y-75530710D01*
X109612940Y-75689460D01*
X110528609Y-75689460D01*
X110516117Y-75708155D01*
X110390983Y-76010256D01*
X110327190Y-76330964D01*
X110327190Y-76657956D01*
X110390983Y-76978664D01*
X110516117Y-77280765D01*
X110528609Y-77299460D01*
X109612940Y-77299460D01*
X109454190Y-77458210D01*
X109454190Y-79027460D01*
X111023440Y-79027460D01*
X111182190Y-78868710D01*
X111182190Y-77953041D01*
X111200885Y-77965533D01*
X111502986Y-78090667D01*
X111823694Y-78154460D01*
X112150686Y-78154460D01*
X112471394Y-78090667D01*
X112692223Y-77999197D01*
X112790029Y-78097003D01*
X112792190Y-78098447D01*
X112792190Y-78868710D01*
X112950940Y-79027460D01*
X114520190Y-79027460D01*
X114520190Y-77458210D01*
X114774190Y-77458210D01*
X114774190Y-79027460D01*
X116343440Y-79027460D01*
X116502190Y-78868710D01*
X116502190Y-77871918D01*
X163497810Y-77871918D01*
X163497810Y-78868710D01*
X163656560Y-79027460D01*
X165225810Y-79027460D01*
X165225810Y-77458210D01*
X165067060Y-77299460D01*
X164070268Y-77299460D01*
X163947587Y-77323863D01*
X163832025Y-77371730D01*
X163728021Y-77441223D01*
X163639573Y-77529671D01*
X163570080Y-77633675D01*
X163522213Y-77749237D01*
X163497810Y-77871918D01*
X116502190Y-77871918D01*
X116477787Y-77749237D01*
X116429920Y-77633675D01*
X116360427Y-77529671D01*
X116271979Y-77441223D01*
X116167975Y-77371730D01*
X116052413Y-77323863D01*
X115929732Y-77299460D01*
X114932940Y-77299460D01*
X114774190Y-77458210D01*
X114520190Y-77458210D01*
X114412100Y-77350120D01*
X114412100Y-77229988D01*
X114374032Y-77038607D01*
X114299358Y-76858329D01*
X114190949Y-76696083D01*
X114052971Y-76558105D01*
X113890725Y-76449696D01*
X113710447Y-76375022D01*
X113647190Y-76362439D01*
X113647190Y-76330964D01*
X113583397Y-76010256D01*
X113458263Y-75708155D01*
X113445771Y-75689460D01*
X114361440Y-75689460D01*
X114520190Y-75530710D01*
X114520190Y-73961460D01*
X114774190Y-73961460D01*
X114774190Y-75530710D01*
X114932940Y-75689460D01*
X115929732Y-75689460D01*
X116052413Y-75665057D01*
X116167975Y-75617190D01*
X116271979Y-75547697D01*
X116360427Y-75459249D01*
X116429920Y-75355245D01*
X116477787Y-75239683D01*
X116502190Y-75117002D01*
X116502190Y-74120210D01*
X163497810Y-74120210D01*
X163497810Y-75117002D01*
X163522213Y-75239683D01*
X163570080Y-75355245D01*
X163639573Y-75459249D01*
X163728021Y-75547697D01*
X163832025Y-75617190D01*
X163947587Y-75665057D01*
X164070268Y-75689460D01*
X165067060Y-75689460D01*
X165225810Y-75530710D01*
X165225810Y-73961460D01*
X165479810Y-73961460D01*
X165479810Y-75530710D01*
X165638560Y-75689460D01*
X166554229Y-75689460D01*
X166541737Y-75708155D01*
X166416603Y-76010256D01*
X166352810Y-76330964D01*
X166352810Y-76354815D01*
X166302553Y-76364812D01*
X166122275Y-76439486D01*
X165960029Y-76547895D01*
X165822051Y-76685873D01*
X165713642Y-76848119D01*
X165638968Y-77028397D01*
X165600900Y-77219778D01*
X165600900Y-77337120D01*
X165479810Y-77458210D01*
X165479810Y-79027460D01*
X167049060Y-79027460D01*
X167207810Y-78868710D01*
X167207810Y-78096923D01*
X167222971Y-78086793D01*
X167309750Y-78000014D01*
X167528606Y-78090667D01*
X167849314Y-78154460D01*
X168176306Y-78154460D01*
X168497014Y-78090667D01*
X168799115Y-77965533D01*
X168817810Y-77953041D01*
X168817810Y-78868710D01*
X168976560Y-79027460D01*
X170545810Y-79027460D01*
X170545810Y-77458210D01*
X170799810Y-77458210D01*
X170799810Y-79027460D01*
X172369060Y-79027460D01*
X172527810Y-78868710D01*
X172527810Y-77871918D01*
X172503407Y-77749237D01*
X172455540Y-77633675D01*
X172386047Y-77529671D01*
X172297599Y-77441223D01*
X172193595Y-77371730D01*
X172078033Y-77323863D01*
X171955352Y-77299460D01*
X170958560Y-77299460D01*
X170799810Y-77458210D01*
X170545810Y-77458210D01*
X170387060Y-77299460D01*
X169471391Y-77299460D01*
X169483883Y-77280765D01*
X169609017Y-76978664D01*
X169672810Y-76657956D01*
X169672810Y-76330964D01*
X169609017Y-76010256D01*
X169483883Y-75708155D01*
X169471391Y-75689460D01*
X170387060Y-75689460D01*
X170545810Y-75530710D01*
X170545810Y-73961460D01*
X170799810Y-73961460D01*
X170799810Y-75530710D01*
X170958560Y-75689460D01*
X171955352Y-75689460D01*
X172078033Y-75665057D01*
X172193595Y-75617190D01*
X172297599Y-75547697D01*
X172386047Y-75459249D01*
X172455540Y-75355245D01*
X172503407Y-75239683D01*
X172527810Y-75117002D01*
X172527810Y-74120210D01*
X172369060Y-73961460D01*
X170799810Y-73961460D01*
X170545810Y-73961460D01*
X168976560Y-73961460D01*
X168817810Y-74120210D01*
X168817810Y-75035879D01*
X168799115Y-75023387D01*
X168497014Y-74898253D01*
X168176306Y-74834460D01*
X167849314Y-74834460D01*
X167528606Y-74898253D01*
X167226505Y-75023387D01*
X167207810Y-75035879D01*
X167207810Y-74120210D01*
X167049060Y-73961460D01*
X165479810Y-73961460D01*
X165225810Y-73961460D01*
X163656560Y-73961460D01*
X163497810Y-74120210D01*
X116502190Y-74120210D01*
X116343440Y-73961460D01*
X114774190Y-73961460D01*
X114520190Y-73961460D01*
X112950940Y-73961460D01*
X112792190Y-74120210D01*
X112792190Y-75035879D01*
X112773495Y-75023387D01*
X112471394Y-74898253D01*
X112150686Y-74834460D01*
X111823694Y-74834460D01*
X111502986Y-74898253D01*
X111200885Y-75023387D01*
X111182190Y-75035879D01*
X111182190Y-74120210D01*
X111023440Y-73961460D01*
X109454190Y-73961460D01*
X109200190Y-73961460D01*
X107630940Y-73961460D01*
X107472190Y-74120210D01*
X96660000Y-74120210D01*
X96660000Y-72551918D01*
X107472190Y-72551918D01*
X107472190Y-73548710D01*
X107630940Y-73707460D01*
X109200190Y-73707460D01*
X109200190Y-72138210D01*
X109454190Y-72138210D01*
X109454190Y-73707460D01*
X111023440Y-73707460D01*
X111182190Y-73548710D01*
X111182190Y-72551918D01*
X112792190Y-72551918D01*
X112792190Y-73548710D01*
X112950940Y-73707460D01*
X114520190Y-73707460D01*
X114520190Y-72138210D01*
X114774190Y-72138210D01*
X114774190Y-73707460D01*
X116343440Y-73707460D01*
X116502190Y-73548710D01*
X116502190Y-72551918D01*
X116477787Y-72429237D01*
X116429920Y-72313675D01*
X116360427Y-72209671D01*
X116271979Y-72121223D01*
X116167975Y-72051730D01*
X116052413Y-72003863D01*
X115929732Y-71979460D01*
X114932940Y-71979460D01*
X114774190Y-72138210D01*
X114520190Y-72138210D01*
X114361440Y-71979460D01*
X113364648Y-71979460D01*
X113241967Y-72003863D01*
X113126405Y-72051730D01*
X113022401Y-72121223D01*
X112933953Y-72209671D01*
X112864460Y-72313675D01*
X112816593Y-72429237D01*
X112792190Y-72551918D01*
X111182190Y-72551918D01*
X111157787Y-72429237D01*
X111109920Y-72313675D01*
X111040427Y-72209671D01*
X110951979Y-72121223D01*
X110847975Y-72051730D01*
X110732413Y-72003863D01*
X110609732Y-71979460D01*
X109612940Y-71979460D01*
X109454190Y-72138210D01*
X109200190Y-72138210D01*
X109041440Y-71979460D01*
X108044648Y-71979460D01*
X107921967Y-72003863D01*
X107806405Y-72051730D01*
X107702401Y-72121223D01*
X107613953Y-72209671D01*
X107544460Y-72313675D01*
X107496593Y-72429237D01*
X107472190Y-72551918D01*
X96660000Y-72551918D01*
X96660000Y-71276820D01*
X117200937Y-71276820D01*
X117200937Y-72273612D01*
X117225340Y-72396293D01*
X117273207Y-72511855D01*
X117342700Y-72615859D01*
X117431148Y-72704307D01*
X117535152Y-72773800D01*
X117650714Y-72821667D01*
X117773395Y-72846070D01*
X118770187Y-72846070D01*
X118928937Y-72687320D01*
X118928937Y-71118070D01*
X119182937Y-71118070D01*
X119182937Y-72687320D01*
X119341687Y-72846070D01*
X120338479Y-72846070D01*
X120461160Y-72821667D01*
X120576722Y-72773800D01*
X120680726Y-72704307D01*
X120769174Y-72615859D01*
X120838667Y-72511855D01*
X120886534Y-72396293D01*
X120910937Y-72273612D01*
X120910937Y-71276820D01*
X122520937Y-71276820D01*
X122520937Y-72273612D01*
X122545340Y-72396293D01*
X122593207Y-72511855D01*
X122662700Y-72615859D01*
X122751148Y-72704307D01*
X122855152Y-72773800D01*
X122970714Y-72821667D01*
X123093395Y-72846070D01*
X124090187Y-72846070D01*
X124248937Y-72687320D01*
X124248937Y-71118070D01*
X124502937Y-71118070D01*
X124502937Y-72687320D01*
X124661687Y-72846070D01*
X125658479Y-72846070D01*
X125781160Y-72821667D01*
X125896722Y-72773800D01*
X126000726Y-72704307D01*
X126089174Y-72615859D01*
X126158667Y-72511855D01*
X126206534Y-72396293D01*
X126230937Y-72273612D01*
X126230937Y-71276820D01*
X153769063Y-71276820D01*
X153769063Y-72273612D01*
X153793466Y-72396293D01*
X153841333Y-72511855D01*
X153910826Y-72615859D01*
X153999274Y-72704307D01*
X154103278Y-72773800D01*
X154218840Y-72821667D01*
X154341521Y-72846070D01*
X155338313Y-72846070D01*
X155497063Y-72687320D01*
X155497063Y-71118070D01*
X155751063Y-71118070D01*
X155751063Y-72687320D01*
X155909813Y-72846070D01*
X156906605Y-72846070D01*
X157029286Y-72821667D01*
X157144848Y-72773800D01*
X157248852Y-72704307D01*
X157337300Y-72615859D01*
X157406793Y-72511855D01*
X157454660Y-72396293D01*
X157479063Y-72273612D01*
X157479063Y-71276820D01*
X159089063Y-71276820D01*
X159089063Y-72273612D01*
X159113466Y-72396293D01*
X159161333Y-72511855D01*
X159230826Y-72615859D01*
X159319274Y-72704307D01*
X159423278Y-72773800D01*
X159538840Y-72821667D01*
X159661521Y-72846070D01*
X160658313Y-72846070D01*
X160817063Y-72687320D01*
X160817063Y-71118070D01*
X161071063Y-71118070D01*
X161071063Y-72687320D01*
X161229813Y-72846070D01*
X162226605Y-72846070D01*
X162349286Y-72821667D01*
X162464848Y-72773800D01*
X162568852Y-72704307D01*
X162657300Y-72615859D01*
X162700023Y-72551918D01*
X163497810Y-72551918D01*
X163497810Y-73548710D01*
X163656560Y-73707460D01*
X165225810Y-73707460D01*
X165225810Y-72138210D01*
X165479810Y-72138210D01*
X165479810Y-73707460D01*
X167049060Y-73707460D01*
X167207810Y-73548710D01*
X167207810Y-72551918D01*
X168817810Y-72551918D01*
X168817810Y-73548710D01*
X168976560Y-73707460D01*
X170545810Y-73707460D01*
X170545810Y-72138210D01*
X170799810Y-72138210D01*
X170799810Y-73707460D01*
X172369060Y-73707460D01*
X172527810Y-73548710D01*
X172527810Y-72551918D01*
X172503407Y-72429237D01*
X172455540Y-72313675D01*
X172386047Y-72209671D01*
X172297599Y-72121223D01*
X172193595Y-72051730D01*
X172078033Y-72003863D01*
X171955352Y-71979460D01*
X170958560Y-71979460D01*
X170799810Y-72138210D01*
X170545810Y-72138210D01*
X170387060Y-71979460D01*
X169390268Y-71979460D01*
X169267587Y-72003863D01*
X169152025Y-72051730D01*
X169048021Y-72121223D01*
X168959573Y-72209671D01*
X168890080Y-72313675D01*
X168842213Y-72429237D01*
X168817810Y-72551918D01*
X167207810Y-72551918D01*
X167183407Y-72429237D01*
X167135540Y-72313675D01*
X167066047Y-72209671D01*
X166977599Y-72121223D01*
X166873595Y-72051730D01*
X166758033Y-72003863D01*
X166635352Y-71979460D01*
X165638560Y-71979460D01*
X165479810Y-72138210D01*
X165225810Y-72138210D01*
X165067060Y-71979460D01*
X164070268Y-71979460D01*
X163947587Y-72003863D01*
X163832025Y-72051730D01*
X163728021Y-72121223D01*
X163639573Y-72209671D01*
X163570080Y-72313675D01*
X163522213Y-72429237D01*
X163497810Y-72551918D01*
X162700023Y-72551918D01*
X162726793Y-72511855D01*
X162774660Y-72396293D01*
X162799063Y-72273612D01*
X162799063Y-71276820D01*
X162640313Y-71118070D01*
X161071063Y-71118070D01*
X160817063Y-71118070D01*
X159247813Y-71118070D01*
X159089063Y-71276820D01*
X157479063Y-71276820D01*
X157320313Y-71118070D01*
X155751063Y-71118070D01*
X155497063Y-71118070D01*
X153927813Y-71118070D01*
X153769063Y-71276820D01*
X126230937Y-71276820D01*
X126072187Y-71118070D01*
X124502937Y-71118070D01*
X124248937Y-71118070D01*
X122679687Y-71118070D01*
X122520937Y-71276820D01*
X120910937Y-71276820D01*
X120752187Y-71118070D01*
X119182937Y-71118070D01*
X118928937Y-71118070D01*
X117359687Y-71118070D01*
X117200937Y-71276820D01*
X96660000Y-71276820D01*
X96660000Y-69708528D01*
X117200937Y-69708528D01*
X117200937Y-70705320D01*
X117359687Y-70864070D01*
X118928937Y-70864070D01*
X118928937Y-69294820D01*
X118770187Y-69136070D01*
X117773395Y-69136070D01*
X117650714Y-69160473D01*
X117535152Y-69208340D01*
X117431148Y-69277833D01*
X117342700Y-69366281D01*
X117273207Y-69470285D01*
X117225340Y-69585847D01*
X117200937Y-69708528D01*
X96660000Y-69708528D01*
X96660000Y-65956820D01*
X117200937Y-65956820D01*
X117200937Y-66953612D01*
X117225340Y-67076293D01*
X117273207Y-67191855D01*
X117342700Y-67295859D01*
X117431148Y-67384307D01*
X117535152Y-67453800D01*
X117650714Y-67501667D01*
X117773395Y-67526070D01*
X118770187Y-67526070D01*
X118928937Y-67367320D01*
X118928937Y-65798070D01*
X119182937Y-65798070D01*
X119182937Y-67367320D01*
X119341687Y-67526070D01*
X120257356Y-67526070D01*
X120244864Y-67544765D01*
X120119730Y-67846866D01*
X120055937Y-68167574D01*
X120055937Y-68494566D01*
X120119730Y-68815274D01*
X120244864Y-69117375D01*
X120257356Y-69136070D01*
X119341687Y-69136070D01*
X119182937Y-69294820D01*
X119182937Y-70864070D01*
X120752187Y-70864070D01*
X120910937Y-70705320D01*
X120910937Y-69789651D01*
X120929632Y-69802143D01*
X121231733Y-69927277D01*
X121552441Y-69991070D01*
X121566637Y-69991070D01*
X121576789Y-70042107D01*
X121651463Y-70222385D01*
X121759872Y-70384631D01*
X121897850Y-70522609D01*
X122060096Y-70631018D01*
X122240374Y-70705692D01*
X122431755Y-70743760D01*
X122559377Y-70743760D01*
X122679687Y-70864070D01*
X124248937Y-70864070D01*
X124248937Y-69294820D01*
X124502937Y-69294820D01*
X124502937Y-70864070D01*
X126072187Y-70864070D01*
X126230937Y-70705320D01*
X126230937Y-69708528D01*
X153769063Y-69708528D01*
X153769063Y-70705320D01*
X153927813Y-70864070D01*
X155497063Y-70864070D01*
X155497063Y-69294820D01*
X155338313Y-69136070D01*
X154341521Y-69136070D01*
X154218840Y-69160473D01*
X154103278Y-69208340D01*
X153999274Y-69277833D01*
X153910826Y-69366281D01*
X153841333Y-69470285D01*
X153793466Y-69585847D01*
X153769063Y-69708528D01*
X126230937Y-69708528D01*
X126206534Y-69585847D01*
X126158667Y-69470285D01*
X126089174Y-69366281D01*
X126000726Y-69277833D01*
X125896722Y-69208340D01*
X125781160Y-69160473D01*
X125658479Y-69136070D01*
X124661687Y-69136070D01*
X124502937Y-69294820D01*
X124248937Y-69294820D01*
X124090187Y-69136070D01*
X123308379Y-69136070D01*
X123298770Y-69121689D01*
X123218480Y-69041399D01*
X123312144Y-68815274D01*
X123375937Y-68494566D01*
X123375937Y-68167574D01*
X123312144Y-67846866D01*
X123187010Y-67544765D01*
X123174518Y-67526070D01*
X124090187Y-67526070D01*
X124248937Y-67367320D01*
X124248937Y-65798070D01*
X124502937Y-65798070D01*
X124502937Y-67367320D01*
X124661687Y-67526070D01*
X125658479Y-67526070D01*
X125781160Y-67501667D01*
X125896722Y-67453800D01*
X126000726Y-67384307D01*
X126089174Y-67295859D01*
X126158667Y-67191855D01*
X126206534Y-67076293D01*
X126230937Y-66953612D01*
X126230937Y-66933180D01*
X129135010Y-66933180D01*
X129135010Y-67929972D01*
X129159413Y-68052653D01*
X129207280Y-68168215D01*
X129276773Y-68272219D01*
X129365221Y-68360667D01*
X129469225Y-68430160D01*
X129584787Y-68478027D01*
X129707468Y-68502430D01*
X130704260Y-68502430D01*
X130863010Y-68343680D01*
X130863010Y-66774430D01*
X131117010Y-66774430D01*
X131117010Y-68343680D01*
X131275760Y-68502430D01*
X132272552Y-68502430D01*
X132395233Y-68478027D01*
X132510795Y-68430160D01*
X132614799Y-68360667D01*
X132703247Y-68272219D01*
X132772740Y-68168215D01*
X132820607Y-68052653D01*
X132845010Y-67929972D01*
X132845010Y-66933180D01*
X134455010Y-66933180D01*
X134455010Y-67929972D01*
X134479413Y-68052653D01*
X134527280Y-68168215D01*
X134596773Y-68272219D01*
X134685221Y-68360667D01*
X134789225Y-68430160D01*
X134904787Y-68478027D01*
X135027468Y-68502430D01*
X136024260Y-68502430D01*
X136183010Y-68343680D01*
X136183010Y-66774430D01*
X136437010Y-66774430D01*
X136437010Y-68343680D01*
X136595760Y-68502430D01*
X137592552Y-68502430D01*
X137715233Y-68478027D01*
X137830795Y-68430160D01*
X137934799Y-68360667D01*
X138023247Y-68272219D01*
X138092740Y-68168215D01*
X138140607Y-68052653D01*
X138165010Y-67929972D01*
X138165010Y-66933180D01*
X141834990Y-66933180D01*
X141834990Y-67929972D01*
X141859393Y-68052653D01*
X141907260Y-68168215D01*
X141976753Y-68272219D01*
X142065201Y-68360667D01*
X142169205Y-68430160D01*
X142284767Y-68478027D01*
X142407448Y-68502430D01*
X143404240Y-68502430D01*
X143562990Y-68343680D01*
X143562990Y-66774430D01*
X143816990Y-66774430D01*
X143816990Y-68343680D01*
X143975740Y-68502430D01*
X144972532Y-68502430D01*
X145095213Y-68478027D01*
X145210775Y-68430160D01*
X145314779Y-68360667D01*
X145403227Y-68272219D01*
X145472720Y-68168215D01*
X145520587Y-68052653D01*
X145544990Y-67929972D01*
X145544990Y-66933180D01*
X147154990Y-66933180D01*
X147154990Y-67929972D01*
X147179393Y-68052653D01*
X147227260Y-68168215D01*
X147296753Y-68272219D01*
X147385201Y-68360667D01*
X147489205Y-68430160D01*
X147604767Y-68478027D01*
X147727448Y-68502430D01*
X148724240Y-68502430D01*
X148882990Y-68343680D01*
X148882990Y-66774430D01*
X149136990Y-66774430D01*
X149136990Y-68343680D01*
X149295740Y-68502430D01*
X150292532Y-68502430D01*
X150415213Y-68478027D01*
X150530775Y-68430160D01*
X150634779Y-68360667D01*
X150723227Y-68272219D01*
X150792720Y-68168215D01*
X150840587Y-68052653D01*
X150864990Y-67929972D01*
X150864990Y-66933180D01*
X150706240Y-66774430D01*
X149136990Y-66774430D01*
X148882990Y-66774430D01*
X147313740Y-66774430D01*
X147154990Y-66933180D01*
X145544990Y-66933180D01*
X145386240Y-66774430D01*
X143816990Y-66774430D01*
X143562990Y-66774430D01*
X141993740Y-66774430D01*
X141834990Y-66933180D01*
X138165010Y-66933180D01*
X138006260Y-66774430D01*
X136437010Y-66774430D01*
X136183010Y-66774430D01*
X134613760Y-66774430D01*
X134455010Y-66933180D01*
X132845010Y-66933180D01*
X132686260Y-66774430D01*
X131117010Y-66774430D01*
X130863010Y-66774430D01*
X129293760Y-66774430D01*
X129135010Y-66933180D01*
X126230937Y-66933180D01*
X126230937Y-65956820D01*
X126072187Y-65798070D01*
X124502937Y-65798070D01*
X124248937Y-65798070D01*
X122679687Y-65798070D01*
X122520937Y-65956820D01*
X122520937Y-66872489D01*
X122502242Y-66859997D01*
X122200141Y-66734863D01*
X121879433Y-66671070D01*
X121552441Y-66671070D01*
X121231733Y-66734863D01*
X120929632Y-66859997D01*
X120910937Y-66872489D01*
X120910937Y-65956820D01*
X120752187Y-65798070D01*
X119182937Y-65798070D01*
X118928937Y-65798070D01*
X117359687Y-65798070D01*
X117200937Y-65956820D01*
X96660000Y-65956820D01*
X96660000Y-64388528D01*
X117200937Y-64388528D01*
X117200937Y-65385320D01*
X117359687Y-65544070D01*
X118928937Y-65544070D01*
X118928937Y-63974820D01*
X119182937Y-63974820D01*
X119182937Y-65544070D01*
X120752187Y-65544070D01*
X120910937Y-65385320D01*
X120910937Y-64388528D01*
X122520937Y-64388528D01*
X122520937Y-65385320D01*
X122679687Y-65544070D01*
X124248937Y-65544070D01*
X124248937Y-63974820D01*
X124502937Y-63974820D01*
X124502937Y-65544070D01*
X126072187Y-65544070D01*
X126230937Y-65385320D01*
X126230937Y-65364888D01*
X129135010Y-65364888D01*
X129135010Y-66361680D01*
X129293760Y-66520430D01*
X130863010Y-66520430D01*
X130863010Y-64951180D01*
X130704260Y-64792430D01*
X129707468Y-64792430D01*
X129584787Y-64816833D01*
X129469225Y-64864700D01*
X129365221Y-64934193D01*
X129276773Y-65022641D01*
X129207280Y-65126645D01*
X129159413Y-65242207D01*
X129135010Y-65364888D01*
X126230937Y-65364888D01*
X126230937Y-64388528D01*
X126206534Y-64265847D01*
X126158667Y-64150285D01*
X126089174Y-64046281D01*
X126000726Y-63957833D01*
X125896722Y-63888340D01*
X125781160Y-63840473D01*
X125658479Y-63816070D01*
X124661687Y-63816070D01*
X124502937Y-63974820D01*
X124248937Y-63974820D01*
X124090187Y-63816070D01*
X123093395Y-63816070D01*
X122970714Y-63840473D01*
X122855152Y-63888340D01*
X122751148Y-63957833D01*
X122662700Y-64046281D01*
X122593207Y-64150285D01*
X122545340Y-64265847D01*
X122520937Y-64388528D01*
X120910937Y-64388528D01*
X120886534Y-64265847D01*
X120838667Y-64150285D01*
X120769174Y-64046281D01*
X120680726Y-63957833D01*
X120576722Y-63888340D01*
X120461160Y-63840473D01*
X120338479Y-63816070D01*
X119341687Y-63816070D01*
X119182937Y-63974820D01*
X118928937Y-63974820D01*
X118770187Y-63816070D01*
X117773395Y-63816070D01*
X117650714Y-63840473D01*
X117535152Y-63888340D01*
X117431148Y-63957833D01*
X117342700Y-64046281D01*
X117273207Y-64150285D01*
X117225340Y-64265847D01*
X117200937Y-64388528D01*
X96660000Y-64388528D01*
X96660000Y-61613180D01*
X129135010Y-61613180D01*
X129135010Y-62609972D01*
X129159413Y-62732653D01*
X129207280Y-62848215D01*
X129276773Y-62952219D01*
X129365221Y-63040667D01*
X129469225Y-63110160D01*
X129584787Y-63158027D01*
X129707468Y-63182430D01*
X130704260Y-63182430D01*
X130863010Y-63023680D01*
X130863010Y-61454430D01*
X131117010Y-61454430D01*
X131117010Y-63023680D01*
X131275760Y-63182430D01*
X132191429Y-63182430D01*
X132178937Y-63201125D01*
X132053803Y-63503226D01*
X131990010Y-63823934D01*
X131990010Y-64150926D01*
X132053803Y-64471634D01*
X132178937Y-64773735D01*
X132191429Y-64792430D01*
X131275760Y-64792430D01*
X131117010Y-64951180D01*
X131117010Y-66520430D01*
X132686260Y-66520430D01*
X132845010Y-66361680D01*
X132845010Y-65446011D01*
X132863705Y-65458503D01*
X132954087Y-65495940D01*
X132954087Y-65690726D01*
X132992155Y-65882107D01*
X133066829Y-66062385D01*
X133175238Y-66224631D01*
X133313216Y-66362609D01*
X133475462Y-66471018D01*
X133655740Y-66545692D01*
X133847121Y-66583760D01*
X134042253Y-66583760D01*
X134233634Y-66545692D01*
X134413912Y-66471018D01*
X134504092Y-66410762D01*
X134613760Y-66520430D01*
X136183010Y-66520430D01*
X136183010Y-64951180D01*
X136437010Y-64951180D01*
X136437010Y-66520430D01*
X138006260Y-66520430D01*
X138165010Y-66361680D01*
X138165010Y-65364888D01*
X141834990Y-65364888D01*
X141834990Y-66361680D01*
X141993740Y-66520430D01*
X143562990Y-66520430D01*
X143562990Y-64951180D01*
X143404240Y-64792430D01*
X142407448Y-64792430D01*
X142284767Y-64816833D01*
X142169205Y-64864700D01*
X142065201Y-64934193D01*
X141976753Y-65022641D01*
X141907260Y-65126645D01*
X141859393Y-65242207D01*
X141834990Y-65364888D01*
X138165010Y-65364888D01*
X138140607Y-65242207D01*
X138092740Y-65126645D01*
X138023247Y-65022641D01*
X137934799Y-64934193D01*
X137830795Y-64864700D01*
X137715233Y-64816833D01*
X137592552Y-64792430D01*
X136595760Y-64792430D01*
X136437010Y-64951180D01*
X136183010Y-64951180D01*
X136024260Y-64792430D01*
X135108591Y-64792430D01*
X135121083Y-64773735D01*
X135246217Y-64471634D01*
X135310010Y-64150926D01*
X135310010Y-63823934D01*
X135246217Y-63503226D01*
X135121083Y-63201125D01*
X135108591Y-63182430D01*
X136024260Y-63182430D01*
X136183010Y-63023680D01*
X136183010Y-61454430D01*
X136437010Y-61454430D01*
X136437010Y-63023680D01*
X136595760Y-63182430D01*
X137592552Y-63182430D01*
X137715233Y-63158027D01*
X137830795Y-63110160D01*
X137934799Y-63040667D01*
X138023247Y-62952219D01*
X138092740Y-62848215D01*
X138140607Y-62732653D01*
X138165010Y-62609972D01*
X138165010Y-61613180D01*
X141834990Y-61613180D01*
X141834990Y-62609972D01*
X141859393Y-62732653D01*
X141907260Y-62848215D01*
X141976753Y-62952219D01*
X142065201Y-63040667D01*
X142169205Y-63110160D01*
X142284767Y-63158027D01*
X142407448Y-63182430D01*
X143404240Y-63182430D01*
X143562990Y-63023680D01*
X143562990Y-61454430D01*
X143816990Y-61454430D01*
X143816990Y-63023680D01*
X143975740Y-63182430D01*
X144891409Y-63182430D01*
X144878917Y-63201125D01*
X144753783Y-63503226D01*
X144689990Y-63823934D01*
X144689990Y-64150926D01*
X144753783Y-64471634D01*
X144878917Y-64773735D01*
X144891409Y-64792430D01*
X143975740Y-64792430D01*
X143816990Y-64951180D01*
X143816990Y-66520430D01*
X145386240Y-66520430D01*
X145489131Y-66417539D01*
X145584135Y-66481018D01*
X145764413Y-66555692D01*
X145955794Y-66593760D01*
X146150926Y-66593760D01*
X146342307Y-66555692D01*
X146522585Y-66481018D01*
X146684831Y-66372609D01*
X146822809Y-66234631D01*
X146931218Y-66072385D01*
X147005892Y-65892107D01*
X147043960Y-65700726D01*
X147043960Y-65505594D01*
X147042335Y-65497423D01*
X147136295Y-65458503D01*
X147154990Y-65446011D01*
X147154990Y-66361680D01*
X147313740Y-66520430D01*
X148882990Y-66520430D01*
X148882990Y-64951180D01*
X149136990Y-64951180D01*
X149136990Y-66520430D01*
X150706240Y-66520430D01*
X150864990Y-66361680D01*
X150864990Y-65956820D01*
X153769063Y-65956820D01*
X153769063Y-66953612D01*
X153793466Y-67076293D01*
X153841333Y-67191855D01*
X153910826Y-67295859D01*
X153999274Y-67384307D01*
X154103278Y-67453800D01*
X154218840Y-67501667D01*
X154341521Y-67526070D01*
X155338313Y-67526070D01*
X155497063Y-67367320D01*
X155497063Y-65798070D01*
X155751063Y-65798070D01*
X155751063Y-67367320D01*
X155909813Y-67526070D01*
X156825482Y-67526070D01*
X156812990Y-67544765D01*
X156687856Y-67846866D01*
X156624063Y-68167574D01*
X156624063Y-68494566D01*
X156687856Y-68815274D01*
X156778049Y-69033021D01*
X156689381Y-69121689D01*
X156679772Y-69136070D01*
X155909813Y-69136070D01*
X155751063Y-69294820D01*
X155751063Y-70864070D01*
X157320313Y-70864070D01*
X157440623Y-70743760D01*
X157556396Y-70743760D01*
X157747777Y-70705692D01*
X157928055Y-70631018D01*
X158090301Y-70522609D01*
X158228279Y-70384631D01*
X158336688Y-70222385D01*
X158411362Y-70042107D01*
X158421514Y-69991070D01*
X158447559Y-69991070D01*
X158768267Y-69927277D01*
X159070368Y-69802143D01*
X159089063Y-69789651D01*
X159089063Y-70705320D01*
X159247813Y-70864070D01*
X160817063Y-70864070D01*
X160817063Y-69294820D01*
X161071063Y-69294820D01*
X161071063Y-70864070D01*
X162640313Y-70864070D01*
X162799063Y-70705320D01*
X162799063Y-69708528D01*
X162774660Y-69585847D01*
X162726793Y-69470285D01*
X162657300Y-69366281D01*
X162568852Y-69277833D01*
X162464848Y-69208340D01*
X162349286Y-69160473D01*
X162226605Y-69136070D01*
X161229813Y-69136070D01*
X161071063Y-69294820D01*
X160817063Y-69294820D01*
X160658313Y-69136070D01*
X159742644Y-69136070D01*
X159755136Y-69117375D01*
X159880270Y-68815274D01*
X159944063Y-68494566D01*
X159944063Y-68167574D01*
X159880270Y-67846866D01*
X159755136Y-67544765D01*
X159742644Y-67526070D01*
X160658313Y-67526070D01*
X160817063Y-67367320D01*
X160817063Y-65798070D01*
X161071063Y-65798070D01*
X161071063Y-67367320D01*
X161229813Y-67526070D01*
X162226605Y-67526070D01*
X162349286Y-67501667D01*
X162464848Y-67453800D01*
X162568852Y-67384307D01*
X162657300Y-67295859D01*
X162726793Y-67191855D01*
X162774660Y-67076293D01*
X162799063Y-66953612D01*
X162799063Y-65956820D01*
X162640313Y-65798070D01*
X161071063Y-65798070D01*
X160817063Y-65798070D01*
X159247813Y-65798070D01*
X159089063Y-65956820D01*
X159089063Y-66872489D01*
X159070368Y-66859997D01*
X158768267Y-66734863D01*
X158447559Y-66671070D01*
X158120567Y-66671070D01*
X157799859Y-66734863D01*
X157497758Y-66859997D01*
X157479063Y-66872489D01*
X157479063Y-65956820D01*
X157320313Y-65798070D01*
X155751063Y-65798070D01*
X155497063Y-65798070D01*
X153927813Y-65798070D01*
X153769063Y-65956820D01*
X150864990Y-65956820D01*
X150864990Y-65364888D01*
X150840587Y-65242207D01*
X150792720Y-65126645D01*
X150723227Y-65022641D01*
X150634779Y-64934193D01*
X150530775Y-64864700D01*
X150415213Y-64816833D01*
X150292532Y-64792430D01*
X149295740Y-64792430D01*
X149136990Y-64951180D01*
X148882990Y-64951180D01*
X148724240Y-64792430D01*
X147808571Y-64792430D01*
X147821063Y-64773735D01*
X147946197Y-64471634D01*
X147962727Y-64388528D01*
X153769063Y-64388528D01*
X153769063Y-65385320D01*
X153927813Y-65544070D01*
X155497063Y-65544070D01*
X155497063Y-63974820D01*
X155751063Y-63974820D01*
X155751063Y-65544070D01*
X157320313Y-65544070D01*
X157479063Y-65385320D01*
X157479063Y-64388528D01*
X159089063Y-64388528D01*
X159089063Y-65385320D01*
X159247813Y-65544070D01*
X160817063Y-65544070D01*
X160817063Y-63974820D01*
X161071063Y-63974820D01*
X161071063Y-65544070D01*
X162640313Y-65544070D01*
X162799063Y-65385320D01*
X162799063Y-64388528D01*
X162774660Y-64265847D01*
X162726793Y-64150285D01*
X162657300Y-64046281D01*
X162568852Y-63957833D01*
X162464848Y-63888340D01*
X162349286Y-63840473D01*
X162226605Y-63816070D01*
X161229813Y-63816070D01*
X161071063Y-63974820D01*
X160817063Y-63974820D01*
X160658313Y-63816070D01*
X159661521Y-63816070D01*
X159538840Y-63840473D01*
X159423278Y-63888340D01*
X159319274Y-63957833D01*
X159230826Y-64046281D01*
X159161333Y-64150285D01*
X159113466Y-64265847D01*
X159089063Y-64388528D01*
X157479063Y-64388528D01*
X157454660Y-64265847D01*
X157406793Y-64150285D01*
X157337300Y-64046281D01*
X157248852Y-63957833D01*
X157144848Y-63888340D01*
X157029286Y-63840473D01*
X156906605Y-63816070D01*
X155909813Y-63816070D01*
X155751063Y-63974820D01*
X155497063Y-63974820D01*
X155338313Y-63816070D01*
X154341521Y-63816070D01*
X154218840Y-63840473D01*
X154103278Y-63888340D01*
X153999274Y-63957833D01*
X153910826Y-64046281D01*
X153841333Y-64150285D01*
X153793466Y-64265847D01*
X153769063Y-64388528D01*
X147962727Y-64388528D01*
X148009990Y-64150926D01*
X148009990Y-63823934D01*
X147946197Y-63503226D01*
X147821063Y-63201125D01*
X147808571Y-63182430D01*
X148724240Y-63182430D01*
X148882990Y-63023680D01*
X148882990Y-61454430D01*
X149136990Y-61454430D01*
X149136990Y-63023680D01*
X149295740Y-63182430D01*
X150292532Y-63182430D01*
X150415213Y-63158027D01*
X150530775Y-63110160D01*
X150634779Y-63040667D01*
X150723227Y-62952219D01*
X150792720Y-62848215D01*
X150840587Y-62732653D01*
X150864990Y-62609972D01*
X150864990Y-61613180D01*
X150706240Y-61454430D01*
X149136990Y-61454430D01*
X148882990Y-61454430D01*
X147313740Y-61454430D01*
X147154990Y-61613180D01*
X147154990Y-62528849D01*
X147136295Y-62516357D01*
X146834194Y-62391223D01*
X146513486Y-62327430D01*
X146186494Y-62327430D01*
X145865786Y-62391223D01*
X145563685Y-62516357D01*
X145544990Y-62528849D01*
X145544990Y-61613180D01*
X145386240Y-61454430D01*
X143816990Y-61454430D01*
X143562990Y-61454430D01*
X141993740Y-61454430D01*
X141834990Y-61613180D01*
X138165010Y-61613180D01*
X138006260Y-61454430D01*
X136437010Y-61454430D01*
X136183010Y-61454430D01*
X134613760Y-61454430D01*
X134455010Y-61613180D01*
X134455010Y-62528849D01*
X134436315Y-62516357D01*
X134134214Y-62391223D01*
X133813506Y-62327430D01*
X133486514Y-62327430D01*
X133165806Y-62391223D01*
X132863705Y-62516357D01*
X132845010Y-62528849D01*
X132845010Y-61613180D01*
X132686260Y-61454430D01*
X131117010Y-61454430D01*
X130863010Y-61454430D01*
X129293760Y-61454430D01*
X129135010Y-61613180D01*
X96660000Y-61613180D01*
X96660000Y-60044888D01*
X129135010Y-60044888D01*
X129135010Y-61041680D01*
X129293760Y-61200430D01*
X130863010Y-61200430D01*
X130863010Y-59631180D01*
X131117010Y-59631180D01*
X131117010Y-61200430D01*
X132686260Y-61200430D01*
X132845010Y-61041680D01*
X132845010Y-60044888D01*
X134455010Y-60044888D01*
X134455010Y-61041680D01*
X134613760Y-61200430D01*
X136183010Y-61200430D01*
X136183010Y-59631180D01*
X136437010Y-59631180D01*
X136437010Y-61200430D01*
X138006260Y-61200430D01*
X138165010Y-61041680D01*
X138165010Y-60044888D01*
X141834990Y-60044888D01*
X141834990Y-61041680D01*
X141993740Y-61200430D01*
X143562990Y-61200430D01*
X143562990Y-59631180D01*
X143816990Y-59631180D01*
X143816990Y-61200430D01*
X145386240Y-61200430D01*
X145544990Y-61041680D01*
X145544990Y-60044888D01*
X147154990Y-60044888D01*
X147154990Y-61041680D01*
X147313740Y-61200430D01*
X148882990Y-61200430D01*
X148882990Y-59631180D01*
X149136990Y-59631180D01*
X149136990Y-61200430D01*
X150706240Y-61200430D01*
X150864990Y-61041680D01*
X150864990Y-60044888D01*
X150840587Y-59922207D01*
X150792720Y-59806645D01*
X150723227Y-59702641D01*
X150634779Y-59614193D01*
X150530775Y-59544700D01*
X150415213Y-59496833D01*
X150292532Y-59472430D01*
X149295740Y-59472430D01*
X149136990Y-59631180D01*
X148882990Y-59631180D01*
X148724240Y-59472430D01*
X147727448Y-59472430D01*
X147604767Y-59496833D01*
X147489205Y-59544700D01*
X147385201Y-59614193D01*
X147296753Y-59702641D01*
X147227260Y-59806645D01*
X147179393Y-59922207D01*
X147154990Y-60044888D01*
X145544990Y-60044888D01*
X145520587Y-59922207D01*
X145472720Y-59806645D01*
X145403227Y-59702641D01*
X145314779Y-59614193D01*
X145210775Y-59544700D01*
X145095213Y-59496833D01*
X144972532Y-59472430D01*
X143975740Y-59472430D01*
X143816990Y-59631180D01*
X143562990Y-59631180D01*
X143404240Y-59472430D01*
X142407448Y-59472430D01*
X142284767Y-59496833D01*
X142169205Y-59544700D01*
X142065201Y-59614193D01*
X141976753Y-59702641D01*
X141907260Y-59806645D01*
X141859393Y-59922207D01*
X141834990Y-60044888D01*
X138165010Y-60044888D01*
X138140607Y-59922207D01*
X138092740Y-59806645D01*
X138023247Y-59702641D01*
X137934799Y-59614193D01*
X137830795Y-59544700D01*
X137715233Y-59496833D01*
X137592552Y-59472430D01*
X136595760Y-59472430D01*
X136437010Y-59631180D01*
X136183010Y-59631180D01*
X136024260Y-59472430D01*
X135027468Y-59472430D01*
X134904787Y-59496833D01*
X134789225Y-59544700D01*
X134685221Y-59614193D01*
X134596773Y-59702641D01*
X134527280Y-59806645D01*
X134479413Y-59922207D01*
X134455010Y-60044888D01*
X132845010Y-60044888D01*
X132820607Y-59922207D01*
X132772740Y-59806645D01*
X132703247Y-59702641D01*
X132614799Y-59614193D01*
X132510795Y-59544700D01*
X132395233Y-59496833D01*
X132272552Y-59472430D01*
X131275760Y-59472430D01*
X131117010Y-59631180D01*
X130863010Y-59631180D01*
X130704260Y-59472430D01*
X129707468Y-59472430D01*
X129584787Y-59496833D01*
X129469225Y-59544700D01*
X129365221Y-59614193D01*
X129276773Y-59702641D01*
X129207280Y-59806645D01*
X129159413Y-59922207D01*
X129135010Y-60044888D01*
X96660000Y-60044888D01*
X96660000Y-57663160D01*
X183340001Y-57663160D01*
X183340000Y-105343160D01*
G04 #@! TD*
M02*
