M48
;DRILL file {KiCad (6.0.0-rc1-dev-305-gf0b8b2136)} date 08/12/19 13:44:33
;FORMAT={-:-/ absolute / inch / decimal}
FMAT,2
INCH,TZ
T1C0.0120
T2C0.0157
T3C0.0394
T4C0.0571
%
G90
G05
M72
T1
X4.1371Y-3.9351
X4.2205Y-3.4652
X4.4654Y-3.0444
X4.824Y-2.7462
X5.2734Y-2.5824
X5.3937Y-3.8976
X5.419Y-3.8668
X5.437Y-3.8307
X5.4606Y-3.7992
X5.4921Y-3.7742
X5.5315Y-3.7737
X5.563Y-3.7992
X5.5866Y-3.8307
X5.6042Y-3.8655
X5.6299Y-3.8976
X5.7501Y-2.5828
X6.1992Y-2.7462
X6.5587Y-3.044
X6.8032Y-3.4651
X6.8875Y-3.9352
T2
X4.2654Y-3.4434
X4.28Y-3.898
X4.2823Y-3.9643
X4.3536Y-3.4726
X4.3682Y-3.8954
X4.3701Y-3.9617
X4.4201Y-3.5686
X4.4422Y-3.502
X4.4599Y-3.8927
X4.4611Y-3.959
X4.5107Y-3.5989
X4.5331Y-3.5321
X4.5516Y-3.89
X4.5536Y-3.9562
X4.5977Y-3.6279
X4.6008Y-3.0946
X4.6213Y-3.5614
X4.6304Y-3.2072
X4.6445Y-3.8873
X4.6465Y-3.9535
X4.6733Y-3.1546
X4.6847Y-3.657
X4.6993Y-3.2644
X4.7083Y-3.5902
X4.7371Y-3.8846
X4.7398Y-3.9507
X4.743Y-3.2123
X4.767Y-3.3207
X4.7729Y-3.6865
X4.7942Y-3.6186
X4.8111Y-3.2687
X4.83Y-3.8819
X4.8319Y-3.948
X4.8355Y-3.3775
X4.8583Y-3.715
X4.865Y-2.884
X4.8784Y-3.6466
X4.8788Y-3.3248
X4.9044Y-3.4348
X4.9119Y-2.9631
X4.9209Y-3.8792
X4.9221Y-3.9453
X4.9422Y-3.743
X4.9485Y-3.3825
X4.959Y-3.0407
X4.9646Y-3.6751
X4.9717Y-3.4907
X4.9721Y-2.9261
X5.004Y-3.1147
X5.0162Y-3.8764
X5.0166Y-3.4389
X5.0174Y-3.9425
X5.0191Y-3.0033
X5.0335Y-3.7735
X5.043Y-3.5498
X5.0493Y-3.1891
X5.0544Y-3.7049
X5.065Y-3.0785
X5.0875Y-3.4976
X5.0952Y-3.2647
X5.1106Y-3.1533
X5.1131Y-3.608
X5.1154Y-3.8735
X5.1158Y-3.9395
X5.1256Y-3.8043
X5.14Y-3.3383
X5.1473Y-3.7357
X5.1563Y-3.2281
X5.1583Y-3.5562
X5.1871Y-3.6695
X5.1874Y-3.4163
X5.2012Y-3.3017
X5.2115Y-3.8533
X5.2123Y-3.9367
X5.2308Y-3.6162
X5.2343Y-3.4934
X5.2485Y-3.3793
X5.2595Y-3.7552
X5.2631Y-2.7206
X5.2794Y-2.8092
X5.2821Y-3.5722
X5.2955Y-3.4564
X5.296Y-2.8993
X5.3122Y-2.9871
X5.3154Y-3.8677
X5.3253Y-3.673
X5.3278Y-3.0714
X5.3319Y-2.7072
X5.3436Y-3.5352
X5.3436Y-3.1568
X5.3461Y-3.8016
X5.3482Y-2.7962
X5.3594Y-3.2426
X5.3646Y-2.886
X5.3755Y-3.33
X5.3806Y-2.9734
X5.3863Y-3.745
X5.392Y-3.419
X5.3961Y-3.0584
X5.4088Y-3.5104
X5.4111Y-3.6127
X5.4117Y-3.1438
X5.4272Y-3.2289
X5.4418Y-3.7009
X5.4432Y-3.3163
X5.4595Y-3.4056
X5.4763Y-3.4974
X5.5113Y-3.6891
X5.5115Y-3.5915
X5.5469Y-3.4974
X5.564Y-3.4056
X5.5806Y-3.3163
X5.5812Y-3.7021
X5.5968Y-3.2289
X5.6126Y-3.1438
X5.614Y-3.5104
X5.6146Y-3.6135
X5.6285Y-3.0584
X5.6312Y-3.4167
X5.6363Y-3.7466
X5.6443Y-2.973
X5.6473Y-3.3293
X5.6605Y-2.886
X5.6638Y-3.2395
X5.6768Y-3.8037
X5.6768Y-2.7962
X5.6792Y-3.1556
X5.6827Y-3.5387
X5.6937Y-2.7072
X5.695Y-3.0694
X5.6965Y-3.869
X5.6973Y-3.6777
X5.7104Y-2.9856
X5.7264Y-2.8989
X5.7326Y-3.456
X5.7391Y-3.5781
X5.7431Y-2.808
X5.7595Y-2.7186
X5.7662Y-3.7545
X5.7794Y-3.3785
X5.789Y-3.624
X5.7899Y-3.4934
X5.7993Y-3.8533
X5.8064Y-3.9354
X5.8286Y-3.297
X5.83Y-3.6722
X5.8378Y-3.4135
X5.867Y-3.5595
X5.8705Y-3.7443
X5.8723Y-3.2245
X5.886Y-3.3332
X5.8894Y-3.8033
X5.8922Y-3.9381
X5.8934Y-3.8757
X5.9099Y-3.606
X5.9172Y-3.1501
X5.9302Y-3.2596
X5.9386Y-3.5002
X5.9621Y-3.0757
X5.9744Y-3.186
X5.9756Y-3.709
X5.9819Y-3.5464
X5.9945Y-3.7671
X6.0064Y-3.9408
X6.0087Y-3.879
X6.0091Y-2.9978
X6.0099Y-3.4412
X6.02Y-3.11
X6.0512Y-2.9281
X6.052Y-3.4883
X6.0646Y-3.6792
X6.0668Y-3.032
X6.0792Y-3.3839
X6.0839Y-3.7379
X6.1024Y-3.9438
X6.104Y-3.8817
X6.1091Y-2.9615
X6.1213Y-3.431
X6.1465Y-3.3282
X6.1528Y-2.8911
X6.1568Y-3.6483
X6.1764Y-3.7072
X6.1886Y-3.3752
X6.1957Y-3.9466
X6.1965Y-3.8844
X6.2154Y-3.269
X6.2457Y-3.6184
X6.2583Y-3.3175
X6.2642Y-3.6769
X6.2867Y-3.2092
X6.2879Y-3.9495
X6.2894Y-3.887
X6.3296Y-3.2585
X6.3327Y-3.5892
X6.3512Y-3.6474
X6.3579Y-3.1517
X6.3823Y-3.9524
X6.3831Y-3.8897
X6.3997Y-3.2005
X6.4162Y-3.5612
X6.4253Y-3.0962
X6.4339Y-3.6199
X6.4737Y-3.9552
X6.4749Y-3.8923
X6.5032Y-3.5321
X6.5217Y-3.5908
X6.5694Y-3.9581
X6.5709Y-3.8951
X6.5882Y-3.5035
X6.6075Y-3.5623
X6.6623Y-3.961
X6.665Y-3.8978
X6.6697Y-3.4762
X6.7512Y-3.4489
X6.7575Y-3.9639
X6.7591Y-3.9005
T3
X3.9674Y-3.8323
X3.9674Y-4.0417
X4.0542Y-3.3399
X4.0542Y-3.5493
X4.1768Y-3.8323
X4.1768Y-4.0417
X4.2637Y-3.3399
X4.2637Y-3.5493
X4.3042Y-2.9069
X4.3042Y-3.1163
X4.5137Y-2.9069
X4.5137Y-3.1163
X4.6872Y-2.5855
X4.6872Y-2.7949
X4.8967Y-2.5855
X4.8967Y-2.7949
X5.1571Y-2.4145
X5.1571Y-2.6239
X5.3665Y-2.4145
X5.3665Y-2.6239
X5.6571Y-2.4145
X5.6571Y-2.6239
X5.8665Y-2.4145
X5.8665Y-2.6239
X6.1269Y-2.5855
X6.1269Y-2.7949
X6.3364Y-2.5855
X6.3364Y-2.7949
X6.51Y-2.9069
X6.51Y-3.1163
X6.7194Y-2.9069
X6.7194Y-3.1163
X6.76Y-3.3399
X6.76Y-3.5493
X6.8468Y-3.8323
X6.8468Y-4.0417
X6.9694Y-3.3399
X6.9694Y-3.5493
X7.0562Y-3.8323
X7.0562Y-4.0417
X5.3159Y-3.9563
X5.7045Y-3.9563
T4
X5.374Y-4.035
X5.6465Y-4.035
T0
M30
