G04 #@! TF.GenerationSoftware,KiCad,Pcbnew,(6.0.0-rc1-dev-305-gf0b8b2136)*
G04 #@! TF.CreationDate,2019-06-24T15:23:41-06:00*
G04 #@! TF.ProjectId,Station05,53746174696F6E30352E6B696361645F,rev?*
G04 #@! TF.SameCoordinates,Original*
G04 #@! TF.FileFunction,Legend,Top*
G04 #@! TF.FilePolarity,Positive*
%FSLAX46Y46*%
G04 Gerber Fmt 4.6, Leading zero omitted, Abs format (unit mm)*
G04 Created by KiCad (PCBNEW (6.0.0-rc1-dev-305-gf0b8b2136)) date 06/24/19 15:23:41*
%MOMM*%
%LPD*%
G01*
G04 APERTURE LIST*
%ADD10C,0.200000*%
%ADD11C,0.500000*%
G04 APERTURE END LIST*
D10*
X103146159Y-95678571D02*
X102289016Y-95678571D01*
X102717588Y-95678571D02*
X102717588Y-94178571D01*
X102574731Y-94392857D01*
X102431874Y-94535714D01*
X102289016Y-94607142D01*
X104074731Y-94178571D02*
X104217588Y-94178571D01*
X104360445Y-94250000D01*
X104431874Y-94321428D01*
X104503302Y-94464285D01*
X104574731Y-94750000D01*
X104574731Y-95107142D01*
X104503302Y-95392857D01*
X104431874Y-95535714D01*
X104360445Y-95607142D01*
X104217588Y-95678571D01*
X104074731Y-95678571D01*
X103931874Y-95607142D01*
X103860445Y-95535714D01*
X103789016Y-95392857D01*
X103717588Y-95107142D01*
X103717588Y-94750000D01*
X103789016Y-94464285D01*
X103860445Y-94321428D01*
X103931874Y-94250000D01*
X104074731Y-94178571D01*
X105351485Y-83171531D02*
X105637200Y-83171531D01*
X105780057Y-83100102D01*
X105851485Y-83028674D01*
X105994342Y-82814388D01*
X106065771Y-82528674D01*
X106065771Y-81957245D01*
X105994342Y-81814388D01*
X105922914Y-81742960D01*
X105780057Y-81671531D01*
X105494342Y-81671531D01*
X105351485Y-81742960D01*
X105280057Y-81814388D01*
X105208628Y-81957245D01*
X105208628Y-82314388D01*
X105280057Y-82457245D01*
X105351485Y-82528674D01*
X105494342Y-82600102D01*
X105780057Y-82600102D01*
X105922914Y-82528674D01*
X105994342Y-82457245D01*
X106065771Y-82314388D01*
X111844332Y-71315888D02*
X111701475Y-71244460D01*
X111630047Y-71173031D01*
X111558618Y-71030174D01*
X111558618Y-70958745D01*
X111630047Y-70815888D01*
X111701475Y-70744460D01*
X111844332Y-70673031D01*
X112130047Y-70673031D01*
X112272904Y-70744460D01*
X112344332Y-70815888D01*
X112415761Y-70958745D01*
X112415761Y-71030174D01*
X112344332Y-71173031D01*
X112272904Y-71244460D01*
X112130047Y-71315888D01*
X111844332Y-71315888D01*
X111701475Y-71387317D01*
X111630047Y-71458745D01*
X111558618Y-71601602D01*
X111558618Y-71887317D01*
X111630047Y-72030174D01*
X111701475Y-72101602D01*
X111844332Y-72173031D01*
X112130047Y-72173031D01*
X112272904Y-72101602D01*
X112344332Y-72030174D01*
X112415761Y-71887317D01*
X112415761Y-71601602D01*
X112344332Y-71458745D01*
X112272904Y-71387317D01*
X112130047Y-71315888D01*
X121215937Y-62509641D02*
X122215937Y-62509641D01*
X121573079Y-64009641D01*
X133935724Y-58166001D02*
X133650010Y-58166001D01*
X133507152Y-58237430D01*
X133435724Y-58308858D01*
X133292867Y-58523144D01*
X133221438Y-58808858D01*
X133221438Y-59380287D01*
X133292867Y-59523144D01*
X133364295Y-59594572D01*
X133507152Y-59666001D01*
X133792867Y-59666001D01*
X133935724Y-59594572D01*
X134007152Y-59523144D01*
X134078581Y-59380287D01*
X134078581Y-59023144D01*
X134007152Y-58880287D01*
X133935724Y-58808858D01*
X133792867Y-58737430D01*
X133507152Y-58737430D01*
X133364295Y-58808858D01*
X133292867Y-58880287D01*
X133221438Y-59023144D01*
X146707132Y-58166001D02*
X145992847Y-58166001D01*
X145921418Y-58880287D01*
X145992847Y-58808858D01*
X146135704Y-58737430D01*
X146492847Y-58737430D01*
X146635704Y-58808858D01*
X146707132Y-58880287D01*
X146778561Y-59023144D01*
X146778561Y-59380287D01*
X146707132Y-59523144D01*
X146635704Y-59594572D01*
X146492847Y-59666001D01*
X146135704Y-59666001D01*
X145992847Y-59594572D01*
X145921418Y-59523144D01*
X158569777Y-63009641D02*
X158569777Y-64009641D01*
X158212634Y-62438212D02*
X157855491Y-63509641D01*
X158784063Y-63509641D01*
X167512810Y-70673031D02*
X168441381Y-70673031D01*
X167941381Y-71244460D01*
X168155667Y-71244460D01*
X168298524Y-71315888D01*
X168369952Y-71387317D01*
X168441381Y-71530174D01*
X168441381Y-71887317D01*
X168369952Y-72030174D01*
X168298524Y-72101602D01*
X168155667Y-72173031D01*
X167727095Y-72173031D01*
X167584238Y-72101602D01*
X167512810Y-72030174D01*
X173934228Y-81814388D02*
X174005657Y-81742960D01*
X174148514Y-81671531D01*
X174505657Y-81671531D01*
X174648514Y-81742960D01*
X174719942Y-81814388D01*
X174791371Y-81957245D01*
X174791371Y-82100102D01*
X174719942Y-82314388D01*
X173862800Y-83171531D01*
X174791371Y-83171531D01*
X176996697Y-95678571D02*
X176139554Y-95678571D01*
X176568126Y-95678571D02*
X176568126Y-94178571D01*
X176425268Y-94392857D01*
X176282411Y-94535714D01*
X176139554Y-94607142D01*
X98527214Y-66371731D02*
X98527214Y-67443160D01*
X98455785Y-67657445D01*
X98312928Y-67800302D01*
X98098642Y-67871731D01*
X97955785Y-67871731D01*
X99884357Y-66871731D02*
X99884357Y-67871731D01*
X99241500Y-66871731D02*
X99241500Y-67657445D01*
X99312928Y-67800302D01*
X99455785Y-67871731D01*
X99670071Y-67871731D01*
X99812928Y-67800302D01*
X99884357Y-67728874D01*
X100598642Y-66871731D02*
X100598642Y-67871731D01*
X100598642Y-67014588D02*
X100670071Y-66943160D01*
X100812928Y-66871731D01*
X101027214Y-66871731D01*
X101170071Y-66943160D01*
X101241500Y-67086017D01*
X101241500Y-67871731D01*
X102527214Y-67800302D02*
X102384357Y-67871731D01*
X102098642Y-67871731D01*
X101955785Y-67800302D01*
X101884357Y-67657445D01*
X101884357Y-67086017D01*
X101955785Y-66943160D01*
X102098642Y-66871731D01*
X102384357Y-66871731D01*
X102527214Y-66943160D01*
X102598642Y-67086017D01*
X102598642Y-67228874D01*
X101884357Y-67371731D01*
X104312928Y-66514588D02*
X104384357Y-66443160D01*
X104527214Y-66371731D01*
X104884357Y-66371731D01*
X105027214Y-66443160D01*
X105098642Y-66514588D01*
X105170071Y-66657445D01*
X105170071Y-66800302D01*
X105098642Y-67014588D01*
X104241500Y-67871731D01*
X105170071Y-67871731D01*
X106098642Y-66371731D02*
X106241500Y-66371731D01*
X106384357Y-66443160D01*
X106455785Y-66514588D01*
X106527214Y-66657445D01*
X106598642Y-66943160D01*
X106598642Y-67300302D01*
X106527214Y-67586017D01*
X106455785Y-67728874D01*
X106384357Y-67800302D01*
X106241500Y-67871731D01*
X106098642Y-67871731D01*
X105955785Y-67800302D01*
X105884357Y-67728874D01*
X105812928Y-67586017D01*
X105741500Y-67300302D01*
X105741500Y-66943160D01*
X105812928Y-66657445D01*
X105884357Y-66514588D01*
X105955785Y-66443160D01*
X106098642Y-66371731D01*
X108027214Y-67871731D02*
X107170071Y-67871731D01*
X107598642Y-67871731D02*
X107598642Y-66371731D01*
X107455785Y-66586017D01*
X107312928Y-66728874D01*
X107170071Y-66800302D01*
X108741500Y-67871731D02*
X109027214Y-67871731D01*
X109170071Y-67800302D01*
X109241500Y-67728874D01*
X109384357Y-67514588D01*
X109455785Y-67228874D01*
X109455785Y-66657445D01*
X109384357Y-66514588D01*
X109312928Y-66443160D01*
X109170071Y-66371731D01*
X108884357Y-66371731D01*
X108741500Y-66443160D01*
X108670071Y-66514588D01*
X108598642Y-66657445D01*
X108598642Y-67014588D01*
X108670071Y-67157445D01*
X108741500Y-67228874D01*
X108884357Y-67300302D01*
X109170071Y-67300302D01*
X109312928Y-67228874D01*
X109384357Y-67157445D01*
X109455785Y-67014588D01*
X98008642Y-65051731D02*
X98008642Y-63551731D01*
X98365785Y-63551731D01*
X98580071Y-63623160D01*
X98722928Y-63766017D01*
X98794357Y-63908874D01*
X98865785Y-64194588D01*
X98865785Y-64408874D01*
X98794357Y-64694588D01*
X98722928Y-64837445D01*
X98580071Y-64980302D01*
X98365785Y-65051731D01*
X98008642Y-65051731D01*
X99365785Y-64051731D02*
X99722928Y-65051731D01*
X100080071Y-64051731D02*
X99722928Y-65051731D01*
X99580071Y-65408874D01*
X99508642Y-65480302D01*
X99365785Y-65551731D01*
X100865785Y-65051731D02*
X100722928Y-64980302D01*
X100651500Y-64837445D01*
X100651500Y-63551731D01*
X102080071Y-65051731D02*
X102080071Y-64266017D01*
X102008642Y-64123160D01*
X101865785Y-64051731D01*
X101580071Y-64051731D01*
X101437214Y-64123160D01*
X102080071Y-64980302D02*
X101937214Y-65051731D01*
X101580071Y-65051731D01*
X101437214Y-64980302D01*
X101365785Y-64837445D01*
X101365785Y-64694588D01*
X101437214Y-64551731D01*
X101580071Y-64480302D01*
X101937214Y-64480302D01*
X102080071Y-64408874D01*
X102794357Y-64051731D02*
X102794357Y-65051731D01*
X102794357Y-64194588D02*
X102865785Y-64123160D01*
X103008642Y-64051731D01*
X103222928Y-64051731D01*
X103365785Y-64123160D01*
X103437214Y-64266017D01*
X103437214Y-65051731D01*
X105580071Y-63551731D02*
X105865785Y-63551731D01*
X106008642Y-63623160D01*
X106151500Y-63766017D01*
X106222928Y-64051731D01*
X106222928Y-64551731D01*
X106151500Y-64837445D01*
X106008642Y-64980302D01*
X105865785Y-65051731D01*
X105580071Y-65051731D01*
X105437214Y-64980302D01*
X105294357Y-64837445D01*
X105222928Y-64551731D01*
X105222928Y-64051731D01*
X105294357Y-63766017D01*
X105437214Y-63623160D01*
X105580071Y-63551731D01*
X106865785Y-65051731D02*
X106865785Y-63551731D01*
X107508642Y-65051731D02*
X107508642Y-64266017D01*
X107437214Y-64123160D01*
X107294357Y-64051731D01*
X107080071Y-64051731D01*
X106937214Y-64123160D01*
X106865785Y-64194588D01*
D11*
X97943642Y-61797445D02*
X98354357Y-61940302D01*
X99068642Y-61940302D01*
X99372214Y-61797445D01*
X99532928Y-61654588D01*
X99711500Y-61368874D01*
X99747214Y-61083160D01*
X99640071Y-60797445D01*
X99515071Y-60654588D01*
X99247214Y-60511731D01*
X98693642Y-60368874D01*
X98425785Y-60226017D01*
X98300785Y-60083160D01*
X98193642Y-59797445D01*
X98229357Y-59511731D01*
X98407928Y-59226017D01*
X98568642Y-59083160D01*
X98872214Y-58940302D01*
X99586500Y-58940302D01*
X99997214Y-59083160D01*
X100747214Y-59940302D02*
X101890071Y-59940302D01*
X101300785Y-58940302D02*
X100979357Y-61511731D01*
X101086500Y-61797445D01*
X101354357Y-61940302D01*
X101640071Y-61940302D01*
X103925785Y-61940302D02*
X104122214Y-60368874D01*
X104015071Y-60083160D01*
X103747214Y-59940302D01*
X103175785Y-59940302D01*
X102872214Y-60083160D01*
X103943642Y-61797445D02*
X103640071Y-61940302D01*
X102925785Y-61940302D01*
X102657928Y-61797445D01*
X102550785Y-61511731D01*
X102586500Y-61226017D01*
X102765071Y-60940302D01*
X103068642Y-60797445D01*
X103782928Y-60797445D01*
X104086500Y-60654588D01*
X105175785Y-59940302D02*
X106318642Y-59940302D01*
X105729357Y-58940302D02*
X105407928Y-61511731D01*
X105515071Y-61797445D01*
X105782928Y-61940302D01*
X106068642Y-61940302D01*
X107068642Y-61940302D02*
X107318642Y-59940302D01*
X107443642Y-58940302D02*
X107282928Y-59083160D01*
X107407928Y-59226017D01*
X107568642Y-59083160D01*
X107443642Y-58940302D01*
X107407928Y-59226017D01*
X108925785Y-61940302D02*
X108657928Y-61797445D01*
X108532928Y-61654588D01*
X108425785Y-61368874D01*
X108532928Y-60511731D01*
X108711500Y-60226017D01*
X108872214Y-60083160D01*
X109175785Y-59940302D01*
X109604357Y-59940302D01*
X109872214Y-60083160D01*
X109997214Y-60226017D01*
X110104357Y-60511731D01*
X109997214Y-61368874D01*
X109818642Y-61654588D01*
X109657928Y-61797445D01*
X109354357Y-61940302D01*
X108925785Y-61940302D01*
X111461500Y-59940302D02*
X111211500Y-61940302D01*
X111425785Y-60226017D02*
X111586500Y-60083160D01*
X111890071Y-59940302D01*
X112318642Y-59940302D01*
X112586500Y-60083160D01*
X112693642Y-60368874D01*
X112497214Y-61940302D01*
X114872214Y-58940302D02*
X115157928Y-58940302D01*
X115425785Y-59083160D01*
X115550785Y-59226017D01*
X115657928Y-59511731D01*
X115729357Y-60083160D01*
X115640071Y-60797445D01*
X115425785Y-61368874D01*
X115247214Y-61654588D01*
X115086500Y-61797445D01*
X114782928Y-61940302D01*
X114497214Y-61940302D01*
X114229357Y-61797445D01*
X114104357Y-61654588D01*
X113997214Y-61368874D01*
X113925785Y-60797445D01*
X114015071Y-60083160D01*
X114229357Y-59511731D01*
X114407928Y-59226017D01*
X114568642Y-59083160D01*
X114872214Y-58940302D01*
X118586500Y-58940302D02*
X117157928Y-58940302D01*
X116836500Y-60368874D01*
X116997214Y-60226017D01*
X117300785Y-60083160D01*
X118015071Y-60083160D01*
X118282928Y-60226017D01*
X118407928Y-60368874D01*
X118515071Y-60654588D01*
X118425785Y-61368874D01*
X118247214Y-61654588D01*
X118086500Y-61797445D01*
X117782928Y-61940302D01*
X117068642Y-61940302D01*
X116800785Y-61797445D01*
X116675785Y-61654588D01*
M02*
