G04 #@! TF.GenerationSoftware,KiCad,Pcbnew,(6.0.0-rc1-dev-305-gf0b8b2136)*
G04 #@! TF.CreationDate,2019-08-12T13:44:36-06:00*
G04 #@! TF.ProjectId,Station05,53746174696F6E30352E6B696361645F,rev?*
G04 #@! TF.SameCoordinates,Original*
G04 #@! TF.FileFunction,Legend,Bot*
G04 #@! TF.FilePolarity,Positive*
%FSLAX46Y46*%
G04 Gerber Fmt 4.6, Leading zero omitted, Abs format (unit mm)*
G04 Created by KiCad (PCBNEW (6.0.0-rc1-dev-305-gf0b8b2136)) date 08/12/19 13:44:36*
%MOMM*%
%LPD*%
G01*
G04 APERTURE LIST*
%ADD10C,0.200000*%
%ADD11C,0.120000*%
G04 APERTURE END LIST*
D10*
X103717214Y-95681731D02*
X104574357Y-95681731D01*
X104145785Y-95681731D02*
X104145785Y-94181731D01*
X104288642Y-94396017D01*
X104431500Y-94538874D01*
X104574357Y-94610302D01*
X102788642Y-94181731D02*
X102645785Y-94181731D01*
X102502928Y-94253160D01*
X102431500Y-94324588D01*
X102360071Y-94467445D01*
X102288642Y-94753160D01*
X102288642Y-95110302D01*
X102360071Y-95396017D01*
X102431500Y-95538874D01*
X102502928Y-95610302D01*
X102645785Y-95681731D01*
X102788642Y-95681731D01*
X102931500Y-95610302D01*
X103002928Y-95538874D01*
X103074357Y-95396017D01*
X103145785Y-95110302D01*
X103145785Y-94753160D01*
X103074357Y-94467445D01*
X103002928Y-94324588D01*
X102931500Y-94253160D01*
X102788642Y-94181731D01*
X105927214Y-83171731D02*
X105641500Y-83171731D01*
X105498642Y-83100302D01*
X105427214Y-83028874D01*
X105284357Y-82814588D01*
X105212928Y-82528874D01*
X105212928Y-81957445D01*
X105284357Y-81814588D01*
X105355785Y-81743160D01*
X105498642Y-81671731D01*
X105784357Y-81671731D01*
X105927214Y-81743160D01*
X105998642Y-81814588D01*
X106070071Y-81957445D01*
X106070071Y-82314588D01*
X105998642Y-82457445D01*
X105927214Y-82528874D01*
X105784357Y-82600302D01*
X105498642Y-82600302D01*
X105355785Y-82528874D01*
X105284357Y-82457445D01*
X105212928Y-82314588D01*
X112124357Y-71314588D02*
X112267214Y-71243160D01*
X112338642Y-71171731D01*
X112410071Y-71028874D01*
X112410071Y-70957445D01*
X112338642Y-70814588D01*
X112267214Y-70743160D01*
X112124357Y-70671731D01*
X111838642Y-70671731D01*
X111695785Y-70743160D01*
X111624357Y-70814588D01*
X111552928Y-70957445D01*
X111552928Y-71028874D01*
X111624357Y-71171731D01*
X111695785Y-71243160D01*
X111838642Y-71314588D01*
X112124357Y-71314588D01*
X112267214Y-71386017D01*
X112338642Y-71457445D01*
X112410071Y-71600302D01*
X112410071Y-71886017D01*
X112338642Y-72028874D01*
X112267214Y-72100302D01*
X112124357Y-72171731D01*
X111838642Y-72171731D01*
X111695785Y-72100302D01*
X111624357Y-72028874D01*
X111552928Y-71886017D01*
X111552928Y-71600302D01*
X111624357Y-71457445D01*
X111695785Y-71386017D01*
X111838642Y-71314588D01*
X122221500Y-62511731D02*
X121221500Y-62511731D01*
X121864357Y-64011731D01*
X133365785Y-58161731D02*
X133651500Y-58161731D01*
X133794357Y-58233160D01*
X133865785Y-58304588D01*
X134008642Y-58518874D01*
X134080071Y-58804588D01*
X134080071Y-59376017D01*
X134008642Y-59518874D01*
X133937214Y-59590302D01*
X133794357Y-59661731D01*
X133508642Y-59661731D01*
X133365785Y-59590302D01*
X133294357Y-59518874D01*
X133222928Y-59376017D01*
X133222928Y-59018874D01*
X133294357Y-58876017D01*
X133365785Y-58804588D01*
X133508642Y-58733160D01*
X133794357Y-58733160D01*
X133937214Y-58804588D01*
X134008642Y-58876017D01*
X134080071Y-59018874D01*
X145994357Y-58161731D02*
X146708642Y-58161731D01*
X146780071Y-58876017D01*
X146708642Y-58804588D01*
X146565785Y-58733160D01*
X146208642Y-58733160D01*
X146065785Y-58804588D01*
X145994357Y-58876017D01*
X145922928Y-59018874D01*
X145922928Y-59376017D01*
X145994357Y-59518874D01*
X146065785Y-59590302D01*
X146208642Y-59661731D01*
X146565785Y-59661731D01*
X146708642Y-59590302D01*
X146780071Y-59518874D01*
X157995785Y-63011731D02*
X157995785Y-64011731D01*
X158352928Y-62440302D02*
X158710071Y-63511731D01*
X157781500Y-63511731D01*
X168441500Y-70671731D02*
X167512928Y-70671731D01*
X168012928Y-71243160D01*
X167798642Y-71243160D01*
X167655785Y-71314588D01*
X167584357Y-71386017D01*
X167512928Y-71528874D01*
X167512928Y-71886017D01*
X167584357Y-72028874D01*
X167655785Y-72100302D01*
X167798642Y-72171731D01*
X168227214Y-72171731D01*
X168370071Y-72100302D01*
X168441500Y-72028874D01*
X174720071Y-81814588D02*
X174648642Y-81743160D01*
X174505785Y-81671731D01*
X174148642Y-81671731D01*
X174005785Y-81743160D01*
X173934357Y-81814588D01*
X173862928Y-81957445D01*
X173862928Y-82100302D01*
X173934357Y-82314588D01*
X174791500Y-83171731D01*
X173862928Y-83171731D01*
X176142928Y-95681731D02*
X177000071Y-95681731D01*
X176571500Y-95681731D02*
X176571500Y-94181731D01*
X176714357Y-94396017D01*
X176857214Y-94538874D01*
X177000071Y-94610302D01*
D11*
G04 #@! TO.C,U11*
X134280000Y-99640000D02*
G75*
G02X134730000Y-99190000I450000J0D01*
G01*
X145190000Y-99190000D02*
G75*
G02X145640000Y-99640000I0J-450000D01*
G01*
X134730000Y-104310000D02*
G75*
G02X134280000Y-103860000I0J450000D01*
G01*
X145640000Y-103860000D02*
G75*
G02X145190000Y-104310000I-450000J0D01*
G01*
X145190000Y-104310000D02*
X134730000Y-104310000D01*
X145190000Y-99190000D02*
X134730000Y-99190000D01*
X134280000Y-103860000D02*
X134280000Y-99640000D01*
X145640000Y-99640000D02*
X145640000Y-103860000D01*
X145960000Y-102120000D02*
X145960000Y-102920000D01*
X145960000Y-102920000D02*
X145640000Y-103120000D01*
X133960000Y-102920000D02*
X134280000Y-103120000D01*
X133960000Y-102120000D02*
X133960000Y-102920000D01*
X133960000Y-102120000D02*
X134280000Y-101920000D01*
X145960000Y-102120000D02*
X145640000Y-101920000D01*
G04 #@! TD*
M02*
