G04 #@! TF.GenerationSoftware,KiCad,Pcbnew,(6.0.0-rc1-dev-305-gf0b8b2136)*
G04 #@! TF.CreationDate,2019-06-24T15:23:41-06:00*
G04 #@! TF.ProjectId,Station05,53746174696F6E30352E6B696361645F,rev?*
G04 #@! TF.SameCoordinates,Original*
G04 #@! TF.FileFunction,Paste,Top*
G04 #@! TF.FilePolarity,Positive*
%FSLAX46Y46*%
G04 Gerber Fmt 4.6, Leading zero omitted, Abs format (unit mm)*
G04 Created by KiCad (PCBNEW (6.0.0-rc1-dev-305-gf0b8b2136)) date 06/24/19 15:23:41*
%MOMM*%
%LPD*%
G01*
G04 APERTURE LIST*
%ADD10R,2.440000X2.440000*%
%ADD11C,2.050000*%
G04 APERTURE END LIST*
D10*
G04 #@! TO.C,U10*
X179228126Y-102660000D03*
X179228126Y-97340000D03*
X173908126Y-97340000D03*
X173908126Y-102660000D03*
D11*
X176568126Y-100000000D03*
G04 #@! TD*
G04 #@! TO.C,U9*
X174362800Y-87492960D03*
D10*
X171702800Y-90152960D03*
X171702800Y-84832960D03*
X177022800Y-84832960D03*
X177022800Y-90152960D03*
G04 #@! TD*
G04 #@! TO.C,U8*
X170672810Y-79154460D03*
X170672810Y-73834460D03*
X165352810Y-73834460D03*
X165352810Y-79154460D03*
D11*
X168012810Y-76494460D03*
G04 #@! TD*
G04 #@! TO.C,U7*
X158284063Y-68331070D03*
D10*
X155624063Y-70991070D03*
X155624063Y-65671070D03*
X160944063Y-65671070D03*
X160944063Y-70991070D03*
G04 #@! TD*
G04 #@! TO.C,U6*
X149009990Y-66647430D03*
X149009990Y-61327430D03*
X143689990Y-61327430D03*
X143689990Y-66647430D03*
D11*
X146349990Y-63987430D03*
G04 #@! TD*
G04 #@! TO.C,U5*
X133650010Y-63987430D03*
D10*
X130990010Y-66647430D03*
X130990010Y-61327430D03*
X136310010Y-61327430D03*
X136310010Y-66647430D03*
G04 #@! TD*
G04 #@! TO.C,U4*
X124375937Y-70991070D03*
X124375937Y-65671070D03*
X119055937Y-65671070D03*
X119055937Y-70991070D03*
D11*
X121715937Y-68331070D03*
G04 #@! TD*
G04 #@! TO.C,U3*
X111987190Y-76494460D03*
D10*
X109327190Y-79154460D03*
X109327190Y-73834460D03*
X114647190Y-73834460D03*
X114647190Y-79154460D03*
G04 #@! TD*
G04 #@! TO.C,U2*
X108297200Y-90152960D03*
X108297200Y-84832960D03*
X102977200Y-84832960D03*
X102977200Y-90152960D03*
D11*
X105637200Y-87492960D03*
G04 #@! TD*
G04 #@! TO.C,U1*
X103431874Y-100000000D03*
D10*
X100771874Y-102660000D03*
X100771874Y-97340000D03*
X106091874Y-97340000D03*
X106091874Y-102660000D03*
G04 #@! TD*
M02*
