M48
; DRILL file {KiCad (5.1.0)-1} date 11/25/2019 1:14:56 PM
; FORMAT={-:-/ absolute / inch / decimal}
; #@! TF.CreationDate,2019-11-25T13:14:56-07:00
; #@! TF.GenerationSoftware,Kicad,Pcbnew,(5.1.0)-1
; #@! TF.FileFunction,Plated,1,2,PTH
FMAT,2
INCH
T1C0.0118
T2C0.0394
T3C0.0571
%
G90
G05
T1
X3.1285Y-3.5062
X3.1285Y-4.1513
X3.1523Y-3.5062
X3.1523Y-4.1513
X3.1761Y-3.5062
X3.1761Y-4.1513
X3.2Y-3.5062
X3.2Y-4.1513
X3.2238Y-3.5062
X3.2238Y-4.1513
X3.2476Y-3.5062
X3.2476Y-4.1513
X3.2714Y-3.5062
X3.2714Y-4.1513
X3.2952Y-3.5062
X3.2952Y-4.1513
X3.319Y-3.5062
X3.319Y-4.1513
X3.3428Y-3.5062
X3.3428Y-4.1513
X3.3666Y-3.5062
X3.3666Y-4.1513
X3.3904Y-3.5062
X3.3904Y-4.1513
X3.4143Y-3.5062
X3.4143Y-4.1513
X3.4381Y-3.5062
X3.4381Y-4.1513
X3.4619Y-3.5062
X3.4619Y-4.1513
X3.4857Y-3.5062
X3.4857Y-4.1513
X3.5095Y-3.5062
X3.5095Y-4.1513
X3.5333Y-3.5062
X3.5333Y-4.1513
X3.5571Y-3.5062
X3.5571Y-4.1513
X3.5809Y-3.5062
X3.5809Y-4.1513
X3.809Y-3.5062
X3.809Y-4.1513
X3.8328Y-3.5062
X3.8328Y-4.1513
X3.8566Y-3.5062
X3.8566Y-4.1513
X3.8804Y-3.5062
X3.8804Y-4.1513
X3.9042Y-3.5062
X3.9042Y-4.1513
X3.928Y-3.5062
X3.928Y-4.1513
X3.9519Y-3.5062
X3.9519Y-4.1513
X3.9757Y-3.5062
X3.9757Y-4.1513
X3.9995Y-3.5062
X3.9995Y-4.1513
X4.0233Y-3.5062
X4.0233Y-4.1513
X4.0471Y-3.5062
X4.0471Y-4.1513
X4.0709Y-3.5062
X4.0709Y-4.1513
X4.0947Y-3.5062
X4.0947Y-4.1513
X4.1185Y-3.5062
X4.1185Y-4.1513
X4.1423Y-3.5062
X4.1423Y-4.1513
X4.1662Y-3.5062
X4.1662Y-4.1513
X4.19Y-3.5062
X4.19Y-4.1513
X4.2138Y-3.5062
X4.2138Y-4.1513
X4.2376Y-3.5062
X4.2376Y-4.1513
X4.2614Y-3.5062
X4.2614Y-4.1513
T2
X3.0636Y-3.6436
X3.6459Y-3.6436
X3.7441Y-4.0139
X4.3263Y-4.0139
X3.0636Y-4.2887
X3.6459Y-4.2887
X3.0636Y-3.3688
X3.6459Y-3.3688
X3.0636Y-4.0139
X3.6459Y-4.0139
X3.7441Y-3.3688
X4.3263Y-3.3688
X3.7441Y-3.6436
X4.3263Y-3.6436
X3.7441Y-4.2887
X4.3263Y-4.2887
T3
X3.1217Y-3.7223
X3.5878Y-3.7223
X3.8021Y-3.9352
X4.2683Y-3.9352
X3.1217Y-4.3674
X3.5878Y-4.3674
X3.1217Y-3.29
X3.5878Y-3.29
X3.1217Y-3.9352
X3.5878Y-3.9352
X3.8021Y-3.29
X4.2683Y-3.29
X3.8021Y-3.7223
X4.2683Y-3.7223
X3.8021Y-4.3674
X4.2683Y-4.3674
T0
M30
