G04 #@! TF.GenerationSoftware,KiCad,Pcbnew,(5.1.0)-1*
G04 #@! TF.CreationDate,2019-11-25T13:15:00-07:00*
G04 #@! TF.ProjectId,Gateway03,47617465-7761-4793-9033-2e6b69636164,rev?*
G04 #@! TF.SameCoordinates,Original*
G04 #@! TF.FileFunction,Soldermask,Bot*
G04 #@! TF.FilePolarity,Negative*
%FSLAX46Y46*%
G04 Gerber Fmt 4.6, Leading zero omitted, Abs format (unit mm)*
G04 Created by KiCad (PCBNEW (5.1.0)-1) date 2019-11-25 13:15:00*
%MOMM*%
%LPD*%
G04 APERTURE LIST*
%ADD10C,0.250000*%
%ADD11C,3.200000*%
%ADD12C,0.100000*%
G04 APERTURE END LIST*
D10*
X83193200Y-105443000D02*
G75*
G03X83193200Y-105443000I-100000J0D01*
G01*
X89846000Y-105443000D02*
G75*
G03X89846000Y-105443000I-100000J0D01*
G01*
X88031600Y-105443000D02*
G75*
G03X88031600Y-105443000I-100000J0D01*
G01*
X87426800Y-105443000D02*
G75*
G03X87426800Y-105443000I-100000J0D01*
G01*
X81983600Y-105443000D02*
G75*
G03X81983600Y-105443000I-100000J0D01*
G01*
X81378800Y-105443000D02*
G75*
G03X81378800Y-105443000I-100000J0D01*
G01*
X91055600Y-105443000D02*
G75*
G03X91055600Y-105443000I-100000J0D01*
G01*
X86217200Y-105443000D02*
G75*
G03X86217200Y-105443000I-100000J0D01*
G01*
X80774000Y-105443000D02*
G75*
G03X80774000Y-105443000I-100000J0D01*
G01*
X83798000Y-105443000D02*
G75*
G03X83798000Y-105443000I-100000J0D01*
G01*
X79564400Y-105443000D02*
G75*
G03X79564400Y-105443000I-100000J0D01*
G01*
X85007600Y-105443000D02*
G75*
G03X85007600Y-105443000I-100000J0D01*
G01*
X85612400Y-105443000D02*
G75*
G03X85612400Y-105443000I-100000J0D01*
G01*
X82588400Y-105443000D02*
G75*
G03X82588400Y-105443000I-100000J0D01*
G01*
X89241200Y-105443000D02*
G75*
G03X89241200Y-105443000I-100000J0D01*
G01*
X84402800Y-105443000D02*
G75*
G03X84402800Y-105443000I-100000J0D01*
G01*
X80169200Y-105443000D02*
G75*
G03X80169200Y-105443000I-100000J0D01*
G01*
X90450800Y-105443000D02*
G75*
G03X90450800Y-105443000I-100000J0D01*
G01*
X86822000Y-105443000D02*
G75*
G03X86822000Y-105443000I-100000J0D01*
G01*
X88636400Y-105443000D02*
G75*
G03X88636400Y-105443000I-100000J0D01*
G01*
X103501200Y-105443000D02*
G75*
G03X103501200Y-105443000I-100000J0D01*
G01*
X98058000Y-105443000D02*
G75*
G03X98058000Y-105443000I-100000J0D01*
G01*
X101082000Y-105443000D02*
G75*
G03X101082000Y-105443000I-100000J0D01*
G01*
X99872400Y-105443000D02*
G75*
G03X99872400Y-105443000I-100000J0D01*
G01*
X96848400Y-105443000D02*
G75*
G03X96848400Y-105443000I-100000J0D01*
G01*
X107734800Y-105443000D02*
G75*
G03X107734800Y-105443000I-100000J0D01*
G01*
X105920400Y-105443000D02*
G75*
G03X105920400Y-105443000I-100000J0D01*
G01*
X107130000Y-105443000D02*
G75*
G03X107130000Y-105443000I-100000J0D01*
G01*
X108339600Y-105443000D02*
G75*
G03X108339600Y-105443000I-100000J0D01*
G01*
X106525200Y-105443000D02*
G75*
G03X106525200Y-105443000I-100000J0D01*
G01*
X97453200Y-105443000D02*
G75*
G03X97453200Y-105443000I-100000J0D01*
G01*
X99267600Y-105443000D02*
G75*
G03X99267600Y-105443000I-100000J0D01*
G01*
X102896400Y-105443000D02*
G75*
G03X102896400Y-105443000I-100000J0D01*
G01*
X105315600Y-105443000D02*
G75*
G03X105315600Y-105443000I-100000J0D01*
G01*
X98662800Y-105443000D02*
G75*
G03X98662800Y-105443000I-100000J0D01*
G01*
X102291600Y-105443000D02*
G75*
G03X102291600Y-105443000I-100000J0D01*
G01*
X101686800Y-105443000D02*
G75*
G03X101686800Y-105443000I-100000J0D01*
G01*
X104710800Y-105443000D02*
G75*
G03X104710800Y-105443000I-100000J0D01*
G01*
X104106000Y-105443000D02*
G75*
G03X104106000Y-105443000I-100000J0D01*
G01*
X100477200Y-105443000D02*
G75*
G03X100477200Y-105443000I-100000J0D01*
G01*
X86217200Y-89057000D02*
G75*
G03X86217200Y-89057000I-100000J0D01*
G01*
X80774000Y-89057000D02*
G75*
G03X80774000Y-89057000I-100000J0D01*
G01*
X83798000Y-89057000D02*
G75*
G03X83798000Y-89057000I-100000J0D01*
G01*
X82588400Y-89057000D02*
G75*
G03X82588400Y-89057000I-100000J0D01*
G01*
X79564400Y-89057000D02*
G75*
G03X79564400Y-89057000I-100000J0D01*
G01*
X90450800Y-89057000D02*
G75*
G03X90450800Y-89057000I-100000J0D01*
G01*
X88636400Y-89057000D02*
G75*
G03X88636400Y-89057000I-100000J0D01*
G01*
X89846000Y-89057000D02*
G75*
G03X89846000Y-89057000I-100000J0D01*
G01*
X91055600Y-89057000D02*
G75*
G03X91055600Y-89057000I-100000J0D01*
G01*
X89241200Y-89057000D02*
G75*
G03X89241200Y-89057000I-100000J0D01*
G01*
X80169200Y-89057000D02*
G75*
G03X80169200Y-89057000I-100000J0D01*
G01*
X81983600Y-89057000D02*
G75*
G03X81983600Y-89057000I-100000J0D01*
G01*
X85612400Y-89057000D02*
G75*
G03X85612400Y-89057000I-100000J0D01*
G01*
X88031600Y-89057000D02*
G75*
G03X88031600Y-89057000I-100000J0D01*
G01*
X81378800Y-89057000D02*
G75*
G03X81378800Y-89057000I-100000J0D01*
G01*
X85007600Y-89057000D02*
G75*
G03X85007600Y-89057000I-100000J0D01*
G01*
X84402800Y-89057000D02*
G75*
G03X84402800Y-89057000I-100000J0D01*
G01*
X87426800Y-89057000D02*
G75*
G03X87426800Y-89057000I-100000J0D01*
G01*
X86822000Y-89057000D02*
G75*
G03X86822000Y-89057000I-100000J0D01*
G01*
X83193200Y-89057000D02*
G75*
G03X83193200Y-89057000I-100000J0D01*
G01*
X98662800Y-89057000D02*
G75*
G03X98662800Y-89057000I-100000J0D01*
G01*
X98058000Y-89057000D02*
G75*
G03X98058000Y-89057000I-100000J0D01*
G01*
X99267600Y-89057000D02*
G75*
G03X99267600Y-89057000I-100000J0D01*
G01*
X96848400Y-89057000D02*
G75*
G03X96848400Y-89057000I-100000J0D01*
G01*
X106525200Y-89057000D02*
G75*
G03X106525200Y-89057000I-100000J0D01*
G01*
X97453200Y-89057000D02*
G75*
G03X97453200Y-89057000I-100000J0D01*
G01*
X108339600Y-89057000D02*
G75*
G03X108339600Y-89057000I-100000J0D01*
G01*
X107130000Y-89057000D02*
G75*
G03X107130000Y-89057000I-100000J0D01*
G01*
X105920400Y-89057000D02*
G75*
G03X105920400Y-89057000I-100000J0D01*
G01*
X107734800Y-89057000D02*
G75*
G03X107734800Y-89057000I-100000J0D01*
G01*
X103501200Y-89057000D02*
G75*
G03X103501200Y-89057000I-100000J0D01*
G01*
X99872400Y-89057000D02*
G75*
G03X99872400Y-89057000I-100000J0D01*
G01*
X102896400Y-89057000D02*
G75*
G03X102896400Y-89057000I-100000J0D01*
G01*
X101082000Y-89057000D02*
G75*
G03X101082000Y-89057000I-100000J0D01*
G01*
X105315600Y-89057000D02*
G75*
G03X105315600Y-89057000I-100000J0D01*
G01*
X104106000Y-89057000D02*
G75*
G03X104106000Y-89057000I-100000J0D01*
G01*
X101686800Y-89057000D02*
G75*
G03X101686800Y-89057000I-100000J0D01*
G01*
X104710800Y-89057000D02*
G75*
G03X104710800Y-89057000I-100000J0D01*
G01*
X102291600Y-89057000D02*
G75*
G03X102291600Y-89057000I-100000J0D01*
G01*
X100477200Y-89057000D02*
G75*
G03X100477200Y-89057000I-100000J0D01*
G01*
D11*
X119252000Y-97250000D02*
G75*
G03X119252000Y-97250000I-25400000J0D01*
G01*
D12*
G36*
X91356348Y-110186820D02*
G01*
X91356350Y-110186821D01*
X91356351Y-110186821D01*
X91497574Y-110245317D01*
X91497577Y-110245319D01*
X91624669Y-110330239D01*
X91732761Y-110438331D01*
X91817681Y-110565423D01*
X91817683Y-110565426D01*
X91876179Y-110706649D01*
X91906000Y-110856571D01*
X91906000Y-111009429D01*
X91876179Y-111159351D01*
X91817683Y-111300574D01*
X91817681Y-111300577D01*
X91732761Y-111427669D01*
X91624669Y-111535761D01*
X91497577Y-111620681D01*
X91497574Y-111620683D01*
X91356351Y-111679179D01*
X91356350Y-111679179D01*
X91356348Y-111679180D01*
X91206431Y-111709000D01*
X91053569Y-111709000D01*
X90903652Y-111679180D01*
X90903650Y-111679179D01*
X90903649Y-111679179D01*
X90762426Y-111620683D01*
X90762423Y-111620681D01*
X90635331Y-111535761D01*
X90527239Y-111427669D01*
X90442319Y-111300577D01*
X90442317Y-111300574D01*
X90383821Y-111159351D01*
X90354000Y-111009429D01*
X90354000Y-110856571D01*
X90383821Y-110706649D01*
X90442317Y-110565426D01*
X90442319Y-110565423D01*
X90527239Y-110438331D01*
X90635331Y-110330239D01*
X90762423Y-110245319D01*
X90762426Y-110245317D01*
X90903649Y-110186821D01*
X90903650Y-110186821D01*
X90903652Y-110186820D01*
X91053569Y-110157000D01*
X91206431Y-110157000D01*
X91356348Y-110186820D01*
X91356348Y-110186820D01*
G37*
G36*
X79516348Y-110186820D02*
G01*
X79516350Y-110186821D01*
X79516351Y-110186821D01*
X79657574Y-110245317D01*
X79657577Y-110245319D01*
X79784669Y-110330239D01*
X79892761Y-110438331D01*
X79977681Y-110565423D01*
X79977683Y-110565426D01*
X80036179Y-110706649D01*
X80066000Y-110856571D01*
X80066000Y-111009429D01*
X80036179Y-111159351D01*
X79977683Y-111300574D01*
X79977681Y-111300577D01*
X79892761Y-111427669D01*
X79784669Y-111535761D01*
X79657577Y-111620681D01*
X79657574Y-111620683D01*
X79516351Y-111679179D01*
X79516350Y-111679179D01*
X79516348Y-111679180D01*
X79366431Y-111709000D01*
X79213569Y-111709000D01*
X79063652Y-111679180D01*
X79063650Y-111679179D01*
X79063649Y-111679179D01*
X78922426Y-111620683D01*
X78922423Y-111620681D01*
X78795331Y-111535761D01*
X78687239Y-111427669D01*
X78602319Y-111300577D01*
X78602317Y-111300574D01*
X78543821Y-111159351D01*
X78514000Y-111009429D01*
X78514000Y-110856571D01*
X78543821Y-110706649D01*
X78602317Y-110565426D01*
X78602319Y-110565423D01*
X78687239Y-110438331D01*
X78795331Y-110330239D01*
X78922423Y-110245319D01*
X78922426Y-110245317D01*
X79063649Y-110186821D01*
X79063650Y-110186821D01*
X79063652Y-110186820D01*
X79213569Y-110157000D01*
X79366431Y-110157000D01*
X79516348Y-110186820D01*
X79516348Y-110186820D01*
G37*
G36*
X108640348Y-110186820D02*
G01*
X108640350Y-110186821D01*
X108640351Y-110186821D01*
X108781574Y-110245317D01*
X108781577Y-110245319D01*
X108908669Y-110330239D01*
X109016761Y-110438331D01*
X109101681Y-110565423D01*
X109101683Y-110565426D01*
X109160179Y-110706649D01*
X109190000Y-110856571D01*
X109190000Y-111009429D01*
X109160179Y-111159351D01*
X109101683Y-111300574D01*
X109101681Y-111300577D01*
X109016761Y-111427669D01*
X108908669Y-111535761D01*
X108781577Y-111620681D01*
X108781574Y-111620683D01*
X108640351Y-111679179D01*
X108640350Y-111679179D01*
X108640348Y-111679180D01*
X108490431Y-111709000D01*
X108337569Y-111709000D01*
X108187652Y-111679180D01*
X108187650Y-111679179D01*
X108187649Y-111679179D01*
X108046426Y-111620683D01*
X108046423Y-111620681D01*
X107919331Y-111535761D01*
X107811239Y-111427669D01*
X107726319Y-111300577D01*
X107726317Y-111300574D01*
X107667821Y-111159351D01*
X107638000Y-111009429D01*
X107638000Y-110856571D01*
X107667821Y-110706649D01*
X107726317Y-110565426D01*
X107726319Y-110565423D01*
X107811239Y-110438331D01*
X107919331Y-110330239D01*
X108046423Y-110245319D01*
X108046426Y-110245317D01*
X108187649Y-110186821D01*
X108187650Y-110186821D01*
X108187652Y-110186820D01*
X108337569Y-110157000D01*
X108490431Y-110157000D01*
X108640348Y-110186820D01*
X108640348Y-110186820D01*
G37*
G36*
X96800348Y-110186820D02*
G01*
X96800350Y-110186821D01*
X96800351Y-110186821D01*
X96941574Y-110245317D01*
X96941577Y-110245319D01*
X97068669Y-110330239D01*
X97176761Y-110438331D01*
X97261681Y-110565423D01*
X97261683Y-110565426D01*
X97320179Y-110706649D01*
X97350000Y-110856571D01*
X97350000Y-111009429D01*
X97320179Y-111159351D01*
X97261683Y-111300574D01*
X97261681Y-111300577D01*
X97176761Y-111427669D01*
X97068669Y-111535761D01*
X96941577Y-111620681D01*
X96941574Y-111620683D01*
X96800351Y-111679179D01*
X96800350Y-111679179D01*
X96800348Y-111679180D01*
X96650431Y-111709000D01*
X96497569Y-111709000D01*
X96347652Y-111679180D01*
X96347650Y-111679179D01*
X96347649Y-111679179D01*
X96206426Y-111620683D01*
X96206423Y-111620681D01*
X96079331Y-111535761D01*
X95971239Y-111427669D01*
X95886319Y-111300577D01*
X95886317Y-111300574D01*
X95827821Y-111159351D01*
X95798000Y-111009429D01*
X95798000Y-110856571D01*
X95827821Y-110706649D01*
X95886317Y-110565426D01*
X95886319Y-110565423D01*
X95971239Y-110438331D01*
X96079331Y-110330239D01*
X96206423Y-110245319D01*
X96206426Y-110245317D01*
X96347649Y-110186821D01*
X96347650Y-110186821D01*
X96347652Y-110186820D01*
X96497569Y-110157000D01*
X96650431Y-110157000D01*
X96800348Y-110186820D01*
X96800348Y-110186820D01*
G37*
G36*
X78063228Y-108114703D02*
G01*
X78218100Y-108178853D01*
X78357481Y-108271985D01*
X78476015Y-108390519D01*
X78569147Y-108529900D01*
X78633297Y-108684772D01*
X78666000Y-108849184D01*
X78666000Y-109016816D01*
X78633297Y-109181228D01*
X78569147Y-109336100D01*
X78476015Y-109475481D01*
X78357481Y-109594015D01*
X78218100Y-109687147D01*
X78063228Y-109751297D01*
X77898816Y-109784000D01*
X77731184Y-109784000D01*
X77566772Y-109751297D01*
X77411900Y-109687147D01*
X77272519Y-109594015D01*
X77153985Y-109475481D01*
X77060853Y-109336100D01*
X76996703Y-109181228D01*
X76964000Y-109016816D01*
X76964000Y-108849184D01*
X76996703Y-108684772D01*
X77060853Y-108529900D01*
X77153985Y-108390519D01*
X77272519Y-108271985D01*
X77411900Y-108178853D01*
X77566772Y-108114703D01*
X77731184Y-108082000D01*
X77898816Y-108082000D01*
X78063228Y-108114703D01*
X78063228Y-108114703D01*
G37*
G36*
X92853228Y-108114703D02*
G01*
X93008100Y-108178853D01*
X93147481Y-108271985D01*
X93266015Y-108390519D01*
X93359147Y-108529900D01*
X93423297Y-108684772D01*
X93456000Y-108849184D01*
X93456000Y-109016816D01*
X93423297Y-109181228D01*
X93359147Y-109336100D01*
X93266015Y-109475481D01*
X93147481Y-109594015D01*
X93008100Y-109687147D01*
X92853228Y-109751297D01*
X92688816Y-109784000D01*
X92521184Y-109784000D01*
X92356772Y-109751297D01*
X92201900Y-109687147D01*
X92062519Y-109594015D01*
X91943985Y-109475481D01*
X91850853Y-109336100D01*
X91786703Y-109181228D01*
X91754000Y-109016816D01*
X91754000Y-108849184D01*
X91786703Y-108684772D01*
X91850853Y-108529900D01*
X91943985Y-108390519D01*
X92062519Y-108271985D01*
X92201900Y-108178853D01*
X92356772Y-108114703D01*
X92521184Y-108082000D01*
X92688816Y-108082000D01*
X92853228Y-108114703D01*
X92853228Y-108114703D01*
G37*
G36*
X110137228Y-108114703D02*
G01*
X110292100Y-108178853D01*
X110431481Y-108271985D01*
X110550015Y-108390519D01*
X110643147Y-108529900D01*
X110707297Y-108684772D01*
X110740000Y-108849184D01*
X110740000Y-109016816D01*
X110707297Y-109181228D01*
X110643147Y-109336100D01*
X110550015Y-109475481D01*
X110431481Y-109594015D01*
X110292100Y-109687147D01*
X110137228Y-109751297D01*
X109972816Y-109784000D01*
X109805184Y-109784000D01*
X109640772Y-109751297D01*
X109485900Y-109687147D01*
X109346519Y-109594015D01*
X109227985Y-109475481D01*
X109134853Y-109336100D01*
X109070703Y-109181228D01*
X109038000Y-109016816D01*
X109038000Y-108849184D01*
X109070703Y-108684772D01*
X109134853Y-108529900D01*
X109227985Y-108390519D01*
X109346519Y-108271985D01*
X109485900Y-108178853D01*
X109640772Y-108114703D01*
X109805184Y-108082000D01*
X109972816Y-108082000D01*
X110137228Y-108114703D01*
X110137228Y-108114703D01*
G37*
G36*
X95347228Y-108114703D02*
G01*
X95502100Y-108178853D01*
X95641481Y-108271985D01*
X95760015Y-108390519D01*
X95853147Y-108529900D01*
X95917297Y-108684772D01*
X95950000Y-108849184D01*
X95950000Y-109016816D01*
X95917297Y-109181228D01*
X95853147Y-109336100D01*
X95760015Y-109475481D01*
X95641481Y-109594015D01*
X95502100Y-109687147D01*
X95347228Y-109751297D01*
X95182816Y-109784000D01*
X95015184Y-109784000D01*
X94850772Y-109751297D01*
X94695900Y-109687147D01*
X94556519Y-109594015D01*
X94437985Y-109475481D01*
X94344853Y-109336100D01*
X94280703Y-109181228D01*
X94248000Y-109016816D01*
X94248000Y-108849184D01*
X94280703Y-108684772D01*
X94344853Y-108529900D01*
X94437985Y-108390519D01*
X94556519Y-108271985D01*
X94695900Y-108178853D01*
X94850772Y-108114703D01*
X95015184Y-108082000D01*
X95182816Y-108082000D01*
X95347228Y-108114703D01*
X95347228Y-108114703D01*
G37*
G36*
X90160000Y-103943000D02*
G01*
X80260000Y-103943000D01*
X80260000Y-101643000D01*
X90160000Y-101643000D01*
X90160000Y-103943000D01*
X90160000Y-103943000D01*
G37*
G36*
X107444000Y-103943000D02*
G01*
X97544000Y-103943000D01*
X97544000Y-101643000D01*
X107444000Y-101643000D01*
X107444000Y-103943000D01*
X107444000Y-103943000D01*
G37*
G36*
X95347228Y-101134703D02*
G01*
X95502100Y-101198853D01*
X95641481Y-101291985D01*
X95760015Y-101410519D01*
X95853147Y-101549900D01*
X95917297Y-101704772D01*
X95950000Y-101869184D01*
X95950000Y-102036816D01*
X95917297Y-102201228D01*
X95853147Y-102356100D01*
X95760015Y-102495481D01*
X95641481Y-102614015D01*
X95502100Y-102707147D01*
X95347228Y-102771297D01*
X95182816Y-102804000D01*
X95015184Y-102804000D01*
X94850772Y-102771297D01*
X94695900Y-102707147D01*
X94556519Y-102614015D01*
X94437985Y-102495481D01*
X94344853Y-102356100D01*
X94280703Y-102201228D01*
X94248000Y-102036816D01*
X94248000Y-101869184D01*
X94280703Y-101704772D01*
X94344853Y-101549900D01*
X94437985Y-101410519D01*
X94556519Y-101291985D01*
X94695900Y-101198853D01*
X94850772Y-101134703D01*
X95015184Y-101102000D01*
X95182816Y-101102000D01*
X95347228Y-101134703D01*
X95347228Y-101134703D01*
G37*
G36*
X78063228Y-101134703D02*
G01*
X78218100Y-101198853D01*
X78357481Y-101291985D01*
X78476015Y-101410519D01*
X78569147Y-101549900D01*
X78633297Y-101704772D01*
X78666000Y-101869184D01*
X78666000Y-102036816D01*
X78633297Y-102201228D01*
X78569147Y-102356100D01*
X78476015Y-102495481D01*
X78357481Y-102614015D01*
X78218100Y-102707147D01*
X78063228Y-102771297D01*
X77898816Y-102804000D01*
X77731184Y-102804000D01*
X77566772Y-102771297D01*
X77411900Y-102707147D01*
X77272519Y-102614015D01*
X77153985Y-102495481D01*
X77060853Y-102356100D01*
X76996703Y-102201228D01*
X76964000Y-102036816D01*
X76964000Y-101869184D01*
X76996703Y-101704772D01*
X77060853Y-101549900D01*
X77153985Y-101410519D01*
X77272519Y-101291985D01*
X77411900Y-101198853D01*
X77566772Y-101134703D01*
X77731184Y-101102000D01*
X77898816Y-101102000D01*
X78063228Y-101134703D01*
X78063228Y-101134703D01*
G37*
G36*
X110137228Y-101134703D02*
G01*
X110292100Y-101198853D01*
X110431481Y-101291985D01*
X110550015Y-101410519D01*
X110643147Y-101549900D01*
X110707297Y-101704772D01*
X110740000Y-101869184D01*
X110740000Y-102036816D01*
X110707297Y-102201228D01*
X110643147Y-102356100D01*
X110550015Y-102495481D01*
X110431481Y-102614015D01*
X110292100Y-102707147D01*
X110137228Y-102771297D01*
X109972816Y-102804000D01*
X109805184Y-102804000D01*
X109640772Y-102771297D01*
X109485900Y-102707147D01*
X109346519Y-102614015D01*
X109227985Y-102495481D01*
X109134853Y-102356100D01*
X109070703Y-102201228D01*
X109038000Y-102036816D01*
X109038000Y-101869184D01*
X109070703Y-101704772D01*
X109134853Y-101549900D01*
X109227985Y-101410519D01*
X109346519Y-101291985D01*
X109485900Y-101198853D01*
X109640772Y-101134703D01*
X109805184Y-101102000D01*
X109972816Y-101102000D01*
X110137228Y-101134703D01*
X110137228Y-101134703D01*
G37*
G36*
X92853228Y-101134703D02*
G01*
X93008100Y-101198853D01*
X93147481Y-101291985D01*
X93266015Y-101410519D01*
X93359147Y-101549900D01*
X93423297Y-101704772D01*
X93456000Y-101869184D01*
X93456000Y-102036816D01*
X93423297Y-102201228D01*
X93359147Y-102356100D01*
X93266015Y-102495481D01*
X93147481Y-102614015D01*
X93008100Y-102707147D01*
X92853228Y-102771297D01*
X92688816Y-102804000D01*
X92521184Y-102804000D01*
X92356772Y-102771297D01*
X92201900Y-102707147D01*
X92062519Y-102614015D01*
X91943985Y-102495481D01*
X91850853Y-102356100D01*
X91786703Y-102201228D01*
X91754000Y-102036816D01*
X91754000Y-101869184D01*
X91786703Y-101704772D01*
X91850853Y-101549900D01*
X91943985Y-101410519D01*
X92062519Y-101291985D01*
X92201900Y-101198853D01*
X92356772Y-101134703D01*
X92521184Y-101102000D01*
X92688816Y-101102000D01*
X92853228Y-101134703D01*
X92853228Y-101134703D01*
G37*
G36*
X108640348Y-99206820D02*
G01*
X108640350Y-99206821D01*
X108640351Y-99206821D01*
X108781574Y-99265317D01*
X108781577Y-99265319D01*
X108908669Y-99350239D01*
X109016761Y-99458331D01*
X109101681Y-99585423D01*
X109101683Y-99585426D01*
X109152468Y-99708033D01*
X109160180Y-99726652D01*
X109188295Y-99867999D01*
X109190000Y-99876571D01*
X109190000Y-100029429D01*
X109160179Y-100179351D01*
X109101683Y-100320574D01*
X109101681Y-100320577D01*
X109016761Y-100447669D01*
X108908669Y-100555761D01*
X108781577Y-100640681D01*
X108781574Y-100640683D01*
X108640351Y-100699179D01*
X108640350Y-100699179D01*
X108640348Y-100699180D01*
X108490431Y-100729000D01*
X108337569Y-100729000D01*
X108187652Y-100699180D01*
X108187650Y-100699179D01*
X108187649Y-100699179D01*
X108046426Y-100640683D01*
X108046423Y-100640681D01*
X107919331Y-100555761D01*
X107811239Y-100447669D01*
X107726319Y-100320577D01*
X107726317Y-100320574D01*
X107667821Y-100179351D01*
X107638000Y-100029429D01*
X107638000Y-99867999D01*
X107635598Y-99843613D01*
X107628485Y-99820164D01*
X107616934Y-99798553D01*
X107601389Y-99779611D01*
X107582447Y-99764066D01*
X107579596Y-99762542D01*
X107593385Y-99761184D01*
X107616834Y-99754071D01*
X107638445Y-99742520D01*
X107657387Y-99726975D01*
X107672932Y-99708033D01*
X107684483Y-99686423D01*
X107694197Y-99662972D01*
X107726317Y-99585426D01*
X107726319Y-99585423D01*
X107811239Y-99458331D01*
X107919331Y-99350239D01*
X108046423Y-99265319D01*
X108046426Y-99265317D01*
X108187649Y-99206821D01*
X108187650Y-99206821D01*
X108187652Y-99206820D01*
X108337569Y-99177000D01*
X108490431Y-99177000D01*
X108640348Y-99206820D01*
X108640348Y-99206820D01*
G37*
G36*
X96800348Y-99206820D02*
G01*
X96800350Y-99206821D01*
X96800351Y-99206821D01*
X96941574Y-99265317D01*
X96941577Y-99265319D01*
X97068669Y-99350239D01*
X97176761Y-99458331D01*
X97261681Y-99585423D01*
X97261683Y-99585426D01*
X97293803Y-99662972D01*
X97303517Y-99686423D01*
X97315069Y-99708033D01*
X97330614Y-99726975D01*
X97349556Y-99742520D01*
X97371167Y-99754071D01*
X97394616Y-99761184D01*
X97408404Y-99762542D01*
X97405553Y-99764066D01*
X97386611Y-99779611D01*
X97371066Y-99798553D01*
X97359515Y-99820164D01*
X97352402Y-99843613D01*
X97350000Y-99867999D01*
X97350000Y-100029429D01*
X97320179Y-100179351D01*
X97261683Y-100320574D01*
X97261681Y-100320577D01*
X97176761Y-100447669D01*
X97068669Y-100555761D01*
X96941577Y-100640681D01*
X96941574Y-100640683D01*
X96800351Y-100699179D01*
X96800350Y-100699179D01*
X96800348Y-100699180D01*
X96650431Y-100729000D01*
X96497569Y-100729000D01*
X96347652Y-100699180D01*
X96347650Y-100699179D01*
X96347649Y-100699179D01*
X96206426Y-100640683D01*
X96206423Y-100640681D01*
X96079331Y-100555761D01*
X95971239Y-100447669D01*
X95886319Y-100320577D01*
X95886317Y-100320574D01*
X95827821Y-100179351D01*
X95798000Y-100029429D01*
X95798000Y-99876571D01*
X95799705Y-99867999D01*
X95827820Y-99726652D01*
X95835532Y-99708033D01*
X95886317Y-99585426D01*
X95886319Y-99585423D01*
X95971239Y-99458331D01*
X96079331Y-99350239D01*
X96206423Y-99265319D01*
X96206426Y-99265317D01*
X96347649Y-99206821D01*
X96347650Y-99206821D01*
X96347652Y-99206820D01*
X96497569Y-99177000D01*
X96650431Y-99177000D01*
X96800348Y-99206820D01*
X96800348Y-99206820D01*
G37*
G36*
X91356348Y-99206820D02*
G01*
X91356350Y-99206821D01*
X91356351Y-99206821D01*
X91497574Y-99265317D01*
X91497577Y-99265319D01*
X91624669Y-99350239D01*
X91732761Y-99458331D01*
X91817681Y-99585423D01*
X91817683Y-99585426D01*
X91868468Y-99708033D01*
X91876180Y-99726652D01*
X91904295Y-99867999D01*
X91906000Y-99876571D01*
X91906000Y-100029429D01*
X91876179Y-100179351D01*
X91817683Y-100320574D01*
X91817681Y-100320577D01*
X91732761Y-100447669D01*
X91624669Y-100555761D01*
X91497577Y-100640681D01*
X91497574Y-100640683D01*
X91356351Y-100699179D01*
X91356350Y-100699179D01*
X91356348Y-100699180D01*
X91206431Y-100729000D01*
X91053569Y-100729000D01*
X90903652Y-100699180D01*
X90903650Y-100699179D01*
X90903649Y-100699179D01*
X90762426Y-100640683D01*
X90762423Y-100640681D01*
X90635331Y-100555761D01*
X90527239Y-100447669D01*
X90442319Y-100320577D01*
X90442317Y-100320574D01*
X90383821Y-100179351D01*
X90354000Y-100029429D01*
X90354000Y-99867999D01*
X90351598Y-99843613D01*
X90344485Y-99820164D01*
X90332934Y-99798553D01*
X90317389Y-99779611D01*
X90298447Y-99764066D01*
X90295596Y-99762542D01*
X90309385Y-99761184D01*
X90332834Y-99754071D01*
X90354445Y-99742520D01*
X90373387Y-99726975D01*
X90388932Y-99708033D01*
X90400483Y-99686423D01*
X90410197Y-99662972D01*
X90442317Y-99585426D01*
X90442319Y-99585423D01*
X90527239Y-99458331D01*
X90635331Y-99350239D01*
X90762423Y-99265319D01*
X90762426Y-99265317D01*
X90903649Y-99206821D01*
X90903650Y-99206821D01*
X90903652Y-99206820D01*
X91053569Y-99177000D01*
X91206431Y-99177000D01*
X91356348Y-99206820D01*
X91356348Y-99206820D01*
G37*
G36*
X79516348Y-99206820D02*
G01*
X79516350Y-99206821D01*
X79516351Y-99206821D01*
X79657574Y-99265317D01*
X79657577Y-99265319D01*
X79784669Y-99350239D01*
X79892761Y-99458331D01*
X79977681Y-99585423D01*
X79977683Y-99585426D01*
X80009803Y-99662972D01*
X80019517Y-99686423D01*
X80031069Y-99708033D01*
X80046614Y-99726975D01*
X80065556Y-99742520D01*
X80087167Y-99754071D01*
X80110616Y-99761184D01*
X80124404Y-99762542D01*
X80121553Y-99764066D01*
X80102611Y-99779611D01*
X80087066Y-99798553D01*
X80075515Y-99820164D01*
X80068402Y-99843613D01*
X80066000Y-99867999D01*
X80066000Y-100029429D01*
X80036179Y-100179351D01*
X79977683Y-100320574D01*
X79977681Y-100320577D01*
X79892761Y-100447669D01*
X79784669Y-100555761D01*
X79657577Y-100640681D01*
X79657574Y-100640683D01*
X79516351Y-100699179D01*
X79516350Y-100699179D01*
X79516348Y-100699180D01*
X79366431Y-100729000D01*
X79213569Y-100729000D01*
X79063652Y-100699180D01*
X79063650Y-100699179D01*
X79063649Y-100699179D01*
X78922426Y-100640683D01*
X78922423Y-100640681D01*
X78795331Y-100555761D01*
X78687239Y-100447669D01*
X78602319Y-100320577D01*
X78602317Y-100320574D01*
X78543821Y-100179351D01*
X78514000Y-100029429D01*
X78514000Y-99876571D01*
X78515705Y-99867999D01*
X78543820Y-99726652D01*
X78551532Y-99708033D01*
X78602317Y-99585426D01*
X78602319Y-99585423D01*
X78687239Y-99458331D01*
X78795331Y-99350239D01*
X78922423Y-99265319D01*
X78922426Y-99265317D01*
X79063649Y-99206821D01*
X79063650Y-99206821D01*
X79063652Y-99206820D01*
X79213569Y-99177000D01*
X79366431Y-99177000D01*
X79516348Y-99206820D01*
X79516348Y-99206820D01*
G37*
G36*
X90160000Y-99638587D02*
G01*
X90162402Y-99662973D01*
X90169515Y-99686422D01*
X90181066Y-99708033D01*
X90196611Y-99726975D01*
X90215553Y-99742520D01*
X90216451Y-99743000D01*
X80203547Y-99743000D01*
X80204447Y-99742519D01*
X80223389Y-99726974D01*
X80238934Y-99708032D01*
X80250485Y-99686421D01*
X80257598Y-99662972D01*
X80260000Y-99638587D01*
X80260000Y-97443000D01*
X90160000Y-97443000D01*
X90160000Y-99638587D01*
X90160000Y-99638587D01*
G37*
G36*
X107444000Y-99638587D02*
G01*
X107446402Y-99662973D01*
X107453515Y-99686422D01*
X107465066Y-99708033D01*
X107480611Y-99726975D01*
X107499553Y-99742520D01*
X107500451Y-99743000D01*
X97487547Y-99743000D01*
X97488447Y-99742519D01*
X97507389Y-99726974D01*
X97522934Y-99708032D01*
X97534485Y-99686421D01*
X97541598Y-99662972D01*
X97544000Y-99638587D01*
X97544000Y-97443000D01*
X107444000Y-97443000D01*
X107444000Y-99638587D01*
X107444000Y-99638587D01*
G37*
G36*
X91356348Y-93800820D02*
G01*
X91356350Y-93800821D01*
X91356351Y-93800821D01*
X91497574Y-93859317D01*
X91497577Y-93859319D01*
X91624669Y-93944239D01*
X91732761Y-94052331D01*
X91817681Y-94179423D01*
X91817683Y-94179426D01*
X91876179Y-94320649D01*
X91906000Y-94470571D01*
X91906000Y-94623429D01*
X91876179Y-94773351D01*
X91817683Y-94914574D01*
X91817681Y-94914577D01*
X91732761Y-95041669D01*
X91624669Y-95149761D01*
X91497577Y-95234681D01*
X91497574Y-95234683D01*
X91356351Y-95293179D01*
X91356350Y-95293179D01*
X91356348Y-95293180D01*
X91206431Y-95323000D01*
X91053569Y-95323000D01*
X90903652Y-95293180D01*
X90903650Y-95293179D01*
X90903649Y-95293179D01*
X90762426Y-95234683D01*
X90762423Y-95234681D01*
X90635331Y-95149761D01*
X90527239Y-95041669D01*
X90442319Y-94914577D01*
X90442317Y-94914574D01*
X90383821Y-94773351D01*
X90354000Y-94623429D01*
X90354000Y-94470571D01*
X90383821Y-94320649D01*
X90442317Y-94179426D01*
X90442319Y-94179423D01*
X90527239Y-94052331D01*
X90635331Y-93944239D01*
X90762423Y-93859319D01*
X90762426Y-93859317D01*
X90903649Y-93800821D01*
X90903650Y-93800821D01*
X90903652Y-93800820D01*
X91053569Y-93771000D01*
X91206431Y-93771000D01*
X91356348Y-93800820D01*
X91356348Y-93800820D01*
G37*
G36*
X96800348Y-93800820D02*
G01*
X96800350Y-93800821D01*
X96800351Y-93800821D01*
X96941574Y-93859317D01*
X96941577Y-93859319D01*
X97068669Y-93944239D01*
X97176761Y-94052331D01*
X97261681Y-94179423D01*
X97261683Y-94179426D01*
X97320179Y-94320649D01*
X97350000Y-94470571D01*
X97350000Y-94623429D01*
X97320179Y-94773351D01*
X97261683Y-94914574D01*
X97261681Y-94914577D01*
X97176761Y-95041669D01*
X97068669Y-95149761D01*
X96941577Y-95234681D01*
X96941574Y-95234683D01*
X96800351Y-95293179D01*
X96800350Y-95293179D01*
X96800348Y-95293180D01*
X96650431Y-95323000D01*
X96497569Y-95323000D01*
X96347652Y-95293180D01*
X96347650Y-95293179D01*
X96347649Y-95293179D01*
X96206426Y-95234683D01*
X96206423Y-95234681D01*
X96079331Y-95149761D01*
X95971239Y-95041669D01*
X95886319Y-94914577D01*
X95886317Y-94914574D01*
X95827821Y-94773351D01*
X95798000Y-94623429D01*
X95798000Y-94470571D01*
X95827821Y-94320649D01*
X95886317Y-94179426D01*
X95886319Y-94179423D01*
X95971239Y-94052331D01*
X96079331Y-93944239D01*
X96206423Y-93859319D01*
X96206426Y-93859317D01*
X96347649Y-93800821D01*
X96347650Y-93800821D01*
X96347652Y-93800820D01*
X96497569Y-93771000D01*
X96650431Y-93771000D01*
X96800348Y-93800820D01*
X96800348Y-93800820D01*
G37*
G36*
X108640348Y-93800820D02*
G01*
X108640350Y-93800821D01*
X108640351Y-93800821D01*
X108781574Y-93859317D01*
X108781577Y-93859319D01*
X108908669Y-93944239D01*
X109016761Y-94052331D01*
X109101681Y-94179423D01*
X109101683Y-94179426D01*
X109160179Y-94320649D01*
X109190000Y-94470571D01*
X109190000Y-94623429D01*
X109160179Y-94773351D01*
X109101683Y-94914574D01*
X109101681Y-94914577D01*
X109016761Y-95041669D01*
X108908669Y-95149761D01*
X108781577Y-95234681D01*
X108781574Y-95234683D01*
X108640351Y-95293179D01*
X108640350Y-95293179D01*
X108640348Y-95293180D01*
X108490431Y-95323000D01*
X108337569Y-95323000D01*
X108187652Y-95293180D01*
X108187650Y-95293179D01*
X108187649Y-95293179D01*
X108046426Y-95234683D01*
X108046423Y-95234681D01*
X107919331Y-95149761D01*
X107811239Y-95041669D01*
X107726319Y-94914577D01*
X107726317Y-94914574D01*
X107667821Y-94773351D01*
X107638000Y-94623429D01*
X107638000Y-94470571D01*
X107667821Y-94320649D01*
X107726317Y-94179426D01*
X107726319Y-94179423D01*
X107811239Y-94052331D01*
X107919331Y-93944239D01*
X108046423Y-93859319D01*
X108046426Y-93859317D01*
X108187649Y-93800821D01*
X108187650Y-93800821D01*
X108187652Y-93800820D01*
X108337569Y-93771000D01*
X108490431Y-93771000D01*
X108640348Y-93800820D01*
X108640348Y-93800820D01*
G37*
G36*
X79516348Y-93800820D02*
G01*
X79516350Y-93800821D01*
X79516351Y-93800821D01*
X79657574Y-93859317D01*
X79657577Y-93859319D01*
X79784669Y-93944239D01*
X79892761Y-94052331D01*
X79977681Y-94179423D01*
X79977683Y-94179426D01*
X80036179Y-94320649D01*
X80066000Y-94470571D01*
X80066000Y-94623429D01*
X80036179Y-94773351D01*
X79977683Y-94914574D01*
X79977681Y-94914577D01*
X79892761Y-95041669D01*
X79784669Y-95149761D01*
X79657577Y-95234681D01*
X79657574Y-95234683D01*
X79516351Y-95293179D01*
X79516350Y-95293179D01*
X79516348Y-95293180D01*
X79366431Y-95323000D01*
X79213569Y-95323000D01*
X79063652Y-95293180D01*
X79063650Y-95293179D01*
X79063649Y-95293179D01*
X78922426Y-95234683D01*
X78922423Y-95234681D01*
X78795331Y-95149761D01*
X78687239Y-95041669D01*
X78602319Y-94914577D01*
X78602317Y-94914574D01*
X78543821Y-94773351D01*
X78514000Y-94623429D01*
X78514000Y-94470571D01*
X78543821Y-94320649D01*
X78602317Y-94179426D01*
X78602319Y-94179423D01*
X78687239Y-94052331D01*
X78795331Y-93944239D01*
X78922423Y-93859319D01*
X78922426Y-93859317D01*
X79063649Y-93800821D01*
X79063650Y-93800821D01*
X79063652Y-93800820D01*
X79213569Y-93771000D01*
X79366431Y-93771000D01*
X79516348Y-93800820D01*
X79516348Y-93800820D01*
G37*
G36*
X110137228Y-91728703D02*
G01*
X110292100Y-91792853D01*
X110431481Y-91885985D01*
X110550015Y-92004519D01*
X110643147Y-92143900D01*
X110707297Y-92298772D01*
X110740000Y-92463184D01*
X110740000Y-92630816D01*
X110707297Y-92795228D01*
X110643147Y-92950100D01*
X110550015Y-93089481D01*
X110431481Y-93208015D01*
X110292100Y-93301147D01*
X110137228Y-93365297D01*
X109972816Y-93398000D01*
X109805184Y-93398000D01*
X109640772Y-93365297D01*
X109485900Y-93301147D01*
X109346519Y-93208015D01*
X109227985Y-93089481D01*
X109134853Y-92950100D01*
X109070703Y-92795228D01*
X109038000Y-92630816D01*
X109038000Y-92463184D01*
X109070703Y-92298772D01*
X109134853Y-92143900D01*
X109227985Y-92004519D01*
X109346519Y-91885985D01*
X109485900Y-91792853D01*
X109640772Y-91728703D01*
X109805184Y-91696000D01*
X109972816Y-91696000D01*
X110137228Y-91728703D01*
X110137228Y-91728703D01*
G37*
G36*
X78063228Y-91728703D02*
G01*
X78218100Y-91792853D01*
X78357481Y-91885985D01*
X78476015Y-92004519D01*
X78569147Y-92143900D01*
X78633297Y-92298772D01*
X78666000Y-92463184D01*
X78666000Y-92630816D01*
X78633297Y-92795228D01*
X78569147Y-92950100D01*
X78476015Y-93089481D01*
X78357481Y-93208015D01*
X78218100Y-93301147D01*
X78063228Y-93365297D01*
X77898816Y-93398000D01*
X77731184Y-93398000D01*
X77566772Y-93365297D01*
X77411900Y-93301147D01*
X77272519Y-93208015D01*
X77153985Y-93089481D01*
X77060853Y-92950100D01*
X76996703Y-92795228D01*
X76964000Y-92630816D01*
X76964000Y-92463184D01*
X76996703Y-92298772D01*
X77060853Y-92143900D01*
X77153985Y-92004519D01*
X77272519Y-91885985D01*
X77411900Y-91792853D01*
X77566772Y-91728703D01*
X77731184Y-91696000D01*
X77898816Y-91696000D01*
X78063228Y-91728703D01*
X78063228Y-91728703D01*
G37*
G36*
X95347228Y-91728703D02*
G01*
X95502100Y-91792853D01*
X95641481Y-91885985D01*
X95760015Y-92004519D01*
X95853147Y-92143900D01*
X95917297Y-92298772D01*
X95950000Y-92463184D01*
X95950000Y-92630816D01*
X95917297Y-92795228D01*
X95853147Y-92950100D01*
X95760015Y-93089481D01*
X95641481Y-93208015D01*
X95502100Y-93301147D01*
X95347228Y-93365297D01*
X95182816Y-93398000D01*
X95015184Y-93398000D01*
X94850772Y-93365297D01*
X94695900Y-93301147D01*
X94556519Y-93208015D01*
X94437985Y-93089481D01*
X94344853Y-92950100D01*
X94280703Y-92795228D01*
X94248000Y-92630816D01*
X94248000Y-92463184D01*
X94280703Y-92298772D01*
X94344853Y-92143900D01*
X94437985Y-92004519D01*
X94556519Y-91885985D01*
X94695900Y-91792853D01*
X94850772Y-91728703D01*
X95015184Y-91696000D01*
X95182816Y-91696000D01*
X95347228Y-91728703D01*
X95347228Y-91728703D01*
G37*
G36*
X92853228Y-91728703D02*
G01*
X93008100Y-91792853D01*
X93147481Y-91885985D01*
X93266015Y-92004519D01*
X93359147Y-92143900D01*
X93423297Y-92298772D01*
X93456000Y-92463184D01*
X93456000Y-92630816D01*
X93423297Y-92795228D01*
X93359147Y-92950100D01*
X93266015Y-93089481D01*
X93147481Y-93208015D01*
X93008100Y-93301147D01*
X92853228Y-93365297D01*
X92688816Y-93398000D01*
X92521184Y-93398000D01*
X92356772Y-93365297D01*
X92201900Y-93301147D01*
X92062519Y-93208015D01*
X91943985Y-93089481D01*
X91850853Y-92950100D01*
X91786703Y-92795228D01*
X91754000Y-92630816D01*
X91754000Y-92463184D01*
X91786703Y-92298772D01*
X91850853Y-92143900D01*
X91943985Y-92004519D01*
X92062519Y-91885985D01*
X92201900Y-91792853D01*
X92356772Y-91728703D01*
X92521184Y-91696000D01*
X92688816Y-91696000D01*
X92853228Y-91728703D01*
X92853228Y-91728703D01*
G37*
G36*
X90160000Y-87557000D02*
G01*
X80260000Y-87557000D01*
X80260000Y-85257000D01*
X90160000Y-85257000D01*
X90160000Y-87557000D01*
X90160000Y-87557000D01*
G37*
G36*
X107444000Y-87557000D02*
G01*
X97544000Y-87557000D01*
X97544000Y-85257000D01*
X107444000Y-85257000D01*
X107444000Y-87557000D01*
X107444000Y-87557000D01*
G37*
G36*
X95347228Y-84748703D02*
G01*
X95502100Y-84812853D01*
X95641481Y-84905985D01*
X95760015Y-85024519D01*
X95853147Y-85163900D01*
X95917297Y-85318772D01*
X95950000Y-85483184D01*
X95950000Y-85650816D01*
X95917297Y-85815228D01*
X95853147Y-85970100D01*
X95760015Y-86109481D01*
X95641481Y-86228015D01*
X95502100Y-86321147D01*
X95347228Y-86385297D01*
X95182816Y-86418000D01*
X95015184Y-86418000D01*
X94850772Y-86385297D01*
X94695900Y-86321147D01*
X94556519Y-86228015D01*
X94437985Y-86109481D01*
X94344853Y-85970100D01*
X94280703Y-85815228D01*
X94248000Y-85650816D01*
X94248000Y-85483184D01*
X94280703Y-85318772D01*
X94344853Y-85163900D01*
X94437985Y-85024519D01*
X94556519Y-84905985D01*
X94695900Y-84812853D01*
X94850772Y-84748703D01*
X95015184Y-84716000D01*
X95182816Y-84716000D01*
X95347228Y-84748703D01*
X95347228Y-84748703D01*
G37*
G36*
X78063228Y-84748703D02*
G01*
X78218100Y-84812853D01*
X78357481Y-84905985D01*
X78476015Y-85024519D01*
X78569147Y-85163900D01*
X78633297Y-85318772D01*
X78666000Y-85483184D01*
X78666000Y-85650816D01*
X78633297Y-85815228D01*
X78569147Y-85970100D01*
X78476015Y-86109481D01*
X78357481Y-86228015D01*
X78218100Y-86321147D01*
X78063228Y-86385297D01*
X77898816Y-86418000D01*
X77731184Y-86418000D01*
X77566772Y-86385297D01*
X77411900Y-86321147D01*
X77272519Y-86228015D01*
X77153985Y-86109481D01*
X77060853Y-85970100D01*
X76996703Y-85815228D01*
X76964000Y-85650816D01*
X76964000Y-85483184D01*
X76996703Y-85318772D01*
X77060853Y-85163900D01*
X77153985Y-85024519D01*
X77272519Y-84905985D01*
X77411900Y-84812853D01*
X77566772Y-84748703D01*
X77731184Y-84716000D01*
X77898816Y-84716000D01*
X78063228Y-84748703D01*
X78063228Y-84748703D01*
G37*
G36*
X92853228Y-84748703D02*
G01*
X93008100Y-84812853D01*
X93147481Y-84905985D01*
X93266015Y-85024519D01*
X93359147Y-85163900D01*
X93423297Y-85318772D01*
X93456000Y-85483184D01*
X93456000Y-85650816D01*
X93423297Y-85815228D01*
X93359147Y-85970100D01*
X93266015Y-86109481D01*
X93147481Y-86228015D01*
X93008100Y-86321147D01*
X92853228Y-86385297D01*
X92688816Y-86418000D01*
X92521184Y-86418000D01*
X92356772Y-86385297D01*
X92201900Y-86321147D01*
X92062519Y-86228015D01*
X91943985Y-86109481D01*
X91850853Y-85970100D01*
X91786703Y-85815228D01*
X91754000Y-85650816D01*
X91754000Y-85483184D01*
X91786703Y-85318772D01*
X91850853Y-85163900D01*
X91943985Y-85024519D01*
X92062519Y-84905985D01*
X92201900Y-84812853D01*
X92356772Y-84748703D01*
X92521184Y-84716000D01*
X92688816Y-84716000D01*
X92853228Y-84748703D01*
X92853228Y-84748703D01*
G37*
G36*
X110137228Y-84748703D02*
G01*
X110292100Y-84812853D01*
X110431481Y-84905985D01*
X110550015Y-85024519D01*
X110643147Y-85163900D01*
X110707297Y-85318772D01*
X110740000Y-85483184D01*
X110740000Y-85650816D01*
X110707297Y-85815228D01*
X110643147Y-85970100D01*
X110550015Y-86109481D01*
X110431481Y-86228015D01*
X110292100Y-86321147D01*
X110137228Y-86385297D01*
X109972816Y-86418000D01*
X109805184Y-86418000D01*
X109640772Y-86385297D01*
X109485900Y-86321147D01*
X109346519Y-86228015D01*
X109227985Y-86109481D01*
X109134853Y-85970100D01*
X109070703Y-85815228D01*
X109038000Y-85650816D01*
X109038000Y-85483184D01*
X109070703Y-85318772D01*
X109134853Y-85163900D01*
X109227985Y-85024519D01*
X109346519Y-84905985D01*
X109485900Y-84812853D01*
X109640772Y-84748703D01*
X109805184Y-84716000D01*
X109972816Y-84716000D01*
X110137228Y-84748703D01*
X110137228Y-84748703D01*
G37*
G36*
X96800348Y-82820820D02*
G01*
X96800350Y-82820821D01*
X96800351Y-82820821D01*
X96941574Y-82879317D01*
X96941577Y-82879319D01*
X97068669Y-82964239D01*
X97176761Y-83072331D01*
X97261681Y-83199423D01*
X97261683Y-83199426D01*
X97293803Y-83276972D01*
X97303517Y-83300423D01*
X97315069Y-83322033D01*
X97330614Y-83340975D01*
X97349556Y-83356520D01*
X97371167Y-83368071D01*
X97394616Y-83375184D01*
X97408404Y-83376542D01*
X97405553Y-83378066D01*
X97386611Y-83393611D01*
X97371066Y-83412553D01*
X97359515Y-83434164D01*
X97352402Y-83457613D01*
X97350000Y-83481999D01*
X97350000Y-83643429D01*
X97320179Y-83793351D01*
X97261683Y-83934574D01*
X97261681Y-83934577D01*
X97176761Y-84061669D01*
X97068669Y-84169761D01*
X96941577Y-84254681D01*
X96941574Y-84254683D01*
X96800351Y-84313179D01*
X96800350Y-84313179D01*
X96800348Y-84313180D01*
X96650431Y-84343000D01*
X96497569Y-84343000D01*
X96347652Y-84313180D01*
X96347650Y-84313179D01*
X96347649Y-84313179D01*
X96206426Y-84254683D01*
X96206423Y-84254681D01*
X96079331Y-84169761D01*
X95971239Y-84061669D01*
X95886319Y-83934577D01*
X95886317Y-83934574D01*
X95827821Y-83793351D01*
X95798000Y-83643429D01*
X95798000Y-83490571D01*
X95799705Y-83481999D01*
X95827820Y-83340652D01*
X95835532Y-83322033D01*
X95886317Y-83199426D01*
X95886319Y-83199423D01*
X95971239Y-83072331D01*
X96079331Y-82964239D01*
X96206423Y-82879319D01*
X96206426Y-82879317D01*
X96347649Y-82820821D01*
X96347650Y-82820821D01*
X96347652Y-82820820D01*
X96497569Y-82791000D01*
X96650431Y-82791000D01*
X96800348Y-82820820D01*
X96800348Y-82820820D01*
G37*
G36*
X91356348Y-82820820D02*
G01*
X91356350Y-82820821D01*
X91356351Y-82820821D01*
X91497574Y-82879317D01*
X91497577Y-82879319D01*
X91624669Y-82964239D01*
X91732761Y-83072331D01*
X91817681Y-83199423D01*
X91817683Y-83199426D01*
X91868468Y-83322033D01*
X91876180Y-83340652D01*
X91904295Y-83481999D01*
X91906000Y-83490571D01*
X91906000Y-83643429D01*
X91876179Y-83793351D01*
X91817683Y-83934574D01*
X91817681Y-83934577D01*
X91732761Y-84061669D01*
X91624669Y-84169761D01*
X91497577Y-84254681D01*
X91497574Y-84254683D01*
X91356351Y-84313179D01*
X91356350Y-84313179D01*
X91356348Y-84313180D01*
X91206431Y-84343000D01*
X91053569Y-84343000D01*
X90903652Y-84313180D01*
X90903650Y-84313179D01*
X90903649Y-84313179D01*
X90762426Y-84254683D01*
X90762423Y-84254681D01*
X90635331Y-84169761D01*
X90527239Y-84061669D01*
X90442319Y-83934577D01*
X90442317Y-83934574D01*
X90383821Y-83793351D01*
X90354000Y-83643429D01*
X90354000Y-83481999D01*
X90351598Y-83457613D01*
X90344485Y-83434164D01*
X90332934Y-83412553D01*
X90317389Y-83393611D01*
X90298447Y-83378066D01*
X90295596Y-83376542D01*
X90309385Y-83375184D01*
X90332834Y-83368071D01*
X90354445Y-83356520D01*
X90373387Y-83340975D01*
X90388932Y-83322033D01*
X90400483Y-83300423D01*
X90410197Y-83276972D01*
X90442317Y-83199426D01*
X90442319Y-83199423D01*
X90527239Y-83072331D01*
X90635331Y-82964239D01*
X90762423Y-82879319D01*
X90762426Y-82879317D01*
X90903649Y-82820821D01*
X90903650Y-82820821D01*
X90903652Y-82820820D01*
X91053569Y-82791000D01*
X91206431Y-82791000D01*
X91356348Y-82820820D01*
X91356348Y-82820820D01*
G37*
G36*
X108640348Y-82820820D02*
G01*
X108640350Y-82820821D01*
X108640351Y-82820821D01*
X108781574Y-82879317D01*
X108781577Y-82879319D01*
X108908669Y-82964239D01*
X109016761Y-83072331D01*
X109101681Y-83199423D01*
X109101683Y-83199426D01*
X109152468Y-83322033D01*
X109160180Y-83340652D01*
X109188295Y-83481999D01*
X109190000Y-83490571D01*
X109190000Y-83643429D01*
X109160179Y-83793351D01*
X109101683Y-83934574D01*
X109101681Y-83934577D01*
X109016761Y-84061669D01*
X108908669Y-84169761D01*
X108781577Y-84254681D01*
X108781574Y-84254683D01*
X108640351Y-84313179D01*
X108640350Y-84313179D01*
X108640348Y-84313180D01*
X108490431Y-84343000D01*
X108337569Y-84343000D01*
X108187652Y-84313180D01*
X108187650Y-84313179D01*
X108187649Y-84313179D01*
X108046426Y-84254683D01*
X108046423Y-84254681D01*
X107919331Y-84169761D01*
X107811239Y-84061669D01*
X107726319Y-83934577D01*
X107726317Y-83934574D01*
X107667821Y-83793351D01*
X107638000Y-83643429D01*
X107638000Y-83481999D01*
X107635598Y-83457613D01*
X107628485Y-83434164D01*
X107616934Y-83412553D01*
X107601389Y-83393611D01*
X107582447Y-83378066D01*
X107579596Y-83376542D01*
X107593385Y-83375184D01*
X107616834Y-83368071D01*
X107638445Y-83356520D01*
X107657387Y-83340975D01*
X107672932Y-83322033D01*
X107684483Y-83300423D01*
X107694197Y-83276972D01*
X107726317Y-83199426D01*
X107726319Y-83199423D01*
X107811239Y-83072331D01*
X107919331Y-82964239D01*
X108046423Y-82879319D01*
X108046426Y-82879317D01*
X108187649Y-82820821D01*
X108187650Y-82820821D01*
X108187652Y-82820820D01*
X108337569Y-82791000D01*
X108490431Y-82791000D01*
X108640348Y-82820820D01*
X108640348Y-82820820D01*
G37*
G36*
X79516348Y-82820820D02*
G01*
X79516350Y-82820821D01*
X79516351Y-82820821D01*
X79657574Y-82879317D01*
X79657577Y-82879319D01*
X79784669Y-82964239D01*
X79892761Y-83072331D01*
X79977681Y-83199423D01*
X79977683Y-83199426D01*
X80009803Y-83276972D01*
X80019517Y-83300423D01*
X80031069Y-83322033D01*
X80046614Y-83340975D01*
X80065556Y-83356520D01*
X80087167Y-83368071D01*
X80110616Y-83375184D01*
X80124404Y-83376542D01*
X80121553Y-83378066D01*
X80102611Y-83393611D01*
X80087066Y-83412553D01*
X80075515Y-83434164D01*
X80068402Y-83457613D01*
X80066000Y-83481999D01*
X80066000Y-83643429D01*
X80036179Y-83793351D01*
X79977683Y-83934574D01*
X79977681Y-83934577D01*
X79892761Y-84061669D01*
X79784669Y-84169761D01*
X79657577Y-84254681D01*
X79657574Y-84254683D01*
X79516351Y-84313179D01*
X79516350Y-84313179D01*
X79516348Y-84313180D01*
X79366431Y-84343000D01*
X79213569Y-84343000D01*
X79063652Y-84313180D01*
X79063650Y-84313179D01*
X79063649Y-84313179D01*
X78922426Y-84254683D01*
X78922423Y-84254681D01*
X78795331Y-84169761D01*
X78687239Y-84061669D01*
X78602319Y-83934577D01*
X78602317Y-83934574D01*
X78543821Y-83793351D01*
X78514000Y-83643429D01*
X78514000Y-83490571D01*
X78515705Y-83481999D01*
X78543820Y-83340652D01*
X78551532Y-83322033D01*
X78602317Y-83199426D01*
X78602319Y-83199423D01*
X78687239Y-83072331D01*
X78795331Y-82964239D01*
X78922423Y-82879319D01*
X78922426Y-82879317D01*
X79063649Y-82820821D01*
X79063650Y-82820821D01*
X79063652Y-82820820D01*
X79213569Y-82791000D01*
X79366431Y-82791000D01*
X79516348Y-82820820D01*
X79516348Y-82820820D01*
G37*
G36*
X107444000Y-83252587D02*
G01*
X107446402Y-83276973D01*
X107453515Y-83300422D01*
X107465066Y-83322033D01*
X107480611Y-83340975D01*
X107499553Y-83356520D01*
X107500451Y-83357000D01*
X97487547Y-83357000D01*
X97488447Y-83356519D01*
X97507389Y-83340974D01*
X97522934Y-83322032D01*
X97534485Y-83300421D01*
X97541598Y-83276972D01*
X97544000Y-83252587D01*
X97544000Y-81057000D01*
X107444000Y-81057000D01*
X107444000Y-83252587D01*
X107444000Y-83252587D01*
G37*
G36*
X90160000Y-83252587D02*
G01*
X90162402Y-83276973D01*
X90169515Y-83300422D01*
X90181066Y-83322033D01*
X90196611Y-83340975D01*
X90215553Y-83356520D01*
X90216451Y-83357000D01*
X80203547Y-83357000D01*
X80204447Y-83356519D01*
X80223389Y-83340974D01*
X80238934Y-83322032D01*
X80250485Y-83300421D01*
X80257598Y-83276972D01*
X80260000Y-83252587D01*
X80260000Y-81057000D01*
X90160000Y-81057000D01*
X90160000Y-83252587D01*
X90160000Y-83252587D01*
G37*
M02*
