G04 #@! TF.GenerationSoftware,KiCad,Pcbnew,(5.1.0)-1*
G04 #@! TF.CreationDate,2019-11-25T13:15:00-07:00*
G04 #@! TF.ProjectId,Gateway03,47617465-7761-4793-9033-2e6b69636164,rev?*
G04 #@! TF.SameCoordinates,Original*
G04 #@! TF.FileFunction,Legend,Top*
G04 #@! TF.FilePolarity,Positive*
%FSLAX46Y46*%
G04 Gerber Fmt 4.6, Leading zero omitted, Abs format (unit mm)*
G04 Created by KiCad (PCBNEW (5.1.0)-1) date 2019-11-25 13:15:00*
%MOMM*%
%LPD*%
G04 APERTURE LIST*
%ADD10C,0.120000*%
%ADD11C,0.150000*%
%ADD12C,0.225000*%
%ADD13C,0.300000*%
G04 APERTURE END LIST*
D10*
X79464400Y-104793000D02*
X79464400Y-104023000D01*
X79464400Y-104793000D02*
X79364400Y-104023000D01*
X79364400Y-104023000D02*
X79564400Y-104023000D01*
X79564400Y-104023000D02*
X79464400Y-104793000D01*
X96748400Y-104793000D02*
X96748400Y-104023000D01*
X96748400Y-104793000D02*
X96648400Y-104023000D01*
X96648400Y-104023000D02*
X96848400Y-104023000D01*
X96848400Y-104023000D02*
X96748400Y-104793000D01*
X79464400Y-88407000D02*
X79464400Y-87637000D01*
X79464400Y-88407000D02*
X79364400Y-87637000D01*
X79364400Y-87637000D02*
X79564400Y-87637000D01*
X79564400Y-87637000D02*
X79464400Y-88407000D01*
D11*
X113876619Y-93845238D02*
X114876619Y-93845238D01*
X113876619Y-94416666D01*
X114876619Y-94416666D01*
X113876619Y-95035714D02*
X113924238Y-94940476D01*
X113971857Y-94892857D01*
X114067095Y-94845238D01*
X114352809Y-94845238D01*
X114448047Y-94892857D01*
X114495666Y-94940476D01*
X114543285Y-95035714D01*
X114543285Y-95178571D01*
X114495666Y-95273809D01*
X114448047Y-95321428D01*
X114352809Y-95369047D01*
X114067095Y-95369047D01*
X113971857Y-95321428D01*
X113924238Y-95273809D01*
X113876619Y-95178571D01*
X113876619Y-95035714D01*
X114543285Y-95702380D02*
X113876619Y-95940476D01*
X114543285Y-96178571D01*
X114781380Y-97273809D02*
X114829000Y-97321428D01*
X114876619Y-97416666D01*
X114876619Y-97654761D01*
X114829000Y-97750000D01*
X114781380Y-97797619D01*
X114686142Y-97845238D01*
X114590904Y-97845238D01*
X114448047Y-97797619D01*
X113876619Y-97226190D01*
X113876619Y-97845238D01*
X114876619Y-98464285D02*
X114876619Y-98559523D01*
X114829000Y-98654761D01*
X114781380Y-98702380D01*
X114686142Y-98750000D01*
X114495666Y-98797619D01*
X114257571Y-98797619D01*
X114067095Y-98750000D01*
X113971857Y-98702380D01*
X113924238Y-98654761D01*
X113876619Y-98559523D01*
X113876619Y-98464285D01*
X113924238Y-98369047D01*
X113971857Y-98321428D01*
X114067095Y-98273809D01*
X114257571Y-98226190D01*
X114495666Y-98226190D01*
X114686142Y-98273809D01*
X114781380Y-98321428D01*
X114829000Y-98369047D01*
X114876619Y-98464285D01*
X113876619Y-99750000D02*
X113876619Y-99178571D01*
X113876619Y-99464285D02*
X114876619Y-99464285D01*
X114733761Y-99369047D01*
X114638523Y-99273809D01*
X114590904Y-99178571D01*
X113876619Y-100226190D02*
X113876619Y-100416666D01*
X113924238Y-100511904D01*
X113971857Y-100559523D01*
X114114714Y-100654761D01*
X114305190Y-100702380D01*
X114686142Y-100702380D01*
X114781380Y-100654761D01*
X114829000Y-100607142D01*
X114876619Y-100511904D01*
X114876619Y-100321428D01*
X114829000Y-100226190D01*
X114781380Y-100178571D01*
X114686142Y-100130952D01*
X114448047Y-100130952D01*
X114352809Y-100178571D01*
X114305190Y-100226190D01*
X114257571Y-100321428D01*
X114257571Y-100511904D01*
X114305190Y-100607142D01*
X114352809Y-100654761D01*
X114448047Y-100702380D01*
X73771380Y-100416666D02*
X72771380Y-100416666D01*
X72771380Y-100178571D01*
X72819000Y-100035714D01*
X72914238Y-99940476D01*
X73009476Y-99892857D01*
X73199952Y-99845238D01*
X73342809Y-99845238D01*
X73533285Y-99892857D01*
X73628523Y-99940476D01*
X73723761Y-100035714D01*
X73771380Y-100178571D01*
X73771380Y-100416666D01*
X73104714Y-99511904D02*
X73771380Y-99273809D01*
X73104714Y-99035714D02*
X73771380Y-99273809D01*
X74009476Y-99369047D01*
X74057095Y-99416666D01*
X74104714Y-99511904D01*
X73771380Y-98511904D02*
X73723761Y-98607142D01*
X73628523Y-98654761D01*
X72771380Y-98654761D01*
X73771380Y-97702380D02*
X73247571Y-97702380D01*
X73152333Y-97750000D01*
X73104714Y-97845238D01*
X73104714Y-98035714D01*
X73152333Y-98130952D01*
X73723761Y-97702380D02*
X73771380Y-97797619D01*
X73771380Y-98035714D01*
X73723761Y-98130952D01*
X73628523Y-98178571D01*
X73533285Y-98178571D01*
X73438047Y-98130952D01*
X73390428Y-98035714D01*
X73390428Y-97797619D01*
X73342809Y-97702380D01*
X73104714Y-97226190D02*
X73771380Y-97226190D01*
X73199952Y-97226190D02*
X73152333Y-97178571D01*
X73104714Y-97083333D01*
X73104714Y-96940476D01*
X73152333Y-96845238D01*
X73247571Y-96797619D01*
X73771380Y-96797619D01*
X72771380Y-95369047D02*
X72771380Y-95178571D01*
X72819000Y-95083333D01*
X72914238Y-94988095D01*
X73104714Y-94940476D01*
X73438047Y-94940476D01*
X73628523Y-94988095D01*
X73723761Y-95083333D01*
X73771380Y-95178571D01*
X73771380Y-95369047D01*
X73723761Y-95464285D01*
X73628523Y-95559523D01*
X73438047Y-95607142D01*
X73104714Y-95607142D01*
X72914238Y-95559523D01*
X72819000Y-95464285D01*
X72771380Y-95369047D01*
X73771380Y-94511904D02*
X72771380Y-94511904D01*
X73771380Y-94083333D02*
X73247571Y-94083333D01*
X73152333Y-94130952D01*
X73104714Y-94226190D01*
X73104714Y-94369047D01*
X73152333Y-94464285D01*
X73199952Y-94511904D01*
D10*
X93852000Y-81100000D02*
X93852000Y-114000000D01*
X111300000Y-81100000D02*
X76404000Y-81100000D01*
X76404000Y-81100000D02*
X76404000Y-113400000D01*
X111300000Y-97600000D02*
X76404000Y-97600000D01*
X111300000Y-113400000D02*
X111300000Y-81200000D01*
X77000000Y-114000000D02*
X110700000Y-114000000D01*
D12*
X102754736Y-100371571D02*
X102629736Y-101371571D01*
X102469022Y-99800142D02*
X101977950Y-100871571D01*
X102906522Y-100871571D01*
X84747522Y-99871571D02*
X85676093Y-99871571D01*
X85104665Y-100443000D01*
X85318950Y-100443000D01*
X85452879Y-100514428D01*
X85515379Y-100585857D01*
X85568950Y-100728714D01*
X85524308Y-101085857D01*
X85435022Y-101228714D01*
X85354665Y-101300142D01*
X85202879Y-101371571D01*
X84774308Y-101371571D01*
X84640379Y-101300142D01*
X84577879Y-101228714D01*
X102085093Y-83628428D02*
X102165450Y-83557000D01*
X102317236Y-83485571D01*
X102674379Y-83485571D01*
X102808308Y-83557000D01*
X102870808Y-83628428D01*
X102924379Y-83771285D01*
X102906522Y-83914142D01*
X102808308Y-84128428D01*
X101844022Y-84985571D01*
X102772593Y-84985571D01*
X85488593Y-84985571D02*
X84631450Y-84985571D01*
X85060022Y-84985571D02*
X85247522Y-83485571D01*
X85077879Y-83699857D01*
X84917165Y-83842714D01*
X84765379Y-83914142D01*
D10*
X96848400Y-87637000D02*
X96748400Y-88407000D01*
X96648400Y-87637000D02*
X96848400Y-87637000D01*
X96748400Y-88407000D02*
X96648400Y-87637000D01*
X96748400Y-88407000D02*
X96748400Y-87637000D01*
D12*
X89316285Y-116829857D02*
X89816285Y-116829857D01*
X90030571Y-117615571D02*
X89316285Y-117615571D01*
X89316285Y-116115571D01*
X90030571Y-116115571D01*
X90673428Y-116615571D02*
X90673428Y-117615571D01*
X90673428Y-116758428D02*
X90744857Y-116687000D01*
X90887714Y-116615571D01*
X91102000Y-116615571D01*
X91244857Y-116687000D01*
X91316285Y-116829857D01*
X91316285Y-117615571D01*
X91816285Y-116615571D02*
X92387714Y-116615571D01*
X92030571Y-116115571D02*
X92030571Y-117401285D01*
X92102000Y-117544142D01*
X92244857Y-117615571D01*
X92387714Y-117615571D01*
X92887714Y-117615571D02*
X92887714Y-116615571D01*
X92887714Y-116901285D02*
X92959142Y-116758428D01*
X93030571Y-116687000D01*
X93173428Y-116615571D01*
X93316285Y-116615571D01*
X94459142Y-117615571D02*
X94459142Y-116829857D01*
X94387714Y-116687000D01*
X94244857Y-116615571D01*
X93959142Y-116615571D01*
X93816285Y-116687000D01*
X94459142Y-117544142D02*
X94316285Y-117615571D01*
X93959142Y-117615571D01*
X93816285Y-117544142D01*
X93744857Y-117401285D01*
X93744857Y-117258428D01*
X93816285Y-117115571D01*
X93959142Y-117044142D01*
X94316285Y-117044142D01*
X94459142Y-116972714D01*
X95173428Y-116615571D02*
X95173428Y-117615571D01*
X95173428Y-116758428D02*
X95244857Y-116687000D01*
X95387714Y-116615571D01*
X95602000Y-116615571D01*
X95744857Y-116687000D01*
X95816285Y-116829857D01*
X95816285Y-117615571D01*
X97173428Y-117544142D02*
X97030571Y-117615571D01*
X96744857Y-117615571D01*
X96602000Y-117544142D01*
X96530571Y-117472714D01*
X96459142Y-117329857D01*
X96459142Y-116901285D01*
X96530571Y-116758428D01*
X96602000Y-116687000D01*
X96744857Y-116615571D01*
X97030571Y-116615571D01*
X97173428Y-116687000D01*
X98387714Y-117544142D02*
X98244857Y-117615571D01*
X97959142Y-117615571D01*
X97816285Y-117544142D01*
X97744857Y-117401285D01*
X97744857Y-116829857D01*
X97816285Y-116687000D01*
X97959142Y-116615571D01*
X98244857Y-116615571D01*
X98387714Y-116687000D01*
X98459142Y-116829857D01*
X98459142Y-116972714D01*
X97744857Y-117115571D01*
D13*
X87461553Y-76563000D02*
X87282982Y-76467761D01*
X86997267Y-76467761D01*
X86699648Y-76563000D01*
X86485363Y-76753476D01*
X86366315Y-76943952D01*
X86223458Y-77324904D01*
X86187744Y-77610619D01*
X86235363Y-77991571D01*
X86306791Y-78182047D01*
X86473458Y-78372523D01*
X86747267Y-78467761D01*
X86937744Y-78467761D01*
X87235363Y-78372523D01*
X87342505Y-78277285D01*
X87425839Y-77610619D01*
X87044886Y-77610619D01*
X89032982Y-78467761D02*
X89163934Y-77420142D01*
X89092505Y-77229666D01*
X88913934Y-77134428D01*
X88532982Y-77134428D01*
X88330601Y-77229666D01*
X89044886Y-78372523D02*
X88842505Y-78467761D01*
X88366315Y-78467761D01*
X88187744Y-78372523D01*
X88116315Y-78182047D01*
X88140125Y-77991571D01*
X88259172Y-77801095D01*
X88461553Y-77705857D01*
X88937744Y-77705857D01*
X89140125Y-77610619D01*
X89866315Y-77134428D02*
X90628220Y-77134428D01*
X90235363Y-76467761D02*
X90021077Y-78182047D01*
X90092505Y-78372523D01*
X90271077Y-78467761D01*
X90461553Y-78467761D01*
X91902029Y-78372523D02*
X91699648Y-78467761D01*
X91318696Y-78467761D01*
X91140125Y-78372523D01*
X91068696Y-78182047D01*
X91163934Y-77420142D01*
X91282982Y-77229666D01*
X91485363Y-77134428D01*
X91866315Y-77134428D01*
X92044886Y-77229666D01*
X92116315Y-77420142D01*
X92092505Y-77610619D01*
X91116315Y-77801095D01*
X92818696Y-77134428D02*
X93032982Y-78467761D01*
X93532982Y-77515380D01*
X93794886Y-78467761D01*
X94342505Y-77134428D01*
X95794886Y-78467761D02*
X95925839Y-77420142D01*
X95854410Y-77229666D01*
X95675839Y-77134428D01*
X95294886Y-77134428D01*
X95092505Y-77229666D01*
X95806791Y-78372523D02*
X95604410Y-78467761D01*
X95128220Y-78467761D01*
X94949648Y-78372523D01*
X94878220Y-78182047D01*
X94902029Y-77991571D01*
X95021077Y-77801095D01*
X95223458Y-77705857D01*
X95699648Y-77705857D01*
X95902029Y-77610619D01*
X96723458Y-77134428D02*
X97032982Y-78467761D01*
X97675839Y-77134428D02*
X97032982Y-78467761D01*
X96782982Y-78943952D01*
X96675839Y-79039190D01*
X96473458Y-79134428D01*
X98902029Y-76467761D02*
X99092505Y-76467761D01*
X99271077Y-76563000D01*
X99354410Y-76658238D01*
X99425839Y-76848714D01*
X99473458Y-77229666D01*
X99413934Y-77705857D01*
X99271077Y-78086809D01*
X99152029Y-78277285D01*
X99044886Y-78372523D01*
X98842505Y-78467761D01*
X98652029Y-78467761D01*
X98473458Y-78372523D01*
X98390125Y-78277285D01*
X98318696Y-78086809D01*
X98271077Y-77705857D01*
X98330601Y-77229666D01*
X98473458Y-76848714D01*
X98592505Y-76658238D01*
X98699648Y-76563000D01*
X98902029Y-76467761D01*
X100235363Y-76467761D02*
X101473458Y-76467761D01*
X100711553Y-77229666D01*
X100997267Y-77229666D01*
X101175839Y-77324904D01*
X101259172Y-77420142D01*
X101330601Y-77610619D01*
X101271077Y-78086809D01*
X101152029Y-78277285D01*
X101044886Y-78372523D01*
X100842505Y-78467761D01*
X100271077Y-78467761D01*
X100092505Y-78372523D01*
X100009172Y-78277285D01*
D10*
X93350000Y-91697000D02*
G75*
G03X92900000Y-91247000I-450000J0D01*
G01*
X77520000Y-91247000D02*
G75*
G03X77070000Y-91697000I0J-450000D01*
G01*
X92900000Y-96367000D02*
G75*
G03X93350000Y-95917000I0J450000D01*
G01*
X77070000Y-95917000D02*
G75*
G03X77520000Y-96367000I450000J0D01*
G01*
X77520000Y-96367000D02*
X92900000Y-96367000D01*
X77520000Y-91247000D02*
X92900000Y-91247000D01*
X93350000Y-95917000D02*
X93350000Y-91697000D01*
X77070000Y-91697000D02*
X77070000Y-95917000D01*
X76750000Y-94177000D02*
X76750000Y-94977000D01*
X76750000Y-94977000D02*
X77070000Y-95177000D01*
X93670000Y-94977000D02*
X93350000Y-95177000D01*
X93670000Y-94177000D02*
X93670000Y-94977000D01*
X93670000Y-94177000D02*
X93350000Y-93977000D01*
X76750000Y-94177000D02*
X77070000Y-93977000D01*
X110634000Y-91697000D02*
G75*
G03X110184000Y-91247000I-450000J0D01*
G01*
X94804000Y-91247000D02*
G75*
G03X94354000Y-91697000I0J-450000D01*
G01*
X110184000Y-96367000D02*
G75*
G03X110634000Y-95917000I0J450000D01*
G01*
X94354000Y-95917000D02*
G75*
G03X94804000Y-96367000I450000J0D01*
G01*
X94804000Y-96367000D02*
X110184000Y-96367000D01*
X94804000Y-91247000D02*
X110184000Y-91247000D01*
X110634000Y-95917000D02*
X110634000Y-91697000D01*
X94354000Y-91697000D02*
X94354000Y-95917000D01*
X94034000Y-94177000D02*
X94034000Y-94977000D01*
X94034000Y-94977000D02*
X94354000Y-95177000D01*
X110954000Y-94977000D02*
X110634000Y-95177000D01*
X110954000Y-94177000D02*
X110954000Y-94977000D01*
X110954000Y-94177000D02*
X110634000Y-93977000D01*
X94034000Y-94177000D02*
X94354000Y-93977000D01*
X93350000Y-108083000D02*
G75*
G03X92900000Y-107633000I-450000J0D01*
G01*
X77520000Y-107633000D02*
G75*
G03X77070000Y-108083000I0J-450000D01*
G01*
X92900000Y-112753000D02*
G75*
G03X93350000Y-112303000I0J450000D01*
G01*
X77070000Y-112303000D02*
G75*
G03X77520000Y-112753000I450000J0D01*
G01*
X77520000Y-112753000D02*
X92900000Y-112753000D01*
X77520000Y-107633000D02*
X92900000Y-107633000D01*
X93350000Y-112303000D02*
X93350000Y-108083000D01*
X77070000Y-108083000D02*
X77070000Y-112303000D01*
X76750000Y-110563000D02*
X76750000Y-111363000D01*
X76750000Y-111363000D02*
X77070000Y-111563000D01*
X93670000Y-111363000D02*
X93350000Y-111563000D01*
X93670000Y-110563000D02*
X93670000Y-111363000D01*
X93670000Y-110563000D02*
X93350000Y-110363000D01*
X76750000Y-110563000D02*
X77070000Y-110363000D01*
X110634000Y-108083000D02*
G75*
G03X110184000Y-107633000I-450000J0D01*
G01*
X94804000Y-107633000D02*
G75*
G03X94354000Y-108083000I0J-450000D01*
G01*
X110184000Y-112753000D02*
G75*
G03X110634000Y-112303000I0J450000D01*
G01*
X94354000Y-112303000D02*
G75*
G03X94804000Y-112753000I450000J0D01*
G01*
X94804000Y-112753000D02*
X110184000Y-112753000D01*
X94804000Y-107633000D02*
X110184000Y-107633000D01*
X110634000Y-112303000D02*
X110634000Y-108083000D01*
X94354000Y-108083000D02*
X94354000Y-112303000D01*
X94034000Y-110563000D02*
X94034000Y-111363000D01*
X94034000Y-111363000D02*
X94354000Y-111563000D01*
X110954000Y-111363000D02*
X110634000Y-111563000D01*
X110954000Y-110563000D02*
X110954000Y-111363000D01*
X110954000Y-110563000D02*
X110634000Y-110363000D01*
X94034000Y-110563000D02*
X94354000Y-110363000D01*
M02*
