G04 #@! TF.GenerationSoftware,KiCad,Pcbnew,(5.1.0)-1*
G04 #@! TF.CreationDate,2019-11-25T13:15:00-07:00*
G04 #@! TF.ProjectId,Gateway03,47617465-7761-4793-9033-2e6b69636164,rev?*
G04 #@! TF.SameCoordinates,Original*
G04 #@! TF.FileFunction,Paste,Bot*
G04 #@! TF.FilePolarity,Positive*
%FSLAX46Y46*%
G04 Gerber Fmt 4.6, Leading zero omitted, Abs format (unit mm)*
G04 Created by KiCad (PCBNEW (5.1.0)-1) date 2019-11-25 13:15:00*
%MOMM*%
%LPD*%
G04 APERTURE LIST*
%ADD10R,0.300000X2.200000*%
G04 APERTURE END LIST*
D10*
X88460000Y-82207000D03*
X86460000Y-82207000D03*
X88960000Y-82207000D03*
X85460000Y-82207000D03*
X87460000Y-82207000D03*
X86960000Y-82207000D03*
X89960000Y-82207000D03*
X85960000Y-82207000D03*
X87960000Y-82207000D03*
X89460000Y-82207000D03*
X88460000Y-86407000D03*
X86460000Y-86407000D03*
X88960000Y-86407000D03*
X85460000Y-86407000D03*
X87460000Y-86407000D03*
X86960000Y-86407000D03*
X89960000Y-86407000D03*
X85960000Y-86407000D03*
X87960000Y-86407000D03*
X89460000Y-86407000D03*
X80460000Y-86407000D03*
X80460000Y-82207000D03*
X80960000Y-86407000D03*
X80960000Y-82207000D03*
X81460000Y-86407000D03*
X81460000Y-82207000D03*
X81960000Y-86407000D03*
X81960000Y-82207000D03*
X82460000Y-86407000D03*
X82460000Y-82207000D03*
X82960000Y-86407000D03*
X82960000Y-82207000D03*
X83460000Y-86407000D03*
X83460000Y-82207000D03*
X83960000Y-86407000D03*
X83960000Y-82207000D03*
X84460000Y-86407000D03*
X84460000Y-82207000D03*
X84960000Y-86407000D03*
X84960000Y-82207000D03*
X88460000Y-98593000D03*
X86460000Y-98593000D03*
X88960000Y-98593000D03*
X85460000Y-98593000D03*
X87460000Y-98593000D03*
X86960000Y-98593000D03*
X89960000Y-98593000D03*
X85960000Y-98593000D03*
X87960000Y-98593000D03*
X89460000Y-98593000D03*
X88460000Y-102793000D03*
X86460000Y-102793000D03*
X88960000Y-102793000D03*
X85460000Y-102793000D03*
X87460000Y-102793000D03*
X86960000Y-102793000D03*
X89960000Y-102793000D03*
X85960000Y-102793000D03*
X87960000Y-102793000D03*
X89460000Y-102793000D03*
X80460000Y-102793000D03*
X80460000Y-98593000D03*
X80960000Y-102793000D03*
X80960000Y-98593000D03*
X81460000Y-102793000D03*
X81460000Y-98593000D03*
X81960000Y-102793000D03*
X81960000Y-98593000D03*
X82460000Y-102793000D03*
X82460000Y-98593000D03*
X82960000Y-102793000D03*
X82960000Y-98593000D03*
X83460000Y-102793000D03*
X83460000Y-98593000D03*
X83960000Y-102793000D03*
X83960000Y-98593000D03*
X84460000Y-102793000D03*
X84460000Y-98593000D03*
X84960000Y-102793000D03*
X84960000Y-98593000D03*
X105744000Y-98593000D03*
X103744000Y-98593000D03*
X106244000Y-98593000D03*
X102744000Y-98593000D03*
X104744000Y-98593000D03*
X104244000Y-98593000D03*
X107244000Y-98593000D03*
X103244000Y-98593000D03*
X105244000Y-98593000D03*
X106744000Y-98593000D03*
X105744000Y-102793000D03*
X103744000Y-102793000D03*
X106244000Y-102793000D03*
X102744000Y-102793000D03*
X104744000Y-102793000D03*
X104244000Y-102793000D03*
X107244000Y-102793000D03*
X103244000Y-102793000D03*
X105244000Y-102793000D03*
X106744000Y-102793000D03*
X97744000Y-102793000D03*
X97744000Y-98593000D03*
X98244000Y-102793000D03*
X98244000Y-98593000D03*
X98744000Y-102793000D03*
X98744000Y-98593000D03*
X99244000Y-102793000D03*
X99244000Y-98593000D03*
X99744000Y-102793000D03*
X99744000Y-98593000D03*
X100244000Y-102793000D03*
X100244000Y-98593000D03*
X100744000Y-102793000D03*
X100744000Y-98593000D03*
X101244000Y-102793000D03*
X101244000Y-98593000D03*
X101744000Y-102793000D03*
X101744000Y-98593000D03*
X102244000Y-102793000D03*
X102244000Y-98593000D03*
X105744000Y-82207000D03*
X103744000Y-82207000D03*
X106244000Y-82207000D03*
X102744000Y-82207000D03*
X104744000Y-82207000D03*
X104244000Y-82207000D03*
X107244000Y-82207000D03*
X103244000Y-82207000D03*
X105244000Y-82207000D03*
X106744000Y-82207000D03*
X105744000Y-86407000D03*
X103744000Y-86407000D03*
X106244000Y-86407000D03*
X102744000Y-86407000D03*
X104744000Y-86407000D03*
X104244000Y-86407000D03*
X107244000Y-86407000D03*
X103244000Y-86407000D03*
X105244000Y-86407000D03*
X106744000Y-86407000D03*
X97744000Y-86407000D03*
X97744000Y-82207000D03*
X98244000Y-86407000D03*
X98244000Y-82207000D03*
X98744000Y-86407000D03*
X98744000Y-82207000D03*
X99244000Y-86407000D03*
X99244000Y-82207000D03*
X99744000Y-86407000D03*
X99744000Y-82207000D03*
X100244000Y-86407000D03*
X100244000Y-82207000D03*
X100744000Y-86407000D03*
X100744000Y-82207000D03*
X101244000Y-86407000D03*
X101244000Y-82207000D03*
X101744000Y-86407000D03*
X101744000Y-82207000D03*
X102244000Y-86407000D03*
X102244000Y-82207000D03*
M02*
