M48
; DRILL file {KiCad (5.1.5)-3} date 1/2/2020 12:13:33 PM
; FORMAT={-:-/ absolute / inch / decimal}
; #@! TF.CreationDate,2020-01-02T12:13:33-07:00
; #@! TF.GenerationSoftware,Kicad,Pcbnew,(5.1.5)-3
; #@! TF.FileFunction,Plated,1,2,PTH
FMAT,2
INCH
T1C0.0118
T2C0.0394
T3C0.0571
%
G90
G05
T1
X3.1053Y-3.5062
X3.1053Y-4.1513
X3.1315Y-3.5062
X3.1315Y-4.1513
X3.1576Y-3.5062
X3.1576Y-4.1513
X3.1846Y-3.5062
X3.1846Y-4.1513
X3.2108Y-3.5062
X3.2108Y-4.1513
X3.2369Y-3.5062
X3.2369Y-4.1513
X3.2631Y-3.5062
X3.2631Y-4.1513
X3.2893Y-3.5062
X3.2893Y-4.1513
X3.3155Y-3.5062
X3.3155Y-4.1513
X3.3416Y-3.5062
X3.3416Y-4.1513
X3.3678Y-3.5062
X3.3678Y-4.1513
X3.394Y-3.5062
X3.394Y-4.1513
X3.4202Y-3.5062
X3.4202Y-4.1513
X3.4463Y-3.5062
X3.4463Y-4.1513
X3.4725Y-3.5062
X3.4725Y-4.1513
X3.4987Y-3.5062
X3.4987Y-4.1513
X3.5249Y-3.5062
X3.5249Y-4.1513
X3.551Y-3.5062
X3.551Y-4.1513
X3.5772Y-3.5062
X3.5772Y-4.1513
X3.6034Y-3.5062
X3.6034Y-4.1513
X3.7858Y-3.5062
X3.7858Y-4.1513
X3.8119Y-3.5062
X3.8119Y-4.1513
X3.8381Y-3.5062
X3.8381Y-4.1513
X3.8651Y-3.5062
X3.8651Y-4.1513
X3.8912Y-3.5062
X3.8912Y-4.1513
X3.9174Y-3.5062
X3.9174Y-4.1513
X3.9436Y-3.5062
X3.9436Y-4.1513
X3.9698Y-3.5062
X3.9698Y-4.1513
X3.9959Y-3.5062
X3.9959Y-4.1513
X4.0221Y-3.5062
X4.0221Y-4.1513
X4.0483Y-3.5062
X4.0483Y-4.1513
X4.0745Y-3.5062
X4.0745Y-4.1513
X4.1006Y-3.5062
X4.1006Y-4.1513
X4.1268Y-3.5062
X4.1268Y-4.1513
X4.153Y-3.5062
X4.153Y-4.1513
X4.1791Y-3.5062
X4.1791Y-4.1513
X4.2053Y-3.5062
X4.2053Y-4.1513
X4.2315Y-3.5062
X4.2315Y-4.1513
X4.2577Y-3.5062
X4.2577Y-4.1513
X4.2838Y-3.5062
X4.2838Y-4.1513
T2
X3.0636Y-4.2887
X3.6459Y-4.2887
X3.7441Y-4.2887
X4.3263Y-4.2887
X3.0636Y-3.6436
X3.6459Y-3.6436
X3.0636Y-4.0139
X3.6459Y-4.0139
X3.7441Y-4.0139
X4.3263Y-4.0139
X3.0636Y-3.3688
X3.6459Y-3.3688
X3.7441Y-3.3688
X4.3263Y-3.3688
X3.7441Y-3.6436
X4.3263Y-3.6436
T3
X3.8021Y-4.3674
X4.2683Y-4.3674
X3.1217Y-3.7223
X3.5878Y-3.7223
X3.1217Y-3.9352
X3.5878Y-3.9352
X3.8021Y-3.9352
X4.2683Y-3.9352
X3.1217Y-3.29
X3.5878Y-3.29
X3.8021Y-3.29
X4.2683Y-3.29
X3.8021Y-3.7223
X4.2683Y-3.7223
X3.1217Y-4.3674
X3.5878Y-4.3674
T0
M30
